<?xml version="1.0" encoding="UTF-8"?>
<svg width="296px" height="28px" viewBox="0 0 296 28" version="1.1" xmlns="http://www.w3.org/2000/svg" xmlns:xlink="http://www.w3.org/1999/xlink">
    <!-- Generator: Sketch 40.3 (33839) - http://www.bohemiancoding.com/sketch -->
    <title>при лечении цистита</title>
    <desc>Created with Sketch.</desc>
    <defs></defs>
    <g id="Page-1" stroke="none" stroke-width="1" fill="none" fill-rule="evenodd">
        <g id="Sostav-IN-CURVES" transform="translate(-460.000000, -240.000000)" fill="#354777">
            <path d="M473.14,245.91 C473.14,245.525 472.965,245.175 472.615,244.895 C472.23,244.65 471.845,244.51 471.46,244.44 C467.89,244.72 465.055,244.965 463.025,245.105 C461.8,245.21 461.205,245.63 461.205,246.4 C461.205,246.89 461.275,247.31 461.485,247.695 C461.24,251.3 461.135,253.12 461.135,253.19 C460.89,255.71 460.785,256.97 460.785,256.97 C460.785,257.425 460.925,257.88 461.24,258.335 C461.555,258.79 461.905,259 462.325,259 C463.025,259 463.375,258.545 463.445,257.6 C463.655,253.82 463.865,250.565 464.145,247.835 C465.93,247.59 467.785,247.415 469.71,247.345 C469.71,247.45 469.64,249.165 469.535,252.455 C469.395,255.395 469.36,256.97 469.36,257.18 C469.36,259.455 469.955,260.61 471.215,260.61 C471.88,260.61 472.23,260.225 472.23,259.525 C472.02,258.475 471.95,257.495 471.95,256.655 C471.95,255.535 472.02,253.75 472.16,251.3 C472.195,250.915 472.265,250.355 472.37,249.585 C472.44,248.955 472.475,248.605 472.475,248.465 C472.475,248.255 472.405,247.94 472.335,247.52 C472.86,246.96 473.14,246.435 473.14,245.91 L473.14,245.91 Z M489.415,246.89 C489.415,245.21 489.03,243.81 488.26,242.69 C487.42,241.465 486.195,240.835 484.655,240.835 C482.45,240.835 480.735,242.375 479.51,245.455 C478.67,247.59 478.25,250.04 478.25,252.77 C478.25,253.12 478.25,253.4 478.285,253.575 C477.305,253.925 476.85,254.45 476.85,255.185 C476.85,256.095 477.305,256.585 478.285,256.655 C478.355,257.215 478.39,258.055 478.39,259.175 C478.39,261.415 478.25,262.99 478.04,263.97 C477.795,264.915 477.69,265.44 477.69,265.545 C477.69,265.93 477.83,266.28 478.11,266.595 C478.39,266.875 478.74,267.05 479.125,267.05 C479.86,267.05 480.385,266.315 480.7,264.88 C481.05,263.27 481.225,261.625 481.225,260.015 C481.225,258.545 481.155,257.11 481.05,255.71 C486.615,253.68 489.415,250.74 489.415,246.89 L489.415,246.89 Z M486.615,246.295 C486.615,249.165 484.76,251.265 481.085,252.595 C481.085,250.705 481.4,248.78 482.065,246.89 C482.8,244.825 483.675,243.775 484.655,243.775 C485.25,243.775 485.74,244.055 486.125,244.545 C486.44,245.035 486.615,245.63 486.615,246.295 L486.615,246.295 Z M505.865,259.21 C505.865,258.965 505.69,258.65 505.375,258.3 C504.605,257.46 504.255,255.325 504.255,251.895 C504.255,250.67 504.43,248.605 504.815,245.7 C504.815,245.315 504.64,244.965 504.36,244.615 C504.045,244.3 503.695,244.125 503.31,244.125 C502.715,244.125 501.455,245.42 499.565,248.01 C498.025,250.04 496.765,251.895 495.715,253.505 C495.96,250.775 496.135,248.78 496.24,247.59 C496.24,247.03 496.03,246.54 495.68,246.12 C495.33,245.735 494.875,245.525 494.315,245.525 C494,245.525 493.72,245.735 493.44,246.12 C493.51,247.135 493.58,247.73 493.58,247.87 C493.58,248.5 493.475,250.075 493.3,252.63 L493.23,253.645 C493.195,254.17 493.125,254.87 493.055,255.745 C492.95,256.585 492.88,257.11 492.88,257.32 C492.915,257.81 493.055,258.195 493.335,258.405 C493.895,258.965 494.245,259.21 494.385,259.21 C494.875,259.21 495.47,258.685 496.1,257.565 C497.395,255.395 498.305,253.855 498.865,253.015 C499.775,251.51 500.755,250.11 501.84,248.85 C501.84,249.2 501.805,249.935 501.805,251.02 C501.77,252.14 501.77,252.735 501.77,252.875 C501.77,254.695 501.945,256.235 502.33,257.565 C502.855,259.49 503.625,260.47 504.605,260.47 C504.815,260.47 505.095,260.295 505.41,260.015 C505.69,259.665 505.865,259.42 505.865,259.21 L505.865,259.21 Z M535.545,246.61 C535.545,246.085 535.37,245.63 535.02,245.21 C534.705,244.825 534.32,244.615 533.83,244.615 C533.62,244.615 533.2,244.825 532.57,245.175 C531.94,245.56 530.4,245.875 527.915,246.155 C527.355,245.7 526.9,245.455 526.585,245.455 C526.2,245.455 525.78,245.665 525.36,246.085 C524.94,246.505 524.73,246.96 524.73,247.38 C524.73,247.66 524.87,248.01 525.15,248.395 C525.395,248.815 525.535,249.27 525.535,249.795 C525.535,251.965 525.36,253.75 525.01,255.22 C524.555,256.935 523.96,257.775 523.26,257.775 C522.98,257.775 522.77,257.355 522.7,256.445 C522.63,256.095 522.49,255.885 522.21,255.885 C521.72,255.885 521.37,256.13 521.125,256.55 C520.81,257.04 520.67,257.6 520.67,258.195 C520.67,258.86 520.915,259.35 521.44,259.735 C521.93,260.085 522.49,260.295 523.12,260.295 C524.94,260.295 526.235,259.105 527.005,256.795 C527.495,255.325 527.915,252.665 528.265,248.815 C529.14,248.605 530.47,248.325 532.29,248.01 C531.94,251.44 531.765,254.03 531.765,255.78 C531.765,258.09 531.905,259.525 532.22,260.12 C532.535,260.715 532.99,261.03 533.55,261.03 C534.46,261.03 534.915,260.47 534.915,259.42 C534.775,258.79 534.705,258.23 534.635,257.74 C534.46,256.55 534.39,255.535 534.39,254.66 C534.39,252.77 534.67,250.565 535.265,248.045 C535.44,247.205 535.545,246.75 535.545,246.61 L535.545,246.61 Z M553.01,258.37 C553.01,258.02 552.87,257.67 552.59,257.32 C552.31,257.04 551.96,256.865 551.61,256.865 C551.33,256.865 550.875,256.935 550.28,257.005 C549.685,257.075 549.23,257.11 548.95,257.11 C547.9,257.11 546.99,256.62 546.15,255.605 C549.65,253.715 551.4,251.475 551.4,248.885 C551.4,247.905 550.98,246.96 550.14,246.12 C549.3,245.28 548.46,244.86 547.585,244.86 C546.08,244.86 544.855,245.735 543.875,247.45 C543.035,248.92 542.615,250.495 542.615,252.175 C542.615,252.525 542.65,253.015 542.755,253.61 L541.95,253.61 C541.46,253.61 541.005,253.435 540.515,253.085 C540.025,252.735 539.675,252.56 539.465,252.56 C538.555,252.56 538.1,253.05 538.1,254.03 C538.1,254.8 538.66,255.43 539.85,255.92 C540.76,256.305 541.635,256.48 542.545,256.48 L543.595,256.48 C544.855,258.895 546.815,260.085 549.475,260.085 C551.82,260.085 553.01,259.49 553.01,258.37 L553.01,258.37 Z M548.635,249.025 C548.635,250.18 547.585,251.44 545.485,252.805 L545.485,252.175 C545.485,251.23 545.625,250.32 545.975,249.445 C546.325,248.395 546.815,247.87 547.445,247.87 C547.725,247.87 548.005,248.01 548.285,248.22 C548.495,248.5 548.635,248.745 548.635,249.025 L548.635,249.025 Z M567.36,245.7 C567.325,245.315 567.185,244.93 566.905,244.58 C566.625,244.23 566.31,244.055 565.96,244.055 C565.015,244.055 564.525,244.58 564.49,245.595 C564.49,245.735 564.49,246.19 564.525,246.925 C564.525,247.73 564.56,248.185 564.56,248.325 C564.56,249.69 564.105,250.95 563.23,252.14 C562.32,253.33 561.305,253.89 560.22,253.89 C558.855,253.89 558.19,252.91 558.19,250.88 C558.19,250.11 558.33,248.36 558.68,245.63 C558.575,244.65 558.155,244.125 557.455,244.125 C556.475,244.125 555.915,245.07 555.705,246.925 C555.635,247.45 555.6,248.745 555.6,250.845 C555.6,254.555 557.07,256.41 560.045,256.41 C560.885,256.41 561.76,256.2 562.6,255.71 C563.44,255.255 564.105,254.625 564.525,253.855 C564.455,255.255 564.385,256.41 564.315,257.285 C564.175,258.72 564.14,259.735 564.14,260.435 C564.14,261.38 564.525,261.87 565.365,261.87 C566.275,261.87 566.765,261.38 566.8,260.4 C566.835,258.125 566.94,254.765 567.15,250.355 C567.22,248.045 567.29,246.505 567.36,245.7 L567.36,245.7 Z M584.825,258.37 C584.825,258.02 584.685,257.67 584.405,257.32 C584.125,257.04 583.775,256.865 583.425,256.865 C583.145,256.865 582.69,256.935 582.095,257.005 C581.5,257.075 581.045,257.11 580.765,257.11 C579.715,257.11 578.805,256.62 577.965,255.605 C581.465,253.715 583.215,251.475 583.215,248.885 C583.215,247.905 582.795,246.96 581.955,246.12 C581.115,245.28 580.275,244.86 579.4,244.86 C577.895,244.86 576.67,245.735 575.69,247.45 C574.85,248.92 574.43,250.495 574.43,252.175 C574.43,252.525 574.465,253.015 574.57,253.61 L573.765,253.61 C573.275,253.61 572.82,253.435 572.33,253.085 C571.84,252.735 571.49,252.56 571.28,252.56 C570.37,252.56 569.915,253.05 569.915,254.03 C569.915,254.8 570.475,255.43 571.665,255.92 C572.575,256.305 573.45,256.48 574.36,256.48 L575.41,256.48 C576.67,258.895 578.63,260.085 581.29,260.085 C583.635,260.085 584.825,259.49 584.825,258.37 L584.825,258.37 Z M580.45,249.025 C580.45,250.18 579.4,251.44 577.3,252.805 L577.3,252.175 C577.3,251.23 577.44,250.32 577.79,249.445 C578.14,248.395 578.63,247.87 579.26,247.87 C579.54,247.87 579.82,248.01 580.1,248.22 C580.31,248.5 580.45,248.745 580.45,249.025 L580.45,249.025 Z M599.07,246.05 C599.07,245.14 598.65,244.685 597.81,244.685 C597.11,244.685 596.655,245.315 596.48,246.505 C596.305,247.45 596.095,248.78 595.885,250.495 C594.345,250.88 592.84,251.16 591.37,251.3 C591.72,249.06 592.07,247.38 592.42,246.225 C592.63,245.595 592.805,245.105 592.98,244.685 C592.91,243.74 592.49,243.25 591.65,243.25 C591.055,243.25 590.67,243.53 590.46,244.09 C589.76,245.77 589.2,248.185 588.85,251.335 C588.29,251.335 587.905,251.3 587.695,251.265 C586.995,251.265 586.68,251.685 586.68,252.455 C586.68,253.33 587.17,253.75 588.185,253.75 L588.605,253.75 C588.5,255.08 588.395,256.585 588.325,258.335 C588.325,258.44 588.29,258.615 588.255,258.825 C588.185,259.035 588.185,259.175 588.185,259.315 C588.185,259.665 588.325,259.98 588.605,260.26 C588.885,260.54 589.2,260.68 589.55,260.68 C590.39,260.68 590.845,260.225 590.88,259.35 C590.88,258.16 590.985,256.27 591.16,253.68 C592.665,253.54 594.135,253.295 595.605,252.945 C595.43,254.8 595.325,256.27 595.325,257.32 C595.325,257.425 595.29,257.565 595.255,257.775 C595.185,257.95 595.15,258.09 595.15,258.195 C595.15,259.035 595.255,259.665 595.535,260.085 C595.815,260.54 596.13,260.785 596.55,260.785 C596.9,260.785 597.215,260.645 597.495,260.365 C597.74,260.085 597.88,259.735 597.88,259.35 C597.88,259.28 597.845,259.105 597.845,258.755 C597.81,258.405 597.81,258.125 597.81,257.985 C597.81,255.64 598.16,252.035 598.93,247.17 C599,246.54 599.07,246.19 599.07,246.05 L599.07,246.05 Z M615.625,259.21 C615.625,258.965 615.45,258.65 615.135,258.3 C614.365,257.46 614.015,255.325 614.015,251.895 C614.015,250.67 614.19,248.605 614.575,245.7 C614.575,245.315 614.4,244.965 614.12,244.615 C613.805,244.3 613.455,244.125 613.07,244.125 C612.475,244.125 611.215,245.42 609.325,248.01 C607.785,250.04 606.525,251.895 605.475,253.505 C605.72,250.775 605.895,248.78 606,247.59 C606,247.03 605.79,246.54 605.44,246.12 C605.09,245.735 604.635,245.525 604.075,245.525 C603.76,245.525 603.48,245.735 603.2,246.12 C603.27,247.135 603.34,247.73 603.34,247.87 C603.34,248.5 603.235,250.075 603.06,252.63 L602.99,253.645 C602.955,254.17 602.885,254.87 602.815,255.745 C602.71,256.585 602.64,257.11 602.64,257.32 C602.675,257.81 602.815,258.195 603.095,258.405 C603.655,258.965 604.005,259.21 604.145,259.21 C604.635,259.21 605.23,258.685 605.86,257.565 C607.155,255.395 608.065,253.855 608.625,253.015 C609.535,251.51 610.515,250.11 611.6,248.85 C611.6,249.2 611.565,249.935 611.565,251.02 C611.53,252.14 611.53,252.735 611.53,252.875 C611.53,254.695 611.705,256.235 612.09,257.565 C612.615,259.49 613.385,260.47 614.365,260.47 C614.575,260.47 614.855,260.295 615.17,260.015 C615.45,259.665 615.625,259.42 615.625,259.21 L615.625,259.21 Z M632.18,259.21 C632.18,258.965 632.005,258.65 631.69,258.3 C630.92,257.46 630.57,255.325 630.57,251.895 C630.57,250.67 630.745,248.605 631.13,245.7 C631.13,245.315 630.955,244.965 630.675,244.615 C630.36,244.3 630.01,244.125 629.625,244.125 C629.03,244.125 627.77,245.42 625.88,248.01 C624.34,250.04 623.08,251.895 622.03,253.505 C622.275,250.775 622.45,248.78 622.555,247.59 C622.555,247.03 622.345,246.54 621.995,246.12 C621.645,245.735 621.19,245.525 620.63,245.525 C620.315,245.525 620.035,245.735 619.755,246.12 C619.825,247.135 619.895,247.73 619.895,247.87 C619.895,248.5 619.79,250.075 619.615,252.63 L619.545,253.645 C619.51,254.17 619.44,254.87 619.37,255.745 C619.265,256.585 619.195,257.11 619.195,257.32 C619.23,257.81 619.37,258.195 619.65,258.405 C620.21,258.965 620.56,259.21 620.7,259.21 C621.19,259.21 621.785,258.685 622.415,257.565 C623.71,255.395 624.62,253.855 625.18,253.015 C626.09,251.51 627.07,250.11 628.155,248.85 C628.155,249.2 628.12,249.935 628.12,251.02 C628.085,252.14 628.085,252.735 628.085,252.875 C628.085,254.695 628.26,256.235 628.645,257.565 C629.17,259.49 629.94,260.47 630.92,260.47 C631.13,260.47 631.41,260.295 631.725,260.015 C632.005,259.665 632.18,259.42 632.18,259.21 L632.18,259.21 Z M660.39,259.245 C660.39,257.635 659.795,256.725 658.675,256.515 C658.325,256.585 658.08,256.655 657.905,256.655 C658.325,251.895 658.605,248.605 658.745,246.785 C658.745,246.365 658.57,245.91 658.255,245.455 C657.905,245 657.555,244.755 657.17,244.755 C656.435,244.755 656.015,245.07 655.91,245.63 L655.91,248.57 C655.91,250.005 655.665,252.84 655.245,257.04 C652.725,257.425 651.255,257.6 650.87,257.6 C650.52,257.6 650.345,257.39 650.345,256.935 L650.59,252.63 C650.765,249.795 650.87,248.325 650.87,248.185 C650.87,247.31 650.73,246.505 650.485,245.735 C650.135,244.755 649.61,244.23 648.91,244.23 C648.245,244.23 647.895,244.615 647.825,245.385 C647.86,246.12 647.895,246.68 647.965,247.03 C648.035,248.15 648.105,248.71 648.105,248.745 C648.105,249.725 648.035,251.125 647.93,253.015 C647.79,254.905 647.72,256.34 647.72,257.285 C647.72,258.545 648.105,259.385 648.91,259.945 C649.47,260.295 649.96,260.505 650.38,260.505 L653.845,259.98 C655.175,259.77 656.33,259.7 657.38,259.7 C657.66,259.7 657.8,259.84 657.8,260.155 C657.8,260.575 657.73,261.03 657.59,261.52 C657.345,262.29 657.24,262.78 657.24,262.92 C657.24,263.06 657.345,263.27 657.59,263.515 C657.835,263.725 658.045,263.865 658.22,263.865 C658.78,263.865 659.305,263.235 659.795,261.975 C660.18,260.925 660.39,260.015 660.39,259.245 L660.39,259.245 Z M676.21,259.21 C676.21,258.965 676.035,258.65 675.72,258.3 C674.95,257.46 674.6,255.325 674.6,251.895 C674.6,250.67 674.775,248.605 675.16,245.7 C675.16,245.315 674.985,244.965 674.705,244.615 C674.39,244.3 674.04,244.125 673.655,244.125 C673.06,244.125 671.8,245.42 669.91,248.01 C668.37,250.04 667.11,251.895 666.06,253.505 C666.305,250.775 666.48,248.78 666.585,247.59 C666.585,247.03 666.375,246.54 666.025,246.12 C665.675,245.735 665.22,245.525 664.66,245.525 C664.345,245.525 664.065,245.735 663.785,246.12 C663.855,247.135 663.925,247.73 663.925,247.87 C663.925,248.5 663.82,250.075 663.645,252.63 L663.575,253.645 C663.54,254.17 663.47,254.87 663.4,255.745 C663.295,256.585 663.225,257.11 663.225,257.32 C663.26,257.81 663.4,258.195 663.68,258.405 C664.24,258.965 664.59,259.21 664.73,259.21 C665.22,259.21 665.815,258.685 666.445,257.565 C667.74,255.395 668.65,253.855 669.21,253.015 C670.12,251.51 671.1,250.11 672.185,248.85 C672.185,249.2 672.15,249.935 672.15,251.02 C672.115,252.14 672.115,252.735 672.115,252.875 C672.115,254.695 672.29,256.235 672.675,257.565 C673.2,259.49 673.97,260.47 674.95,260.47 C675.16,260.47 675.44,260.295 675.755,260.015 C676.035,259.665 676.21,259.42 676.21,259.21 L676.21,259.21 Z M690.595,255.78 C690.595,255.43 690.455,255.08 690.175,254.73 C689.895,254.45 689.58,254.275 689.23,254.275 C688.95,254.275 688.53,254.52 688.04,254.975 C687.62,255.325 687.2,255.675 686.85,256.025 C686.255,256.48 685.52,256.69 684.645,256.69 C683.245,256.69 682.58,255.85 682.58,254.1 C682.58,253.015 682.895,251.93 683.525,250.88 C684.155,249.83 684.925,248.955 685.87,248.325 C686.29,248.57 686.92,248.675 687.795,248.675 C688.25,248.675 688.705,248.5 689.16,248.08 C689.545,247.66 689.755,247.275 689.755,246.855 C689.755,246.295 689.545,245.875 689.125,245.525 C688.67,245.21 688.18,245.035 687.655,245.035 C685.45,245.035 683.49,246.19 681.81,248.465 C680.445,250.285 679.78,252.28 679.78,254.45 C679.78,255.99 680.27,257.215 681.25,258.195 C682.23,259.14 683.455,259.63 684.925,259.63 C686.255,259.63 687.62,259.105 688.95,258.055 C690.035,257.215 690.595,256.48 690.595,255.78 L690.595,255.78 Z M707.885,244.44 C707.885,244.09 707.745,243.74 707.5,243.425 C707.255,243.145 706.975,242.97 706.66,242.97 C706.135,242.97 705.4,243.11 704.42,243.32 C700.57,244.23 697.14,245.035 694.2,245.735 C693.99,245.805 693.85,245.805 693.78,245.805 C693.08,245.945 692.73,246.47 692.73,247.345 C692.73,248.325 693.115,248.78 693.955,248.78 C694.97,248.57 695.775,248.395 696.335,248.22 C697.35,248.01 698.225,247.8 698.96,247.66 C698.82,250.355 698.75,252.945 698.75,255.395 C698.75,257.775 698.89,259.42 699.17,260.33 C699.38,260.96 699.8,261.275 700.5,261.275 C701.41,261.275 701.865,260.435 701.865,258.79 C701.865,257.985 701.69,257.39 701.41,257.005 C701.34,256.13 701.305,254.765 701.305,252.875 C701.305,251.405 701.41,249.41 701.69,246.925 C702.705,246.68 703.405,246.505 703.825,246.435 C704.14,246.645 704.385,246.715 704.56,246.715 C704.77,246.715 705.015,246.68 705.33,246.54 L706.94,245.805 C707.57,245.525 707.885,245.07 707.885,244.44 L707.885,244.44 Z M723.005,259.21 C723.005,258.965 722.83,258.65 722.515,258.3 C721.745,257.46 721.395,255.325 721.395,251.895 C721.395,250.67 721.57,248.605 721.955,245.7 C721.955,245.315 721.78,244.965 721.5,244.615 C721.185,244.3 720.835,244.125 720.45,244.125 C719.855,244.125 718.595,245.42 716.705,248.01 C715.165,250.04 713.905,251.895 712.855,253.505 C713.1,250.775 713.275,248.78 713.38,247.59 C713.38,247.03 713.17,246.54 712.82,246.12 C712.47,245.735 712.015,245.525 711.455,245.525 C711.14,245.525 710.86,245.735 710.58,246.12 C710.65,247.135 710.72,247.73 710.72,247.87 C710.72,248.5 710.615,250.075 710.44,252.63 L710.37,253.645 C710.335,254.17 710.265,254.87 710.195,255.745 C710.09,256.585 710.02,257.11 710.02,257.32 C710.055,257.81 710.195,258.195 710.475,258.405 C711.035,258.965 711.385,259.21 711.525,259.21 C712.015,259.21 712.61,258.685 713.24,257.565 C714.535,255.395 715.445,253.855 716.005,253.015 C716.915,251.51 717.895,250.11 718.98,248.85 C718.98,249.2 718.945,249.935 718.945,251.02 C718.91,252.14 718.91,252.735 718.91,252.875 C718.91,254.695 719.085,256.235 719.47,257.565 C719.995,259.49 720.765,260.47 721.745,260.47 C721.955,260.47 722.235,260.295 722.55,260.015 C722.83,259.665 723.005,259.42 723.005,259.21 L723.005,259.21 Z M740.645,244.44 C740.645,244.09 740.505,243.74 740.26,243.425 C740.015,243.145 739.735,242.97 739.42,242.97 C738.895,242.97 738.16,243.11 737.18,243.32 C733.33,244.23 729.9,245.035 726.96,245.735 C726.75,245.805 726.61,245.805 726.54,245.805 C725.84,245.945 725.49,246.47 725.49,247.345 C725.49,248.325 725.875,248.78 726.715,248.78 C727.73,248.57 728.535,248.395 729.095,248.22 C730.11,248.01 730.985,247.8 731.72,247.66 C731.58,250.355 731.51,252.945 731.51,255.395 C731.51,257.775 731.65,259.42 731.93,260.33 C732.14,260.96 732.56,261.275 733.26,261.275 C734.17,261.275 734.625,260.435 734.625,258.79 C734.625,257.985 734.45,257.39 734.17,257.005 C734.1,256.13 734.065,254.765 734.065,252.875 C734.065,251.405 734.17,249.41 734.45,246.925 C735.465,246.68 736.165,246.505 736.585,246.435 C736.9,246.645 737.145,246.715 737.32,246.715 C737.53,246.715 737.775,246.68 738.09,246.54 L739.7,245.805 C740.33,245.525 740.645,245.07 740.645,244.44 L740.645,244.44 Z M755.485,250.88 C755.485,250.565 755.31,250.215 755.03,249.865 C755.03,249.06 754.89,248.36 754.68,247.73 C754.715,247.59 754.75,247.415 754.75,247.24 C754.75,246.82 754.505,246.4 754.085,246.05 C753.63,245.7 753.175,245.49 752.72,245.49 C750.795,245.49 748.695,246.61 746.385,248.78 C743.97,251.02 742.78,253.19 742.78,255.22 C742.78,256.305 743.13,257.25 743.9,258.09 C744.635,258.965 745.51,259.385 746.525,259.385 C748.1,259.385 749.85,258.405 751.81,256.445 C751.985,259.105 752.58,260.47 753.595,260.47 C753.945,260.47 754.295,260.33 754.61,260.12 C754.89,259.84 755.065,259.49 755.065,259.14 C755.065,259.035 754.96,258.615 754.82,257.775 C754.645,256.97 754.575,256.34 754.575,255.92 C754.575,254.52 754.785,253.12 755.275,251.65 C755.415,251.265 755.485,251.02 755.485,250.88 L755.485,250.88 Z M752.3,249.865 C752.3,251.055 751.6,252.455 750.27,254.065 C748.94,255.675 747.715,256.445 746.665,256.445 C745.93,256.445 745.58,256.025 745.58,255.15 C745.58,254.03 746.455,252.63 748.24,250.915 C749.85,249.375 751.005,248.57 751.67,248.57 C752.09,248.57 752.3,249.025 752.3,249.865 L752.3,249.865 Z" id="при-лечении-цистита"></path>
        </g>
    </g>
</svg>