<?xml version="1.0" encoding="UTF-8"?>
<svg width="501px" height="32px" viewBox="0 0 501 32" version="1.1" xmlns="http://www.w3.org/2000/svg" xmlns:xlink="http://www.w3.org/1999/xlink">
    <!-- Generator: Sketch 40.3 (33839) - http://www.bohemiancoding.com/sketch -->
    <title>при лечении мочекаме</title>
    <desc>Created with Sketch.</desc>
    <defs></defs>
    <g id="Page-1" stroke="none" stroke-width="1" fill="none" fill-rule="evenodd">
        <g id="Sostav-IN-CURVES" transform="translate(-1811.000000, -237.000000)" fill="#354777">
            <path d="M1824.14,246.91 C1824.14,246.525 1823.965,246.175 1823.615,245.895 C1823.23,245.65 1822.845,245.51 1822.46,245.44 C1818.89,245.72 1816.055,245.965 1814.025,246.105 C1812.8,246.21 1812.205,246.63 1812.205,247.4 C1812.205,247.89 1812.275,248.31 1812.485,248.695 C1812.24,252.3 1812.135,254.12 1812.135,254.19 C1811.89,256.71 1811.785,257.97 1811.785,257.97 C1811.785,258.425 1811.925,258.88 1812.24,259.335 C1812.555,259.79 1812.905,260 1813.325,260 C1814.025,260 1814.375,259.545 1814.445,258.6 C1814.655,254.82 1814.865,251.565 1815.145,248.835 C1816.93,248.59 1818.785,248.415 1820.71,248.345 C1820.71,248.45 1820.64,250.165 1820.535,253.455 C1820.395,256.395 1820.36,257.97 1820.36,258.18 C1820.36,260.455 1820.955,261.61 1822.215,261.61 C1822.88,261.61 1823.23,261.225 1823.23,260.525 C1823.02,259.475 1822.95,258.495 1822.95,257.655 C1822.95,256.535 1823.02,254.75 1823.16,252.3 C1823.195,251.915 1823.265,251.355 1823.37,250.585 C1823.44,249.955 1823.475,249.605 1823.475,249.465 C1823.475,249.255 1823.405,248.94 1823.335,248.52 C1823.86,247.96 1824.14,247.435 1824.14,246.91 L1824.14,246.91 Z M1840.415,247.89 C1840.415,246.21 1840.03,244.81 1839.26,243.69 C1838.42,242.465 1837.195,241.835 1835.655,241.835 C1833.45,241.835 1831.735,243.375 1830.51,246.455 C1829.67,248.59 1829.25,251.04 1829.25,253.77 C1829.25,254.12 1829.25,254.4 1829.285,254.575 C1828.305,254.925 1827.85,255.45 1827.85,256.185 C1827.85,257.095 1828.305,257.585 1829.285,257.655 C1829.355,258.215 1829.39,259.055 1829.39,260.175 C1829.39,262.415 1829.25,263.99 1829.04,264.97 C1828.795,265.915 1828.69,266.44 1828.69,266.545 C1828.69,266.93 1828.83,267.28 1829.11,267.595 C1829.39,267.875 1829.74,268.05 1830.125,268.05 C1830.86,268.05 1831.385,267.315 1831.7,265.88 C1832.05,264.27 1832.225,262.625 1832.225,261.015 C1832.225,259.545 1832.155,258.11 1832.05,256.71 C1837.615,254.68 1840.415,251.74 1840.415,247.89 L1840.415,247.89 Z M1837.615,247.295 C1837.615,250.165 1835.76,252.265 1832.085,253.595 C1832.085,251.705 1832.4,249.78 1833.065,247.89 C1833.8,245.825 1834.675,244.775 1835.655,244.775 C1836.25,244.775 1836.74,245.055 1837.125,245.545 C1837.44,246.035 1837.615,246.63 1837.615,247.295 L1837.615,247.295 Z M1856.865,260.21 C1856.865,259.965 1856.69,259.65 1856.375,259.3 C1855.605,258.46 1855.255,256.325 1855.255,252.895 C1855.255,251.67 1855.43,249.605 1855.815,246.7 C1855.815,246.315 1855.64,245.965 1855.36,245.615 C1855.045,245.3 1854.695,245.125 1854.31,245.125 C1853.715,245.125 1852.455,246.42 1850.565,249.01 C1849.025,251.04 1847.765,252.895 1846.715,254.505 C1846.96,251.775 1847.135,249.78 1847.24,248.59 C1847.24,248.03 1847.03,247.54 1846.68,247.12 C1846.33,246.735 1845.875,246.525 1845.315,246.525 C1845,246.525 1844.72,246.735 1844.44,247.12 C1844.51,248.135 1844.58,248.73 1844.58,248.87 C1844.58,249.5 1844.475,251.075 1844.3,253.63 L1844.23,254.645 C1844.195,255.17 1844.125,255.87 1844.055,256.745 C1843.95,257.585 1843.88,258.11 1843.88,258.32 C1843.915,258.81 1844.055,259.195 1844.335,259.405 C1844.895,259.965 1845.245,260.21 1845.385,260.21 C1845.875,260.21 1846.47,259.685 1847.1,258.565 C1848.395,256.395 1849.305,254.855 1849.865,254.015 C1850.775,252.51 1851.755,251.11 1852.84,249.85 C1852.84,250.2 1852.805,250.935 1852.805,252.02 C1852.77,253.14 1852.77,253.735 1852.77,253.875 C1852.77,255.695 1852.945,257.235 1853.33,258.565 C1853.855,260.49 1854.625,261.47 1855.605,261.47 C1855.815,261.47 1856.095,261.295 1856.41,261.015 C1856.69,260.665 1856.865,260.42 1856.865,260.21 L1856.865,260.21 Z M1886.545,247.61 C1886.545,247.085 1886.37,246.63 1886.02,246.21 C1885.705,245.825 1885.32,245.615 1884.83,245.615 C1884.62,245.615 1884.2,245.825 1883.57,246.175 C1882.94,246.56 1881.4,246.875 1878.915,247.155 C1878.355,246.7 1877.9,246.455 1877.585,246.455 C1877.2,246.455 1876.78,246.665 1876.36,247.085 C1875.94,247.505 1875.73,247.96 1875.73,248.38 C1875.73,248.66 1875.87,249.01 1876.15,249.395 C1876.395,249.815 1876.535,250.27 1876.535,250.795 C1876.535,252.965 1876.36,254.75 1876.01,256.22 C1875.555,257.935 1874.96,258.775 1874.26,258.775 C1873.98,258.775 1873.77,258.355 1873.7,257.445 C1873.63,257.095 1873.49,256.885 1873.21,256.885 C1872.72,256.885 1872.37,257.13 1872.125,257.55 C1871.81,258.04 1871.67,258.6 1871.67,259.195 C1871.67,259.86 1871.915,260.35 1872.44,260.735 C1872.93,261.085 1873.49,261.295 1874.12,261.295 C1875.94,261.295 1877.235,260.105 1878.005,257.795 C1878.495,256.325 1878.915,253.665 1879.265,249.815 C1880.14,249.605 1881.47,249.325 1883.29,249.01 C1882.94,252.44 1882.765,255.03 1882.765,256.78 C1882.765,259.09 1882.905,260.525 1883.22,261.12 C1883.535,261.715 1883.99,262.03 1884.55,262.03 C1885.46,262.03 1885.915,261.47 1885.915,260.42 C1885.775,259.79 1885.705,259.23 1885.635,258.74 C1885.46,257.55 1885.39,256.535 1885.39,255.66 C1885.39,253.77 1885.67,251.565 1886.265,249.045 C1886.44,248.205 1886.545,247.75 1886.545,247.61 L1886.545,247.61 Z M1904.01,259.37 C1904.01,259.02 1903.87,258.67 1903.59,258.32 C1903.31,258.04 1902.96,257.865 1902.61,257.865 C1902.33,257.865 1901.875,257.935 1901.28,258.005 C1900.685,258.075 1900.23,258.11 1899.95,258.11 C1898.9,258.11 1897.99,257.62 1897.15,256.605 C1900.65,254.715 1902.4,252.475 1902.4,249.885 C1902.4,248.905 1901.98,247.96 1901.14,247.12 C1900.3,246.28 1899.46,245.86 1898.585,245.86 C1897.08,245.86 1895.855,246.735 1894.875,248.45 C1894.035,249.92 1893.615,251.495 1893.615,253.175 C1893.615,253.525 1893.65,254.015 1893.755,254.61 L1892.95,254.61 C1892.46,254.61 1892.005,254.435 1891.515,254.085 C1891.025,253.735 1890.675,253.56 1890.465,253.56 C1889.555,253.56 1889.1,254.05 1889.1,255.03 C1889.1,255.8 1889.66,256.43 1890.85,256.92 C1891.76,257.305 1892.635,257.48 1893.545,257.48 L1894.595,257.48 C1895.855,259.895 1897.815,261.085 1900.475,261.085 C1902.82,261.085 1904.01,260.49 1904.01,259.37 L1904.01,259.37 Z M1899.635,250.025 C1899.635,251.18 1898.585,252.44 1896.485,253.805 L1896.485,253.175 C1896.485,252.23 1896.625,251.32 1896.975,250.445 C1897.325,249.395 1897.815,248.87 1898.445,248.87 C1898.725,248.87 1899.005,249.01 1899.285,249.22 C1899.495,249.5 1899.635,249.745 1899.635,250.025 L1899.635,250.025 Z M1918.36,246.7 C1918.325,246.315 1918.185,245.93 1917.905,245.58 C1917.625,245.23 1917.31,245.055 1916.96,245.055 C1916.015,245.055 1915.525,245.58 1915.49,246.595 C1915.49,246.735 1915.49,247.19 1915.525,247.925 C1915.525,248.73 1915.56,249.185 1915.56,249.325 C1915.56,250.69 1915.105,251.95 1914.23,253.14 C1913.32,254.33 1912.305,254.89 1911.22,254.89 C1909.855,254.89 1909.19,253.91 1909.19,251.88 C1909.19,251.11 1909.33,249.36 1909.68,246.63 C1909.575,245.65 1909.155,245.125 1908.455,245.125 C1907.475,245.125 1906.915,246.07 1906.705,247.925 C1906.635,248.45 1906.6,249.745 1906.6,251.845 C1906.6,255.555 1908.07,257.41 1911.045,257.41 C1911.885,257.41 1912.76,257.2 1913.6,256.71 C1914.44,256.255 1915.105,255.625 1915.525,254.855 C1915.455,256.255 1915.385,257.41 1915.315,258.285 C1915.175,259.72 1915.14,260.735 1915.14,261.435 C1915.14,262.38 1915.525,262.87 1916.365,262.87 C1917.275,262.87 1917.765,262.38 1917.8,261.4 C1917.835,259.125 1917.94,255.765 1918.15,251.355 C1918.22,249.045 1918.29,247.505 1918.36,246.7 L1918.36,246.7 Z M1935.825,259.37 C1935.825,259.02 1935.685,258.67 1935.405,258.32 C1935.125,258.04 1934.775,257.865 1934.425,257.865 C1934.145,257.865 1933.69,257.935 1933.095,258.005 C1932.5,258.075 1932.045,258.11 1931.765,258.11 C1930.715,258.11 1929.805,257.62 1928.965,256.605 C1932.465,254.715 1934.215,252.475 1934.215,249.885 C1934.215,248.905 1933.795,247.96 1932.955,247.12 C1932.115,246.28 1931.275,245.86 1930.4,245.86 C1928.895,245.86 1927.67,246.735 1926.69,248.45 C1925.85,249.92 1925.43,251.495 1925.43,253.175 C1925.43,253.525 1925.465,254.015 1925.57,254.61 L1924.765,254.61 C1924.275,254.61 1923.82,254.435 1923.33,254.085 C1922.84,253.735 1922.49,253.56 1922.28,253.56 C1921.37,253.56 1920.915,254.05 1920.915,255.03 C1920.915,255.8 1921.475,256.43 1922.665,256.92 C1923.575,257.305 1924.45,257.48 1925.36,257.48 L1926.41,257.48 C1927.67,259.895 1929.63,261.085 1932.29,261.085 C1934.635,261.085 1935.825,260.49 1935.825,259.37 L1935.825,259.37 Z M1931.45,250.025 C1931.45,251.18 1930.4,252.44 1928.3,253.805 L1928.3,253.175 C1928.3,252.23 1928.44,251.32 1928.79,250.445 C1929.14,249.395 1929.63,248.87 1930.26,248.87 C1930.54,248.87 1930.82,249.01 1931.1,249.22 C1931.31,249.5 1931.45,249.745 1931.45,250.025 L1931.45,250.025 Z M1950.07,247.05 C1950.07,246.14 1949.65,245.685 1948.81,245.685 C1948.11,245.685 1947.655,246.315 1947.48,247.505 C1947.305,248.45 1947.095,249.78 1946.885,251.495 C1945.345,251.88 1943.84,252.16 1942.37,252.3 C1942.72,250.06 1943.07,248.38 1943.42,247.225 C1943.63,246.595 1943.805,246.105 1943.98,245.685 C1943.91,244.74 1943.49,244.25 1942.65,244.25 C1942.055,244.25 1941.67,244.53 1941.46,245.09 C1940.76,246.77 1940.2,249.185 1939.85,252.335 C1939.29,252.335 1938.905,252.3 1938.695,252.265 C1937.995,252.265 1937.68,252.685 1937.68,253.455 C1937.68,254.33 1938.17,254.75 1939.185,254.75 L1939.605,254.75 C1939.5,256.08 1939.395,257.585 1939.325,259.335 C1939.325,259.44 1939.29,259.615 1939.255,259.825 C1939.185,260.035 1939.185,260.175 1939.185,260.315 C1939.185,260.665 1939.325,260.98 1939.605,261.26 C1939.885,261.54 1940.2,261.68 1940.55,261.68 C1941.39,261.68 1941.845,261.225 1941.88,260.35 C1941.88,259.16 1941.985,257.27 1942.16,254.68 C1943.665,254.54 1945.135,254.295 1946.605,253.945 C1946.43,255.8 1946.325,257.27 1946.325,258.32 C1946.325,258.425 1946.29,258.565 1946.255,258.775 C1946.185,258.95 1946.15,259.09 1946.15,259.195 C1946.15,260.035 1946.255,260.665 1946.535,261.085 C1946.815,261.54 1947.13,261.785 1947.55,261.785 C1947.9,261.785 1948.215,261.645 1948.495,261.365 C1948.74,261.085 1948.88,260.735 1948.88,260.35 C1948.88,260.28 1948.845,260.105 1948.845,259.755 C1948.81,259.405 1948.81,259.125 1948.81,258.985 C1948.81,256.64 1949.16,253.035 1949.93,248.17 C1950,247.54 1950.07,247.19 1950.07,247.05 L1950.07,247.05 Z M1966.625,260.21 C1966.625,259.965 1966.45,259.65 1966.135,259.3 C1965.365,258.46 1965.015,256.325 1965.015,252.895 C1965.015,251.67 1965.19,249.605 1965.575,246.7 C1965.575,246.315 1965.4,245.965 1965.12,245.615 C1964.805,245.3 1964.455,245.125 1964.07,245.125 C1963.475,245.125 1962.215,246.42 1960.325,249.01 C1958.785,251.04 1957.525,252.895 1956.475,254.505 C1956.72,251.775 1956.895,249.78 1957,248.59 C1957,248.03 1956.79,247.54 1956.44,247.12 C1956.09,246.735 1955.635,246.525 1955.075,246.525 C1954.76,246.525 1954.48,246.735 1954.2,247.12 C1954.27,248.135 1954.34,248.73 1954.34,248.87 C1954.34,249.5 1954.235,251.075 1954.06,253.63 L1953.99,254.645 C1953.955,255.17 1953.885,255.87 1953.815,256.745 C1953.71,257.585 1953.64,258.11 1953.64,258.32 C1953.675,258.81 1953.815,259.195 1954.095,259.405 C1954.655,259.965 1955.005,260.21 1955.145,260.21 C1955.635,260.21 1956.23,259.685 1956.86,258.565 C1958.155,256.395 1959.065,254.855 1959.625,254.015 C1960.535,252.51 1961.515,251.11 1962.6,249.85 C1962.6,250.2 1962.565,250.935 1962.565,252.02 C1962.53,253.14 1962.53,253.735 1962.53,253.875 C1962.53,255.695 1962.705,257.235 1963.09,258.565 C1963.615,260.49 1964.385,261.47 1965.365,261.47 C1965.575,261.47 1965.855,261.295 1966.17,261.015 C1966.45,260.665 1966.625,260.42 1966.625,260.21 L1966.625,260.21 Z M1983.18,260.21 C1983.18,259.965 1983.005,259.65 1982.69,259.3 C1981.92,258.46 1981.57,256.325 1981.57,252.895 C1981.57,251.67 1981.745,249.605 1982.13,246.7 C1982.13,246.315 1981.955,245.965 1981.675,245.615 C1981.36,245.3 1981.01,245.125 1980.625,245.125 C1980.03,245.125 1978.77,246.42 1976.88,249.01 C1975.34,251.04 1974.08,252.895 1973.03,254.505 C1973.275,251.775 1973.45,249.78 1973.555,248.59 C1973.555,248.03 1973.345,247.54 1972.995,247.12 C1972.645,246.735 1972.19,246.525 1971.63,246.525 C1971.315,246.525 1971.035,246.735 1970.755,247.12 C1970.825,248.135 1970.895,248.73 1970.895,248.87 C1970.895,249.5 1970.79,251.075 1970.615,253.63 L1970.545,254.645 C1970.51,255.17 1970.44,255.87 1970.37,256.745 C1970.265,257.585 1970.195,258.11 1970.195,258.32 C1970.23,258.81 1970.37,259.195 1970.65,259.405 C1971.21,259.965 1971.56,260.21 1971.7,260.21 C1972.19,260.21 1972.785,259.685 1973.415,258.565 C1974.71,256.395 1975.62,254.855 1976.18,254.015 C1977.09,252.51 1978.07,251.11 1979.155,249.85 C1979.155,250.2 1979.12,250.935 1979.12,252.02 C1979.085,253.14 1979.085,253.735 1979.085,253.875 C1979.085,255.695 1979.26,257.235 1979.645,258.565 C1980.17,260.49 1980.94,261.47 1981.92,261.47 C1982.13,261.47 1982.41,261.295 1982.725,261.015 C1983.005,260.665 1983.18,260.42 1983.18,260.21 L1983.18,260.21 Z M2014.015,261.435 C2014.015,261.12 2013.91,260.77 2013.7,260.35 C2013.49,259.93 2013.245,259.65 2013,259.44 C2012.44,258.25 2011.95,256.08 2011.53,252.965 C2011.25,251.355 2011.04,249.57 2010.83,247.68 C2010.725,246.945 2010.305,246.56 2009.57,246.56 C2008.905,246.56 2008.03,247.995 2006.945,250.865 C2006.56,251.845 2006.245,252.685 2005.965,253.455 C2005.02,252.055 2004.18,249.955 2003.41,247.085 C2003.13,246.035 2002.71,245.51 2002.185,245.51 C2001.52,245.51 2000.925,246.315 2000.4,247.89 C2000.295,247.89 2000.155,247.855 1999.98,247.855 C1999.735,247.855 1999.525,247.96 1999.385,248.135 C1999.175,248.345 1999.07,248.59 1999.07,248.835 C1999.07,248.905 1999.07,249.115 1999.105,249.465 C1999.105,249.85 1999.14,250.06 1999.14,250.13 C1999.14,250.76 1999.07,251.635 1998.93,252.825 C1998.79,254.015 1998.72,255.345 1998.72,256.78 C1998.72,259.125 1999.175,260.28 2000.12,260.28 C2000.82,260.28 2001.17,259.51 2001.24,257.935 C2001.345,254.855 2001.625,252.3 2002.045,250.27 C2003.9,254.75 2005.37,256.99 2006.42,256.99 C2006.77,256.99 2007.015,256.85 2007.225,256.5 C2007.4,256.22 2007.61,255.59 2007.89,254.68 C2008.345,253.14 2008.73,251.915 2009.045,251.075 C2009.395,254.96 2009.885,257.83 2010.55,259.685 C2011.285,261.82 2012.055,262.905 2012.825,262.905 C2013.105,262.905 2013.385,262.73 2013.63,262.415 C2013.875,262.065 2014.015,261.75 2014.015,261.435 L2014.015,261.435 Z M2027.595,252.3 C2027.595,250.935 2027.21,249.675 2026.44,248.555 C2025.635,247.47 2024.62,246.7 2023.395,246.28 C2022.905,246.14 2022.625,246.07 2022.555,246.07 C2022.275,246.07 2021.96,246.245 2021.54,246.525 C2021.05,246.805 2020.665,247.015 2020.385,247.12 C2019.195,247.715 2018.215,248.765 2017.515,250.235 C2016.815,251.565 2016.5,253 2016.5,254.505 C2016.5,256.29 2016.955,257.76 2017.935,258.915 C2018.915,260.035 2020.14,260.63 2021.61,260.63 C2023.29,260.63 2024.725,259.86 2025.88,258.25 C2027,256.64 2027.595,254.68 2027.595,252.3 L2027.595,252.3 Z M2024.83,252.825 C2024.83,254.015 2024.48,255.1 2023.85,256.115 C2023.15,257.165 2022.415,257.69 2021.575,257.69 C2020.875,257.69 2020.315,257.375 2019.895,256.71 C2019.44,256.08 2019.23,255.345 2019.23,254.505 C2019.23,253.385 2019.475,252.335 2020.035,251.355 C2020.665,250.235 2021.47,249.64 2022.45,249.64 C2022.8,249.85 2023.255,249.955 2023.815,249.955 C2024.48,250.375 2024.83,251.355 2024.83,252.825 L2024.83,252.825 Z M2042.96,246.7 C2042.925,246.315 2042.785,245.93 2042.505,245.58 C2042.225,245.23 2041.91,245.055 2041.56,245.055 C2040.615,245.055 2040.125,245.58 2040.09,246.595 C2040.09,246.735 2040.09,247.19 2040.125,247.925 C2040.125,248.73 2040.16,249.185 2040.16,249.325 C2040.16,250.69 2039.705,251.95 2038.83,253.14 C2037.92,254.33 2036.905,254.89 2035.82,254.89 C2034.455,254.89 2033.79,253.91 2033.79,251.88 C2033.79,251.11 2033.93,249.36 2034.28,246.63 C2034.175,245.65 2033.755,245.125 2033.055,245.125 C2032.075,245.125 2031.515,246.07 2031.305,247.925 C2031.235,248.45 2031.2,249.745 2031.2,251.845 C2031.2,255.555 2032.67,257.41 2035.645,257.41 C2036.485,257.41 2037.36,257.2 2038.2,256.71 C2039.04,256.255 2039.705,255.625 2040.125,254.855 C2040.055,256.255 2039.985,257.41 2039.915,258.285 C2039.775,259.72 2039.74,260.735 2039.74,261.435 C2039.74,262.38 2040.125,262.87 2040.965,262.87 C2041.875,262.87 2042.365,262.38 2042.4,261.4 C2042.435,259.125 2042.54,255.765 2042.75,251.355 C2042.82,249.045 2042.89,247.505 2042.96,246.7 L2042.96,246.7 Z M2060.425,259.37 C2060.425,259.02 2060.285,258.67 2060.005,258.32 C2059.725,258.04 2059.375,257.865 2059.025,257.865 C2058.745,257.865 2058.29,257.935 2057.695,258.005 C2057.1,258.075 2056.645,258.11 2056.365,258.11 C2055.315,258.11 2054.405,257.62 2053.565,256.605 C2057.065,254.715 2058.815,252.475 2058.815,249.885 C2058.815,248.905 2058.395,247.96 2057.555,247.12 C2056.715,246.28 2055.875,245.86 2055,245.86 C2053.495,245.86 2052.27,246.735 2051.29,248.45 C2050.45,249.92 2050.03,251.495 2050.03,253.175 C2050.03,253.525 2050.065,254.015 2050.17,254.61 L2049.365,254.61 C2048.875,254.61 2048.42,254.435 2047.93,254.085 C2047.44,253.735 2047.09,253.56 2046.88,253.56 C2045.97,253.56 2045.515,254.05 2045.515,255.03 C2045.515,255.8 2046.075,256.43 2047.265,256.92 C2048.175,257.305 2049.05,257.48 2049.96,257.48 L2051.01,257.48 C2052.27,259.895 2054.23,261.085 2056.89,261.085 C2059.235,261.085 2060.425,260.49 2060.425,259.37 L2060.425,259.37 Z M2056.05,250.025 C2056.05,251.18 2055,252.44 2052.9,253.805 L2052.9,253.175 C2052.9,252.23 2053.04,251.32 2053.39,250.445 C2053.74,249.395 2054.23,248.87 2054.86,248.87 C2055.14,248.87 2055.42,249.01 2055.7,249.22 C2055.91,249.5 2056.05,249.745 2056.05,250.025 L2056.05,250.025 Z M2074.985,248.555 C2074.985,248.275 2074.845,247.96 2074.565,247.645 C2074.285,247.365 2073.97,247.225 2073.69,247.225 C2073.41,247.225 2072.815,247.435 2071.94,247.855 C2070.47,248.555 2068.615,249.885 2066.445,251.775 C2066.935,249.745 2067.39,248.135 2067.88,246.98 C2068.16,246.245 2068.3,245.79 2068.3,245.65 C2068.3,244.74 2067.845,244.285 2067.005,244.285 C2066.445,244.285 2066.025,244.6 2065.745,245.23 C2064.03,249.43 2063.155,254.05 2063.085,259.055 C2063.015,259.23 2063.015,259.405 2063.015,259.58 C2063.015,260 2063.085,260.385 2063.225,260.77 C2063.435,261.4 2063.925,261.75 2064.625,261.75 C2065.395,261.75 2065.78,261.295 2065.78,260.42 C2065.78,260.35 2065.745,260.14 2065.745,259.79 C2065.71,259.44 2065.71,259.195 2065.71,258.985 L2065.71,257.69 C2065.71,257.2 2065.71,256.64 2065.78,256.01 C2066.025,255.87 2066.165,255.8 2066.2,255.765 C2067.53,257.55 2069.245,259.125 2071.31,260.49 C2071.94,260.945 2072.43,261.19 2072.78,261.19 C2073.62,261.19 2074.04,260.735 2074.04,259.86 C2074.04,259.51 2073.725,259.02 2073.165,258.46 C2072.185,257.585 2071.625,257.13 2071.415,257.13 C2071.345,257.13 2071.24,257.165 2071.17,257.165 C2069.805,256.08 2068.755,255.03 2068.055,254.015 C2069.735,252.44 2071.135,251.32 2072.29,250.69 C2072.43,250.76 2072.57,250.795 2072.745,250.795 C2073.2,250.795 2073.69,250.55 2074.18,250.06 C2074.705,249.605 2074.985,249.115 2074.985,248.555 L2074.985,248.555 Z M2090.56,251.88 C2090.56,251.565 2090.385,251.215 2090.105,250.865 C2090.105,250.06 2089.965,249.36 2089.755,248.73 C2089.79,248.59 2089.825,248.415 2089.825,248.24 C2089.825,247.82 2089.58,247.4 2089.16,247.05 C2088.705,246.7 2088.25,246.49 2087.795,246.49 C2085.87,246.49 2083.77,247.61 2081.46,249.78 C2079.045,252.02 2077.855,254.19 2077.855,256.22 C2077.855,257.305 2078.205,258.25 2078.975,259.09 C2079.71,259.965 2080.585,260.385 2081.6,260.385 C2083.175,260.385 2084.925,259.405 2086.885,257.445 C2087.06,260.105 2087.655,261.47 2088.67,261.47 C2089.02,261.47 2089.37,261.33 2089.685,261.12 C2089.965,260.84 2090.14,260.49 2090.14,260.14 C2090.14,260.035 2090.035,259.615 2089.895,258.775 C2089.72,257.97 2089.65,257.34 2089.65,256.92 C2089.65,255.52 2089.86,254.12 2090.35,252.65 C2090.49,252.265 2090.56,252.02 2090.56,251.88 L2090.56,251.88 Z M2087.375,250.865 C2087.375,252.055 2086.675,253.455 2085.345,255.065 C2084.015,256.675 2082.79,257.445 2081.74,257.445 C2081.005,257.445 2080.655,257.025 2080.655,256.15 C2080.655,255.03 2081.53,253.63 2083.315,251.915 C2084.925,250.375 2086.08,249.57 2086.745,249.57 C2087.165,249.57 2087.375,250.025 2087.375,250.865 L2087.375,250.865 Z M2109.425,261.435 C2109.425,261.12 2109.32,260.77 2109.11,260.35 C2108.9,259.93 2108.655,259.65 2108.41,259.44 C2107.85,258.25 2107.36,256.08 2106.94,252.965 C2106.66,251.355 2106.45,249.57 2106.24,247.68 C2106.135,246.945 2105.715,246.56 2104.98,246.56 C2104.315,246.56 2103.44,247.995 2102.355,250.865 C2101.97,251.845 2101.655,252.685 2101.375,253.455 C2100.43,252.055 2099.59,249.955 2098.82,247.085 C2098.54,246.035 2098.12,245.51 2097.595,245.51 C2096.93,245.51 2096.335,246.315 2095.81,247.89 C2095.705,247.89 2095.565,247.855 2095.39,247.855 C2095.145,247.855 2094.935,247.96 2094.795,248.135 C2094.585,248.345 2094.48,248.59 2094.48,248.835 C2094.48,248.905 2094.48,249.115 2094.515,249.465 C2094.515,249.85 2094.55,250.06 2094.55,250.13 C2094.55,250.76 2094.48,251.635 2094.34,252.825 C2094.2,254.015 2094.13,255.345 2094.13,256.78 C2094.13,259.125 2094.585,260.28 2095.53,260.28 C2096.23,260.28 2096.58,259.51 2096.65,257.935 C2096.755,254.855 2097.035,252.3 2097.455,250.27 C2099.31,254.75 2100.78,256.99 2101.83,256.99 C2102.18,256.99 2102.425,256.85 2102.635,256.5 C2102.81,256.22 2103.02,255.59 2103.3,254.68 C2103.755,253.14 2104.14,251.915 2104.455,251.075 C2104.805,254.96 2105.295,257.83 2105.96,259.685 C2106.695,261.82 2107.465,262.905 2108.235,262.905 C2108.515,262.905 2108.795,262.73 2109.04,262.415 C2109.285,262.065 2109.425,261.75 2109.425,261.435 L2109.425,261.435 Z M2125.805,259.37 C2125.805,259.02 2125.665,258.67 2125.385,258.32 C2125.105,258.04 2124.755,257.865 2124.405,257.865 C2124.125,257.865 2123.67,257.935 2123.075,258.005 C2122.48,258.075 2122.025,258.11 2121.745,258.11 C2120.695,258.11 2119.785,257.62 2118.945,256.605 C2122.445,254.715 2124.195,252.475 2124.195,249.885 C2124.195,248.905 2123.775,247.96 2122.935,247.12 C2122.095,246.28 2121.255,245.86 2120.38,245.86 C2118.875,245.86 2117.65,246.735 2116.67,248.45 C2115.83,249.92 2115.41,251.495 2115.41,253.175 C2115.41,253.525 2115.445,254.015 2115.55,254.61 L2114.745,254.61 C2114.255,254.61 2113.8,254.435 2113.31,254.085 C2112.82,253.735 2112.47,253.56 2112.26,253.56 C2111.35,253.56 2110.895,254.05 2110.895,255.03 C2110.895,255.8 2111.455,256.43 2112.645,256.92 C2113.555,257.305 2114.43,257.48 2115.34,257.48 L2116.39,257.48 C2117.65,259.895 2119.61,261.085 2122.27,261.085 C2124.615,261.085 2125.805,260.49 2125.805,259.37 L2125.805,259.37 Z M2121.43,250.025 C2121.43,251.18 2120.38,252.44 2118.28,253.805 L2118.28,253.175 C2118.28,252.23 2118.42,251.32 2118.77,250.445 C2119.12,249.395 2119.61,248.87 2120.24,248.87 C2120.52,248.87 2120.8,249.01 2121.08,249.22 C2121.29,249.5 2121.43,249.745 2121.43,250.025 L2121.43,250.025 Z M2140.05,247.05 C2140.05,246.14 2139.63,245.685 2138.79,245.685 C2138.09,245.685 2137.635,246.315 2137.46,247.505 C2137.285,248.45 2137.075,249.78 2136.865,251.495 C2135.325,251.88 2133.82,252.16 2132.35,252.3 C2132.7,250.06 2133.05,248.38 2133.4,247.225 C2133.61,246.595 2133.785,246.105 2133.96,245.685 C2133.89,244.74 2133.47,244.25 2132.63,244.25 C2132.035,244.25 2131.65,244.53 2131.44,245.09 C2130.74,246.77 2130.18,249.185 2129.83,252.335 C2129.27,252.335 2128.885,252.3 2128.675,252.265 C2127.975,252.265 2127.66,252.685 2127.66,253.455 C2127.66,254.33 2128.15,254.75 2129.165,254.75 L2129.585,254.75 C2129.48,256.08 2129.375,257.585 2129.305,259.335 C2129.305,259.44 2129.27,259.615 2129.235,259.825 C2129.165,260.035 2129.165,260.175 2129.165,260.315 C2129.165,260.665 2129.305,260.98 2129.585,261.26 C2129.865,261.54 2130.18,261.68 2130.53,261.68 C2131.37,261.68 2131.825,261.225 2131.86,260.35 C2131.86,259.16 2131.965,257.27 2132.14,254.68 C2133.645,254.54 2135.115,254.295 2136.585,253.945 C2136.41,255.8 2136.305,257.27 2136.305,258.32 C2136.305,258.425 2136.27,258.565 2136.235,258.775 C2136.165,258.95 2136.13,259.09 2136.13,259.195 C2136.13,260.035 2136.235,260.665 2136.515,261.085 C2136.795,261.54 2137.11,261.785 2137.53,261.785 C2137.88,261.785 2138.195,261.645 2138.475,261.365 C2138.72,261.085 2138.86,260.735 2138.86,260.35 C2138.86,260.28 2138.825,260.105 2138.825,259.755 C2138.79,259.405 2138.79,259.125 2138.79,258.985 C2138.79,256.64 2139.14,253.035 2139.91,248.17 C2139.98,247.54 2140.05,247.19 2140.05,247.05 L2140.05,247.05 Z M2155.275,247.05 C2155.275,246.14 2154.855,245.685 2154.015,245.685 C2153.315,245.685 2152.86,246.315 2152.685,247.505 C2152.51,248.45 2152.3,249.78 2152.09,251.495 C2150.55,251.88 2149.045,252.16 2147.575,252.3 C2147.925,250.06 2148.275,248.38 2148.625,247.225 C2148.835,246.595 2149.01,246.105 2149.185,245.685 C2149.115,244.74 2148.695,244.25 2147.855,244.25 C2147.26,244.25 2146.875,244.53 2146.665,245.09 C2145.965,246.77 2145.405,249.185 2145.055,252.335 C2144.495,252.335 2144.11,252.3 2143.9,252.265 C2143.2,252.265 2142.885,252.685 2142.885,253.455 C2142.885,254.33 2143.375,254.75 2144.39,254.75 L2144.81,254.75 C2144.705,256.08 2144.6,257.585 2144.53,259.335 C2144.53,259.44 2144.495,259.615 2144.46,259.825 C2144.39,260.035 2144.39,260.175 2144.39,260.315 C2144.39,260.665 2144.53,260.98 2144.81,261.26 C2145.09,261.54 2145.405,261.68 2145.755,261.68 C2146.595,261.68 2147.05,261.225 2147.085,260.35 C2147.085,259.16 2147.19,257.27 2147.365,254.68 C2148.87,254.54 2150.34,254.295 2151.81,253.945 C2151.635,255.8 2151.53,257.27 2151.53,258.32 C2151.53,258.425 2151.495,258.565 2151.46,258.775 C2151.39,258.95 2151.355,259.09 2151.355,259.195 C2151.355,260.035 2151.46,260.665 2151.74,261.085 C2152.02,261.54 2152.335,261.785 2152.755,261.785 C2153.105,261.785 2153.42,261.645 2153.7,261.365 C2153.945,261.085 2154.085,260.735 2154.085,260.35 C2154.085,260.28 2154.05,260.105 2154.05,259.755 C2154.015,259.405 2154.015,259.125 2154.015,258.985 C2154.015,256.64 2154.365,253.035 2155.135,248.17 C2155.205,247.54 2155.275,247.19 2155.275,247.05 L2155.275,247.05 Z M2169.94,252.3 C2169.94,250.935 2169.555,249.675 2168.785,248.555 C2167.98,247.47 2166.965,246.7 2165.74,246.28 C2165.25,246.14 2164.97,246.07 2164.9,246.07 C2164.62,246.07 2164.305,246.245 2163.885,246.525 C2163.395,246.805 2163.01,247.015 2162.73,247.12 C2161.54,247.715 2160.56,248.765 2159.86,250.235 C2159.16,251.565 2158.845,253 2158.845,254.505 C2158.845,256.29 2159.3,257.76 2160.28,258.915 C2161.26,260.035 2162.485,260.63 2163.955,260.63 C2165.635,260.63 2167.07,259.86 2168.225,258.25 C2169.345,256.64 2169.94,254.68 2169.94,252.3 L2169.94,252.3 Z M2167.175,252.825 C2167.175,254.015 2166.825,255.1 2166.195,256.115 C2165.495,257.165 2164.76,257.69 2163.92,257.69 C2163.22,257.69 2162.66,257.375 2162.24,256.71 C2161.785,256.08 2161.575,255.345 2161.575,254.505 C2161.575,253.385 2161.82,252.335 2162.38,251.355 C2163.01,250.235 2163.815,249.64 2164.795,249.64 C2165.145,249.85 2165.6,249.955 2166.16,249.955 C2166.825,250.375 2167.175,251.355 2167.175,252.825 L2167.175,252.825 Z M2183.555,240.82 C2183.555,240.365 2183.31,239.945 2182.855,239.56 C2182.33,239.21 2181.84,239.035 2181.42,239.035 C2181.175,239.035 2181,239.105 2180.895,239.245 C2181.245,239.875 2181.42,240.295 2181.42,240.435 C2181.42,240.855 2181.175,241.345 2180.755,241.905 C2180.265,242.5 2179.845,242.78 2179.495,242.78 C2179.285,242.78 2179.145,242.535 2179.005,242.045 L2178.34,240.015 C2177.99,239.315 2177.43,238.965 2176.66,238.965 C2176.52,238.965 2176.38,239.07 2176.24,239.21 C2176.065,239.42 2175.995,239.56 2175.995,239.63 C2175.995,240.505 2176.555,241.8 2177.71,243.515 C2178.27,244.355 2178.865,244.775 2179.53,244.775 C2180.265,244.775 2181.14,244.32 2182.12,243.34 C2183.065,242.43 2183.555,241.59 2183.555,240.82 L2183.555,240.82 Z M2186.53,260.21 C2186.53,259.965 2186.355,259.65 2186.04,259.3 C2185.27,258.46 2184.92,256.325 2184.92,252.895 C2184.92,251.67 2185.095,249.605 2185.48,246.7 C2185.48,246.315 2185.305,245.965 2185.025,245.615 C2184.71,245.3 2184.36,245.125 2183.975,245.125 C2183.38,245.125 2182.12,246.42 2180.23,249.01 C2178.69,251.04 2177.43,252.895 2176.38,254.505 C2176.625,251.775 2176.8,249.78 2176.905,248.59 C2176.905,248.03 2176.695,247.54 2176.345,247.12 C2175.995,246.735 2175.54,246.525 2174.98,246.525 C2174.665,246.525 2174.385,246.735 2174.105,247.12 C2174.175,248.135 2174.245,248.73 2174.245,248.87 C2174.245,249.5 2174.14,251.075 2173.965,253.63 L2173.895,254.645 C2173.86,255.17 2173.79,255.87 2173.72,256.745 C2173.615,257.585 2173.545,258.11 2173.545,258.32 C2173.58,258.81 2173.72,259.195 2174,259.405 C2174.56,259.965 2174.91,260.21 2175.05,260.21 C2175.54,260.21 2176.135,259.685 2176.765,258.565 C2178.06,256.395 2178.97,254.855 2179.53,254.015 C2180.44,252.51 2181.42,251.11 2182.505,249.85 C2182.505,250.2 2182.47,250.935 2182.47,252.02 C2182.435,253.14 2182.435,253.735 2182.435,253.875 C2182.435,255.695 2182.61,257.235 2182.995,258.565 C2183.52,260.49 2184.29,261.47 2185.27,261.47 C2185.48,261.47 2185.76,261.295 2186.075,261.015 C2186.355,260.665 2186.53,260.42 2186.53,260.21 L2186.53,260.21 Z M2216.35,253.595 C2216.35,251.67 2215.86,250.095 2214.95,248.87 C2213.9,247.505 2212.465,246.805 2210.61,246.805 C2208.93,246.805 2207.075,247.68 2205.115,249.395 C2205.675,245.825 2208.055,243.305 2212.325,241.905 C2213.55,241.485 2214.18,240.89 2214.18,240.05 C2214.18,239.455 2213.97,238.825 2213.62,238.16 C2213.2,237.53 2212.745,237.18 2212.255,237.18 C2211.8,237.18 2211.555,237.495 2211.52,238.09 C2211.45,238.79 2211.415,239.14 2211.38,239.21 C2211.275,239.385 2210.925,239.595 2210.33,239.84 C2204.8,242.08 2202.07,246.245 2202.07,252.37 C2202.07,254.995 2202.595,257.13 2203.715,258.81 C2204.94,260.56 2206.655,261.47 2208.86,261.47 C2210.82,261.47 2212.535,260.7 2214.075,259.195 C2215.58,257.655 2216.35,255.8 2216.35,253.595 L2216.35,253.595 Z M2213.83,252.79 C2213.83,254.47 2213.34,255.87 2212.395,257.06 C2211.415,258.25 2210.19,258.845 2208.79,258.845 C2207.67,258.845 2206.725,258.355 2206.025,257.305 C2205.325,256.255 2204.975,254.96 2204.975,253.385 C2204.975,253.21 2204.975,252.965 2205.01,252.615 C2205.885,252.51 2206.375,252.125 2206.48,251.495 C2208.09,250.165 2209.56,249.465 2210.82,249.465 C2211.59,249.465 2212.29,249.815 2212.92,250.445 C2213.515,251.145 2213.83,251.915 2213.83,252.79 L2213.83,252.79 Z M2231.015,252.3 C2231.015,250.935 2230.63,249.675 2229.86,248.555 C2229.055,247.47 2228.04,246.7 2226.815,246.28 C2226.325,246.14 2226.045,246.07 2225.975,246.07 C2225.695,246.07 2225.38,246.245 2224.96,246.525 C2224.47,246.805 2224.085,247.015 2223.805,247.12 C2222.615,247.715 2221.635,248.765 2220.935,250.235 C2220.235,251.565 2219.92,253 2219.92,254.505 C2219.92,256.29 2220.375,257.76 2221.355,258.915 C2222.335,260.035 2223.56,260.63 2225.03,260.63 C2226.71,260.63 2228.145,259.86 2229.3,258.25 C2230.42,256.64 2231.015,254.68 2231.015,252.3 L2231.015,252.3 Z M2228.25,252.825 C2228.25,254.015 2227.9,255.1 2227.27,256.115 C2226.57,257.165 2225.835,257.69 2224.995,257.69 C2224.295,257.69 2223.735,257.375 2223.315,256.71 C2222.86,256.08 2222.65,255.345 2222.65,254.505 C2222.65,253.385 2222.895,252.335 2223.455,251.355 C2224.085,250.235 2224.89,249.64 2225.87,249.64 C2226.22,249.85 2226.675,249.955 2227.235,249.955 C2227.9,250.375 2228.25,251.355 2228.25,252.825 L2228.25,252.825 Z M2248.76,247.61 C2248.76,247.085 2248.585,246.63 2248.235,246.21 C2247.92,245.825 2247.535,245.615 2247.045,245.615 C2246.835,245.615 2246.415,245.825 2245.785,246.175 C2245.155,246.56 2243.615,246.875 2241.13,247.155 C2240.57,246.7 2240.115,246.455 2239.8,246.455 C2239.415,246.455 2238.995,246.665 2238.575,247.085 C2238.155,247.505 2237.945,247.96 2237.945,248.38 C2237.945,248.66 2238.085,249.01 2238.365,249.395 C2238.61,249.815 2238.75,250.27 2238.75,250.795 C2238.75,252.965 2238.575,254.75 2238.225,256.22 C2237.77,257.935 2237.175,258.775 2236.475,258.775 C2236.195,258.775 2235.985,258.355 2235.915,257.445 C2235.845,257.095 2235.705,256.885 2235.425,256.885 C2234.935,256.885 2234.585,257.13 2234.34,257.55 C2234.025,258.04 2233.885,258.6 2233.885,259.195 C2233.885,259.86 2234.13,260.35 2234.655,260.735 C2235.145,261.085 2235.705,261.295 2236.335,261.295 C2238.155,261.295 2239.45,260.105 2240.22,257.795 C2240.71,256.325 2241.13,253.665 2241.48,249.815 C2242.355,249.605 2243.685,249.325 2245.505,249.01 C2245.155,252.44 2244.98,255.03 2244.98,256.78 C2244.98,259.09 2245.12,260.525 2245.435,261.12 C2245.75,261.715 2246.205,262.03 2246.765,262.03 C2247.675,262.03 2248.13,261.47 2248.13,260.42 C2247.99,259.79 2247.92,259.23 2247.85,258.74 C2247.675,257.55 2247.605,256.535 2247.605,255.66 C2247.605,253.77 2247.885,251.565 2248.48,249.045 C2248.655,248.205 2248.76,247.75 2248.76,247.61 L2248.76,247.61 Z M2266.225,259.37 C2266.225,259.02 2266.085,258.67 2265.805,258.32 C2265.525,258.04 2265.175,257.865 2264.825,257.865 C2264.545,257.865 2264.09,257.935 2263.495,258.005 C2262.9,258.075 2262.445,258.11 2262.165,258.11 C2261.115,258.11 2260.205,257.62 2259.365,256.605 C2262.865,254.715 2264.615,252.475 2264.615,249.885 C2264.615,248.905 2264.195,247.96 2263.355,247.12 C2262.515,246.28 2261.675,245.86 2260.8,245.86 C2259.295,245.86 2258.07,246.735 2257.09,248.45 C2256.25,249.92 2255.83,251.495 2255.83,253.175 C2255.83,253.525 2255.865,254.015 2255.97,254.61 L2255.165,254.61 C2254.675,254.61 2254.22,254.435 2253.73,254.085 C2253.24,253.735 2252.89,253.56 2252.68,253.56 C2251.77,253.56 2251.315,254.05 2251.315,255.03 C2251.315,255.8 2251.875,256.43 2253.065,256.92 C2253.975,257.305 2254.85,257.48 2255.76,257.48 L2256.81,257.48 C2258.07,259.895 2260.03,261.085 2262.69,261.085 C2265.035,261.085 2266.225,260.49 2266.225,259.37 L2266.225,259.37 Z M2261.85,250.025 C2261.85,251.18 2260.8,252.44 2258.7,253.805 L2258.7,253.175 C2258.7,252.23 2258.84,251.32 2259.19,250.445 C2259.54,249.395 2260.03,248.87 2260.66,248.87 C2260.94,248.87 2261.22,249.01 2261.5,249.22 C2261.71,249.5 2261.85,249.745 2261.85,250.025 L2261.85,250.025 Z M2279.805,255.94 C2279.805,253.84 2278.755,252.44 2276.69,251.81 C2278.195,250.97 2278.965,249.92 2278.965,248.625 C2278.965,246.455 2277.25,245.37 2273.89,245.37 C2270.985,245.37 2269.55,246 2269.55,247.26 C2269.55,248.17 2269.97,248.625 2270.81,248.66 C2271.02,248.625 2271.545,248.45 2272.385,248.1 C2272.945,247.89 2273.47,247.75 2273.89,247.75 C2275.5,247.75 2276.305,248.135 2276.305,248.905 C2276.305,249.395 2275.885,249.92 2275.045,250.41 C2274.275,250.83 2273.4,251.145 2272.385,251.355 C2271.125,251.635 2270.46,251.775 2270.355,251.81 C2269.935,251.985 2269.76,252.335 2269.76,252.825 C2269.76,253.175 2269.865,253.56 2270.145,253.91 C2270.39,254.295 2270.705,254.47 2271.055,254.47 C2271.23,254.47 2271.475,254.4 2271.79,254.19 C2272.42,253.84 2273.155,253.63 2273.96,253.63 C2274.765,253.63 2275.465,253.77 2276.095,254.05 C2276.865,254.4 2277.25,254.925 2277.25,255.625 C2277.25,256.465 2276.585,257.305 2275.325,258.11 C2274.135,258.915 2273.12,259.3 2272.28,259.3 C2271.3,259.3 2270.845,259.16 2270.845,258.88 C2270.845,258.74 2270.88,258.53 2270.985,258.32 C2271.055,258.075 2271.09,257.9 2271.09,257.83 C2271.09,257.2 2270.67,256.885 2269.865,256.885 C2269.585,256.885 2269.27,257.13 2268.955,257.55 C2268.605,258.04 2268.465,258.46 2268.465,258.81 C2268.465,259.3 2268.64,259.825 2269.06,260.385 C2269.69,261.295 2270.845,261.75 2272.49,261.75 C2274.1,261.75 2275.71,261.155 2277.285,260.035 C2278.965,258.845 2279.805,257.48 2279.805,255.94 L2279.805,255.94 Z M2294.68,247.05 C2294.68,246.14 2294.26,245.685 2293.42,245.685 C2292.72,245.685 2292.265,246.315 2292.09,247.505 C2291.915,248.45 2291.705,249.78 2291.495,251.495 C2289.955,251.88 2288.45,252.16 2286.98,252.3 C2287.33,250.06 2287.68,248.38 2288.03,247.225 C2288.24,246.595 2288.415,246.105 2288.59,245.685 C2288.52,244.74 2288.1,244.25 2287.26,244.25 C2286.665,244.25 2286.28,244.53 2286.07,245.09 C2285.37,246.77 2284.81,249.185 2284.46,252.335 C2283.9,252.335 2283.515,252.3 2283.305,252.265 C2282.605,252.265 2282.29,252.685 2282.29,253.455 C2282.29,254.33 2282.78,254.75 2283.795,254.75 L2284.215,254.75 C2284.11,256.08 2284.005,257.585 2283.935,259.335 C2283.935,259.44 2283.9,259.615 2283.865,259.825 C2283.795,260.035 2283.795,260.175 2283.795,260.315 C2283.795,260.665 2283.935,260.98 2284.215,261.26 C2284.495,261.54 2284.81,261.68 2285.16,261.68 C2286,261.68 2286.455,261.225 2286.49,260.35 C2286.49,259.16 2286.595,257.27 2286.77,254.68 C2288.275,254.54 2289.745,254.295 2291.215,253.945 C2291.04,255.8 2290.935,257.27 2290.935,258.32 C2290.935,258.425 2290.9,258.565 2290.865,258.775 C2290.795,258.95 2290.76,259.09 2290.76,259.195 C2290.76,260.035 2290.865,260.665 2291.145,261.085 C2291.425,261.54 2291.74,261.785 2292.16,261.785 C2292.51,261.785 2292.825,261.645 2293.105,261.365 C2293.35,261.085 2293.49,260.735 2293.49,260.35 C2293.49,260.28 2293.455,260.105 2293.455,259.755 C2293.42,259.405 2293.42,259.125 2293.42,258.985 C2293.42,256.64 2293.77,253.035 2294.54,248.17 C2294.61,247.54 2294.68,247.19 2294.68,247.05 L2294.68,247.05 Z M2311.235,260.21 C2311.235,259.965 2311.06,259.65 2310.745,259.3 C2309.975,258.46 2309.625,256.325 2309.625,252.895 C2309.625,251.67 2309.8,249.605 2310.185,246.7 C2310.185,246.315 2310.01,245.965 2309.73,245.615 C2309.415,245.3 2309.065,245.125 2308.68,245.125 C2308.085,245.125 2306.825,246.42 2304.935,249.01 C2303.395,251.04 2302.135,252.895 2301.085,254.505 C2301.33,251.775 2301.505,249.78 2301.61,248.59 C2301.61,248.03 2301.4,247.54 2301.05,247.12 C2300.7,246.735 2300.245,246.525 2299.685,246.525 C2299.37,246.525 2299.09,246.735 2298.81,247.12 C2298.88,248.135 2298.95,248.73 2298.95,248.87 C2298.95,249.5 2298.845,251.075 2298.67,253.63 L2298.6,254.645 C2298.565,255.17 2298.495,255.87 2298.425,256.745 C2298.32,257.585 2298.25,258.11 2298.25,258.32 C2298.285,258.81 2298.425,259.195 2298.705,259.405 C2299.265,259.965 2299.615,260.21 2299.755,260.21 C2300.245,260.21 2300.84,259.685 2301.47,258.565 C2302.765,256.395 2303.675,254.855 2304.235,254.015 C2305.145,252.51 2306.125,251.11 2307.21,249.85 C2307.21,250.2 2307.175,250.935 2307.175,252.02 C2307.14,253.14 2307.14,253.735 2307.14,253.875 C2307.14,255.695 2307.315,257.235 2307.7,258.565 C2308.225,260.49 2308.995,261.47 2309.975,261.47 C2310.185,261.47 2310.465,261.295 2310.78,261.015 C2311.06,260.665 2311.235,260.42 2311.235,260.21 L2311.235,260.21 Z" id="при-лечении-мочекаме"></path>
        </g>
    </g>
</svg>