<?xml version="1.0" encoding="UTF-8"?>
<svg width="391px" height="30px" viewBox="0 0 391 30" version="1.1" xmlns="http://www.w3.org/2000/svg" xmlns:xlink="http://www.w3.org/1999/xlink">
    <!-- Generator: Sketch 40.3 (33839) - http://www.bohemiancoding.com/sketch -->
    <title>при лечении пиелонеф</title>
    <desc>Created with Sketch.</desc>
    <defs></defs>
    <g id="Page-1" stroke="none" stroke-width="1" fill="none" fill-rule="evenodd">
        <g id="Sostav-IN-CURVES" transform="translate(-3163.000000, -239.000000)" fill="#354777">
            <path d="M3176.14,246.91 C3176.14,246.525 3175.965,246.175 3175.615,245.895 C3175.23,245.65 3174.845,245.51 3174.46,245.44 C3170.89,245.72 3168.055,245.965 3166.025,246.105 C3164.8,246.21 3164.205,246.63 3164.205,247.4 C3164.205,247.89 3164.275,248.31 3164.485,248.695 C3164.24,252.3 3164.135,254.12 3164.135,254.19 C3163.89,256.71 3163.785,257.97 3163.785,257.97 C3163.785,258.425 3163.925,258.88 3164.24,259.335 C3164.555,259.79 3164.905,260 3165.325,260 C3166.025,260 3166.375,259.545 3166.445,258.6 C3166.655,254.82 3166.865,251.565 3167.145,248.835 C3168.93,248.59 3170.785,248.415 3172.71,248.345 C3172.71,248.45 3172.64,250.165 3172.535,253.455 C3172.395,256.395 3172.36,257.97 3172.36,258.18 C3172.36,260.455 3172.955,261.61 3174.215,261.61 C3174.88,261.61 3175.23,261.225 3175.23,260.525 C3175.02,259.475 3174.95,258.495 3174.95,257.655 C3174.95,256.535 3175.02,254.75 3175.16,252.3 C3175.195,251.915 3175.265,251.355 3175.37,250.585 C3175.44,249.955 3175.475,249.605 3175.475,249.465 C3175.475,249.255 3175.405,248.94 3175.335,248.52 C3175.86,247.96 3176.14,247.435 3176.14,246.91 L3176.14,246.91 Z M3192.415,247.89 C3192.415,246.21 3192.03,244.81 3191.26,243.69 C3190.42,242.465 3189.195,241.835 3187.655,241.835 C3185.45,241.835 3183.735,243.375 3182.51,246.455 C3181.67,248.59 3181.25,251.04 3181.25,253.77 C3181.25,254.12 3181.25,254.4 3181.285,254.575 C3180.305,254.925 3179.85,255.45 3179.85,256.185 C3179.85,257.095 3180.305,257.585 3181.285,257.655 C3181.355,258.215 3181.39,259.055 3181.39,260.175 C3181.39,262.415 3181.25,263.99 3181.04,264.97 C3180.795,265.915 3180.69,266.44 3180.69,266.545 C3180.69,266.93 3180.83,267.28 3181.11,267.595 C3181.39,267.875 3181.74,268.05 3182.125,268.05 C3182.86,268.05 3183.385,267.315 3183.7,265.88 C3184.05,264.27 3184.225,262.625 3184.225,261.015 C3184.225,259.545 3184.155,258.11 3184.05,256.71 C3189.615,254.68 3192.415,251.74 3192.415,247.89 L3192.415,247.89 Z M3189.615,247.295 C3189.615,250.165 3187.76,252.265 3184.085,253.595 C3184.085,251.705 3184.4,249.78 3185.065,247.89 C3185.8,245.825 3186.675,244.775 3187.655,244.775 C3188.25,244.775 3188.74,245.055 3189.125,245.545 C3189.44,246.035 3189.615,246.63 3189.615,247.295 L3189.615,247.295 Z M3208.865,260.21 C3208.865,259.965 3208.69,259.65 3208.375,259.3 C3207.605,258.46 3207.255,256.325 3207.255,252.895 C3207.255,251.67 3207.43,249.605 3207.815,246.7 C3207.815,246.315 3207.64,245.965 3207.36,245.615 C3207.045,245.3 3206.695,245.125 3206.31,245.125 C3205.715,245.125 3204.455,246.42 3202.565,249.01 C3201.025,251.04 3199.765,252.895 3198.715,254.505 C3198.96,251.775 3199.135,249.78 3199.24,248.59 C3199.24,248.03 3199.03,247.54 3198.68,247.12 C3198.33,246.735 3197.875,246.525 3197.315,246.525 C3197,246.525 3196.72,246.735 3196.44,247.12 C3196.51,248.135 3196.58,248.73 3196.58,248.87 C3196.58,249.5 3196.475,251.075 3196.3,253.63 L3196.23,254.645 C3196.195,255.17 3196.125,255.87 3196.055,256.745 C3195.95,257.585 3195.88,258.11 3195.88,258.32 C3195.915,258.81 3196.055,259.195 3196.335,259.405 C3196.895,259.965 3197.245,260.21 3197.385,260.21 C3197.875,260.21 3198.47,259.685 3199.1,258.565 C3200.395,256.395 3201.305,254.855 3201.865,254.015 C3202.775,252.51 3203.755,251.11 3204.84,249.85 C3204.84,250.2 3204.805,250.935 3204.805,252.02 C3204.77,253.14 3204.77,253.735 3204.77,253.875 C3204.77,255.695 3204.945,257.235 3205.33,258.565 C3205.855,260.49 3206.625,261.47 3207.605,261.47 C3207.815,261.47 3208.095,261.295 3208.41,261.015 C3208.69,260.665 3208.865,260.42 3208.865,260.21 L3208.865,260.21 Z M3238.545,247.61 C3238.545,247.085 3238.37,246.63 3238.02,246.21 C3237.705,245.825 3237.32,245.615 3236.83,245.615 C3236.62,245.615 3236.2,245.825 3235.57,246.175 C3234.94,246.56 3233.4,246.875 3230.915,247.155 C3230.355,246.7 3229.9,246.455 3229.585,246.455 C3229.2,246.455 3228.78,246.665 3228.36,247.085 C3227.94,247.505 3227.73,247.96 3227.73,248.38 C3227.73,248.66 3227.87,249.01 3228.15,249.395 C3228.395,249.815 3228.535,250.27 3228.535,250.795 C3228.535,252.965 3228.36,254.75 3228.01,256.22 C3227.555,257.935 3226.96,258.775 3226.26,258.775 C3225.98,258.775 3225.77,258.355 3225.7,257.445 C3225.63,257.095 3225.49,256.885 3225.21,256.885 C3224.72,256.885 3224.37,257.13 3224.125,257.55 C3223.81,258.04 3223.67,258.6 3223.67,259.195 C3223.67,259.86 3223.915,260.35 3224.44,260.735 C3224.93,261.085 3225.49,261.295 3226.12,261.295 C3227.94,261.295 3229.235,260.105 3230.005,257.795 C3230.495,256.325 3230.915,253.665 3231.265,249.815 C3232.14,249.605 3233.47,249.325 3235.29,249.01 C3234.94,252.44 3234.765,255.03 3234.765,256.78 C3234.765,259.09 3234.905,260.525 3235.22,261.12 C3235.535,261.715 3235.99,262.03 3236.55,262.03 C3237.46,262.03 3237.915,261.47 3237.915,260.42 C3237.775,259.79 3237.705,259.23 3237.635,258.74 C3237.46,257.55 3237.39,256.535 3237.39,255.66 C3237.39,253.77 3237.67,251.565 3238.265,249.045 C3238.44,248.205 3238.545,247.75 3238.545,247.61 L3238.545,247.61 Z M3256.01,259.37 C3256.01,259.02 3255.87,258.67 3255.59,258.32 C3255.31,258.04 3254.96,257.865 3254.61,257.865 C3254.33,257.865 3253.875,257.935 3253.28,258.005 C3252.685,258.075 3252.23,258.11 3251.95,258.11 C3250.9,258.11 3249.99,257.62 3249.15,256.605 C3252.65,254.715 3254.4,252.475 3254.4,249.885 C3254.4,248.905 3253.98,247.96 3253.14,247.12 C3252.3,246.28 3251.46,245.86 3250.585,245.86 C3249.08,245.86 3247.855,246.735 3246.875,248.45 C3246.035,249.92 3245.615,251.495 3245.615,253.175 C3245.615,253.525 3245.65,254.015 3245.755,254.61 L3244.95,254.61 C3244.46,254.61 3244.005,254.435 3243.515,254.085 C3243.025,253.735 3242.675,253.56 3242.465,253.56 C3241.555,253.56 3241.1,254.05 3241.1,255.03 C3241.1,255.8 3241.66,256.43 3242.85,256.92 C3243.76,257.305 3244.635,257.48 3245.545,257.48 L3246.595,257.48 C3247.855,259.895 3249.815,261.085 3252.475,261.085 C3254.82,261.085 3256.01,260.49 3256.01,259.37 L3256.01,259.37 Z M3251.635,250.025 C3251.635,251.18 3250.585,252.44 3248.485,253.805 L3248.485,253.175 C3248.485,252.23 3248.625,251.32 3248.975,250.445 C3249.325,249.395 3249.815,248.87 3250.445,248.87 C3250.725,248.87 3251.005,249.01 3251.285,249.22 C3251.495,249.5 3251.635,249.745 3251.635,250.025 L3251.635,250.025 Z M3270.36,246.7 C3270.325,246.315 3270.185,245.93 3269.905,245.58 C3269.625,245.23 3269.31,245.055 3268.96,245.055 C3268.015,245.055 3267.525,245.58 3267.49,246.595 C3267.49,246.735 3267.49,247.19 3267.525,247.925 C3267.525,248.73 3267.56,249.185 3267.56,249.325 C3267.56,250.69 3267.105,251.95 3266.23,253.14 C3265.32,254.33 3264.305,254.89 3263.22,254.89 C3261.855,254.89 3261.19,253.91 3261.19,251.88 C3261.19,251.11 3261.33,249.36 3261.68,246.63 C3261.575,245.65 3261.155,245.125 3260.455,245.125 C3259.475,245.125 3258.915,246.07 3258.705,247.925 C3258.635,248.45 3258.6,249.745 3258.6,251.845 C3258.6,255.555 3260.07,257.41 3263.045,257.41 C3263.885,257.41 3264.76,257.2 3265.6,256.71 C3266.44,256.255 3267.105,255.625 3267.525,254.855 C3267.455,256.255 3267.385,257.41 3267.315,258.285 C3267.175,259.72 3267.14,260.735 3267.14,261.435 C3267.14,262.38 3267.525,262.87 3268.365,262.87 C3269.275,262.87 3269.765,262.38 3269.8,261.4 C3269.835,259.125 3269.94,255.765 3270.15,251.355 C3270.22,249.045 3270.29,247.505 3270.36,246.7 L3270.36,246.7 Z M3287.825,259.37 C3287.825,259.02 3287.685,258.67 3287.405,258.32 C3287.125,258.04 3286.775,257.865 3286.425,257.865 C3286.145,257.865 3285.69,257.935 3285.095,258.005 C3284.5,258.075 3284.045,258.11 3283.765,258.11 C3282.715,258.11 3281.805,257.62 3280.965,256.605 C3284.465,254.715 3286.215,252.475 3286.215,249.885 C3286.215,248.905 3285.795,247.96 3284.955,247.12 C3284.115,246.28 3283.275,245.86 3282.4,245.86 C3280.895,245.86 3279.67,246.735 3278.69,248.45 C3277.85,249.92 3277.43,251.495 3277.43,253.175 C3277.43,253.525 3277.465,254.015 3277.57,254.61 L3276.765,254.61 C3276.275,254.61 3275.82,254.435 3275.33,254.085 C3274.84,253.735 3274.49,253.56 3274.28,253.56 C3273.37,253.56 3272.915,254.05 3272.915,255.03 C3272.915,255.8 3273.475,256.43 3274.665,256.92 C3275.575,257.305 3276.45,257.48 3277.36,257.48 L3278.41,257.48 C3279.67,259.895 3281.63,261.085 3284.29,261.085 C3286.635,261.085 3287.825,260.49 3287.825,259.37 L3287.825,259.37 Z M3283.45,250.025 C3283.45,251.18 3282.4,252.44 3280.3,253.805 L3280.3,253.175 C3280.3,252.23 3280.44,251.32 3280.79,250.445 C3281.14,249.395 3281.63,248.87 3282.26,248.87 C3282.54,248.87 3282.82,249.01 3283.1,249.22 C3283.31,249.5 3283.45,249.745 3283.45,250.025 L3283.45,250.025 Z M3302.07,247.05 C3302.07,246.14 3301.65,245.685 3300.81,245.685 C3300.11,245.685 3299.655,246.315 3299.48,247.505 C3299.305,248.45 3299.095,249.78 3298.885,251.495 C3297.345,251.88 3295.84,252.16 3294.37,252.3 C3294.72,250.06 3295.07,248.38 3295.42,247.225 C3295.63,246.595 3295.805,246.105 3295.98,245.685 C3295.91,244.74 3295.49,244.25 3294.65,244.25 C3294.055,244.25 3293.67,244.53 3293.46,245.09 C3292.76,246.77 3292.2,249.185 3291.85,252.335 C3291.29,252.335 3290.905,252.3 3290.695,252.265 C3289.995,252.265 3289.68,252.685 3289.68,253.455 C3289.68,254.33 3290.17,254.75 3291.185,254.75 L3291.605,254.75 C3291.5,256.08 3291.395,257.585 3291.325,259.335 C3291.325,259.44 3291.29,259.615 3291.255,259.825 C3291.185,260.035 3291.185,260.175 3291.185,260.315 C3291.185,260.665 3291.325,260.98 3291.605,261.26 C3291.885,261.54 3292.2,261.68 3292.55,261.68 C3293.39,261.68 3293.845,261.225 3293.88,260.35 C3293.88,259.16 3293.985,257.27 3294.16,254.68 C3295.665,254.54 3297.135,254.295 3298.605,253.945 C3298.43,255.8 3298.325,257.27 3298.325,258.32 C3298.325,258.425 3298.29,258.565 3298.255,258.775 C3298.185,258.95 3298.15,259.09 3298.15,259.195 C3298.15,260.035 3298.255,260.665 3298.535,261.085 C3298.815,261.54 3299.13,261.785 3299.55,261.785 C3299.9,261.785 3300.215,261.645 3300.495,261.365 C3300.74,261.085 3300.88,260.735 3300.88,260.35 C3300.88,260.28 3300.845,260.105 3300.845,259.755 C3300.81,259.405 3300.81,259.125 3300.81,258.985 C3300.81,256.64 3301.16,253.035 3301.93,248.17 C3302,247.54 3302.07,247.19 3302.07,247.05 L3302.07,247.05 Z M3318.625,260.21 C3318.625,259.965 3318.45,259.65 3318.135,259.3 C3317.365,258.46 3317.015,256.325 3317.015,252.895 C3317.015,251.67 3317.19,249.605 3317.575,246.7 C3317.575,246.315 3317.4,245.965 3317.12,245.615 C3316.805,245.3 3316.455,245.125 3316.07,245.125 C3315.475,245.125 3314.215,246.42 3312.325,249.01 C3310.785,251.04 3309.525,252.895 3308.475,254.505 C3308.72,251.775 3308.895,249.78 3309,248.59 C3309,248.03 3308.79,247.54 3308.44,247.12 C3308.09,246.735 3307.635,246.525 3307.075,246.525 C3306.76,246.525 3306.48,246.735 3306.2,247.12 C3306.27,248.135 3306.34,248.73 3306.34,248.87 C3306.34,249.5 3306.235,251.075 3306.06,253.63 L3305.99,254.645 C3305.955,255.17 3305.885,255.87 3305.815,256.745 C3305.71,257.585 3305.64,258.11 3305.64,258.32 C3305.675,258.81 3305.815,259.195 3306.095,259.405 C3306.655,259.965 3307.005,260.21 3307.145,260.21 C3307.635,260.21 3308.23,259.685 3308.86,258.565 C3310.155,256.395 3311.065,254.855 3311.625,254.015 C3312.535,252.51 3313.515,251.11 3314.6,249.85 C3314.6,250.2 3314.565,250.935 3314.565,252.02 C3314.53,253.14 3314.53,253.735 3314.53,253.875 C3314.53,255.695 3314.705,257.235 3315.09,258.565 C3315.615,260.49 3316.385,261.47 3317.365,261.47 C3317.575,261.47 3317.855,261.295 3318.17,261.015 C3318.45,260.665 3318.625,260.42 3318.625,260.21 L3318.625,260.21 Z M3335.18,260.21 C3335.18,259.965 3335.005,259.65 3334.69,259.3 C3333.92,258.46 3333.57,256.325 3333.57,252.895 C3333.57,251.67 3333.745,249.605 3334.13,246.7 C3334.13,246.315 3333.955,245.965 3333.675,245.615 C3333.36,245.3 3333.01,245.125 3332.625,245.125 C3332.03,245.125 3330.77,246.42 3328.88,249.01 C3327.34,251.04 3326.08,252.895 3325.03,254.505 C3325.275,251.775 3325.45,249.78 3325.555,248.59 C3325.555,248.03 3325.345,247.54 3324.995,247.12 C3324.645,246.735 3324.19,246.525 3323.63,246.525 C3323.315,246.525 3323.035,246.735 3322.755,247.12 C3322.825,248.135 3322.895,248.73 3322.895,248.87 C3322.895,249.5 3322.79,251.075 3322.615,253.63 L3322.545,254.645 C3322.51,255.17 3322.44,255.87 3322.37,256.745 C3322.265,257.585 3322.195,258.11 3322.195,258.32 C3322.23,258.81 3322.37,259.195 3322.65,259.405 C3323.21,259.965 3323.56,260.21 3323.7,260.21 C3324.19,260.21 3324.785,259.685 3325.415,258.565 C3326.71,256.395 3327.62,254.855 3328.18,254.015 C3329.09,252.51 3330.07,251.11 3331.155,249.85 C3331.155,250.2 3331.12,250.935 3331.12,252.02 C3331.085,253.14 3331.085,253.735 3331.085,253.875 C3331.085,255.695 3331.26,257.235 3331.645,258.565 C3332.17,260.49 3332.94,261.47 3333.92,261.47 C3334.13,261.47 3334.41,261.295 3334.725,261.015 C3335.005,260.665 3335.18,260.42 3335.18,260.21 L3335.18,260.21 Z M3363.075,246.91 C3363.075,246.525 3362.9,246.175 3362.55,245.895 C3362.165,245.65 3361.78,245.51 3361.395,245.44 C3357.825,245.72 3354.99,245.965 3352.96,246.105 C3351.735,246.21 3351.14,246.63 3351.14,247.4 C3351.14,247.89 3351.21,248.31 3351.42,248.695 C3351.175,252.3 3351.07,254.12 3351.07,254.19 C3350.825,256.71 3350.72,257.97 3350.72,257.97 C3350.72,258.425 3350.86,258.88 3351.175,259.335 C3351.49,259.79 3351.84,260 3352.26,260 C3352.96,260 3353.31,259.545 3353.38,258.6 C3353.59,254.82 3353.8,251.565 3354.08,248.835 C3355.865,248.59 3357.72,248.415 3359.645,248.345 C3359.645,248.45 3359.575,250.165 3359.47,253.455 C3359.33,256.395 3359.295,257.97 3359.295,258.18 C3359.295,260.455 3359.89,261.61 3361.15,261.61 C3361.815,261.61 3362.165,261.225 3362.165,260.525 C3361.955,259.475 3361.885,258.495 3361.885,257.655 C3361.885,256.535 3361.955,254.75 3362.095,252.3 C3362.13,251.915 3362.2,251.355 3362.305,250.585 C3362.375,249.955 3362.41,249.605 3362.41,249.465 C3362.41,249.255 3362.34,248.94 3362.27,248.52 C3362.795,247.96 3363.075,247.435 3363.075,246.91 L3363.075,246.91 Z M3379.665,260.21 C3379.665,259.965 3379.49,259.65 3379.175,259.3 C3378.405,258.46 3378.055,256.325 3378.055,252.895 C3378.055,251.67 3378.23,249.605 3378.615,246.7 C3378.615,246.315 3378.44,245.965 3378.16,245.615 C3377.845,245.3 3377.495,245.125 3377.11,245.125 C3376.515,245.125 3375.255,246.42 3373.365,249.01 C3371.825,251.04 3370.565,252.895 3369.515,254.505 C3369.76,251.775 3369.935,249.78 3370.04,248.59 C3370.04,248.03 3369.83,247.54 3369.48,247.12 C3369.13,246.735 3368.675,246.525 3368.115,246.525 C3367.8,246.525 3367.52,246.735 3367.24,247.12 C3367.31,248.135 3367.38,248.73 3367.38,248.87 C3367.38,249.5 3367.275,251.075 3367.1,253.63 L3367.03,254.645 C3366.995,255.17 3366.925,255.87 3366.855,256.745 C3366.75,257.585 3366.68,258.11 3366.68,258.32 C3366.715,258.81 3366.855,259.195 3367.135,259.405 C3367.695,259.965 3368.045,260.21 3368.185,260.21 C3368.675,260.21 3369.27,259.685 3369.9,258.565 C3371.195,256.395 3372.105,254.855 3372.665,254.015 C3373.575,252.51 3374.555,251.11 3375.64,249.85 C3375.64,250.2 3375.605,250.935 3375.605,252.02 C3375.57,253.14 3375.57,253.735 3375.57,253.875 C3375.57,255.695 3375.745,257.235 3376.13,258.565 C3376.655,260.49 3377.425,261.47 3378.405,261.47 C3378.615,261.47 3378.895,261.295 3379.21,261.015 C3379.49,260.665 3379.665,260.42 3379.665,260.21 L3379.665,260.21 Z M3397.13,259.37 C3397.13,259.02 3396.99,258.67 3396.71,258.32 C3396.43,258.04 3396.08,257.865 3395.73,257.865 C3395.45,257.865 3394.995,257.935 3394.4,258.005 C3393.805,258.075 3393.35,258.11 3393.07,258.11 C3392.02,258.11 3391.11,257.62 3390.27,256.605 C3393.77,254.715 3395.52,252.475 3395.52,249.885 C3395.52,248.905 3395.1,247.96 3394.26,247.12 C3393.42,246.28 3392.58,245.86 3391.705,245.86 C3390.2,245.86 3388.975,246.735 3387.995,248.45 C3387.155,249.92 3386.735,251.495 3386.735,253.175 C3386.735,253.525 3386.77,254.015 3386.875,254.61 L3386.07,254.61 C3385.58,254.61 3385.125,254.435 3384.635,254.085 C3384.145,253.735 3383.795,253.56 3383.585,253.56 C3382.675,253.56 3382.22,254.05 3382.22,255.03 C3382.22,255.8 3382.78,256.43 3383.97,256.92 C3384.88,257.305 3385.755,257.48 3386.665,257.48 L3387.715,257.48 C3388.975,259.895 3390.935,261.085 3393.595,261.085 C3395.94,261.085 3397.13,260.49 3397.13,259.37 L3397.13,259.37 Z M3392.755,250.025 C3392.755,251.18 3391.705,252.44 3389.605,253.805 L3389.605,253.175 C3389.605,252.23 3389.745,251.32 3390.095,250.445 C3390.445,249.395 3390.935,248.87 3391.565,248.87 C3391.845,248.87 3392.125,249.01 3392.405,249.22 C3392.615,249.5 3392.755,249.745 3392.755,250.025 L3392.755,250.025 Z M3413.86,247.61 C3413.86,247.085 3413.685,246.63 3413.335,246.21 C3413.02,245.825 3412.635,245.615 3412.145,245.615 C3411.935,245.615 3411.515,245.825 3410.885,246.175 C3410.255,246.56 3408.715,246.875 3406.23,247.155 C3405.67,246.7 3405.215,246.455 3404.9,246.455 C3404.515,246.455 3404.095,246.665 3403.675,247.085 C3403.255,247.505 3403.045,247.96 3403.045,248.38 C3403.045,248.66 3403.185,249.01 3403.465,249.395 C3403.71,249.815 3403.85,250.27 3403.85,250.795 C3403.85,252.965 3403.675,254.75 3403.325,256.22 C3402.87,257.935 3402.275,258.775 3401.575,258.775 C3401.295,258.775 3401.085,258.355 3401.015,257.445 C3400.945,257.095 3400.805,256.885 3400.525,256.885 C3400.035,256.885 3399.685,257.13 3399.44,257.55 C3399.125,258.04 3398.985,258.6 3398.985,259.195 C3398.985,259.86 3399.23,260.35 3399.755,260.735 C3400.245,261.085 3400.805,261.295 3401.435,261.295 C3403.255,261.295 3404.55,260.105 3405.32,257.795 C3405.81,256.325 3406.23,253.665 3406.58,249.815 C3407.455,249.605 3408.785,249.325 3410.605,249.01 C3410.255,252.44 3410.08,255.03 3410.08,256.78 C3410.08,259.09 3410.22,260.525 3410.535,261.12 C3410.85,261.715 3411.305,262.03 3411.865,262.03 C3412.775,262.03 3413.23,261.47 3413.23,260.42 C3413.09,259.79 3413.02,259.23 3412.95,258.74 C3412.775,257.55 3412.705,256.535 3412.705,255.66 C3412.705,253.77 3412.985,251.565 3413.58,249.045 C3413.755,248.205 3413.86,247.75 3413.86,247.61 L3413.86,247.61 Z M3428.525,252.3 C3428.525,250.935 3428.14,249.675 3427.37,248.555 C3426.565,247.47 3425.55,246.7 3424.325,246.28 C3423.835,246.14 3423.555,246.07 3423.485,246.07 C3423.205,246.07 3422.89,246.245 3422.47,246.525 C3421.98,246.805 3421.595,247.015 3421.315,247.12 C3420.125,247.715 3419.145,248.765 3418.445,250.235 C3417.745,251.565 3417.43,253 3417.43,254.505 C3417.43,256.29 3417.885,257.76 3418.865,258.915 C3419.845,260.035 3421.07,260.63 3422.54,260.63 C3424.22,260.63 3425.655,259.86 3426.81,258.25 C3427.93,256.64 3428.525,254.68 3428.525,252.3 L3428.525,252.3 Z M3425.76,252.825 C3425.76,254.015 3425.41,255.1 3424.78,256.115 C3424.08,257.165 3423.345,257.69 3422.505,257.69 C3421.805,257.69 3421.245,257.375 3420.825,256.71 C3420.37,256.08 3420.16,255.345 3420.16,254.505 C3420.16,253.385 3420.405,252.335 3420.965,251.355 C3421.595,250.235 3422.4,249.64 3423.38,249.64 C3423.73,249.85 3424.185,249.955 3424.745,249.955 C3425.41,250.375 3425.76,251.355 3425.76,252.825 L3425.76,252.825 Z M3443.785,247.05 C3443.785,246.14 3443.365,245.685 3442.525,245.685 C3441.825,245.685 3441.37,246.315 3441.195,247.505 C3441.02,248.45 3440.81,249.78 3440.6,251.495 C3439.06,251.88 3437.555,252.16 3436.085,252.3 C3436.435,250.06 3436.785,248.38 3437.135,247.225 C3437.345,246.595 3437.52,246.105 3437.695,245.685 C3437.625,244.74 3437.205,244.25 3436.365,244.25 C3435.77,244.25 3435.385,244.53 3435.175,245.09 C3434.475,246.77 3433.915,249.185 3433.565,252.335 C3433.005,252.335 3432.62,252.3 3432.41,252.265 C3431.71,252.265 3431.395,252.685 3431.395,253.455 C3431.395,254.33 3431.885,254.75 3432.9,254.75 L3433.32,254.75 C3433.215,256.08 3433.11,257.585 3433.04,259.335 C3433.04,259.44 3433.005,259.615 3432.97,259.825 C3432.9,260.035 3432.9,260.175 3432.9,260.315 C3432.9,260.665 3433.04,260.98 3433.32,261.26 C3433.6,261.54 3433.915,261.68 3434.265,261.68 C3435.105,261.68 3435.56,261.225 3435.595,260.35 C3435.595,259.16 3435.7,257.27 3435.875,254.68 C3437.38,254.54 3438.85,254.295 3440.32,253.945 C3440.145,255.8 3440.04,257.27 3440.04,258.32 C3440.04,258.425 3440.005,258.565 3439.97,258.775 C3439.9,258.95 3439.865,259.09 3439.865,259.195 C3439.865,260.035 3439.97,260.665 3440.25,261.085 C3440.53,261.54 3440.845,261.785 3441.265,261.785 C3441.615,261.785 3441.93,261.645 3442.21,261.365 C3442.455,261.085 3442.595,260.735 3442.595,260.35 C3442.595,260.28 3442.56,260.105 3442.56,259.755 C3442.525,259.405 3442.525,259.125 3442.525,258.985 C3442.525,256.64 3442.875,253.035 3443.645,248.17 C3443.715,247.54 3443.785,247.19 3443.785,247.05 L3443.785,247.05 Z M3461.25,259.37 C3461.25,259.02 3461.11,258.67 3460.83,258.32 C3460.55,258.04 3460.2,257.865 3459.85,257.865 C3459.57,257.865 3459.115,257.935 3458.52,258.005 C3457.925,258.075 3457.47,258.11 3457.19,258.11 C3456.14,258.11 3455.23,257.62 3454.39,256.605 C3457.89,254.715 3459.64,252.475 3459.64,249.885 C3459.64,248.905 3459.22,247.96 3458.38,247.12 C3457.54,246.28 3456.7,245.86 3455.825,245.86 C3454.32,245.86 3453.095,246.735 3452.115,248.45 C3451.275,249.92 3450.855,251.495 3450.855,253.175 C3450.855,253.525 3450.89,254.015 3450.995,254.61 L3450.19,254.61 C3449.7,254.61 3449.245,254.435 3448.755,254.085 C3448.265,253.735 3447.915,253.56 3447.705,253.56 C3446.795,253.56 3446.34,254.05 3446.34,255.03 C3446.34,255.8 3446.9,256.43 3448.09,256.92 C3449,257.305 3449.875,257.48 3450.785,257.48 L3451.835,257.48 C3453.095,259.895 3455.055,261.085 3457.715,261.085 C3460.06,261.085 3461.25,260.49 3461.25,259.37 L3461.25,259.37 Z M3456.875,250.025 C3456.875,251.18 3455.825,252.44 3453.725,253.805 L3453.725,253.175 C3453.725,252.23 3453.865,251.32 3454.215,250.445 C3454.565,249.395 3455.055,248.87 3455.685,248.87 C3455.965,248.87 3456.245,249.01 3456.525,249.22 C3456.735,249.5 3456.875,249.745 3456.875,250.025 L3456.875,250.025 Z M3488.34,250.34 C3488.34,248.8 3487.99,247.505 3487.29,246.455 C3486.52,245.37 3485.54,244.81 3484.35,244.81 C3481.9,244.81 3479.555,247.015 3477.35,251.355 L3477.735,248.065 C3478.155,245.195 3478.47,243.095 3478.75,241.765 C3478.75,241.135 3478.575,240.54 3478.26,240.05 C3477.945,239.595 3477.49,239.35 3476.93,239.35 C3476.16,239.35 3475.705,240.225 3475.53,241.94 C3475.075,245.72 3474.83,247.855 3474.795,248.38 C3474.235,249.78 3473.22,251.46 3471.68,253.42 C3470,255.52 3468.74,256.535 3467.97,256.535 C3467.13,256.535 3466.745,256.08 3466.745,255.135 C3466.745,253.805 3467.2,252.335 3468.18,250.76 C3469.125,249.22 3470.07,248.415 3470.98,248.415 C3471.4,248.415 3471.82,248.59 3472.31,248.94 C3472.695,249.255 3473.01,249.395 3473.255,249.395 C3473.815,249.395 3474.13,249.185 3474.13,248.695 C3474.13,248.625 3474.095,248.52 3474.095,248.415 C3473.85,248.065 3473.675,247.82 3473.535,247.61 C3472.905,246.595 3471.96,246.07 3470.7,246.07 C3468.985,246.07 3467.41,247.19 3465.94,249.395 C3464.54,251.46 3463.84,253.42 3463.84,255.31 C3463.84,256.57 3464.12,257.55 3464.715,258.32 C3465.275,259.09 3466.115,259.44 3467.235,259.44 C3469.65,259.44 3472.135,257.585 3474.655,253.805 C3474.27,258.46 3473.99,261.89 3473.78,264.165 C3473.745,264.375 3473.71,264.655 3473.675,265.075 C3473.605,265.355 3473.605,265.565 3473.605,265.705 C3473.605,266.72 3473.885,267.42 3474.445,267.77 C3474.76,267.945 3475.145,268.05 3475.6,268.05 C3476.02,268.05 3476.335,267.805 3476.615,267.35 C3476.86,266.86 3477,266.335 3477,265.81 C3477,265.74 3476.965,265.46 3476.93,265.04 C3476.86,264.55 3476.86,264.2 3476.86,264.06 C3476.86,263.885 3476.825,263.57 3476.825,263.15 C3476.79,262.73 3476.79,262.415 3476.79,262.275 C3476.79,262.135 3476.79,261.54 3476.825,260.525 C3476.825,259.545 3476.86,258.95 3476.86,258.74 C3476.86,257.2 3477.805,254.96 3479.695,251.95 C3481.585,249.01 3483.02,247.505 3484.07,247.505 C3485.12,247.505 3485.645,248.52 3485.645,250.515 C3485.645,251.845 3485.435,253.07 3485.015,254.19 C3484.42,255.695 3483.615,256.43 3482.565,256.43 C3482.145,256.43 3481.62,256.115 3481.06,255.45 C3480.5,254.82 3480.08,254.47 3479.8,254.4 C3479.485,254.47 3479.205,254.645 3478.995,254.995 C3478.75,255.345 3478.645,255.66 3478.645,255.975 C3478.645,256.57 3479.065,257.2 3479.905,257.865 C3480.745,258.565 3481.655,258.915 3482.635,258.915 C3484.735,258.915 3486.24,257.935 3487.22,255.975 C3487.955,254.505 3488.34,252.65 3488.34,250.34 L3488.34,250.34 Z M3504.615,247.89 C3504.615,246.21 3504.23,244.81 3503.46,243.69 C3502.62,242.465 3501.395,241.835 3499.855,241.835 C3497.65,241.835 3495.935,243.375 3494.71,246.455 C3493.87,248.59 3493.45,251.04 3493.45,253.77 C3493.45,254.12 3493.45,254.4 3493.485,254.575 C3492.505,254.925 3492.05,255.45 3492.05,256.185 C3492.05,257.095 3492.505,257.585 3493.485,257.655 C3493.555,258.215 3493.59,259.055 3493.59,260.175 C3493.59,262.415 3493.45,263.99 3493.24,264.97 C3492.995,265.915 3492.89,266.44 3492.89,266.545 C3492.89,266.93 3493.03,267.28 3493.31,267.595 C3493.59,267.875 3493.94,268.05 3494.325,268.05 C3495.06,268.05 3495.585,267.315 3495.9,265.88 C3496.25,264.27 3496.425,262.625 3496.425,261.015 C3496.425,259.545 3496.355,258.11 3496.25,256.71 C3501.815,254.68 3504.615,251.74 3504.615,247.89 L3504.615,247.89 Z M3501.815,247.295 C3501.815,250.165 3499.96,252.265 3496.285,253.595 C3496.285,251.705 3496.6,249.78 3497.265,247.89 C3498,245.825 3498.875,244.775 3499.855,244.775 C3500.45,244.775 3500.94,245.055 3501.325,245.545 C3501.64,246.035 3501.815,246.63 3501.815,247.295 L3501.815,247.295 Z M3521.065,260.21 C3521.065,259.965 3520.89,259.65 3520.575,259.3 C3519.805,258.46 3519.455,256.325 3519.455,252.895 C3519.455,251.67 3519.63,249.605 3520.015,246.7 C3520.015,246.315 3519.84,245.965 3519.56,245.615 C3519.245,245.3 3518.895,245.125 3518.51,245.125 C3517.915,245.125 3516.655,246.42 3514.765,249.01 C3513.225,251.04 3511.965,252.895 3510.915,254.505 C3511.16,251.775 3511.335,249.78 3511.44,248.59 C3511.44,248.03 3511.23,247.54 3510.88,247.12 C3510.53,246.735 3510.075,246.525 3509.515,246.525 C3509.2,246.525 3508.92,246.735 3508.64,247.12 C3508.71,248.135 3508.78,248.73 3508.78,248.87 C3508.78,249.5 3508.675,251.075 3508.5,253.63 L3508.43,254.645 C3508.395,255.17 3508.325,255.87 3508.255,256.745 C3508.15,257.585 3508.08,258.11 3508.08,258.32 C3508.115,258.81 3508.255,259.195 3508.535,259.405 C3509.095,259.965 3509.445,260.21 3509.585,260.21 C3510.075,260.21 3510.67,259.685 3511.3,258.565 C3512.595,256.395 3513.505,254.855 3514.065,254.015 C3514.975,252.51 3515.955,251.11 3517.04,249.85 C3517.04,250.2 3517.005,250.935 3517.005,252.02 C3516.97,253.14 3516.97,253.735 3516.97,253.875 C3516.97,255.695 3517.145,257.235 3517.53,258.565 C3518.055,260.49 3518.825,261.47 3519.805,261.47 C3520.015,261.47 3520.295,261.295 3520.61,261.015 C3520.89,260.665 3521.065,260.42 3521.065,260.21 L3521.065,260.21 Z M3538.705,245.44 C3538.705,245.09 3538.565,244.74 3538.32,244.425 C3538.075,244.145 3537.795,243.97 3537.48,243.97 C3536.955,243.97 3536.22,244.11 3535.24,244.32 C3531.39,245.23 3527.96,246.035 3525.02,246.735 C3524.81,246.805 3524.67,246.805 3524.6,246.805 C3523.9,246.945 3523.55,247.47 3523.55,248.345 C3523.55,249.325 3523.935,249.78 3524.775,249.78 C3525.79,249.57 3526.595,249.395 3527.155,249.22 C3528.17,249.01 3529.045,248.8 3529.78,248.66 C3529.64,251.355 3529.57,253.945 3529.57,256.395 C3529.57,258.775 3529.71,260.42 3529.99,261.33 C3530.2,261.96 3530.62,262.275 3531.32,262.275 C3532.23,262.275 3532.685,261.435 3532.685,259.79 C3532.685,258.985 3532.51,258.39 3532.23,258.005 C3532.16,257.13 3532.125,255.765 3532.125,253.875 C3532.125,252.405 3532.23,250.41 3532.51,247.925 C3533.525,247.68 3534.225,247.505 3534.645,247.435 C3534.96,247.645 3535.205,247.715 3535.38,247.715 C3535.59,247.715 3535.835,247.68 3536.15,247.54 L3537.76,246.805 C3538.39,246.525 3538.705,246.07 3538.705,245.44 L3538.705,245.44 Z M3553.545,251.88 C3553.545,251.565 3553.37,251.215 3553.09,250.865 C3553.09,250.06 3552.95,249.36 3552.74,248.73 C3552.775,248.59 3552.81,248.415 3552.81,248.24 C3552.81,247.82 3552.565,247.4 3552.145,247.05 C3551.69,246.7 3551.235,246.49 3550.78,246.49 C3548.855,246.49 3546.755,247.61 3544.445,249.78 C3542.03,252.02 3540.84,254.19 3540.84,256.22 C3540.84,257.305 3541.19,258.25 3541.96,259.09 C3542.695,259.965 3543.57,260.385 3544.585,260.385 C3546.16,260.385 3547.91,259.405 3549.87,257.445 C3550.045,260.105 3550.64,261.47 3551.655,261.47 C3552.005,261.47 3552.355,261.33 3552.67,261.12 C3552.95,260.84 3553.125,260.49 3553.125,260.14 C3553.125,260.035 3553.02,259.615 3552.88,258.775 C3552.705,257.97 3552.635,257.34 3552.635,256.92 C3552.635,255.52 3552.845,254.12 3553.335,252.65 C3553.475,252.265 3553.545,252.02 3553.545,251.88 L3553.545,251.88 Z M3550.36,250.865 C3550.36,252.055 3549.66,253.455 3548.33,255.065 C3547,256.675 3545.775,257.445 3544.725,257.445 C3543.99,257.445 3543.64,257.025 3543.64,256.15 C3543.64,255.03 3544.515,253.63 3546.3,251.915 C3547.91,250.375 3549.065,249.57 3549.73,249.57 C3550.15,249.57 3550.36,250.025 3550.36,250.865 L3550.36,250.865 Z" id="при-лечении-пиелонеф"></path>
        </g>
    </g>
</svg>