<?xml version="1.0" encoding="UTF-8"?>
<svg width="775px" height="36px" viewBox="0 0 775 36" version="1.1" xmlns="http://www.w3.org/2000/svg" xmlns:xlink="http://www.w3.org/1999/xlink">
    <!-- Generator: Sketch 40.3 (33839) - http://www.bohemiancoding.com/sketch -->
    <title>В эффективном лечени</title>
    <desc>Created with Sketch.</desc>
    <defs></defs>
    <g id="Page-1" stroke="none" stroke-width="1" fill="none" fill-rule="evenodd">
        <g id="piolonefrit" transform="translate(-2730.000000, -121.000000)" fill="#354777">
            <g id="Group-5" transform="translate(2707.000000, 130.000000)">
                <path d="M43.242,9.754 C43.242,7.854 42.026,6.486 39.594,5.65 C38.226,5.232 35.908,4.89 32.678,4.624 C35.262,3.218 37.124,2.04 38.264,1.052 C40.088,-0.468 41.038,-1.988 41.038,-3.508 C41.038,-5.18 40.278,-6.434 38.796,-7.27 C37.618,-7.878 36.136,-8.22 34.35,-8.22 C31.994,-8.22 28.916,-8.03 25.116,-7.726 C24.394,-7.65 23.938,-7.536 23.71,-7.384 C23.33,-7.156 23.14,-6.738 23.14,-6.054 C23.14,-4.99 23.71,-4.496 24.926,-4.496 C25.002,-4.496 25.534,-4.534 26.522,-4.648 C26.522,-4.572 26.484,-3.546 26.446,-1.494 C26.37,0.596 26.37,1.888 26.37,2.42 L26.37,9.146 C26.332,13.402 26.332,15.834 26.332,16.442 C25.42,16.594 24.774,16.746 24.394,16.936 C23.9,17.24 23.672,17.734 23.672,18.38 C23.672,18.798 23.786,19.178 24.09,19.482 C24.356,19.786 24.698,19.938 25.154,19.938 C26.142,19.824 29.22,18.988 34.35,17.468 C36.896,16.708 38.834,15.872 40.164,14.96 C42.216,13.592 43.242,11.844 43.242,9.754 L43.242,9.754 Z M37.77,-3.356 C37.77,-1.912 34.996,0.178 29.524,2.914 L29.524,-0.582 C29.524,-1.722 29.562,-3.128 29.638,-4.876 C29.904,-4.876 30.626,-4.914 31.842,-4.99 C32.754,-5.028 33.476,-5.066 34.084,-5.066 C36.516,-5.066 37.77,-4.496 37.77,-3.356 L37.77,-3.356 Z M40.05,10.248 C40.05,11.844 36.478,13.592 29.41,15.492 L29.41,7.474 C33.134,7.816 35.566,8.082 36.706,8.272 C38.91,8.728 40.05,9.412 40.05,10.248 L40.05,10.248 Z M72.844,8.348 C72.844,6.448 72.35,4.928 71.438,3.712 C70.374,2.42 68.892,1.774 67.03,1.774 C65.51,1.774 64.066,2.192 62.698,2.952 C61.596,3.598 61.064,4.358 61.064,5.194 C61.064,5.574 61.178,5.916 61.482,6.144 C61.748,6.448 62.052,6.562 62.432,6.562 C62.622,6.562 63.116,6.258 63.876,5.65 C64.978,4.776 65.966,4.32 66.802,4.32 C68.55,4.32 69.538,5.574 69.766,8.044 C65.738,9.07 63.458,9.602 62.926,9.64 C62.584,9.602 62.318,9.564 62.166,9.488 C61.558,9.868 61.292,10.362 61.292,10.97 C61.292,11.35 61.444,11.692 61.748,11.996 C62.09,12.3 62.47,12.452 62.85,12.452 C63.344,12.452 64.142,12.3 65.244,11.996 C66.536,11.616 68.018,11.236 69.652,10.894 C69.348,12.604 68.664,14.01 67.638,15.112 C66.612,16.252 65.396,16.784 63.99,16.784 C63.382,16.784 62.508,16.518 61.406,15.986 C60.266,15.986 59.734,16.556 59.734,17.696 C59.734,18.266 60.19,18.798 61.178,19.254 C61.938,19.596 62.66,19.786 63.344,19.786 C66.422,19.786 68.816,18.57 70.564,16.214 C72.084,14.124 72.844,11.502 72.844,8.348 L72.844,8.348 Z M102.94,7.512 C102.94,5.84 102.56,4.434 101.8,3.294 C100.964,2.116 99.9,1.508 98.608,1.508 C95.948,1.508 93.402,3.902 91.008,8.614 L91.426,5.042 C91.882,1.926 92.224,-0.354 92.528,-1.798 C92.528,-2.482 92.338,-3.128 91.996,-3.66 C91.654,-4.154 91.16,-4.42 90.552,-4.42 C89.716,-4.42 89.222,-3.47 89.032,-1.608 C88.538,2.496 88.272,4.814 88.234,5.384 C87.626,6.904 86.524,8.728 84.852,10.856 C83.028,13.136 81.66,14.238 80.824,14.238 C79.912,14.238 79.494,13.744 79.494,12.718 C79.494,11.274 79.988,9.678 81.052,7.968 C82.078,6.296 83.104,5.422 84.092,5.422 C84.548,5.422 85.004,5.612 85.536,5.992 C85.954,6.334 86.296,6.486 86.562,6.486 C87.17,6.486 87.512,6.258 87.512,5.726 C87.512,5.65 87.474,5.536 87.474,5.422 C87.208,5.042 87.018,4.776 86.866,4.548 C86.182,3.446 85.156,2.876 83.788,2.876 C81.926,2.876 80.216,4.092 78.62,6.486 C77.1,8.728 76.34,10.856 76.34,12.908 C76.34,14.276 76.644,15.34 77.29,16.176 C77.898,17.012 78.81,17.392 80.026,17.392 C82.648,17.392 85.346,15.378 88.082,11.274 C87.664,16.328 87.36,20.052 87.132,22.522 C87.094,22.75 87.056,23.054 87.018,23.51 C86.942,23.814 86.942,24.042 86.942,24.194 C86.942,25.296 87.246,26.056 87.854,26.436 C88.196,26.626 88.614,26.74 89.108,26.74 C89.564,26.74 89.906,26.474 90.21,25.98 C90.476,25.448 90.628,24.878 90.628,24.308 C90.628,24.232 90.59,23.928 90.552,23.472 C90.476,22.94 90.476,22.56 90.476,22.408 C90.476,22.218 90.438,21.876 90.438,21.42 C90.4,20.964 90.4,20.622 90.4,20.47 C90.4,20.318 90.4,19.672 90.438,18.57 C90.438,17.506 90.476,16.86 90.476,16.632 C90.476,14.96 91.502,12.528 93.554,9.26 C95.606,6.068 97.164,4.434 98.304,4.434 C99.444,4.434 100.014,5.536 100.014,7.702 C100.014,9.146 99.786,10.476 99.33,11.692 C98.684,13.326 97.81,14.124 96.67,14.124 C96.214,14.124 95.644,13.782 95.036,13.06 C94.428,12.376 93.972,11.996 93.668,11.92 C93.326,11.996 93.022,12.186 92.794,12.566 C92.528,12.946 92.414,13.288 92.414,13.63 C92.414,14.276 92.87,14.96 93.782,15.682 C94.694,16.442 95.682,16.822 96.746,16.822 C99.026,16.822 100.66,15.758 101.724,13.63 C102.522,12.034 102.94,10.02 102.94,7.512 L102.94,7.512 Z M133.454,7.512 C133.454,5.84 133.074,4.434 132.314,3.294 C131.478,2.116 130.414,1.508 129.122,1.508 C126.462,1.508 123.916,3.902 121.522,8.614 L121.94,5.042 C122.396,1.926 122.738,-0.354 123.042,-1.798 C123.042,-2.482 122.852,-3.128 122.51,-3.66 C122.168,-4.154 121.674,-4.42 121.066,-4.42 C120.23,-4.42 119.736,-3.47 119.546,-1.608 C119.052,2.496 118.786,4.814 118.748,5.384 C118.14,6.904 117.038,8.728 115.366,10.856 C113.542,13.136 112.174,14.238 111.338,14.238 C110.426,14.238 110.008,13.744 110.008,12.718 C110.008,11.274 110.502,9.678 111.566,7.968 C112.592,6.296 113.618,5.422 114.606,5.422 C115.062,5.422 115.518,5.612 116.05,5.992 C116.468,6.334 116.81,6.486 117.076,6.486 C117.684,6.486 118.026,6.258 118.026,5.726 C118.026,5.65 117.988,5.536 117.988,5.422 C117.722,5.042 117.532,4.776 117.38,4.548 C116.696,3.446 115.67,2.876 114.302,2.876 C112.44,2.876 110.73,4.092 109.134,6.486 C107.614,8.728 106.854,10.856 106.854,12.908 C106.854,14.276 107.158,15.34 107.804,16.176 C108.412,17.012 109.324,17.392 110.54,17.392 C113.162,17.392 115.86,15.378 118.596,11.274 C118.178,16.328 117.874,20.052 117.646,22.522 C117.608,22.75 117.57,23.054 117.532,23.51 C117.456,23.814 117.456,24.042 117.456,24.194 C117.456,25.296 117.76,26.056 118.368,26.436 C118.71,26.626 119.128,26.74 119.622,26.74 C120.078,26.74 120.42,26.474 120.724,25.98 C120.99,25.448 121.142,24.878 121.142,24.308 C121.142,24.232 121.104,23.928 121.066,23.472 C120.99,22.94 120.99,22.56 120.99,22.408 C120.99,22.218 120.952,21.876 120.952,21.42 C120.914,20.964 120.914,20.622 120.914,20.47 C120.914,20.318 120.914,19.672 120.952,18.57 C120.952,17.506 120.99,16.86 120.99,16.632 C120.99,14.96 122.016,12.528 124.068,9.26 C126.12,6.068 127.678,4.434 128.818,4.434 C129.958,4.434 130.528,5.536 130.528,7.702 C130.528,9.146 130.3,10.476 129.844,11.692 C129.198,13.326 128.324,14.124 127.184,14.124 C126.728,14.124 126.158,13.782 125.55,13.06 C124.942,12.376 124.486,11.996 124.182,11.92 C123.84,11.996 123.536,12.186 123.308,12.566 C123.042,12.946 122.928,13.288 122.928,13.63 C122.928,14.276 123.384,14.96 124.296,15.682 C125.208,16.442 126.196,16.822 127.26,16.822 C129.54,16.822 131.174,15.758 132.238,13.63 C133.036,12.034 133.454,10.02 133.454,7.512 L133.454,7.512 Z M152.454,17.316 C152.454,16.936 152.302,16.556 151.998,16.176 C151.694,15.872 151.314,15.682 150.934,15.682 C150.63,15.682 150.136,15.758 149.49,15.834 C148.844,15.91 148.35,15.948 148.046,15.948 C146.906,15.948 145.918,15.416 145.006,14.314 C148.806,12.262 150.706,9.83 150.706,7.018 C150.706,5.954 150.25,4.928 149.338,4.016 C148.426,3.104 147.514,2.648 146.564,2.648 C144.93,2.648 143.6,3.598 142.536,5.46 C141.624,7.056 141.168,8.766 141.168,10.59 C141.168,10.97 141.206,11.502 141.32,12.148 L140.446,12.148 C139.914,12.148 139.42,11.958 138.888,11.578 C138.356,11.198 137.976,11.008 137.748,11.008 C136.76,11.008 136.266,11.54 136.266,12.604 C136.266,13.44 136.874,14.124 138.166,14.656 C139.154,15.074 140.104,15.264 141.092,15.264 L142.232,15.264 C143.6,17.886 145.728,19.178 148.616,19.178 C151.162,19.178 152.454,18.532 152.454,17.316 L152.454,17.316 Z M147.704,7.17 C147.704,8.424 146.564,9.792 144.284,11.274 L144.284,10.59 C144.284,9.564 144.436,8.576 144.816,7.626 C145.196,6.486 145.728,5.916 146.412,5.916 C146.716,5.916 147.02,6.068 147.324,6.296 C147.552,6.6 147.704,6.866 147.704,7.17 L147.704,7.17 Z M168.262,5.574 C168.262,5.27 168.11,4.928 167.806,4.586 C167.502,4.282 167.16,4.13 166.856,4.13 C166.552,4.13 165.906,4.358 164.956,4.814 C163.36,5.574 161.346,7.018 158.99,9.07 C159.522,6.866 160.016,5.118 160.548,3.864 C160.852,3.066 161.004,2.572 161.004,2.42 C161.004,1.432 160.51,0.938 159.598,0.938 C158.99,0.938 158.534,1.28 158.23,1.964 C156.368,6.524 155.418,11.54 155.342,16.974 C155.266,17.164 155.266,17.354 155.266,17.544 C155.266,18 155.342,18.418 155.494,18.836 C155.722,19.52 156.254,19.9 157.014,19.9 C157.85,19.9 158.268,19.406 158.268,18.456 C158.268,18.38 158.23,18.152 158.23,17.772 C158.192,17.392 158.192,17.126 158.192,16.898 L158.192,15.492 C158.192,14.96 158.192,14.352 158.268,13.668 C158.534,13.516 158.686,13.44 158.724,13.402 C160.168,15.34 162.03,17.05 164.272,18.532 C164.956,19.026 165.488,19.292 165.868,19.292 C166.78,19.292 167.236,18.798 167.236,17.848 C167.236,17.468 166.894,16.936 166.286,16.328 C165.222,15.378 164.614,14.884 164.386,14.884 C164.31,14.884 164.196,14.922 164.12,14.922 C162.638,13.744 161.498,12.604 160.738,11.502 C162.562,9.792 164.082,8.576 165.336,7.892 C165.488,7.968 165.64,8.006 165.83,8.006 C166.324,8.006 166.856,7.74 167.388,7.208 C167.958,6.714 168.262,6.182 168.262,5.574 L168.262,5.574 Z M186.654,2.192 C186.654,1.812 186.502,1.432 186.236,1.09 C185.97,0.786 185.666,0.596 185.324,0.596 C184.754,0.596 183.956,0.748 182.892,0.976 C178.712,1.964 174.988,2.838 171.796,3.598 C171.568,3.674 171.416,3.674 171.34,3.674 C170.58,3.826 170.2,4.396 170.2,5.346 C170.2,6.41 170.618,6.904 171.53,6.904 C172.632,6.676 173.506,6.486 174.114,6.296 C175.216,6.068 176.166,5.84 176.964,5.688 C176.812,8.614 176.736,11.426 176.736,14.086 C176.736,16.67 176.888,18.456 177.192,19.444 C177.42,20.128 177.876,20.47 178.636,20.47 C179.624,20.47 180.118,19.558 180.118,17.772 C180.118,16.898 179.928,16.252 179.624,15.834 C179.548,14.884 179.51,13.402 179.51,11.35 C179.51,9.754 179.624,7.588 179.928,4.89 C181.03,4.624 181.79,4.434 182.246,4.358 C182.588,4.586 182.854,4.662 183.044,4.662 C183.272,4.662 183.538,4.624 183.88,4.472 L185.628,3.674 C186.312,3.37 186.654,2.876 186.654,2.192 L186.654,2.192 Z M203.07,18.228 C203.07,17.962 202.88,17.62 202.538,17.24 C201.702,16.328 201.322,14.01 201.322,10.286 C201.322,8.956 201.512,6.714 201.93,3.56 C201.93,3.142 201.74,2.762 201.436,2.382 C201.094,2.04 200.714,1.85 200.296,1.85 C199.65,1.85 198.282,3.256 196.23,6.068 C194.558,8.272 193.19,10.286 192.05,12.034 C192.316,9.07 192.506,6.904 192.62,5.612 C192.62,5.004 192.392,4.472 192.012,4.016 C191.632,3.598 191.138,3.37 190.53,3.37 C190.188,3.37 189.884,3.598 189.58,4.016 C189.656,5.118 189.732,5.764 189.732,5.916 C189.732,6.6 189.618,8.31 189.428,11.084 L189.352,12.186 C189.314,12.756 189.238,13.516 189.162,14.466 C189.048,15.378 188.972,15.948 188.972,16.176 C189.01,16.708 189.162,17.126 189.466,17.354 C190.074,17.962 190.454,18.228 190.606,18.228 C191.138,18.228 191.784,17.658 192.468,16.442 C193.874,14.086 194.862,12.414 195.47,11.502 C196.458,9.868 197.522,8.348 198.7,6.98 C198.7,7.36 198.662,8.158 198.662,9.336 C198.624,10.552 198.624,11.198 198.624,11.35 C198.624,13.326 198.814,14.998 199.232,16.442 C199.802,18.532 200.638,19.596 201.702,19.596 C201.93,19.596 202.234,19.406 202.576,19.102 C202.88,18.722 203.07,18.456 203.07,18.228 L203.07,18.228 Z M222.07,13.782 C222.07,11.616 219.752,10.438 215.192,10.248 C218.688,8.69 220.436,7.018 220.436,5.194 C220.436,4.016 219.828,3.104 218.65,2.458 C217.7,2.002 216.56,1.736 215.23,1.736 C213.368,1.736 211.164,1.85 208.618,2.078 C207.478,2.23 206.946,2.686 206.946,3.522 C206.946,4.434 207.44,4.852 208.504,4.852 C208.694,4.852 208.998,4.814 209.416,4.738 C209.34,13.136 209.302,17.468 209.302,17.696 C207.972,17.848 207.326,18.38 207.326,19.368 C207.326,20.052 207.782,20.432 208.77,20.546 C209.568,20.508 210.746,20.318 212.304,19.976 C215.192,19.292 217.32,18.608 218.612,18 C220.892,16.936 222.07,15.53 222.07,13.782 L222.07,13.782 Z M217.51,5.536 C217.51,6.638 215.724,7.816 212.152,9.07 L212.228,4.662 C213.634,4.548 214.66,4.472 215.268,4.472 C216.75,4.472 217.51,4.852 217.51,5.536 L217.51,5.536 Z M219.22,14.162 C219.22,14.732 218.574,15.302 217.282,15.834 C215.99,16.366 214.242,16.784 212.076,17.05 L212.076,12.262 C214.584,12.338 216.332,12.528 217.396,12.756 C218.612,13.06 219.22,13.516 219.22,14.162 L219.22,14.162 Z M238.6,3.94 C238.6,2.952 238.144,2.458 237.232,2.458 C236.472,2.458 235.978,3.142 235.788,4.434 C235.598,5.46 235.37,6.904 235.142,8.766 C233.47,9.184 231.836,9.488 230.24,9.64 C230.62,7.208 231,5.384 231.38,4.13 C231.608,3.446 231.798,2.914 231.988,2.458 C231.912,1.432 231.456,0.9 230.544,0.9 C229.898,0.9 229.48,1.204 229.252,1.812 C228.492,3.636 227.884,6.258 227.504,9.678 C226.896,9.678 226.478,9.64 226.25,9.602 C225.49,9.602 225.148,10.058 225.148,10.894 C225.148,11.844 225.68,12.3 226.782,12.3 L227.238,12.3 C227.124,13.744 227.01,15.378 226.934,17.278 C226.934,17.392 226.896,17.582 226.858,17.81 C226.782,18.038 226.782,18.19 226.782,18.342 C226.782,18.722 226.934,19.064 227.238,19.368 C227.542,19.672 227.884,19.824 228.264,19.824 C229.176,19.824 229.67,19.33 229.708,18.38 C229.708,17.088 229.822,15.036 230.012,12.224 C231.646,12.072 233.242,11.806 234.838,11.426 C234.648,13.44 234.534,15.036 234.534,16.176 C234.534,16.29 234.496,16.442 234.458,16.67 C234.382,16.86 234.344,17.012 234.344,17.126 C234.344,18.038 234.458,18.722 234.762,19.178 C235.066,19.672 235.408,19.938 235.864,19.938 C236.244,19.938 236.586,19.786 236.89,19.482 C237.156,19.178 237.308,18.798 237.308,18.38 C237.308,18.304 237.27,18.114 237.27,17.734 C237.232,17.354 237.232,17.05 237.232,16.898 C237.232,14.352 237.612,10.438 238.448,5.156 C238.524,4.472 238.6,4.092 238.6,3.94 L238.6,3.94 Z M254.522,9.64 C254.522,8.158 254.104,6.79 253.268,5.574 C252.394,4.396 251.292,3.56 249.962,3.104 C249.43,2.952 249.126,2.876 249.05,2.876 C248.746,2.876 248.404,3.066 247.948,3.37 C247.416,3.674 246.998,3.902 246.694,4.016 C245.402,4.662 244.338,5.802 243.578,7.398 C242.818,8.842 242.476,10.4 242.476,12.034 C242.476,13.972 242.97,15.568 244.034,16.822 C245.098,18.038 246.428,18.684 248.024,18.684 C249.848,18.684 251.406,17.848 252.66,16.1 C253.876,14.352 254.522,12.224 254.522,9.64 L254.522,9.64 Z M251.52,10.21 C251.52,11.502 251.14,12.68 250.456,13.782 C249.696,14.922 248.898,15.492 247.986,15.492 C247.226,15.492 246.618,15.15 246.162,14.428 C245.668,13.744 245.44,12.946 245.44,12.034 C245.44,10.818 245.706,9.678 246.314,8.614 C246.998,7.398 247.872,6.752 248.936,6.752 C249.316,6.98 249.81,7.094 250.418,7.094 C251.14,7.55 251.52,8.614 251.52,10.21 L251.52,10.21 Z M275.042,19.558 C275.042,19.216 274.928,18.836 274.7,18.38 C274.472,17.924 274.206,17.62 273.94,17.392 C273.332,16.1 272.8,13.744 272.344,10.362 C272.04,8.614 271.812,6.676 271.584,4.624 C271.47,3.826 271.014,3.408 270.216,3.408 C269.494,3.408 268.544,4.966 267.366,8.082 C266.948,9.146 266.606,10.058 266.302,10.894 C265.276,9.374 264.364,7.094 263.528,3.978 C263.224,2.838 262.768,2.268 262.198,2.268 C261.476,2.268 260.83,3.142 260.26,4.852 C260.146,4.852 259.994,4.814 259.804,4.814 C259.538,4.814 259.31,4.928 259.158,5.118 C258.93,5.346 258.816,5.612 258.816,5.878 C258.816,5.954 258.816,6.182 258.854,6.562 C258.854,6.98 258.892,7.208 258.892,7.284 C258.892,7.968 258.816,8.918 258.664,10.21 C258.512,11.502 258.436,12.946 258.436,14.504 C258.436,17.05 258.93,18.304 259.956,18.304 C260.716,18.304 261.096,17.468 261.172,15.758 C261.286,12.414 261.59,9.64 262.046,7.436 C264.06,12.3 265.656,14.732 266.796,14.732 C267.176,14.732 267.442,14.58 267.67,14.2 C267.86,13.896 268.088,13.212 268.392,12.224 C268.886,10.552 269.304,9.222 269.646,8.31 C270.026,12.528 270.558,15.644 271.28,17.658 C272.078,19.976 272.914,21.154 273.75,21.154 C274.054,21.154 274.358,20.964 274.624,20.622 C274.89,20.242 275.042,19.9 275.042,19.558 L275.042,19.558 Z M306.088,4.548 C306.088,3.978 305.898,3.484 305.518,3.028 C305.176,2.61 304.758,2.382 304.226,2.382 C303.998,2.382 303.542,2.61 302.858,2.99 C302.174,3.408 300.502,3.75 297.804,4.054 C297.196,3.56 296.702,3.294 296.36,3.294 C295.942,3.294 295.486,3.522 295.03,3.978 C294.574,4.434 294.346,4.928 294.346,5.384 C294.346,5.688 294.498,6.068 294.802,6.486 C295.068,6.942 295.22,7.436 295.22,8.006 C295.22,10.362 295.03,12.3 294.65,13.896 C294.156,15.758 293.51,16.67 292.75,16.67 C292.446,16.67 292.218,16.214 292.142,15.226 C292.066,14.846 291.914,14.618 291.61,14.618 C291.078,14.618 290.698,14.884 290.432,15.34 C290.09,15.872 289.938,16.48 289.938,17.126 C289.938,17.848 290.204,18.38 290.774,18.798 C291.306,19.178 291.914,19.406 292.598,19.406 C294.574,19.406 295.98,18.114 296.816,15.606 C297.348,14.01 297.804,11.122 298.184,6.942 C299.134,6.714 300.578,6.41 302.554,6.068 C302.174,9.792 301.984,12.604 301.984,14.504 C301.984,17.012 302.136,18.57 302.478,19.216 C302.82,19.862 303.314,20.204 303.922,20.204 C304.91,20.204 305.404,19.596 305.404,18.456 C305.252,17.772 305.176,17.164 305.1,16.632 C304.91,15.34 304.834,14.238 304.834,13.288 C304.834,11.236 305.138,8.842 305.784,6.106 C305.974,5.194 306.088,4.7 306.088,4.548 L306.088,4.548 Z M325.05,17.316 C325.05,16.936 324.898,16.556 324.594,16.176 C324.29,15.872 323.91,15.682 323.53,15.682 C323.226,15.682 322.732,15.758 322.086,15.834 C321.44,15.91 320.946,15.948 320.642,15.948 C319.502,15.948 318.514,15.416 317.602,14.314 C321.402,12.262 323.302,9.83 323.302,7.018 C323.302,5.954 322.846,4.928 321.934,4.016 C321.022,3.104 320.11,2.648 319.16,2.648 C317.526,2.648 316.196,3.598 315.132,5.46 C314.22,7.056 313.764,8.766 313.764,10.59 C313.764,10.97 313.802,11.502 313.916,12.148 L313.042,12.148 C312.51,12.148 312.016,11.958 311.484,11.578 C310.952,11.198 310.572,11.008 310.344,11.008 C309.356,11.008 308.862,11.54 308.862,12.604 C308.862,13.44 309.47,14.124 310.762,14.656 C311.75,15.074 312.7,15.264 313.688,15.264 L314.828,15.264 C316.196,17.886 318.324,19.178 321.212,19.178 C323.758,19.178 325.05,18.532 325.05,17.316 L325.05,17.316 Z M320.3,7.17 C320.3,8.424 319.16,9.792 316.88,11.274 L316.88,10.59 C316.88,9.564 317.032,8.576 317.412,7.626 C317.792,6.486 318.324,5.916 319.008,5.916 C319.312,5.916 319.616,6.068 319.92,6.296 C320.148,6.6 320.3,6.866 320.3,7.17 L320.3,7.17 Z M340.63,3.56 C340.592,3.142 340.44,2.724 340.136,2.344 C339.832,1.964 339.49,1.774 339.11,1.774 C338.084,1.774 337.552,2.344 337.514,3.446 C337.514,3.598 337.514,4.092 337.552,4.89 C337.552,5.764 337.59,6.258 337.59,6.41 C337.59,7.892 337.096,9.26 336.146,10.552 C335.158,11.844 334.056,12.452 332.878,12.452 C331.396,12.452 330.674,11.388 330.674,9.184 C330.674,8.348 330.826,6.448 331.206,3.484 C331.092,2.42 330.636,1.85 329.876,1.85 C328.812,1.85 328.204,2.876 327.976,4.89 C327.9,5.46 327.862,6.866 327.862,9.146 C327.862,13.174 329.458,15.188 332.688,15.188 C333.6,15.188 334.55,14.96 335.462,14.428 C336.374,13.934 337.096,13.25 337.552,12.414 C337.476,13.934 337.4,15.188 337.324,16.138 C337.172,17.696 337.134,18.798 337.134,19.558 C337.134,20.584 337.552,21.116 338.464,21.116 C339.452,21.116 339.984,20.584 340.022,19.52 C340.06,17.05 340.174,13.402 340.402,8.614 C340.478,6.106 340.554,4.434 340.63,3.56 L340.63,3.56 Z M359.592,17.316 C359.592,16.936 359.44,16.556 359.136,16.176 C358.832,15.872 358.452,15.682 358.072,15.682 C357.768,15.682 357.274,15.758 356.628,15.834 C355.982,15.91 355.488,15.948 355.184,15.948 C354.044,15.948 353.056,15.416 352.144,14.314 C355.944,12.262 357.844,9.83 357.844,7.018 C357.844,5.954 357.388,4.928 356.476,4.016 C355.564,3.104 354.652,2.648 353.702,2.648 C352.068,2.648 350.738,3.598 349.674,5.46 C348.762,7.056 348.306,8.766 348.306,10.59 C348.306,10.97 348.344,11.502 348.458,12.148 L347.584,12.148 C347.052,12.148 346.558,11.958 346.026,11.578 C345.494,11.198 345.114,11.008 344.886,11.008 C343.898,11.008 343.404,11.54 343.404,12.604 C343.404,13.44 344.012,14.124 345.304,14.656 C346.292,15.074 347.242,15.264 348.23,15.264 L349.37,15.264 C350.738,17.886 352.866,19.178 355.754,19.178 C358.3,19.178 359.592,18.532 359.592,17.316 L359.592,17.316 Z M354.842,7.17 C354.842,8.424 353.702,9.792 351.422,11.274 L351.422,10.59 C351.422,9.564 351.574,8.576 351.954,7.626 C352.334,6.486 352.866,5.916 353.55,5.916 C353.854,5.916 354.158,6.068 354.462,6.296 C354.69,6.6 354.842,6.866 354.842,7.17 L354.842,7.17 Z M375.058,3.94 C375.058,2.952 374.602,2.458 373.69,2.458 C372.93,2.458 372.436,3.142 372.246,4.434 C372.056,5.46 371.828,6.904 371.6,8.766 C369.928,9.184 368.294,9.488 366.698,9.64 C367.078,7.208 367.458,5.384 367.838,4.13 C368.066,3.446 368.256,2.914 368.446,2.458 C368.37,1.432 367.914,0.9 367.002,0.9 C366.356,0.9 365.938,1.204 365.71,1.812 C364.95,3.636 364.342,6.258 363.962,9.678 C363.354,9.678 362.936,9.64 362.708,9.602 C361.948,9.602 361.606,10.058 361.606,10.894 C361.606,11.844 362.138,12.3 363.24,12.3 L363.696,12.3 C363.582,13.744 363.468,15.378 363.392,17.278 C363.392,17.392 363.354,17.582 363.316,17.81 C363.24,18.038 363.24,18.19 363.24,18.342 C363.24,18.722 363.392,19.064 363.696,19.368 C364,19.672 364.342,19.824 364.722,19.824 C365.634,19.824 366.128,19.33 366.166,18.38 C366.166,17.088 366.28,15.036 366.47,12.224 C368.104,12.072 369.7,11.806 371.296,11.426 C371.106,13.44 370.992,15.036 370.992,16.176 C370.992,16.29 370.954,16.442 370.916,16.67 C370.84,16.86 370.802,17.012 370.802,17.126 C370.802,18.038 370.916,18.722 371.22,19.178 C371.524,19.672 371.866,19.938 372.322,19.938 C372.702,19.938 373.044,19.786 373.348,19.482 C373.614,19.178 373.766,18.798 373.766,18.38 C373.766,18.304 373.728,18.114 373.728,17.734 C373.69,17.354 373.69,17.05 373.69,16.898 C373.69,14.352 374.07,10.438 374.906,5.156 C374.982,4.472 375.058,4.092 375.058,3.94 L375.058,3.94 Z M393.032,18.228 C393.032,17.962 392.842,17.62 392.5,17.24 C391.664,16.328 391.284,14.01 391.284,10.286 C391.284,8.956 391.474,6.714 391.892,3.56 C391.892,3.142 391.702,2.762 391.398,2.382 C391.056,2.04 390.676,1.85 390.258,1.85 C389.612,1.85 388.244,3.256 386.192,6.068 C384.52,8.272 383.152,10.286 382.012,12.034 C382.278,9.07 382.468,6.904 382.582,5.612 C382.582,5.004 382.354,4.472 381.974,4.016 C381.594,3.598 381.1,3.37 380.492,3.37 C380.15,3.37 379.846,3.598 379.542,4.016 C379.618,5.118 379.694,5.764 379.694,5.916 C379.694,6.6 379.58,8.31 379.39,11.084 L379.314,12.186 C379.276,12.756 379.2,13.516 379.124,14.466 C379.01,15.378 378.934,15.948 378.934,16.176 C378.972,16.708 379.124,17.126 379.428,17.354 C380.036,17.962 380.416,18.228 380.568,18.228 C381.1,18.228 381.746,17.658 382.43,16.442 C383.836,14.086 384.824,12.414 385.432,11.502 C386.42,9.868 387.484,8.348 388.662,6.98 C388.662,7.36 388.624,8.158 388.624,9.336 C388.586,10.552 388.586,11.198 388.586,11.35 C388.586,13.326 388.776,14.998 389.194,16.442 C389.764,18.532 390.6,19.596 391.664,19.596 C391.892,19.596 392.196,19.406 392.538,19.102 C392.842,18.722 393.032,18.456 393.032,18.228 L393.032,18.228 Z M411.006,18.228 C411.006,17.962 410.816,17.62 410.474,17.24 C409.638,16.328 409.258,14.01 409.258,10.286 C409.258,8.956 409.448,6.714 409.866,3.56 C409.866,3.142 409.676,2.762 409.372,2.382 C409.03,2.04 408.65,1.85 408.232,1.85 C407.586,1.85 406.218,3.256 404.166,6.068 C402.494,8.272 401.126,10.286 399.986,12.034 C400.252,9.07 400.442,6.904 400.556,5.612 C400.556,5.004 400.328,4.472 399.948,4.016 C399.568,3.598 399.074,3.37 398.466,3.37 C398.124,3.37 397.82,3.598 397.516,4.016 C397.592,5.118 397.668,5.764 397.668,5.916 C397.668,6.6 397.554,8.31 397.364,11.084 L397.288,12.186 C397.25,12.756 397.174,13.516 397.098,14.466 C396.984,15.378 396.908,15.948 396.908,16.176 C396.946,16.708 397.098,17.126 397.402,17.354 C398.01,17.962 398.39,18.228 398.542,18.228 C399.074,18.228 399.72,17.658 400.404,16.442 C401.81,14.086 402.798,12.414 403.406,11.502 C404.394,9.868 405.458,8.348 406.636,6.98 C406.636,7.36 406.598,8.158 406.598,9.336 C406.56,10.552 406.56,11.198 406.56,11.35 C406.56,13.326 406.75,14.998 407.168,16.442 C407.738,18.532 408.574,19.596 409.638,19.596 C409.866,19.596 410.17,19.406 410.512,19.102 C410.816,18.722 411.006,18.456 411.006,18.228 L411.006,18.228 Z M441.292,3.788 C441.292,3.37 441.102,2.99 440.722,2.686 C440.304,2.42 439.886,2.268 439.468,2.192 C435.592,2.496 432.514,2.762 430.31,2.914 C428.98,3.028 428.334,3.484 428.334,4.32 C428.334,4.852 428.41,5.308 428.638,5.726 C428.372,9.64 428.258,11.616 428.258,11.692 C427.992,14.428 427.878,15.796 427.878,15.796 C427.878,16.29 428.03,16.784 428.372,17.278 C428.714,17.772 429.094,18 429.55,18 C430.31,18 430.69,17.506 430.766,16.48 C430.994,12.376 431.222,8.842 431.526,5.878 C433.464,5.612 435.478,5.422 437.568,5.346 C437.568,5.46 437.492,7.322 437.378,10.894 C437.226,14.086 437.188,15.796 437.188,16.024 C437.188,18.494 437.834,19.748 439.202,19.748 C439.924,19.748 440.304,19.33 440.304,18.57 C440.076,17.43 440,16.366 440,15.454 C440,14.238 440.076,12.3 440.228,9.64 C440.266,9.222 440.342,8.614 440.456,7.778 C440.532,7.094 440.57,6.714 440.57,6.562 C440.57,6.334 440.494,5.992 440.418,5.536 C440.988,4.928 441.292,4.358 441.292,3.788 L441.292,3.788 Z M459.304,18.228 C459.304,17.962 459.114,17.62 458.772,17.24 C457.936,16.328 457.556,14.01 457.556,10.286 C457.556,8.956 457.746,6.714 458.164,3.56 C458.164,3.142 457.974,2.762 457.67,2.382 C457.328,2.04 456.948,1.85 456.53,1.85 C455.884,1.85 454.516,3.256 452.464,6.068 C450.792,8.272 449.424,10.286 448.284,12.034 C448.55,9.07 448.74,6.904 448.854,5.612 C448.854,5.004 448.626,4.472 448.246,4.016 C447.866,3.598 447.372,3.37 446.764,3.37 C446.422,3.37 446.118,3.598 445.814,4.016 C445.89,5.118 445.966,5.764 445.966,5.916 C445.966,6.6 445.852,8.31 445.662,11.084 L445.586,12.186 C445.548,12.756 445.472,13.516 445.396,14.466 C445.282,15.378 445.206,15.948 445.206,16.176 C445.244,16.708 445.396,17.126 445.7,17.354 C446.308,17.962 446.688,18.228 446.84,18.228 C447.372,18.228 448.018,17.658 448.702,16.442 C450.108,14.086 451.096,12.414 451.704,11.502 C452.692,9.868 453.756,8.348 454.934,6.98 C454.934,7.36 454.896,8.158 454.896,9.336 C454.858,10.552 454.858,11.198 454.858,11.35 C454.858,13.326 455.048,14.998 455.466,16.442 C456.036,18.532 456.872,19.596 457.936,19.596 C458.164,19.596 458.468,19.406 458.81,19.102 C459.114,18.722 459.304,18.456 459.304,18.228 L459.304,18.228 Z M478.266,17.316 C478.266,16.936 478.114,16.556 477.81,16.176 C477.506,15.872 477.126,15.682 476.746,15.682 C476.442,15.682 475.948,15.758 475.302,15.834 C474.656,15.91 474.162,15.948 473.858,15.948 C472.718,15.948 471.73,15.416 470.818,14.314 C474.618,12.262 476.518,9.83 476.518,7.018 C476.518,5.954 476.062,4.928 475.15,4.016 C474.238,3.104 473.326,2.648 472.376,2.648 C470.742,2.648 469.412,3.598 468.348,5.46 C467.436,7.056 466.98,8.766 466.98,10.59 C466.98,10.97 467.018,11.502 467.132,12.148 L466.258,12.148 C465.726,12.148 465.232,11.958 464.7,11.578 C464.168,11.198 463.788,11.008 463.56,11.008 C462.572,11.008 462.078,11.54 462.078,12.604 C462.078,13.44 462.686,14.124 463.978,14.656 C464.966,15.074 465.916,15.264 466.904,15.264 L468.044,15.264 C469.412,17.886 471.54,19.178 474.428,19.178 C476.974,19.178 478.266,18.532 478.266,17.316 L478.266,17.316 Z M473.516,7.17 C473.516,8.424 472.376,9.792 470.096,11.274 L470.096,10.59 C470.096,9.564 470.248,8.576 470.628,7.626 C471.008,6.486 471.54,5.916 472.224,5.916 C472.528,5.916 472.832,6.068 473.136,6.296 C473.364,6.6 473.516,6.866 473.516,7.17 L473.516,7.17 Z M496.43,4.548 C496.43,3.978 496.24,3.484 495.86,3.028 C495.518,2.61 495.1,2.382 494.568,2.382 C494.34,2.382 493.884,2.61 493.2,2.99 C492.516,3.408 490.844,3.75 488.146,4.054 C487.538,3.56 487.044,3.294 486.702,3.294 C486.284,3.294 485.828,3.522 485.372,3.978 C484.916,4.434 484.688,4.928 484.688,5.384 C484.688,5.688 484.84,6.068 485.144,6.486 C485.41,6.942 485.562,7.436 485.562,8.006 C485.562,10.362 485.372,12.3 484.992,13.896 C484.498,15.758 483.852,16.67 483.092,16.67 C482.788,16.67 482.56,16.214 482.484,15.226 C482.408,14.846 482.256,14.618 481.952,14.618 C481.42,14.618 481.04,14.884 480.774,15.34 C480.432,15.872 480.28,16.48 480.28,17.126 C480.28,17.848 480.546,18.38 481.116,18.798 C481.648,19.178 482.256,19.406 482.94,19.406 C484.916,19.406 486.322,18.114 487.158,15.606 C487.69,14.01 488.146,11.122 488.526,6.942 C489.476,6.714 490.92,6.41 492.896,6.068 C492.516,9.792 492.326,12.604 492.326,14.504 C492.326,17.012 492.478,18.57 492.82,19.216 C493.162,19.862 493.656,20.204 494.264,20.204 C495.252,20.204 495.746,19.596 495.746,18.456 C495.594,17.772 495.518,17.164 495.442,16.632 C495.252,15.34 495.176,14.238 495.176,13.288 C495.176,11.236 495.48,8.842 496.126,6.106 C496.316,5.194 496.43,4.7 496.43,4.548 L496.43,4.548 Z M512.352,9.64 C512.352,8.158 511.934,6.79 511.098,5.574 C510.224,4.396 509.122,3.56 507.792,3.104 C507.26,2.952 506.956,2.876 506.88,2.876 C506.576,2.876 506.234,3.066 505.778,3.37 C505.246,3.674 504.828,3.902 504.524,4.016 C503.232,4.662 502.168,5.802 501.408,7.398 C500.648,8.842 500.306,10.4 500.306,12.034 C500.306,13.972 500.8,15.568 501.864,16.822 C502.928,18.038 504.258,18.684 505.854,18.684 C507.678,18.684 509.236,17.848 510.49,16.1 C511.706,14.352 512.352,12.224 512.352,9.64 L512.352,9.64 Z M509.35,10.21 C509.35,11.502 508.97,12.68 508.286,13.782 C507.526,14.922 506.728,15.492 505.816,15.492 C505.056,15.492 504.448,15.15 503.992,14.428 C503.498,13.744 503.27,12.946 503.27,12.034 C503.27,10.818 503.536,9.678 504.144,8.614 C504.828,7.398 505.702,6.752 506.766,6.752 C507.146,6.98 507.64,7.094 508.248,7.094 C508.97,7.55 509.35,8.614 509.35,10.21 L509.35,10.21 Z M528.92,3.94 C528.92,2.952 528.464,2.458 527.552,2.458 C526.792,2.458 526.298,3.142 526.108,4.434 C525.918,5.46 525.69,6.904 525.462,8.766 C523.79,9.184 522.156,9.488 520.56,9.64 C520.94,7.208 521.32,5.384 521.7,4.13 C521.928,3.446 522.118,2.914 522.308,2.458 C522.232,1.432 521.776,0.9 520.864,0.9 C520.218,0.9 519.8,1.204 519.572,1.812 C518.812,3.636 518.204,6.258 517.824,9.678 C517.216,9.678 516.798,9.64 516.57,9.602 C515.81,9.602 515.468,10.058 515.468,10.894 C515.468,11.844 516,12.3 517.102,12.3 L517.558,12.3 C517.444,13.744 517.33,15.378 517.254,17.278 C517.254,17.392 517.216,17.582 517.178,17.81 C517.102,18.038 517.102,18.19 517.102,18.342 C517.102,18.722 517.254,19.064 517.558,19.368 C517.862,19.672 518.204,19.824 518.584,19.824 C519.496,19.824 519.99,19.33 520.028,18.38 C520.028,17.088 520.142,15.036 520.332,12.224 C521.966,12.072 523.562,11.806 525.158,11.426 C524.968,13.44 524.854,15.036 524.854,16.176 C524.854,16.29 524.816,16.442 524.778,16.67 C524.702,16.86 524.664,17.012 524.664,17.126 C524.664,18.038 524.778,18.722 525.082,19.178 C525.386,19.672 525.728,19.938 526.184,19.938 C526.564,19.938 526.906,19.786 527.21,19.482 C527.476,19.178 527.628,18.798 527.628,18.38 C527.628,18.304 527.59,18.114 527.59,17.734 C527.552,17.354 527.552,17.05 527.552,16.898 C527.552,14.352 527.932,10.438 528.768,5.156 C528.844,4.472 528.92,4.092 528.92,3.94 L528.92,3.94 Z M547.882,17.316 C547.882,16.936 547.73,16.556 547.426,16.176 C547.122,15.872 546.742,15.682 546.362,15.682 C546.058,15.682 545.564,15.758 544.918,15.834 C544.272,15.91 543.778,15.948 543.474,15.948 C542.334,15.948 541.346,15.416 540.434,14.314 C544.234,12.262 546.134,9.83 546.134,7.018 C546.134,5.954 545.678,4.928 544.766,4.016 C543.854,3.104 542.942,2.648 541.992,2.648 C540.358,2.648 539.028,3.598 537.964,5.46 C537.052,7.056 536.596,8.766 536.596,10.59 C536.596,10.97 536.634,11.502 536.748,12.148 L535.874,12.148 C535.342,12.148 534.848,11.958 534.316,11.578 C533.784,11.198 533.404,11.008 533.176,11.008 C532.188,11.008 531.694,11.54 531.694,12.604 C531.694,13.44 532.302,14.124 533.594,14.656 C534.582,15.074 535.532,15.264 536.52,15.264 L537.66,15.264 C539.028,17.886 541.156,19.178 544.044,19.178 C546.59,19.178 547.882,18.532 547.882,17.316 L547.882,17.316 Z M543.132,7.17 C543.132,8.424 541.992,9.792 539.712,11.274 L539.712,10.59 C539.712,9.564 539.864,8.576 540.244,7.626 C540.624,6.486 541.156,5.916 541.84,5.916 C542.144,5.916 542.448,6.068 542.752,6.296 C542.98,6.6 543.132,6.866 543.132,7.17 L543.132,7.17 Z M577.294,7.512 C577.294,5.84 576.914,4.434 576.154,3.294 C575.318,2.116 574.254,1.508 572.962,1.508 C570.302,1.508 567.756,3.902 565.362,8.614 L565.78,5.042 C566.236,1.926 566.578,-0.354 566.882,-1.798 C566.882,-2.482 566.692,-3.128 566.35,-3.66 C566.008,-4.154 565.514,-4.42 564.906,-4.42 C564.07,-4.42 563.576,-3.47 563.386,-1.608 C562.892,2.496 562.626,4.814 562.588,5.384 C561.98,6.904 560.878,8.728 559.206,10.856 C557.382,13.136 556.014,14.238 555.178,14.238 C554.266,14.238 553.848,13.744 553.848,12.718 C553.848,11.274 554.342,9.678 555.406,7.968 C556.432,6.296 557.458,5.422 558.446,5.422 C558.902,5.422 559.358,5.612 559.89,5.992 C560.308,6.334 560.65,6.486 560.916,6.486 C561.524,6.486 561.866,6.258 561.866,5.726 C561.866,5.65 561.828,5.536 561.828,5.422 C561.562,5.042 561.372,4.776 561.22,4.548 C560.536,3.446 559.51,2.876 558.142,2.876 C556.28,2.876 554.57,4.092 552.974,6.486 C551.454,8.728 550.694,10.856 550.694,12.908 C550.694,14.276 550.998,15.34 551.644,16.176 C552.252,17.012 553.164,17.392 554.38,17.392 C557.002,17.392 559.7,15.378 562.436,11.274 C562.018,16.328 561.714,20.052 561.486,22.522 C561.448,22.75 561.41,23.054 561.372,23.51 C561.296,23.814 561.296,24.042 561.296,24.194 C561.296,25.296 561.6,26.056 562.208,26.436 C562.55,26.626 562.968,26.74 563.462,26.74 C563.918,26.74 564.26,26.474 564.564,25.98 C564.83,25.448 564.982,24.878 564.982,24.308 C564.982,24.232 564.944,23.928 564.906,23.472 C564.83,22.94 564.83,22.56 564.83,22.408 C564.83,22.218 564.792,21.876 564.792,21.42 C564.754,20.964 564.754,20.622 564.754,20.47 C564.754,20.318 564.754,19.672 564.792,18.57 C564.792,17.506 564.83,16.86 564.83,16.632 C564.83,14.96 565.856,12.528 567.908,9.26 C569.96,6.068 571.518,4.434 572.658,4.434 C573.798,4.434 574.368,5.536 574.368,7.702 C574.368,9.146 574.14,10.476 573.684,11.692 C573.038,13.326 572.164,14.124 571.024,14.124 C570.568,14.124 569.998,13.782 569.39,13.06 C568.782,12.376 568.326,11.996 568.022,11.92 C567.68,11.996 567.376,12.186 567.148,12.566 C566.882,12.946 566.768,13.288 566.768,13.63 C566.768,14.276 567.224,14.96 568.136,15.682 C569.048,16.442 570.036,16.822 571.1,16.822 C573.38,16.822 575.014,15.758 576.078,13.63 C576.876,12.034 577.294,10.02 577.294,7.512 L577.294,7.512 Z M594.964,4.852 C594.964,3.028 594.546,1.508 593.71,0.292 C592.798,-1.038 591.468,-1.722 589.796,-1.722 C587.402,-1.722 585.54,-0.05 584.21,3.294 C583.298,5.612 582.842,8.272 582.842,11.236 C582.842,11.616 582.842,11.92 582.88,12.11 C581.816,12.49 581.322,13.06 581.322,13.858 C581.322,14.846 581.816,15.378 582.88,15.454 C582.956,16.062 582.994,16.974 582.994,18.19 C582.994,20.622 582.842,22.332 582.614,23.396 C582.348,24.422 582.234,24.992 582.234,25.106 C582.234,25.524 582.386,25.904 582.69,26.246 C582.994,26.55 583.374,26.74 583.792,26.74 C584.59,26.74 585.16,25.942 585.502,24.384 C585.882,22.636 586.072,20.85 586.072,19.102 C586.072,17.506 585.996,15.948 585.882,14.428 C591.924,12.224 594.964,9.032 594.964,4.852 L594.964,4.852 Z M591.924,4.206 C591.924,7.322 589.91,9.602 585.92,11.046 C585.92,8.994 586.262,6.904 586.984,4.852 C587.782,2.61 588.732,1.47 589.796,1.47 C590.442,1.47 590.974,1.774 591.392,2.306 C591.734,2.838 591.924,3.484 591.924,4.206 L591.924,4.206 Z M612.824,18.228 C612.824,17.962 612.634,17.62 612.292,17.24 C611.456,16.328 611.076,14.01 611.076,10.286 C611.076,8.956 611.266,6.714 611.684,3.56 C611.684,3.142 611.494,2.762 611.19,2.382 C610.848,2.04 610.468,1.85 610.05,1.85 C609.404,1.85 608.036,3.256 605.984,6.068 C604.312,8.272 602.944,10.286 601.804,12.034 C602.07,9.07 602.26,6.904 602.374,5.612 C602.374,5.004 602.146,4.472 601.766,4.016 C601.386,3.598 600.892,3.37 600.284,3.37 C599.942,3.37 599.638,3.598 599.334,4.016 C599.41,5.118 599.486,5.764 599.486,5.916 C599.486,6.6 599.372,8.31 599.182,11.084 L599.106,12.186 C599.068,12.756 598.992,13.516 598.916,14.466 C598.802,15.378 598.726,15.948 598.726,16.176 C598.764,16.708 598.916,17.126 599.22,17.354 C599.828,17.962 600.208,18.228 600.36,18.228 C600.892,18.228 601.538,17.658 602.222,16.442 C603.628,14.086 604.616,12.414 605.224,11.502 C606.212,9.868 607.276,8.348 608.454,6.98 C608.454,7.36 608.416,8.158 608.416,9.336 C608.378,10.552 608.378,11.198 608.378,11.35 C608.378,13.326 608.568,14.998 608.986,16.442 C609.556,18.532 610.392,19.596 611.456,19.596 C611.684,19.596 611.988,19.406 612.33,19.102 C612.634,18.722 612.824,18.456 612.824,18.228 L612.824,18.228 Z M631.976,2.192 C631.976,1.812 631.824,1.432 631.558,1.09 C631.292,0.786 630.988,0.596 630.646,0.596 C630.076,0.596 629.278,0.748 628.214,0.976 C624.034,1.964 620.31,2.838 617.118,3.598 C616.89,3.674 616.738,3.674 616.662,3.674 C615.902,3.826 615.522,4.396 615.522,5.346 C615.522,6.41 615.94,6.904 616.852,6.904 C617.954,6.676 618.828,6.486 619.436,6.296 C620.538,6.068 621.488,5.84 622.286,5.688 C622.134,8.614 622.058,11.426 622.058,14.086 C622.058,16.67 622.21,18.456 622.514,19.444 C622.742,20.128 623.198,20.47 623.958,20.47 C624.946,20.47 625.44,19.558 625.44,17.772 C625.44,16.898 625.25,16.252 624.946,15.834 C624.87,14.884 624.832,13.402 624.832,11.35 C624.832,9.754 624.946,7.588 625.25,4.89 C626.352,4.624 627.112,4.434 627.568,4.358 C627.91,4.586 628.176,4.662 628.366,4.662 C628.594,4.662 628.86,4.624 629.202,4.472 L630.95,3.674 C631.634,3.37 631.976,2.876 631.976,2.192 L631.976,2.192 Z M648.088,9.184 C648.088,8.842 647.898,8.462 647.594,8.082 C647.594,7.208 647.442,6.448 647.214,5.764 C647.252,5.612 647.29,5.422 647.29,5.232 C647.29,4.776 647.024,4.32 646.568,3.94 C646.074,3.56 645.58,3.332 645.086,3.332 C642.996,3.332 640.716,4.548 638.208,6.904 C635.586,9.336 634.294,11.692 634.294,13.896 C634.294,15.074 634.674,16.1 635.51,17.012 C636.308,17.962 637.258,18.418 638.36,18.418 C640.07,18.418 641.97,17.354 644.098,15.226 C644.288,18.114 644.934,19.596 646.036,19.596 C646.416,19.596 646.796,19.444 647.138,19.216 C647.442,18.912 647.632,18.532 647.632,18.152 C647.632,18.038 647.518,17.582 647.366,16.67 C647.176,15.796 647.1,15.112 647.1,14.656 C647.1,13.136 647.328,11.616 647.86,10.02 C648.012,9.602 648.088,9.336 648.088,9.184 L648.088,9.184 Z M644.63,8.082 C644.63,9.374 643.87,10.894 642.426,12.642 C640.982,14.39 639.652,15.226 638.512,15.226 C637.714,15.226 637.334,14.77 637.334,13.82 C637.334,12.604 638.284,11.084 640.222,9.222 C641.97,7.55 643.224,6.676 643.946,6.676 C644.402,6.676 644.63,7.17 644.63,8.082 L644.63,8.082 Z M678.374,3.788 C678.374,3.37 678.184,2.99 677.804,2.686 C677.386,2.42 676.968,2.268 676.55,2.192 C672.674,2.496 669.596,2.762 667.392,2.914 C666.062,3.028 665.416,3.484 665.416,4.32 C665.416,4.852 665.492,5.308 665.72,5.726 C665.454,9.64 665.34,11.616 665.34,11.692 C665.074,14.428 664.96,15.796 664.96,15.796 C664.96,16.29 665.112,16.784 665.454,17.278 C665.796,17.772 666.176,18 666.632,18 C667.392,18 667.772,17.506 667.848,16.48 C668.076,12.376 668.304,8.842 668.608,5.878 C670.546,5.612 672.56,5.422 674.65,5.346 C674.65,5.46 674.574,7.322 674.46,10.894 C674.308,14.086 674.27,15.796 674.27,16.024 C674.27,18.494 674.916,19.748 676.284,19.748 C677.006,19.748 677.386,19.33 677.386,18.57 C677.158,17.43 677.082,16.366 677.082,15.454 C677.082,14.238 677.158,12.3 677.31,9.64 C677.348,9.222 677.424,8.614 677.538,7.778 C677.614,7.094 677.652,6.714 677.652,6.562 C677.652,6.334 677.576,5.992 677.5,5.536 C678.07,4.928 678.374,4.358 678.374,3.788 L678.374,3.788 Z M694.334,9.64 C694.334,8.158 693.916,6.79 693.08,5.574 C692.206,4.396 691.104,3.56 689.774,3.104 C689.242,2.952 688.938,2.876 688.862,2.876 C688.558,2.876 688.216,3.066 687.76,3.37 C687.228,3.674 686.81,3.902 686.506,4.016 C685.214,4.662 684.15,5.802 683.39,7.398 C682.63,8.842 682.288,10.4 682.288,12.034 C682.288,13.972 682.782,15.568 683.846,16.822 C684.91,18.038 686.24,18.684 687.836,18.684 C689.66,18.684 691.218,17.848 692.472,16.1 C693.688,14.352 694.334,12.224 694.334,9.64 L694.334,9.64 Z M691.332,10.21 C691.332,11.502 690.952,12.68 690.268,13.782 C689.508,14.922 688.71,15.492 687.798,15.492 C687.038,15.492 686.43,15.15 685.974,14.428 C685.48,13.744 685.252,12.946 685.252,12.034 C685.252,10.818 685.518,9.678 686.126,8.614 C686.81,7.398 687.684,6.752 688.748,6.752 C689.128,6.98 689.622,7.094 690.23,7.094 C690.952,7.55 691.332,8.614 691.332,10.21 L691.332,10.21 Z M714.854,19.558 C714.854,19.216 714.74,18.836 714.512,18.38 C714.284,17.924 714.018,17.62 713.752,17.392 C713.144,16.1 712.612,13.744 712.156,10.362 C711.852,8.614 711.624,6.676 711.396,4.624 C711.282,3.826 710.826,3.408 710.028,3.408 C709.306,3.408 708.356,4.966 707.178,8.082 C706.76,9.146 706.418,10.058 706.114,10.894 C705.088,9.374 704.176,7.094 703.34,3.978 C703.036,2.838 702.58,2.268 702.01,2.268 C701.288,2.268 700.642,3.142 700.072,4.852 C699.958,4.852 699.806,4.814 699.616,4.814 C699.35,4.814 699.122,4.928 698.97,5.118 C698.742,5.346 698.628,5.612 698.628,5.878 C698.628,5.954 698.628,6.182 698.666,6.562 C698.666,6.98 698.704,7.208 698.704,7.284 C698.704,7.968 698.628,8.918 698.476,10.21 C698.324,11.502 698.248,12.946 698.248,14.504 C698.248,17.05 698.742,18.304 699.768,18.304 C700.528,18.304 700.908,17.468 700.984,15.758 C701.098,12.414 701.402,9.64 701.858,7.436 C703.872,12.3 705.468,14.732 706.608,14.732 C706.988,14.732 707.254,14.58 707.482,14.2 C707.672,13.896 707.9,13.212 708.204,12.224 C708.698,10.552 709.116,9.222 709.458,8.31 C709.838,12.528 710.37,15.644 711.092,17.658 C711.89,19.976 712.726,21.154 713.562,21.154 C713.866,21.154 714.17,20.964 714.436,20.622 C714.702,20.242 714.854,19.9 714.854,19.558 L714.854,19.558 Z M729.598,9.64 C729.598,8.158 729.18,6.79 728.344,5.574 C727.47,4.396 726.368,3.56 725.038,3.104 C724.506,2.952 724.202,2.876 724.126,2.876 C723.822,2.876 723.48,3.066 723.024,3.37 C722.492,3.674 722.074,3.902 721.77,4.016 C720.478,4.662 719.414,5.802 718.654,7.398 C717.894,8.842 717.552,10.4 717.552,12.034 C717.552,13.972 718.046,15.568 719.11,16.822 C720.174,18.038 721.504,18.684 723.1,18.684 C724.924,18.684 726.482,17.848 727.736,16.1 C728.952,14.352 729.598,12.224 729.598,9.64 L729.598,9.64 Z M726.596,10.21 C726.596,11.502 726.216,12.68 725.532,13.782 C724.772,14.922 723.974,15.492 723.062,15.492 C722.302,15.492 721.694,15.15 721.238,14.428 C720.744,13.744 720.516,12.946 720.516,12.034 C720.516,10.818 720.782,9.678 721.39,8.614 C722.074,7.398 722.948,6.752 724.012,6.752 C724.392,6.98 724.886,7.094 725.494,7.094 C726.216,7.55 726.596,8.614 726.596,10.21 L726.596,10.21 Z M753.69,15.758 C753.69,14.922 753.12,14.466 752.018,14.352 C748.446,14.048 745.9,13.478 744.418,12.718 C746.964,9.602 748.94,7.284 750.346,5.764 C750.65,5.422 750.802,5.08 750.802,4.7 C750.802,4.32 750.65,3.94 750.346,3.598 C750.042,3.294 749.7,3.142 749.32,3.142 C748.94,3.142 748.37,3.636 747.534,4.624 C746.622,5.688 745.444,7.17 744,9.07 C744.076,7.892 744.304,6.486 744.684,4.814 C744.912,3.484 745.064,2.724 745.064,2.534 C745.064,1.546 744.532,1.014 743.544,1.014 C742.784,1.014 742.29,1.698 742.062,2.99 C741.872,3.902 741.682,5.27 741.492,7.056 C739.098,6.676 737.312,5.992 736.172,4.966 C735.64,4.548 735.146,4.32 734.614,4.32 C734.272,4.32 734.006,4.472 733.778,4.738 C733.55,5.08 733.436,5.384 733.436,5.688 C733.436,6.524 734.196,7.36 735.792,8.196 C736.59,8.652 737.882,9.108 739.668,9.602 C737.806,11.692 735.944,13.402 734.044,14.77 C733.436,15.226 733.132,15.72 733.132,16.29 C733.132,16.67 733.246,17.012 733.55,17.316 C733.816,17.62 734.158,17.772 734.576,17.772 C735.032,17.772 735.602,17.468 736.286,16.86 C738.604,14.77 740.238,13.174 741.226,12.072 C741.302,15.036 741.492,17.316 741.834,18.988 C742.062,19.976 742.632,20.47 743.582,20.47 C743.924,20.47 744.228,20.28 744.532,19.938 C744.798,19.596 744.95,19.254 744.95,18.912 C744.646,17.696 744.38,16.67 744.228,15.872 C746.014,16.404 747.572,16.746 748.94,16.974 C750.422,17.278 751.524,17.392 752.284,17.392 C753.196,17.392 753.69,16.86 753.69,15.758 L753.69,15.758 Z M771.892,17.316 C771.892,16.936 771.74,16.556 771.436,16.176 C771.132,15.872 770.752,15.682 770.372,15.682 C770.068,15.682 769.574,15.758 768.928,15.834 C768.282,15.91 767.788,15.948 767.484,15.948 C766.344,15.948 765.356,15.416 764.444,14.314 C768.244,12.262 770.144,9.83 770.144,7.018 C770.144,5.954 769.688,4.928 768.776,4.016 C767.864,3.104 766.952,2.648 766.002,2.648 C764.368,2.648 763.038,3.598 761.974,5.46 C761.062,7.056 760.606,8.766 760.606,10.59 C760.606,10.97 760.644,11.502 760.758,12.148 L759.884,12.148 C759.352,12.148 758.858,11.958 758.326,11.578 C757.794,11.198 757.414,11.008 757.186,11.008 C756.198,11.008 755.704,11.54 755.704,12.604 C755.704,13.44 756.312,14.124 757.604,14.656 C758.592,15.074 759.542,15.264 760.53,15.264 L761.67,15.264 C763.038,17.886 765.166,19.178 768.054,19.178 C770.6,19.178 771.892,18.532 771.892,17.316 L771.892,17.316 Z M767.142,7.17 C767.142,8.424 766.002,9.792 763.722,11.274 L763.722,10.59 C763.722,9.564 763.874,8.576 764.254,7.626 C764.634,6.486 765.166,5.916 765.85,5.916 C766.154,5.916 766.458,6.068 766.762,6.296 C766.99,6.6 767.142,6.866 767.142,7.17 L767.142,7.17 Z M789.98,2.192 C789.98,1.812 789.828,1.432 789.562,1.09 C789.296,0.786 788.992,0.596 788.65,0.596 C788.08,0.596 787.282,0.748 786.218,0.976 C782.038,1.964 778.314,2.838 775.122,3.598 C774.894,3.674 774.742,3.674 774.666,3.674 C773.906,3.826 773.526,4.396 773.526,5.346 C773.526,6.41 773.944,6.904 774.856,6.904 C775.958,6.676 776.832,6.486 777.44,6.296 C778.542,6.068 779.492,5.84 780.29,5.688 C780.138,8.614 780.062,11.426 780.062,14.086 C780.062,16.67 780.214,18.456 780.518,19.444 C780.746,20.128 781.202,20.47 781.962,20.47 C782.95,20.47 783.444,19.558 783.444,17.772 C783.444,16.898 783.254,16.252 782.95,15.834 C782.874,14.884 782.836,13.402 782.836,11.35 C782.836,9.754 782.95,7.588 783.254,4.89 C784.356,4.624 785.116,4.434 785.572,4.358 C785.914,4.586 786.18,4.662 786.37,4.662 C786.598,4.662 786.864,4.624 787.206,4.472 L788.954,3.674 C789.638,3.37 789.98,2.876 789.98,2.192 L789.98,2.192 Z M797.618,5.498 C797.618,4.89 797.352,4.32 796.896,3.788 C796.364,3.218 795.832,2.914 795.262,2.914 C794.882,2.914 794.464,3.218 794.084,3.826 C793.666,4.434 793.476,4.928 793.476,5.384 C793.476,5.612 793.552,5.84 793.704,6.068 C794.236,6.98 794.996,7.512 795.908,7.664 C796.364,7.588 796.782,7.322 797.162,6.904 C797.466,6.486 797.618,6.03 797.618,5.498 L797.618,5.498 Z M797.466,17.544 C797.466,15.34 796.896,14.238 795.832,14.238 C795.528,14.238 795.262,14.276 795.072,14.352 C794.654,14.504 794.312,14.884 794.008,15.454 C793.704,16.062 793.59,16.632 793.59,17.164 C793.59,17.962 794.084,18.57 795.072,19.064 C795.414,19.216 795.718,19.33 795.946,19.33 C796.934,19.33 797.466,18.722 797.466,17.544 L797.466,17.544 Z" id="В-эффективном-лечени"></path>
            </g>
        </g>
    </g>
</svg>