<?xml version="1.0" encoding="UTF-8"?>
<svg width="391px" height="30px" viewBox="0 0 391 30" version="1.1" xmlns="http://www.w3.org/2000/svg" xmlns:xlink="http://www.w3.org/1999/xlink">
    <!-- Generator: Sketch 40.3 (33839) - http://www.bohemiancoding.com/sketch -->
    <title>при лечении пиелонеф</title>
    <desc>Created with Sketch.</desc>
    <defs></defs>
    <g id="Page-1" stroke="none" stroke-width="1" fill="none" fill-rule="evenodd">
        <g id="piolonefrit" transform="translate(-460.000000, -238.000000)" fill="#354777">
            <path d="M473.14,245.91 C473.14,245.525 472.965,245.175 472.615,244.895 C472.23,244.65 471.845,244.51 471.46,244.44 C467.89,244.72 465.055,244.965 463.025,245.105 C461.8,245.21 461.205,245.63 461.205,246.4 C461.205,246.89 461.275,247.31 461.485,247.695 C461.24,251.3 461.135,253.12 461.135,253.19 C460.89,255.71 460.785,256.97 460.785,256.97 C460.785,257.425 460.925,257.88 461.24,258.335 C461.555,258.79 461.905,259 462.325,259 C463.025,259 463.375,258.545 463.445,257.6 C463.655,253.82 463.865,250.565 464.145,247.835 C465.93,247.59 467.785,247.415 469.71,247.345 C469.71,247.45 469.64,249.165 469.535,252.455 C469.395,255.395 469.36,256.97 469.36,257.18 C469.36,259.455 469.955,260.61 471.215,260.61 C471.88,260.61 472.23,260.225 472.23,259.525 C472.02,258.475 471.95,257.495 471.95,256.655 C471.95,255.535 472.02,253.75 472.16,251.3 C472.195,250.915 472.265,250.355 472.37,249.585 C472.44,248.955 472.475,248.605 472.475,248.465 C472.475,248.255 472.405,247.94 472.335,247.52 C472.86,246.96 473.14,246.435 473.14,245.91 L473.14,245.91 Z M489.415,246.89 C489.415,245.21 489.03,243.81 488.26,242.69 C487.42,241.465 486.195,240.835 484.655,240.835 C482.45,240.835 480.735,242.375 479.51,245.455 C478.67,247.59 478.25,250.04 478.25,252.77 C478.25,253.12 478.25,253.4 478.285,253.575 C477.305,253.925 476.85,254.45 476.85,255.185 C476.85,256.095 477.305,256.585 478.285,256.655 C478.355,257.215 478.39,258.055 478.39,259.175 C478.39,261.415 478.25,262.99 478.04,263.97 C477.795,264.915 477.69,265.44 477.69,265.545 C477.69,265.93 477.83,266.28 478.11,266.595 C478.39,266.875 478.74,267.05 479.125,267.05 C479.86,267.05 480.385,266.315 480.7,264.88 C481.05,263.27 481.225,261.625 481.225,260.015 C481.225,258.545 481.155,257.11 481.05,255.71 C486.615,253.68 489.415,250.74 489.415,246.89 L489.415,246.89 Z M486.615,246.295 C486.615,249.165 484.76,251.265 481.085,252.595 C481.085,250.705 481.4,248.78 482.065,246.89 C482.8,244.825 483.675,243.775 484.655,243.775 C485.25,243.775 485.74,244.055 486.125,244.545 C486.44,245.035 486.615,245.63 486.615,246.295 L486.615,246.295 Z M505.865,259.21 C505.865,258.965 505.69,258.65 505.375,258.3 C504.605,257.46 504.255,255.325 504.255,251.895 C504.255,250.67 504.43,248.605 504.815,245.7 C504.815,245.315 504.64,244.965 504.36,244.615 C504.045,244.3 503.695,244.125 503.31,244.125 C502.715,244.125 501.455,245.42 499.565,248.01 C498.025,250.04 496.765,251.895 495.715,253.505 C495.96,250.775 496.135,248.78 496.24,247.59 C496.24,247.03 496.03,246.54 495.68,246.12 C495.33,245.735 494.875,245.525 494.315,245.525 C494,245.525 493.72,245.735 493.44,246.12 C493.51,247.135 493.58,247.73 493.58,247.87 C493.58,248.5 493.475,250.075 493.3,252.63 L493.23,253.645 C493.195,254.17 493.125,254.87 493.055,255.745 C492.95,256.585 492.88,257.11 492.88,257.32 C492.915,257.81 493.055,258.195 493.335,258.405 C493.895,258.965 494.245,259.21 494.385,259.21 C494.875,259.21 495.47,258.685 496.1,257.565 C497.395,255.395 498.305,253.855 498.865,253.015 C499.775,251.51 500.755,250.11 501.84,248.85 C501.84,249.2 501.805,249.935 501.805,251.02 C501.77,252.14 501.77,252.735 501.77,252.875 C501.77,254.695 501.945,256.235 502.33,257.565 C502.855,259.49 503.625,260.47 504.605,260.47 C504.815,260.47 505.095,260.295 505.41,260.015 C505.69,259.665 505.865,259.42 505.865,259.21 L505.865,259.21 Z M535.545,246.61 C535.545,246.085 535.37,245.63 535.02,245.21 C534.705,244.825 534.32,244.615 533.83,244.615 C533.62,244.615 533.2,244.825 532.57,245.175 C531.94,245.56 530.4,245.875 527.915,246.155 C527.355,245.7 526.9,245.455 526.585,245.455 C526.2,245.455 525.78,245.665 525.36,246.085 C524.94,246.505 524.73,246.96 524.73,247.38 C524.73,247.66 524.87,248.01 525.15,248.395 C525.395,248.815 525.535,249.27 525.535,249.795 C525.535,251.965 525.36,253.75 525.01,255.22 C524.555,256.935 523.96,257.775 523.26,257.775 C522.98,257.775 522.77,257.355 522.7,256.445 C522.63,256.095 522.49,255.885 522.21,255.885 C521.72,255.885 521.37,256.13 521.125,256.55 C520.81,257.04 520.67,257.6 520.67,258.195 C520.67,258.86 520.915,259.35 521.44,259.735 C521.93,260.085 522.49,260.295 523.12,260.295 C524.94,260.295 526.235,259.105 527.005,256.795 C527.495,255.325 527.915,252.665 528.265,248.815 C529.14,248.605 530.47,248.325 532.29,248.01 C531.94,251.44 531.765,254.03 531.765,255.78 C531.765,258.09 531.905,259.525 532.22,260.12 C532.535,260.715 532.99,261.03 533.55,261.03 C534.46,261.03 534.915,260.47 534.915,259.42 C534.775,258.79 534.705,258.23 534.635,257.74 C534.46,256.55 534.39,255.535 534.39,254.66 C534.39,252.77 534.67,250.565 535.265,248.045 C535.44,247.205 535.545,246.75 535.545,246.61 L535.545,246.61 Z M553.01,258.37 C553.01,258.02 552.87,257.67 552.59,257.32 C552.31,257.04 551.96,256.865 551.61,256.865 C551.33,256.865 550.875,256.935 550.28,257.005 C549.685,257.075 549.23,257.11 548.95,257.11 C547.9,257.11 546.99,256.62 546.15,255.605 C549.65,253.715 551.4,251.475 551.4,248.885 C551.4,247.905 550.98,246.96 550.14,246.12 C549.3,245.28 548.46,244.86 547.585,244.86 C546.08,244.86 544.855,245.735 543.875,247.45 C543.035,248.92 542.615,250.495 542.615,252.175 C542.615,252.525 542.65,253.015 542.755,253.61 L541.95,253.61 C541.46,253.61 541.005,253.435 540.515,253.085 C540.025,252.735 539.675,252.56 539.465,252.56 C538.555,252.56 538.1,253.05 538.1,254.03 C538.1,254.8 538.66,255.43 539.85,255.92 C540.76,256.305 541.635,256.48 542.545,256.48 L543.595,256.48 C544.855,258.895 546.815,260.085 549.475,260.085 C551.82,260.085 553.01,259.49 553.01,258.37 L553.01,258.37 Z M548.635,249.025 C548.635,250.18 547.585,251.44 545.485,252.805 L545.485,252.175 C545.485,251.23 545.625,250.32 545.975,249.445 C546.325,248.395 546.815,247.87 547.445,247.87 C547.725,247.87 548.005,248.01 548.285,248.22 C548.495,248.5 548.635,248.745 548.635,249.025 L548.635,249.025 Z M567.36,245.7 C567.325,245.315 567.185,244.93 566.905,244.58 C566.625,244.23 566.31,244.055 565.96,244.055 C565.015,244.055 564.525,244.58 564.49,245.595 C564.49,245.735 564.49,246.19 564.525,246.925 C564.525,247.73 564.56,248.185 564.56,248.325 C564.56,249.69 564.105,250.95 563.23,252.14 C562.32,253.33 561.305,253.89 560.22,253.89 C558.855,253.89 558.19,252.91 558.19,250.88 C558.19,250.11 558.33,248.36 558.68,245.63 C558.575,244.65 558.155,244.125 557.455,244.125 C556.475,244.125 555.915,245.07 555.705,246.925 C555.635,247.45 555.6,248.745 555.6,250.845 C555.6,254.555 557.07,256.41 560.045,256.41 C560.885,256.41 561.76,256.2 562.6,255.71 C563.44,255.255 564.105,254.625 564.525,253.855 C564.455,255.255 564.385,256.41 564.315,257.285 C564.175,258.72 564.14,259.735 564.14,260.435 C564.14,261.38 564.525,261.87 565.365,261.87 C566.275,261.87 566.765,261.38 566.8,260.4 C566.835,258.125 566.94,254.765 567.15,250.355 C567.22,248.045 567.29,246.505 567.36,245.7 L567.36,245.7 Z M584.825,258.37 C584.825,258.02 584.685,257.67 584.405,257.32 C584.125,257.04 583.775,256.865 583.425,256.865 C583.145,256.865 582.69,256.935 582.095,257.005 C581.5,257.075 581.045,257.11 580.765,257.11 C579.715,257.11 578.805,256.62 577.965,255.605 C581.465,253.715 583.215,251.475 583.215,248.885 C583.215,247.905 582.795,246.96 581.955,246.12 C581.115,245.28 580.275,244.86 579.4,244.86 C577.895,244.86 576.67,245.735 575.69,247.45 C574.85,248.92 574.43,250.495 574.43,252.175 C574.43,252.525 574.465,253.015 574.57,253.61 L573.765,253.61 C573.275,253.61 572.82,253.435 572.33,253.085 C571.84,252.735 571.49,252.56 571.28,252.56 C570.37,252.56 569.915,253.05 569.915,254.03 C569.915,254.8 570.475,255.43 571.665,255.92 C572.575,256.305 573.45,256.48 574.36,256.48 L575.41,256.48 C576.67,258.895 578.63,260.085 581.29,260.085 C583.635,260.085 584.825,259.49 584.825,258.37 L584.825,258.37 Z M580.45,249.025 C580.45,250.18 579.4,251.44 577.3,252.805 L577.3,252.175 C577.3,251.23 577.44,250.32 577.79,249.445 C578.14,248.395 578.63,247.87 579.26,247.87 C579.54,247.87 579.82,248.01 580.1,248.22 C580.31,248.5 580.45,248.745 580.45,249.025 L580.45,249.025 Z M599.07,246.05 C599.07,245.14 598.65,244.685 597.81,244.685 C597.11,244.685 596.655,245.315 596.48,246.505 C596.305,247.45 596.095,248.78 595.885,250.495 C594.345,250.88 592.84,251.16 591.37,251.3 C591.72,249.06 592.07,247.38 592.42,246.225 C592.63,245.595 592.805,245.105 592.98,244.685 C592.91,243.74 592.49,243.25 591.65,243.25 C591.055,243.25 590.67,243.53 590.46,244.09 C589.76,245.77 589.2,248.185 588.85,251.335 C588.29,251.335 587.905,251.3 587.695,251.265 C586.995,251.265 586.68,251.685 586.68,252.455 C586.68,253.33 587.17,253.75 588.185,253.75 L588.605,253.75 C588.5,255.08 588.395,256.585 588.325,258.335 C588.325,258.44 588.29,258.615 588.255,258.825 C588.185,259.035 588.185,259.175 588.185,259.315 C588.185,259.665 588.325,259.98 588.605,260.26 C588.885,260.54 589.2,260.68 589.55,260.68 C590.39,260.68 590.845,260.225 590.88,259.35 C590.88,258.16 590.985,256.27 591.16,253.68 C592.665,253.54 594.135,253.295 595.605,252.945 C595.43,254.8 595.325,256.27 595.325,257.32 C595.325,257.425 595.29,257.565 595.255,257.775 C595.185,257.95 595.15,258.09 595.15,258.195 C595.15,259.035 595.255,259.665 595.535,260.085 C595.815,260.54 596.13,260.785 596.55,260.785 C596.9,260.785 597.215,260.645 597.495,260.365 C597.74,260.085 597.88,259.735 597.88,259.35 C597.88,259.28 597.845,259.105 597.845,258.755 C597.81,258.405 597.81,258.125 597.81,257.985 C597.81,255.64 598.16,252.035 598.93,247.17 C599,246.54 599.07,246.19 599.07,246.05 L599.07,246.05 Z M615.625,259.21 C615.625,258.965 615.45,258.65 615.135,258.3 C614.365,257.46 614.015,255.325 614.015,251.895 C614.015,250.67 614.19,248.605 614.575,245.7 C614.575,245.315 614.4,244.965 614.12,244.615 C613.805,244.3 613.455,244.125 613.07,244.125 C612.475,244.125 611.215,245.42 609.325,248.01 C607.785,250.04 606.525,251.895 605.475,253.505 C605.72,250.775 605.895,248.78 606,247.59 C606,247.03 605.79,246.54 605.44,246.12 C605.09,245.735 604.635,245.525 604.075,245.525 C603.76,245.525 603.48,245.735 603.2,246.12 C603.27,247.135 603.34,247.73 603.34,247.87 C603.34,248.5 603.235,250.075 603.06,252.63 L602.99,253.645 C602.955,254.17 602.885,254.87 602.815,255.745 C602.71,256.585 602.64,257.11 602.64,257.32 C602.675,257.81 602.815,258.195 603.095,258.405 C603.655,258.965 604.005,259.21 604.145,259.21 C604.635,259.21 605.23,258.685 605.86,257.565 C607.155,255.395 608.065,253.855 608.625,253.015 C609.535,251.51 610.515,250.11 611.6,248.85 C611.6,249.2 611.565,249.935 611.565,251.02 C611.53,252.14 611.53,252.735 611.53,252.875 C611.53,254.695 611.705,256.235 612.09,257.565 C612.615,259.49 613.385,260.47 614.365,260.47 C614.575,260.47 614.855,260.295 615.17,260.015 C615.45,259.665 615.625,259.42 615.625,259.21 L615.625,259.21 Z M632.18,259.21 C632.18,258.965 632.005,258.65 631.69,258.3 C630.92,257.46 630.57,255.325 630.57,251.895 C630.57,250.67 630.745,248.605 631.13,245.7 C631.13,245.315 630.955,244.965 630.675,244.615 C630.36,244.3 630.01,244.125 629.625,244.125 C629.03,244.125 627.77,245.42 625.88,248.01 C624.34,250.04 623.08,251.895 622.03,253.505 C622.275,250.775 622.45,248.78 622.555,247.59 C622.555,247.03 622.345,246.54 621.995,246.12 C621.645,245.735 621.19,245.525 620.63,245.525 C620.315,245.525 620.035,245.735 619.755,246.12 C619.825,247.135 619.895,247.73 619.895,247.87 C619.895,248.5 619.79,250.075 619.615,252.63 L619.545,253.645 C619.51,254.17 619.44,254.87 619.37,255.745 C619.265,256.585 619.195,257.11 619.195,257.32 C619.23,257.81 619.37,258.195 619.65,258.405 C620.21,258.965 620.56,259.21 620.7,259.21 C621.19,259.21 621.785,258.685 622.415,257.565 C623.71,255.395 624.62,253.855 625.18,253.015 C626.09,251.51 627.07,250.11 628.155,248.85 C628.155,249.2 628.12,249.935 628.12,251.02 C628.085,252.14 628.085,252.735 628.085,252.875 C628.085,254.695 628.26,256.235 628.645,257.565 C629.17,259.49 629.94,260.47 630.92,260.47 C631.13,260.47 631.41,260.295 631.725,260.015 C632.005,259.665 632.18,259.42 632.18,259.21 L632.18,259.21 Z M660.075,245.91 C660.075,245.525 659.9,245.175 659.55,244.895 C659.165,244.65 658.78,244.51 658.395,244.44 C654.825,244.72 651.99,244.965 649.96,245.105 C648.735,245.21 648.14,245.63 648.14,246.4 C648.14,246.89 648.21,247.31 648.42,247.695 C648.175,251.3 648.07,253.12 648.07,253.19 C647.825,255.71 647.72,256.97 647.72,256.97 C647.72,257.425 647.86,257.88 648.175,258.335 C648.49,258.79 648.84,259 649.26,259 C649.96,259 650.31,258.545 650.38,257.6 C650.59,253.82 650.8,250.565 651.08,247.835 C652.865,247.59 654.72,247.415 656.645,247.345 C656.645,247.45 656.575,249.165 656.47,252.455 C656.33,255.395 656.295,256.97 656.295,257.18 C656.295,259.455 656.89,260.61 658.15,260.61 C658.815,260.61 659.165,260.225 659.165,259.525 C658.955,258.475 658.885,257.495 658.885,256.655 C658.885,255.535 658.955,253.75 659.095,251.3 C659.13,250.915 659.2,250.355 659.305,249.585 C659.375,248.955 659.41,248.605 659.41,248.465 C659.41,248.255 659.34,247.94 659.27,247.52 C659.795,246.96 660.075,246.435 660.075,245.91 L660.075,245.91 Z M676.665,259.21 C676.665,258.965 676.49,258.65 676.175,258.3 C675.405,257.46 675.055,255.325 675.055,251.895 C675.055,250.67 675.23,248.605 675.615,245.7 C675.615,245.315 675.44,244.965 675.16,244.615 C674.845,244.3 674.495,244.125 674.11,244.125 C673.515,244.125 672.255,245.42 670.365,248.01 C668.825,250.04 667.565,251.895 666.515,253.505 C666.76,250.775 666.935,248.78 667.04,247.59 C667.04,247.03 666.83,246.54 666.48,246.12 C666.13,245.735 665.675,245.525 665.115,245.525 C664.8,245.525 664.52,245.735 664.24,246.12 C664.31,247.135 664.38,247.73 664.38,247.87 C664.38,248.5 664.275,250.075 664.1,252.63 L664.03,253.645 C663.995,254.17 663.925,254.87 663.855,255.745 C663.75,256.585 663.68,257.11 663.68,257.32 C663.715,257.81 663.855,258.195 664.135,258.405 C664.695,258.965 665.045,259.21 665.185,259.21 C665.675,259.21 666.27,258.685 666.9,257.565 C668.195,255.395 669.105,253.855 669.665,253.015 C670.575,251.51 671.555,250.11 672.64,248.85 C672.64,249.2 672.605,249.935 672.605,251.02 C672.57,252.14 672.57,252.735 672.57,252.875 C672.57,254.695 672.745,256.235 673.13,257.565 C673.655,259.49 674.425,260.47 675.405,260.47 C675.615,260.47 675.895,260.295 676.21,260.015 C676.49,259.665 676.665,259.42 676.665,259.21 L676.665,259.21 Z M694.13,258.37 C694.13,258.02 693.99,257.67 693.71,257.32 C693.43,257.04 693.08,256.865 692.73,256.865 C692.45,256.865 691.995,256.935 691.4,257.005 C690.805,257.075 690.35,257.11 690.07,257.11 C689.02,257.11 688.11,256.62 687.27,255.605 C690.77,253.715 692.52,251.475 692.52,248.885 C692.52,247.905 692.1,246.96 691.26,246.12 C690.42,245.28 689.58,244.86 688.705,244.86 C687.2,244.86 685.975,245.735 684.995,247.45 C684.155,248.92 683.735,250.495 683.735,252.175 C683.735,252.525 683.77,253.015 683.875,253.61 L683.07,253.61 C682.58,253.61 682.125,253.435 681.635,253.085 C681.145,252.735 680.795,252.56 680.585,252.56 C679.675,252.56 679.22,253.05 679.22,254.03 C679.22,254.8 679.78,255.43 680.97,255.92 C681.88,256.305 682.755,256.48 683.665,256.48 L684.715,256.48 C685.975,258.895 687.935,260.085 690.595,260.085 C692.94,260.085 694.13,259.49 694.13,258.37 L694.13,258.37 Z M689.755,249.025 C689.755,250.18 688.705,251.44 686.605,252.805 L686.605,252.175 C686.605,251.23 686.745,250.32 687.095,249.445 C687.445,248.395 687.935,247.87 688.565,247.87 C688.845,247.87 689.125,248.01 689.405,248.22 C689.615,248.5 689.755,248.745 689.755,249.025 L689.755,249.025 Z M710.86,246.61 C710.86,246.085 710.685,245.63 710.335,245.21 C710.02,244.825 709.635,244.615 709.145,244.615 C708.935,244.615 708.515,244.825 707.885,245.175 C707.255,245.56 705.715,245.875 703.23,246.155 C702.67,245.7 702.215,245.455 701.9,245.455 C701.515,245.455 701.095,245.665 700.675,246.085 C700.255,246.505 700.045,246.96 700.045,247.38 C700.045,247.66 700.185,248.01 700.465,248.395 C700.71,248.815 700.85,249.27 700.85,249.795 C700.85,251.965 700.675,253.75 700.325,255.22 C699.87,256.935 699.275,257.775 698.575,257.775 C698.295,257.775 698.085,257.355 698.015,256.445 C697.945,256.095 697.805,255.885 697.525,255.885 C697.035,255.885 696.685,256.13 696.44,256.55 C696.125,257.04 695.985,257.6 695.985,258.195 C695.985,258.86 696.23,259.35 696.755,259.735 C697.245,260.085 697.805,260.295 698.435,260.295 C700.255,260.295 701.55,259.105 702.32,256.795 C702.81,255.325 703.23,252.665 703.58,248.815 C704.455,248.605 705.785,248.325 707.605,248.01 C707.255,251.44 707.08,254.03 707.08,255.78 C707.08,258.09 707.22,259.525 707.535,260.12 C707.85,260.715 708.305,261.03 708.865,261.03 C709.775,261.03 710.23,260.47 710.23,259.42 C710.09,258.79 710.02,258.23 709.95,257.74 C709.775,256.55 709.705,255.535 709.705,254.66 C709.705,252.77 709.985,250.565 710.58,248.045 C710.755,247.205 710.86,246.75 710.86,246.61 L710.86,246.61 Z M725.525,251.3 C725.525,249.935 725.14,248.675 724.37,247.555 C723.565,246.47 722.55,245.7 721.325,245.28 C720.835,245.14 720.555,245.07 720.485,245.07 C720.205,245.07 719.89,245.245 719.47,245.525 C718.98,245.805 718.595,246.015 718.315,246.12 C717.125,246.715 716.145,247.765 715.445,249.235 C714.745,250.565 714.43,252 714.43,253.505 C714.43,255.29 714.885,256.76 715.865,257.915 C716.845,259.035 718.07,259.63 719.54,259.63 C721.22,259.63 722.655,258.86 723.81,257.25 C724.93,255.64 725.525,253.68 725.525,251.3 L725.525,251.3 Z M722.76,251.825 C722.76,253.015 722.41,254.1 721.78,255.115 C721.08,256.165 720.345,256.69 719.505,256.69 C718.805,256.69 718.245,256.375 717.825,255.71 C717.37,255.08 717.16,254.345 717.16,253.505 C717.16,252.385 717.405,251.335 717.965,250.355 C718.595,249.235 719.4,248.64 720.38,248.64 C720.73,248.85 721.185,248.955 721.745,248.955 C722.41,249.375 722.76,250.355 722.76,251.825 L722.76,251.825 Z M740.785,246.05 C740.785,245.14 740.365,244.685 739.525,244.685 C738.825,244.685 738.37,245.315 738.195,246.505 C738.02,247.45 737.81,248.78 737.6,250.495 C736.06,250.88 734.555,251.16 733.085,251.3 C733.435,249.06 733.785,247.38 734.135,246.225 C734.345,245.595 734.52,245.105 734.695,244.685 C734.625,243.74 734.205,243.25 733.365,243.25 C732.77,243.25 732.385,243.53 732.175,244.09 C731.475,245.77 730.915,248.185 730.565,251.335 C730.005,251.335 729.62,251.3 729.41,251.265 C728.71,251.265 728.395,251.685 728.395,252.455 C728.395,253.33 728.885,253.75 729.9,253.75 L730.32,253.75 C730.215,255.08 730.11,256.585 730.04,258.335 C730.04,258.44 730.005,258.615 729.97,258.825 C729.9,259.035 729.9,259.175 729.9,259.315 C729.9,259.665 730.04,259.98 730.32,260.26 C730.6,260.54 730.915,260.68 731.265,260.68 C732.105,260.68 732.56,260.225 732.595,259.35 C732.595,258.16 732.7,256.27 732.875,253.68 C734.38,253.54 735.85,253.295 737.32,252.945 C737.145,254.8 737.04,256.27 737.04,257.32 C737.04,257.425 737.005,257.565 736.97,257.775 C736.9,257.95 736.865,258.09 736.865,258.195 C736.865,259.035 736.97,259.665 737.25,260.085 C737.53,260.54 737.845,260.785 738.265,260.785 C738.615,260.785 738.93,260.645 739.21,260.365 C739.455,260.085 739.595,259.735 739.595,259.35 C739.595,259.28 739.56,259.105 739.56,258.755 C739.525,258.405 739.525,258.125 739.525,257.985 C739.525,255.64 739.875,252.035 740.645,247.17 C740.715,246.54 740.785,246.19 740.785,246.05 L740.785,246.05 Z M758.25,258.37 C758.25,258.02 758.11,257.67 757.83,257.32 C757.55,257.04 757.2,256.865 756.85,256.865 C756.57,256.865 756.115,256.935 755.52,257.005 C754.925,257.075 754.47,257.11 754.19,257.11 C753.14,257.11 752.23,256.62 751.39,255.605 C754.89,253.715 756.64,251.475 756.64,248.885 C756.64,247.905 756.22,246.96 755.38,246.12 C754.54,245.28 753.7,244.86 752.825,244.86 C751.32,244.86 750.095,245.735 749.115,247.45 C748.275,248.92 747.855,250.495 747.855,252.175 C747.855,252.525 747.89,253.015 747.995,253.61 L747.19,253.61 C746.7,253.61 746.245,253.435 745.755,253.085 C745.265,252.735 744.915,252.56 744.705,252.56 C743.795,252.56 743.34,253.05 743.34,254.03 C743.34,254.8 743.9,255.43 745.09,255.92 C746,256.305 746.875,256.48 747.785,256.48 L748.835,256.48 C750.095,258.895 752.055,260.085 754.715,260.085 C757.06,260.085 758.25,259.49 758.25,258.37 L758.25,258.37 Z M753.875,249.025 C753.875,250.18 752.825,251.44 750.725,252.805 L750.725,252.175 C750.725,251.23 750.865,250.32 751.215,249.445 C751.565,248.395 752.055,247.87 752.685,247.87 C752.965,247.87 753.245,248.01 753.525,248.22 C753.735,248.5 753.875,248.745 753.875,249.025 L753.875,249.025 Z M785.34,249.34 C785.34,247.8 784.99,246.505 784.29,245.455 C783.52,244.37 782.54,243.81 781.35,243.81 C778.9,243.81 776.555,246.015 774.35,250.355 L774.735,247.065 C775.155,244.195 775.47,242.095 775.75,240.765 C775.75,240.135 775.575,239.54 775.26,239.05 C774.945,238.595 774.49,238.35 773.93,238.35 C773.16,238.35 772.705,239.225 772.53,240.94 C772.075,244.72 771.83,246.855 771.795,247.38 C771.235,248.78 770.22,250.46 768.68,252.42 C767,254.52 765.74,255.535 764.97,255.535 C764.13,255.535 763.745,255.08 763.745,254.135 C763.745,252.805 764.2,251.335 765.18,249.76 C766.125,248.22 767.07,247.415 767.98,247.415 C768.4,247.415 768.82,247.59 769.31,247.94 C769.695,248.255 770.01,248.395 770.255,248.395 C770.815,248.395 771.13,248.185 771.13,247.695 C771.13,247.625 771.095,247.52 771.095,247.415 C770.85,247.065 770.675,246.82 770.535,246.61 C769.905,245.595 768.96,245.07 767.7,245.07 C765.985,245.07 764.41,246.19 762.94,248.395 C761.54,250.46 760.84,252.42 760.84,254.31 C760.84,255.57 761.12,256.55 761.715,257.32 C762.275,258.09 763.115,258.44 764.235,258.44 C766.65,258.44 769.135,256.585 771.655,252.805 C771.27,257.46 770.99,260.89 770.78,263.165 C770.745,263.375 770.71,263.655 770.675,264.075 C770.605,264.355 770.605,264.565 770.605,264.705 C770.605,265.72 770.885,266.42 771.445,266.77 C771.76,266.945 772.145,267.05 772.6,267.05 C773.02,267.05 773.335,266.805 773.615,266.35 C773.86,265.86 774,265.335 774,264.81 C774,264.74 773.965,264.46 773.93,264.04 C773.86,263.55 773.86,263.2 773.86,263.06 C773.86,262.885 773.825,262.57 773.825,262.15 C773.79,261.73 773.79,261.415 773.79,261.275 C773.79,261.135 773.79,260.54 773.825,259.525 C773.825,258.545 773.86,257.95 773.86,257.74 C773.86,256.2 774.805,253.96 776.695,250.95 C778.585,248.01 780.02,246.505 781.07,246.505 C782.12,246.505 782.645,247.52 782.645,249.515 C782.645,250.845 782.435,252.07 782.015,253.19 C781.42,254.695 780.615,255.43 779.565,255.43 C779.145,255.43 778.62,255.115 778.06,254.45 C777.5,253.82 777.08,253.47 776.8,253.4 C776.485,253.47 776.205,253.645 775.995,253.995 C775.75,254.345 775.645,254.66 775.645,254.975 C775.645,255.57 776.065,256.2 776.905,256.865 C777.745,257.565 778.655,257.915 779.635,257.915 C781.735,257.915 783.24,256.935 784.22,254.975 C784.955,253.505 785.34,251.65 785.34,249.34 L785.34,249.34 Z M801.615,246.89 C801.615,245.21 801.23,243.81 800.46,242.69 C799.62,241.465 798.395,240.835 796.855,240.835 C794.65,240.835 792.935,242.375 791.71,245.455 C790.87,247.59 790.45,250.04 790.45,252.77 C790.45,253.12 790.45,253.4 790.485,253.575 C789.505,253.925 789.05,254.45 789.05,255.185 C789.05,256.095 789.505,256.585 790.485,256.655 C790.555,257.215 790.59,258.055 790.59,259.175 C790.59,261.415 790.45,262.99 790.24,263.97 C789.995,264.915 789.89,265.44 789.89,265.545 C789.89,265.93 790.03,266.28 790.31,266.595 C790.59,266.875 790.94,267.05 791.325,267.05 C792.06,267.05 792.585,266.315 792.9,264.88 C793.25,263.27 793.425,261.625 793.425,260.015 C793.425,258.545 793.355,257.11 793.25,255.71 C798.815,253.68 801.615,250.74 801.615,246.89 L801.615,246.89 Z M798.815,246.295 C798.815,249.165 796.96,251.265 793.285,252.595 C793.285,250.705 793.6,248.78 794.265,246.89 C795,244.825 795.875,243.775 796.855,243.775 C797.45,243.775 797.94,244.055 798.325,244.545 C798.64,245.035 798.815,245.63 798.815,246.295 L798.815,246.295 Z M818.065,259.21 C818.065,258.965 817.89,258.65 817.575,258.3 C816.805,257.46 816.455,255.325 816.455,251.895 C816.455,250.67 816.63,248.605 817.015,245.7 C817.015,245.315 816.84,244.965 816.56,244.615 C816.245,244.3 815.895,244.125 815.51,244.125 C814.915,244.125 813.655,245.42 811.765,248.01 C810.225,250.04 808.965,251.895 807.915,253.505 C808.16,250.775 808.335,248.78 808.44,247.59 C808.44,247.03 808.23,246.54 807.88,246.12 C807.53,245.735 807.075,245.525 806.515,245.525 C806.2,245.525 805.92,245.735 805.64,246.12 C805.71,247.135 805.78,247.73 805.78,247.87 C805.78,248.5 805.675,250.075 805.5,252.63 L805.43,253.645 C805.395,254.17 805.325,254.87 805.255,255.745 C805.15,256.585 805.08,257.11 805.08,257.32 C805.115,257.81 805.255,258.195 805.535,258.405 C806.095,258.965 806.445,259.21 806.585,259.21 C807.075,259.21 807.67,258.685 808.3,257.565 C809.595,255.395 810.505,253.855 811.065,253.015 C811.975,251.51 812.955,250.11 814.04,248.85 C814.04,249.2 814.005,249.935 814.005,251.02 C813.97,252.14 813.97,252.735 813.97,252.875 C813.97,254.695 814.145,256.235 814.53,257.565 C815.055,259.49 815.825,260.47 816.805,260.47 C817.015,260.47 817.295,260.295 817.61,260.015 C817.89,259.665 818.065,259.42 818.065,259.21 L818.065,259.21 Z M835.705,244.44 C835.705,244.09 835.565,243.74 835.32,243.425 C835.075,243.145 834.795,242.97 834.48,242.97 C833.955,242.97 833.22,243.11 832.24,243.32 C828.39,244.23 824.96,245.035 822.02,245.735 C821.81,245.805 821.67,245.805 821.6,245.805 C820.9,245.945 820.55,246.47 820.55,247.345 C820.55,248.325 820.935,248.78 821.775,248.78 C822.79,248.57 823.595,248.395 824.155,248.22 C825.17,248.01 826.045,247.8 826.78,247.66 C826.64,250.355 826.57,252.945 826.57,255.395 C826.57,257.775 826.71,259.42 826.99,260.33 C827.2,260.96 827.62,261.275 828.32,261.275 C829.23,261.275 829.685,260.435 829.685,258.79 C829.685,257.985 829.51,257.39 829.23,257.005 C829.16,256.13 829.125,254.765 829.125,252.875 C829.125,251.405 829.23,249.41 829.51,246.925 C830.525,246.68 831.225,246.505 831.645,246.435 C831.96,246.645 832.205,246.715 832.38,246.715 C832.59,246.715 832.835,246.68 833.15,246.54 L834.76,245.805 C835.39,245.525 835.705,245.07 835.705,244.44 L835.705,244.44 Z M850.545,250.88 C850.545,250.565 850.37,250.215 850.09,249.865 C850.09,249.06 849.95,248.36 849.74,247.73 C849.775,247.59 849.81,247.415 849.81,247.24 C849.81,246.82 849.565,246.4 849.145,246.05 C848.69,245.7 848.235,245.49 847.78,245.49 C845.855,245.49 843.755,246.61 841.445,248.78 C839.03,251.02 837.84,253.19 837.84,255.22 C837.84,256.305 838.19,257.25 838.96,258.09 C839.695,258.965 840.57,259.385 841.585,259.385 C843.16,259.385 844.91,258.405 846.87,256.445 C847.045,259.105 847.64,260.47 848.655,260.47 C849.005,260.47 849.355,260.33 849.67,260.12 C849.95,259.84 850.125,259.49 850.125,259.14 C850.125,259.035 850.02,258.615 849.88,257.775 C849.705,256.97 849.635,256.34 849.635,255.92 C849.635,254.52 849.845,253.12 850.335,251.65 C850.475,251.265 850.545,251.02 850.545,250.88 L850.545,250.88 Z M847.36,249.865 C847.36,251.055 846.66,252.455 845.33,254.065 C844,255.675 842.775,256.445 841.725,256.445 C840.99,256.445 840.64,256.025 840.64,255.15 C840.64,254.03 841.515,252.63 843.3,250.915 C844.91,249.375 846.065,248.57 846.73,248.57 C847.15,248.57 847.36,249.025 847.36,249.865 L847.36,249.865 Z" id="при-лечении-пиелонеф"></path>
        </g>
    </g>
</svg>