<?xml version="1.0" encoding="UTF-8"?>
<svg width="607px" height="86px" viewBox="0 0 607 86" version="1.1" xmlns="http://www.w3.org/2000/svg" xmlns:xlink="http://www.w3.org/1999/xlink">
    <!-- Generator: Sketch 40.3 (33839) - http://www.bohemiancoding.com/sketch -->
    <title>Канефрон® Н прекрасн</title>
    <desc>Created with Sketch.</desc>
    <defs></defs>
    <g id="Page-1" stroke="none" stroke-width="1" fill="none" fill-rule="evenodd">
        <g id="piolonefrit" transform="translate(-4873.000000, -228.000000)" fill="#354777">
            <g id="Group-12" transform="translate(4868.000000, 224.000000)">
                <path d="M27.902,12.06 C27.788,11.148 27.256,10.578 26.344,10.388 C24.9,10.464 22.658,11.566 19.58,13.656 C17.072,15.404 14.982,17 13.386,18.52 L9.662,22.016 C10.27,18.938 10.878,16.354 11.448,14.302 C11.562,13.77 12.056,12.25 12.93,9.742 C13.728,7.348 14.146,5.98 14.184,5.6 C14.108,4.688 13.576,4.232 12.664,4.232 C12.056,4.232 11.562,4.688 11.258,5.524 C8.978,11.3 7.458,16.658 6.698,21.674 C6.128,25.208 5.824,27.906 5.824,29.806 C5.786,32.048 5.786,33.72 5.786,34.784 C5.786,35.126 5.824,35.544 5.976,36 C5.976,36.38 6.052,36.76 6.242,37.064 C6.432,37.596 6.888,37.9 7.648,37.938 C8.484,37.824 8.94,37.33 9.054,36.456 C8.902,35.164 8.826,33.378 8.826,31.174 C8.826,29.806 8.902,28.172 9.054,26.348 C9.548,26.31 9.928,26.196 10.156,26.006 C10.232,26.006 10.536,25.702 11.144,25.17 C12.702,27.26 14.26,29.008 15.818,30.452 C18.63,33.112 20.72,34.784 22.088,35.468 C23.076,36.266 23.95,36.722 24.71,36.798 C25.508,36.57 25.964,36.038 26.04,35.24 C26.002,34.708 25.584,34.062 24.824,33.34 L22.582,31.25 C22.202,30.946 21.822,30.794 21.442,30.718 L20.91,30.756 C19.77,30.072 18.402,28.856 16.844,27.184 C15.4,25.664 14.222,24.258 13.348,22.928 C17.11,19.28 20.454,16.658 23.342,14.986 C23.836,15.214 24.178,15.29 24.406,15.29 C24.672,15.29 25.014,15.138 25.432,14.834 C27.066,14.188 27.902,13.276 27.902,12.06 L27.902,12.06 Z M42.836,27.184 C42.836,26.842 42.646,26.462 42.342,26.082 C42.342,25.208 42.19,24.448 41.962,23.764 C42,23.612 42.038,23.422 42.038,23.232 C42.038,22.776 41.772,22.32 41.316,21.94 C40.822,21.56 40.328,21.332 39.834,21.332 C37.744,21.332 35.464,22.548 32.956,24.904 C30.334,27.336 29.042,29.692 29.042,31.896 C29.042,33.074 29.422,34.1 30.258,35.012 C31.056,35.962 32.006,36.418 33.108,36.418 C34.818,36.418 36.718,35.354 38.846,33.226 C39.036,36.114 39.682,37.596 40.784,37.596 C41.164,37.596 41.544,37.444 41.886,37.216 C42.19,36.912 42.38,36.532 42.38,36.152 C42.38,36.038 42.266,35.582 42.114,34.67 C41.924,33.796 41.848,33.112 41.848,32.656 C41.848,31.136 42.076,29.616 42.608,28.02 C42.76,27.602 42.836,27.336 42.836,27.184 L42.836,27.184 Z M39.378,26.082 C39.378,27.374 38.618,28.894 37.174,30.642 C35.73,32.39 34.4,33.226 33.26,33.226 C32.462,33.226 32.082,32.77 32.082,31.82 C32.082,30.604 33.032,29.084 34.97,27.222 C36.718,25.55 37.972,24.676 38.694,24.676 C39.15,24.676 39.378,25.17 39.378,26.082 L39.378,26.082 Z M59.366,21.94 C59.366,20.952 58.91,20.458 57.998,20.458 C57.238,20.458 56.744,21.142 56.554,22.434 C56.364,23.46 56.136,24.904 55.908,26.766 C54.236,27.184 52.602,27.488 51.006,27.64 C51.386,25.208 51.766,23.384 52.146,22.13 C52.374,21.446 52.564,20.914 52.754,20.458 C52.678,19.432 52.222,18.9 51.31,18.9 C50.664,18.9 50.246,19.204 50.018,19.812 C49.258,21.636 48.65,24.258 48.27,27.678 C47.662,27.678 47.244,27.64 47.016,27.602 C46.256,27.602 45.914,28.058 45.914,28.894 C45.914,29.844 46.446,30.3 47.548,30.3 L48.004,30.3 C47.89,31.744 47.776,33.378 47.7,35.278 C47.7,35.392 47.662,35.582 47.624,35.81 C47.548,36.038 47.548,36.19 47.548,36.342 C47.548,36.722 47.7,37.064 48.004,37.368 C48.308,37.672 48.65,37.824 49.03,37.824 C49.942,37.824 50.436,37.33 50.474,36.38 C50.474,35.088 50.588,33.036 50.778,30.224 C52.412,30.072 54.008,29.806 55.604,29.426 C55.414,31.44 55.3,33.036 55.3,34.176 C55.3,34.29 55.262,34.442 55.224,34.67 C55.148,34.86 55.11,35.012 55.11,35.126 C55.11,36.038 55.224,36.722 55.528,37.178 C55.832,37.672 56.174,37.938 56.63,37.938 C57.01,37.938 57.352,37.786 57.656,37.482 C57.922,37.178 58.074,36.798 58.074,36.38 C58.074,36.304 58.036,36.114 58.036,35.734 C57.998,35.354 57.998,35.05 57.998,34.898 C57.998,32.352 58.378,28.438 59.214,23.156 C59.29,22.472 59.366,22.092 59.366,21.94 L59.366,21.94 Z M78.328,35.316 C78.328,34.936 78.176,34.556 77.872,34.176 C77.568,33.872 77.188,33.682 76.808,33.682 C76.504,33.682 76.01,33.758 75.364,33.834 C74.718,33.91 74.224,33.948 73.92,33.948 C72.78,33.948 71.792,33.416 70.88,32.314 C74.68,30.262 76.58,27.83 76.58,25.018 C76.58,23.954 76.124,22.928 75.212,22.016 C74.3,21.104 73.388,20.648 72.438,20.648 C70.804,20.648 69.474,21.598 68.41,23.46 C67.498,25.056 67.042,26.766 67.042,28.59 C67.042,28.97 67.08,29.502 67.194,30.148 L66.32,30.148 C65.788,30.148 65.294,29.958 64.762,29.578 C64.23,29.198 63.85,29.008 63.622,29.008 C62.634,29.008 62.14,29.54 62.14,30.604 C62.14,31.44 62.748,32.124 64.04,32.656 C65.028,33.074 65.978,33.264 66.966,33.264 L68.106,33.264 C69.474,35.886 71.602,37.178 74.49,37.178 C77.036,37.178 78.328,36.532 78.328,35.316 L78.328,35.316 Z M73.578,25.17 C73.578,26.424 72.438,27.792 70.158,29.274 L70.158,28.59 C70.158,27.564 70.31,26.576 70.69,25.626 C71.07,24.486 71.602,23.916 72.286,23.916 C72.59,23.916 72.894,24.068 73.198,24.296 C73.426,24.6 73.578,24.866 73.578,25.17 L73.578,25.17 Z M107.74,25.512 C107.74,23.84 107.36,22.434 106.6,21.294 C105.764,20.116 104.7,19.508 103.408,19.508 C100.748,19.508 98.202,21.902 95.808,26.614 L96.226,23.042 C96.682,19.926 97.024,17.646 97.328,16.202 C97.328,15.518 97.138,14.872 96.796,14.34 C96.454,13.846 95.96,13.58 95.352,13.58 C94.516,13.58 94.022,14.53 93.832,16.392 C93.338,20.496 93.072,22.814 93.034,23.384 C92.426,24.904 91.324,26.728 89.652,28.856 C87.828,31.136 86.46,32.238 85.624,32.238 C84.712,32.238 84.294,31.744 84.294,30.718 C84.294,29.274 84.788,27.678 85.852,25.968 C86.878,24.296 87.904,23.422 88.892,23.422 C89.348,23.422 89.804,23.612 90.336,23.992 C90.754,24.334 91.096,24.486 91.362,24.486 C91.97,24.486 92.312,24.258 92.312,23.726 C92.312,23.65 92.274,23.536 92.274,23.422 C92.008,23.042 91.818,22.776 91.666,22.548 C90.982,21.446 89.956,20.876 88.588,20.876 C86.726,20.876 85.016,22.092 83.42,24.486 C81.9,26.728 81.14,28.856 81.14,30.908 C81.14,32.276 81.444,33.34 82.09,34.176 C82.698,35.012 83.61,35.392 84.826,35.392 C87.448,35.392 90.146,33.378 92.882,29.274 C92.464,34.328 92.16,38.052 91.932,40.522 C91.894,40.75 91.856,41.054 91.818,41.51 C91.742,41.814 91.742,42.042 91.742,42.194 C91.742,43.296 92.046,44.056 92.654,44.436 C92.996,44.626 93.414,44.74 93.908,44.74 C94.364,44.74 94.706,44.474 95.01,43.98 C95.276,43.448 95.428,42.878 95.428,42.308 C95.428,42.232 95.39,41.928 95.352,41.472 C95.276,40.94 95.276,40.56 95.276,40.408 C95.276,40.218 95.238,39.876 95.238,39.42 C95.2,38.964 95.2,38.622 95.2,38.47 C95.2,38.318 95.2,37.672 95.238,36.57 C95.238,35.506 95.276,34.86 95.276,34.632 C95.276,32.96 96.302,30.528 98.354,27.26 C100.406,24.068 101.964,22.434 103.104,22.434 C104.244,22.434 104.814,23.536 104.814,25.702 C104.814,27.146 104.586,28.476 104.13,29.692 C103.484,31.326 102.61,32.124 101.47,32.124 C101.014,32.124 100.444,31.782 99.836,31.06 C99.228,30.376 98.772,29.996 98.468,29.92 C98.126,29.996 97.822,30.186 97.594,30.566 C97.328,30.946 97.214,31.288 97.214,31.63 C97.214,32.276 97.67,32.96 98.582,33.682 C99.494,34.442 100.482,34.822 101.546,34.822 C103.826,34.822 105.46,33.758 106.524,31.63 C107.322,30.034 107.74,28.02 107.74,25.512 L107.74,25.512 Z M125.41,22.852 C125.41,21.028 124.992,19.508 124.156,18.292 C123.244,16.962 121.914,16.278 120.242,16.278 C117.848,16.278 115.986,17.95 114.656,21.294 C113.744,23.612 113.288,26.272 113.288,29.236 C113.288,29.616 113.288,29.92 113.326,30.11 C112.262,30.49 111.768,31.06 111.768,31.858 C111.768,32.846 112.262,33.378 113.326,33.454 C113.402,34.062 113.44,34.974 113.44,36.19 C113.44,38.622 113.288,40.332 113.06,41.396 C112.794,42.422 112.68,42.992 112.68,43.106 C112.68,43.524 112.832,43.904 113.136,44.246 C113.44,44.55 113.82,44.74 114.238,44.74 C115.036,44.74 115.606,43.942 115.948,42.384 C116.328,40.636 116.518,38.85 116.518,37.102 C116.518,35.506 116.442,33.948 116.328,32.428 C122.37,30.224 125.41,27.032 125.41,22.852 L125.41,22.852 Z M122.37,22.206 C122.37,25.322 120.356,27.602 116.366,29.046 C116.366,26.994 116.708,24.904 117.43,22.852 C118.228,20.61 119.178,19.47 120.242,19.47 C120.888,19.47 121.42,19.774 121.838,20.306 C122.18,20.838 122.37,21.484 122.37,22.206 L122.37,22.206 Z M141.218,27.64 C141.218,26.158 140.8,24.79 139.964,23.574 C139.09,22.396 137.988,21.56 136.658,21.104 C136.126,20.952 135.822,20.876 135.746,20.876 C135.442,20.876 135.1,21.066 134.644,21.37 C134.112,21.674 133.694,21.902 133.39,22.016 C132.098,22.662 131.034,23.802 130.274,25.398 C129.514,26.842 129.172,28.4 129.172,30.034 C129.172,31.972 129.666,33.568 130.73,34.822 C131.794,36.038 133.124,36.684 134.72,36.684 C136.544,36.684 138.102,35.848 139.356,34.1 C140.572,32.352 141.218,30.224 141.218,27.64 L141.218,27.64 Z M138.216,28.21 C138.216,29.502 137.836,30.68 137.152,31.782 C136.392,32.922 135.594,33.492 134.682,33.492 C133.922,33.492 133.314,33.15 132.858,32.428 C132.364,31.744 132.136,30.946 132.136,30.034 C132.136,28.818 132.402,27.678 133.01,26.614 C133.694,25.398 134.568,24.752 135.632,24.752 C136.012,24.98 136.506,25.094 137.114,25.094 C137.836,25.55 138.216,26.614 138.216,28.21 L138.216,28.21 Z M157.786,21.94 C157.786,20.952 157.33,20.458 156.418,20.458 C155.658,20.458 155.164,21.142 154.974,22.434 C154.784,23.46 154.556,24.904 154.328,26.766 C152.656,27.184 151.022,27.488 149.426,27.64 C149.806,25.208 150.186,23.384 150.566,22.13 C150.794,21.446 150.984,20.914 151.174,20.458 C151.098,19.432 150.642,18.9 149.73,18.9 C149.084,18.9 148.666,19.204 148.438,19.812 C147.678,21.636 147.07,24.258 146.69,27.678 C146.082,27.678 145.664,27.64 145.436,27.602 C144.676,27.602 144.334,28.058 144.334,28.894 C144.334,29.844 144.866,30.3 145.968,30.3 L146.424,30.3 C146.31,31.744 146.196,33.378 146.12,35.278 C146.12,35.392 146.082,35.582 146.044,35.81 C145.968,36.038 145.968,36.19 145.968,36.342 C145.968,36.722 146.12,37.064 146.424,37.368 C146.728,37.672 147.07,37.824 147.45,37.824 C148.362,37.824 148.856,37.33 148.894,36.38 C148.894,35.088 149.008,33.036 149.198,30.224 C150.832,30.072 152.428,29.806 154.024,29.426 C153.834,31.44 153.72,33.036 153.72,34.176 C153.72,34.29 153.682,34.442 153.644,34.67 C153.568,34.86 153.53,35.012 153.53,35.126 C153.53,36.038 153.644,36.722 153.948,37.178 C154.252,37.672 154.594,37.938 155.05,37.938 C155.43,37.938 155.772,37.786 156.076,37.482 C156.342,37.178 156.494,36.798 156.494,36.38 C156.494,36.304 156.456,36.114 156.456,35.734 C156.418,35.354 156.418,35.05 156.418,34.898 C156.418,32.352 156.798,28.438 157.634,23.156 C157.71,22.472 157.786,22.092 157.786,21.94 L157.786,21.94 Z M184.082,16.164 C184.082,13.352 183.208,11.186 181.46,9.59 C179.788,8.07 177.546,7.272 174.81,7.158 C174.582,6.702 174.278,6.436 173.898,6.436 C170.63,6.436 167.78,7.652 165.424,10.008 C163.03,12.402 161.852,15.29 161.852,18.71 C161.852,21.75 162.688,24.258 164.398,26.234 C166.146,28.324 168.426,29.35 171.276,29.35 C174.734,29.35 177.736,28.058 180.282,25.474 C182.79,22.852 184.082,19.736 184.082,16.164 L184.082,16.164 Z M181.954,16.43 C181.954,19.394 180.852,21.94 178.724,23.992 C176.558,26.12 174.012,27.146 171.086,27.146 C168.92,27.146 167.21,26.272 165.918,24.524 C164.74,22.966 164.17,21.028 164.17,18.71 C164.17,16.164 164.93,13.998 166.45,12.174 C167.932,10.35 169.908,9.21 172.34,8.83 C172.796,9.286 173.062,9.514 173.138,9.514 C173.29,9.514 173.556,9.514 173.86,9.476 C174.202,9.438 174.468,9.4 174.658,9.4 C179.522,9.4 181.954,11.756 181.954,16.43 L181.954,16.43 Z M177.014,14.796 C177.014,13.846 176.672,13.086 176.064,12.478 C175.38,11.908 174.62,11.604 173.708,11.604 C172.948,11.604 172.074,11.794 171.162,12.174 C170.212,12.592 169.452,13.086 168.882,13.694 C168.502,14.074 168.274,14.454 168.236,14.91 C168.274,15.29 168.54,15.594 168.996,15.86 C168.844,17 168.768,17.874 168.73,18.406 C168.198,18.558 167.932,18.9 167.932,19.508 C167.932,20.078 168.16,20.42 168.654,20.534 L168.654,21.142 C168.654,21.788 168.73,22.548 168.92,23.422 C168.996,23.992 169.376,24.258 169.984,24.258 C170.706,24.258 171.086,23.878 171.086,23.08 C171.01,22.7 170.972,22.168 170.934,21.408 C172.758,22.244 173.86,22.89 174.202,23.384 C174.278,24.106 174.62,24.448 175.304,24.448 C176.026,24.448 176.406,24.068 176.406,23.232 C176.406,22.016 175.114,20.838 172.568,19.622 C175.532,18.254 177.014,16.62 177.014,14.796 L177.014,14.796 Z M174.81,14.872 C174.81,16.012 173.518,17.038 171.01,17.988 C171.124,16.81 171.2,15.708 171.276,14.72 C172.036,14.226 172.91,13.96 173.898,13.96 C174.506,13.96 174.81,14.264 174.81,14.872 L174.81,14.872 Z M222.5,9.362 C222.5,8.982 222.348,8.602 222.044,8.26 C221.74,7.956 221.36,7.766 220.98,7.766 C220.258,7.766 219.802,8.184 219.612,8.982 C219.346,10.122 219.156,10.996 219.08,11.604 C218.7,13.428 218.32,15.936 217.94,19.128 C214.976,20.192 211.48,20.8 207.452,21.028 C207.756,18.33 208.212,15.746 208.82,13.314 C209.2,11.566 209.504,10.426 209.732,9.856 C210.378,7.88 210.72,6.74 210.72,6.474 C210.72,5.448 210.188,4.916 209.2,4.916 C208.592,4.916 208.136,5.258 207.794,5.904 C207.68,6.094 207.452,6.664 207.148,7.652 C205.856,11.3 204.906,15.822 204.336,21.218 C204.032,21.218 203.462,21.18 202.664,21.104 C201.866,21.066 201.41,21.028 201.296,21.028 C200.916,21.028 200.612,21.218 200.384,21.522 C200.118,21.864 200.004,22.206 200.004,22.586 C200.004,23.726 200.84,24.258 202.588,24.258 L203.386,24.258 C203.69,24.258 203.956,24.22 204.108,24.22 C203.652,29.312 203.462,33.378 203.462,36.418 C203.462,36.874 203.576,37.254 203.88,37.634 C204.146,38.014 204.488,38.204 204.906,38.204 C205.324,38.204 205.704,37.976 206.046,37.596 C206.35,37.178 206.502,36.684 206.54,36.152 C206.768,31.136 206.996,27.146 207.224,24.144 C211.024,23.84 214.444,23.27 217.56,22.51 C217.028,28.058 216.8,32.276 216.8,35.202 C216.8,37.254 217.37,38.318 218.548,38.318 C218.928,38.318 219.308,38.166 219.612,37.862 C219.916,37.52 220.068,37.14 220.068,36.722 C220.068,36.57 220.03,36.152 220.03,35.43 C219.992,34.708 219.992,34.176 219.992,33.796 C219.992,27.602 220.714,20.078 222.196,11.262 L222.5,9.362 Z M252.824,21.788 C252.824,21.37 252.634,20.99 252.254,20.686 C251.836,20.42 251.418,20.268 251,20.192 C247.124,20.496 244.046,20.762 241.842,20.914 C240.512,21.028 239.866,21.484 239.866,22.32 C239.866,22.852 239.942,23.308 240.17,23.726 C239.904,27.64 239.79,29.616 239.79,29.692 C239.524,32.428 239.41,33.796 239.41,33.796 C239.41,34.29 239.562,34.784 239.904,35.278 C240.246,35.772 240.626,36 241.082,36 C241.842,36 242.222,35.506 242.298,34.48 C242.526,30.376 242.754,26.842 243.058,23.878 C244.996,23.612 247.01,23.422 249.1,23.346 C249.1,23.46 249.024,25.322 248.91,28.894 C248.758,32.086 248.72,33.796 248.72,34.024 C248.72,36.494 249.366,37.748 250.734,37.748 C251.456,37.748 251.836,37.33 251.836,36.57 C251.608,35.43 251.532,34.366 251.532,33.454 C251.532,32.238 251.608,30.3 251.76,27.64 C251.798,27.222 251.874,26.614 251.988,25.778 C252.064,25.094 252.102,24.714 252.102,24.562 C252.102,24.334 252.026,23.992 251.95,23.536 C252.52,22.928 252.824,22.358 252.824,21.788 L252.824,21.788 Z M270.494,22.852 C270.494,21.028 270.076,19.508 269.24,18.292 C268.328,16.962 266.998,16.278 265.326,16.278 C262.932,16.278 261.07,17.95 259.74,21.294 C258.828,23.612 258.372,26.272 258.372,29.236 C258.372,29.616 258.372,29.92 258.41,30.11 C257.346,30.49 256.852,31.06 256.852,31.858 C256.852,32.846 257.346,33.378 258.41,33.454 C258.486,34.062 258.524,34.974 258.524,36.19 C258.524,38.622 258.372,40.332 258.144,41.396 C257.878,42.422 257.764,42.992 257.764,43.106 C257.764,43.524 257.916,43.904 258.22,44.246 C258.524,44.55 258.904,44.74 259.322,44.74 C260.12,44.74 260.69,43.942 261.032,42.384 C261.412,40.636 261.602,38.85 261.602,37.102 C261.602,35.506 261.526,33.948 261.412,32.428 C267.454,30.224 270.494,27.032 270.494,22.852 L270.494,22.852 Z M267.454,22.206 C267.454,25.322 265.44,27.602 261.45,29.046 C261.45,26.994 261.792,24.904 262.514,22.852 C263.312,20.61 264.262,19.47 265.326,19.47 C265.972,19.47 266.504,19.774 266.922,20.306 C267.264,20.838 267.454,21.484 267.454,22.206 L267.454,22.206 Z M289.342,35.316 C289.342,34.936 289.19,34.556 288.886,34.176 C288.582,33.872 288.202,33.682 287.822,33.682 C287.518,33.682 287.024,33.758 286.378,33.834 C285.732,33.91 285.238,33.948 284.934,33.948 C283.794,33.948 282.806,33.416 281.894,32.314 C285.694,30.262 287.594,27.83 287.594,25.018 C287.594,23.954 287.138,22.928 286.226,22.016 C285.314,21.104 284.402,20.648 283.452,20.648 C281.818,20.648 280.488,21.598 279.424,23.46 C278.512,25.056 278.056,26.766 278.056,28.59 C278.056,28.97 278.094,29.502 278.208,30.148 L277.334,30.148 C276.802,30.148 276.308,29.958 275.776,29.578 C275.244,29.198 274.864,29.008 274.636,29.008 C273.648,29.008 273.154,29.54 273.154,30.604 C273.154,31.44 273.762,32.124 275.054,32.656 C276.042,33.074 276.992,33.264 277.98,33.264 L279.12,33.264 C280.488,35.886 282.616,37.178 285.504,37.178 C288.05,37.178 289.342,36.532 289.342,35.316 L289.342,35.316 Z M284.592,25.17 C284.592,26.424 283.452,27.792 281.172,29.274 L281.172,28.59 C281.172,27.564 281.324,26.576 281.704,25.626 C282.084,24.486 282.616,23.916 283.3,23.916 C283.604,23.916 283.908,24.068 284.212,24.296 C284.44,24.6 284.592,24.866 284.592,25.17 L284.592,25.17 Z M305.15,23.574 C305.15,23.27 304.998,22.928 304.694,22.586 C304.39,22.282 304.048,22.13 303.744,22.13 C303.44,22.13 302.794,22.358 301.844,22.814 C300.248,23.574 298.234,25.018 295.878,27.07 C296.41,24.866 296.904,23.118 297.436,21.864 C297.74,21.066 297.892,20.572 297.892,20.42 C297.892,19.432 297.398,18.938 296.486,18.938 C295.878,18.938 295.422,19.28 295.118,19.964 C293.256,24.524 292.306,29.54 292.23,34.974 C292.154,35.164 292.154,35.354 292.154,35.544 C292.154,36 292.23,36.418 292.382,36.836 C292.61,37.52 293.142,37.9 293.902,37.9 C294.738,37.9 295.156,37.406 295.156,36.456 C295.156,36.38 295.118,36.152 295.118,35.772 C295.08,35.392 295.08,35.126 295.08,34.898 L295.08,33.492 C295.08,32.96 295.08,32.352 295.156,31.668 C295.422,31.516 295.574,31.44 295.612,31.402 C297.056,33.34 298.918,35.05 301.16,36.532 C301.844,37.026 302.376,37.292 302.756,37.292 C303.668,37.292 304.124,36.798 304.124,35.848 C304.124,35.468 303.782,34.936 303.174,34.328 C302.11,33.378 301.502,32.884 301.274,32.884 C301.198,32.884 301.084,32.922 301.008,32.922 C299.526,31.744 298.386,30.604 297.626,29.502 C299.45,27.792 300.97,26.576 302.224,25.892 C302.376,25.968 302.528,26.006 302.718,26.006 C303.212,26.006 303.744,25.74 304.276,25.208 C304.846,24.714 305.15,24.182 305.15,23.574 L305.15,23.574 Z M322.022,22.852 C322.022,21.028 321.604,19.508 320.768,18.292 C319.856,16.962 318.526,16.278 316.854,16.278 C314.46,16.278 312.598,17.95 311.268,21.294 C310.356,23.612 309.9,26.272 309.9,29.236 C309.9,29.616 309.9,29.92 309.938,30.11 C308.874,30.49 308.38,31.06 308.38,31.858 C308.38,32.846 308.874,33.378 309.938,33.454 C310.014,34.062 310.052,34.974 310.052,36.19 C310.052,38.622 309.9,40.332 309.672,41.396 C309.406,42.422 309.292,42.992 309.292,43.106 C309.292,43.524 309.444,43.904 309.748,44.246 C310.052,44.55 310.432,44.74 310.85,44.74 C311.648,44.74 312.218,43.942 312.56,42.384 C312.94,40.636 313.13,38.85 313.13,37.102 C313.13,35.506 313.054,33.948 312.94,32.428 C318.982,30.224 322.022,27.032 322.022,22.852 L322.022,22.852 Z M318.982,22.206 C318.982,25.322 316.968,27.602 312.978,29.046 C312.978,26.994 313.32,24.904 314.042,22.852 C314.84,20.61 315.79,19.47 316.854,19.47 C317.5,19.47 318.032,19.774 318.45,20.306 C318.792,20.838 318.982,21.484 318.982,22.206 L318.982,22.206 Z M339.578,27.184 C339.578,26.842 339.388,26.462 339.084,26.082 C339.084,25.208 338.932,24.448 338.704,23.764 C338.742,23.612 338.78,23.422 338.78,23.232 C338.78,22.776 338.514,22.32 338.058,21.94 C337.564,21.56 337.07,21.332 336.576,21.332 C334.486,21.332 332.206,22.548 329.698,24.904 C327.076,27.336 325.784,29.692 325.784,31.896 C325.784,33.074 326.164,34.1 327,35.012 C327.798,35.962 328.748,36.418 329.85,36.418 C331.56,36.418 333.46,35.354 335.588,33.226 C335.778,36.114 336.424,37.596 337.526,37.596 C337.906,37.596 338.286,37.444 338.628,37.216 C338.932,36.912 339.122,36.532 339.122,36.152 C339.122,36.038 339.008,35.582 338.856,34.67 C338.666,33.796 338.59,33.112 338.59,32.656 C338.59,31.136 338.818,29.616 339.35,28.02 C339.502,27.602 339.578,27.336 339.578,27.184 L339.578,27.184 Z M336.12,26.082 C336.12,27.374 335.36,28.894 333.916,30.642 C332.472,32.39 331.142,33.226 330.002,33.226 C329.204,33.226 328.824,32.77 328.824,31.82 C328.824,30.604 329.774,29.084 331.712,27.222 C333.46,25.55 334.714,24.676 335.436,24.676 C335.892,24.676 336.12,25.17 336.12,26.082 L336.12,26.082 Z M355.196,32.504 C355.196,32.124 355.044,31.744 354.74,31.364 C354.436,31.06 354.094,30.87 353.714,30.87 C353.41,30.87 352.954,31.136 352.422,31.63 C351.966,32.01 351.51,32.39 351.13,32.77 C350.484,33.264 349.686,33.492 348.736,33.492 C347.216,33.492 346.494,32.58 346.494,30.68 C346.494,29.502 346.836,28.324 347.52,27.184 C348.204,26.044 349.04,25.094 350.066,24.41 C350.522,24.676 351.206,24.79 352.156,24.79 C352.65,24.79 353.144,24.6 353.638,24.144 C354.056,23.688 354.284,23.27 354.284,22.814 C354.284,22.206 354.056,21.75 353.6,21.37 C353.106,21.028 352.574,20.838 352.004,20.838 C349.61,20.838 347.482,22.092 345.658,24.562 C344.176,26.538 343.454,28.704 343.454,31.06 C343.454,32.732 343.986,34.062 345.05,35.126 C346.114,36.152 347.444,36.684 349.04,36.684 C350.484,36.684 351.966,36.114 353.41,34.974 C354.588,34.062 355.196,33.264 355.196,32.504 L355.196,32.504 Z M371.346,21.94 C371.346,20.952 370.89,20.458 369.978,20.458 C369.218,20.458 368.724,21.142 368.534,22.434 C368.344,23.46 368.116,24.904 367.888,26.766 C366.216,27.184 364.582,27.488 362.986,27.64 C363.366,25.208 363.746,23.384 364.126,22.13 C364.354,21.446 364.544,20.914 364.734,20.458 C364.658,19.432 364.202,18.9 363.29,18.9 C362.644,18.9 362.226,19.204 361.998,19.812 C361.238,21.636 360.63,24.258 360.25,27.678 C359.642,27.678 359.224,27.64 358.996,27.602 C358.236,27.602 357.894,28.058 357.894,28.894 C357.894,29.844 358.426,30.3 359.528,30.3 L359.984,30.3 C359.87,31.744 359.756,33.378 359.68,35.278 C359.68,35.392 359.642,35.582 359.604,35.81 C359.528,36.038 359.528,36.19 359.528,36.342 C359.528,36.722 359.68,37.064 359.984,37.368 C360.288,37.672 360.63,37.824 361.01,37.824 C361.922,37.824 362.416,37.33 362.454,36.38 C362.454,35.088 362.568,33.036 362.758,30.224 C364.392,30.072 365.988,29.806 367.584,29.426 C367.394,31.44 367.28,33.036 367.28,34.176 C367.28,34.29 367.242,34.442 367.204,34.67 C367.128,34.86 367.09,35.012 367.09,35.126 C367.09,36.038 367.204,36.722 367.508,37.178 C367.812,37.672 368.154,37.938 368.61,37.938 C368.99,37.938 369.332,37.786 369.636,37.482 C369.902,37.178 370.054,36.798 370.054,36.38 C370.054,36.304 370.016,36.114 370.016,35.734 C369.978,35.354 369.978,35.05 369.978,34.898 C369.978,32.352 370.358,28.438 371.194,23.156 C371.27,22.472 371.346,22.092 371.346,21.94 L371.346,21.94 Z M387.268,27.64 C387.268,26.158 386.85,24.79 386.014,23.574 C385.14,22.396 384.038,21.56 382.708,21.104 C382.176,20.952 381.872,20.876 381.796,20.876 C381.492,20.876 381.15,21.066 380.694,21.37 C380.162,21.674 379.744,21.902 379.44,22.016 C378.148,22.662 377.084,23.802 376.324,25.398 C375.564,26.842 375.222,28.4 375.222,30.034 C375.222,31.972 375.716,33.568 376.78,34.822 C377.844,36.038 379.174,36.684 380.77,36.684 C382.594,36.684 384.152,35.848 385.406,34.1 C386.622,32.352 387.268,30.224 387.268,27.64 L387.268,27.64 Z M384.266,28.21 C384.266,29.502 383.886,30.68 383.202,31.782 C382.442,32.922 381.644,33.492 380.732,33.492 C379.972,33.492 379.364,33.15 378.908,32.428 C378.414,31.744 378.186,30.946 378.186,30.034 C378.186,28.818 378.452,27.678 379.06,26.614 C379.744,25.398 380.618,24.752 381.682,24.752 C382.062,24.98 382.556,25.094 383.164,25.094 C383.886,25.55 384.266,26.614 384.266,28.21 L384.266,28.21 Z M417.592,21.788 C417.592,21.37 417.402,20.99 417.022,20.686 C416.604,20.42 416.186,20.268 415.768,20.192 C411.892,20.496 408.814,20.762 406.61,20.914 C405.28,21.028 404.634,21.484 404.634,22.32 C404.634,22.852 404.71,23.308 404.938,23.726 C404.672,27.64 404.558,29.616 404.558,29.692 C404.292,32.428 404.178,33.796 404.178,33.796 C404.178,34.29 404.33,34.784 404.672,35.278 C405.014,35.772 405.394,36 405.85,36 C406.61,36 406.99,35.506 407.066,34.48 C407.294,30.376 407.522,26.842 407.826,23.878 C409.764,23.612 411.778,23.422 413.868,23.346 C413.868,23.46 413.792,25.322 413.678,28.894 C413.526,32.086 413.488,33.796 413.488,34.024 C413.488,36.494 414.134,37.748 415.502,37.748 C416.224,37.748 416.604,37.33 416.604,36.57 C416.376,35.43 416.3,34.366 416.3,33.454 C416.3,32.238 416.376,30.3 416.528,27.64 C416.566,27.222 416.642,26.614 416.756,25.778 C416.832,25.094 416.87,24.714 416.87,24.562 C416.87,24.334 416.794,23.992 416.718,23.536 C417.288,22.928 417.592,22.358 417.592,21.788 L417.592,21.788 Z M433.552,27.64 C433.552,26.158 433.134,24.79 432.298,23.574 C431.424,22.396 430.322,21.56 428.992,21.104 C428.46,20.952 428.156,20.876 428.08,20.876 C427.776,20.876 427.434,21.066 426.978,21.37 C426.446,21.674 426.028,21.902 425.724,22.016 C424.432,22.662 423.368,23.802 422.608,25.398 C421.848,26.842 421.506,28.4 421.506,30.034 C421.506,31.972 422,33.568 423.064,34.822 C424.128,36.038 425.458,36.684 427.054,36.684 C428.878,36.684 430.436,35.848 431.69,34.1 C432.906,32.352 433.552,30.224 433.552,27.64 L433.552,27.64 Z M430.55,28.21 C430.55,29.502 430.17,30.68 429.486,31.782 C428.726,32.922 427.928,33.492 427.016,33.492 C426.256,33.492 425.648,33.15 425.192,32.428 C424.698,31.744 424.47,30.946 424.47,30.034 C424.47,28.818 424.736,27.678 425.344,26.614 C426.028,25.398 426.902,24.752 427.966,24.752 C428.346,24.98 428.84,25.094 429.448,25.094 C430.17,25.55 430.55,26.614 430.55,28.21 L430.55,28.21 Z M453.844,36.076 C453.844,35.962 453.768,35.772 453.616,35.544 C453.16,34.708 452.628,34.29 452.096,34.29 C452.02,34.29 451.906,34.328 451.716,34.328 C451.906,29.616 452.058,26.196 452.21,24.03 C452.286,22.928 452.514,21.826 452.932,20.686 C452.932,20.306 452.704,19.888 452.324,19.508 C451.944,19.128 451.564,18.938 451.184,18.938 C450.196,18.938 449.018,19.166 447.612,19.546 C445.94,20.04 444.838,20.42 444.306,20.648 C443.47,21.104 443.09,21.674 443.09,22.32 C443.09,22.51 443.166,22.776 443.356,23.156 C443.47,23.536 443.546,23.802 443.546,23.954 C443.546,25.626 443.128,27.526 442.292,29.73 C441.38,32.048 440.354,33.872 439.138,35.202 C437.96,35.278 437.352,35.81 437.276,36.798 C437.124,38.28 437.086,39.572 437.086,40.636 C437.086,40.978 437.238,41.32 437.542,41.624 C437.846,41.928 438.264,42.118 438.72,42.118 C439.594,42.118 440.05,41.662 440.05,40.788 C440.05,40.636 440.012,40.446 439.974,40.18 C439.898,39.914 439.898,39.724 439.898,39.648 C439.898,39.496 439.898,39.344 439.936,39.116 L439.936,38.546 C439.936,38.242 440.202,38.052 440.81,38.014 C443.052,37.748 445.104,37.558 446.928,37.444 C448.258,37.33 449.208,37.292 449.74,37.292 C450.196,37.292 450.462,37.482 450.462,37.862 C450.462,37.976 450.462,38.394 450.5,39.154 L450.5,40.484 C450.5,41.548 450.88,42.118 451.716,42.118 C452.02,42.118 452.4,42.004 452.818,41.814 C453.16,41.586 453.35,41.282 453.35,40.978 C453.35,40.712 453.312,40.37 453.274,39.914 C453.198,39.458 453.16,39.078 453.16,38.85 C453.16,38.242 453.198,37.71 453.35,37.292 C453.35,37.216 453.426,37.026 453.578,36.722 C453.73,36.38 453.844,36.152 453.844,36.076 L453.844,36.076 Z M449.398,22.168 C449.398,27.336 449.17,31.516 448.714,34.67 C445.75,34.86 443.736,35.012 442.634,35.164 C444.496,32.2 445.788,28.096 446.51,22.928 C447.118,22.624 448.106,22.358 449.398,22.168 L449.398,22.168 Z M472.616,23.878 C472.616,23.46 472.426,23.118 472.084,22.814 C471.742,22.51 471.362,22.358 470.944,22.358 C470.716,22.358 470.298,22.624 469.614,23.118 C467.752,24.562 466.308,25.664 465.282,26.5 C464.37,25.208 463.458,23.992 462.508,22.852 C461.558,21.712 460.836,21.142 460.38,21.142 C459.164,21.142 458.594,21.75 458.594,22.928 C458.594,23.232 458.936,23.916 459.658,24.942 C460.266,25.854 460.722,26.462 461.102,26.766 C461.292,26.994 461.52,27.146 461.824,27.222 C462.204,27.716 462.546,28.134 462.774,28.476 C460.798,30.072 459.354,31.326 458.404,32.238 C457.15,33.416 456.542,34.328 456.542,34.936 C456.542,36 457.074,36.57 458.138,36.57 C458.518,36.57 458.974,36.342 459.43,35.886 C460.798,34.442 462.508,32.922 464.56,31.25 C465.434,32.77 466.232,34.252 466.916,35.772 C467.22,36.418 467.752,36.76 468.474,36.76 C468.816,36.76 469.158,36.608 469.5,36.304 C469.842,36 470.032,35.62 470.032,35.24 C470.032,34.936 469.652,34.062 468.968,32.618 C468.436,31.554 467.79,30.452 467.068,29.236 C469.12,27.64 470.716,26.31 471.856,25.322 C472.35,24.904 472.616,24.41 472.616,23.878 L472.616,23.878 Z M487.778,27.64 C487.778,26.158 487.36,24.79 486.524,23.574 C485.65,22.396 484.548,21.56 483.218,21.104 C482.686,20.952 482.382,20.876 482.306,20.876 C482.002,20.876 481.66,21.066 481.204,21.37 C480.672,21.674 480.254,21.902 479.95,22.016 C478.658,22.662 477.594,23.802 476.834,25.398 C476.074,26.842 475.732,28.4 475.732,30.034 C475.732,31.972 476.226,33.568 477.29,34.822 C478.354,36.038 479.684,36.684 481.28,36.684 C483.104,36.684 484.662,35.848 485.916,34.1 C487.132,32.352 487.778,30.224 487.778,27.64 L487.778,27.64 Z M484.776,28.21 C484.776,29.502 484.396,30.68 483.712,31.782 C482.952,32.922 482.154,33.492 481.242,33.492 C480.482,33.492 479.874,33.15 479.418,32.428 C478.924,31.744 478.696,30.946 478.696,30.034 C478.696,28.818 478.962,27.678 479.57,26.614 C480.254,25.398 481.128,24.752 482.192,24.752 C482.572,24.98 483.066,25.094 483.674,25.094 C484.396,25.55 484.776,26.614 484.776,28.21 L484.776,28.21 Z M508.07,36.076 C508.07,35.962 507.994,35.772 507.842,35.544 C507.386,34.708 506.854,34.29 506.322,34.29 C506.246,34.29 506.132,34.328 505.942,34.328 C506.132,29.616 506.284,26.196 506.436,24.03 C506.512,22.928 506.74,21.826 507.158,20.686 C507.158,20.306 506.93,19.888 506.55,19.508 C506.17,19.128 505.79,18.938 505.41,18.938 C504.422,18.938 503.244,19.166 501.838,19.546 C500.166,20.04 499.064,20.42 498.532,20.648 C497.696,21.104 497.316,21.674 497.316,22.32 C497.316,22.51 497.392,22.776 497.582,23.156 C497.696,23.536 497.772,23.802 497.772,23.954 C497.772,25.626 497.354,27.526 496.518,29.73 C495.606,32.048 494.58,33.872 493.364,35.202 C492.186,35.278 491.578,35.81 491.502,36.798 C491.35,38.28 491.312,39.572 491.312,40.636 C491.312,40.978 491.464,41.32 491.768,41.624 C492.072,41.928 492.49,42.118 492.946,42.118 C493.82,42.118 494.276,41.662 494.276,40.788 C494.276,40.636 494.238,40.446 494.2,40.18 C494.124,39.914 494.124,39.724 494.124,39.648 C494.124,39.496 494.124,39.344 494.162,39.116 L494.162,38.546 C494.162,38.242 494.428,38.052 495.036,38.014 C497.278,37.748 499.33,37.558 501.154,37.444 C502.484,37.33 503.434,37.292 503.966,37.292 C504.422,37.292 504.688,37.482 504.688,37.862 C504.688,37.976 504.688,38.394 504.726,39.154 L504.726,40.484 C504.726,41.548 505.106,42.118 505.942,42.118 C506.246,42.118 506.626,42.004 507.044,41.814 C507.386,41.586 507.576,41.282 507.576,40.978 C507.576,40.712 507.538,40.37 507.5,39.914 C507.424,39.458 507.386,39.078 507.386,38.85 C507.386,38.242 507.424,37.71 507.576,37.292 C507.576,37.216 507.652,37.026 507.804,36.722 C507.956,36.38 508.07,36.152 508.07,36.076 L508.07,36.076 Z M503.624,22.168 C503.624,27.336 503.396,31.516 502.94,34.67 C499.976,34.86 497.962,35.012 496.86,35.164 C498.722,32.2 500.014,28.096 500.736,22.928 C501.344,22.624 502.332,22.358 503.624,22.168 L503.624,22.168 Z M525.664,36.228 C525.664,35.962 525.474,35.62 525.132,35.24 C524.296,34.328 523.916,32.01 523.916,28.286 C523.916,26.956 524.106,24.714 524.524,21.56 C524.524,21.142 524.334,20.762 524.03,20.382 C523.688,20.04 523.308,19.85 522.89,19.85 C522.244,19.85 520.876,21.256 518.824,24.068 C517.152,26.272 515.784,28.286 514.644,30.034 C514.91,27.07 515.1,24.904 515.214,23.612 C515.214,23.004 514.986,22.472 514.606,22.016 C514.226,21.598 513.732,21.37 513.124,21.37 C512.782,21.37 512.478,21.598 512.174,22.016 C512.25,23.118 512.326,23.764 512.326,23.916 C512.326,24.6 512.212,26.31 512.022,29.084 L511.946,30.186 C511.908,30.756 511.832,31.516 511.756,32.466 C511.642,33.378 511.566,33.948 511.566,34.176 C511.604,34.708 511.756,35.126 512.06,35.354 C512.668,35.962 513.048,36.228 513.2,36.228 C513.732,36.228 514.378,35.658 515.062,34.442 C516.468,32.086 517.456,30.414 518.064,29.502 C519.052,27.868 520.116,26.348 521.294,24.98 C521.294,25.36 521.256,26.158 521.256,27.336 C521.218,28.552 521.218,29.198 521.218,29.35 C521.218,31.326 521.408,32.998 521.826,34.442 C522.396,36.532 523.232,37.596 524.296,37.596 C524.524,37.596 524.828,37.406 525.17,37.102 C525.474,36.722 525.664,36.456 525.664,36.228 L525.664,36.228 Z M544.816,20.192 C544.816,19.812 544.664,19.432 544.398,19.09 C544.132,18.786 543.828,18.596 543.486,18.596 C542.916,18.596 542.118,18.748 541.054,18.976 C536.874,19.964 533.15,20.838 529.958,21.598 C529.73,21.674 529.578,21.674 529.502,21.674 C528.742,21.826 528.362,22.396 528.362,23.346 C528.362,24.41 528.78,24.904 529.692,24.904 C530.794,24.676 531.668,24.486 532.276,24.296 C533.378,24.068 534.328,23.84 535.126,23.688 C534.974,26.614 534.898,29.426 534.898,32.086 C534.898,34.67 535.05,36.456 535.354,37.444 C535.582,38.128 536.038,38.47 536.798,38.47 C537.786,38.47 538.28,37.558 538.28,35.772 C538.28,34.898 538.09,34.252 537.786,33.834 C537.71,32.884 537.672,31.402 537.672,29.35 C537.672,27.754 537.786,25.588 538.09,22.89 C539.192,22.624 539.952,22.434 540.408,22.358 C540.75,22.586 541.016,22.662 541.206,22.662 C541.434,22.662 541.7,22.624 542.042,22.472 L543.79,21.674 C544.474,21.37 544.816,20.876 544.816,20.192 L544.816,20.192 Z M576.508,36.076 C576.508,35.962 576.432,35.772 576.28,35.544 C575.824,34.708 575.292,34.29 574.76,34.29 C574.684,34.29 574.57,34.328 574.38,34.328 C574.57,29.616 574.722,26.196 574.874,24.03 C574.95,22.928 575.178,21.826 575.596,20.686 C575.596,20.306 575.368,19.888 574.988,19.508 C574.608,19.128 574.228,18.938 573.848,18.938 C572.86,18.938 571.682,19.166 570.276,19.546 C568.604,20.04 567.502,20.42 566.97,20.648 C566.134,21.104 565.754,21.674 565.754,22.32 C565.754,22.51 565.83,22.776 566.02,23.156 C566.134,23.536 566.21,23.802 566.21,23.954 C566.21,25.626 565.792,27.526 564.956,29.73 C564.044,32.048 563.018,33.872 561.802,35.202 C560.624,35.278 560.016,35.81 559.94,36.798 C559.788,38.28 559.75,39.572 559.75,40.636 C559.75,40.978 559.902,41.32 560.206,41.624 C560.51,41.928 560.928,42.118 561.384,42.118 C562.258,42.118 562.714,41.662 562.714,40.788 C562.714,40.636 562.676,40.446 562.638,40.18 C562.562,39.914 562.562,39.724 562.562,39.648 C562.562,39.496 562.562,39.344 562.6,39.116 L562.6,38.546 C562.6,38.242 562.866,38.052 563.474,38.014 C565.716,37.748 567.768,37.558 569.592,37.444 C570.922,37.33 571.872,37.292 572.404,37.292 C572.86,37.292 573.126,37.482 573.126,37.862 C573.126,37.976 573.126,38.394 573.164,39.154 L573.164,40.484 C573.164,41.548 573.544,42.118 574.38,42.118 C574.684,42.118 575.064,42.004 575.482,41.814 C575.824,41.586 576.014,41.282 576.014,40.978 C576.014,40.712 575.976,40.37 575.938,39.914 C575.862,39.458 575.824,39.078 575.824,38.85 C575.824,38.242 575.862,37.71 576.014,37.292 C576.014,37.216 576.09,37.026 576.242,36.722 C576.394,36.38 576.508,36.152 576.508,36.076 L576.508,36.076 Z M572.062,22.168 C572.062,27.336 571.834,31.516 571.378,34.67 C568.414,34.86 566.4,35.012 565.298,35.164 C567.16,32.2 568.452,28.096 569.174,22.928 C569.782,22.624 570.77,22.358 572.062,22.168 L572.062,22.168 Z M595.356,22.548 C595.356,21.978 595.166,21.484 594.786,21.028 C594.444,20.61 594.026,20.382 593.494,20.382 C593.266,20.382 592.81,20.61 592.126,20.99 C591.442,21.408 589.77,21.75 587.072,22.054 C586.464,21.56 585.97,21.294 585.628,21.294 C585.21,21.294 584.754,21.522 584.298,21.978 C583.842,22.434 583.614,22.928 583.614,23.384 C583.614,23.688 583.766,24.068 584.07,24.486 C584.336,24.942 584.488,25.436 584.488,26.006 C584.488,28.362 584.298,30.3 583.918,31.896 C583.424,33.758 582.778,34.67 582.018,34.67 C581.714,34.67 581.486,34.214 581.41,33.226 C581.334,32.846 581.182,32.618 580.878,32.618 C580.346,32.618 579.966,32.884 579.7,33.34 C579.358,33.872 579.206,34.48 579.206,35.126 C579.206,35.848 579.472,36.38 580.042,36.798 C580.574,37.178 581.182,37.406 581.866,37.406 C583.842,37.406 585.248,36.114 586.084,33.606 C586.616,32.01 587.072,29.122 587.452,24.942 C588.402,24.714 589.846,24.41 591.822,24.068 C591.442,27.792 591.252,30.604 591.252,32.504 C591.252,35.012 591.404,36.57 591.746,37.216 C592.088,37.862 592.582,38.204 593.19,38.204 C594.178,38.204 594.672,37.596 594.672,36.456 C594.52,35.772 594.444,35.164 594.368,34.632 C594.178,33.34 594.102,32.238 594.102,31.288 C594.102,29.236 594.406,26.842 595.052,24.106 C595.242,23.194 595.356,22.7 595.356,22.548 L595.356,22.548 Z M611.506,25.474 C611.506,24.334 611.088,23.726 610.29,23.726 C609.606,23.726 609.112,24.106 608.884,24.866 C608.2,27.07 606.604,28.134 604.172,28.134 C602.614,28.134 601.854,27.792 601.854,27.108 C601.854,26.31 602.728,25.36 604.476,24.296 C606.072,23.384 607.326,22.928 608.314,22.928 C608.542,22.928 608.694,22.966 608.808,23.004 C609.036,23.27 609.264,23.384 609.53,23.384 C609.834,23.384 610.176,23.232 610.518,22.928 C610.822,22.624 610.974,22.282 610.974,21.902 C610.974,20.838 610.214,20.268 608.77,20.268 C606.908,20.268 604.932,20.914 602.804,22.206 C600.334,23.726 599.118,25.398 599.118,27.222 C599.118,28.4 599.574,29.312 600.524,29.92 C601.208,30.452 602.158,30.68 603.336,30.68 L603.678,30.68 L601.132,32.808 L600.904,32.466 C600.486,32.922 600.144,33.302 599.916,33.53 C599.536,33.682 599.194,33.986 598.928,34.404 C598.586,34.86 598.434,35.278 598.434,35.696 C598.434,36.076 598.586,36.418 598.928,36.798 C599.232,37.102 599.612,37.292 599.992,37.292 C600.372,37.292 600.942,36.912 601.702,36.19 C604.4,33.72 606.49,31.858 607.934,30.604 C607.516,33.72 607.326,35.468 607.326,35.848 C607.326,37.102 607.82,37.748 608.808,37.748 C609.644,37.748 610.138,37.216 610.214,36.228 C610.746,31.44 611.164,27.868 611.506,25.474 L611.506,25.474 Z M19.352,66.788 C19.352,66.37 19.162,65.99 18.782,65.686 C18.364,65.42 17.946,65.268 17.528,65.192 C13.652,65.496 10.574,65.762 8.37,65.914 C7.04,66.028 6.394,66.484 6.394,67.32 C6.394,67.852 6.47,68.308 6.698,68.726 C6.432,72.64 6.318,74.616 6.318,74.692 C6.052,77.428 5.938,78.796 5.938,78.796 C5.938,79.29 6.09,79.784 6.432,80.278 C6.774,80.772 7.154,81 7.61,81 C8.37,81 8.75,80.506 8.826,79.48 C9.054,75.376 9.282,71.842 9.586,68.878 C11.524,68.612 13.538,68.422 15.628,68.346 C15.628,68.46 15.552,70.322 15.438,73.894 C15.286,77.086 15.248,78.796 15.248,79.024 C15.248,81.494 15.894,82.748 17.262,82.748 C17.984,82.748 18.364,82.33 18.364,81.57 C18.136,80.43 18.06,79.366 18.06,78.454 C18.06,77.238 18.136,75.3 18.288,72.64 C18.326,72.222 18.402,71.614 18.516,70.778 C18.592,70.094 18.63,69.714 18.63,69.562 C18.63,69.334 18.554,68.992 18.478,68.536 C19.048,67.928 19.352,67.358 19.352,66.788 L19.352,66.788 Z M37.022,67.852 C37.022,66.028 36.604,64.508 35.768,63.292 C34.856,61.962 33.526,61.278 31.854,61.278 C29.46,61.278 27.598,62.95 26.268,66.294 C25.356,68.612 24.9,71.272 24.9,74.236 C24.9,74.616 24.9,74.92 24.938,75.11 C23.874,75.49 23.38,76.06 23.38,76.858 C23.38,77.846 23.874,78.378 24.938,78.454 C25.014,79.062 25.052,79.974 25.052,81.19 C25.052,83.622 24.9,85.332 24.672,86.396 C24.406,87.422 24.292,87.992 24.292,88.106 C24.292,88.524 24.444,88.904 24.748,89.246 C25.052,89.55 25.432,89.74 25.85,89.74 C26.648,89.74 27.218,88.942 27.56,87.384 C27.94,85.636 28.13,83.85 28.13,82.102 C28.13,80.506 28.054,78.948 27.94,77.428 C33.982,75.224 37.022,72.032 37.022,67.852 L37.022,67.852 Z M33.982,67.206 C33.982,70.322 31.968,72.602 27.978,74.046 C27.978,71.994 28.32,69.904 29.042,67.852 C29.84,65.61 30.79,64.47 31.854,64.47 C32.5,64.47 33.032,64.774 33.45,65.306 C33.792,65.838 33.982,66.484 33.982,67.206 L33.982,67.206 Z M52.83,72.64 C52.83,71.158 52.412,69.79 51.576,68.574 C50.702,67.396 49.6,66.56 48.27,66.104 C47.738,65.952 47.434,65.876 47.358,65.876 C47.054,65.876 46.712,66.066 46.256,66.37 C45.724,66.674 45.306,66.902 45.002,67.016 C43.71,67.662 42.646,68.802 41.886,70.398 C41.126,71.842 40.784,73.4 40.784,75.034 C40.784,76.972 41.278,78.568 42.342,79.822 C43.406,81.038 44.736,81.684 46.332,81.684 C48.156,81.684 49.714,80.848 50.968,79.1 C52.184,77.352 52.83,75.224 52.83,72.64 L52.83,72.64 Z M49.828,73.21 C49.828,74.502 49.448,75.68 48.764,76.782 C48.004,77.922 47.206,78.492 46.294,78.492 C45.534,78.492 44.926,78.15 44.47,77.428 C43.976,76.744 43.748,75.946 43.748,75.034 C43.748,73.818 44.014,72.678 44.622,71.614 C45.306,70.398 46.18,69.752 47.244,69.752 C47.624,69.98 48.118,70.094 48.726,70.094 C49.448,70.55 49.828,71.614 49.828,73.21 L49.828,73.21 Z M83.344,70.512 C83.344,68.84 82.964,67.434 82.204,66.294 C81.368,65.116 80.304,64.508 79.012,64.508 C76.352,64.508 73.806,66.902 71.412,71.614 L71.83,68.042 C72.286,64.926 72.628,62.646 72.932,61.202 C72.932,60.518 72.742,59.872 72.4,59.34 C72.058,58.846 71.564,58.58 70.956,58.58 C70.12,58.58 69.626,59.53 69.436,61.392 C68.942,65.496 68.676,67.814 68.638,68.384 C68.03,69.904 66.928,71.728 65.256,73.856 C63.432,76.136 62.064,77.238 61.228,77.238 C60.316,77.238 59.898,76.744 59.898,75.718 C59.898,74.274 60.392,72.678 61.456,70.968 C62.482,69.296 63.508,68.422 64.496,68.422 C64.952,68.422 65.408,68.612 65.94,68.992 C66.358,69.334 66.7,69.486 66.966,69.486 C67.574,69.486 67.916,69.258 67.916,68.726 C67.916,68.65 67.878,68.536 67.878,68.422 C67.612,68.042 67.422,67.776 67.27,67.548 C66.586,66.446 65.56,65.876 64.192,65.876 C62.33,65.876 60.62,67.092 59.024,69.486 C57.504,71.728 56.744,73.856 56.744,75.908 C56.744,77.276 57.048,78.34 57.694,79.176 C58.302,80.012 59.214,80.392 60.43,80.392 C63.052,80.392 65.75,78.378 68.486,74.274 C68.068,79.328 67.764,83.052 67.536,85.522 C67.498,85.75 67.46,86.054 67.422,86.51 C67.346,86.814 67.346,87.042 67.346,87.194 C67.346,88.296 67.65,89.056 68.258,89.436 C68.6,89.626 69.018,89.74 69.512,89.74 C69.968,89.74 70.31,89.474 70.614,88.98 C70.88,88.448 71.032,87.878 71.032,87.308 C71.032,87.232 70.994,86.928 70.956,86.472 C70.88,85.94 70.88,85.56 70.88,85.408 C70.88,85.218 70.842,84.876 70.842,84.42 C70.804,83.964 70.804,83.622 70.804,83.47 C70.804,83.318 70.804,82.672 70.842,81.57 C70.842,80.506 70.88,79.86 70.88,79.632 C70.88,77.96 71.906,75.528 73.958,72.26 C76.01,69.068 77.568,67.434 78.708,67.434 C79.848,67.434 80.418,68.536 80.418,70.702 C80.418,72.146 80.19,73.476 79.734,74.692 C79.088,76.326 78.214,77.124 77.074,77.124 C76.618,77.124 76.048,76.782 75.44,76.06 C74.832,75.376 74.376,74.996 74.072,74.92 C73.73,74.996 73.426,75.186 73.198,75.566 C72.932,75.946 72.818,76.288 72.818,76.63 C72.818,77.276 73.274,77.96 74.186,78.682 C75.098,79.442 76.086,79.822 77.15,79.822 C79.43,79.822 81.064,78.758 82.128,76.63 C82.926,75.034 83.344,73.02 83.344,70.512 L83.344,70.512 Z M101.356,81.228 C101.356,80.962 101.166,80.62 100.824,80.24 C99.988,79.328 99.608,77.01 99.608,73.286 C99.608,71.956 99.798,69.714 100.216,66.56 C100.216,66.142 100.026,65.762 99.722,65.382 C99.38,65.04 99,64.85 98.582,64.85 C97.936,64.85 96.568,66.256 94.516,69.068 C92.844,71.272 91.476,73.286 90.336,75.034 C90.602,72.07 90.792,69.904 90.906,68.612 C90.906,68.004 90.678,67.472 90.298,67.016 C89.918,66.598 89.424,66.37 88.816,66.37 C88.474,66.37 88.17,66.598 87.866,67.016 C87.942,68.118 88.018,68.764 88.018,68.916 C88.018,69.6 87.904,71.31 87.714,74.084 L87.638,75.186 C87.6,75.756 87.524,76.516 87.448,77.466 C87.334,78.378 87.258,78.948 87.258,79.176 C87.296,79.708 87.448,80.126 87.752,80.354 C88.36,80.962 88.74,81.228 88.892,81.228 C89.424,81.228 90.07,80.658 90.754,79.442 C92.16,77.086 93.148,75.414 93.756,74.502 C94.744,72.868 95.808,71.348 96.986,69.98 C96.986,70.36 96.948,71.158 96.948,72.336 C96.91,73.552 96.91,74.198 96.91,74.35 C96.91,76.326 97.1,77.998 97.518,79.442 C98.088,81.532 98.924,82.596 99.988,82.596 C100.216,82.596 100.52,82.406 100.862,82.102 C101.166,81.722 101.356,81.456 101.356,81.228 L101.356,81.228 Z M120.584,67.548 C120.584,66.978 120.394,66.484 120.014,66.028 C119.672,65.61 119.254,65.382 118.722,65.382 C118.494,65.382 118.038,65.61 117.354,65.99 C116.67,66.408 114.998,66.75 112.3,67.054 C111.692,66.56 111.198,66.294 110.856,66.294 C110.438,66.294 109.982,66.522 109.526,66.978 C109.07,67.434 108.842,67.928 108.842,68.384 C108.842,68.688 108.994,69.068 109.298,69.486 C109.564,69.942 109.716,70.436 109.716,71.006 C109.716,73.362 109.526,75.3 109.146,76.896 C108.652,78.758 108.006,79.67 107.246,79.67 C106.942,79.67 106.714,79.214 106.638,78.226 C106.562,77.846 106.41,77.618 106.106,77.618 C105.574,77.618 105.194,77.884 104.928,78.34 C104.586,78.872 104.434,79.48 104.434,80.126 C104.434,80.848 104.7,81.38 105.27,81.798 C105.802,82.178 106.41,82.406 107.094,82.406 C109.07,82.406 110.476,81.114 111.312,78.606 C111.844,77.01 112.3,74.122 112.68,69.942 C113.63,69.714 115.074,69.41 117.05,69.068 C116.67,72.792 116.48,75.604 116.48,77.504 C116.48,80.012 116.632,81.57 116.974,82.216 C117.316,82.862 117.81,83.204 118.418,83.204 C119.406,83.204 119.9,82.596 119.9,81.456 C119.748,80.772 119.672,80.164 119.596,79.632 C119.406,78.34 119.33,77.238 119.33,76.288 C119.33,74.236 119.634,71.842 120.28,69.106 C120.47,68.194 120.584,67.7 120.584,67.548 L120.584,67.548 Z M138.254,72.184 C138.254,71.842 138.064,71.462 137.76,71.082 C137.76,70.208 137.608,69.448 137.38,68.764 C137.418,68.612 137.456,68.422 137.456,68.232 C137.456,67.776 137.19,67.32 136.734,66.94 C136.24,66.56 135.746,66.332 135.252,66.332 C133.162,66.332 130.882,67.548 128.374,69.904 C125.752,72.336 124.46,74.692 124.46,76.896 C124.46,78.074 124.84,79.1 125.676,80.012 C126.474,80.962 127.424,81.418 128.526,81.418 C130.236,81.418 132.136,80.354 134.264,78.226 C134.454,81.114 135.1,82.596 136.202,82.596 C136.582,82.596 136.962,82.444 137.304,82.216 C137.608,81.912 137.798,81.532 137.798,81.152 C137.798,81.038 137.684,80.582 137.532,79.67 C137.342,78.796 137.266,78.112 137.266,77.656 C137.266,76.136 137.494,74.616 138.026,73.02 C138.178,72.602 138.254,72.336 138.254,72.184 L138.254,72.184 Z M134.796,71.082 C134.796,72.374 134.036,73.894 132.592,75.642 C131.148,77.39 129.818,78.226 128.678,78.226 C127.88,78.226 127.5,77.77 127.5,76.82 C127.5,75.604 128.45,74.084 130.388,72.222 C132.136,70.55 133.39,69.676 134.112,69.676 C134.568,69.676 134.796,70.17 134.796,71.082 L134.796,71.082 Z M155.126,68.574 C155.126,68.27 154.974,67.928 154.67,67.586 C154.366,67.282 154.024,67.13 153.72,67.13 C153.416,67.13 152.77,67.358 151.82,67.814 C150.224,68.574 148.21,70.018 145.854,72.07 C146.386,69.866 146.88,68.118 147.412,66.864 C147.716,66.066 147.868,65.572 147.868,65.42 C147.868,64.432 147.374,63.938 146.462,63.938 C145.854,63.938 145.398,64.28 145.094,64.964 C143.232,69.524 142.282,74.54 142.206,79.974 C142.13,80.164 142.13,80.354 142.13,80.544 C142.13,81 142.206,81.418 142.358,81.836 C142.586,82.52 143.118,82.9 143.878,82.9 C144.714,82.9 145.132,82.406 145.132,81.456 C145.132,81.38 145.094,81.152 145.094,80.772 C145.056,80.392 145.056,80.126 145.056,79.898 L145.056,78.492 C145.056,77.96 145.056,77.352 145.132,76.668 C145.398,76.516 145.55,76.44 145.588,76.402 C147.032,78.34 148.894,80.05 151.136,81.532 C151.82,82.026 152.352,82.292 152.732,82.292 C153.644,82.292 154.1,81.798 154.1,80.848 C154.1,80.468 153.758,79.936 153.15,79.328 C152.086,78.378 151.478,77.884 151.25,77.884 C151.174,77.884 151.06,77.922 150.984,77.922 C149.502,76.744 148.362,75.604 147.602,74.502 C149.426,72.792 150.946,71.576 152.2,70.892 C152.352,70.968 152.504,71.006 152.694,71.006 C153.188,71.006 153.72,70.74 154.252,70.208 C154.822,69.714 155.126,69.182 155.126,68.574 L155.126,68.574 Z M173.518,65.192 C173.518,64.812 173.366,64.432 173.1,64.09 C172.834,63.786 172.53,63.596 172.188,63.596 C171.618,63.596 170.82,63.748 169.756,63.976 C165.576,64.964 161.852,65.838 158.66,66.598 C158.432,66.674 158.28,66.674 158.204,66.674 C157.444,66.826 157.064,67.396 157.064,68.346 C157.064,69.41 157.482,69.904 158.394,69.904 C159.496,69.676 160.37,69.486 160.978,69.296 C162.08,69.068 163.03,68.84 163.828,68.688 C163.676,71.614 163.6,74.426 163.6,77.086 C163.6,79.67 163.752,81.456 164.056,82.444 C164.284,83.128 164.74,83.47 165.5,83.47 C166.488,83.47 166.982,82.558 166.982,80.772 C166.982,79.898 166.792,79.252 166.488,78.834 C166.412,77.884 166.374,76.402 166.374,74.35 C166.374,72.754 166.488,70.588 166.792,67.89 C167.894,67.624 168.654,67.434 169.11,67.358 C169.452,67.586 169.718,67.662 169.908,67.662 C170.136,67.662 170.402,67.624 170.744,67.472 L172.492,66.674 C173.176,66.37 173.518,65.876 173.518,65.192 L173.518,65.192 Z M189.934,81.228 C189.934,80.962 189.744,80.62 189.402,80.24 C188.566,79.328 188.186,77.01 188.186,73.286 C188.186,71.956 188.376,69.714 188.794,66.56 C188.794,66.142 188.604,65.762 188.3,65.382 C187.958,65.04 187.578,64.85 187.16,64.85 C186.514,64.85 185.146,66.256 183.094,69.068 C181.422,71.272 180.054,73.286 178.914,75.034 C179.18,72.07 179.37,69.904 179.484,68.612 C179.484,68.004 179.256,67.472 178.876,67.016 C178.496,66.598 178.002,66.37 177.394,66.37 C177.052,66.37 176.748,66.598 176.444,67.016 C176.52,68.118 176.596,68.764 176.596,68.916 C176.596,69.6 176.482,71.31 176.292,74.084 L176.216,75.186 C176.178,75.756 176.102,76.516 176.026,77.466 C175.912,78.378 175.836,78.948 175.836,79.176 C175.874,79.708 176.026,80.126 176.33,80.354 C176.938,80.962 177.318,81.228 177.47,81.228 C178.002,81.228 178.648,80.658 179.332,79.442 C180.738,77.086 181.726,75.414 182.334,74.502 C183.322,72.868 184.386,71.348 185.564,69.98 C185.564,70.36 185.526,71.158 185.526,72.336 C185.488,73.552 185.488,74.198 185.488,74.35 C185.488,76.326 185.678,77.998 186.096,79.442 C186.666,81.532 187.502,82.596 188.566,82.596 C188.794,82.596 189.098,82.406 189.44,82.102 C189.744,81.722 189.934,81.456 189.934,81.228 L189.934,81.228 Z M206.806,68.574 C206.806,68.27 206.654,67.928 206.35,67.586 C206.046,67.282 205.704,67.13 205.4,67.13 C205.096,67.13 204.45,67.358 203.5,67.814 C201.904,68.574 199.89,70.018 197.534,72.07 C198.066,69.866 198.56,68.118 199.092,66.864 C199.396,66.066 199.548,65.572 199.548,65.42 C199.548,64.432 199.054,63.938 198.142,63.938 C197.534,63.938 197.078,64.28 196.774,64.964 C194.912,69.524 193.962,74.54 193.886,79.974 C193.81,80.164 193.81,80.354 193.81,80.544 C193.81,81 193.886,81.418 194.038,81.836 C194.266,82.52 194.798,82.9 195.558,82.9 C196.394,82.9 196.812,82.406 196.812,81.456 C196.812,81.38 196.774,81.152 196.774,80.772 C196.736,80.392 196.736,80.126 196.736,79.898 L196.736,78.492 C196.736,77.96 196.736,77.352 196.812,76.668 C197.078,76.516 197.23,76.44 197.268,76.402 C198.712,78.34 200.574,80.05 202.816,81.532 C203.5,82.026 204.032,82.292 204.412,82.292 C205.324,82.292 205.78,81.798 205.78,80.848 C205.78,80.468 205.438,79.936 204.83,79.328 C203.766,78.378 203.158,77.884 202.93,77.884 C202.854,77.884 202.74,77.922 202.664,77.922 C201.182,76.744 200.042,75.604 199.282,74.502 C201.106,72.792 202.626,71.576 203.88,70.892 C204.032,70.968 204.184,71.006 204.374,71.006 C204.868,71.006 205.4,70.74 205.932,70.208 C206.502,69.714 206.806,69.182 206.806,68.574 L206.806,68.574 Z M224.02,81.228 C224.02,80.962 223.83,80.62 223.488,80.24 C222.652,79.328 222.272,77.01 222.272,73.286 C222.272,71.956 222.462,69.714 222.88,66.56 C222.88,66.142 222.69,65.762 222.386,65.382 C222.044,65.04 221.664,64.85 221.246,64.85 C220.6,64.85 219.232,66.256 217.18,69.068 C215.508,71.272 214.14,73.286 213,75.034 C213.266,72.07 213.456,69.904 213.57,68.612 C213.57,68.004 213.342,67.472 212.962,67.016 C212.582,66.598 212.088,66.37 211.48,66.37 C211.138,66.37 210.834,66.598 210.53,67.016 C210.606,68.118 210.682,68.764 210.682,68.916 C210.682,69.6 210.568,71.31 210.378,74.084 L210.302,75.186 C210.264,75.756 210.188,76.516 210.112,77.466 C209.998,78.378 209.922,78.948 209.922,79.176 C209.96,79.708 210.112,80.126 210.416,80.354 C211.024,80.962 211.404,81.228 211.556,81.228 C212.088,81.228 212.734,80.658 213.418,79.442 C214.824,77.086 215.812,75.414 216.42,74.502 C217.408,72.868 218.472,71.348 219.65,69.98 C219.65,70.36 219.612,71.158 219.612,72.336 C219.574,73.552 219.574,74.198 219.574,74.35 C219.574,76.326 219.764,77.998 220.182,79.442 C220.752,81.532 221.588,82.596 222.652,82.596 C222.88,82.596 223.184,82.406 223.526,82.102 C223.83,81.722 224.02,81.456 224.02,81.228 L224.02,81.228 Z M254.306,66.788 C254.306,66.37 254.116,65.99 253.736,65.686 C253.318,65.42 252.9,65.268 252.482,65.192 C248.606,65.496 245.528,65.762 243.324,65.914 C241.994,66.028 241.348,66.484 241.348,67.32 C241.348,67.852 241.424,68.308 241.652,68.726 C241.386,72.64 241.272,74.616 241.272,74.692 C241.006,77.428 240.892,78.796 240.892,78.796 C240.892,79.29 241.044,79.784 241.386,80.278 C241.728,80.772 242.108,81 242.564,81 C243.324,81 243.704,80.506 243.78,79.48 C244.008,75.376 244.236,71.842 244.54,68.878 C246.478,68.612 248.492,68.422 250.582,68.346 C250.582,68.46 250.506,70.322 250.392,73.894 C250.24,77.086 250.202,78.796 250.202,79.024 C250.202,81.494 250.848,82.748 252.216,82.748 C252.938,82.748 253.318,82.33 253.318,81.57 C253.09,80.43 253.014,79.366 253.014,78.454 C253.014,77.238 253.09,75.3 253.242,72.64 C253.28,72.222 253.356,71.614 253.47,70.778 C253.546,70.094 253.584,69.714 253.584,69.562 C253.584,69.334 253.508,68.992 253.432,68.536 C254.002,67.928 254.306,67.358 254.306,66.788 L254.306,66.788 Z M272.318,81.228 C272.318,80.962 272.128,80.62 271.786,80.24 C270.95,79.328 270.57,77.01 270.57,73.286 C270.57,71.956 270.76,69.714 271.178,66.56 C271.178,66.142 270.988,65.762 270.684,65.382 C270.342,65.04 269.962,64.85 269.544,64.85 C268.898,64.85 267.53,66.256 265.478,69.068 C263.806,71.272 262.438,73.286 261.298,75.034 C261.564,72.07 261.754,69.904 261.868,68.612 C261.868,68.004 261.64,67.472 261.26,67.016 C260.88,66.598 260.386,66.37 259.778,66.37 C259.436,66.37 259.132,66.598 258.828,67.016 C258.904,68.118 258.98,68.764 258.98,68.916 C258.98,69.6 258.866,71.31 258.676,74.084 L258.6,75.186 C258.562,75.756 258.486,76.516 258.41,77.466 C258.296,78.378 258.22,78.948 258.22,79.176 C258.258,79.708 258.41,80.126 258.714,80.354 C259.322,80.962 259.702,81.228 259.854,81.228 C260.386,81.228 261.032,80.658 261.716,79.442 C263.122,77.086 264.11,75.414 264.718,74.502 C265.706,72.868 266.77,71.348 267.948,69.98 C267.948,70.36 267.91,71.158 267.91,72.336 C267.872,73.552 267.872,74.198 267.872,74.35 C267.872,76.326 268.062,77.998 268.48,79.442 C269.05,81.532 269.886,82.596 270.95,82.596 C271.178,82.596 271.482,82.406 271.824,82.102 C272.128,81.722 272.318,81.456 272.318,81.228 L272.318,81.228 Z M291.28,80.316 C291.28,79.936 291.128,79.556 290.824,79.176 C290.52,78.872 290.14,78.682 289.76,78.682 C289.456,78.682 288.962,78.758 288.316,78.834 C287.67,78.91 287.176,78.948 286.872,78.948 C285.732,78.948 284.744,78.416 283.832,77.314 C287.632,75.262 289.532,72.83 289.532,70.018 C289.532,68.954 289.076,67.928 288.164,67.016 C287.252,66.104 286.34,65.648 285.39,65.648 C283.756,65.648 282.426,66.598 281.362,68.46 C280.45,70.056 279.994,71.766 279.994,73.59 C279.994,73.97 280.032,74.502 280.146,75.148 L279.272,75.148 C278.74,75.148 278.246,74.958 277.714,74.578 C277.182,74.198 276.802,74.008 276.574,74.008 C275.586,74.008 275.092,74.54 275.092,75.604 C275.092,76.44 275.7,77.124 276.992,77.656 C277.98,78.074 278.93,78.264 279.918,78.264 L281.058,78.264 C282.426,80.886 284.554,82.178 287.442,82.178 C289.988,82.178 291.28,81.532 291.28,80.316 L291.28,80.316 Z M286.53,70.17 C286.53,71.424 285.39,72.792 283.11,74.274 L283.11,73.59 C283.11,72.564 283.262,71.576 283.642,70.626 C284.022,69.486 284.554,68.916 285.238,68.916 C285.542,68.916 285.846,69.068 286.15,69.296 C286.378,69.6 286.53,69.866 286.53,70.17 L286.53,70.17 Z M309.444,67.548 C309.444,66.978 309.254,66.484 308.874,66.028 C308.532,65.61 308.114,65.382 307.582,65.382 C307.354,65.382 306.898,65.61 306.214,65.99 C305.53,66.408 303.858,66.75 301.16,67.054 C300.552,66.56 300.058,66.294 299.716,66.294 C299.298,66.294 298.842,66.522 298.386,66.978 C297.93,67.434 297.702,67.928 297.702,68.384 C297.702,68.688 297.854,69.068 298.158,69.486 C298.424,69.942 298.576,70.436 298.576,71.006 C298.576,73.362 298.386,75.3 298.006,76.896 C297.512,78.758 296.866,79.67 296.106,79.67 C295.802,79.67 295.574,79.214 295.498,78.226 C295.422,77.846 295.27,77.618 294.966,77.618 C294.434,77.618 294.054,77.884 293.788,78.34 C293.446,78.872 293.294,79.48 293.294,80.126 C293.294,80.848 293.56,81.38 294.13,81.798 C294.662,82.178 295.27,82.406 295.954,82.406 C297.93,82.406 299.336,81.114 300.172,78.606 C300.704,77.01 301.16,74.122 301.54,69.942 C302.49,69.714 303.934,69.41 305.91,69.068 C305.53,72.792 305.34,75.604 305.34,77.504 C305.34,80.012 305.492,81.57 305.834,82.216 C306.176,82.862 306.67,83.204 307.278,83.204 C308.266,83.204 308.76,82.596 308.76,81.456 C308.608,80.772 308.532,80.164 308.456,79.632 C308.266,78.34 308.19,77.238 308.19,76.288 C308.19,74.236 308.494,71.842 309.14,69.106 C309.33,68.194 309.444,67.7 309.444,67.548 L309.444,67.548 Z M325.366,72.64 C325.366,71.158 324.948,69.79 324.112,68.574 C323.238,67.396 322.136,66.56 320.806,66.104 C320.274,65.952 319.97,65.876 319.894,65.876 C319.59,65.876 319.248,66.066 318.792,66.37 C318.26,66.674 317.842,66.902 317.538,67.016 C316.246,67.662 315.182,68.802 314.422,70.398 C313.662,71.842 313.32,73.4 313.32,75.034 C313.32,76.972 313.814,78.568 314.878,79.822 C315.942,81.038 317.272,81.684 318.868,81.684 C320.692,81.684 322.25,80.848 323.504,79.1 C324.72,77.352 325.366,75.224 325.366,72.64 L325.366,72.64 Z M322.364,73.21 C322.364,74.502 321.984,75.68 321.3,76.782 C320.54,77.922 319.742,78.492 318.83,78.492 C318.07,78.492 317.462,78.15 317.006,77.428 C316.512,76.744 316.284,75.946 316.284,75.034 C316.284,73.818 316.55,72.678 317.158,71.614 C317.842,70.398 318.716,69.752 319.78,69.752 C320.16,69.98 320.654,70.094 321.262,70.094 C321.984,70.55 322.364,71.614 322.364,73.21 L322.364,73.21 Z M341.934,66.94 C341.934,65.952 341.478,65.458 340.566,65.458 C339.806,65.458 339.312,66.142 339.122,67.434 C338.932,68.46 338.704,69.904 338.476,71.766 C336.804,72.184 335.17,72.488 333.574,72.64 C333.954,70.208 334.334,68.384 334.714,67.13 C334.942,66.446 335.132,65.914 335.322,65.458 C335.246,64.432 334.79,63.9 333.878,63.9 C333.232,63.9 332.814,64.204 332.586,64.812 C331.826,66.636 331.218,69.258 330.838,72.678 C330.23,72.678 329.812,72.64 329.584,72.602 C328.824,72.602 328.482,73.058 328.482,73.894 C328.482,74.844 329.014,75.3 330.116,75.3 L330.572,75.3 C330.458,76.744 330.344,78.378 330.268,80.278 C330.268,80.392 330.23,80.582 330.192,80.81 C330.116,81.038 330.116,81.19 330.116,81.342 C330.116,81.722 330.268,82.064 330.572,82.368 C330.876,82.672 331.218,82.824 331.598,82.824 C332.51,82.824 333.004,82.33 333.042,81.38 C333.042,80.088 333.156,78.036 333.346,75.224 C334.98,75.072 336.576,74.806 338.172,74.426 C337.982,76.44 337.868,78.036 337.868,79.176 C337.868,79.29 337.83,79.442 337.792,79.67 C337.716,79.86 337.678,80.012 337.678,80.126 C337.678,81.038 337.792,81.722 338.096,82.178 C338.4,82.672 338.742,82.938 339.198,82.938 C339.578,82.938 339.92,82.786 340.224,82.482 C340.49,82.178 340.642,81.798 340.642,81.38 C340.642,81.304 340.604,81.114 340.604,80.734 C340.566,80.354 340.566,80.05 340.566,79.898 C340.566,77.352 340.946,73.438 341.782,68.156 C341.858,67.472 341.934,67.092 341.934,66.94 L341.934,66.94 Z M360.896,80.316 C360.896,79.936 360.744,79.556 360.44,79.176 C360.136,78.872 359.756,78.682 359.376,78.682 C359.072,78.682 358.578,78.758 357.932,78.834 C357.286,78.91 356.792,78.948 356.488,78.948 C355.348,78.948 354.36,78.416 353.448,77.314 C357.248,75.262 359.148,72.83 359.148,70.018 C359.148,68.954 358.692,67.928 357.78,67.016 C356.868,66.104 355.956,65.648 355.006,65.648 C353.372,65.648 352.042,66.598 350.978,68.46 C350.066,70.056 349.61,71.766 349.61,73.59 C349.61,73.97 349.648,74.502 349.762,75.148 L348.888,75.148 C348.356,75.148 347.862,74.958 347.33,74.578 C346.798,74.198 346.418,74.008 346.19,74.008 C345.202,74.008 344.708,74.54 344.708,75.604 C344.708,76.44 345.316,77.124 346.608,77.656 C347.596,78.074 348.546,78.264 349.534,78.264 L350.674,78.264 C352.042,80.886 354.17,82.178 357.058,82.178 C359.604,82.178 360.896,81.532 360.896,80.316 L360.896,80.316 Z M356.146,70.17 C356.146,71.424 355.006,72.792 352.726,74.274 L352.726,73.59 C352.726,72.564 352.878,71.576 353.258,70.626 C353.638,69.486 354.17,68.916 354.854,68.916 C355.158,68.916 355.462,69.068 355.766,69.296 C355.994,69.6 356.146,69.866 356.146,70.17 L356.146,70.17 Z M390.308,70.512 C390.308,68.84 389.928,67.434 389.168,66.294 C388.332,65.116 387.268,64.508 385.976,64.508 C383.316,64.508 380.77,66.902 378.376,71.614 L378.794,68.042 C379.25,64.926 379.592,62.646 379.896,61.202 C379.896,60.518 379.706,59.872 379.364,59.34 C379.022,58.846 378.528,58.58 377.92,58.58 C377.084,58.58 376.59,59.53 376.4,61.392 C375.906,65.496 375.64,67.814 375.602,68.384 C374.994,69.904 373.892,71.728 372.22,73.856 C370.396,76.136 369.028,77.238 368.192,77.238 C367.28,77.238 366.862,76.744 366.862,75.718 C366.862,74.274 367.356,72.678 368.42,70.968 C369.446,69.296 370.472,68.422 371.46,68.422 C371.916,68.422 372.372,68.612 372.904,68.992 C373.322,69.334 373.664,69.486 373.93,69.486 C374.538,69.486 374.88,69.258 374.88,68.726 C374.88,68.65 374.842,68.536 374.842,68.422 C374.576,68.042 374.386,67.776 374.234,67.548 C373.55,66.446 372.524,65.876 371.156,65.876 C369.294,65.876 367.584,67.092 365.988,69.486 C364.468,71.728 363.708,73.856 363.708,75.908 C363.708,77.276 364.012,78.34 364.658,79.176 C365.266,80.012 366.178,80.392 367.394,80.392 C370.016,80.392 372.714,78.378 375.45,74.274 C375.032,79.328 374.728,83.052 374.5,85.522 C374.462,85.75 374.424,86.054 374.386,86.51 C374.31,86.814 374.31,87.042 374.31,87.194 C374.31,88.296 374.614,89.056 375.222,89.436 C375.564,89.626 375.982,89.74 376.476,89.74 C376.932,89.74 377.274,89.474 377.578,88.98 C377.844,88.448 377.996,87.878 377.996,87.308 C377.996,87.232 377.958,86.928 377.92,86.472 C377.844,85.94 377.844,85.56 377.844,85.408 C377.844,85.218 377.806,84.876 377.806,84.42 C377.768,83.964 377.768,83.622 377.768,83.47 C377.768,83.318 377.768,82.672 377.806,81.57 C377.806,80.506 377.844,79.86 377.844,79.632 C377.844,77.96 378.87,75.528 380.922,72.26 C382.974,69.068 384.532,67.434 385.672,67.434 C386.812,67.434 387.382,68.536 387.382,70.702 C387.382,72.146 387.154,73.476 386.698,74.692 C386.052,76.326 385.178,77.124 384.038,77.124 C383.582,77.124 383.012,76.782 382.404,76.06 C381.796,75.376 381.34,74.996 381.036,74.92 C380.694,74.996 380.39,75.186 380.162,75.566 C379.896,75.946 379.782,76.288 379.782,76.63 C379.782,77.276 380.238,77.96 381.15,78.682 C382.062,79.442 383.05,79.822 384.114,79.822 C386.394,79.822 388.028,78.758 389.092,76.63 C389.89,75.034 390.308,73.02 390.308,70.512 L390.308,70.512 Z M407.978,67.852 C407.978,66.028 407.56,64.508 406.724,63.292 C405.812,61.962 404.482,61.278 402.81,61.278 C400.416,61.278 398.554,62.95 397.224,66.294 C396.312,68.612 395.856,71.272 395.856,74.236 C395.856,74.616 395.856,74.92 395.894,75.11 C394.83,75.49 394.336,76.06 394.336,76.858 C394.336,77.846 394.83,78.378 395.894,78.454 C395.97,79.062 396.008,79.974 396.008,81.19 C396.008,83.622 395.856,85.332 395.628,86.396 C395.362,87.422 395.248,87.992 395.248,88.106 C395.248,88.524 395.4,88.904 395.704,89.246 C396.008,89.55 396.388,89.74 396.806,89.74 C397.604,89.74 398.174,88.942 398.516,87.384 C398.896,85.636 399.086,83.85 399.086,82.102 C399.086,80.506 399.01,78.948 398.896,77.428 C404.938,75.224 407.978,72.032 407.978,67.852 L407.978,67.852 Z M404.938,67.206 C404.938,70.322 402.924,72.602 398.934,74.046 C398.934,71.994 399.276,69.904 399.998,67.852 C400.796,65.61 401.746,64.47 402.81,64.47 C403.456,64.47 403.988,64.774 404.406,65.306 C404.748,65.838 404.938,66.484 404.938,67.206 L404.938,67.206 Z M425.838,81.228 C425.838,80.962 425.648,80.62 425.306,80.24 C424.47,79.328 424.09,77.01 424.09,73.286 C424.09,71.956 424.28,69.714 424.698,66.56 C424.698,66.142 424.508,65.762 424.204,65.382 C423.862,65.04 423.482,64.85 423.064,64.85 C422.418,64.85 421.05,66.256 418.998,69.068 C417.326,71.272 415.958,73.286 414.818,75.034 C415.084,72.07 415.274,69.904 415.388,68.612 C415.388,68.004 415.16,67.472 414.78,67.016 C414.4,66.598 413.906,66.37 413.298,66.37 C412.956,66.37 412.652,66.598 412.348,67.016 C412.424,68.118 412.5,68.764 412.5,68.916 C412.5,69.6 412.386,71.31 412.196,74.084 L412.12,75.186 C412.082,75.756 412.006,76.516 411.93,77.466 C411.816,78.378 411.74,78.948 411.74,79.176 C411.778,79.708 411.93,80.126 412.234,80.354 C412.842,80.962 413.222,81.228 413.374,81.228 C413.906,81.228 414.552,80.658 415.236,79.442 C416.642,77.086 417.63,75.414 418.238,74.502 C419.226,72.868 420.29,71.348 421.468,69.98 C421.468,70.36 421.43,71.158 421.43,72.336 C421.392,73.552 421.392,74.198 421.392,74.35 C421.392,76.326 421.582,77.998 422,79.442 C422.57,81.532 423.406,82.596 424.47,82.596 C424.698,82.596 425.002,82.406 425.344,82.102 C425.648,81.722 425.838,81.456 425.838,81.228 L425.838,81.228 Z M444.99,65.192 C444.99,64.812 444.838,64.432 444.572,64.09 C444.306,63.786 444.002,63.596 443.66,63.596 C443.09,63.596 442.292,63.748 441.228,63.976 C437.048,64.964 433.324,65.838 430.132,66.598 C429.904,66.674 429.752,66.674 429.676,66.674 C428.916,66.826 428.536,67.396 428.536,68.346 C428.536,69.41 428.954,69.904 429.866,69.904 C430.968,69.676 431.842,69.486 432.45,69.296 C433.552,69.068 434.502,68.84 435.3,68.688 C435.148,71.614 435.072,74.426 435.072,77.086 C435.072,79.67 435.224,81.456 435.528,82.444 C435.756,83.128 436.212,83.47 436.972,83.47 C437.96,83.47 438.454,82.558 438.454,80.772 C438.454,79.898 438.264,79.252 437.96,78.834 C437.884,77.884 437.846,76.402 437.846,74.35 C437.846,72.754 437.96,70.588 438.264,67.89 C439.366,67.624 440.126,67.434 440.582,67.358 C440.924,67.586 441.19,67.662 441.38,67.662 C441.608,67.662 441.874,67.624 442.216,67.472 L443.964,66.674 C444.648,66.37 444.99,65.876 444.99,65.192 L444.99,65.192 Z M461.102,72.184 C461.102,71.842 460.912,71.462 460.608,71.082 C460.608,70.208 460.456,69.448 460.228,68.764 C460.266,68.612 460.304,68.422 460.304,68.232 C460.304,67.776 460.038,67.32 459.582,66.94 C459.088,66.56 458.594,66.332 458.1,66.332 C456.01,66.332 453.73,67.548 451.222,69.904 C448.6,72.336 447.308,74.692 447.308,76.896 C447.308,78.074 447.688,79.1 448.524,80.012 C449.322,80.962 450.272,81.418 451.374,81.418 C453.084,81.418 454.984,80.354 457.112,78.226 C457.302,81.114 457.948,82.596 459.05,82.596 C459.43,82.596 459.81,82.444 460.152,82.216 C460.456,81.912 460.646,81.532 460.646,81.152 C460.646,81.038 460.532,80.582 460.38,79.67 C460.19,78.796 460.114,78.112 460.114,77.656 C460.114,76.136 460.342,74.616 460.874,73.02 C461.026,72.602 461.102,72.336 461.102,72.184 L461.102,72.184 Z M457.644,71.082 C457.644,72.374 456.884,73.894 455.44,75.642 C453.996,77.39 452.666,78.226 451.526,78.226 C450.728,78.226 450.348,77.77 450.348,76.82 C450.348,75.604 451.298,74.084 453.236,72.222 C454.984,70.55 456.238,69.676 456.96,69.676 C457.416,69.676 457.644,70.17 457.644,71.082 L457.644,71.082 Z" id="Канефрон®-Н-прекрасн"></path>
            </g>
        </g>
    </g>
</svg>