<?xml version="1.0" encoding="UTF-8"?>
<svg width="167px" height="42px" viewBox="0 0 167 42" version="1.1" xmlns="http://www.w3.org/2000/svg" xmlns:xlink="http://www.w3.org/1999/xlink">
    <!-- Generator: Sketch 40.3 (33839) - http://www.bohemiancoding.com/sketch -->
    <title>Group 13</title>
    <desc>Created with Sketch.</desc>
    <defs></defs>
    <g id="Page-1" stroke="none" stroke-width="1" fill="none" fill-rule="evenodd">
        <g id="Cictitis_page" transform="translate(-1374.000000, -692.000000)">
            <g id="Group-13" transform="translate(1374.000000, 692.000000)">
                <path d="M1.414,31.994 L1.414,31.154 C1.70333478,31.0233327 2.03233149,30.9160004 2.401,30.832 C2.76966851,30.7479996 3.15466466,30.706 3.556,30.706 C4.62000532,30.706 5.34799804,31.0466633 5.74,31.728 C5.9733345,32.1293353 6.09,32.6799965 6.09,33.38 L6.09,36.432 L6.132,38 L5.348,38 L5.348,36.782 C5.05866522,37.2953359 4.66666914,37.6593323 4.172,37.874 C3.80799818,38.0326675 3.41133548,38.112 2.982,38.112 C2.20732946,38.112 1.6100021,37.8973355 1.19,37.468 C0.8166648,37.0946648 0.63,36.6326694 0.63,36.082 C0.63,35.3166628 0.90066396,34.7333353 1.442,34.332 C2.08600322,33.8559976 3.18732554,33.618 4.746,33.618 L5.208,33.618 L5.208,33.366 C5.208,32.8339973 5.12866746,32.4280014 4.97,32.148 C4.70866536,31.681331 4.23733674,31.448 3.556,31.448 C2.78132946,31.448 2.0673366,31.6299982 1.414,31.994 L1.414,31.994 Z M5.208,34.36 L4.41,34.36 C3.55132904,34.36 2.888669,34.4673323 2.422,34.682 C1.84333044,34.952668 1.554,35.4006635 1.554,36.026 C1.554,36.4273353 1.6939986,36.7516654 1.974,36.999 C2.2540014,37.2463346 2.58533142,37.37 2.968,37.37 C3.69600364,37.37 4.25133142,37.1413356 4.634,36.684 C5.01666858,36.2266644 5.208,35.6246704 5.208,34.878 L5.208,34.36 Z M9.0961379,30.818 L11.9381379,30.818 C12.6941417,30.818 13.2681359,31.0186647 13.6601379,31.42 C13.9961396,31.7560017 14.1641379,32.1899973 14.1641379,32.722 C14.1641379,33.38467 13.8328079,33.8746651 13.1701379,34.192 C13.5994734,34.3040006 13.9308034,34.525665 14.1641379,34.857 C14.3974724,35.188335 14.5141379,35.5686645 14.5141379,35.998 C14.5141379,36.5580028 14.3368063,37.0153316 13.9821379,37.37 C13.5528024,37.7900021 12.9228087,38 12.0921379,38 L9.0961379,38 L9.0961379,30.818 Z M9.9781379,31.56 L9.9781379,33.898 L11.8821379,33.898 C12.3394735,33.898 12.6871367,33.7906677 12.9251379,33.576 C13.1631391,33.3613323 13.2821379,33.1000015 13.2821379,32.792 C13.2821379,32.4466649 13.1841389,32.1666677 12.9881379,31.952 C12.74547,31.6906654 12.376807,31.56 11.8821379,31.56 L9.9781379,31.56 Z M9.9781379,34.64 L9.9781379,37.258 L12.0221379,37.258 C12.5261404,37.258 12.9134699,37.1413345 13.1841379,36.908 C13.4548059,36.6746655 13.5901379,36.3713352 13.5901379,35.998 C13.5901379,35.5873313 13.4454727,35.2583346 13.1561379,35.011 C12.8668031,34.7636654 12.4421407,34.64 11.8821379,34.64 L9.9781379,34.64 Z M16.2882758,30.818 L21.6502758,30.818 L21.6502758,31.56 L19.4102758,31.56 L19.4102758,38 L18.5282758,38 L18.5282758,31.56 L16.2882758,31.56 L16.2882758,30.818 Z M23.1444137,34.416 C23.1444137,33.3519947 23.4244109,32.4793367 23.9844137,31.798 C24.58175,31.0699964 25.4077418,30.706 26.4624137,30.706 C27.5077523,30.706 28.333744,31.0699964 28.9404137,31.798 C29.5004165,32.4793367 29.7804137,33.3519947 29.7804137,34.416 C29.7804137,35.4800053 29.5004165,36.3479966 28.9404137,37.02 C28.333744,37.7480036 27.5077523,38.112 26.4624137,38.112 C25.4170751,38.112 24.5910834,37.7480036 23.9844137,37.02 C23.4244109,36.3479966 23.1444137,35.4800053 23.1444137,34.416 L23.1444137,34.416 Z M24.0684137,34.416 C24.0684137,35.153337 24.2410786,35.792664 24.5864137,36.334 C25.0250826,37.0246701 25.6504096,37.37 26.4624137,37.37 C27.2650844,37.37 27.8857448,37.0293367 28.3244137,36.348 C28.6790821,35.7973306 28.8564137,35.153337 28.8564137,34.416 C28.8564137,33.678663 28.6837488,33.0346694 28.3384137,32.484 C27.8997448,31.7933299 27.2744178,31.448 26.4624137,31.448 C25.6504096,31.448 25.0297492,31.7886633 24.6004137,32.47 C24.2457453,33.0300028 24.0684137,33.678663 24.0684137,34.416 L24.0684137,34.416 Z M33.1925516,41.066 L32.3105516,41.066 L32.3105516,32.204 L32.2545516,30.818 L33.0945516,30.818 L33.0945516,32.302 C33.2905526,31.8633311 33.5145503,31.5273345 33.7665516,31.294 C34.1865537,30.901998 34.7185484,30.706 35.3625516,30.706 C36.3892234,30.706 37.1732156,31.0653297 37.7145516,31.784 C38.2092207,32.4373366 38.4565516,33.3099945 38.4565516,34.402 C38.4565516,35.6993398 38.120555,36.6699968 37.4485516,37.314 C36.8978822,37.8460027 36.2025558,38.112 35.3625516,38.112 C34.8772158,38.112 34.4385536,37.9720014 34.0465516,37.692 C33.7012165,37.4493321 33.4212193,37.1226687 33.2065516,36.712 L33.1925516,37.398 L33.1925516,41.066 Z M33.1925516,34.402 C33.1925516,35.3726715 33.4258826,36.128664 33.8925516,36.67 C34.2938869,37.136669 34.783882,37.37 35.3625516,37.37 C35.9412212,37.37 36.4312163,37.1413356 36.8325516,36.684 C37.2992206,36.142664 37.5325516,35.3820049 37.5325516,34.402 C37.5325516,33.4406619 37.2992206,32.689336 36.8325516,32.148 C36.4312163,31.681331 35.9412212,31.448 35.3625516,31.448 C34.8025488,31.448 34.3172203,31.681331 33.9065516,32.148 C33.4305492,32.689336 33.1925516,33.4406619 33.1925516,34.402 L33.1925516,34.402 Z M40.9306895,30.818 L41.8126895,30.818 L41.8126895,36.082 L41.7986895,36.838 L42.3166895,36.068 L46.0266895,30.818 L47.0066895,30.818 L47.0066895,38 L46.1246895,38 L46.1246895,32.736 L46.1386895,31.98 L45.6206895,32.736 L41.9106895,38 L40.9306895,38 L40.9306895,30.818 Z M48.9908274,30.818 L54.3528274,30.818 L54.3528274,31.56 L52.1128274,31.56 L52.1128274,38 L51.2308274,38 L51.2308274,31.56 L48.9908274,31.56 L48.9908274,30.818 Z M61.7689653,34.668 L56.7009653,34.668 C56.7009653,35.4240038 56.9249631,36.0633307 57.3729653,36.586 C57.8583011,37.1553362 58.497628,37.44 59.2909653,37.44 C59.8696349,37.44 60.5136284,37.2626684 61.2229653,36.908 L61.2229653,37.72 C60.5602953,38.0000014 59.8976353,38.14 59.2349653,38.14 C58.2362937,38.14 57.433635,37.8460029 56.8269653,37.258 C56.1269618,36.5859966 55.7769653,35.5966732 55.7769653,34.29 C55.7769653,33.2353281 56.0546292,32.3743367 56.6099653,31.707 C57.1653014,31.0396633 57.9282938,30.706 58.8989653,30.706 C60.1029713,30.706 60.9289631,31.1913285 61.3769653,32.162 C61.6383,32.7220028 61.7689653,33.4639954 61.7689653,34.388 L61.7689653,34.668 Z M56.7009653,33.926 L60.8449653,33.926 C60.8449653,33.3099969 60.7376331,32.7966687 60.5229653,32.386 C60.196297,31.7606635 59.6549691,31.448 58.8989653,31.448 C58.1896284,31.448 57.629634,31.7279972 57.2189653,32.288 C56.8736303,32.7640024 56.7009653,33.3099969 56.7009653,33.926 L56.7009653,33.926 Z M63.1931032,30.818 L68.5551032,30.818 L68.5551032,31.56 L66.3151032,31.56 L66.3151032,38 L65.4331032,38 L65.4331032,31.56 L63.1931032,31.56 L63.1931032,30.818 Z M70.5392411,30.818 L71.4212411,30.818 L71.4212411,33.898 L75.3132411,33.898 L75.3132411,30.818 L76.1952411,30.818 L76.1952411,38 L75.3132411,38 L75.3132411,34.64 L71.4212411,34.64 L71.4212411,38 L70.5392411,38 L70.5392411,30.818 Z M79.159379,30.818 L80.041379,30.818 L80.041379,33.646 L81.903379,33.646 C82.6873829,33.646 83.3033768,33.8139983 83.751379,34.15 C84.2460482,34.5233352 84.493379,35.078663 84.493379,35.816 C84.493379,36.5720038 84.2507148,37.1319982 83.765379,37.496 C83.3173768,37.8320017 82.6967163,38 81.903379,38 L79.159379,38 L79.159379,30.818 Z M80.041379,34.388 L80.041379,37.258 L81.833379,37.258 C82.2907146,37.258 82.6500444,37.1880007 82.911379,37.048 C83.3500479,36.8146655 83.569379,36.4040029 83.569379,35.816 C83.569379,35.2466638 83.3547145,34.8453345 82.925379,34.612 C82.6453776,34.4626659 82.2813813,34.388 81.833379,34.388 L80.041379,34.388 Z M85.823379,30.818 L86.705379,30.818 L86.705379,38 L85.823379,38 L85.823379,30.818 Z M89.6695169,30.818 L90.5515169,30.818 L90.5515169,36.082 L90.5375169,36.838 L91.0555169,36.068 L94.7655169,30.818 L95.7455169,30.818 L95.7455169,38 L94.8635169,38 L94.8635169,32.736 L94.8775169,31.98 L94.3595169,32.736 L90.6495169,38 L89.6695169,38 L89.6695169,30.818 Z M90.6635169,28.074 L91.0835169,27.584 C91.3355182,27.8826682 91.6155154,28.0973327 91.9235169,28.228 C92.1661848,28.3306672 92.4275155,28.382 92.7075169,28.382 C92.9968517,28.382 93.2535158,28.3353338 93.4775169,28.242 C93.7855185,28.1113327 94.0701823,27.8920015 94.3315169,27.584 L94.7515169,28.074 C94.5181824,28.4006683 94.2218521,28.6643323 93.8625169,28.865 C93.5031818,29.0656677 93.1181856,29.166 92.7075169,29.166 C92.2875148,29.166 91.9025187,29.068001 91.5525169,28.872 C91.2025152,28.675999 90.9061848,28.4100017 90.6635169,28.074 L90.6635169,28.074 Z M104.347793,30.818 L105.229793,30.818 L105.229793,36.082 L105.215793,36.838 L105.733793,36.068 L109.443793,30.818 L110.423793,30.818 L110.423793,38 L109.541793,38 L109.541793,32.736 L109.555793,31.98 L109.037793,32.736 L105.327793,38 L104.347793,38 L104.347793,30.818 Z M118.189931,30.986 L118.147931,31.77 C117.877263,31.6579994 117.580932,31.5763336 117.258931,31.525 C116.936929,31.4736664 116.593932,31.448 116.229931,31.448 C115.464593,31.448 114.862599,31.7419971 114.423931,32.33 C114.022595,32.871336 113.821931,33.5666624 113.821931,34.416 C113.821931,35.349338 114.066928,36.0749974 114.556931,36.593 C115.046933,37.1110026 115.660594,37.37 116.397931,37.37 C116.733932,37.37 117.041929,37.3490002 117.321931,37.307 C117.601932,37.2649998 117.881929,37.1880006 118.161931,37.076 L118.245931,37.832 C118.059263,37.8973337 117.793266,37.960333 117.447931,38.021 C117.102596,38.081667 116.747932,38.112 116.383931,38.112 C115.366592,38.112 114.531267,37.7760034 113.877931,37.104 C113.224594,36.4319966 112.897931,35.5360056 112.897931,34.416 C112.897931,33.2679943 113.219927,32.3533367 113.863931,31.672 C114.4706,31.0279968 115.231259,30.706 116.145931,30.706 C116.472599,30.706 116.817929,30.7293331 117.181931,30.776 C117.545932,30.8226669 117.881929,30.8926662 118.189931,30.986 L118.189931,30.986 Z M119.530069,30.818 L124.892069,30.818 L124.892069,31.56 L122.652069,31.56 L122.652069,38 L121.770069,38 L121.770069,31.56 L119.530069,31.56 L119.530069,30.818 Z M126.386206,34.416 C126.386206,33.3519947 126.666204,32.4793367 127.226206,31.798 C127.823543,31.0699964 128.649534,30.706 129.704206,30.706 C130.749545,30.706 131.575537,31.0699964 132.182206,31.798 C132.742209,32.4793367 133.022206,33.3519947 133.022206,34.416 C133.022206,35.4800053 132.742209,36.3479966 132.182206,37.02 C131.575537,37.7480036 130.749545,38.112 129.704206,38.112 C128.658868,38.112 127.832876,37.7480036 127.226206,37.02 C126.666204,36.3479966 126.386206,35.4800053 126.386206,34.416 L126.386206,34.416 Z M127.310206,34.416 C127.310206,35.153337 127.482871,35.792664 127.828206,36.334 C128.266875,37.0246701 128.892202,37.37 129.704206,37.37 C130.506877,37.37 131.127538,37.0293367 131.566206,36.348 C131.920875,35.7973306 132.098206,35.153337 132.098206,34.416 C132.098206,33.678663 131.925541,33.0346694 131.580206,32.484 C131.141538,31.7933299 130.51621,31.448 129.704206,31.448 C128.892202,31.448 128.271542,31.7886633 127.842206,32.47 C127.487538,33.0300028 127.310206,33.678663 127.310206,34.416 L127.310206,34.416 Z M135.818344,30.818 L135.818344,32.974 C135.818344,33.3286684 135.89301,33.5993324 136.042344,33.786 C136.313012,34.1313351 136.84034,34.304 137.624344,34.304 C138.063013,34.304 138.655674,34.2340007 139.402344,34.094 L139.402344,30.818 L140.284344,30.818 L140.284344,38 L139.402344,38 L139.402344,34.836 C139.019676,34.9013337 138.676679,34.9503332 138.373344,34.983 C138.070009,35.0156668 137.764346,35.032 137.456344,35.032 C136.485673,35.032 135.79968,34.8313353 135.398344,34.43 C135.090343,34.1219985 134.936344,33.6833362 134.936344,33.114 L134.936344,30.818 L135.818344,30.818 Z M143.248482,30.818 L144.130482,30.818 L144.130482,33.898 L148.022482,33.898 L148.022482,30.818 L148.904482,30.818 L148.904482,38 L148.022482,38 L148.022482,34.64 L144.130482,34.64 L144.130482,38 L143.248482,38 L143.248482,30.818 Z M151.86862,30.818 L152.75062,30.818 L152.75062,36.082 L152.73662,36.838 L153.25462,36.068 L156.96462,30.818 L157.94462,30.818 L157.94462,38 L157.06262,38 L157.06262,32.736 L157.07662,31.98 L156.55862,32.736 L152.84862,38 L151.86862,38 L151.86862,30.818 Z M160.908758,30.818 L161.790758,30.818 L161.790758,33.982 L165.122758,30.818 L166.256758,30.818 L162.728758,34.164 L166.634758,38 L165.388758,38 L161.832758,34.444 L161.790758,38 L160.908758,38 L160.908758,30.818 Z" id="авторитетный-источни" fill="#505050"></path>
                <path d="M8.08,9.16750809 C8.08,8.94750809 7.98,8.74750809 7.78,8.58750809 C7.56,8.44750809 7.34,8.36750809 7.12,8.32750809 C5.08,8.48750809 3.46,8.62750809 2.3,8.70750809 C1.6,8.76750809 1.26,9.00750809 1.26,9.44750809 C1.26,9.72750809 1.3,9.96750809 1.42,10.1875081 C1.28,12.2475081 1.22,13.2875081 1.22,13.3275081 C1.08,14.7675081 1.02,15.4875081 1.02,15.4875081 C1.02,15.7475081 1.1,16.0075081 1.28,16.2675081 C1.46,16.5275081 1.66,16.6475081 1.9,16.6475081 C2.3,16.6475081 2.5,16.3875081 2.54,15.8475081 C2.66,13.6875081 2.78,11.8275081 2.94,10.2675081 C3.96,10.1275081 5.02,10.0275081 6.12,9.98750809 C6.12,10.0475081 6.08,11.0275081 6.02,12.9075081 C5.94,14.5875081 5.92,15.4875081 5.92,15.6075081 C5.92,16.9075081 6.26,17.5675081 6.98,17.5675081 C7.36,17.5675081 7.56,17.3475081 7.56,16.9475081 C7.44,16.3475081 7.4,15.7875081 7.4,15.3075081 C7.4,14.6675081 7.44,13.6475081 7.52,12.2475081 C7.54,12.0275081 7.58,11.7075081 7.64,11.2675081 C7.68,10.9075081 7.7,10.7075081 7.7,10.6275081 C7.7,10.5075081 7.66,10.3275081 7.62,10.0875081 C7.92,9.76750809 8.08,9.46750809 8.08,9.16750809 L8.08,9.16750809 Z M16.48,12.2475081 C16.48,11.4675081 16.26,10.7475081 15.82,10.1075081 C15.36,9.48750809 14.78,9.04750809 14.08,8.80750809 C13.8,8.72750809 13.64,8.68750809 13.6,8.68750809 C13.44,8.68750809 13.26,8.78750809 13.02,8.94750809 C12.74,9.10750809 12.52,9.22750809 12.36,9.28750809 C11.68,9.62750809 11.12,10.2275081 10.72,11.0675081 C10.32,11.8275081 10.14,12.6475081 10.14,13.5075081 C10.14,14.5275081 10.4,15.3675081 10.96,16.0275081 C11.52,16.6675081 12.22,17.0075081 13.06,17.0075081 C14.02,17.0075081 14.84,16.5675081 15.5,15.6475081 C16.14,14.7275081 16.48,13.6075081 16.48,12.2475081 L16.48,12.2475081 Z M14.9,12.5475081 C14.9,13.2275081 14.7,13.8475081 14.34,14.4275081 C13.94,15.0275081 13.52,15.3275081 13.04,15.3275081 C12.64,15.3275081 12.32,15.1475081 12.08,14.7675081 C11.82,14.4075081 11.7,13.9875081 11.7,13.5075081 C11.7,12.8675081 11.84,12.2675081 12.16,11.7075081 C12.52,11.0675081 12.98,10.7275081 13.54,10.7275081 C13.74,10.8475081 14,10.9075081 14.32,10.9075081 C14.7,11.1475081 14.9,11.7075081 14.9,12.5475081 L14.9,12.5475081 Z M25.26,9.04750809 C25.24,8.82750809 25.16,8.60750809 25,8.40750809 C24.84,8.20750809 24.66,8.10750809 24.46,8.10750809 C23.92,8.10750809 23.64,8.40750809 23.62,8.98750809 C23.62,9.06750809 23.62,9.32750809 23.64,9.74750809 C23.64,10.2075081 23.66,10.4675081 23.66,10.5475081 C23.66,11.3275081 23.4,12.0475081 22.9,12.7275081 C22.38,13.4075081 21.8,13.7275081 21.18,13.7275081 C20.4,13.7275081 20.02,13.1675081 20.02,12.0075081 C20.02,11.5675081 20.1,10.5675081 20.3,9.00750809 C20.24,8.44750809 20,8.14750809 19.6,8.14750809 C19.04,8.14750809 18.72,8.68750809 18.6,9.74750809 C18.56,10.0475081 18.54,10.7875081 18.54,11.9875081 C18.54,14.1075081 19.38,15.1675081 21.08,15.1675081 C21.56,15.1675081 22.06,15.0475081 22.54,14.7675081 C23.02,14.5075081 23.4,14.1475081 23.64,13.7075081 C23.6,14.5075081 23.56,15.1675081 23.52,15.6675081 C23.44,16.4875081 23.42,17.0675081 23.42,17.4675081 C23.42,18.0075081 23.64,18.2875081 24.12,18.2875081 C24.64,18.2875081 24.92,18.0075081 24.94,17.4475081 C24.96,16.1475081 25.02,14.2275081 25.14,11.7075081 C25.18,10.3875081 25.22,9.50750809 25.26,9.04750809 L25.26,9.04750809 Z M34.14,10.1075081 C34.14,9.94750809 34.06,9.76750809 33.9,9.58750809 C33.74,9.42750809 33.56,9.34750809 33.4,9.34750809 C33.24,9.34750809 32.9,9.46750809 32.4,9.70750809 C31.56,10.1075081 30.5,10.8675081 29.26,11.9475081 C29.54,10.7875081 29.8,9.86750809 30.08,9.20750809 C30.24,8.78750809 30.32,8.52750809 30.32,8.44750809 C30.32,7.92750809 30.06,7.66750809 29.58,7.66750809 C29.26,7.66750809 29.02,7.84750809 28.86,8.20750809 C27.88,10.6075081 27.38,13.2475081 27.34,16.1075081 C27.3,16.2075081 27.3,16.3075081 27.3,16.4075081 C27.3,16.6475081 27.34,16.8675081 27.42,17.0875081 C27.54,17.4475081 27.82,17.6475081 28.22,17.6475081 C28.66,17.6475081 28.88,17.3875081 28.88,16.8875081 C28.88,16.8475081 28.86,16.7275081 28.86,16.5275081 C28.84,16.3275081 28.84,16.1875081 28.84,16.0675081 L28.84,15.3275081 C28.84,15.0475081 28.84,14.7275081 28.88,14.3675081 C29.02,14.2875081 29.1,14.2475081 29.12,14.2275081 C29.88,15.2475081 30.86,16.1475081 32.04,16.9275081 C32.4,17.1875081 32.68,17.3275081 32.88,17.3275081 C33.36,17.3275081 33.6,17.0675081 33.6,16.5675081 C33.6,16.3675081 33.42,16.0875081 33.1,15.7675081 C32.54,15.2675081 32.22,15.0075081 32.1,15.0075081 C32.06,15.0075081 32,15.0275081 31.96,15.0275081 C31.18,14.4075081 30.58,13.8075081 30.18,13.2275081 C31.14,12.3275081 31.94,11.6875081 32.6,11.3275081 C32.68,11.3675081 32.76,11.3875081 32.86,11.3875081 C33.12,11.3875081 33.4,11.2475081 33.68,10.9675081 C33.98,10.7075081 34.14,10.4275081 34.14,10.1075081 L34.14,10.1075081 Z M43.04,12.0075081 C43.04,11.8275081 42.94,11.6275081 42.78,11.4275081 C42.78,10.9675081 42.7,10.5675081 42.58,10.2075081 C42.6,10.1275081 42.62,10.0275081 42.62,9.92750809 C42.62,9.68750809 42.48,9.44750809 42.24,9.24750809 C41.98,9.04750809 41.72,8.92750809 41.46,8.92750809 C40.36,8.92750809 39.16,9.56750809 37.84,10.8075081 C36.46,12.0875081 35.78,13.3275081 35.78,14.4875081 C35.78,15.1075081 35.98,15.6475081 36.42,16.1275081 C36.84,16.6275081 37.34,16.8675081 37.92,16.8675081 C38.82,16.8675081 39.82,16.3075081 40.94,15.1875081 C41.04,16.7075081 41.38,17.4875081 41.96,17.4875081 C42.16,17.4875081 42.36,17.4075081 42.54,17.2875081 C42.7,17.1275081 42.8,16.9275081 42.8,16.7275081 C42.8,16.6675081 42.74,16.4275081 42.66,15.9475081 C42.56,15.4875081 42.52,15.1275081 42.52,14.8875081 C42.52,14.0875081 42.64,13.2875081 42.92,12.4475081 C43,12.2275081 43.04,12.0875081 43.04,12.0075081 L43.04,12.0075081 Z M41.22,11.4275081 C41.22,12.1075081 40.82,12.9075081 40.06,13.8275081 C39.3,14.7475081 38.6,15.1875081 38,15.1875081 C37.58,15.1875081 37.38,14.9475081 37.38,14.4475081 C37.38,13.8075081 37.88,13.0075081 38.9,12.0275081 C39.82,11.1475081 40.48,10.6875081 40.86,10.6875081 C41.1,10.6875081 41.22,10.9475081 41.22,11.4275081 L41.22,11.4275081 Z M63.14,2.62750809 C63.14,2.42750809 63.06,2.22750809 62.9,2.04750809 C62.74,1.88750809 62.54,1.78750809 62.34,1.78750809 C61.96,1.78750809 61.72,2.00750809 61.62,2.42750809 C61.48,3.02750809 61.38,3.48750809 61.34,3.80750809 C61.14,4.76750809 60.94,6.08750809 60.74,7.76750809 C59.18,8.32750809 57.34,8.64750809 55.22,8.76750809 C55.38,7.34750809 55.62,5.98750809 55.94,4.70750809 C56.14,3.78750809 56.3,3.18750809 56.42,2.88750809 C56.76,1.84750809 56.94,1.24750809 56.94,1.10750809 C56.94,0.567508092 56.66,0.287508092 56.14,0.287508092 C55.82,0.287508092 55.58,0.467508092 55.4,0.807508092 C55.34,0.907508092 55.22,1.20750809 55.06,1.72750809 C54.38,3.64750809 53.88,6.02750809 53.58,8.86750809 C53.42,8.86750809 53.12,8.84750809 52.7,8.80750809 C52.28,8.78750809 52.04,8.76750809 51.98,8.76750809 C51.78,8.76750809 51.62,8.86750809 51.5,9.02750809 C51.36,9.20750809 51.3,9.38750809 51.3,9.58750809 C51.3,10.1875081 51.74,10.4675081 52.66,10.4675081 L53.08,10.4675081 C53.24,10.4675081 53.38,10.4475081 53.46,10.4475081 C53.22,13.1275081 53.12,15.2675081 53.12,16.8675081 C53.12,17.1075081 53.18,17.3075081 53.34,17.5075081 C53.48,17.7075081 53.66,17.8075081 53.88,17.8075081 C54.1,17.8075081 54.3,17.6875081 54.48,17.4875081 C54.64,17.2675081 54.72,17.0075081 54.74,16.7275081 C54.86,14.0875081 54.98,11.9875081 55.1,10.4075081 C57.1,10.2475081 58.9,9.94750809 60.54,9.54750809 C60.26,12.4675081 60.14,14.6875081 60.14,16.2275081 C60.14,17.3075081 60.44,17.8675081 61.06,17.8675081 C61.26,17.8675081 61.46,17.7875081 61.62,17.6275081 C61.78,17.4475081 61.86,17.2475081 61.86,17.0275081 C61.86,16.9475081 61.84,16.7275081 61.84,16.3475081 C61.82,15.9675081 61.82,15.6875081 61.82,15.4875081 C61.82,12.2275081 62.2,8.26750809 62.98,3.62750809 L63.14,2.62750809 Z M72.46,12.0075081 C72.46,11.8275081 72.36,11.6275081 72.2,11.4275081 C72.2,10.9675081 72.12,10.5675081 72,10.2075081 C72.02,10.1275081 72.04,10.0275081 72.04,9.92750809 C72.04,9.68750809 71.9,9.44750809 71.66,9.24750809 C71.4,9.04750809 71.14,8.92750809 70.88,8.92750809 C69.78,8.92750809 68.58,9.56750809 67.26,10.8075081 C65.88,12.0875081 65.2,13.3275081 65.2,14.4875081 C65.2,15.1075081 65.4,15.6475081 65.84,16.1275081 C66.26,16.6275081 66.76,16.8675081 67.34,16.8675081 C68.24,16.8675081 69.24,16.3075081 70.36,15.1875081 C70.46,16.7075081 70.8,17.4875081 71.38,17.4875081 C71.58,17.4875081 71.78,17.4075081 71.96,17.2875081 C72.12,17.1275081 72.22,16.9275081 72.22,16.7275081 C72.22,16.6675081 72.16,16.4275081 72.08,15.9475081 C71.98,15.4875081 71.94,15.1275081 71.94,14.8875081 C71.94,14.0875081 72.06,13.2875081 72.34,12.4475081 C72.42,12.2275081 72.46,12.0875081 72.46,12.0075081 L72.46,12.0075081 Z M70.64,11.4275081 C70.64,12.1075081 70.24,12.9075081 69.48,13.8275081 C68.72,14.7475081 68.02,15.1875081 67.42,15.1875081 C67,15.1875081 66.8,14.9475081 66.8,14.4475081 C66.8,13.8075081 67.3,13.0075081 68.32,12.0275081 C69.24,11.1475081 69.9,10.6875081 70.28,10.6875081 C70.52,10.6875081 70.64,10.9475081 70.64,11.4275081 L70.64,11.4275081 Z M82.54,8.32750809 C82.54,8.12750809 82.46,7.92750809 82.32,7.74750809 C82.18,7.58750809 82.02,7.48750809 81.84,7.48750809 C81.54,7.48750809 81.12,7.56750809 80.56,7.68750809 C78.36,8.20750809 76.4,8.66750809 74.72,9.06750809 C74.6,9.10750809 74.52,9.10750809 74.48,9.10750809 C74.08,9.18750809 73.88,9.48750809 73.88,9.98750809 C73.88,10.5475081 74.1,10.8075081 74.58,10.8075081 C75.16,10.6875081 75.62,10.5875081 75.94,10.4875081 C76.52,10.3675081 77.02,10.2475081 77.44,10.1675081 C77.36,11.7075081 77.32,13.1875081 77.32,14.5875081 C77.32,15.9475081 77.4,16.8875081 77.56,17.4075081 C77.68,17.7675081 77.92,17.9475081 78.32,17.9475081 C78.84,17.9475081 79.1,17.4675081 79.1,16.5275081 C79.1,16.0675081 79,15.7275081 78.84,15.5075081 C78.8,15.0075081 78.78,14.2275081 78.78,13.1475081 C78.78,12.3075081 78.84,11.1675081 79,9.74750809 C79.58,9.60750809 79.98,9.50750809 80.22,9.46750809 C80.4,9.58750809 80.54,9.62750809 80.64,9.62750809 C80.76,9.62750809 80.9,9.60750809 81.08,9.52750809 L82,9.10750809 C82.36,8.94750809 82.54,8.68750809 82.54,8.32750809 L82.54,8.32750809 Z M91.02,12.0075081 C91.02,11.8275081 90.92,11.6275081 90.76,11.4275081 C90.76,10.9675081 90.68,10.5675081 90.56,10.2075081 C90.58,10.1275081 90.6,10.0275081 90.6,9.92750809 C90.6,9.68750809 90.46,9.44750809 90.22,9.24750809 C89.96,9.04750809 89.7,8.92750809 89.44,8.92750809 C88.34,8.92750809 87.14,9.56750809 85.82,10.8075081 C84.44,12.0875081 83.76,13.3275081 83.76,14.4875081 C83.76,15.1075081 83.96,15.6475081 84.4,16.1275081 C84.82,16.6275081 85.32,16.8675081 85.9,16.8675081 C86.8,16.8675081 87.8,16.3075081 88.92,15.1875081 C89.02,16.7075081 89.36,17.4875081 89.94,17.4875081 C90.14,17.4875081 90.34,17.4075081 90.52,17.2875081 C90.68,17.1275081 90.78,16.9275081 90.78,16.7275081 C90.78,16.6675081 90.72,16.4275081 90.64,15.9475081 C90.54,15.4875081 90.5,15.1275081 90.5,14.8875081 C90.5,14.0875081 90.62,13.2875081 90.9,12.4475081 C90.98,12.2275081 91.02,12.0875081 91.02,12.0075081 L91.02,12.0075081 Z M89.2,11.4275081 C89.2,12.1075081 88.8,12.9075081 88.04,13.8275081 C87.28,14.7475081 86.58,15.1875081 85.98,15.1875081 C85.56,15.1875081 85.36,14.9475081 85.36,14.4475081 C85.36,13.8075081 85.86,13.0075081 86.88,12.0275081 C87.8,11.1475081 88.46,10.6875081 88.84,10.6875081 C89.08,10.6875081 89.2,10.9475081 89.2,11.4275081 L89.2,11.4275081 Z M102.02,9.76750809 C102.02,9.52750809 101.92,9.24750809 101.76,8.94750809 C101.56,8.66750809 101.34,8.50750809 101.1,8.50750809 C100.7,8.50750809 100.46,8.64750809 100.34,8.92750809 C100.36,9.10750809 100.38,9.36750809 100.42,9.72750809 C100.44,10.1275081 100.46,10.4275081 100.46,10.6075081 C100.46,11.1675081 100.32,12.8675081 100.04,15.6675081 C99.1,15.7675081 98.44,15.8275081 98.08,15.8275081 C98.36,11.8075081 98.5,9.70750809 98.5,9.50750809 C98.5,8.62750809 98.14,8.16750809 97.46,8.16750809 C97.34,8.16750809 97.2,8.22750809 97.06,8.32750809 C96.9,8.44750809 96.82,8.56750809 96.82,8.68750809 C96.82,8.72750809 96.84,8.86750809 96.9,9.06750809 C96.92,9.28750809 96.94,9.42750809 96.94,9.48750809 C96.94,11.4075081 96.8,13.5675081 96.54,15.9875081 C95.46,16.1275081 94.88,16.1875081 94.8,16.1875081 C94.64,16.1875081 94.54,16.0875081 94.52,15.8475081 C94.52,15.7275081 94.58,14.8875081 94.66,13.3475081 C94.76,11.8075081 94.82,10.9475081 94.82,10.7475081 C94.82,10.0275081 94.74,9.50750809 94.6,9.18750809 C94.4,8.68750809 94.1,8.42750809 93.74,8.42750809 C93.58,8.42750809 93.42,8.50750809 93.3,8.64750809 C93.18,8.76750809 93.12,8.92750809 93.12,9.08750809 C93.22,9.62750809 93.28,10.1475081 93.28,10.6275081 C93.28,12.2075081 93.2,13.9475081 93.06,15.8275081 C93.1,16.5475081 93.32,17.0475081 93.72,17.3875081 C93.98,17.5875081 94.28,17.7075081 94.6,17.7075081 C96.24,17.4075081 97.74,17.2675081 99.08,17.2675081 C99.22,17.2675081 99.44,17.2875081 99.74,17.3275081 C100.02,17.3675081 100.24,17.4075081 100.4,17.4075081 C101.12,17.4075081 101.48,17.0075081 101.52,16.2475081 C101.54,15.4475081 101.64,14.2275081 101.8,12.5675081 C101.94,10.9075081 102.02,9.96750809 102.02,9.76750809 L102.02,9.76750809 Z M111.34,12.0075081 C111.34,11.8275081 111.24,11.6275081 111.08,11.4275081 C111.08,10.9675081 111,10.5675081 110.88,10.2075081 C110.9,10.1275081 110.92,10.0275081 110.92,9.92750809 C110.92,9.68750809 110.78,9.44750809 110.54,9.24750809 C110.28,9.04750809 110.02,8.92750809 109.76,8.92750809 C108.66,8.92750809 107.46,9.56750809 106.14,10.8075081 C104.76,12.0875081 104.08,13.3275081 104.08,14.4875081 C104.08,15.1075081 104.28,15.6475081 104.72,16.1275081 C105.14,16.6275081 105.64,16.8675081 106.22,16.8675081 C107.12,16.8675081 108.12,16.3075081 109.24,15.1875081 C109.34,16.7075081 109.68,17.4875081 110.26,17.4875081 C110.46,17.4875081 110.66,17.4075081 110.84,17.2875081 C111,17.1275081 111.1,16.9275081 111.1,16.7275081 C111.1,16.6675081 111.04,16.4275081 110.96,15.9475081 C110.86,15.4875081 110.82,15.1275081 110.82,14.8875081 C110.82,14.0875081 110.94,13.2875081 111.22,12.4475081 C111.3,12.2275081 111.34,12.0875081 111.34,12.0075081 L111.34,12.0075081 Z M109.52,11.4275081 C109.52,12.1075081 109.12,12.9075081 108.36,13.8275081 C107.6,14.7475081 106.9,15.1875081 106.3,15.1875081 C105.88,15.1875081 105.68,14.9475081 105.68,14.4475081 C105.68,13.8075081 106.18,13.0075081 107.2,12.0275081 C108.12,11.1475081 108.78,10.6875081 109.16,10.6875081 C109.4,10.6875081 109.52,10.9475081 109.52,11.4275081 L109.52,11.4275081 Z" id="почка-Наташа" fill="#354777"></path>
            </g>
        </g>
    </g>
</svg>