<?xml version="1.0" encoding="UTF-8"?>
<svg width="176px" height="40px" viewBox="0 0 176 40" version="1.1" xmlns="http://www.w3.org/2000/svg" xmlns:xlink="http://www.w3.org/1999/xlink">
    <!-- Generator: Sketch 40.3 (33839) - http://www.bohemiancoding.com/sketch -->
    <title>Не запускай это дело</title>
    <desc>Created with Sketch.</desc>
    <defs></defs>
    <g id="Page-1" stroke="none" stroke-width="1" fill="none" fill-rule="evenodd">
        <g id="piolonefrit" transform="translate(-1364.000000, -515.000000)" fill="#354777">
            <path d="M1375.14193,523.98 C1375.14193,523.78 1375.06193,523.58 1374.90193,523.4 C1374.74193,523.24 1374.54193,523.14 1374.34193,523.14 C1373.96193,523.14 1373.72193,523.36 1373.62193,523.78 C1373.48193,524.38 1373.38193,524.84 1373.34193,525.16 C1373.14193,526.12 1372.94193,527.44 1372.74193,529.12 C1371.18193,529.68 1369.34193,530 1367.22193,530.12 C1367.38193,528.7 1367.62193,527.34 1367.94193,526.06 C1368.14193,525.14 1368.30193,524.54 1368.42193,524.24 C1368.76193,523.2 1368.94193,522.6 1368.94193,522.46 C1368.94193,521.92 1368.66193,521.64 1368.14193,521.64 C1367.82193,521.64 1367.58193,521.82 1367.40193,522.16 C1367.34193,522.26 1367.22193,522.56 1367.06193,523.08 C1366.38193,525 1365.88193,527.38 1365.58193,530.22 C1365.42193,530.22 1365.12193,530.2 1364.70193,530.16 C1364.28193,530.14 1364.04193,530.12 1363.98193,530.12 C1363.78193,530.12 1363.62193,530.22 1363.50193,530.38 C1363.36193,530.56 1363.30193,530.74 1363.30193,530.94 C1363.30193,531.54 1363.74193,531.82 1364.66193,531.82 L1365.08193,531.82 C1365.24193,531.82 1365.38193,531.8 1365.46193,531.8 C1365.22193,534.48 1365.12193,536.62 1365.12193,538.22 C1365.12193,538.46 1365.18193,538.66 1365.34193,538.86 C1365.48193,539.06 1365.66193,539.16 1365.88193,539.16 C1366.10193,539.16 1366.30193,539.04 1366.48193,538.84 C1366.64193,538.62 1366.72193,538.36 1366.74193,538.08 C1366.86193,535.44 1366.98193,533.34 1367.10193,531.76 C1369.10193,531.6 1370.90193,531.3 1372.54193,530.9 C1372.26193,533.82 1372.14193,536.04 1372.14193,537.58 C1372.14193,538.66 1372.44193,539.22 1373.06193,539.22 C1373.26193,539.22 1373.46193,539.14 1373.62193,538.98 C1373.78193,538.8 1373.86193,538.6 1373.86193,538.38 C1373.86193,538.3 1373.84193,538.08 1373.84193,537.7 C1373.82193,537.32 1373.82193,537.04 1373.82193,536.84 C1373.82193,533.58 1374.20193,529.62 1374.98193,524.98 L1375.14193,523.98 Z M1385.14193,537.64 C1385.14193,537.44 1385.06193,537.24 1384.90193,537.04 C1384.74193,536.88 1384.54193,536.78 1384.34193,536.78 C1384.18193,536.78 1383.92193,536.82 1383.58193,536.86 C1383.24193,536.9 1382.98193,536.92 1382.82193,536.92 C1382.22193,536.92 1381.70193,536.64 1381.22193,536.06 C1383.22193,534.98 1384.22193,533.7 1384.22193,532.22 C1384.22193,531.66 1383.98193,531.12 1383.50193,530.64 C1383.02193,530.16 1382.54193,529.92 1382.04193,529.92 C1381.18193,529.92 1380.48193,530.42 1379.92193,531.4 C1379.44193,532.24 1379.20193,533.14 1379.20193,534.1 C1379.20193,534.3 1379.22193,534.58 1379.28193,534.92 L1378.82193,534.92 C1378.54193,534.92 1378.28193,534.82 1378.00193,534.62 C1377.72193,534.42 1377.52193,534.32 1377.40193,534.32 C1376.88193,534.32 1376.62193,534.6 1376.62193,535.16 C1376.62193,535.6 1376.94193,535.96 1377.62193,536.24 C1378.14193,536.46 1378.64193,536.56 1379.16193,536.56 L1379.76193,536.56 C1380.48193,537.94 1381.60193,538.62 1383.12193,538.62 C1384.46193,538.62 1385.14193,538.28 1385.14193,537.64 L1385.14193,537.64 Z M1382.64193,532.3 C1382.64193,532.96 1382.04193,533.68 1380.84193,534.46 L1380.84193,534.1 C1380.84193,533.56 1380.92193,533.04 1381.12193,532.54 C1381.32193,531.94 1381.60193,531.64 1381.96193,531.64 C1382.12193,531.64 1382.28193,531.72 1382.44193,531.84 C1382.56193,532 1382.64193,532.14 1382.64193,532.3 L1382.64193,532.3 Z M1399.74193,535.68 C1399.74193,534.48 1399.14193,533.68 1397.96193,533.32 C1398.82193,532.84 1399.26193,532.24 1399.26193,531.5 C1399.26193,530.26 1398.28193,529.64 1396.36193,529.64 C1394.70193,529.64 1393.88193,530 1393.88193,530.72 C1393.88193,531.24 1394.12193,531.5 1394.60193,531.52 C1394.72193,531.5 1395.02193,531.4 1395.50193,531.2 C1395.82193,531.08 1396.12193,531 1396.36193,531 C1397.28193,531 1397.74193,531.22 1397.74193,531.66 C1397.74193,531.94 1397.50193,532.24 1397.02193,532.52 C1396.58193,532.76 1396.08193,532.94 1395.50193,533.06 C1394.78193,533.22 1394.40193,533.3 1394.34193,533.32 C1394.10193,533.42 1394.00193,533.62 1394.00193,533.9 C1394.00193,534.1 1394.06193,534.32 1394.22193,534.52 C1394.36193,534.74 1394.54193,534.84 1394.74193,534.84 C1394.84193,534.84 1394.98193,534.8 1395.16193,534.68 C1395.52193,534.48 1395.94193,534.36 1396.40193,534.36 C1396.86193,534.36 1397.26193,534.44 1397.62193,534.6 C1398.06193,534.8 1398.28193,535.1 1398.28193,535.5 C1398.28193,535.98 1397.90193,536.46 1397.18193,536.92 C1396.50193,537.38 1395.92193,537.6 1395.44193,537.6 C1394.88193,537.6 1394.62193,537.52 1394.62193,537.36 C1394.62193,537.28 1394.64193,537.16 1394.70193,537.04 C1394.74193,536.9 1394.76193,536.8 1394.76193,536.76 C1394.76193,536.4 1394.52193,536.22 1394.06193,536.22 C1393.90193,536.22 1393.72193,536.36 1393.54193,536.6 C1393.34193,536.88 1393.26193,537.12 1393.26193,537.32 C1393.26193,537.6 1393.36193,537.9 1393.60193,538.22 C1393.96193,538.74 1394.62193,539 1395.56193,539 C1396.48193,539 1397.40193,538.66 1398.30193,538.02 C1399.26193,537.34 1399.74193,536.56 1399.74193,535.68 L1399.74193,535.68 Z M1408.84193,533.36 C1408.84193,533.18 1408.74193,532.98 1408.58193,532.78 C1408.58193,532.32 1408.50193,531.92 1408.38193,531.56 C1408.40193,531.48 1408.42193,531.38 1408.42193,531.28 C1408.42193,531.04 1408.28193,530.8 1408.04193,530.6 C1407.78193,530.4 1407.52193,530.28 1407.26193,530.28 C1406.16193,530.28 1404.96193,530.92 1403.64193,532.16 C1402.26193,533.44 1401.58193,534.68 1401.58193,535.84 C1401.58193,536.46 1401.78193,537 1402.22193,537.48 C1402.64193,537.98 1403.14193,538.22 1403.72193,538.22 C1404.62193,538.22 1405.62193,537.66 1406.74193,536.54 C1406.84193,538.06 1407.18193,538.84 1407.76193,538.84 C1407.96193,538.84 1408.16193,538.76 1408.34193,538.64 C1408.50193,538.48 1408.60193,538.28 1408.60193,538.08 C1408.60193,538.02 1408.54193,537.78 1408.46193,537.3 C1408.36193,536.84 1408.32193,536.48 1408.32193,536.24 C1408.32193,535.44 1408.44193,534.64 1408.72193,533.8 C1408.80193,533.58 1408.84193,533.44 1408.84193,533.36 L1408.84193,533.36 Z M1407.02193,532.78 C1407.02193,533.46 1406.62193,534.26 1405.86193,535.18 C1405.10193,536.1 1404.40193,536.54 1403.80193,536.54 C1403.38193,536.54 1403.18193,536.3 1403.18193,535.8 C1403.18193,535.16 1403.68193,534.36 1404.70193,533.38 C1405.62193,532.5 1406.28193,532.04 1406.66193,532.04 C1406.90193,532.04 1407.02193,532.3 1407.02193,532.78 L1407.02193,532.78 Z M1417.94193,530.52 C1417.94193,530.3 1417.84193,530.1 1417.64193,529.94 C1417.42193,529.8 1417.20193,529.72 1416.98193,529.68 C1414.94193,529.84 1413.32193,529.98 1412.16193,530.06 C1411.46193,530.12 1411.12193,530.36 1411.12193,530.8 C1411.12193,531.08 1411.16193,531.32 1411.28193,531.54 C1411.14193,533.6 1411.08193,534.64 1411.08193,534.68 C1410.94193,536.12 1410.88193,536.84 1410.88193,536.84 C1410.88193,537.1 1410.96193,537.36 1411.14193,537.62 C1411.32193,537.88 1411.52193,538 1411.76193,538 C1412.16193,538 1412.36193,537.74 1412.40193,537.2 C1412.52193,535.04 1412.64193,533.18 1412.80193,531.62 C1413.82193,531.48 1414.88193,531.38 1415.98193,531.34 C1415.98193,531.4 1415.94193,532.38 1415.88193,534.26 C1415.80193,535.94 1415.78193,536.84 1415.78193,536.96 C1415.78193,538.26 1416.12193,538.92 1416.84193,538.92 C1417.22193,538.92 1417.42193,538.7 1417.42193,538.3 C1417.30193,537.7 1417.26193,537.14 1417.26193,536.66 C1417.26193,536.02 1417.30193,535 1417.38193,533.6 C1417.40193,533.38 1417.44193,533.06 1417.50193,532.62 C1417.54193,532.26 1417.56193,532.06 1417.56193,531.98 C1417.56193,531.86 1417.52193,531.68 1417.48193,531.44 C1417.78193,531.12 1417.94193,530.82 1417.94193,530.52 L1417.94193,530.52 Z M1427.28193,534.72 L1427.28193,533.38 C1427.28193,531.98 1426.96193,531.26 1426.34193,531.26 C1426.02193,531.26 1425.72193,531.54 1425.42193,532.06 C1424.80193,533.16 1424.32193,533.94 1423.96193,534.38 C1423.48193,534.98 1423.02193,535.28 1422.58193,535.28 C1422.26193,535.28 1422.12193,535.1 1422.12193,534.74 C1422.12193,534.42 1422.18193,533.8 1422.30193,532.88 C1422.42193,531.96 1422.50193,531.4 1422.50193,531.22 C1422.50193,530.74 1422.42193,530.3 1422.26193,529.94 C1422.08193,529.5 1421.82193,529.28 1421.50193,529.28 C1420.90193,529.28 1420.62193,529.54 1420.62193,530.04 C1420.62193,530.16 1420.64193,530.32 1420.72193,530.56 C1420.78193,530.8 1420.82193,530.96 1420.82193,531.08 C1420.82193,531.48 1420.76193,532.08 1420.66193,532.92 C1420.56193,533.76 1420.52193,534.4 1420.52193,534.8 C1420.52193,535.46 1420.70193,536 1421.08193,536.42 C1421.44193,536.86 1421.92193,537.06 1422.56193,537.06 C1423.58193,537.06 1424.62193,536.32 1425.68193,534.84 C1425.68193,535.52 1425.62193,536.16 1425.52193,536.78 C1425.04193,539.44 1423.28193,540.78 1420.22193,540.82 C1419.74193,540.76 1419.38193,540.72 1419.14193,540.7 C1418.64193,540.72 1418.38193,540.98 1418.38193,541.5 C1418.38193,542.22 1419.00193,542.6 1420.24193,542.6 C1422.20193,542.6 1423.78193,542.06 1425.02193,541.02 C1426.52193,539.74 1427.28193,537.66 1427.28193,534.72 L1427.28193,534.72 Z M1435.50193,536.16 C1435.50193,535.96 1435.42193,535.76 1435.26193,535.56 C1435.10193,535.4 1434.92193,535.3 1434.72193,535.3 C1434.56193,535.3 1434.32193,535.44 1434.04193,535.7 C1433.80193,535.9 1433.56193,536.1 1433.36193,536.3 C1433.02193,536.56 1432.60193,536.68 1432.10193,536.68 C1431.30193,536.68 1430.92193,536.2 1430.92193,535.2 C1430.92193,534.58 1431.10193,533.96 1431.46193,533.36 C1431.82193,532.76 1432.26193,532.26 1432.80193,531.9 C1433.04193,532.04 1433.40193,532.1 1433.90193,532.1 C1434.16193,532.1 1434.42193,532 1434.68193,531.76 C1434.90193,531.52 1435.02193,531.3 1435.02193,531.06 C1435.02193,530.74 1434.90193,530.5 1434.66193,530.3 C1434.40193,530.12 1434.12193,530.02 1433.82193,530.02 C1432.56193,530.02 1431.44193,530.68 1430.48193,531.98 C1429.70193,533.02 1429.32193,534.16 1429.32193,535.4 C1429.32193,536.28 1429.60193,536.98 1430.16193,537.54 C1430.72193,538.08 1431.42193,538.36 1432.26193,538.36 C1433.02193,538.36 1433.80193,538.06 1434.56193,537.46 C1435.18193,536.98 1435.50193,536.56 1435.50193,536.16 L1435.50193,536.16 Z M1444.18193,531.46 C1444.18193,531.3 1444.10193,531.12 1443.94193,530.94 C1443.78193,530.78 1443.60193,530.7 1443.44193,530.7 C1443.28193,530.7 1442.94193,530.82 1442.44193,531.06 C1441.60193,531.46 1440.54193,532.22 1439.30193,533.3 C1439.58193,532.14 1439.84193,531.22 1440.12193,530.56 C1440.28193,530.14 1440.36193,529.88 1440.36193,529.8 C1440.36193,529.28 1440.10193,529.02 1439.62193,529.02 C1439.30193,529.02 1439.06193,529.2 1438.90193,529.56 C1437.92193,531.96 1437.42193,534.6 1437.38193,537.46 C1437.34193,537.56 1437.34193,537.66 1437.34193,537.76 C1437.34193,538 1437.38193,538.22 1437.46193,538.44 C1437.58193,538.8 1437.86193,539 1438.26193,539 C1438.70193,539 1438.92193,538.74 1438.92193,538.24 C1438.92193,538.2 1438.90193,538.08 1438.90193,537.88 C1438.88193,537.68 1438.88193,537.54 1438.88193,537.42 L1438.88193,536.68 C1438.88193,536.4 1438.88193,536.08 1438.92193,535.72 C1439.06193,535.64 1439.14193,535.6 1439.16193,535.58 C1439.92193,536.6 1440.90193,537.5 1442.08193,538.28 C1442.44193,538.54 1442.72193,538.68 1442.92193,538.68 C1443.40193,538.68 1443.64193,538.42 1443.64193,537.92 C1443.64193,537.72 1443.46193,537.44 1443.14193,537.12 C1442.58193,536.62 1442.26193,536.36 1442.14193,536.36 C1442.10193,536.36 1442.04193,536.38 1442.00193,536.38 C1441.22193,535.76 1440.62193,535.16 1440.22193,534.58 C1441.18193,533.68 1441.98193,533.04 1442.64193,532.68 C1442.72193,532.72 1442.80193,532.74 1442.90193,532.74 C1443.16193,532.74 1443.44193,532.6 1443.72193,532.32 C1444.02193,532.06 1444.18193,531.78 1444.18193,531.46 L1444.18193,531.46 Z M1453.08193,533.36 C1453.08193,533.18 1452.98193,532.98 1452.82193,532.78 C1452.82193,532.32 1452.74193,531.92 1452.62193,531.56 C1452.64193,531.48 1452.66193,531.38 1452.66193,531.28 C1452.66193,531.04 1452.52193,530.8 1452.28193,530.6 C1452.02193,530.4 1451.76193,530.28 1451.50193,530.28 C1450.40193,530.28 1449.20193,530.92 1447.88193,532.16 C1446.50193,533.44 1445.82193,534.68 1445.82193,535.84 C1445.82193,536.46 1446.02193,537 1446.46193,537.48 C1446.88193,537.98 1447.38193,538.22 1447.96193,538.22 C1448.86193,538.22 1449.86193,537.66 1450.98193,536.54 C1451.08193,538.06 1451.42193,538.84 1452.00193,538.84 C1452.20193,538.84 1452.40193,538.76 1452.58193,538.64 C1452.74193,538.48 1452.84193,538.28 1452.84193,538.08 C1452.84193,538.02 1452.78193,537.78 1452.70193,537.3 C1452.60193,536.84 1452.56193,536.48 1452.56193,536.24 C1452.56193,535.44 1452.68193,534.64 1452.96193,533.8 C1453.04193,533.58 1453.08193,533.44 1453.08193,533.36 L1453.08193,533.36 Z M1451.26193,532.78 C1451.26193,533.46 1450.86193,534.26 1450.10193,535.18 C1449.34193,536.1 1448.64193,536.54 1448.04193,536.54 C1447.62193,536.54 1447.42193,536.3 1447.42193,535.8 C1447.42193,535.16 1447.92193,534.36 1448.94193,533.38 C1449.86193,532.5 1450.52193,532.04 1450.90193,532.04 C1451.14193,532.04 1451.26193,532.3 1451.26193,532.78 L1451.26193,532.78 Z M1460.84193,527.04 C1460.84193,526.78 1460.70193,526.54 1460.44193,526.32 C1460.14193,526.12 1459.86193,526.02 1459.62193,526.02 C1459.48193,526.02 1459.38193,526.06 1459.32193,526.14 C1459.52193,526.5 1459.62193,526.74 1459.62193,526.82 C1459.62193,527.06 1459.48193,527.34 1459.24193,527.66 C1458.96193,528 1458.72193,528.16 1458.52193,528.16 C1458.40193,528.16 1458.32193,528.02 1458.24193,527.74 L1457.86193,526.58 C1457.66193,526.18 1457.34193,525.98 1456.90193,525.98 C1456.82193,525.98 1456.74193,526.04 1456.66193,526.12 C1456.56193,526.24 1456.52193,526.32 1456.52193,526.36 C1456.52193,526.86 1456.84193,527.6 1457.50193,528.58 C1457.82193,529.06 1458.16193,529.3 1458.54193,529.3 C1458.96193,529.3 1459.46193,529.04 1460.02193,528.48 C1460.56193,527.96 1460.84193,527.48 1460.84193,527.04 L1460.84193,527.04 Z M1462.54193,538.12 C1462.54193,537.98 1462.44193,537.8 1462.26193,537.6 C1461.82193,537.12 1461.62193,535.9 1461.62193,533.94 C1461.62193,533.24 1461.72193,532.06 1461.94193,530.4 C1461.94193,530.18 1461.84193,529.98 1461.68193,529.78 C1461.50193,529.6 1461.30193,529.5 1461.08193,529.5 C1460.74193,529.5 1460.02193,530.24 1458.94193,531.72 C1458.06193,532.88 1457.34193,533.94 1456.74193,534.86 C1456.88193,533.3 1456.98193,532.16 1457.04193,531.48 C1457.04193,531.16 1456.92193,530.88 1456.72193,530.64 C1456.52193,530.42 1456.26193,530.3 1455.94193,530.3 C1455.76193,530.3 1455.60193,530.42 1455.44193,530.64 C1455.48193,531.22 1455.52193,531.56 1455.52193,531.64 C1455.52193,532 1455.46193,532.9 1455.36193,534.36 L1455.32193,534.94 C1455.30193,535.24 1455.26193,535.64 1455.22193,536.14 C1455.16193,536.62 1455.12193,536.92 1455.12193,537.04 C1455.14193,537.32 1455.22193,537.54 1455.38193,537.66 C1455.70193,537.98 1455.90193,538.12 1455.98193,538.12 C1456.26193,538.12 1456.60193,537.82 1456.96193,537.18 C1457.70193,535.94 1458.22193,535.06 1458.54193,534.58 C1459.06193,533.72 1459.62193,532.92 1460.24193,532.2 C1460.24193,532.4 1460.22193,532.82 1460.22193,533.44 C1460.20193,534.08 1460.20193,534.42 1460.20193,534.5 C1460.20193,535.54 1460.30193,536.42 1460.52193,537.18 C1460.82193,538.28 1461.26193,538.84 1461.82193,538.84 C1461.94193,538.84 1462.10193,538.74 1462.28193,538.58 C1462.44193,538.38 1462.54193,538.24 1462.54193,538.12 L1462.54193,538.12 Z M1478.12193,532.92 C1478.12193,531.92 1477.86193,531.12 1477.38193,530.48 C1476.82193,529.8 1476.04193,529.46 1475.06193,529.46 C1474.26193,529.46 1473.50193,529.68 1472.78193,530.08 C1472.20193,530.42 1471.92193,530.82 1471.92193,531.26 C1471.92193,531.46 1471.98193,531.64 1472.14193,531.76 C1472.28193,531.92 1472.44193,531.98 1472.64193,531.98 C1472.74193,531.98 1473.00193,531.82 1473.40193,531.5 C1473.98193,531.04 1474.50193,530.8 1474.94193,530.8 C1475.86193,530.8 1476.38193,531.46 1476.50193,532.76 C1474.38193,533.3 1473.18193,533.58 1472.90193,533.6 C1472.72193,533.58 1472.58193,533.56 1472.50193,533.52 C1472.18193,533.72 1472.04193,533.98 1472.04193,534.3 C1472.04193,534.5 1472.12193,534.68 1472.28193,534.84 C1472.46193,535 1472.66193,535.08 1472.86193,535.08 C1473.12193,535.08 1473.54193,535 1474.12193,534.84 C1474.80193,534.64 1475.58193,534.44 1476.44193,534.26 C1476.28193,535.16 1475.92193,535.9 1475.38193,536.48 C1474.84193,537.08 1474.20193,537.36 1473.46193,537.36 C1473.14193,537.36 1472.68193,537.22 1472.10193,536.94 C1471.50193,536.94 1471.22193,537.24 1471.22193,537.84 C1471.22193,538.14 1471.46193,538.42 1471.98193,538.66 C1472.38193,538.84 1472.76193,538.94 1473.12193,538.94 C1474.74193,538.94 1476.00193,538.3 1476.92193,537.06 C1477.72193,535.96 1478.12193,534.58 1478.12193,532.92 L1478.12193,532.92 Z M1488.00193,529.68 C1488.00193,529.48 1487.92193,529.28 1487.78193,529.1 C1487.64193,528.94 1487.48193,528.84 1487.30193,528.84 C1487.00193,528.84 1486.58193,528.92 1486.02193,529.04 C1483.82193,529.56 1481.86193,530.02 1480.18193,530.42 C1480.06193,530.46 1479.98193,530.46 1479.94193,530.46 C1479.54193,530.54 1479.34193,530.84 1479.34193,531.34 C1479.34193,531.9 1479.56193,532.16 1480.04193,532.16 C1480.62193,532.04 1481.08193,531.94 1481.40193,531.84 C1481.98193,531.72 1482.48193,531.6 1482.90193,531.52 C1482.82193,533.06 1482.78193,534.54 1482.78193,535.94 C1482.78193,537.3 1482.86193,538.24 1483.02193,538.76 C1483.14193,539.12 1483.38193,539.3 1483.78193,539.3 C1484.30193,539.3 1484.56193,538.82 1484.56193,537.88 C1484.56193,537.42 1484.46193,537.08 1484.30193,536.86 C1484.26193,536.36 1484.24193,535.58 1484.24193,534.5 C1484.24193,533.66 1484.30193,532.52 1484.46193,531.1 C1485.04193,530.96 1485.44193,530.86 1485.68193,530.82 C1485.86193,530.94 1486.00193,530.98 1486.10193,530.98 C1486.22193,530.98 1486.36193,530.96 1486.54193,530.88 L1487.46193,530.46 C1487.82193,530.3 1488.00193,530.04 1488.00193,529.68 L1488.00193,529.68 Z M1495.56193,533.6 C1495.56193,532.82 1495.34193,532.1 1494.90193,531.46 C1494.44193,530.84 1493.86193,530.4 1493.16193,530.16 C1492.88193,530.08 1492.72193,530.04 1492.68193,530.04 C1492.52193,530.04 1492.34193,530.14 1492.10193,530.3 C1491.82193,530.46 1491.60193,530.58 1491.44193,530.64 C1490.76193,530.98 1490.20193,531.58 1489.80193,532.42 C1489.40193,533.18 1489.22193,534 1489.22193,534.86 C1489.22193,535.88 1489.48193,536.72 1490.04193,537.38 C1490.60193,538.02 1491.30193,538.36 1492.14193,538.36 C1493.10193,538.36 1493.92193,537.92 1494.58193,537 C1495.22193,536.08 1495.56193,534.96 1495.56193,533.6 L1495.56193,533.6 Z M1493.98193,533.9 C1493.98193,534.58 1493.78193,535.2 1493.42193,535.78 C1493.02193,536.38 1492.60193,536.68 1492.12193,536.68 C1491.72193,536.68 1491.40193,536.5 1491.16193,536.12 C1490.90193,535.76 1490.78193,535.34 1490.78193,534.86 C1490.78193,534.22 1490.92193,533.62 1491.24193,533.06 C1491.60193,532.42 1492.06193,532.08 1492.62193,532.08 C1492.82193,532.2 1493.08193,532.26 1493.40193,532.26 C1493.78193,532.5 1493.98193,533.06 1493.98193,533.9 L1493.98193,533.9 Z M1513.08193,538.04 C1513.08193,537.98 1513.04193,537.88 1512.96193,537.76 C1512.72193,537.32 1512.44193,537.1 1512.16193,537.1 C1512.12193,537.1 1512.06193,537.12 1511.96193,537.12 C1512.06193,534.64 1512.14193,532.84 1512.22193,531.7 C1512.26193,531.12 1512.38193,530.54 1512.60193,529.94 C1512.60193,529.74 1512.48193,529.52 1512.28193,529.32 C1512.08193,529.12 1511.88193,529.02 1511.68193,529.02 C1511.16193,529.02 1510.54193,529.14 1509.80193,529.34 C1508.92193,529.6 1508.34193,529.8 1508.06193,529.92 C1507.62193,530.16 1507.42193,530.46 1507.42193,530.8 C1507.42193,530.9 1507.46193,531.04 1507.56193,531.24 C1507.62193,531.44 1507.66193,531.58 1507.66193,531.66 C1507.66193,532.54 1507.44193,533.54 1507.00193,534.7 C1506.52193,535.92 1505.98193,536.88 1505.34193,537.58 C1504.72193,537.62 1504.40193,537.9 1504.36193,538.42 C1504.28193,539.2 1504.26193,539.88 1504.26193,540.44 C1504.26193,540.62 1504.34193,540.8 1504.50193,540.96 C1504.66193,541.12 1504.88193,541.22 1505.12193,541.22 C1505.58193,541.22 1505.82193,540.98 1505.82193,540.52 C1505.82193,540.44 1505.80193,540.34 1505.78193,540.2 C1505.74193,540.06 1505.74193,539.96 1505.74193,539.92 C1505.74193,539.84 1505.74193,539.76 1505.76193,539.64 L1505.76193,539.34 C1505.76193,539.18 1505.90193,539.08 1506.22193,539.06 C1507.40193,538.92 1508.48193,538.82 1509.44193,538.76 C1510.14193,538.7 1510.64193,538.68 1510.92193,538.68 C1511.16193,538.68 1511.30193,538.78 1511.30193,538.98 C1511.30193,539.04 1511.30193,539.26 1511.32193,539.66 L1511.32193,540.36 C1511.32193,540.92 1511.52193,541.22 1511.96193,541.22 C1512.12193,541.22 1512.32193,541.16 1512.54193,541.06 C1512.72193,540.94 1512.82193,540.78 1512.82193,540.62 C1512.82193,540.48 1512.80193,540.3 1512.78193,540.06 C1512.74193,539.82 1512.72193,539.62 1512.72193,539.5 C1512.72193,539.18 1512.74193,538.9 1512.82193,538.68 C1512.82193,538.64 1512.86193,538.54 1512.94193,538.38 C1513.02193,538.2 1513.08193,538.08 1513.08193,538.04 L1513.08193,538.04 Z M1510.74193,530.72 C1510.74193,533.44 1510.62193,535.64 1510.38193,537.3 C1508.82193,537.4 1507.76193,537.48 1507.18193,537.56 C1508.16193,536 1508.84193,533.84 1509.22193,531.12 C1509.54193,530.96 1510.06193,530.82 1510.74193,530.72 L1510.74193,530.72 Z M1522.86193,537.64 C1522.86193,537.44 1522.78193,537.24 1522.62193,537.04 C1522.46193,536.88 1522.26193,536.78 1522.06193,536.78 C1521.90193,536.78 1521.64193,536.82 1521.30193,536.86 C1520.96193,536.9 1520.70193,536.92 1520.54193,536.92 C1519.94193,536.92 1519.42193,536.64 1518.94193,536.06 C1520.94193,534.98 1521.94193,533.7 1521.94193,532.22 C1521.94193,531.66 1521.70193,531.12 1521.22193,530.64 C1520.74193,530.16 1520.26193,529.92 1519.76193,529.92 C1518.90193,529.92 1518.20193,530.42 1517.64193,531.4 C1517.16193,532.24 1516.92193,533.14 1516.92193,534.1 C1516.92193,534.3 1516.94193,534.58 1517.00193,534.92 L1516.54193,534.92 C1516.26193,534.92 1516.00193,534.82 1515.72193,534.62 C1515.44193,534.42 1515.24193,534.32 1515.12193,534.32 C1514.60193,534.32 1514.34193,534.6 1514.34193,535.16 C1514.34193,535.6 1514.66193,535.96 1515.34193,536.24 C1515.86193,536.46 1516.36193,536.56 1516.88193,536.56 L1517.48193,536.56 C1518.20193,537.94 1519.32193,538.62 1520.84193,538.62 C1522.18193,538.62 1522.86193,538.28 1522.86193,537.64 L1522.86193,537.64 Z M1520.36193,532.3 C1520.36193,532.96 1519.76193,533.68 1518.56193,534.46 L1518.56193,534.1 C1518.56193,533.56 1518.64193,533.04 1518.84193,532.54 C1519.04193,531.94 1519.32193,531.64 1519.68193,531.64 C1519.84193,531.64 1520.00193,531.72 1520.16193,531.84 C1520.28193,532 1520.36193,532.14 1520.36193,532.3 L1520.36193,532.3 Z M1532.42193,530.92 C1532.42193,530.62 1532.32193,530.36 1532.12193,530.12 C1531.94193,529.9 1531.72193,529.78 1531.44193,529.78 C1531.32193,529.78 1531.08193,529.9 1530.72193,530.1 C1530.36193,530.32 1529.48193,530.5 1528.06193,530.66 C1527.74193,530.4 1527.48193,530.26 1527.30193,530.26 C1527.08193,530.26 1526.84193,530.38 1526.60193,530.62 C1526.36193,530.86 1526.24193,531.12 1526.24193,531.36 C1526.24193,531.52 1526.32193,531.72 1526.48193,531.94 C1526.62193,532.18 1526.70193,532.44 1526.70193,532.74 C1526.70193,533.98 1526.60193,535 1526.40193,535.84 C1526.14193,536.82 1525.80193,537.3 1525.40193,537.3 C1525.24193,537.3 1525.12193,537.06 1525.08193,536.54 C1525.04193,536.34 1524.96193,536.22 1524.80193,536.22 C1524.52193,536.22 1524.32193,536.36 1524.18193,536.6 C1524.00193,536.88 1523.92193,537.2 1523.92193,537.54 C1523.92193,537.92 1524.06193,538.2 1524.36193,538.42 C1524.64193,538.62 1524.96193,538.74 1525.32193,538.74 C1526.36193,538.74 1527.10193,538.06 1527.54193,536.74 C1527.82193,535.9 1528.06193,534.38 1528.26193,532.18 C1528.76193,532.06 1529.52193,531.9 1530.56193,531.72 C1530.36193,533.68 1530.26193,535.16 1530.26193,536.16 C1530.26193,537.48 1530.34193,538.3 1530.52193,538.64 C1530.70193,538.98 1530.96193,539.16 1531.28193,539.16 C1531.80193,539.16 1532.06193,538.84 1532.06193,538.24 C1531.98193,537.88 1531.94193,537.56 1531.90193,537.28 C1531.80193,536.6 1531.76193,536.02 1531.76193,535.52 C1531.76193,534.44 1531.92193,533.18 1532.26193,531.74 C1532.36193,531.26 1532.42193,531 1532.42193,530.92 L1532.42193,530.92 Z M1540.80193,533.6 C1540.80193,532.82 1540.58193,532.1 1540.14193,531.46 C1539.68193,530.84 1539.10193,530.4 1538.40193,530.16 C1538.12193,530.08 1537.96193,530.04 1537.92193,530.04 C1537.76193,530.04 1537.58193,530.14 1537.34193,530.3 C1537.06193,530.46 1536.84193,530.58 1536.68193,530.64 C1536.00193,530.98 1535.44193,531.58 1535.04193,532.42 C1534.64193,533.18 1534.46193,534 1534.46193,534.86 C1534.46193,535.88 1534.72193,536.72 1535.28193,537.38 C1535.84193,538.02 1536.54193,538.36 1537.38193,538.36 C1538.34193,538.36 1539.16193,537.92 1539.82193,537 C1540.46193,536.08 1540.80193,534.96 1540.80193,533.6 L1540.80193,533.6 Z M1539.22193,533.9 C1539.22193,534.58 1539.02193,535.2 1538.66193,535.78 C1538.26193,536.38 1537.84193,536.68 1537.36193,536.68 C1536.96193,536.68 1536.64193,536.5 1536.40193,536.12 C1536.14193,535.76 1536.02193,535.34 1536.02193,534.86 C1536.02193,534.22 1536.16193,533.62 1536.48193,533.06 C1536.84193,532.42 1537.30193,532.08 1537.86193,532.08 C1538.06193,532.2 1538.32193,532.26 1538.64193,532.26 C1539.02193,532.5 1539.22193,533.06 1539.22193,533.9 L1539.22193,533.9 Z" id="Не-запускай-это-дело" transform="translate(1452.571928, 532.120000) rotate(-10.000000) translate(-1452.571928, -532.120000) "></path>
        </g>
    </g>
</svg>