<?xml version="1.0" encoding="UTF-8"?>
<svg width="894px" height="36px" viewBox="0 0 894 36" version="1.1" xmlns="http://www.w3.org/2000/svg" xmlns:xlink="http://www.w3.org/1999/xlink">
    <!-- Generator: Sketch 40.3 (33839) - http://www.bohemiancoding.com/sketch -->
    <title>В эффективном лечени</title>
    <desc>Created with Sketch.</desc>
    <defs></defs>
    <g id="Page-1" stroke="none" stroke-width="1" fill="none" fill-rule="evenodd">
        <g id="Mochekamennaya" transform="translate(-2730.000000, -121.000000)" fill="#354777">
            <g id="Group-5" transform="translate(2707.000000, 130.000000)">
                <path d="M43.242,9.754 C43.242,7.854 42.026,6.486 39.594,5.65 C38.226,5.232 35.908,4.89 32.678,4.624 C35.262,3.218 37.124,2.04 38.264,1.052 C40.088,-0.468 41.038,-1.988 41.038,-3.508 C41.038,-5.18 40.278,-6.434 38.796,-7.27 C37.618,-7.878 36.136,-8.22 34.35,-8.22 C31.994,-8.22 28.916,-8.03 25.116,-7.726 C24.394,-7.65 23.938,-7.536 23.71,-7.384 C23.33,-7.156 23.14,-6.738 23.14,-6.054 C23.14,-4.99 23.71,-4.496 24.926,-4.496 C25.002,-4.496 25.534,-4.534 26.522,-4.648 C26.522,-4.572 26.484,-3.546 26.446,-1.494 C26.37,0.596 26.37,1.888 26.37,2.42 L26.37,9.146 C26.332,13.402 26.332,15.834 26.332,16.442 C25.42,16.594 24.774,16.746 24.394,16.936 C23.9,17.24 23.672,17.734 23.672,18.38 C23.672,18.798 23.786,19.178 24.09,19.482 C24.356,19.786 24.698,19.938 25.154,19.938 C26.142,19.824 29.22,18.988 34.35,17.468 C36.896,16.708 38.834,15.872 40.164,14.96 C42.216,13.592 43.242,11.844 43.242,9.754 L43.242,9.754 Z M37.77,-3.356 C37.77,-1.912 34.996,0.178 29.524,2.914 L29.524,-0.582 C29.524,-1.722 29.562,-3.128 29.638,-4.876 C29.904,-4.876 30.626,-4.914 31.842,-4.99 C32.754,-5.028 33.476,-5.066 34.084,-5.066 C36.516,-5.066 37.77,-4.496 37.77,-3.356 L37.77,-3.356 Z M40.05,10.248 C40.05,11.844 36.478,13.592 29.41,15.492 L29.41,7.474 C33.134,7.816 35.566,8.082 36.706,8.272 C38.91,8.728 40.05,9.412 40.05,10.248 L40.05,10.248 Z M72.844,8.348 C72.844,6.448 72.35,4.928 71.438,3.712 C70.374,2.42 68.892,1.774 67.03,1.774 C65.51,1.774 64.066,2.192 62.698,2.952 C61.596,3.598 61.064,4.358 61.064,5.194 C61.064,5.574 61.178,5.916 61.482,6.144 C61.748,6.448 62.052,6.562 62.432,6.562 C62.622,6.562 63.116,6.258 63.876,5.65 C64.978,4.776 65.966,4.32 66.802,4.32 C68.55,4.32 69.538,5.574 69.766,8.044 C65.738,9.07 63.458,9.602 62.926,9.64 C62.584,9.602 62.318,9.564 62.166,9.488 C61.558,9.868 61.292,10.362 61.292,10.97 C61.292,11.35 61.444,11.692 61.748,11.996 C62.09,12.3 62.47,12.452 62.85,12.452 C63.344,12.452 64.142,12.3 65.244,11.996 C66.536,11.616 68.018,11.236 69.652,10.894 C69.348,12.604 68.664,14.01 67.638,15.112 C66.612,16.252 65.396,16.784 63.99,16.784 C63.382,16.784 62.508,16.518 61.406,15.986 C60.266,15.986 59.734,16.556 59.734,17.696 C59.734,18.266 60.19,18.798 61.178,19.254 C61.938,19.596 62.66,19.786 63.344,19.786 C66.422,19.786 68.816,18.57 70.564,16.214 C72.084,14.124 72.844,11.502 72.844,8.348 L72.844,8.348 Z M102.94,7.512 C102.94,5.84 102.56,4.434 101.8,3.294 C100.964,2.116 99.9,1.508 98.608,1.508 C95.948,1.508 93.402,3.902 91.008,8.614 L91.426,5.042 C91.882,1.926 92.224,-0.354 92.528,-1.798 C92.528,-2.482 92.338,-3.128 91.996,-3.66 C91.654,-4.154 91.16,-4.42 90.552,-4.42 C89.716,-4.42 89.222,-3.47 89.032,-1.608 C88.538,2.496 88.272,4.814 88.234,5.384 C87.626,6.904 86.524,8.728 84.852,10.856 C83.028,13.136 81.66,14.238 80.824,14.238 C79.912,14.238 79.494,13.744 79.494,12.718 C79.494,11.274 79.988,9.678 81.052,7.968 C82.078,6.296 83.104,5.422 84.092,5.422 C84.548,5.422 85.004,5.612 85.536,5.992 C85.954,6.334 86.296,6.486 86.562,6.486 C87.17,6.486 87.512,6.258 87.512,5.726 C87.512,5.65 87.474,5.536 87.474,5.422 C87.208,5.042 87.018,4.776 86.866,4.548 C86.182,3.446 85.156,2.876 83.788,2.876 C81.926,2.876 80.216,4.092 78.62,6.486 C77.1,8.728 76.34,10.856 76.34,12.908 C76.34,14.276 76.644,15.34 77.29,16.176 C77.898,17.012 78.81,17.392 80.026,17.392 C82.648,17.392 85.346,15.378 88.082,11.274 C87.664,16.328 87.36,20.052 87.132,22.522 C87.094,22.75 87.056,23.054 87.018,23.51 C86.942,23.814 86.942,24.042 86.942,24.194 C86.942,25.296 87.246,26.056 87.854,26.436 C88.196,26.626 88.614,26.74 89.108,26.74 C89.564,26.74 89.906,26.474 90.21,25.98 C90.476,25.448 90.628,24.878 90.628,24.308 C90.628,24.232 90.59,23.928 90.552,23.472 C90.476,22.94 90.476,22.56 90.476,22.408 C90.476,22.218 90.438,21.876 90.438,21.42 C90.4,20.964 90.4,20.622 90.4,20.47 C90.4,20.318 90.4,19.672 90.438,18.57 C90.438,17.506 90.476,16.86 90.476,16.632 C90.476,14.96 91.502,12.528 93.554,9.26 C95.606,6.068 97.164,4.434 98.304,4.434 C99.444,4.434 100.014,5.536 100.014,7.702 C100.014,9.146 99.786,10.476 99.33,11.692 C98.684,13.326 97.81,14.124 96.67,14.124 C96.214,14.124 95.644,13.782 95.036,13.06 C94.428,12.376 93.972,11.996 93.668,11.92 C93.326,11.996 93.022,12.186 92.794,12.566 C92.528,12.946 92.414,13.288 92.414,13.63 C92.414,14.276 92.87,14.96 93.782,15.682 C94.694,16.442 95.682,16.822 96.746,16.822 C99.026,16.822 100.66,15.758 101.724,13.63 C102.522,12.034 102.94,10.02 102.94,7.512 L102.94,7.512 Z M133.454,7.512 C133.454,5.84 133.074,4.434 132.314,3.294 C131.478,2.116 130.414,1.508 129.122,1.508 C126.462,1.508 123.916,3.902 121.522,8.614 L121.94,5.042 C122.396,1.926 122.738,-0.354 123.042,-1.798 C123.042,-2.482 122.852,-3.128 122.51,-3.66 C122.168,-4.154 121.674,-4.42 121.066,-4.42 C120.23,-4.42 119.736,-3.47 119.546,-1.608 C119.052,2.496 118.786,4.814 118.748,5.384 C118.14,6.904 117.038,8.728 115.366,10.856 C113.542,13.136 112.174,14.238 111.338,14.238 C110.426,14.238 110.008,13.744 110.008,12.718 C110.008,11.274 110.502,9.678 111.566,7.968 C112.592,6.296 113.618,5.422 114.606,5.422 C115.062,5.422 115.518,5.612 116.05,5.992 C116.468,6.334 116.81,6.486 117.076,6.486 C117.684,6.486 118.026,6.258 118.026,5.726 C118.026,5.65 117.988,5.536 117.988,5.422 C117.722,5.042 117.532,4.776 117.38,4.548 C116.696,3.446 115.67,2.876 114.302,2.876 C112.44,2.876 110.73,4.092 109.134,6.486 C107.614,8.728 106.854,10.856 106.854,12.908 C106.854,14.276 107.158,15.34 107.804,16.176 C108.412,17.012 109.324,17.392 110.54,17.392 C113.162,17.392 115.86,15.378 118.596,11.274 C118.178,16.328 117.874,20.052 117.646,22.522 C117.608,22.75 117.57,23.054 117.532,23.51 C117.456,23.814 117.456,24.042 117.456,24.194 C117.456,25.296 117.76,26.056 118.368,26.436 C118.71,26.626 119.128,26.74 119.622,26.74 C120.078,26.74 120.42,26.474 120.724,25.98 C120.99,25.448 121.142,24.878 121.142,24.308 C121.142,24.232 121.104,23.928 121.066,23.472 C120.99,22.94 120.99,22.56 120.99,22.408 C120.99,22.218 120.952,21.876 120.952,21.42 C120.914,20.964 120.914,20.622 120.914,20.47 C120.914,20.318 120.914,19.672 120.952,18.57 C120.952,17.506 120.99,16.86 120.99,16.632 C120.99,14.96 122.016,12.528 124.068,9.26 C126.12,6.068 127.678,4.434 128.818,4.434 C129.958,4.434 130.528,5.536 130.528,7.702 C130.528,9.146 130.3,10.476 129.844,11.692 C129.198,13.326 128.324,14.124 127.184,14.124 C126.728,14.124 126.158,13.782 125.55,13.06 C124.942,12.376 124.486,11.996 124.182,11.92 C123.84,11.996 123.536,12.186 123.308,12.566 C123.042,12.946 122.928,13.288 122.928,13.63 C122.928,14.276 123.384,14.96 124.296,15.682 C125.208,16.442 126.196,16.822 127.26,16.822 C129.54,16.822 131.174,15.758 132.238,13.63 C133.036,12.034 133.454,10.02 133.454,7.512 L133.454,7.512 Z M152.454,17.316 C152.454,16.936 152.302,16.556 151.998,16.176 C151.694,15.872 151.314,15.682 150.934,15.682 C150.63,15.682 150.136,15.758 149.49,15.834 C148.844,15.91 148.35,15.948 148.046,15.948 C146.906,15.948 145.918,15.416 145.006,14.314 C148.806,12.262 150.706,9.83 150.706,7.018 C150.706,5.954 150.25,4.928 149.338,4.016 C148.426,3.104 147.514,2.648 146.564,2.648 C144.93,2.648 143.6,3.598 142.536,5.46 C141.624,7.056 141.168,8.766 141.168,10.59 C141.168,10.97 141.206,11.502 141.32,12.148 L140.446,12.148 C139.914,12.148 139.42,11.958 138.888,11.578 C138.356,11.198 137.976,11.008 137.748,11.008 C136.76,11.008 136.266,11.54 136.266,12.604 C136.266,13.44 136.874,14.124 138.166,14.656 C139.154,15.074 140.104,15.264 141.092,15.264 L142.232,15.264 C143.6,17.886 145.728,19.178 148.616,19.178 C151.162,19.178 152.454,18.532 152.454,17.316 L152.454,17.316 Z M147.704,7.17 C147.704,8.424 146.564,9.792 144.284,11.274 L144.284,10.59 C144.284,9.564 144.436,8.576 144.816,7.626 C145.196,6.486 145.728,5.916 146.412,5.916 C146.716,5.916 147.02,6.068 147.324,6.296 C147.552,6.6 147.704,6.866 147.704,7.17 L147.704,7.17 Z M168.262,5.574 C168.262,5.27 168.11,4.928 167.806,4.586 C167.502,4.282 167.16,4.13 166.856,4.13 C166.552,4.13 165.906,4.358 164.956,4.814 C163.36,5.574 161.346,7.018 158.99,9.07 C159.522,6.866 160.016,5.118 160.548,3.864 C160.852,3.066 161.004,2.572 161.004,2.42 C161.004,1.432 160.51,0.938 159.598,0.938 C158.99,0.938 158.534,1.28 158.23,1.964 C156.368,6.524 155.418,11.54 155.342,16.974 C155.266,17.164 155.266,17.354 155.266,17.544 C155.266,18 155.342,18.418 155.494,18.836 C155.722,19.52 156.254,19.9 157.014,19.9 C157.85,19.9 158.268,19.406 158.268,18.456 C158.268,18.38 158.23,18.152 158.23,17.772 C158.192,17.392 158.192,17.126 158.192,16.898 L158.192,15.492 C158.192,14.96 158.192,14.352 158.268,13.668 C158.534,13.516 158.686,13.44 158.724,13.402 C160.168,15.34 162.03,17.05 164.272,18.532 C164.956,19.026 165.488,19.292 165.868,19.292 C166.78,19.292 167.236,18.798 167.236,17.848 C167.236,17.468 166.894,16.936 166.286,16.328 C165.222,15.378 164.614,14.884 164.386,14.884 C164.31,14.884 164.196,14.922 164.12,14.922 C162.638,13.744 161.498,12.604 160.738,11.502 C162.562,9.792 164.082,8.576 165.336,7.892 C165.488,7.968 165.64,8.006 165.83,8.006 C166.324,8.006 166.856,7.74 167.388,7.208 C167.958,6.714 168.262,6.182 168.262,5.574 L168.262,5.574 Z M186.654,2.192 C186.654,1.812 186.502,1.432 186.236,1.09 C185.97,0.786 185.666,0.596 185.324,0.596 C184.754,0.596 183.956,0.748 182.892,0.976 C178.712,1.964 174.988,2.838 171.796,3.598 C171.568,3.674 171.416,3.674 171.34,3.674 C170.58,3.826 170.2,4.396 170.2,5.346 C170.2,6.41 170.618,6.904 171.53,6.904 C172.632,6.676 173.506,6.486 174.114,6.296 C175.216,6.068 176.166,5.84 176.964,5.688 C176.812,8.614 176.736,11.426 176.736,14.086 C176.736,16.67 176.888,18.456 177.192,19.444 C177.42,20.128 177.876,20.47 178.636,20.47 C179.624,20.47 180.118,19.558 180.118,17.772 C180.118,16.898 179.928,16.252 179.624,15.834 C179.548,14.884 179.51,13.402 179.51,11.35 C179.51,9.754 179.624,7.588 179.928,4.89 C181.03,4.624 181.79,4.434 182.246,4.358 C182.588,4.586 182.854,4.662 183.044,4.662 C183.272,4.662 183.538,4.624 183.88,4.472 L185.628,3.674 C186.312,3.37 186.654,2.876 186.654,2.192 L186.654,2.192 Z M203.07,18.228 C203.07,17.962 202.88,17.62 202.538,17.24 C201.702,16.328 201.322,14.01 201.322,10.286 C201.322,8.956 201.512,6.714 201.93,3.56 C201.93,3.142 201.74,2.762 201.436,2.382 C201.094,2.04 200.714,1.85 200.296,1.85 C199.65,1.85 198.282,3.256 196.23,6.068 C194.558,8.272 193.19,10.286 192.05,12.034 C192.316,9.07 192.506,6.904 192.62,5.612 C192.62,5.004 192.392,4.472 192.012,4.016 C191.632,3.598 191.138,3.37 190.53,3.37 C190.188,3.37 189.884,3.598 189.58,4.016 C189.656,5.118 189.732,5.764 189.732,5.916 C189.732,6.6 189.618,8.31 189.428,11.084 L189.352,12.186 C189.314,12.756 189.238,13.516 189.162,14.466 C189.048,15.378 188.972,15.948 188.972,16.176 C189.01,16.708 189.162,17.126 189.466,17.354 C190.074,17.962 190.454,18.228 190.606,18.228 C191.138,18.228 191.784,17.658 192.468,16.442 C193.874,14.086 194.862,12.414 195.47,11.502 C196.458,9.868 197.522,8.348 198.7,6.98 C198.7,7.36 198.662,8.158 198.662,9.336 C198.624,10.552 198.624,11.198 198.624,11.35 C198.624,13.326 198.814,14.998 199.232,16.442 C199.802,18.532 200.638,19.596 201.702,19.596 C201.93,19.596 202.234,19.406 202.576,19.102 C202.88,18.722 203.07,18.456 203.07,18.228 L203.07,18.228 Z M222.07,13.782 C222.07,11.616 219.752,10.438 215.192,10.248 C218.688,8.69 220.436,7.018 220.436,5.194 C220.436,4.016 219.828,3.104 218.65,2.458 C217.7,2.002 216.56,1.736 215.23,1.736 C213.368,1.736 211.164,1.85 208.618,2.078 C207.478,2.23 206.946,2.686 206.946,3.522 C206.946,4.434 207.44,4.852 208.504,4.852 C208.694,4.852 208.998,4.814 209.416,4.738 C209.34,13.136 209.302,17.468 209.302,17.696 C207.972,17.848 207.326,18.38 207.326,19.368 C207.326,20.052 207.782,20.432 208.77,20.546 C209.568,20.508 210.746,20.318 212.304,19.976 C215.192,19.292 217.32,18.608 218.612,18 C220.892,16.936 222.07,15.53 222.07,13.782 L222.07,13.782 Z M217.51,5.536 C217.51,6.638 215.724,7.816 212.152,9.07 L212.228,4.662 C213.634,4.548 214.66,4.472 215.268,4.472 C216.75,4.472 217.51,4.852 217.51,5.536 L217.51,5.536 Z M219.22,14.162 C219.22,14.732 218.574,15.302 217.282,15.834 C215.99,16.366 214.242,16.784 212.076,17.05 L212.076,12.262 C214.584,12.338 216.332,12.528 217.396,12.756 C218.612,13.06 219.22,13.516 219.22,14.162 L219.22,14.162 Z M238.6,3.94 C238.6,2.952 238.144,2.458 237.232,2.458 C236.472,2.458 235.978,3.142 235.788,4.434 C235.598,5.46 235.37,6.904 235.142,8.766 C233.47,9.184 231.836,9.488 230.24,9.64 C230.62,7.208 231,5.384 231.38,4.13 C231.608,3.446 231.798,2.914 231.988,2.458 C231.912,1.432 231.456,0.9 230.544,0.9 C229.898,0.9 229.48,1.204 229.252,1.812 C228.492,3.636 227.884,6.258 227.504,9.678 C226.896,9.678 226.478,9.64 226.25,9.602 C225.49,9.602 225.148,10.058 225.148,10.894 C225.148,11.844 225.68,12.3 226.782,12.3 L227.238,12.3 C227.124,13.744 227.01,15.378 226.934,17.278 C226.934,17.392 226.896,17.582 226.858,17.81 C226.782,18.038 226.782,18.19 226.782,18.342 C226.782,18.722 226.934,19.064 227.238,19.368 C227.542,19.672 227.884,19.824 228.264,19.824 C229.176,19.824 229.67,19.33 229.708,18.38 C229.708,17.088 229.822,15.036 230.012,12.224 C231.646,12.072 233.242,11.806 234.838,11.426 C234.648,13.44 234.534,15.036 234.534,16.176 C234.534,16.29 234.496,16.442 234.458,16.67 C234.382,16.86 234.344,17.012 234.344,17.126 C234.344,18.038 234.458,18.722 234.762,19.178 C235.066,19.672 235.408,19.938 235.864,19.938 C236.244,19.938 236.586,19.786 236.89,19.482 C237.156,19.178 237.308,18.798 237.308,18.38 C237.308,18.304 237.27,18.114 237.27,17.734 C237.232,17.354 237.232,17.05 237.232,16.898 C237.232,14.352 237.612,10.438 238.448,5.156 C238.524,4.472 238.6,4.092 238.6,3.94 L238.6,3.94 Z M254.522,9.64 C254.522,8.158 254.104,6.79 253.268,5.574 C252.394,4.396 251.292,3.56 249.962,3.104 C249.43,2.952 249.126,2.876 249.05,2.876 C248.746,2.876 248.404,3.066 247.948,3.37 C247.416,3.674 246.998,3.902 246.694,4.016 C245.402,4.662 244.338,5.802 243.578,7.398 C242.818,8.842 242.476,10.4 242.476,12.034 C242.476,13.972 242.97,15.568 244.034,16.822 C245.098,18.038 246.428,18.684 248.024,18.684 C249.848,18.684 251.406,17.848 252.66,16.1 C253.876,14.352 254.522,12.224 254.522,9.64 L254.522,9.64 Z M251.52,10.21 C251.52,11.502 251.14,12.68 250.456,13.782 C249.696,14.922 248.898,15.492 247.986,15.492 C247.226,15.492 246.618,15.15 246.162,14.428 C245.668,13.744 245.44,12.946 245.44,12.034 C245.44,10.818 245.706,9.678 246.314,8.614 C246.998,7.398 247.872,6.752 248.936,6.752 C249.316,6.98 249.81,7.094 250.418,7.094 C251.14,7.55 251.52,8.614 251.52,10.21 L251.52,10.21 Z M275.042,19.558 C275.042,19.216 274.928,18.836 274.7,18.38 C274.472,17.924 274.206,17.62 273.94,17.392 C273.332,16.1 272.8,13.744 272.344,10.362 C272.04,8.614 271.812,6.676 271.584,4.624 C271.47,3.826 271.014,3.408 270.216,3.408 C269.494,3.408 268.544,4.966 267.366,8.082 C266.948,9.146 266.606,10.058 266.302,10.894 C265.276,9.374 264.364,7.094 263.528,3.978 C263.224,2.838 262.768,2.268 262.198,2.268 C261.476,2.268 260.83,3.142 260.26,4.852 C260.146,4.852 259.994,4.814 259.804,4.814 C259.538,4.814 259.31,4.928 259.158,5.118 C258.93,5.346 258.816,5.612 258.816,5.878 C258.816,5.954 258.816,6.182 258.854,6.562 C258.854,6.98 258.892,7.208 258.892,7.284 C258.892,7.968 258.816,8.918 258.664,10.21 C258.512,11.502 258.436,12.946 258.436,14.504 C258.436,17.05 258.93,18.304 259.956,18.304 C260.716,18.304 261.096,17.468 261.172,15.758 C261.286,12.414 261.59,9.64 262.046,7.436 C264.06,12.3 265.656,14.732 266.796,14.732 C267.176,14.732 267.442,14.58 267.67,14.2 C267.86,13.896 268.088,13.212 268.392,12.224 C268.886,10.552 269.304,9.222 269.646,8.31 C270.026,12.528 270.558,15.644 271.28,17.658 C272.078,19.976 272.914,21.154 273.75,21.154 C274.054,21.154 274.358,20.964 274.624,20.622 C274.89,20.242 275.042,19.9 275.042,19.558 L275.042,19.558 Z M306.088,4.548 C306.088,3.978 305.898,3.484 305.518,3.028 C305.176,2.61 304.758,2.382 304.226,2.382 C303.998,2.382 303.542,2.61 302.858,2.99 C302.174,3.408 300.502,3.75 297.804,4.054 C297.196,3.56 296.702,3.294 296.36,3.294 C295.942,3.294 295.486,3.522 295.03,3.978 C294.574,4.434 294.346,4.928 294.346,5.384 C294.346,5.688 294.498,6.068 294.802,6.486 C295.068,6.942 295.22,7.436 295.22,8.006 C295.22,10.362 295.03,12.3 294.65,13.896 C294.156,15.758 293.51,16.67 292.75,16.67 C292.446,16.67 292.218,16.214 292.142,15.226 C292.066,14.846 291.914,14.618 291.61,14.618 C291.078,14.618 290.698,14.884 290.432,15.34 C290.09,15.872 289.938,16.48 289.938,17.126 C289.938,17.848 290.204,18.38 290.774,18.798 C291.306,19.178 291.914,19.406 292.598,19.406 C294.574,19.406 295.98,18.114 296.816,15.606 C297.348,14.01 297.804,11.122 298.184,6.942 C299.134,6.714 300.578,6.41 302.554,6.068 C302.174,9.792 301.984,12.604 301.984,14.504 C301.984,17.012 302.136,18.57 302.478,19.216 C302.82,19.862 303.314,20.204 303.922,20.204 C304.91,20.204 305.404,19.596 305.404,18.456 C305.252,17.772 305.176,17.164 305.1,16.632 C304.91,15.34 304.834,14.238 304.834,13.288 C304.834,11.236 305.138,8.842 305.784,6.106 C305.974,5.194 306.088,4.7 306.088,4.548 L306.088,4.548 Z M325.05,17.316 C325.05,16.936 324.898,16.556 324.594,16.176 C324.29,15.872 323.91,15.682 323.53,15.682 C323.226,15.682 322.732,15.758 322.086,15.834 C321.44,15.91 320.946,15.948 320.642,15.948 C319.502,15.948 318.514,15.416 317.602,14.314 C321.402,12.262 323.302,9.83 323.302,7.018 C323.302,5.954 322.846,4.928 321.934,4.016 C321.022,3.104 320.11,2.648 319.16,2.648 C317.526,2.648 316.196,3.598 315.132,5.46 C314.22,7.056 313.764,8.766 313.764,10.59 C313.764,10.97 313.802,11.502 313.916,12.148 L313.042,12.148 C312.51,12.148 312.016,11.958 311.484,11.578 C310.952,11.198 310.572,11.008 310.344,11.008 C309.356,11.008 308.862,11.54 308.862,12.604 C308.862,13.44 309.47,14.124 310.762,14.656 C311.75,15.074 312.7,15.264 313.688,15.264 L314.828,15.264 C316.196,17.886 318.324,19.178 321.212,19.178 C323.758,19.178 325.05,18.532 325.05,17.316 L325.05,17.316 Z M320.3,7.17 C320.3,8.424 319.16,9.792 316.88,11.274 L316.88,10.59 C316.88,9.564 317.032,8.576 317.412,7.626 C317.792,6.486 318.324,5.916 319.008,5.916 C319.312,5.916 319.616,6.068 319.92,6.296 C320.148,6.6 320.3,6.866 320.3,7.17 L320.3,7.17 Z M340.63,3.56 C340.592,3.142 340.44,2.724 340.136,2.344 C339.832,1.964 339.49,1.774 339.11,1.774 C338.084,1.774 337.552,2.344 337.514,3.446 C337.514,3.598 337.514,4.092 337.552,4.89 C337.552,5.764 337.59,6.258 337.59,6.41 C337.59,7.892 337.096,9.26 336.146,10.552 C335.158,11.844 334.056,12.452 332.878,12.452 C331.396,12.452 330.674,11.388 330.674,9.184 C330.674,8.348 330.826,6.448 331.206,3.484 C331.092,2.42 330.636,1.85 329.876,1.85 C328.812,1.85 328.204,2.876 327.976,4.89 C327.9,5.46 327.862,6.866 327.862,9.146 C327.862,13.174 329.458,15.188 332.688,15.188 C333.6,15.188 334.55,14.96 335.462,14.428 C336.374,13.934 337.096,13.25 337.552,12.414 C337.476,13.934 337.4,15.188 337.324,16.138 C337.172,17.696 337.134,18.798 337.134,19.558 C337.134,20.584 337.552,21.116 338.464,21.116 C339.452,21.116 339.984,20.584 340.022,19.52 C340.06,17.05 340.174,13.402 340.402,8.614 C340.478,6.106 340.554,4.434 340.63,3.56 L340.63,3.56 Z M359.592,17.316 C359.592,16.936 359.44,16.556 359.136,16.176 C358.832,15.872 358.452,15.682 358.072,15.682 C357.768,15.682 357.274,15.758 356.628,15.834 C355.982,15.91 355.488,15.948 355.184,15.948 C354.044,15.948 353.056,15.416 352.144,14.314 C355.944,12.262 357.844,9.83 357.844,7.018 C357.844,5.954 357.388,4.928 356.476,4.016 C355.564,3.104 354.652,2.648 353.702,2.648 C352.068,2.648 350.738,3.598 349.674,5.46 C348.762,7.056 348.306,8.766 348.306,10.59 C348.306,10.97 348.344,11.502 348.458,12.148 L347.584,12.148 C347.052,12.148 346.558,11.958 346.026,11.578 C345.494,11.198 345.114,11.008 344.886,11.008 C343.898,11.008 343.404,11.54 343.404,12.604 C343.404,13.44 344.012,14.124 345.304,14.656 C346.292,15.074 347.242,15.264 348.23,15.264 L349.37,15.264 C350.738,17.886 352.866,19.178 355.754,19.178 C358.3,19.178 359.592,18.532 359.592,17.316 L359.592,17.316 Z M354.842,7.17 C354.842,8.424 353.702,9.792 351.422,11.274 L351.422,10.59 C351.422,9.564 351.574,8.576 351.954,7.626 C352.334,6.486 352.866,5.916 353.55,5.916 C353.854,5.916 354.158,6.068 354.462,6.296 C354.69,6.6 354.842,6.866 354.842,7.17 L354.842,7.17 Z M375.058,3.94 C375.058,2.952 374.602,2.458 373.69,2.458 C372.93,2.458 372.436,3.142 372.246,4.434 C372.056,5.46 371.828,6.904 371.6,8.766 C369.928,9.184 368.294,9.488 366.698,9.64 C367.078,7.208 367.458,5.384 367.838,4.13 C368.066,3.446 368.256,2.914 368.446,2.458 C368.37,1.432 367.914,0.9 367.002,0.9 C366.356,0.9 365.938,1.204 365.71,1.812 C364.95,3.636 364.342,6.258 363.962,9.678 C363.354,9.678 362.936,9.64 362.708,9.602 C361.948,9.602 361.606,10.058 361.606,10.894 C361.606,11.844 362.138,12.3 363.24,12.3 L363.696,12.3 C363.582,13.744 363.468,15.378 363.392,17.278 C363.392,17.392 363.354,17.582 363.316,17.81 C363.24,18.038 363.24,18.19 363.24,18.342 C363.24,18.722 363.392,19.064 363.696,19.368 C364,19.672 364.342,19.824 364.722,19.824 C365.634,19.824 366.128,19.33 366.166,18.38 C366.166,17.088 366.28,15.036 366.47,12.224 C368.104,12.072 369.7,11.806 371.296,11.426 C371.106,13.44 370.992,15.036 370.992,16.176 C370.992,16.29 370.954,16.442 370.916,16.67 C370.84,16.86 370.802,17.012 370.802,17.126 C370.802,18.038 370.916,18.722 371.22,19.178 C371.524,19.672 371.866,19.938 372.322,19.938 C372.702,19.938 373.044,19.786 373.348,19.482 C373.614,19.178 373.766,18.798 373.766,18.38 C373.766,18.304 373.728,18.114 373.728,17.734 C373.69,17.354 373.69,17.05 373.69,16.898 C373.69,14.352 374.07,10.438 374.906,5.156 C374.982,4.472 375.058,4.092 375.058,3.94 L375.058,3.94 Z M393.032,18.228 C393.032,17.962 392.842,17.62 392.5,17.24 C391.664,16.328 391.284,14.01 391.284,10.286 C391.284,8.956 391.474,6.714 391.892,3.56 C391.892,3.142 391.702,2.762 391.398,2.382 C391.056,2.04 390.676,1.85 390.258,1.85 C389.612,1.85 388.244,3.256 386.192,6.068 C384.52,8.272 383.152,10.286 382.012,12.034 C382.278,9.07 382.468,6.904 382.582,5.612 C382.582,5.004 382.354,4.472 381.974,4.016 C381.594,3.598 381.1,3.37 380.492,3.37 C380.15,3.37 379.846,3.598 379.542,4.016 C379.618,5.118 379.694,5.764 379.694,5.916 C379.694,6.6 379.58,8.31 379.39,11.084 L379.314,12.186 C379.276,12.756 379.2,13.516 379.124,14.466 C379.01,15.378 378.934,15.948 378.934,16.176 C378.972,16.708 379.124,17.126 379.428,17.354 C380.036,17.962 380.416,18.228 380.568,18.228 C381.1,18.228 381.746,17.658 382.43,16.442 C383.836,14.086 384.824,12.414 385.432,11.502 C386.42,9.868 387.484,8.348 388.662,6.98 C388.662,7.36 388.624,8.158 388.624,9.336 C388.586,10.552 388.586,11.198 388.586,11.35 C388.586,13.326 388.776,14.998 389.194,16.442 C389.764,18.532 390.6,19.596 391.664,19.596 C391.892,19.596 392.196,19.406 392.538,19.102 C392.842,18.722 393.032,18.456 393.032,18.228 L393.032,18.228 Z M411.006,18.228 C411.006,17.962 410.816,17.62 410.474,17.24 C409.638,16.328 409.258,14.01 409.258,10.286 C409.258,8.956 409.448,6.714 409.866,3.56 C409.866,3.142 409.676,2.762 409.372,2.382 C409.03,2.04 408.65,1.85 408.232,1.85 C407.586,1.85 406.218,3.256 404.166,6.068 C402.494,8.272 401.126,10.286 399.986,12.034 C400.252,9.07 400.442,6.904 400.556,5.612 C400.556,5.004 400.328,4.472 399.948,4.016 C399.568,3.598 399.074,3.37 398.466,3.37 C398.124,3.37 397.82,3.598 397.516,4.016 C397.592,5.118 397.668,5.764 397.668,5.916 C397.668,6.6 397.554,8.31 397.364,11.084 L397.288,12.186 C397.25,12.756 397.174,13.516 397.098,14.466 C396.984,15.378 396.908,15.948 396.908,16.176 C396.946,16.708 397.098,17.126 397.402,17.354 C398.01,17.962 398.39,18.228 398.542,18.228 C399.074,18.228 399.72,17.658 400.404,16.442 C401.81,14.086 402.798,12.414 403.406,11.502 C404.394,9.868 405.458,8.348 406.636,6.98 C406.636,7.36 406.598,8.158 406.598,9.336 C406.56,10.552 406.56,11.198 406.56,11.35 C406.56,13.326 406.75,14.998 407.168,16.442 C407.738,18.532 408.574,19.596 409.638,19.596 C409.866,19.596 410.17,19.406 410.512,19.102 C410.816,18.722 411.006,18.456 411.006,18.228 L411.006,18.228 Z M444.484,19.558 C444.484,19.216 444.37,18.836 444.142,18.38 C443.914,17.924 443.648,17.62 443.382,17.392 C442.774,16.1 442.242,13.744 441.786,10.362 C441.482,8.614 441.254,6.676 441.026,4.624 C440.912,3.826 440.456,3.408 439.658,3.408 C438.936,3.408 437.986,4.966 436.808,8.082 C436.39,9.146 436.048,10.058 435.744,10.894 C434.718,9.374 433.806,7.094 432.97,3.978 C432.666,2.838 432.21,2.268 431.64,2.268 C430.918,2.268 430.272,3.142 429.702,4.852 C429.588,4.852 429.436,4.814 429.246,4.814 C428.98,4.814 428.752,4.928 428.6,5.118 C428.372,5.346 428.258,5.612 428.258,5.878 C428.258,5.954 428.258,6.182 428.296,6.562 C428.296,6.98 428.334,7.208 428.334,7.284 C428.334,7.968 428.258,8.918 428.106,10.21 C427.954,11.502 427.878,12.946 427.878,14.504 C427.878,17.05 428.372,18.304 429.398,18.304 C430.158,18.304 430.538,17.468 430.614,15.758 C430.728,12.414 431.032,9.64 431.488,7.436 C433.502,12.3 435.098,14.732 436.238,14.732 C436.618,14.732 436.884,14.58 437.112,14.2 C437.302,13.896 437.53,13.212 437.834,12.224 C438.328,10.552 438.746,9.222 439.088,8.31 C439.468,12.528 440,15.644 440.722,17.658 C441.52,19.976 442.356,21.154 443.192,21.154 C443.496,21.154 443.8,20.964 444.066,20.622 C444.332,20.242 444.484,19.9 444.484,19.558 L444.484,19.558 Z M459.228,9.64 C459.228,8.158 458.81,6.79 457.974,5.574 C457.1,4.396 455.998,3.56 454.668,3.104 C454.136,2.952 453.832,2.876 453.756,2.876 C453.452,2.876 453.11,3.066 452.654,3.37 C452.122,3.674 451.704,3.902 451.4,4.016 C450.108,4.662 449.044,5.802 448.284,7.398 C447.524,8.842 447.182,10.4 447.182,12.034 C447.182,13.972 447.676,15.568 448.74,16.822 C449.804,18.038 451.134,18.684 452.73,18.684 C454.554,18.684 456.112,17.848 457.366,16.1 C458.582,14.352 459.228,12.224 459.228,9.64 L459.228,9.64 Z M456.226,10.21 C456.226,11.502 455.846,12.68 455.162,13.782 C454.402,14.922 453.604,15.492 452.692,15.492 C451.932,15.492 451.324,15.15 450.868,14.428 C450.374,13.744 450.146,12.946 450.146,12.034 C450.146,10.818 450.412,9.678 451.02,8.614 C451.704,7.398 452.578,6.752 453.642,6.752 C454.022,6.98 454.516,7.094 455.124,7.094 C455.846,7.55 456.226,8.614 456.226,10.21 L456.226,10.21 Z M475.91,3.56 C475.872,3.142 475.72,2.724 475.416,2.344 C475.112,1.964 474.77,1.774 474.39,1.774 C473.364,1.774 472.832,2.344 472.794,3.446 C472.794,3.598 472.794,4.092 472.832,4.89 C472.832,5.764 472.87,6.258 472.87,6.41 C472.87,7.892 472.376,9.26 471.426,10.552 C470.438,11.844 469.336,12.452 468.158,12.452 C466.676,12.452 465.954,11.388 465.954,9.184 C465.954,8.348 466.106,6.448 466.486,3.484 C466.372,2.42 465.916,1.85 465.156,1.85 C464.092,1.85 463.484,2.876 463.256,4.89 C463.18,5.46 463.142,6.866 463.142,9.146 C463.142,13.174 464.738,15.188 467.968,15.188 C468.88,15.188 469.83,14.96 470.742,14.428 C471.654,13.934 472.376,13.25 472.832,12.414 C472.756,13.934 472.68,15.188 472.604,16.138 C472.452,17.696 472.414,18.798 472.414,19.558 C472.414,20.584 472.832,21.116 473.744,21.116 C474.732,21.116 475.264,20.584 475.302,19.52 C475.34,17.05 475.454,13.402 475.682,8.614 C475.758,6.106 475.834,4.434 475.91,3.56 L475.91,3.56 Z M494.872,17.316 C494.872,16.936 494.72,16.556 494.416,16.176 C494.112,15.872 493.732,15.682 493.352,15.682 C493.048,15.682 492.554,15.758 491.908,15.834 C491.262,15.91 490.768,15.948 490.464,15.948 C489.324,15.948 488.336,15.416 487.424,14.314 C491.224,12.262 493.124,9.83 493.124,7.018 C493.124,5.954 492.668,4.928 491.756,4.016 C490.844,3.104 489.932,2.648 488.982,2.648 C487.348,2.648 486.018,3.598 484.954,5.46 C484.042,7.056 483.586,8.766 483.586,10.59 C483.586,10.97 483.624,11.502 483.738,12.148 L482.864,12.148 C482.332,12.148 481.838,11.958 481.306,11.578 C480.774,11.198 480.394,11.008 480.166,11.008 C479.178,11.008 478.684,11.54 478.684,12.604 C478.684,13.44 479.292,14.124 480.584,14.656 C481.572,15.074 482.522,15.264 483.51,15.264 L484.65,15.264 C486.018,17.886 488.146,19.178 491.034,19.178 C493.58,19.178 494.872,18.532 494.872,17.316 L494.872,17.316 Z M490.122,7.17 C490.122,8.424 488.982,9.792 486.702,11.274 L486.702,10.59 C486.702,9.564 486.854,8.576 487.234,7.626 C487.614,6.486 488.146,5.916 488.83,5.916 C489.134,5.916 489.438,6.068 489.742,6.296 C489.97,6.6 490.122,6.866 490.122,7.17 L490.122,7.17 Z M510.68,5.574 C510.68,5.27 510.528,4.928 510.224,4.586 C509.92,4.282 509.578,4.13 509.274,4.13 C508.97,4.13 508.324,4.358 507.374,4.814 C505.778,5.574 503.764,7.018 501.408,9.07 C501.94,6.866 502.434,5.118 502.966,3.864 C503.27,3.066 503.422,2.572 503.422,2.42 C503.422,1.432 502.928,0.938 502.016,0.938 C501.408,0.938 500.952,1.28 500.648,1.964 C498.786,6.524 497.836,11.54 497.76,16.974 C497.684,17.164 497.684,17.354 497.684,17.544 C497.684,18 497.76,18.418 497.912,18.836 C498.14,19.52 498.672,19.9 499.432,19.9 C500.268,19.9 500.686,19.406 500.686,18.456 C500.686,18.38 500.648,18.152 500.648,17.772 C500.61,17.392 500.61,17.126 500.61,16.898 L500.61,15.492 C500.61,14.96 500.61,14.352 500.686,13.668 C500.952,13.516 501.104,13.44 501.142,13.402 C502.586,15.34 504.448,17.05 506.69,18.532 C507.374,19.026 507.906,19.292 508.286,19.292 C509.198,19.292 509.654,18.798 509.654,17.848 C509.654,17.468 509.312,16.936 508.704,16.328 C507.64,15.378 507.032,14.884 506.804,14.884 C506.728,14.884 506.614,14.922 506.538,14.922 C505.056,13.744 503.916,12.604 503.156,11.502 C504.98,9.792 506.5,8.576 507.754,7.892 C507.906,7.968 508.058,8.006 508.248,8.006 C508.742,8.006 509.274,7.74 509.806,7.208 C510.376,6.714 510.68,6.182 510.68,5.574 L510.68,5.574 Z M527.59,9.184 C527.59,8.842 527.4,8.462 527.096,8.082 C527.096,7.208 526.944,6.448 526.716,5.764 C526.754,5.612 526.792,5.422 526.792,5.232 C526.792,4.776 526.526,4.32 526.07,3.94 C525.576,3.56 525.082,3.332 524.588,3.332 C522.498,3.332 520.218,4.548 517.71,6.904 C515.088,9.336 513.796,11.692 513.796,13.896 C513.796,15.074 514.176,16.1 515.012,17.012 C515.81,17.962 516.76,18.418 517.862,18.418 C519.572,18.418 521.472,17.354 523.6,15.226 C523.79,18.114 524.436,19.596 525.538,19.596 C525.918,19.596 526.298,19.444 526.64,19.216 C526.944,18.912 527.134,18.532 527.134,18.152 C527.134,18.038 527.02,17.582 526.868,16.67 C526.678,15.796 526.602,15.112 526.602,14.656 C526.602,13.136 526.83,11.616 527.362,10.02 C527.514,9.602 527.59,9.336 527.59,9.184 L527.59,9.184 Z M524.132,8.082 C524.132,9.374 523.372,10.894 521.928,12.642 C520.484,14.39 519.154,15.226 518.014,15.226 C517.216,15.226 516.836,14.77 516.836,13.82 C516.836,12.604 517.786,11.084 519.724,9.222 C521.472,7.55 522.726,6.676 523.448,6.676 C523.904,6.676 524.132,7.17 524.132,8.082 L524.132,8.082 Z M548.072,19.558 C548.072,19.216 547.958,18.836 547.73,18.38 C547.502,17.924 547.236,17.62 546.97,17.392 C546.362,16.1 545.83,13.744 545.374,10.362 C545.07,8.614 544.842,6.676 544.614,4.624 C544.5,3.826 544.044,3.408 543.246,3.408 C542.524,3.408 541.574,4.966 540.396,8.082 C539.978,9.146 539.636,10.058 539.332,10.894 C538.306,9.374 537.394,7.094 536.558,3.978 C536.254,2.838 535.798,2.268 535.228,2.268 C534.506,2.268 533.86,3.142 533.29,4.852 C533.176,4.852 533.024,4.814 532.834,4.814 C532.568,4.814 532.34,4.928 532.188,5.118 C531.96,5.346 531.846,5.612 531.846,5.878 C531.846,5.954 531.846,6.182 531.884,6.562 C531.884,6.98 531.922,7.208 531.922,7.284 C531.922,7.968 531.846,8.918 531.694,10.21 C531.542,11.502 531.466,12.946 531.466,14.504 C531.466,17.05 531.96,18.304 532.986,18.304 C533.746,18.304 534.126,17.468 534.202,15.758 C534.316,12.414 534.62,9.64 535.076,7.436 C537.09,12.3 538.686,14.732 539.826,14.732 C540.206,14.732 540.472,14.58 540.7,14.2 C540.89,13.896 541.118,13.212 541.422,12.224 C541.916,10.552 542.334,9.222 542.676,8.31 C543.056,12.528 543.588,15.644 544.31,17.658 C545.108,19.976 545.944,21.154 546.78,21.154 C547.084,21.154 547.388,20.964 547.654,20.622 C547.92,20.242 548.072,19.9 548.072,19.558 L548.072,19.558 Z M565.856,17.316 C565.856,16.936 565.704,16.556 565.4,16.176 C565.096,15.872 564.716,15.682 564.336,15.682 C564.032,15.682 563.538,15.758 562.892,15.834 C562.246,15.91 561.752,15.948 561.448,15.948 C560.308,15.948 559.32,15.416 558.408,14.314 C562.208,12.262 564.108,9.83 564.108,7.018 C564.108,5.954 563.652,4.928 562.74,4.016 C561.828,3.104 560.916,2.648 559.966,2.648 C558.332,2.648 557.002,3.598 555.938,5.46 C555.026,7.056 554.57,8.766 554.57,10.59 C554.57,10.97 554.608,11.502 554.722,12.148 L553.848,12.148 C553.316,12.148 552.822,11.958 552.29,11.578 C551.758,11.198 551.378,11.008 551.15,11.008 C550.162,11.008 549.668,11.54 549.668,12.604 C549.668,13.44 550.276,14.124 551.568,14.656 C552.556,15.074 553.506,15.264 554.494,15.264 L555.634,15.264 C557.002,17.886 559.13,19.178 562.018,19.178 C564.564,19.178 565.856,18.532 565.856,17.316 L565.856,17.316 Z M561.106,7.17 C561.106,8.424 559.966,9.792 557.686,11.274 L557.686,10.59 C557.686,9.564 557.838,8.576 558.218,7.626 C558.598,6.486 559.13,5.916 559.814,5.916 C560.118,5.916 560.422,6.068 560.726,6.296 C560.954,6.6 561.106,6.866 561.106,7.17 L561.106,7.17 Z M581.322,3.94 C581.322,2.952 580.866,2.458 579.954,2.458 C579.194,2.458 578.7,3.142 578.51,4.434 C578.32,5.46 578.092,6.904 577.864,8.766 C576.192,9.184 574.558,9.488 572.962,9.64 C573.342,7.208 573.722,5.384 574.102,4.13 C574.33,3.446 574.52,2.914 574.71,2.458 C574.634,1.432 574.178,0.9 573.266,0.9 C572.62,0.9 572.202,1.204 571.974,1.812 C571.214,3.636 570.606,6.258 570.226,9.678 C569.618,9.678 569.2,9.64 568.972,9.602 C568.212,9.602 567.87,10.058 567.87,10.894 C567.87,11.844 568.402,12.3 569.504,12.3 L569.96,12.3 C569.846,13.744 569.732,15.378 569.656,17.278 C569.656,17.392 569.618,17.582 569.58,17.81 C569.504,18.038 569.504,18.19 569.504,18.342 C569.504,18.722 569.656,19.064 569.96,19.368 C570.264,19.672 570.606,19.824 570.986,19.824 C571.898,19.824 572.392,19.33 572.43,18.38 C572.43,17.088 572.544,15.036 572.734,12.224 C574.368,12.072 575.964,11.806 577.56,11.426 C577.37,13.44 577.256,15.036 577.256,16.176 C577.256,16.29 577.218,16.442 577.18,16.67 C577.104,16.86 577.066,17.012 577.066,17.126 C577.066,18.038 577.18,18.722 577.484,19.178 C577.788,19.672 578.13,19.938 578.586,19.938 C578.966,19.938 579.308,19.786 579.612,19.482 C579.878,19.178 580.03,18.798 580.03,18.38 C580.03,18.304 579.992,18.114 579.992,17.734 C579.954,17.354 579.954,17.05 579.954,16.898 C579.954,14.352 580.334,10.438 581.17,5.156 C581.246,4.472 581.322,4.092 581.322,3.94 L581.322,3.94 Z M597.852,3.94 C597.852,2.952 597.396,2.458 596.484,2.458 C595.724,2.458 595.23,3.142 595.04,4.434 C594.85,5.46 594.622,6.904 594.394,8.766 C592.722,9.184 591.088,9.488 589.492,9.64 C589.872,7.208 590.252,5.384 590.632,4.13 C590.86,3.446 591.05,2.914 591.24,2.458 C591.164,1.432 590.708,0.9 589.796,0.9 C589.15,0.9 588.732,1.204 588.504,1.812 C587.744,3.636 587.136,6.258 586.756,9.678 C586.148,9.678 585.73,9.64 585.502,9.602 C584.742,9.602 584.4,10.058 584.4,10.894 C584.4,11.844 584.932,12.3 586.034,12.3 L586.49,12.3 C586.376,13.744 586.262,15.378 586.186,17.278 C586.186,17.392 586.148,17.582 586.11,17.81 C586.034,18.038 586.034,18.19 586.034,18.342 C586.034,18.722 586.186,19.064 586.49,19.368 C586.794,19.672 587.136,19.824 587.516,19.824 C588.428,19.824 588.922,19.33 588.96,18.38 C588.96,17.088 589.074,15.036 589.264,12.224 C590.898,12.072 592.494,11.806 594.09,11.426 C593.9,13.44 593.786,15.036 593.786,16.176 C593.786,16.29 593.748,16.442 593.71,16.67 C593.634,16.86 593.596,17.012 593.596,17.126 C593.596,18.038 593.71,18.722 594.014,19.178 C594.318,19.672 594.66,19.938 595.116,19.938 C595.496,19.938 595.838,19.786 596.142,19.482 C596.408,19.178 596.56,18.798 596.56,18.38 C596.56,18.304 596.522,18.114 596.522,17.734 C596.484,17.354 596.484,17.05 596.484,16.898 C596.484,14.352 596.864,10.438 597.7,5.156 C597.776,4.472 597.852,4.092 597.852,3.94 L597.852,3.94 Z M613.774,9.64 C613.774,8.158 613.356,6.79 612.52,5.574 C611.646,4.396 610.544,3.56 609.214,3.104 C608.682,2.952 608.378,2.876 608.302,2.876 C607.998,2.876 607.656,3.066 607.2,3.37 C606.668,3.674 606.25,3.902 605.946,4.016 C604.654,4.662 603.59,5.802 602.83,7.398 C602.07,8.842 601.728,10.4 601.728,12.034 C601.728,13.972 602.222,15.568 603.286,16.822 C604.35,18.038 605.68,18.684 607.276,18.684 C609.1,18.684 610.658,17.848 611.912,16.1 C613.128,14.352 613.774,12.224 613.774,9.64 L613.774,9.64 Z M610.772,10.21 C610.772,11.502 610.392,12.68 609.708,13.782 C608.948,14.922 608.15,15.492 607.238,15.492 C606.478,15.492 605.87,15.15 605.414,14.428 C604.92,13.744 604.692,12.946 604.692,12.034 C604.692,10.818 604.958,9.678 605.566,8.614 C606.25,7.398 607.124,6.752 608.188,6.752 C608.568,6.98 609.062,7.094 609.67,7.094 C610.392,7.55 610.772,8.614 610.772,10.21 L610.772,10.21 Z M628.556,-2.824 C628.556,-3.318 628.29,-3.774 627.796,-4.192 C627.226,-4.572 626.694,-4.762 626.238,-4.762 C625.972,-4.762 625.782,-4.686 625.668,-4.534 C626.048,-3.85 626.238,-3.394 626.238,-3.242 C626.238,-2.786 625.972,-2.254 625.516,-1.646 C624.984,-1 624.528,-0.696 624.148,-0.696 C623.92,-0.696 623.768,-0.962 623.616,-1.494 L622.894,-3.698 C622.514,-4.458 621.906,-4.838 621.07,-4.838 C620.918,-4.838 620.766,-4.724 620.614,-4.572 C620.424,-4.344 620.348,-4.192 620.348,-4.116 C620.348,-3.166 620.956,-1.76 622.21,0.102 C622.818,1.014 623.464,1.47 624.186,1.47 C624.984,1.47 625.934,0.976 626.998,-0.088 C628.024,-1.076 628.556,-1.988 628.556,-2.824 L628.556,-2.824 Z M631.786,18.228 C631.786,17.962 631.596,17.62 631.254,17.24 C630.418,16.328 630.038,14.01 630.038,10.286 C630.038,8.956 630.228,6.714 630.646,3.56 C630.646,3.142 630.456,2.762 630.152,2.382 C629.81,2.04 629.43,1.85 629.012,1.85 C628.366,1.85 626.998,3.256 624.946,6.068 C623.274,8.272 621.906,10.286 620.766,12.034 C621.032,9.07 621.222,6.904 621.336,5.612 C621.336,5.004 621.108,4.472 620.728,4.016 C620.348,3.598 619.854,3.37 619.246,3.37 C618.904,3.37 618.6,3.598 618.296,4.016 C618.372,5.118 618.448,5.764 618.448,5.916 C618.448,6.6 618.334,8.31 618.144,11.084 L618.068,12.186 C618.03,12.756 617.954,13.516 617.878,14.466 C617.764,15.378 617.688,15.948 617.688,16.176 C617.726,16.708 617.878,17.126 618.182,17.354 C618.79,17.962 619.17,18.228 619.322,18.228 C619.854,18.228 620.5,17.658 621.184,16.442 C622.59,14.086 623.578,12.414 624.186,11.502 C625.174,9.868 626.238,8.348 627.416,6.98 C627.416,7.36 627.378,8.158 627.378,9.336 C627.34,10.552 627.34,11.198 627.34,11.35 C627.34,13.326 627.53,14.998 627.948,16.442 C628.518,18.532 629.354,19.596 630.418,19.596 C630.646,19.596 630.95,19.406 631.292,19.102 C631.596,18.722 631.786,18.456 631.786,18.228 L631.786,18.228 Z M664.162,11.046 C664.162,8.956 663.63,7.246 662.642,5.916 C661.502,4.434 659.944,3.674 657.93,3.674 C656.106,3.674 654.092,4.624 651.964,6.486 C652.572,2.61 655.156,-0.126 659.792,-1.646 C661.122,-2.102 661.806,-2.748 661.806,-3.66 C661.806,-4.306 661.578,-4.99 661.198,-5.712 C660.742,-6.396 660.248,-6.776 659.716,-6.776 C659.222,-6.776 658.956,-6.434 658.918,-5.788 C658.842,-5.028 658.804,-4.648 658.766,-4.572 C658.652,-4.382 658.272,-4.154 657.626,-3.888 C651.622,-1.456 648.658,3.066 648.658,9.716 C648.658,12.566 649.228,14.884 650.444,16.708 C651.774,18.608 653.636,19.596 656.03,19.596 C658.158,19.596 660.02,18.76 661.692,17.126 C663.326,15.454 664.162,13.44 664.162,11.046 L664.162,11.046 Z M661.426,10.172 C661.426,11.996 660.894,13.516 659.868,14.808 C658.804,16.1 657.474,16.746 655.954,16.746 C654.738,16.746 653.712,16.214 652.952,15.074 C652.192,13.934 651.812,12.528 651.812,10.818 C651.812,10.628 651.812,10.362 651.85,9.982 C652.8,9.868 653.332,9.45 653.446,8.766 C655.194,7.322 656.79,6.562 658.158,6.562 C658.994,6.562 659.754,6.942 660.438,7.626 C661.084,8.386 661.426,9.222 661.426,10.172 L661.426,10.172 Z M680.084,9.64 C680.084,8.158 679.666,6.79 678.83,5.574 C677.956,4.396 676.854,3.56 675.524,3.104 C674.992,2.952 674.688,2.876 674.612,2.876 C674.308,2.876 673.966,3.066 673.51,3.37 C672.978,3.674 672.56,3.902 672.256,4.016 C670.964,4.662 669.9,5.802 669.14,7.398 C668.38,8.842 668.038,10.4 668.038,12.034 C668.038,13.972 668.532,15.568 669.596,16.822 C670.66,18.038 671.99,18.684 673.586,18.684 C675.41,18.684 676.968,17.848 678.222,16.1 C679.438,14.352 680.084,12.224 680.084,9.64 L680.084,9.64 Z M677.082,10.21 C677.082,11.502 676.702,12.68 676.018,13.782 C675.258,14.922 674.46,15.492 673.548,15.492 C672.788,15.492 672.18,15.15 671.724,14.428 C671.23,13.744 671.002,12.946 671.002,12.034 C671.002,10.818 671.268,9.678 671.876,8.614 C672.56,7.398 673.434,6.752 674.498,6.752 C674.878,6.98 675.372,7.094 675.98,7.094 C676.702,7.55 677.082,8.614 677.082,10.21 L677.082,10.21 Z M699.35,4.548 C699.35,3.978 699.16,3.484 698.78,3.028 C698.438,2.61 698.02,2.382 697.488,2.382 C697.26,2.382 696.804,2.61 696.12,2.99 C695.436,3.408 693.764,3.75 691.066,4.054 C690.458,3.56 689.964,3.294 689.622,3.294 C689.204,3.294 688.748,3.522 688.292,3.978 C687.836,4.434 687.608,4.928 687.608,5.384 C687.608,5.688 687.76,6.068 688.064,6.486 C688.33,6.942 688.482,7.436 688.482,8.006 C688.482,10.362 688.292,12.3 687.912,13.896 C687.418,15.758 686.772,16.67 686.012,16.67 C685.708,16.67 685.48,16.214 685.404,15.226 C685.328,14.846 685.176,14.618 684.872,14.618 C684.34,14.618 683.96,14.884 683.694,15.34 C683.352,15.872 683.2,16.48 683.2,17.126 C683.2,17.848 683.466,18.38 684.036,18.798 C684.568,19.178 685.176,19.406 685.86,19.406 C687.836,19.406 689.242,18.114 690.078,15.606 C690.61,14.01 691.066,11.122 691.446,6.942 C692.396,6.714 693.84,6.41 695.816,6.068 C695.436,9.792 695.246,12.604 695.246,14.504 C695.246,17.012 695.398,18.57 695.74,19.216 C696.082,19.862 696.576,20.204 697.184,20.204 C698.172,20.204 698.666,19.596 698.666,18.456 C698.514,17.772 698.438,17.164 698.362,16.632 C698.172,15.34 698.096,14.238 698.096,13.288 C698.096,11.236 698.4,8.842 699.046,6.106 C699.236,5.194 699.35,4.7 699.35,4.548 L699.35,4.548 Z M718.312,17.316 C718.312,16.936 718.16,16.556 717.856,16.176 C717.552,15.872 717.172,15.682 716.792,15.682 C716.488,15.682 715.994,15.758 715.348,15.834 C714.702,15.91 714.208,15.948 713.904,15.948 C712.764,15.948 711.776,15.416 710.864,14.314 C714.664,12.262 716.564,9.83 716.564,7.018 C716.564,5.954 716.108,4.928 715.196,4.016 C714.284,3.104 713.372,2.648 712.422,2.648 C710.788,2.648 709.458,3.598 708.394,5.46 C707.482,7.056 707.026,8.766 707.026,10.59 C707.026,10.97 707.064,11.502 707.178,12.148 L706.304,12.148 C705.772,12.148 705.278,11.958 704.746,11.578 C704.214,11.198 703.834,11.008 703.606,11.008 C702.618,11.008 702.124,11.54 702.124,12.604 C702.124,13.44 702.732,14.124 704.024,14.656 C705.012,15.074 705.962,15.264 706.95,15.264 L708.09,15.264 C709.458,17.886 711.586,19.178 714.474,19.178 C717.02,19.178 718.312,18.532 718.312,17.316 L718.312,17.316 Z M713.562,7.17 C713.562,8.424 712.422,9.792 710.142,11.274 L710.142,10.59 C710.142,9.564 710.294,8.576 710.674,7.626 C711.054,6.486 711.586,5.916 712.27,5.916 C712.574,5.916 712.878,6.068 713.182,6.296 C713.41,6.6 713.562,6.866 713.562,7.17 L713.562,7.17 Z M733.056,13.592 C733.056,11.312 731.916,9.792 729.674,9.108 C731.308,8.196 732.144,7.056 732.144,5.65 C732.144,3.294 730.282,2.116 726.634,2.116 C723.48,2.116 721.922,2.8 721.922,4.168 C721.922,5.156 722.378,5.65 723.29,5.688 C723.518,5.65 724.088,5.46 725,5.08 C725.608,4.852 726.178,4.7 726.634,4.7 C728.382,4.7 729.256,5.118 729.256,5.954 C729.256,6.486 728.8,7.056 727.888,7.588 C727.052,8.044 726.102,8.386 725,8.614 C723.632,8.918 722.91,9.07 722.796,9.108 C722.34,9.298 722.15,9.678 722.15,10.21 C722.15,10.59 722.264,11.008 722.568,11.388 C722.834,11.806 723.176,11.996 723.556,11.996 C723.746,11.996 724.012,11.92 724.354,11.692 C725.038,11.312 725.836,11.084 726.71,11.084 C727.584,11.084 728.344,11.236 729.028,11.54 C729.864,11.92 730.282,12.49 730.282,13.25 C730.282,14.162 729.56,15.074 728.192,15.948 C726.9,16.822 725.798,17.24 724.886,17.24 C723.822,17.24 723.328,17.088 723.328,16.784 C723.328,16.632 723.366,16.404 723.48,16.176 C723.556,15.91 723.594,15.72 723.594,15.644 C723.594,14.96 723.138,14.618 722.264,14.618 C721.96,14.618 721.618,14.884 721.276,15.34 C720.896,15.872 720.744,16.328 720.744,16.708 C720.744,17.24 720.934,17.81 721.39,18.418 C722.074,19.406 723.328,19.9 725.114,19.9 C726.862,19.9 728.61,19.254 730.32,18.038 C732.144,16.746 733.056,15.264 733.056,13.592 L733.056,13.592 Z M749.206,3.94 C749.206,2.952 748.75,2.458 747.838,2.458 C747.078,2.458 746.584,3.142 746.394,4.434 C746.204,5.46 745.976,6.904 745.748,8.766 C744.076,9.184 742.442,9.488 740.846,9.64 C741.226,7.208 741.606,5.384 741.986,4.13 C742.214,3.446 742.404,2.914 742.594,2.458 C742.518,1.432 742.062,0.9 741.15,0.9 C740.504,0.9 740.086,1.204 739.858,1.812 C739.098,3.636 738.49,6.258 738.11,9.678 C737.502,9.678 737.084,9.64 736.856,9.602 C736.096,9.602 735.754,10.058 735.754,10.894 C735.754,11.844 736.286,12.3 737.388,12.3 L737.844,12.3 C737.73,13.744 737.616,15.378 737.54,17.278 C737.54,17.392 737.502,17.582 737.464,17.81 C737.388,18.038 737.388,18.19 737.388,18.342 C737.388,18.722 737.54,19.064 737.844,19.368 C738.148,19.672 738.49,19.824 738.87,19.824 C739.782,19.824 740.276,19.33 740.314,18.38 C740.314,17.088 740.428,15.036 740.618,12.224 C742.252,12.072 743.848,11.806 745.444,11.426 C745.254,13.44 745.14,15.036 745.14,16.176 C745.14,16.29 745.102,16.442 745.064,16.67 C744.988,16.86 744.95,17.012 744.95,17.126 C744.95,18.038 745.064,18.722 745.368,19.178 C745.672,19.672 746.014,19.938 746.47,19.938 C746.85,19.938 747.192,19.786 747.496,19.482 C747.762,19.178 747.914,18.798 747.914,18.38 C747.914,18.304 747.876,18.114 747.876,17.734 C747.838,17.354 747.838,17.05 747.838,16.898 C747.838,14.352 748.218,10.438 749.054,5.156 C749.13,4.472 749.206,4.092 749.206,3.94 L749.206,3.94 Z M767.18,18.228 C767.18,17.962 766.99,17.62 766.648,17.24 C765.812,16.328 765.432,14.01 765.432,10.286 C765.432,8.956 765.622,6.714 766.04,3.56 C766.04,3.142 765.85,2.762 765.546,2.382 C765.204,2.04 764.824,1.85 764.406,1.85 C763.76,1.85 762.392,3.256 760.34,6.068 C758.668,8.272 757.3,10.286 756.16,12.034 C756.426,9.07 756.616,6.904 756.73,5.612 C756.73,5.004 756.502,4.472 756.122,4.016 C755.742,3.598 755.248,3.37 754.64,3.37 C754.298,3.37 753.994,3.598 753.69,4.016 C753.766,5.118 753.842,5.764 753.842,5.916 C753.842,6.6 753.728,8.31 753.538,11.084 L753.462,12.186 C753.424,12.756 753.348,13.516 753.272,14.466 C753.158,15.378 753.082,15.948 753.082,16.176 C753.12,16.708 753.272,17.126 753.576,17.354 C754.184,17.962 754.564,18.228 754.716,18.228 C755.248,18.228 755.894,17.658 756.578,16.442 C757.984,14.086 758.972,12.414 759.58,11.502 C760.568,9.868 761.632,8.348 762.81,6.98 C762.81,7.36 762.772,8.158 762.772,9.336 C762.734,10.552 762.734,11.198 762.734,11.35 C762.734,13.326 762.924,14.998 763.342,16.442 C763.912,18.532 764.748,19.596 765.812,19.596 C766.04,19.596 766.344,19.406 766.686,19.102 C766.99,18.722 767.18,18.456 767.18,18.228 L767.18,18.228 Z M797.466,3.788 C797.466,3.37 797.276,2.99 796.896,2.686 C796.478,2.42 796.06,2.268 795.642,2.192 C791.766,2.496 788.688,2.762 786.484,2.914 C785.154,3.028 784.508,3.484 784.508,4.32 C784.508,4.852 784.584,5.308 784.812,5.726 C784.546,9.64 784.432,11.616 784.432,11.692 C784.166,14.428 784.052,15.796 784.052,15.796 C784.052,16.29 784.204,16.784 784.546,17.278 C784.888,17.772 785.268,18 785.724,18 C786.484,18 786.864,17.506 786.94,16.48 C787.168,12.376 787.396,8.842 787.7,5.878 C789.638,5.612 791.652,5.422 793.742,5.346 C793.742,5.46 793.666,7.322 793.552,10.894 C793.4,14.086 793.362,15.796 793.362,16.024 C793.362,18.494 794.008,19.748 795.376,19.748 C796.098,19.748 796.478,19.33 796.478,18.57 C796.25,17.43 796.174,16.366 796.174,15.454 C796.174,14.238 796.25,12.3 796.402,9.64 C796.44,9.222 796.516,8.614 796.63,7.778 C796.706,7.094 796.744,6.714 796.744,6.562 C796.744,6.334 796.668,5.992 796.592,5.536 C797.162,4.928 797.466,4.358 797.466,3.788 L797.466,3.788 Z M813.426,9.64 C813.426,8.158 813.008,6.79 812.172,5.574 C811.298,4.396 810.196,3.56 808.866,3.104 C808.334,2.952 808.03,2.876 807.954,2.876 C807.65,2.876 807.308,3.066 806.852,3.37 C806.32,3.674 805.902,3.902 805.598,4.016 C804.306,4.662 803.242,5.802 802.482,7.398 C801.722,8.842 801.38,10.4 801.38,12.034 C801.38,13.972 801.874,15.568 802.938,16.822 C804.002,18.038 805.332,18.684 806.928,18.684 C808.752,18.684 810.31,17.848 811.564,16.1 C812.78,14.352 813.426,12.224 813.426,9.64 L813.426,9.64 Z M810.424,10.21 C810.424,11.502 810.044,12.68 809.36,13.782 C808.6,14.922 807.802,15.492 806.89,15.492 C806.13,15.492 805.522,15.15 805.066,14.428 C804.572,13.744 804.344,12.946 804.344,12.034 C804.344,10.818 804.61,9.678 805.218,8.614 C805.902,7.398 806.776,6.752 807.84,6.752 C808.22,6.98 808.714,7.094 809.322,7.094 C810.044,7.55 810.424,8.614 810.424,10.21 L810.424,10.21 Z M833.946,19.558 C833.946,19.216 833.832,18.836 833.604,18.38 C833.376,17.924 833.11,17.62 832.844,17.392 C832.236,16.1 831.704,13.744 831.248,10.362 C830.944,8.614 830.716,6.676 830.488,4.624 C830.374,3.826 829.918,3.408 829.12,3.408 C828.398,3.408 827.448,4.966 826.27,8.082 C825.852,9.146 825.51,10.058 825.206,10.894 C824.18,9.374 823.268,7.094 822.432,3.978 C822.128,2.838 821.672,2.268 821.102,2.268 C820.38,2.268 819.734,3.142 819.164,4.852 C819.05,4.852 818.898,4.814 818.708,4.814 C818.442,4.814 818.214,4.928 818.062,5.118 C817.834,5.346 817.72,5.612 817.72,5.878 C817.72,5.954 817.72,6.182 817.758,6.562 C817.758,6.98 817.796,7.208 817.796,7.284 C817.796,7.968 817.72,8.918 817.568,10.21 C817.416,11.502 817.34,12.946 817.34,14.504 C817.34,17.05 817.834,18.304 818.86,18.304 C819.62,18.304 820,17.468 820.076,15.758 C820.19,12.414 820.494,9.64 820.95,7.436 C822.964,12.3 824.56,14.732 825.7,14.732 C826.08,14.732 826.346,14.58 826.574,14.2 C826.764,13.896 826.992,13.212 827.296,12.224 C827.79,10.552 828.208,9.222 828.55,8.31 C828.93,12.528 829.462,15.644 830.184,17.658 C830.982,19.976 831.818,21.154 832.654,21.154 C832.958,21.154 833.262,20.964 833.528,20.622 C833.794,20.242 833.946,19.9 833.946,19.558 L833.946,19.558 Z M848.69,9.64 C848.69,8.158 848.272,6.79 847.436,5.574 C846.562,4.396 845.46,3.56 844.13,3.104 C843.598,2.952 843.294,2.876 843.218,2.876 C842.914,2.876 842.572,3.066 842.116,3.37 C841.584,3.674 841.166,3.902 840.862,4.016 C839.57,4.662 838.506,5.802 837.746,7.398 C836.986,8.842 836.644,10.4 836.644,12.034 C836.644,13.972 837.138,15.568 838.202,16.822 C839.266,18.038 840.596,18.684 842.192,18.684 C844.016,18.684 845.574,17.848 846.828,16.1 C848.044,14.352 848.69,12.224 848.69,9.64 L848.69,9.64 Z M845.688,10.21 C845.688,11.502 845.308,12.68 844.624,13.782 C843.864,14.922 843.066,15.492 842.154,15.492 C841.394,15.492 840.786,15.15 840.33,14.428 C839.836,13.744 839.608,12.946 839.608,12.034 C839.608,10.818 839.874,9.678 840.482,8.614 C841.166,7.398 842.04,6.752 843.104,6.752 C843.484,6.98 843.978,7.094 844.586,7.094 C845.308,7.55 845.688,8.614 845.688,10.21 L845.688,10.21 Z M872.782,15.758 C872.782,14.922 872.212,14.466 871.11,14.352 C867.538,14.048 864.992,13.478 863.51,12.718 C866.056,9.602 868.032,7.284 869.438,5.764 C869.742,5.422 869.894,5.08 869.894,4.7 C869.894,4.32 869.742,3.94 869.438,3.598 C869.134,3.294 868.792,3.142 868.412,3.142 C868.032,3.142 867.462,3.636 866.626,4.624 C865.714,5.688 864.536,7.17 863.092,9.07 C863.168,7.892 863.396,6.486 863.776,4.814 C864.004,3.484 864.156,2.724 864.156,2.534 C864.156,1.546 863.624,1.014 862.636,1.014 C861.876,1.014 861.382,1.698 861.154,2.99 C860.964,3.902 860.774,5.27 860.584,7.056 C858.19,6.676 856.404,5.992 855.264,4.966 C854.732,4.548 854.238,4.32 853.706,4.32 C853.364,4.32 853.098,4.472 852.87,4.738 C852.642,5.08 852.528,5.384 852.528,5.688 C852.528,6.524 853.288,7.36 854.884,8.196 C855.682,8.652 856.974,9.108 858.76,9.602 C856.898,11.692 855.036,13.402 853.136,14.77 C852.528,15.226 852.224,15.72 852.224,16.29 C852.224,16.67 852.338,17.012 852.642,17.316 C852.908,17.62 853.25,17.772 853.668,17.772 C854.124,17.772 854.694,17.468 855.378,16.86 C857.696,14.77 859.33,13.174 860.318,12.072 C860.394,15.036 860.584,17.316 860.926,18.988 C861.154,19.976 861.724,20.47 862.674,20.47 C863.016,20.47 863.32,20.28 863.624,19.938 C863.89,19.596 864.042,19.254 864.042,18.912 C863.738,17.696 863.472,16.67 863.32,15.872 C865.106,16.404 866.664,16.746 868.032,16.974 C869.514,17.278 870.616,17.392 871.376,17.392 C872.288,17.392 872.782,16.86 872.782,15.758 L872.782,15.758 Z M890.984,17.316 C890.984,16.936 890.832,16.556 890.528,16.176 C890.224,15.872 889.844,15.682 889.464,15.682 C889.16,15.682 888.666,15.758 888.02,15.834 C887.374,15.91 886.88,15.948 886.576,15.948 C885.436,15.948 884.448,15.416 883.536,14.314 C887.336,12.262 889.236,9.83 889.236,7.018 C889.236,5.954 888.78,4.928 887.868,4.016 C886.956,3.104 886.044,2.648 885.094,2.648 C883.46,2.648 882.13,3.598 881.066,5.46 C880.154,7.056 879.698,8.766 879.698,10.59 C879.698,10.97 879.736,11.502 879.85,12.148 L878.976,12.148 C878.444,12.148 877.95,11.958 877.418,11.578 C876.886,11.198 876.506,11.008 876.278,11.008 C875.29,11.008 874.796,11.54 874.796,12.604 C874.796,13.44 875.404,14.124 876.696,14.656 C877.684,15.074 878.634,15.264 879.622,15.264 L880.762,15.264 C882.13,17.886 884.258,19.178 887.146,19.178 C889.692,19.178 890.984,18.532 890.984,17.316 L890.984,17.316 Z M886.234,7.17 C886.234,8.424 885.094,9.792 882.814,11.274 L882.814,10.59 C882.814,9.564 882.966,8.576 883.346,7.626 C883.726,6.486 884.258,5.916 884.942,5.916 C885.246,5.916 885.55,6.068 885.854,6.296 C886.082,6.6 886.234,6.866 886.234,7.17 L886.234,7.17 Z M909.072,2.192 C909.072,1.812 908.92,1.432 908.654,1.09 C908.388,0.786 908.084,0.596 907.742,0.596 C907.172,0.596 906.374,0.748 905.31,0.976 C901.13,1.964 897.406,2.838 894.214,3.598 C893.986,3.674 893.834,3.674 893.758,3.674 C892.998,3.826 892.618,4.396 892.618,5.346 C892.618,6.41 893.036,6.904 893.948,6.904 C895.05,6.676 895.924,6.486 896.532,6.296 C897.634,6.068 898.584,5.84 899.382,5.688 C899.23,8.614 899.154,11.426 899.154,14.086 C899.154,16.67 899.306,18.456 899.61,19.444 C899.838,20.128 900.294,20.47 901.054,20.47 C902.042,20.47 902.536,19.558 902.536,17.772 C902.536,16.898 902.346,16.252 902.042,15.834 C901.966,14.884 901.928,13.402 901.928,11.35 C901.928,9.754 902.042,7.588 902.346,4.89 C903.448,4.624 904.208,4.434 904.664,4.358 C905.006,4.586 905.272,4.662 905.462,4.662 C905.69,4.662 905.956,4.624 906.298,4.472 L908.046,3.674 C908.73,3.37 909.072,2.876 909.072,2.192 L909.072,2.192 Z M916.71,5.498 C916.71,4.89 916.444,4.32 915.988,3.788 C915.456,3.218 914.924,2.914 914.354,2.914 C913.974,2.914 913.556,3.218 913.176,3.826 C912.758,4.434 912.568,4.928 912.568,5.384 C912.568,5.612 912.644,5.84 912.796,6.068 C913.328,6.98 914.088,7.512 915,7.664 C915.456,7.588 915.874,7.322 916.254,6.904 C916.558,6.486 916.71,6.03 916.71,5.498 L916.71,5.498 Z M916.558,17.544 C916.558,15.34 915.988,14.238 914.924,14.238 C914.62,14.238 914.354,14.276 914.164,14.352 C913.746,14.504 913.404,14.884 913.1,15.454 C912.796,16.062 912.682,16.632 912.682,17.164 C912.682,17.962 913.176,18.57 914.164,19.064 C914.506,19.216 914.81,19.33 915.038,19.33 C916.026,19.33 916.558,18.722 916.558,17.544 L916.558,17.544 Z" id="В-эффективном-лечени"></path>
            </g>
        </g>
    </g>
</svg>