<?xml version="1.0" encoding="UTF-8"?>
<svg width="501px" height="32px" viewBox="0 0 501 32" version="1.1" xmlns="http://www.w3.org/2000/svg" xmlns:xlink="http://www.w3.org/1999/xlink">
    <!-- Generator: Sketch 40.3 (33839) - http://www.bohemiancoding.com/sketch -->
    <title>при лечении мочекаме</title>
    <desc>Created with Sketch.</desc>
    <defs></defs>
    <g id="Page-1" stroke="none" stroke-width="1" fill="none" fill-rule="evenodd">
        <g id="Mochekamennaya" transform="translate(-460.000000, -236.000000)" fill="#354777">
            <path d="M473.14,245.91 C473.14,245.525 472.965,245.175 472.615,244.895 C472.23,244.65 471.845,244.51 471.46,244.44 C467.89,244.72 465.055,244.965 463.025,245.105 C461.8,245.21 461.205,245.63 461.205,246.4 C461.205,246.89 461.275,247.31 461.485,247.695 C461.24,251.3 461.135,253.12 461.135,253.19 C460.89,255.71 460.785,256.97 460.785,256.97 C460.785,257.425 460.925,257.88 461.24,258.335 C461.555,258.79 461.905,259 462.325,259 C463.025,259 463.375,258.545 463.445,257.6 C463.655,253.82 463.865,250.565 464.145,247.835 C465.93,247.59 467.785,247.415 469.71,247.345 C469.71,247.45 469.64,249.165 469.535,252.455 C469.395,255.395 469.36,256.97 469.36,257.18 C469.36,259.455 469.955,260.61 471.215,260.61 C471.88,260.61 472.23,260.225 472.23,259.525 C472.02,258.475 471.95,257.495 471.95,256.655 C471.95,255.535 472.02,253.75 472.16,251.3 C472.195,250.915 472.265,250.355 472.37,249.585 C472.44,248.955 472.475,248.605 472.475,248.465 C472.475,248.255 472.405,247.94 472.335,247.52 C472.86,246.96 473.14,246.435 473.14,245.91 L473.14,245.91 Z M489.415,246.89 C489.415,245.21 489.03,243.81 488.26,242.69 C487.42,241.465 486.195,240.835 484.655,240.835 C482.45,240.835 480.735,242.375 479.51,245.455 C478.67,247.59 478.25,250.04 478.25,252.77 C478.25,253.12 478.25,253.4 478.285,253.575 C477.305,253.925 476.85,254.45 476.85,255.185 C476.85,256.095 477.305,256.585 478.285,256.655 C478.355,257.215 478.39,258.055 478.39,259.175 C478.39,261.415 478.25,262.99 478.04,263.97 C477.795,264.915 477.69,265.44 477.69,265.545 C477.69,265.93 477.83,266.28 478.11,266.595 C478.39,266.875 478.74,267.05 479.125,267.05 C479.86,267.05 480.385,266.315 480.7,264.88 C481.05,263.27 481.225,261.625 481.225,260.015 C481.225,258.545 481.155,257.11 481.05,255.71 C486.615,253.68 489.415,250.74 489.415,246.89 L489.415,246.89 Z M486.615,246.295 C486.615,249.165 484.76,251.265 481.085,252.595 C481.085,250.705 481.4,248.78 482.065,246.89 C482.8,244.825 483.675,243.775 484.655,243.775 C485.25,243.775 485.74,244.055 486.125,244.545 C486.44,245.035 486.615,245.63 486.615,246.295 L486.615,246.295 Z M505.865,259.21 C505.865,258.965 505.69,258.65 505.375,258.3 C504.605,257.46 504.255,255.325 504.255,251.895 C504.255,250.67 504.43,248.605 504.815,245.7 C504.815,245.315 504.64,244.965 504.36,244.615 C504.045,244.3 503.695,244.125 503.31,244.125 C502.715,244.125 501.455,245.42 499.565,248.01 C498.025,250.04 496.765,251.895 495.715,253.505 C495.96,250.775 496.135,248.78 496.24,247.59 C496.24,247.03 496.03,246.54 495.68,246.12 C495.33,245.735 494.875,245.525 494.315,245.525 C494,245.525 493.72,245.735 493.44,246.12 C493.51,247.135 493.58,247.73 493.58,247.87 C493.58,248.5 493.475,250.075 493.3,252.63 L493.23,253.645 C493.195,254.17 493.125,254.87 493.055,255.745 C492.95,256.585 492.88,257.11 492.88,257.32 C492.915,257.81 493.055,258.195 493.335,258.405 C493.895,258.965 494.245,259.21 494.385,259.21 C494.875,259.21 495.47,258.685 496.1,257.565 C497.395,255.395 498.305,253.855 498.865,253.015 C499.775,251.51 500.755,250.11 501.84,248.85 C501.84,249.2 501.805,249.935 501.805,251.02 C501.77,252.14 501.77,252.735 501.77,252.875 C501.77,254.695 501.945,256.235 502.33,257.565 C502.855,259.49 503.625,260.47 504.605,260.47 C504.815,260.47 505.095,260.295 505.41,260.015 C505.69,259.665 505.865,259.42 505.865,259.21 L505.865,259.21 Z M535.545,246.61 C535.545,246.085 535.37,245.63 535.02,245.21 C534.705,244.825 534.32,244.615 533.83,244.615 C533.62,244.615 533.2,244.825 532.57,245.175 C531.94,245.56 530.4,245.875 527.915,246.155 C527.355,245.7 526.9,245.455 526.585,245.455 C526.2,245.455 525.78,245.665 525.36,246.085 C524.94,246.505 524.73,246.96 524.73,247.38 C524.73,247.66 524.87,248.01 525.15,248.395 C525.395,248.815 525.535,249.27 525.535,249.795 C525.535,251.965 525.36,253.75 525.01,255.22 C524.555,256.935 523.96,257.775 523.26,257.775 C522.98,257.775 522.77,257.355 522.7,256.445 C522.63,256.095 522.49,255.885 522.21,255.885 C521.72,255.885 521.37,256.13 521.125,256.55 C520.81,257.04 520.67,257.6 520.67,258.195 C520.67,258.86 520.915,259.35 521.44,259.735 C521.93,260.085 522.49,260.295 523.12,260.295 C524.94,260.295 526.235,259.105 527.005,256.795 C527.495,255.325 527.915,252.665 528.265,248.815 C529.14,248.605 530.47,248.325 532.29,248.01 C531.94,251.44 531.765,254.03 531.765,255.78 C531.765,258.09 531.905,259.525 532.22,260.12 C532.535,260.715 532.99,261.03 533.55,261.03 C534.46,261.03 534.915,260.47 534.915,259.42 C534.775,258.79 534.705,258.23 534.635,257.74 C534.46,256.55 534.39,255.535 534.39,254.66 C534.39,252.77 534.67,250.565 535.265,248.045 C535.44,247.205 535.545,246.75 535.545,246.61 L535.545,246.61 Z M553.01,258.37 C553.01,258.02 552.87,257.67 552.59,257.32 C552.31,257.04 551.96,256.865 551.61,256.865 C551.33,256.865 550.875,256.935 550.28,257.005 C549.685,257.075 549.23,257.11 548.95,257.11 C547.9,257.11 546.99,256.62 546.15,255.605 C549.65,253.715 551.4,251.475 551.4,248.885 C551.4,247.905 550.98,246.96 550.14,246.12 C549.3,245.28 548.46,244.86 547.585,244.86 C546.08,244.86 544.855,245.735 543.875,247.45 C543.035,248.92 542.615,250.495 542.615,252.175 C542.615,252.525 542.65,253.015 542.755,253.61 L541.95,253.61 C541.46,253.61 541.005,253.435 540.515,253.085 C540.025,252.735 539.675,252.56 539.465,252.56 C538.555,252.56 538.1,253.05 538.1,254.03 C538.1,254.8 538.66,255.43 539.85,255.92 C540.76,256.305 541.635,256.48 542.545,256.48 L543.595,256.48 C544.855,258.895 546.815,260.085 549.475,260.085 C551.82,260.085 553.01,259.49 553.01,258.37 L553.01,258.37 Z M548.635,249.025 C548.635,250.18 547.585,251.44 545.485,252.805 L545.485,252.175 C545.485,251.23 545.625,250.32 545.975,249.445 C546.325,248.395 546.815,247.87 547.445,247.87 C547.725,247.87 548.005,248.01 548.285,248.22 C548.495,248.5 548.635,248.745 548.635,249.025 L548.635,249.025 Z M567.36,245.7 C567.325,245.315 567.185,244.93 566.905,244.58 C566.625,244.23 566.31,244.055 565.96,244.055 C565.015,244.055 564.525,244.58 564.49,245.595 C564.49,245.735 564.49,246.19 564.525,246.925 C564.525,247.73 564.56,248.185 564.56,248.325 C564.56,249.69 564.105,250.95 563.23,252.14 C562.32,253.33 561.305,253.89 560.22,253.89 C558.855,253.89 558.19,252.91 558.19,250.88 C558.19,250.11 558.33,248.36 558.68,245.63 C558.575,244.65 558.155,244.125 557.455,244.125 C556.475,244.125 555.915,245.07 555.705,246.925 C555.635,247.45 555.6,248.745 555.6,250.845 C555.6,254.555 557.07,256.41 560.045,256.41 C560.885,256.41 561.76,256.2 562.6,255.71 C563.44,255.255 564.105,254.625 564.525,253.855 C564.455,255.255 564.385,256.41 564.315,257.285 C564.175,258.72 564.14,259.735 564.14,260.435 C564.14,261.38 564.525,261.87 565.365,261.87 C566.275,261.87 566.765,261.38 566.8,260.4 C566.835,258.125 566.94,254.765 567.15,250.355 C567.22,248.045 567.29,246.505 567.36,245.7 L567.36,245.7 Z M584.825,258.37 C584.825,258.02 584.685,257.67 584.405,257.32 C584.125,257.04 583.775,256.865 583.425,256.865 C583.145,256.865 582.69,256.935 582.095,257.005 C581.5,257.075 581.045,257.11 580.765,257.11 C579.715,257.11 578.805,256.62 577.965,255.605 C581.465,253.715 583.215,251.475 583.215,248.885 C583.215,247.905 582.795,246.96 581.955,246.12 C581.115,245.28 580.275,244.86 579.4,244.86 C577.895,244.86 576.67,245.735 575.69,247.45 C574.85,248.92 574.43,250.495 574.43,252.175 C574.43,252.525 574.465,253.015 574.57,253.61 L573.765,253.61 C573.275,253.61 572.82,253.435 572.33,253.085 C571.84,252.735 571.49,252.56 571.28,252.56 C570.37,252.56 569.915,253.05 569.915,254.03 C569.915,254.8 570.475,255.43 571.665,255.92 C572.575,256.305 573.45,256.48 574.36,256.48 L575.41,256.48 C576.67,258.895 578.63,260.085 581.29,260.085 C583.635,260.085 584.825,259.49 584.825,258.37 L584.825,258.37 Z M580.45,249.025 C580.45,250.18 579.4,251.44 577.3,252.805 L577.3,252.175 C577.3,251.23 577.44,250.32 577.79,249.445 C578.14,248.395 578.63,247.87 579.26,247.87 C579.54,247.87 579.82,248.01 580.1,248.22 C580.31,248.5 580.45,248.745 580.45,249.025 L580.45,249.025 Z M599.07,246.05 C599.07,245.14 598.65,244.685 597.81,244.685 C597.11,244.685 596.655,245.315 596.48,246.505 C596.305,247.45 596.095,248.78 595.885,250.495 C594.345,250.88 592.84,251.16 591.37,251.3 C591.72,249.06 592.07,247.38 592.42,246.225 C592.63,245.595 592.805,245.105 592.98,244.685 C592.91,243.74 592.49,243.25 591.65,243.25 C591.055,243.25 590.67,243.53 590.46,244.09 C589.76,245.77 589.2,248.185 588.85,251.335 C588.29,251.335 587.905,251.3 587.695,251.265 C586.995,251.265 586.68,251.685 586.68,252.455 C586.68,253.33 587.17,253.75 588.185,253.75 L588.605,253.75 C588.5,255.08 588.395,256.585 588.325,258.335 C588.325,258.44 588.29,258.615 588.255,258.825 C588.185,259.035 588.185,259.175 588.185,259.315 C588.185,259.665 588.325,259.98 588.605,260.26 C588.885,260.54 589.2,260.68 589.55,260.68 C590.39,260.68 590.845,260.225 590.88,259.35 C590.88,258.16 590.985,256.27 591.16,253.68 C592.665,253.54 594.135,253.295 595.605,252.945 C595.43,254.8 595.325,256.27 595.325,257.32 C595.325,257.425 595.29,257.565 595.255,257.775 C595.185,257.95 595.15,258.09 595.15,258.195 C595.15,259.035 595.255,259.665 595.535,260.085 C595.815,260.54 596.13,260.785 596.55,260.785 C596.9,260.785 597.215,260.645 597.495,260.365 C597.74,260.085 597.88,259.735 597.88,259.35 C597.88,259.28 597.845,259.105 597.845,258.755 C597.81,258.405 597.81,258.125 597.81,257.985 C597.81,255.64 598.16,252.035 598.93,247.17 C599,246.54 599.07,246.19 599.07,246.05 L599.07,246.05 Z M615.625,259.21 C615.625,258.965 615.45,258.65 615.135,258.3 C614.365,257.46 614.015,255.325 614.015,251.895 C614.015,250.67 614.19,248.605 614.575,245.7 C614.575,245.315 614.4,244.965 614.12,244.615 C613.805,244.3 613.455,244.125 613.07,244.125 C612.475,244.125 611.215,245.42 609.325,248.01 C607.785,250.04 606.525,251.895 605.475,253.505 C605.72,250.775 605.895,248.78 606,247.59 C606,247.03 605.79,246.54 605.44,246.12 C605.09,245.735 604.635,245.525 604.075,245.525 C603.76,245.525 603.48,245.735 603.2,246.12 C603.27,247.135 603.34,247.73 603.34,247.87 C603.34,248.5 603.235,250.075 603.06,252.63 L602.99,253.645 C602.955,254.17 602.885,254.87 602.815,255.745 C602.71,256.585 602.64,257.11 602.64,257.32 C602.675,257.81 602.815,258.195 603.095,258.405 C603.655,258.965 604.005,259.21 604.145,259.21 C604.635,259.21 605.23,258.685 605.86,257.565 C607.155,255.395 608.065,253.855 608.625,253.015 C609.535,251.51 610.515,250.11 611.6,248.85 C611.6,249.2 611.565,249.935 611.565,251.02 C611.53,252.14 611.53,252.735 611.53,252.875 C611.53,254.695 611.705,256.235 612.09,257.565 C612.615,259.49 613.385,260.47 614.365,260.47 C614.575,260.47 614.855,260.295 615.17,260.015 C615.45,259.665 615.625,259.42 615.625,259.21 L615.625,259.21 Z M632.18,259.21 C632.18,258.965 632.005,258.65 631.69,258.3 C630.92,257.46 630.57,255.325 630.57,251.895 C630.57,250.67 630.745,248.605 631.13,245.7 C631.13,245.315 630.955,244.965 630.675,244.615 C630.36,244.3 630.01,244.125 629.625,244.125 C629.03,244.125 627.77,245.42 625.88,248.01 C624.34,250.04 623.08,251.895 622.03,253.505 C622.275,250.775 622.45,248.78 622.555,247.59 C622.555,247.03 622.345,246.54 621.995,246.12 C621.645,245.735 621.19,245.525 620.63,245.525 C620.315,245.525 620.035,245.735 619.755,246.12 C619.825,247.135 619.895,247.73 619.895,247.87 C619.895,248.5 619.79,250.075 619.615,252.63 L619.545,253.645 C619.51,254.17 619.44,254.87 619.37,255.745 C619.265,256.585 619.195,257.11 619.195,257.32 C619.23,257.81 619.37,258.195 619.65,258.405 C620.21,258.965 620.56,259.21 620.7,259.21 C621.19,259.21 621.785,258.685 622.415,257.565 C623.71,255.395 624.62,253.855 625.18,253.015 C626.09,251.51 627.07,250.11 628.155,248.85 C628.155,249.2 628.12,249.935 628.12,251.02 C628.085,252.14 628.085,252.735 628.085,252.875 C628.085,254.695 628.26,256.235 628.645,257.565 C629.17,259.49 629.94,260.47 630.92,260.47 C631.13,260.47 631.41,260.295 631.725,260.015 C632.005,259.665 632.18,259.42 632.18,259.21 L632.18,259.21 Z M663.015,260.435 C663.015,260.12 662.91,259.77 662.7,259.35 C662.49,258.93 662.245,258.65 662,258.44 C661.44,257.25 660.95,255.08 660.53,251.965 C660.25,250.355 660.04,248.57 659.83,246.68 C659.725,245.945 659.305,245.56 658.57,245.56 C657.905,245.56 657.03,246.995 655.945,249.865 C655.56,250.845 655.245,251.685 654.965,252.455 C654.02,251.055 653.18,248.955 652.41,246.085 C652.13,245.035 651.71,244.51 651.185,244.51 C650.52,244.51 649.925,245.315 649.4,246.89 C649.295,246.89 649.155,246.855 648.98,246.855 C648.735,246.855 648.525,246.96 648.385,247.135 C648.175,247.345 648.07,247.59 648.07,247.835 C648.07,247.905 648.07,248.115 648.105,248.465 C648.105,248.85 648.14,249.06 648.14,249.13 C648.14,249.76 648.07,250.635 647.93,251.825 C647.79,253.015 647.72,254.345 647.72,255.78 C647.72,258.125 648.175,259.28 649.12,259.28 C649.82,259.28 650.17,258.51 650.24,256.935 C650.345,253.855 650.625,251.3 651.045,249.27 C652.9,253.75 654.37,255.99 655.42,255.99 C655.77,255.99 656.015,255.85 656.225,255.5 C656.4,255.22 656.61,254.59 656.89,253.68 C657.345,252.14 657.73,250.915 658.045,250.075 C658.395,253.96 658.885,256.83 659.55,258.685 C660.285,260.82 661.055,261.905 661.825,261.905 C662.105,261.905 662.385,261.73 662.63,261.415 C662.875,261.065 663.015,260.75 663.015,260.435 L663.015,260.435 Z M676.595,251.3 C676.595,249.935 676.21,248.675 675.44,247.555 C674.635,246.47 673.62,245.7 672.395,245.28 C671.905,245.14 671.625,245.07 671.555,245.07 C671.275,245.07 670.96,245.245 670.54,245.525 C670.05,245.805 669.665,246.015 669.385,246.12 C668.195,246.715 667.215,247.765 666.515,249.235 C665.815,250.565 665.5,252 665.5,253.505 C665.5,255.29 665.955,256.76 666.935,257.915 C667.915,259.035 669.14,259.63 670.61,259.63 C672.29,259.63 673.725,258.86 674.88,257.25 C676,255.64 676.595,253.68 676.595,251.3 L676.595,251.3 Z M673.83,251.825 C673.83,253.015 673.48,254.1 672.85,255.115 C672.15,256.165 671.415,256.69 670.575,256.69 C669.875,256.69 669.315,256.375 668.895,255.71 C668.44,255.08 668.23,254.345 668.23,253.505 C668.23,252.385 668.475,251.335 669.035,250.355 C669.665,249.235 670.47,248.64 671.45,248.64 C671.8,248.85 672.255,248.955 672.815,248.955 C673.48,249.375 673.83,250.355 673.83,251.825 L673.83,251.825 Z M691.96,245.7 C691.925,245.315 691.785,244.93 691.505,244.58 C691.225,244.23 690.91,244.055 690.56,244.055 C689.615,244.055 689.125,244.58 689.09,245.595 C689.09,245.735 689.09,246.19 689.125,246.925 C689.125,247.73 689.16,248.185 689.16,248.325 C689.16,249.69 688.705,250.95 687.83,252.14 C686.92,253.33 685.905,253.89 684.82,253.89 C683.455,253.89 682.79,252.91 682.79,250.88 C682.79,250.11 682.93,248.36 683.28,245.63 C683.175,244.65 682.755,244.125 682.055,244.125 C681.075,244.125 680.515,245.07 680.305,246.925 C680.235,247.45 680.2,248.745 680.2,250.845 C680.2,254.555 681.67,256.41 684.645,256.41 C685.485,256.41 686.36,256.2 687.2,255.71 C688.04,255.255 688.705,254.625 689.125,253.855 C689.055,255.255 688.985,256.41 688.915,257.285 C688.775,258.72 688.74,259.735 688.74,260.435 C688.74,261.38 689.125,261.87 689.965,261.87 C690.875,261.87 691.365,261.38 691.4,260.4 C691.435,258.125 691.54,254.765 691.75,250.355 C691.82,248.045 691.89,246.505 691.96,245.7 L691.96,245.7 Z M709.425,258.37 C709.425,258.02 709.285,257.67 709.005,257.32 C708.725,257.04 708.375,256.865 708.025,256.865 C707.745,256.865 707.29,256.935 706.695,257.005 C706.1,257.075 705.645,257.11 705.365,257.11 C704.315,257.11 703.405,256.62 702.565,255.605 C706.065,253.715 707.815,251.475 707.815,248.885 C707.815,247.905 707.395,246.96 706.555,246.12 C705.715,245.28 704.875,244.86 704,244.86 C702.495,244.86 701.27,245.735 700.29,247.45 C699.45,248.92 699.03,250.495 699.03,252.175 C699.03,252.525 699.065,253.015 699.17,253.61 L698.365,253.61 C697.875,253.61 697.42,253.435 696.93,253.085 C696.44,252.735 696.09,252.56 695.88,252.56 C694.97,252.56 694.515,253.05 694.515,254.03 C694.515,254.8 695.075,255.43 696.265,255.92 C697.175,256.305 698.05,256.48 698.96,256.48 L700.01,256.48 C701.27,258.895 703.23,260.085 705.89,260.085 C708.235,260.085 709.425,259.49 709.425,258.37 L709.425,258.37 Z M705.05,249.025 C705.05,250.18 704,251.44 701.9,252.805 L701.9,252.175 C701.9,251.23 702.04,250.32 702.39,249.445 C702.74,248.395 703.23,247.87 703.86,247.87 C704.14,247.87 704.42,248.01 704.7,248.22 C704.91,248.5 705.05,248.745 705.05,249.025 L705.05,249.025 Z M723.985,247.555 C723.985,247.275 723.845,246.96 723.565,246.645 C723.285,246.365 722.97,246.225 722.69,246.225 C722.41,246.225 721.815,246.435 720.94,246.855 C719.47,247.555 717.615,248.885 715.445,250.775 C715.935,248.745 716.39,247.135 716.88,245.98 C717.16,245.245 717.3,244.79 717.3,244.65 C717.3,243.74 716.845,243.285 716.005,243.285 C715.445,243.285 715.025,243.6 714.745,244.23 C713.03,248.43 712.155,253.05 712.085,258.055 C712.015,258.23 712.015,258.405 712.015,258.58 C712.015,259 712.085,259.385 712.225,259.77 C712.435,260.4 712.925,260.75 713.625,260.75 C714.395,260.75 714.78,260.295 714.78,259.42 C714.78,259.35 714.745,259.14 714.745,258.79 C714.71,258.44 714.71,258.195 714.71,257.985 L714.71,256.69 C714.71,256.2 714.71,255.64 714.78,255.01 C715.025,254.87 715.165,254.8 715.2,254.765 C716.53,256.55 718.245,258.125 720.31,259.49 C720.94,259.945 721.43,260.19 721.78,260.19 C722.62,260.19 723.04,259.735 723.04,258.86 C723.04,258.51 722.725,258.02 722.165,257.46 C721.185,256.585 720.625,256.13 720.415,256.13 C720.345,256.13 720.24,256.165 720.17,256.165 C718.805,255.08 717.755,254.03 717.055,253.015 C718.735,251.44 720.135,250.32 721.29,249.69 C721.43,249.76 721.57,249.795 721.745,249.795 C722.2,249.795 722.69,249.55 723.18,249.06 C723.705,248.605 723.985,248.115 723.985,247.555 L723.985,247.555 Z M739.56,250.88 C739.56,250.565 739.385,250.215 739.105,249.865 C739.105,249.06 738.965,248.36 738.755,247.73 C738.79,247.59 738.825,247.415 738.825,247.24 C738.825,246.82 738.58,246.4 738.16,246.05 C737.705,245.7 737.25,245.49 736.795,245.49 C734.87,245.49 732.77,246.61 730.46,248.78 C728.045,251.02 726.855,253.19 726.855,255.22 C726.855,256.305 727.205,257.25 727.975,258.09 C728.71,258.965 729.585,259.385 730.6,259.385 C732.175,259.385 733.925,258.405 735.885,256.445 C736.06,259.105 736.655,260.47 737.67,260.47 C738.02,260.47 738.37,260.33 738.685,260.12 C738.965,259.84 739.14,259.49 739.14,259.14 C739.14,259.035 739.035,258.615 738.895,257.775 C738.72,256.97 738.65,256.34 738.65,255.92 C738.65,254.52 738.86,253.12 739.35,251.65 C739.49,251.265 739.56,251.02 739.56,250.88 L739.56,250.88 Z M736.375,249.865 C736.375,251.055 735.675,252.455 734.345,254.065 C733.015,255.675 731.79,256.445 730.74,256.445 C730.005,256.445 729.655,256.025 729.655,255.15 C729.655,254.03 730.53,252.63 732.315,250.915 C733.925,249.375 735.08,248.57 735.745,248.57 C736.165,248.57 736.375,249.025 736.375,249.865 L736.375,249.865 Z M758.425,260.435 C758.425,260.12 758.32,259.77 758.11,259.35 C757.9,258.93 757.655,258.65 757.41,258.44 C756.85,257.25 756.36,255.08 755.94,251.965 C755.66,250.355 755.45,248.57 755.24,246.68 C755.135,245.945 754.715,245.56 753.98,245.56 C753.315,245.56 752.44,246.995 751.355,249.865 C750.97,250.845 750.655,251.685 750.375,252.455 C749.43,251.055 748.59,248.955 747.82,246.085 C747.54,245.035 747.12,244.51 746.595,244.51 C745.93,244.51 745.335,245.315 744.81,246.89 C744.705,246.89 744.565,246.855 744.39,246.855 C744.145,246.855 743.935,246.96 743.795,247.135 C743.585,247.345 743.48,247.59 743.48,247.835 C743.48,247.905 743.48,248.115 743.515,248.465 C743.515,248.85 743.55,249.06 743.55,249.13 C743.55,249.76 743.48,250.635 743.34,251.825 C743.2,253.015 743.13,254.345 743.13,255.78 C743.13,258.125 743.585,259.28 744.53,259.28 C745.23,259.28 745.58,258.51 745.65,256.935 C745.755,253.855 746.035,251.3 746.455,249.27 C748.31,253.75 749.78,255.99 750.83,255.99 C751.18,255.99 751.425,255.85 751.635,255.5 C751.81,255.22 752.02,254.59 752.3,253.68 C752.755,252.14 753.14,250.915 753.455,250.075 C753.805,253.96 754.295,256.83 754.96,258.685 C755.695,260.82 756.465,261.905 757.235,261.905 C757.515,261.905 757.795,261.73 758.04,261.415 C758.285,261.065 758.425,260.75 758.425,260.435 L758.425,260.435 Z M774.805,258.37 C774.805,258.02 774.665,257.67 774.385,257.32 C774.105,257.04 773.755,256.865 773.405,256.865 C773.125,256.865 772.67,256.935 772.075,257.005 C771.48,257.075 771.025,257.11 770.745,257.11 C769.695,257.11 768.785,256.62 767.945,255.605 C771.445,253.715 773.195,251.475 773.195,248.885 C773.195,247.905 772.775,246.96 771.935,246.12 C771.095,245.28 770.255,244.86 769.38,244.86 C767.875,244.86 766.65,245.735 765.67,247.45 C764.83,248.92 764.41,250.495 764.41,252.175 C764.41,252.525 764.445,253.015 764.55,253.61 L763.745,253.61 C763.255,253.61 762.8,253.435 762.31,253.085 C761.82,252.735 761.47,252.56 761.26,252.56 C760.35,252.56 759.895,253.05 759.895,254.03 C759.895,254.8 760.455,255.43 761.645,255.92 C762.555,256.305 763.43,256.48 764.34,256.48 L765.39,256.48 C766.65,258.895 768.61,260.085 771.27,260.085 C773.615,260.085 774.805,259.49 774.805,258.37 L774.805,258.37 Z M770.43,249.025 C770.43,250.18 769.38,251.44 767.28,252.805 L767.28,252.175 C767.28,251.23 767.42,250.32 767.77,249.445 C768.12,248.395 768.61,247.87 769.24,247.87 C769.52,247.87 769.8,248.01 770.08,248.22 C770.29,248.5 770.43,248.745 770.43,249.025 L770.43,249.025 Z M789.05,246.05 C789.05,245.14 788.63,244.685 787.79,244.685 C787.09,244.685 786.635,245.315 786.46,246.505 C786.285,247.45 786.075,248.78 785.865,250.495 C784.325,250.88 782.82,251.16 781.35,251.3 C781.7,249.06 782.05,247.38 782.4,246.225 C782.61,245.595 782.785,245.105 782.96,244.685 C782.89,243.74 782.47,243.25 781.63,243.25 C781.035,243.25 780.65,243.53 780.44,244.09 C779.74,245.77 779.18,248.185 778.83,251.335 C778.27,251.335 777.885,251.3 777.675,251.265 C776.975,251.265 776.66,251.685 776.66,252.455 C776.66,253.33 777.15,253.75 778.165,253.75 L778.585,253.75 C778.48,255.08 778.375,256.585 778.305,258.335 C778.305,258.44 778.27,258.615 778.235,258.825 C778.165,259.035 778.165,259.175 778.165,259.315 C778.165,259.665 778.305,259.98 778.585,260.26 C778.865,260.54 779.18,260.68 779.53,260.68 C780.37,260.68 780.825,260.225 780.86,259.35 C780.86,258.16 780.965,256.27 781.14,253.68 C782.645,253.54 784.115,253.295 785.585,252.945 C785.41,254.8 785.305,256.27 785.305,257.32 C785.305,257.425 785.27,257.565 785.235,257.775 C785.165,257.95 785.13,258.09 785.13,258.195 C785.13,259.035 785.235,259.665 785.515,260.085 C785.795,260.54 786.11,260.785 786.53,260.785 C786.88,260.785 787.195,260.645 787.475,260.365 C787.72,260.085 787.86,259.735 787.86,259.35 C787.86,259.28 787.825,259.105 787.825,258.755 C787.79,258.405 787.79,258.125 787.79,257.985 C787.79,255.64 788.14,252.035 788.91,247.17 C788.98,246.54 789.05,246.19 789.05,246.05 L789.05,246.05 Z M804.275,246.05 C804.275,245.14 803.855,244.685 803.015,244.685 C802.315,244.685 801.86,245.315 801.685,246.505 C801.51,247.45 801.3,248.78 801.09,250.495 C799.55,250.88 798.045,251.16 796.575,251.3 C796.925,249.06 797.275,247.38 797.625,246.225 C797.835,245.595 798.01,245.105 798.185,244.685 C798.115,243.74 797.695,243.25 796.855,243.25 C796.26,243.25 795.875,243.53 795.665,244.09 C794.965,245.77 794.405,248.185 794.055,251.335 C793.495,251.335 793.11,251.3 792.9,251.265 C792.2,251.265 791.885,251.685 791.885,252.455 C791.885,253.33 792.375,253.75 793.39,253.75 L793.81,253.75 C793.705,255.08 793.6,256.585 793.53,258.335 C793.53,258.44 793.495,258.615 793.46,258.825 C793.39,259.035 793.39,259.175 793.39,259.315 C793.39,259.665 793.53,259.98 793.81,260.26 C794.09,260.54 794.405,260.68 794.755,260.68 C795.595,260.68 796.05,260.225 796.085,259.35 C796.085,258.16 796.19,256.27 796.365,253.68 C797.87,253.54 799.34,253.295 800.81,252.945 C800.635,254.8 800.53,256.27 800.53,257.32 C800.53,257.425 800.495,257.565 800.46,257.775 C800.39,257.95 800.355,258.09 800.355,258.195 C800.355,259.035 800.46,259.665 800.74,260.085 C801.02,260.54 801.335,260.785 801.755,260.785 C802.105,260.785 802.42,260.645 802.7,260.365 C802.945,260.085 803.085,259.735 803.085,259.35 C803.085,259.28 803.05,259.105 803.05,258.755 C803.015,258.405 803.015,258.125 803.015,257.985 C803.015,255.64 803.365,252.035 804.135,247.17 C804.205,246.54 804.275,246.19 804.275,246.05 L804.275,246.05 Z M818.94,251.3 C818.94,249.935 818.555,248.675 817.785,247.555 C816.98,246.47 815.965,245.7 814.74,245.28 C814.25,245.14 813.97,245.07 813.9,245.07 C813.62,245.07 813.305,245.245 812.885,245.525 C812.395,245.805 812.01,246.015 811.73,246.12 C810.54,246.715 809.56,247.765 808.86,249.235 C808.16,250.565 807.845,252 807.845,253.505 C807.845,255.29 808.3,256.76 809.28,257.915 C810.26,259.035 811.485,259.63 812.955,259.63 C814.635,259.63 816.07,258.86 817.225,257.25 C818.345,255.64 818.94,253.68 818.94,251.3 L818.94,251.3 Z M816.175,251.825 C816.175,253.015 815.825,254.1 815.195,255.115 C814.495,256.165 813.76,256.69 812.92,256.69 C812.22,256.69 811.66,256.375 811.24,255.71 C810.785,255.08 810.575,254.345 810.575,253.505 C810.575,252.385 810.82,251.335 811.38,250.355 C812.01,249.235 812.815,248.64 813.795,248.64 C814.145,248.85 814.6,248.955 815.16,248.955 C815.825,249.375 816.175,250.355 816.175,251.825 L816.175,251.825 Z M832.555,239.82 C832.555,239.365 832.31,238.945 831.855,238.56 C831.33,238.21 830.84,238.035 830.42,238.035 C830.175,238.035 830,238.105 829.895,238.245 C830.245,238.875 830.42,239.295 830.42,239.435 C830.42,239.855 830.175,240.345 829.755,240.905 C829.265,241.5 828.845,241.78 828.495,241.78 C828.285,241.78 828.145,241.535 828.005,241.045 L827.34,239.015 C826.99,238.315 826.43,237.965 825.66,237.965 C825.52,237.965 825.38,238.07 825.24,238.21 C825.065,238.42 824.995,238.56 824.995,238.63 C824.995,239.505 825.555,240.8 826.71,242.515 C827.27,243.355 827.865,243.775 828.53,243.775 C829.265,243.775 830.14,243.32 831.12,242.34 C832.065,241.43 832.555,240.59 832.555,239.82 L832.555,239.82 Z M835.53,259.21 C835.53,258.965 835.355,258.65 835.04,258.3 C834.27,257.46 833.92,255.325 833.92,251.895 C833.92,250.67 834.095,248.605 834.48,245.7 C834.48,245.315 834.305,244.965 834.025,244.615 C833.71,244.3 833.36,244.125 832.975,244.125 C832.38,244.125 831.12,245.42 829.23,248.01 C827.69,250.04 826.43,251.895 825.38,253.505 C825.625,250.775 825.8,248.78 825.905,247.59 C825.905,247.03 825.695,246.54 825.345,246.12 C824.995,245.735 824.54,245.525 823.98,245.525 C823.665,245.525 823.385,245.735 823.105,246.12 C823.175,247.135 823.245,247.73 823.245,247.87 C823.245,248.5 823.14,250.075 822.965,252.63 L822.895,253.645 C822.86,254.17 822.79,254.87 822.72,255.745 C822.615,256.585 822.545,257.11 822.545,257.32 C822.58,257.81 822.72,258.195 823,258.405 C823.56,258.965 823.91,259.21 824.05,259.21 C824.54,259.21 825.135,258.685 825.765,257.565 C827.06,255.395 827.97,253.855 828.53,253.015 C829.44,251.51 830.42,250.11 831.505,248.85 C831.505,249.2 831.47,249.935 831.47,251.02 C831.435,252.14 831.435,252.735 831.435,252.875 C831.435,254.695 831.61,256.235 831.995,257.565 C832.52,259.49 833.29,260.47 834.27,260.47 C834.48,260.47 834.76,260.295 835.075,260.015 C835.355,259.665 835.53,259.42 835.53,259.21 L835.53,259.21 Z M865.35,252.595 C865.35,250.67 864.86,249.095 863.95,247.87 C862.9,246.505 861.465,245.805 859.61,245.805 C857.93,245.805 856.075,246.68 854.115,248.395 C854.675,244.825 857.055,242.305 861.325,240.905 C862.55,240.485 863.18,239.89 863.18,239.05 C863.18,238.455 862.97,237.825 862.62,237.16 C862.2,236.53 861.745,236.18 861.255,236.18 C860.8,236.18 860.555,236.495 860.52,237.09 C860.45,237.79 860.415,238.14 860.38,238.21 C860.275,238.385 859.925,238.595 859.33,238.84 C853.8,241.08 851.07,245.245 851.07,251.37 C851.07,253.995 851.595,256.13 852.715,257.81 C853.94,259.56 855.655,260.47 857.86,260.47 C859.82,260.47 861.535,259.7 863.075,258.195 C864.58,256.655 865.35,254.8 865.35,252.595 L865.35,252.595 Z M862.83,251.79 C862.83,253.47 862.34,254.87 861.395,256.06 C860.415,257.25 859.19,257.845 857.79,257.845 C856.67,257.845 855.725,257.355 855.025,256.305 C854.325,255.255 853.975,253.96 853.975,252.385 C853.975,252.21 853.975,251.965 854.01,251.615 C854.885,251.51 855.375,251.125 855.48,250.495 C857.09,249.165 858.56,248.465 859.82,248.465 C860.59,248.465 861.29,248.815 861.92,249.445 C862.515,250.145 862.83,250.915 862.83,251.79 L862.83,251.79 Z M880.015,251.3 C880.015,249.935 879.63,248.675 878.86,247.555 C878.055,246.47 877.04,245.7 875.815,245.28 C875.325,245.14 875.045,245.07 874.975,245.07 C874.695,245.07 874.38,245.245 873.96,245.525 C873.47,245.805 873.085,246.015 872.805,246.12 C871.615,246.715 870.635,247.765 869.935,249.235 C869.235,250.565 868.92,252 868.92,253.505 C868.92,255.29 869.375,256.76 870.355,257.915 C871.335,259.035 872.56,259.63 874.03,259.63 C875.71,259.63 877.145,258.86 878.3,257.25 C879.42,255.64 880.015,253.68 880.015,251.3 L880.015,251.3 Z M877.25,251.825 C877.25,253.015 876.9,254.1 876.27,255.115 C875.57,256.165 874.835,256.69 873.995,256.69 C873.295,256.69 872.735,256.375 872.315,255.71 C871.86,255.08 871.65,254.345 871.65,253.505 C871.65,252.385 871.895,251.335 872.455,250.355 C873.085,249.235 873.89,248.64 874.87,248.64 C875.22,248.85 875.675,248.955 876.235,248.955 C876.9,249.375 877.25,250.355 877.25,251.825 L877.25,251.825 Z M897.76,246.61 C897.76,246.085 897.585,245.63 897.235,245.21 C896.92,244.825 896.535,244.615 896.045,244.615 C895.835,244.615 895.415,244.825 894.785,245.175 C894.155,245.56 892.615,245.875 890.13,246.155 C889.57,245.7 889.115,245.455 888.8,245.455 C888.415,245.455 887.995,245.665 887.575,246.085 C887.155,246.505 886.945,246.96 886.945,247.38 C886.945,247.66 887.085,248.01 887.365,248.395 C887.61,248.815 887.75,249.27 887.75,249.795 C887.75,251.965 887.575,253.75 887.225,255.22 C886.77,256.935 886.175,257.775 885.475,257.775 C885.195,257.775 884.985,257.355 884.915,256.445 C884.845,256.095 884.705,255.885 884.425,255.885 C883.935,255.885 883.585,256.13 883.34,256.55 C883.025,257.04 882.885,257.6 882.885,258.195 C882.885,258.86 883.13,259.35 883.655,259.735 C884.145,260.085 884.705,260.295 885.335,260.295 C887.155,260.295 888.45,259.105 889.22,256.795 C889.71,255.325 890.13,252.665 890.48,248.815 C891.355,248.605 892.685,248.325 894.505,248.01 C894.155,251.44 893.98,254.03 893.98,255.78 C893.98,258.09 894.12,259.525 894.435,260.12 C894.75,260.715 895.205,261.03 895.765,261.03 C896.675,261.03 897.13,260.47 897.13,259.42 C896.99,258.79 896.92,258.23 896.85,257.74 C896.675,256.55 896.605,255.535 896.605,254.66 C896.605,252.77 896.885,250.565 897.48,248.045 C897.655,247.205 897.76,246.75 897.76,246.61 L897.76,246.61 Z M915.225,258.37 C915.225,258.02 915.085,257.67 914.805,257.32 C914.525,257.04 914.175,256.865 913.825,256.865 C913.545,256.865 913.09,256.935 912.495,257.005 C911.9,257.075 911.445,257.11 911.165,257.11 C910.115,257.11 909.205,256.62 908.365,255.605 C911.865,253.715 913.615,251.475 913.615,248.885 C913.615,247.905 913.195,246.96 912.355,246.12 C911.515,245.28 910.675,244.86 909.8,244.86 C908.295,244.86 907.07,245.735 906.09,247.45 C905.25,248.92 904.83,250.495 904.83,252.175 C904.83,252.525 904.865,253.015 904.97,253.61 L904.165,253.61 C903.675,253.61 903.22,253.435 902.73,253.085 C902.24,252.735 901.89,252.56 901.68,252.56 C900.77,252.56 900.315,253.05 900.315,254.03 C900.315,254.8 900.875,255.43 902.065,255.92 C902.975,256.305 903.85,256.48 904.76,256.48 L905.81,256.48 C907.07,258.895 909.03,260.085 911.69,260.085 C914.035,260.085 915.225,259.49 915.225,258.37 L915.225,258.37 Z M910.85,249.025 C910.85,250.18 909.8,251.44 907.7,252.805 L907.7,252.175 C907.7,251.23 907.84,250.32 908.19,249.445 C908.54,248.395 909.03,247.87 909.66,247.87 C909.94,247.87 910.22,248.01 910.5,248.22 C910.71,248.5 910.85,248.745 910.85,249.025 L910.85,249.025 Z M928.805,254.94 C928.805,252.84 927.755,251.44 925.69,250.81 C927.195,249.97 927.965,248.92 927.965,247.625 C927.965,245.455 926.25,244.37 922.89,244.37 C919.985,244.37 918.55,245 918.55,246.26 C918.55,247.17 918.97,247.625 919.81,247.66 C920.02,247.625 920.545,247.45 921.385,247.1 C921.945,246.89 922.47,246.75 922.89,246.75 C924.5,246.75 925.305,247.135 925.305,247.905 C925.305,248.395 924.885,248.92 924.045,249.41 C923.275,249.83 922.4,250.145 921.385,250.355 C920.125,250.635 919.46,250.775 919.355,250.81 C918.935,250.985 918.76,251.335 918.76,251.825 C918.76,252.175 918.865,252.56 919.145,252.91 C919.39,253.295 919.705,253.47 920.055,253.47 C920.23,253.47 920.475,253.4 920.79,253.19 C921.42,252.84 922.155,252.63 922.96,252.63 C923.765,252.63 924.465,252.77 925.095,253.05 C925.865,253.4 926.25,253.925 926.25,254.625 C926.25,255.465 925.585,256.305 924.325,257.11 C923.135,257.915 922.12,258.3 921.28,258.3 C920.3,258.3 919.845,258.16 919.845,257.88 C919.845,257.74 919.88,257.53 919.985,257.32 C920.055,257.075 920.09,256.9 920.09,256.83 C920.09,256.2 919.67,255.885 918.865,255.885 C918.585,255.885 918.27,256.13 917.955,256.55 C917.605,257.04 917.465,257.46 917.465,257.81 C917.465,258.3 917.64,258.825 918.06,259.385 C918.69,260.295 919.845,260.75 921.49,260.75 C923.1,260.75 924.71,260.155 926.285,259.035 C927.965,257.845 928.805,256.48 928.805,254.94 L928.805,254.94 Z M943.68,246.05 C943.68,245.14 943.26,244.685 942.42,244.685 C941.72,244.685 941.265,245.315 941.09,246.505 C940.915,247.45 940.705,248.78 940.495,250.495 C938.955,250.88 937.45,251.16 935.98,251.3 C936.33,249.06 936.68,247.38 937.03,246.225 C937.24,245.595 937.415,245.105 937.59,244.685 C937.52,243.74 937.1,243.25 936.26,243.25 C935.665,243.25 935.28,243.53 935.07,244.09 C934.37,245.77 933.81,248.185 933.46,251.335 C932.9,251.335 932.515,251.3 932.305,251.265 C931.605,251.265 931.29,251.685 931.29,252.455 C931.29,253.33 931.78,253.75 932.795,253.75 L933.215,253.75 C933.11,255.08 933.005,256.585 932.935,258.335 C932.935,258.44 932.9,258.615 932.865,258.825 C932.795,259.035 932.795,259.175 932.795,259.315 C932.795,259.665 932.935,259.98 933.215,260.26 C933.495,260.54 933.81,260.68 934.16,260.68 C935,260.68 935.455,260.225 935.49,259.35 C935.49,258.16 935.595,256.27 935.77,253.68 C937.275,253.54 938.745,253.295 940.215,252.945 C940.04,254.8 939.935,256.27 939.935,257.32 C939.935,257.425 939.9,257.565 939.865,257.775 C939.795,257.95 939.76,258.09 939.76,258.195 C939.76,259.035 939.865,259.665 940.145,260.085 C940.425,260.54 940.74,260.785 941.16,260.785 C941.51,260.785 941.825,260.645 942.105,260.365 C942.35,260.085 942.49,259.735 942.49,259.35 C942.49,259.28 942.455,259.105 942.455,258.755 C942.42,258.405 942.42,258.125 942.42,257.985 C942.42,255.64 942.77,252.035 943.54,247.17 C943.61,246.54 943.68,246.19 943.68,246.05 L943.68,246.05 Z M960.235,259.21 C960.235,258.965 960.06,258.65 959.745,258.3 C958.975,257.46 958.625,255.325 958.625,251.895 C958.625,250.67 958.8,248.605 959.185,245.7 C959.185,245.315 959.01,244.965 958.73,244.615 C958.415,244.3 958.065,244.125 957.68,244.125 C957.085,244.125 955.825,245.42 953.935,248.01 C952.395,250.04 951.135,251.895 950.085,253.505 C950.33,250.775 950.505,248.78 950.61,247.59 C950.61,247.03 950.4,246.54 950.05,246.12 C949.7,245.735 949.245,245.525 948.685,245.525 C948.37,245.525 948.09,245.735 947.81,246.12 C947.88,247.135 947.95,247.73 947.95,247.87 C947.95,248.5 947.845,250.075 947.67,252.63 L947.6,253.645 C947.565,254.17 947.495,254.87 947.425,255.745 C947.32,256.585 947.25,257.11 947.25,257.32 C947.285,257.81 947.425,258.195 947.705,258.405 C948.265,258.965 948.615,259.21 948.755,259.21 C949.245,259.21 949.84,258.685 950.47,257.565 C951.765,255.395 952.675,253.855 953.235,253.015 C954.145,251.51 955.125,250.11 956.21,248.85 C956.21,249.2 956.175,249.935 956.175,251.02 C956.14,252.14 956.14,252.735 956.14,252.875 C956.14,254.695 956.315,256.235 956.7,257.565 C957.225,259.49 957.995,260.47 958.975,260.47 C959.185,260.47 959.465,260.295 959.78,260.015 C960.06,259.665 960.235,259.42 960.235,259.21 L960.235,259.21 Z" id="при-лечении-мочекаме"></path>
        </g>
    </g>
</svg>