<?xml version="1.0" encoding="UTF-8"?>
<svg width="274px" height="62px" viewBox="0 0 274 62" version="1.1" xmlns="http://www.w3.org/2000/svg" xmlns:xlink="http://www.w3.org/1999/xlink">
    <!-- Generator: Sketch 40.3 (33839) - http://www.bohemiancoding.com/sketch -->
    <title>Не запускай это дело</title>
    <desc>Created with Sketch.</desc>
    <defs></defs>
    <g id="Page-1" stroke="none" stroke-width="1" fill="none" fill-rule="evenodd">
        <g id="Cictitis_page" transform="translate(-1363.000000, -523.000000)" fill="#354777">
            <path d="M1375.14193,523.98 C1375.14193,523.78 1375.06193,523.58 1374.90193,523.4 C1374.74193,523.24 1374.54193,523.14 1374.34193,523.14 C1373.96193,523.14 1373.72193,523.36 1373.62193,523.78 C1373.48193,524.38 1373.38193,524.84 1373.34193,525.16 C1373.14193,526.12 1372.94193,527.44 1372.74193,529.12 C1371.18193,529.68 1369.34193,530 1367.22193,530.12 C1367.38193,528.7 1367.62193,527.34 1367.94193,526.06 C1368.14193,525.14 1368.30193,524.54 1368.42193,524.24 C1368.76193,523.2 1368.94193,522.6 1368.94193,522.46 C1368.94193,521.92 1368.66193,521.64 1368.14193,521.64 C1367.82193,521.64 1367.58193,521.82 1367.40193,522.16 C1367.34193,522.26 1367.22193,522.56 1367.06193,523.08 C1366.38193,525 1365.88193,527.38 1365.58193,530.22 C1365.42193,530.22 1365.12193,530.2 1364.70193,530.16 C1364.28193,530.14 1364.04193,530.12 1363.98193,530.12 C1363.78193,530.12 1363.62193,530.22 1363.50193,530.38 C1363.36193,530.56 1363.30193,530.74 1363.30193,530.94 C1363.30193,531.54 1363.74193,531.82 1364.66193,531.82 L1365.08193,531.82 C1365.24193,531.82 1365.38193,531.8 1365.46193,531.8 C1365.22193,534.48 1365.12193,536.62 1365.12193,538.22 C1365.12193,538.46 1365.18193,538.66 1365.34193,538.86 C1365.48193,539.06 1365.66193,539.16 1365.88193,539.16 C1366.10193,539.16 1366.30193,539.04 1366.48193,538.84 C1366.64193,538.62 1366.72193,538.36 1366.74193,538.08 C1366.86193,535.44 1366.98193,533.34 1367.10193,531.76 C1369.10193,531.6 1370.90193,531.3 1372.54193,530.9 C1372.26193,533.82 1372.14193,536.04 1372.14193,537.58 C1372.14193,538.66 1372.44193,539.22 1373.06193,539.22 C1373.26193,539.22 1373.46193,539.14 1373.62193,538.98 C1373.78193,538.8 1373.86193,538.6 1373.86193,538.38 C1373.86193,538.3 1373.84193,538.08 1373.84193,537.7 C1373.82193,537.32 1373.82193,537.04 1373.82193,536.84 C1373.82193,533.58 1374.20193,529.62 1374.98193,524.98 L1375.14193,523.98 Z M1385.14193,537.64 C1385.14193,537.44 1385.06193,537.24 1384.90193,537.04 C1384.74193,536.88 1384.54193,536.78 1384.34193,536.78 C1384.18193,536.78 1383.92193,536.82 1383.58193,536.86 C1383.24193,536.9 1382.98193,536.92 1382.82193,536.92 C1382.22193,536.92 1381.70193,536.64 1381.22193,536.06 C1383.22193,534.98 1384.22193,533.7 1384.22193,532.22 C1384.22193,531.66 1383.98193,531.12 1383.50193,530.64 C1383.02193,530.16 1382.54193,529.92 1382.04193,529.92 C1381.18193,529.92 1380.48193,530.42 1379.92193,531.4 C1379.44193,532.24 1379.20193,533.14 1379.20193,534.1 C1379.20193,534.3 1379.22193,534.58 1379.28193,534.92 L1378.82193,534.92 C1378.54193,534.92 1378.28193,534.82 1378.00193,534.62 C1377.72193,534.42 1377.52193,534.32 1377.40193,534.32 C1376.88193,534.32 1376.62193,534.6 1376.62193,535.16 C1376.62193,535.6 1376.94193,535.96 1377.62193,536.24 C1378.14193,536.46 1378.64193,536.56 1379.16193,536.56 L1379.76193,536.56 C1380.48193,537.94 1381.60193,538.62 1383.12193,538.62 C1384.46193,538.62 1385.14193,538.28 1385.14193,537.64 L1385.14193,537.64 Z M1382.64193,532.3 C1382.64193,532.96 1382.04193,533.68 1380.84193,534.46 L1380.84193,534.1 C1380.84193,533.56 1380.92193,533.04 1381.12193,532.54 C1381.32193,531.94 1381.60193,531.64 1381.96193,531.64 C1382.12193,531.64 1382.28193,531.72 1382.44193,531.84 C1382.56193,532 1382.64193,532.14 1382.64193,532.3 L1382.64193,532.3 Z M1399.74193,535.68 C1399.74193,534.48 1399.14193,533.68 1397.96193,533.32 C1398.82193,532.84 1399.26193,532.24 1399.26193,531.5 C1399.26193,530.26 1398.28193,529.64 1396.36193,529.64 C1394.70193,529.64 1393.88193,530 1393.88193,530.72 C1393.88193,531.24 1394.12193,531.5 1394.60193,531.52 C1394.72193,531.5 1395.02193,531.4 1395.50193,531.2 C1395.82193,531.08 1396.12193,531 1396.36193,531 C1397.28193,531 1397.74193,531.22 1397.74193,531.66 C1397.74193,531.94 1397.50193,532.24 1397.02193,532.52 C1396.58193,532.76 1396.08193,532.94 1395.50193,533.06 C1394.78193,533.22 1394.40193,533.3 1394.34193,533.32 C1394.10193,533.42 1394.00193,533.62 1394.00193,533.9 C1394.00193,534.1 1394.06193,534.32 1394.22193,534.52 C1394.36193,534.74 1394.54193,534.84 1394.74193,534.84 C1394.84193,534.84 1394.98193,534.8 1395.16193,534.68 C1395.52193,534.48 1395.94193,534.36 1396.40193,534.36 C1396.86193,534.36 1397.26193,534.44 1397.62193,534.6 C1398.06193,534.8 1398.28193,535.1 1398.28193,535.5 C1398.28193,535.98 1397.90193,536.46 1397.18193,536.92 C1396.50193,537.38 1395.92193,537.6 1395.44193,537.6 C1394.88193,537.6 1394.62193,537.52 1394.62193,537.36 C1394.62193,537.28 1394.64193,537.16 1394.70193,537.04 C1394.74193,536.9 1394.76193,536.8 1394.76193,536.76 C1394.76193,536.4 1394.52193,536.22 1394.06193,536.22 C1393.90193,536.22 1393.72193,536.36 1393.54193,536.6 C1393.34193,536.88 1393.26193,537.12 1393.26193,537.32 C1393.26193,537.6 1393.36193,537.9 1393.60193,538.22 C1393.96193,538.74 1394.62193,539 1395.56193,539 C1396.48193,539 1397.40193,538.66 1398.30193,538.02 C1399.26193,537.34 1399.74193,536.56 1399.74193,535.68 L1399.74193,535.68 Z M1408.84193,533.36 C1408.84193,533.18 1408.74193,532.98 1408.58193,532.78 C1408.58193,532.32 1408.50193,531.92 1408.38193,531.56 C1408.40193,531.48 1408.42193,531.38 1408.42193,531.28 C1408.42193,531.04 1408.28193,530.8 1408.04193,530.6 C1407.78193,530.4 1407.52193,530.28 1407.26193,530.28 C1406.16193,530.28 1404.96193,530.92 1403.64193,532.16 C1402.26193,533.44 1401.58193,534.68 1401.58193,535.84 C1401.58193,536.46 1401.78193,537 1402.22193,537.48 C1402.64193,537.98 1403.14193,538.22 1403.72193,538.22 C1404.62193,538.22 1405.62193,537.66 1406.74193,536.54 C1406.84193,538.06 1407.18193,538.84 1407.76193,538.84 C1407.96193,538.84 1408.16193,538.76 1408.34193,538.64 C1408.50193,538.48 1408.60193,538.28 1408.60193,538.08 C1408.60193,538.02 1408.54193,537.78 1408.46193,537.3 C1408.36193,536.84 1408.32193,536.48 1408.32193,536.24 C1408.32193,535.44 1408.44193,534.64 1408.72193,533.8 C1408.80193,533.58 1408.84193,533.44 1408.84193,533.36 L1408.84193,533.36 Z M1407.02193,532.78 C1407.02193,533.46 1406.62193,534.26 1405.86193,535.18 C1405.10193,536.1 1404.40193,536.54 1403.80193,536.54 C1403.38193,536.54 1403.18193,536.3 1403.18193,535.8 C1403.18193,535.16 1403.68193,534.36 1404.70193,533.38 C1405.62193,532.5 1406.28193,532.04 1406.66193,532.04 C1406.90193,532.04 1407.02193,532.3 1407.02193,532.78 L1407.02193,532.78 Z M1417.94193,530.52 C1417.94193,530.3 1417.84193,530.1 1417.64193,529.94 C1417.42193,529.8 1417.20193,529.72 1416.98193,529.68 C1414.94193,529.84 1413.32193,529.98 1412.16193,530.06 C1411.46193,530.12 1411.12193,530.36 1411.12193,530.8 C1411.12193,531.08 1411.16193,531.32 1411.28193,531.54 C1411.14193,533.6 1411.08193,534.64 1411.08193,534.68 C1410.94193,536.12 1410.88193,536.84 1410.88193,536.84 C1410.88193,537.1 1410.96193,537.36 1411.14193,537.62 C1411.32193,537.88 1411.52193,538 1411.76193,538 C1412.16193,538 1412.36193,537.74 1412.40193,537.2 C1412.52193,535.04 1412.64193,533.18 1412.80193,531.62 C1413.82193,531.48 1414.88193,531.38 1415.98193,531.34 C1415.98193,531.4 1415.94193,532.38 1415.88193,534.26 C1415.80193,535.94 1415.78193,536.84 1415.78193,536.96 C1415.78193,538.26 1416.12193,538.92 1416.84193,538.92 C1417.22193,538.92 1417.42193,538.7 1417.42193,538.3 C1417.30193,537.7 1417.26193,537.14 1417.26193,536.66 C1417.26193,536.02 1417.30193,535 1417.38193,533.6 C1417.40193,533.38 1417.44193,533.06 1417.50193,532.62 C1417.54193,532.26 1417.56193,532.06 1417.56193,531.98 C1417.56193,531.86 1417.52193,531.68 1417.48193,531.44 C1417.78193,531.12 1417.94193,530.82 1417.94193,530.52 L1417.94193,530.52 Z M1427.28193,534.72 L1427.28193,533.38 C1427.28193,531.98 1426.96193,531.26 1426.34193,531.26 C1426.02193,531.26 1425.72193,531.54 1425.42193,532.06 C1424.80193,533.16 1424.32193,533.94 1423.96193,534.38 C1423.48193,534.98 1423.02193,535.28 1422.58193,535.28 C1422.26193,535.28 1422.12193,535.1 1422.12193,534.74 C1422.12193,534.42 1422.18193,533.8 1422.30193,532.88 C1422.42193,531.96 1422.50193,531.4 1422.50193,531.22 C1422.50193,530.74 1422.42193,530.3 1422.26193,529.94 C1422.08193,529.5 1421.82193,529.28 1421.50193,529.28 C1420.90193,529.28 1420.62193,529.54 1420.62193,530.04 C1420.62193,530.16 1420.64193,530.32 1420.72193,530.56 C1420.78193,530.8 1420.82193,530.96 1420.82193,531.08 C1420.82193,531.48 1420.76193,532.08 1420.66193,532.92 C1420.56193,533.76 1420.52193,534.4 1420.52193,534.8 C1420.52193,535.46 1420.70193,536 1421.08193,536.42 C1421.44193,536.86 1421.92193,537.06 1422.56193,537.06 C1423.58193,537.06 1424.62193,536.32 1425.68193,534.84 C1425.68193,535.52 1425.62193,536.16 1425.52193,536.78 C1425.04193,539.44 1423.28193,540.78 1420.22193,540.82 C1419.74193,540.76 1419.38193,540.72 1419.14193,540.7 C1418.64193,540.72 1418.38193,540.98 1418.38193,541.5 C1418.38193,542.22 1419.00193,542.6 1420.24193,542.6 C1422.20193,542.6 1423.78193,542.06 1425.02193,541.02 C1426.52193,539.74 1427.28193,537.66 1427.28193,534.72 L1427.28193,534.72 Z M1435.50193,536.16 C1435.50193,535.96 1435.42193,535.76 1435.26193,535.56 C1435.10193,535.4 1434.92193,535.3 1434.72193,535.3 C1434.56193,535.3 1434.32193,535.44 1434.04193,535.7 C1433.80193,535.9 1433.56193,536.1 1433.36193,536.3 C1433.02193,536.56 1432.60193,536.68 1432.10193,536.68 C1431.30193,536.68 1430.92193,536.2 1430.92193,535.2 C1430.92193,534.58 1431.10193,533.96 1431.46193,533.36 C1431.82193,532.76 1432.26193,532.26 1432.80193,531.9 C1433.04193,532.04 1433.40193,532.1 1433.90193,532.1 C1434.16193,532.1 1434.42193,532 1434.68193,531.76 C1434.90193,531.52 1435.02193,531.3 1435.02193,531.06 C1435.02193,530.74 1434.90193,530.5 1434.66193,530.3 C1434.40193,530.12 1434.12193,530.02 1433.82193,530.02 C1432.56193,530.02 1431.44193,530.68 1430.48193,531.98 C1429.70193,533.02 1429.32193,534.16 1429.32193,535.4 C1429.32193,536.28 1429.60193,536.98 1430.16193,537.54 C1430.72193,538.08 1431.42193,538.36 1432.26193,538.36 C1433.02193,538.36 1433.80193,538.06 1434.56193,537.46 C1435.18193,536.98 1435.50193,536.56 1435.50193,536.16 L1435.50193,536.16 Z M1444.18193,531.46 C1444.18193,531.3 1444.10193,531.12 1443.94193,530.94 C1443.78193,530.78 1443.60193,530.7 1443.44193,530.7 C1443.28193,530.7 1442.94193,530.82 1442.44193,531.06 C1441.60193,531.46 1440.54193,532.22 1439.30193,533.3 C1439.58193,532.14 1439.84193,531.22 1440.12193,530.56 C1440.28193,530.14 1440.36193,529.88 1440.36193,529.8 C1440.36193,529.28 1440.10193,529.02 1439.62193,529.02 C1439.30193,529.02 1439.06193,529.2 1438.90193,529.56 C1437.92193,531.96 1437.42193,534.6 1437.38193,537.46 C1437.34193,537.56 1437.34193,537.66 1437.34193,537.76 C1437.34193,538 1437.38193,538.22 1437.46193,538.44 C1437.58193,538.8 1437.86193,539 1438.26193,539 C1438.70193,539 1438.92193,538.74 1438.92193,538.24 C1438.92193,538.2 1438.90193,538.08 1438.90193,537.88 C1438.88193,537.68 1438.88193,537.54 1438.88193,537.42 L1438.88193,536.68 C1438.88193,536.4 1438.88193,536.08 1438.92193,535.72 C1439.06193,535.64 1439.14193,535.6 1439.16193,535.58 C1439.92193,536.6 1440.90193,537.5 1442.08193,538.28 C1442.44193,538.54 1442.72193,538.68 1442.92193,538.68 C1443.40193,538.68 1443.64193,538.42 1443.64193,537.92 C1443.64193,537.72 1443.46193,537.44 1443.14193,537.12 C1442.58193,536.62 1442.26193,536.36 1442.14193,536.36 C1442.10193,536.36 1442.04193,536.38 1442.00193,536.38 C1441.22193,535.76 1440.62193,535.16 1440.22193,534.58 C1441.18193,533.68 1441.98193,533.04 1442.64193,532.68 C1442.72193,532.72 1442.80193,532.74 1442.90193,532.74 C1443.16193,532.74 1443.44193,532.6 1443.72193,532.32 C1444.02193,532.06 1444.18193,531.78 1444.18193,531.46 L1444.18193,531.46 Z M1453.08193,533.36 C1453.08193,533.18 1452.98193,532.98 1452.82193,532.78 C1452.82193,532.32 1452.74193,531.92 1452.62193,531.56 C1452.64193,531.48 1452.66193,531.38 1452.66193,531.28 C1452.66193,531.04 1452.52193,530.8 1452.28193,530.6 C1452.02193,530.4 1451.76193,530.28 1451.50193,530.28 C1450.40193,530.28 1449.20193,530.92 1447.88193,532.16 C1446.50193,533.44 1445.82193,534.68 1445.82193,535.84 C1445.82193,536.46 1446.02193,537 1446.46193,537.48 C1446.88193,537.98 1447.38193,538.22 1447.96193,538.22 C1448.86193,538.22 1449.86193,537.66 1450.98193,536.54 C1451.08193,538.06 1451.42193,538.84 1452.00193,538.84 C1452.20193,538.84 1452.40193,538.76 1452.58193,538.64 C1452.74193,538.48 1452.84193,538.28 1452.84193,538.08 C1452.84193,538.02 1452.78193,537.78 1452.70193,537.3 C1452.60193,536.84 1452.56193,536.48 1452.56193,536.24 C1452.56193,535.44 1452.68193,534.64 1452.96193,533.8 C1453.04193,533.58 1453.08193,533.44 1453.08193,533.36 L1453.08193,533.36 Z M1451.26193,532.78 C1451.26193,533.46 1450.86193,534.26 1450.10193,535.18 C1449.34193,536.1 1448.64193,536.54 1448.04193,536.54 C1447.62193,536.54 1447.42193,536.3 1447.42193,535.8 C1447.42193,535.16 1447.92193,534.36 1448.94193,533.38 C1449.86193,532.5 1450.52193,532.04 1450.90193,532.04 C1451.14193,532.04 1451.26193,532.3 1451.26193,532.78 L1451.26193,532.78 Z M1460.84193,527.04 C1460.84193,526.78 1460.70193,526.54 1460.44193,526.32 C1460.14193,526.12 1459.86193,526.02 1459.62193,526.02 C1459.48193,526.02 1459.38193,526.06 1459.32193,526.14 C1459.52193,526.5 1459.62193,526.74 1459.62193,526.82 C1459.62193,527.06 1459.48193,527.34 1459.24193,527.66 C1458.96193,528 1458.72193,528.16 1458.52193,528.16 C1458.40193,528.16 1458.32193,528.02 1458.24193,527.74 L1457.86193,526.58 C1457.66193,526.18 1457.34193,525.98 1456.90193,525.98 C1456.82193,525.98 1456.74193,526.04 1456.66193,526.12 C1456.56193,526.24 1456.52193,526.32 1456.52193,526.36 C1456.52193,526.86 1456.84193,527.6 1457.50193,528.58 C1457.82193,529.06 1458.16193,529.3 1458.54193,529.3 C1458.96193,529.3 1459.46193,529.04 1460.02193,528.48 C1460.56193,527.96 1460.84193,527.48 1460.84193,527.04 L1460.84193,527.04 Z M1462.54193,538.12 C1462.54193,537.98 1462.44193,537.8 1462.26193,537.6 C1461.82193,537.12 1461.62193,535.9 1461.62193,533.94 C1461.62193,533.24 1461.72193,532.06 1461.94193,530.4 C1461.94193,530.18 1461.84193,529.98 1461.68193,529.78 C1461.50193,529.6 1461.30193,529.5 1461.08193,529.5 C1460.74193,529.5 1460.02193,530.24 1458.94193,531.72 C1458.06193,532.88 1457.34193,533.94 1456.74193,534.86 C1456.88193,533.3 1456.98193,532.16 1457.04193,531.48 C1457.04193,531.16 1456.92193,530.88 1456.72193,530.64 C1456.52193,530.42 1456.26193,530.3 1455.94193,530.3 C1455.76193,530.3 1455.60193,530.42 1455.44193,530.64 C1455.48193,531.22 1455.52193,531.56 1455.52193,531.64 C1455.52193,532 1455.46193,532.9 1455.36193,534.36 L1455.32193,534.94 C1455.30193,535.24 1455.26193,535.64 1455.22193,536.14 C1455.16193,536.62 1455.12193,536.92 1455.12193,537.04 C1455.14193,537.32 1455.22193,537.54 1455.38193,537.66 C1455.70193,537.98 1455.90193,538.12 1455.98193,538.12 C1456.26193,538.12 1456.60193,537.82 1456.96193,537.18 C1457.70193,535.94 1458.22193,535.06 1458.54193,534.58 C1459.06193,533.72 1459.62193,532.92 1460.24193,532.2 C1460.24193,532.4 1460.22193,532.82 1460.22193,533.44 C1460.20193,534.08 1460.20193,534.42 1460.20193,534.5 C1460.20193,535.54 1460.30193,536.42 1460.52193,537.18 C1460.82193,538.28 1461.26193,538.84 1461.82193,538.84 C1461.94193,538.84 1462.10193,538.74 1462.28193,538.58 C1462.44193,538.38 1462.54193,538.24 1462.54193,538.12 L1462.54193,538.12 Z M1478.12193,532.92 C1478.12193,531.92 1477.86193,531.12 1477.38193,530.48 C1476.82193,529.8 1476.04193,529.46 1475.06193,529.46 C1474.26193,529.46 1473.50193,529.68 1472.78193,530.08 C1472.20193,530.42 1471.92193,530.82 1471.92193,531.26 C1471.92193,531.46 1471.98193,531.64 1472.14193,531.76 C1472.28193,531.92 1472.44193,531.98 1472.64193,531.98 C1472.74193,531.98 1473.00193,531.82 1473.40193,531.5 C1473.98193,531.04 1474.50193,530.8 1474.94193,530.8 C1475.86193,530.8 1476.38193,531.46 1476.50193,532.76 C1474.38193,533.3 1473.18193,533.58 1472.90193,533.6 C1472.72193,533.58 1472.58193,533.56 1472.50193,533.52 C1472.18193,533.72 1472.04193,533.98 1472.04193,534.3 C1472.04193,534.5 1472.12193,534.68 1472.28193,534.84 C1472.46193,535 1472.66193,535.08 1472.86193,535.08 C1473.12193,535.08 1473.54193,535 1474.12193,534.84 C1474.80193,534.64 1475.58193,534.44 1476.44193,534.26 C1476.28193,535.16 1475.92193,535.9 1475.38193,536.48 C1474.84193,537.08 1474.20193,537.36 1473.46193,537.36 C1473.14193,537.36 1472.68193,537.22 1472.10193,536.94 C1471.50193,536.94 1471.22193,537.24 1471.22193,537.84 C1471.22193,538.14 1471.46193,538.42 1471.98193,538.66 C1472.38193,538.84 1472.76193,538.94 1473.12193,538.94 C1474.74193,538.94 1476.00193,538.3 1476.92193,537.06 C1477.72193,535.96 1478.12193,534.58 1478.12193,532.92 L1478.12193,532.92 Z M1488.00193,529.68 C1488.00193,529.48 1487.92193,529.28 1487.78193,529.1 C1487.64193,528.94 1487.48193,528.84 1487.30193,528.84 C1487.00193,528.84 1486.58193,528.92 1486.02193,529.04 C1483.82193,529.56 1481.86193,530.02 1480.18193,530.42 C1480.06193,530.46 1479.98193,530.46 1479.94193,530.46 C1479.54193,530.54 1479.34193,530.84 1479.34193,531.34 C1479.34193,531.9 1479.56193,532.16 1480.04193,532.16 C1480.62193,532.04 1481.08193,531.94 1481.40193,531.84 C1481.98193,531.72 1482.48193,531.6 1482.90193,531.52 C1482.82193,533.06 1482.78193,534.54 1482.78193,535.94 C1482.78193,537.3 1482.86193,538.24 1483.02193,538.76 C1483.14193,539.12 1483.38193,539.3 1483.78193,539.3 C1484.30193,539.3 1484.56193,538.82 1484.56193,537.88 C1484.56193,537.42 1484.46193,537.08 1484.30193,536.86 C1484.26193,536.36 1484.24193,535.58 1484.24193,534.5 C1484.24193,533.66 1484.30193,532.52 1484.46193,531.1 C1485.04193,530.96 1485.44193,530.86 1485.68193,530.82 C1485.86193,530.94 1486.00193,530.98 1486.10193,530.98 C1486.22193,530.98 1486.36193,530.96 1486.54193,530.88 L1487.46193,530.46 C1487.82193,530.3 1488.00193,530.04 1488.00193,529.68 L1488.00193,529.68 Z M1495.56193,533.6 C1495.56193,532.82 1495.34193,532.1 1494.90193,531.46 C1494.44193,530.84 1493.86193,530.4 1493.16193,530.16 C1492.88193,530.08 1492.72193,530.04 1492.68193,530.04 C1492.52193,530.04 1492.34193,530.14 1492.10193,530.3 C1491.82193,530.46 1491.60193,530.58 1491.44193,530.64 C1490.76193,530.98 1490.20193,531.58 1489.80193,532.42 C1489.40193,533.18 1489.22193,534 1489.22193,534.86 C1489.22193,535.88 1489.48193,536.72 1490.04193,537.38 C1490.60193,538.02 1491.30193,538.36 1492.14193,538.36 C1493.10193,538.36 1493.92193,537.92 1494.58193,537 C1495.22193,536.08 1495.56193,534.96 1495.56193,533.6 L1495.56193,533.6 Z M1493.98193,533.9 C1493.98193,534.58 1493.78193,535.2 1493.42193,535.78 C1493.02193,536.38 1492.60193,536.68 1492.12193,536.68 C1491.72193,536.68 1491.40193,536.5 1491.16193,536.12 C1490.90193,535.76 1490.78193,535.34 1490.78193,534.86 C1490.78193,534.22 1490.92193,533.62 1491.24193,533.06 C1491.60193,532.42 1492.06193,532.08 1492.62193,532.08 C1492.82193,532.2 1493.08193,532.26 1493.40193,532.26 C1493.78193,532.5 1493.98193,533.06 1493.98193,533.9 L1493.98193,533.9 Z M1513.08193,538.04 C1513.08193,537.98 1513.04193,537.88 1512.96193,537.76 C1512.72193,537.32 1512.44193,537.1 1512.16193,537.1 C1512.12193,537.1 1512.06193,537.12 1511.96193,537.12 C1512.06193,534.64 1512.14193,532.84 1512.22193,531.7 C1512.26193,531.12 1512.38193,530.54 1512.60193,529.94 C1512.60193,529.74 1512.48193,529.52 1512.28193,529.32 C1512.08193,529.12 1511.88193,529.02 1511.68193,529.02 C1511.16193,529.02 1510.54193,529.14 1509.80193,529.34 C1508.92193,529.6 1508.34193,529.8 1508.06193,529.92 C1507.62193,530.16 1507.42193,530.46 1507.42193,530.8 C1507.42193,530.9 1507.46193,531.04 1507.56193,531.24 C1507.62193,531.44 1507.66193,531.58 1507.66193,531.66 C1507.66193,532.54 1507.44193,533.54 1507.00193,534.7 C1506.52193,535.92 1505.98193,536.88 1505.34193,537.58 C1504.72193,537.62 1504.40193,537.9 1504.36193,538.42 C1504.28193,539.2 1504.26193,539.88 1504.26193,540.44 C1504.26193,540.62 1504.34193,540.8 1504.50193,540.96 C1504.66193,541.12 1504.88193,541.22 1505.12193,541.22 C1505.58193,541.22 1505.82193,540.98 1505.82193,540.52 C1505.82193,540.44 1505.80193,540.34 1505.78193,540.2 C1505.74193,540.06 1505.74193,539.96 1505.74193,539.92 C1505.74193,539.84 1505.74193,539.76 1505.76193,539.64 L1505.76193,539.34 C1505.76193,539.18 1505.90193,539.08 1506.22193,539.06 C1507.40193,538.92 1508.48193,538.82 1509.44193,538.76 C1510.14193,538.7 1510.64193,538.68 1510.92193,538.68 C1511.16193,538.68 1511.30193,538.78 1511.30193,538.98 C1511.30193,539.04 1511.30193,539.26 1511.32193,539.66 L1511.32193,540.36 C1511.32193,540.92 1511.52193,541.22 1511.96193,541.22 C1512.12193,541.22 1512.32193,541.16 1512.54193,541.06 C1512.72193,540.94 1512.82193,540.78 1512.82193,540.62 C1512.82193,540.48 1512.80193,540.3 1512.78193,540.06 C1512.74193,539.82 1512.72193,539.62 1512.72193,539.5 C1512.72193,539.18 1512.74193,538.9 1512.82193,538.68 C1512.82193,538.64 1512.86193,538.54 1512.94193,538.38 C1513.02193,538.2 1513.08193,538.08 1513.08193,538.04 L1513.08193,538.04 Z M1510.74193,530.72 C1510.74193,533.44 1510.62193,535.64 1510.38193,537.3 C1508.82193,537.4 1507.76193,537.48 1507.18193,537.56 C1508.16193,536 1508.84193,533.84 1509.22193,531.12 C1509.54193,530.96 1510.06193,530.82 1510.74193,530.72 L1510.74193,530.72 Z M1522.86193,537.64 C1522.86193,537.44 1522.78193,537.24 1522.62193,537.04 C1522.46193,536.88 1522.26193,536.78 1522.06193,536.78 C1521.90193,536.78 1521.64193,536.82 1521.30193,536.86 C1520.96193,536.9 1520.70193,536.92 1520.54193,536.92 C1519.94193,536.92 1519.42193,536.64 1518.94193,536.06 C1520.94193,534.98 1521.94193,533.7 1521.94193,532.22 C1521.94193,531.66 1521.70193,531.12 1521.22193,530.64 C1520.74193,530.16 1520.26193,529.92 1519.76193,529.92 C1518.90193,529.92 1518.20193,530.42 1517.64193,531.4 C1517.16193,532.24 1516.92193,533.14 1516.92193,534.1 C1516.92193,534.3 1516.94193,534.58 1517.00193,534.92 L1516.54193,534.92 C1516.26193,534.92 1516.00193,534.82 1515.72193,534.62 C1515.44193,534.42 1515.24193,534.32 1515.12193,534.32 C1514.60193,534.32 1514.34193,534.6 1514.34193,535.16 C1514.34193,535.6 1514.66193,535.96 1515.34193,536.24 C1515.86193,536.46 1516.36193,536.56 1516.88193,536.56 L1517.48193,536.56 C1518.20193,537.94 1519.32193,538.62 1520.84193,538.62 C1522.18193,538.62 1522.86193,538.28 1522.86193,537.64 L1522.86193,537.64 Z M1520.36193,532.3 C1520.36193,532.96 1519.76193,533.68 1518.56193,534.46 L1518.56193,534.1 C1518.56193,533.56 1518.64193,533.04 1518.84193,532.54 C1519.04193,531.94 1519.32193,531.64 1519.68193,531.64 C1519.84193,531.64 1520.00193,531.72 1520.16193,531.84 C1520.28193,532 1520.36193,532.14 1520.36193,532.3 L1520.36193,532.3 Z M1532.42193,530.92 C1532.42193,530.62 1532.32193,530.36 1532.12193,530.12 C1531.94193,529.9 1531.72193,529.78 1531.44193,529.78 C1531.32193,529.78 1531.08193,529.9 1530.72193,530.1 C1530.36193,530.32 1529.48193,530.5 1528.06193,530.66 C1527.74193,530.4 1527.48193,530.26 1527.30193,530.26 C1527.08193,530.26 1526.84193,530.38 1526.60193,530.62 C1526.36193,530.86 1526.24193,531.12 1526.24193,531.36 C1526.24193,531.52 1526.32193,531.72 1526.48193,531.94 C1526.62193,532.18 1526.70193,532.44 1526.70193,532.74 C1526.70193,533.98 1526.60193,535 1526.40193,535.84 C1526.14193,536.82 1525.80193,537.3 1525.40193,537.3 C1525.24193,537.3 1525.12193,537.06 1525.08193,536.54 C1525.04193,536.34 1524.96193,536.22 1524.80193,536.22 C1524.52193,536.22 1524.32193,536.36 1524.18193,536.6 C1524.00193,536.88 1523.92193,537.2 1523.92193,537.54 C1523.92193,537.92 1524.06193,538.2 1524.36193,538.42 C1524.64193,538.62 1524.96193,538.74 1525.32193,538.74 C1526.36193,538.74 1527.10193,538.06 1527.54193,536.74 C1527.82193,535.9 1528.06193,534.38 1528.26193,532.18 C1528.76193,532.06 1529.52193,531.9 1530.56193,531.72 C1530.36193,533.68 1530.26193,535.16 1530.26193,536.16 C1530.26193,537.48 1530.34193,538.3 1530.52193,538.64 C1530.70193,538.98 1530.96193,539.16 1531.28193,539.16 C1531.80193,539.16 1532.06193,538.84 1532.06193,538.24 C1531.98193,537.88 1531.94193,537.56 1531.90193,537.28 C1531.80193,536.6 1531.76193,536.02 1531.76193,535.52 C1531.76193,534.44 1531.92193,533.18 1532.26193,531.74 C1532.36193,531.26 1532.42193,531 1532.42193,530.92 L1532.42193,530.92 Z M1540.80193,533.6 C1540.80193,532.82 1540.58193,532.1 1540.14193,531.46 C1539.68193,530.84 1539.10193,530.4 1538.40193,530.16 C1538.12193,530.08 1537.96193,530.04 1537.92193,530.04 C1537.76193,530.04 1537.58193,530.14 1537.34193,530.3 C1537.06193,530.46 1536.84193,530.58 1536.68193,530.64 C1536.00193,530.98 1535.44193,531.58 1535.04193,532.42 C1534.64193,533.18 1534.46193,534 1534.46193,534.86 C1534.46193,535.88 1534.72193,536.72 1535.28193,537.38 C1535.84193,538.02 1536.54193,538.36 1537.38193,538.36 C1538.34193,538.36 1539.16193,537.92 1539.82193,537 C1540.46193,536.08 1540.80193,534.96 1540.80193,533.6 L1540.80193,533.6 Z M1539.22193,533.9 C1539.22193,534.58 1539.02193,535.2 1538.66193,535.78 C1538.26193,536.38 1537.84193,536.68 1537.36193,536.68 C1536.96193,536.68 1536.64193,536.5 1536.40193,536.12 C1536.14193,535.76 1536.02193,535.34 1536.02193,534.86 C1536.02193,534.22 1536.16193,533.62 1536.48193,533.06 C1536.84193,532.42 1537.30193,532.08 1537.86193,532.08 C1538.06193,532.2 1538.32193,532.26 1538.64193,532.26 C1539.02193,532.5 1539.22193,533.06 1539.22193,533.9 L1539.22193,533.9 Z M1545.80193,537.46 C1545.80193,536.88 1545.50193,536.58 1544.92193,536.58 C1544.16193,536.58 1543.72193,537.28 1543.60193,538.66 C1543.08193,539.6 1542.48193,540.44 1541.82193,541.18 C1541.66193,541.36 1541.58193,541.58 1541.58193,541.82 C1541.58193,542.34 1541.82193,542.6 1542.28193,542.6 C1542.54193,542.6 1542.76193,542.5 1542.96193,542.3 C1543.54193,541.68 1544.10193,540.94 1544.64193,540.08 C1545.40193,538.8 1545.80193,537.94 1545.80193,537.46 L1545.80193,537.46 Z M1370.10193,559.16 C1370.10193,558.96 1370.02193,558.76 1369.86193,558.56 C1369.70193,558.4 1369.52193,558.3 1369.32193,558.3 C1369.16193,558.3 1368.92193,558.44 1368.64193,558.7 C1368.40193,558.9 1368.16193,559.1 1367.96193,559.3 C1367.62193,559.56 1367.20193,559.68 1366.70193,559.68 C1365.90193,559.68 1365.52193,559.2 1365.52193,558.2 C1365.52193,557.58 1365.70193,556.96 1366.06193,556.36 C1366.42193,555.76 1366.86193,555.26 1367.40193,554.9 C1367.64193,555.04 1368.00193,555.1 1368.50193,555.1 C1368.76193,555.1 1369.02193,555 1369.28193,554.76 C1369.50193,554.52 1369.62193,554.3 1369.62193,554.06 C1369.62193,553.74 1369.50193,553.5 1369.26193,553.3 C1369.00193,553.12 1368.72193,553.02 1368.42193,553.02 C1367.16193,553.02 1366.04193,553.68 1365.08193,554.98 C1364.30193,556.02 1363.92193,557.16 1363.92193,558.4 C1363.92193,559.28 1364.20193,559.98 1364.76193,560.54 C1365.32193,561.08 1366.02193,561.36 1366.86193,561.36 C1367.62193,561.36 1368.40193,561.06 1369.16193,560.46 C1369.78193,559.98 1370.10193,559.56 1370.10193,559.16 L1370.10193,559.16 Z M1379.20193,556.36 C1379.20193,556.18 1379.10193,555.98 1378.94193,555.78 C1378.94193,555.32 1378.86193,554.92 1378.74193,554.56 C1378.76193,554.48 1378.78193,554.38 1378.78193,554.28 C1378.78193,554.04 1378.64193,553.8 1378.40193,553.6 C1378.14193,553.4 1377.88193,553.28 1377.62193,553.28 C1376.52193,553.28 1375.32193,553.92 1374.00193,555.16 C1372.62193,556.44 1371.94193,557.68 1371.94193,558.84 C1371.94193,559.46 1372.14193,560 1372.58193,560.48 C1373.00193,560.98 1373.50193,561.22 1374.08193,561.22 C1374.98193,561.22 1375.98193,560.66 1377.10193,559.54 C1377.20193,561.06 1377.54193,561.84 1378.12193,561.84 C1378.32193,561.84 1378.52193,561.76 1378.70193,561.64 C1378.86193,561.48 1378.96193,561.28 1378.96193,561.08 C1378.96193,561.02 1378.90193,560.78 1378.82193,560.3 C1378.72193,559.84 1378.68193,559.48 1378.68193,559.24 C1378.68193,558.44 1378.80193,557.64 1379.08193,556.8 C1379.16193,556.58 1379.20193,556.44 1379.20193,556.36 L1379.20193,556.36 Z M1377.38193,555.78 C1377.38193,556.46 1376.98193,557.26 1376.22193,558.18 C1375.46193,559.1 1374.76193,559.54 1374.16193,559.54 C1373.74193,559.54 1373.54193,559.3 1373.54193,558.8 C1373.54193,558.16 1374.04193,557.36 1375.06193,556.38 C1375.98193,555.5 1376.64193,555.04 1377.02193,555.04 C1377.26193,555.04 1377.38193,555.3 1377.38193,555.78 L1377.38193,555.78 Z M1389.98193,561.82 C1389.98193,561.64 1389.92193,561.44 1389.80193,561.2 C1389.68193,560.96 1389.54193,560.8 1389.40193,560.68 C1389.08193,560 1388.80193,558.76 1388.56193,556.98 C1388.40193,556.06 1388.28193,555.04 1388.16193,553.96 C1388.10193,553.54 1387.86193,553.32 1387.44193,553.32 C1387.06193,553.32 1386.56193,554.14 1385.94193,555.78 C1385.72193,556.34 1385.54193,556.82 1385.38193,557.26 C1384.84193,556.46 1384.36193,555.26 1383.92193,553.62 C1383.76193,553.02 1383.52193,552.72 1383.22193,552.72 C1382.84193,552.72 1382.50193,553.18 1382.20193,554.08 C1382.14193,554.08 1382.06193,554.06 1381.96193,554.06 C1381.82193,554.06 1381.70193,554.12 1381.62193,554.22 C1381.50193,554.34 1381.44193,554.48 1381.44193,554.62 C1381.44193,554.66 1381.44193,554.78 1381.46193,554.98 C1381.46193,555.2 1381.48193,555.32 1381.48193,555.36 C1381.48193,555.72 1381.44193,556.22 1381.36193,556.9 C1381.28193,557.58 1381.24193,558.34 1381.24193,559.16 C1381.24193,560.5 1381.50193,561.16 1382.04193,561.16 C1382.44193,561.16 1382.64193,560.72 1382.68193,559.82 C1382.74193,558.06 1382.90193,556.6 1383.14193,555.44 C1384.20193,558 1385.04193,559.28 1385.64193,559.28 C1385.84193,559.28 1385.98193,559.2 1386.10193,559 C1386.20193,558.84 1386.32193,558.48 1386.48193,557.96 C1386.74193,557.08 1386.96193,556.38 1387.14193,555.9 C1387.34193,558.12 1387.62193,559.76 1388.00193,560.82 C1388.42193,562.04 1388.86193,562.66 1389.30193,562.66 C1389.46193,562.66 1389.62193,562.56 1389.76193,562.38 C1389.90193,562.18 1389.98193,562 1389.98193,561.82 L1389.98193,561.82 Z M1398.66193,556.36 C1398.66193,556.18 1398.56193,555.98 1398.40193,555.78 C1398.40193,555.32 1398.32193,554.92 1398.20193,554.56 C1398.22193,554.48 1398.24193,554.38 1398.24193,554.28 C1398.24193,554.04 1398.10193,553.8 1397.86193,553.6 C1397.60193,553.4 1397.34193,553.28 1397.08193,553.28 C1395.98193,553.28 1394.78193,553.92 1393.46193,555.16 C1392.08193,556.44 1391.40193,557.68 1391.40193,558.84 C1391.40193,559.46 1391.60193,560 1392.04193,560.48 C1392.46193,560.98 1392.96193,561.22 1393.54193,561.22 C1394.44193,561.22 1395.44193,560.66 1396.56193,559.54 C1396.66193,561.06 1397.00193,561.84 1397.58193,561.84 C1397.78193,561.84 1397.98193,561.76 1398.16193,561.64 C1398.32193,561.48 1398.42193,561.28 1398.42193,561.08 C1398.42193,561.02 1398.36193,560.78 1398.28193,560.3 C1398.18193,559.84 1398.14193,559.48 1398.14193,559.24 C1398.14193,558.44 1398.26193,557.64 1398.54193,556.8 C1398.62193,556.58 1398.66193,556.44 1398.66193,556.36 L1398.66193,556.36 Z M1396.84193,555.78 C1396.84193,556.46 1396.44193,557.26 1395.68193,558.18 C1394.92193,559.1 1394.22193,559.54 1393.62193,559.54 C1393.20193,559.54 1393.00193,559.3 1393.00193,558.8 C1393.00193,558.16 1393.50193,557.36 1394.52193,556.38 C1395.44193,555.5 1396.10193,555.04 1396.48193,555.04 C1396.72193,555.04 1396.84193,555.3 1396.84193,555.78 L1396.84193,555.78 Z M1418.16193,559.82 C1418.16193,559.38 1417.86193,559.14 1417.28193,559.08 C1415.40193,558.92 1414.06193,558.62 1413.28193,558.22 C1414.62193,556.58 1415.66193,555.36 1416.40193,554.56 C1416.56193,554.38 1416.64193,554.2 1416.64193,554 C1416.64193,553.8 1416.56193,553.6 1416.40193,553.42 C1416.24193,553.26 1416.06193,553.18 1415.86193,553.18 C1415.66193,553.18 1415.36193,553.44 1414.92193,553.96 C1414.44193,554.52 1413.82193,555.3 1413.06193,556.3 C1413.10193,555.68 1413.22193,554.94 1413.42193,554.06 C1413.54193,553.36 1413.62193,552.96 1413.62193,552.86 C1413.62193,552.34 1413.34193,552.06 1412.82193,552.06 C1412.42193,552.06 1412.16193,552.42 1412.04193,553.1 C1411.94193,553.58 1411.84193,554.3 1411.74193,555.24 C1410.48193,555.04 1409.54193,554.68 1408.94193,554.14 C1408.66193,553.92 1408.40193,553.8 1408.12193,553.8 C1407.94193,553.8 1407.80193,553.88 1407.68193,554.02 C1407.56193,554.2 1407.50193,554.36 1407.50193,554.52 C1407.50193,554.96 1407.90193,555.4 1408.74193,555.84 C1409.16193,556.08 1409.84193,556.32 1410.78193,556.58 C1409.80193,557.68 1408.82193,558.58 1407.82193,559.3 C1407.50193,559.54 1407.34193,559.8 1407.34193,560.1 C1407.34193,560.3 1407.40193,560.48 1407.56193,560.64 C1407.70193,560.8 1407.88193,560.88 1408.10193,560.88 C1408.34193,560.88 1408.64193,560.72 1409.00193,560.4 C1410.22193,559.3 1411.08193,558.46 1411.60193,557.88 C1411.64193,559.44 1411.74193,560.64 1411.92193,561.52 C1412.04193,562.04 1412.34193,562.3 1412.84193,562.3 C1413.02193,562.3 1413.18193,562.2 1413.34193,562.02 C1413.48193,561.84 1413.56193,561.66 1413.56193,561.48 C1413.40193,560.84 1413.26193,560.3 1413.18193,559.88 C1414.12193,560.16 1414.94193,560.34 1415.66193,560.46 C1416.44193,560.62 1417.02193,560.68 1417.42193,560.68 C1417.90193,560.68 1418.16193,560.4 1418.16193,559.82 L1418.16193,559.82 Z M1427.74193,560.64 C1427.74193,560.44 1427.66193,560.24 1427.50193,560.04 C1427.34193,559.88 1427.14193,559.78 1426.94193,559.78 C1426.78193,559.78 1426.52193,559.82 1426.18193,559.86 C1425.84193,559.9 1425.58193,559.92 1425.42193,559.92 C1424.82193,559.92 1424.30193,559.64 1423.82193,559.06 C1425.82193,557.98 1426.82193,556.7 1426.82193,555.22 C1426.82193,554.66 1426.58193,554.12 1426.10193,553.64 C1425.62193,553.16 1425.14193,552.92 1424.64193,552.92 C1423.78193,552.92 1423.08193,553.42 1422.52193,554.4 C1422.04193,555.24 1421.80193,556.14 1421.80193,557.1 C1421.80193,557.3 1421.82193,557.58 1421.88193,557.92 L1421.42193,557.92 C1421.14193,557.92 1420.88193,557.82 1420.60193,557.62 C1420.32193,557.42 1420.12193,557.32 1420.00193,557.32 C1419.48193,557.32 1419.22193,557.6 1419.22193,558.16 C1419.22193,558.6 1419.54193,558.96 1420.22193,559.24 C1420.74193,559.46 1421.24193,559.56 1421.76193,559.56 L1422.36193,559.56 C1423.08193,560.94 1424.20193,561.62 1425.72193,561.62 C1427.06193,561.62 1427.74193,561.28 1427.74193,560.64 L1427.74193,560.64 Z M1425.24193,555.3 C1425.24193,555.96 1424.64193,556.68 1423.44193,557.46 L1423.44193,557.1 C1423.44193,556.56 1423.52193,556.04 1423.72193,555.54 C1423.92193,554.94 1424.20193,554.64 1424.56193,554.64 C1424.72193,554.64 1424.88193,554.72 1425.04193,554.84 C1425.16193,555 1425.24193,555.14 1425.24193,555.3 L1425.24193,555.3 Z M1442.34193,558.68 C1442.34193,557.48 1441.74193,556.68 1440.56193,556.32 C1441.42193,555.84 1441.86193,555.24 1441.86193,554.5 C1441.86193,553.26 1440.88193,552.64 1438.96193,552.64 C1437.30193,552.64 1436.48193,553 1436.48193,553.72 C1436.48193,554.24 1436.72193,554.5 1437.20193,554.52 C1437.32193,554.5 1437.62193,554.4 1438.10193,554.2 C1438.42193,554.08 1438.72193,554 1438.96193,554 C1439.88193,554 1440.34193,554.22 1440.34193,554.66 C1440.34193,554.94 1440.10193,555.24 1439.62193,555.52 C1439.18193,555.76 1438.68193,555.94 1438.10193,556.06 C1437.38193,556.22 1437.00193,556.3 1436.94193,556.32 C1436.70193,556.42 1436.60193,556.62 1436.60193,556.9 C1436.60193,557.1 1436.66193,557.32 1436.82193,557.52 C1436.96193,557.74 1437.14193,557.84 1437.34193,557.84 C1437.44193,557.84 1437.58193,557.8 1437.76193,557.68 C1438.12193,557.48 1438.54193,557.36 1439.00193,557.36 C1439.46193,557.36 1439.86193,557.44 1440.22193,557.6 C1440.66193,557.8 1440.88193,558.1 1440.88193,558.5 C1440.88193,558.98 1440.50193,559.46 1439.78193,559.92 C1439.10193,560.38 1438.52193,560.6 1438.04193,560.6 C1437.48193,560.6 1437.22193,560.52 1437.22193,560.36 C1437.22193,560.28 1437.24193,560.16 1437.30193,560.04 C1437.34193,559.9 1437.36193,559.8 1437.36193,559.76 C1437.36193,559.4 1437.12193,559.22 1436.66193,559.22 C1436.50193,559.22 1436.32193,559.36 1436.14193,559.6 C1435.94193,559.88 1435.86193,560.12 1435.86193,560.32 C1435.86193,560.6 1435.96193,560.9 1436.20193,561.22 C1436.56193,561.74 1437.22193,562 1438.16193,562 C1439.08193,562 1440.00193,561.66 1440.90193,561.02 C1441.86193,560.34 1442.34193,559.56 1442.34193,558.68 L1442.34193,558.68 Z M1450.84193,553.6 C1450.84193,553.08 1450.60193,552.82 1450.12193,552.82 C1449.72193,552.82 1449.46193,553.18 1449.36193,553.86 C1449.26193,554.4 1449.14193,555.16 1449.02193,556.14 C1448.14193,556.36 1447.28193,556.52 1446.44193,556.6 C1446.64193,555.32 1446.84193,554.36 1447.04193,553.7 C1447.16193,553.34 1447.26193,553.06 1447.36193,552.82 C1447.32193,552.28 1447.08193,552 1446.60193,552 C1446.26193,552 1446.04193,552.16 1445.92193,552.48 C1445.52193,553.44 1445.20193,554.82 1445.00193,556.62 C1444.68193,556.62 1444.46193,556.6 1444.34193,556.58 C1443.94193,556.58 1443.76193,556.82 1443.76193,557.26 C1443.76193,557.76 1444.04193,558 1444.62193,558 L1444.86193,558 C1444.80193,558.76 1444.74193,559.62 1444.70193,560.62 C1444.70193,560.68 1444.68193,560.78 1444.66193,560.9 C1444.62193,561.02 1444.62193,561.1 1444.62193,561.18 C1444.62193,561.38 1444.70193,561.56 1444.86193,561.72 C1445.02193,561.88 1445.20193,561.96 1445.40193,561.96 C1445.88193,561.96 1446.14193,561.7 1446.16193,561.2 C1446.16193,560.52 1446.22193,559.44 1446.32193,557.96 C1447.18193,557.88 1448.02193,557.74 1448.86193,557.54 C1448.76193,558.6 1448.70193,559.44 1448.70193,560.04 C1448.70193,560.1 1448.68193,560.18 1448.66193,560.3 C1448.62193,560.4 1448.60193,560.48 1448.60193,560.54 C1448.60193,561.02 1448.66193,561.38 1448.82193,561.62 C1448.98193,561.88 1449.16193,562.02 1449.40193,562.02 C1449.60193,562.02 1449.78193,561.94 1449.94193,561.78 C1450.08193,561.62 1450.16193,561.42 1450.16193,561.2 C1450.16193,561.16 1450.14193,561.06 1450.14193,560.86 C1450.12193,560.66 1450.12193,560.5 1450.12193,560.42 C1450.12193,559.08 1450.32193,557.02 1450.76193,554.24 C1450.80193,553.88 1450.84193,553.68 1450.84193,553.6 L1450.84193,553.6 Z M1460.14193,556.36 C1460.14193,556.18 1460.04193,555.98 1459.88193,555.78 C1459.88193,555.32 1459.80193,554.92 1459.68193,554.56 C1459.70193,554.48 1459.72193,554.38 1459.72193,554.28 C1459.72193,554.04 1459.58193,553.8 1459.34193,553.6 C1459.08193,553.4 1458.82193,553.28 1458.56193,553.28 C1457.46193,553.28 1456.26193,553.92 1454.94193,555.16 C1453.56193,556.44 1452.88193,557.68 1452.88193,558.84 C1452.88193,559.46 1453.08193,560 1453.52193,560.48 C1453.94193,560.98 1454.44193,561.22 1455.02193,561.22 C1455.92193,561.22 1456.92193,560.66 1458.04193,559.54 C1458.14193,561.06 1458.48193,561.84 1459.06193,561.84 C1459.26193,561.84 1459.46193,561.76 1459.64193,561.64 C1459.80193,561.48 1459.90193,561.28 1459.90193,561.08 C1459.90193,561.02 1459.84193,560.78 1459.76193,560.3 C1459.66193,559.84 1459.62193,559.48 1459.62193,559.24 C1459.62193,558.44 1459.74193,557.64 1460.02193,556.8 C1460.10193,556.58 1460.14193,556.44 1460.14193,556.36 L1460.14193,556.36 Z M1458.32193,555.78 C1458.32193,556.46 1457.92193,557.26 1457.16193,558.18 C1456.40193,559.1 1455.70193,559.54 1455.10193,559.54 C1454.68193,559.54 1454.48193,559.3 1454.48193,558.8 C1454.48193,558.16 1454.98193,557.36 1456.00193,556.38 C1456.92193,555.5 1457.58193,555.04 1457.96193,555.04 C1458.20193,555.04 1458.32193,555.3 1458.32193,555.78 L1458.32193,555.78 Z M1470.12193,560.64 C1470.12193,560.44 1470.04193,560.24 1469.88193,560.04 C1469.72193,559.88 1469.52193,559.78 1469.32193,559.78 C1469.16193,559.78 1468.90193,559.82 1468.56193,559.86 C1468.22193,559.9 1467.96193,559.92 1467.80193,559.92 C1467.20193,559.92 1466.68193,559.64 1466.20193,559.06 C1468.20193,557.98 1469.20193,556.7 1469.20193,555.22 C1469.20193,554.66 1468.96193,554.12 1468.48193,553.64 C1468.00193,553.16 1467.52193,552.92 1467.02193,552.92 C1466.16193,552.92 1465.46193,553.42 1464.90193,554.4 C1464.42193,555.24 1464.18193,556.14 1464.18193,557.1 C1464.18193,557.3 1464.20193,557.58 1464.26193,557.92 L1463.80193,557.92 C1463.52193,557.92 1463.26193,557.82 1462.98193,557.62 C1462.70193,557.42 1462.50193,557.32 1462.38193,557.32 C1461.86193,557.32 1461.60193,557.6 1461.60193,558.16 C1461.60193,558.6 1461.92193,558.96 1462.60193,559.24 C1463.12193,559.46 1463.62193,559.56 1464.14193,559.56 L1464.74193,559.56 C1465.46193,560.94 1466.58193,561.62 1468.10193,561.62 C1469.44193,561.62 1470.12193,561.28 1470.12193,560.64 L1470.12193,560.64 Z M1467.62193,555.3 C1467.62193,555.96 1467.02193,556.68 1465.82193,557.46 L1465.82193,557.1 C1465.82193,556.56 1465.90193,556.04 1466.10193,555.54 C1466.30193,554.94 1466.58193,554.64 1466.94193,554.64 C1467.10193,554.64 1467.26193,554.72 1467.42193,554.84 C1467.54193,555 1467.62193,555.14 1467.62193,555.3 L1467.62193,555.3 Z M1480.56193,554.12 C1480.56193,553.88 1480.46193,553.6 1480.30193,553.3 C1480.10193,553.02 1479.88193,552.86 1479.64193,552.86 C1479.24193,552.86 1479.00193,553 1478.88193,553.28 C1478.90193,553.46 1478.92193,553.72 1478.96193,554.08 C1478.98193,554.48 1479.00193,554.78 1479.00193,554.96 C1479.00193,555.52 1478.86193,557.22 1478.58193,560.02 C1477.64193,560.12 1476.98193,560.18 1476.62193,560.18 C1476.90193,556.16 1477.04193,554.06 1477.04193,553.86 C1477.04193,552.98 1476.68193,552.52 1476.00193,552.52 C1475.88193,552.52 1475.74193,552.58 1475.60193,552.68 C1475.44193,552.8 1475.36193,552.92 1475.36193,553.04 C1475.36193,553.08 1475.38193,553.22 1475.44193,553.42 C1475.46193,553.64 1475.48193,553.78 1475.48193,553.84 C1475.48193,555.76 1475.34193,557.92 1475.08193,560.34 C1474.00193,560.48 1473.42193,560.54 1473.34193,560.54 C1473.18193,560.54 1473.08193,560.44 1473.06193,560.2 C1473.06193,560.08 1473.12193,559.24 1473.20193,557.7 C1473.30193,556.16 1473.36193,555.3 1473.36193,555.1 C1473.36193,554.38 1473.28193,553.86 1473.14193,553.54 C1472.94193,553.04 1472.64193,552.78 1472.28193,552.78 C1472.12193,552.78 1471.96193,552.86 1471.84193,553 C1471.72193,553.12 1471.66193,553.28 1471.66193,553.44 C1471.76193,553.98 1471.82193,554.5 1471.82193,554.98 C1471.82193,556.56 1471.74193,558.3 1471.60193,560.18 C1471.64193,560.9 1471.86193,561.4 1472.26193,561.74 C1472.52193,561.94 1472.82193,562.06 1473.14193,562.06 C1474.78193,561.76 1476.28193,561.62 1477.62193,561.62 C1477.76193,561.62 1477.98193,561.64 1478.28193,561.68 C1478.56193,561.72 1478.78193,561.76 1478.94193,561.76 C1479.66193,561.76 1480.02193,561.36 1480.06193,560.6 C1480.08193,559.8 1480.18193,558.58 1480.34193,556.92 C1480.48193,555.26 1480.56193,554.32 1480.56193,554.12 L1480.56193,554.12 Z M1488.68193,558.58 C1488.68193,557.76 1488.40193,557.1 1487.86193,556.6 C1487.36193,556.14 1486.72193,555.9 1485.92193,555.9 C1485.48193,555.9 1485.04193,556.02 1484.60193,556.26 C1484.68193,555.52 1484.74193,554.86 1484.80193,554.3 C1484.90193,553.66 1484.96193,553.16 1485.00193,552.8 C1484.92193,552.22 1484.68193,551.92 1484.24193,551.92 C1483.72193,551.92 1483.44193,552.32 1483.38193,553.1 C1483.06193,556.26 1482.82193,558.94 1482.62193,561.14 C1482.64193,561.84 1482.90193,562.2 1483.42193,562.2 C1483.74193,562.2 1483.96193,562.06 1484.08193,561.8 C1484.30193,561.86 1484.50193,561.9 1484.70193,561.9 C1485.58193,561.9 1486.44193,561.58 1487.28193,560.96 C1488.20193,560.28 1488.68193,559.5 1488.68193,558.58 L1488.68193,558.58 Z M1487.16193,558.34 C1487.16193,558.94 1486.84193,559.48 1486.24193,559.94 C1485.68193,560.38 1485.14193,560.6 1484.62193,560.6 C1484.54193,560.6 1484.40193,560.58 1484.24193,560.54 L1484.42193,558.24 C1484.78193,557.64 1485.26193,557.32 1485.88193,557.32 C1486.20193,557.32 1486.48193,557.42 1486.76193,557.62 C1487.02193,557.82 1487.16193,558.06 1487.16193,558.34 L1487.16193,558.34 Z M1493.46193,560.46 C1493.46193,559.88 1493.16193,559.58 1492.58193,559.58 C1491.82193,559.58 1491.38193,560.28 1491.26193,561.66 C1490.74193,562.6 1490.14193,563.44 1489.48193,564.18 C1489.32193,564.36 1489.24193,564.58 1489.24193,564.82 C1489.24193,565.34 1489.48193,565.6 1489.94193,565.6 C1490.20193,565.6 1490.42193,565.5 1490.62193,565.3 C1491.20193,564.68 1491.76193,563.94 1492.30193,563.08 C1493.06193,561.8 1493.46193,560.94 1493.46193,560.46 L1493.46193,560.46 Z M1509.84193,553.4 C1509.82193,553.18 1509.74193,552.96 1509.58193,552.76 C1509.42193,552.56 1509.24193,552.46 1509.04193,552.46 C1508.50193,552.46 1508.22193,552.76 1508.20193,553.34 C1508.20193,553.42 1508.20193,553.68 1508.22193,554.1 C1508.22193,554.56 1508.24193,554.82 1508.24193,554.9 C1508.24193,555.68 1507.98193,556.4 1507.48193,557.08 C1506.96193,557.76 1506.38193,558.08 1505.76193,558.08 C1504.98193,558.08 1504.60193,557.52 1504.60193,556.36 C1504.60193,555.92 1504.68193,554.92 1504.88193,553.36 C1504.82193,552.8 1504.58193,552.5 1504.18193,552.5 C1503.62193,552.5 1503.30193,553.04 1503.18193,554.1 C1503.14193,554.4 1503.12193,555.14 1503.12193,556.34 C1503.12193,558.46 1503.96193,559.52 1505.66193,559.52 C1506.14193,559.52 1506.64193,559.4 1507.12193,559.12 C1507.60193,558.86 1507.98193,558.5 1508.22193,558.06 C1508.18193,558.86 1508.14193,559.52 1508.10193,560.02 C1508.02193,560.84 1508.00193,561.42 1508.00193,561.82 C1508.00193,562.36 1508.22193,562.64 1508.70193,562.64 C1509.22193,562.64 1509.50193,562.36 1509.52193,561.8 C1509.54193,560.5 1509.60193,558.58 1509.72193,556.06 C1509.76193,554.74 1509.80193,553.86 1509.84193,553.4 L1509.84193,553.4 Z M1519.92193,552.68 C1519.92193,552.48 1519.84193,552.28 1519.70193,552.1 C1519.56193,551.94 1519.40193,551.84 1519.22193,551.84 C1518.92193,551.84 1518.50193,551.92 1517.94193,552.04 C1515.74193,552.56 1513.78193,553.02 1512.10193,553.42 C1511.98193,553.46 1511.90193,553.46 1511.86193,553.46 C1511.46193,553.54 1511.26193,553.84 1511.26193,554.34 C1511.26193,554.9 1511.48193,555.16 1511.96193,555.16 C1512.54193,555.04 1513.00193,554.94 1513.32193,554.84 C1513.90193,554.72 1514.40193,554.6 1514.82193,554.52 C1514.74193,556.06 1514.70193,557.54 1514.70193,558.94 C1514.70193,560.3 1514.78193,561.24 1514.94193,561.76 C1515.06193,562.12 1515.30193,562.3 1515.70193,562.3 C1516.22193,562.3 1516.48193,561.82 1516.48193,560.88 C1516.48193,560.42 1516.38193,560.08 1516.22193,559.86 C1516.18193,559.36 1516.16193,558.58 1516.16193,557.5 C1516.16193,556.66 1516.22193,555.52 1516.38193,554.1 C1516.96193,553.96 1517.36193,553.86 1517.60193,553.82 C1517.78193,553.94 1517.92193,553.98 1518.02193,553.98 C1518.14193,553.98 1518.28193,553.96 1518.46193,553.88 L1519.38193,553.46 C1519.74193,553.3 1519.92193,553.04 1519.92193,552.68 L1519.92193,552.68 Z M1527.48193,556.6 C1527.48193,555.82 1527.26193,555.1 1526.82193,554.46 C1526.36193,553.84 1525.78193,553.4 1525.08193,553.16 C1524.80193,553.08 1524.64193,553.04 1524.60193,553.04 C1524.44193,553.04 1524.26193,553.14 1524.02193,553.3 C1523.74193,553.46 1523.52193,553.58 1523.36193,553.64 C1522.68193,553.98 1522.12193,554.58 1521.72193,555.42 C1521.32193,556.18 1521.14193,557 1521.14193,557.86 C1521.14193,558.88 1521.40193,559.72 1521.96193,560.38 C1522.52193,561.02 1523.22193,561.36 1524.06193,561.36 C1525.02193,561.36 1525.84193,560.92 1526.50193,560 C1527.14193,559.08 1527.48193,557.96 1527.48193,556.6 L1527.48193,556.6 Z M1525.90193,556.9 C1525.90193,557.58 1525.70193,558.2 1525.34193,558.78 C1524.94193,559.38 1524.52193,559.68 1524.04193,559.68 C1523.64193,559.68 1523.32193,559.5 1523.08193,559.12 C1522.82193,558.76 1522.70193,558.34 1522.70193,557.86 C1522.70193,557.22 1522.84193,556.62 1523.16193,556.06 C1523.52193,555.42 1523.98193,555.08 1524.54193,555.08 C1524.74193,555.2 1525.00193,555.26 1525.32193,555.26 C1525.70193,555.5 1525.90193,556.06 1525.90193,556.9 L1525.90193,556.9 Z M1544.42193,554.62 C1544.42193,554.4 1544.32193,554.22 1544.14193,554.06 C1543.96193,553.9 1543.76193,553.82 1543.54193,553.82 C1543.42193,553.82 1543.20193,553.96 1542.84193,554.22 C1541.86193,554.98 1541.10193,555.56 1540.56193,556 C1540.08193,555.32 1539.60193,554.68 1539.10193,554.08 C1538.60193,553.48 1538.22193,553.18 1537.98193,553.18 C1537.34193,553.18 1537.04193,553.5 1537.04193,554.12 C1537.04193,554.28 1537.22193,554.64 1537.60193,555.18 C1537.92193,555.66 1538.16193,555.98 1538.36193,556.14 C1538.46193,556.26 1538.58193,556.34 1538.74193,556.38 C1538.94193,556.64 1539.12193,556.86 1539.24193,557.04 C1538.20193,557.88 1537.44193,558.54 1536.94193,559.02 C1536.28193,559.64 1535.96193,560.12 1535.96193,560.44 C1535.96193,561 1536.24193,561.3 1536.80193,561.3 C1537.00193,561.3 1537.24193,561.18 1537.48193,560.94 C1538.20193,560.18 1539.10193,559.38 1540.18193,558.5 C1540.64193,559.3 1541.06193,560.08 1541.42193,560.88 C1541.58193,561.22 1541.86193,561.4 1542.24193,561.4 C1542.42193,561.4 1542.60193,561.32 1542.78193,561.16 C1542.96193,561 1543.06193,560.8 1543.06193,560.6 C1543.06193,560.44 1542.86193,559.98 1542.50193,559.22 C1542.22193,558.66 1541.88193,558.08 1541.50193,557.44 C1542.58193,556.6 1543.42193,555.9 1544.02193,555.38 C1544.28193,555.16 1544.42193,554.9 1544.42193,554.62 L1544.42193,554.62 Z M1553.34193,557.72 L1553.34193,556.38 C1553.34193,554.98 1553.02193,554.26 1552.40193,554.26 C1552.08193,554.26 1551.78193,554.54 1551.48193,555.06 C1550.86193,556.16 1550.38193,556.94 1550.02193,557.38 C1549.54193,557.98 1549.08193,558.28 1548.64193,558.28 C1548.32193,558.28 1548.18193,558.1 1548.18193,557.74 C1548.18193,557.42 1548.24193,556.8 1548.36193,555.88 C1548.48193,554.96 1548.56193,554.4 1548.56193,554.22 C1548.56193,553.74 1548.48193,553.3 1548.32193,552.94 C1548.14193,552.5 1547.88193,552.28 1547.56193,552.28 C1546.96193,552.28 1546.68193,552.54 1546.68193,553.04 C1546.68193,553.16 1546.70193,553.32 1546.78193,553.56 C1546.84193,553.8 1546.88193,553.96 1546.88193,554.08 C1546.88193,554.48 1546.82193,555.08 1546.72193,555.92 C1546.62193,556.76 1546.58193,557.4 1546.58193,557.8 C1546.58193,558.46 1546.76193,559 1547.14193,559.42 C1547.50193,559.86 1547.98193,560.06 1548.62193,560.06 C1549.64193,560.06 1550.68193,559.32 1551.74193,557.84 C1551.74193,558.52 1551.68193,559.16 1551.58193,559.78 C1551.10193,562.44 1549.34193,563.78 1546.28193,563.82 C1545.80193,563.76 1545.44193,563.72 1545.20193,563.7 C1544.70193,563.72 1544.44193,563.98 1544.44193,564.5 C1544.44193,565.22 1545.06193,565.6 1546.30193,565.6 C1548.26193,565.6 1549.84193,565.06 1551.08193,564.02 C1552.58193,562.74 1553.34193,560.66 1553.34193,557.72 L1553.34193,557.72 Z M1566.00193,559.82 C1566.00193,559.38 1565.70193,559.14 1565.12193,559.08 C1563.24193,558.92 1561.90193,558.62 1561.12193,558.22 C1562.46193,556.58 1563.50193,555.36 1564.24193,554.56 C1564.40193,554.38 1564.48193,554.2 1564.48193,554 C1564.48193,553.8 1564.40193,553.6 1564.24193,553.42 C1564.08193,553.26 1563.90193,553.18 1563.70193,553.18 C1563.50193,553.18 1563.20193,553.44 1562.76193,553.96 C1562.28193,554.52 1561.66193,555.3 1560.90193,556.3 C1560.94193,555.68 1561.06193,554.94 1561.26193,554.06 C1561.38193,553.36 1561.46193,552.96 1561.46193,552.86 C1561.46193,552.34 1561.18193,552.06 1560.66193,552.06 C1560.26193,552.06 1560.00193,552.42 1559.88193,553.1 C1559.78193,553.58 1559.68193,554.3 1559.58193,555.24 C1558.32193,555.04 1557.38193,554.68 1556.78193,554.14 C1556.50193,553.92 1556.24193,553.8 1555.96193,553.8 C1555.78193,553.8 1555.64193,553.88 1555.52193,554.02 C1555.40193,554.2 1555.34193,554.36 1555.34193,554.52 C1555.34193,554.96 1555.74193,555.4 1556.58193,555.84 C1557.00193,556.08 1557.68193,556.32 1558.62193,556.58 C1557.64193,557.68 1556.66193,558.58 1555.66193,559.3 C1555.34193,559.54 1555.18193,559.8 1555.18193,560.1 C1555.18193,560.3 1555.24193,560.48 1555.40193,560.64 C1555.54193,560.8 1555.72193,560.88 1555.94193,560.88 C1556.18193,560.88 1556.48193,560.72 1556.84193,560.4 C1558.06193,559.3 1558.92193,558.46 1559.44193,557.88 C1559.48193,559.44 1559.58193,560.64 1559.76193,561.52 C1559.88193,562.04 1560.18193,562.3 1560.68193,562.3 C1560.86193,562.3 1561.02193,562.2 1561.18193,562.02 C1561.32193,561.84 1561.40193,561.66 1561.40193,561.48 C1561.24193,560.84 1561.10193,560.3 1561.02193,559.88 C1561.96193,560.16 1562.78193,560.34 1563.50193,560.46 C1564.28193,560.62 1564.86193,560.68 1565.26193,560.68 C1565.74193,560.68 1566.00193,560.4 1566.00193,559.82 L1566.00193,559.82 Z M1575.58193,560.64 C1575.58193,560.44 1575.50193,560.24 1575.34193,560.04 C1575.18193,559.88 1574.98193,559.78 1574.78193,559.78 C1574.62193,559.78 1574.36193,559.82 1574.02193,559.86 C1573.68193,559.9 1573.42193,559.92 1573.26193,559.92 C1572.66193,559.92 1572.14193,559.64 1571.66193,559.06 C1573.66193,557.98 1574.66193,556.7 1574.66193,555.22 C1574.66193,554.66 1574.42193,554.12 1573.94193,553.64 C1573.46193,553.16 1572.98193,552.92 1572.48193,552.92 C1571.62193,552.92 1570.92193,553.42 1570.36193,554.4 C1569.88193,555.24 1569.64193,556.14 1569.64193,557.1 C1569.64193,557.3 1569.66193,557.58 1569.72193,557.92 L1569.26193,557.92 C1568.98193,557.92 1568.72193,557.82 1568.44193,557.62 C1568.16193,557.42 1567.96193,557.32 1567.84193,557.32 C1567.32193,557.32 1567.06193,557.6 1567.06193,558.16 C1567.06193,558.6 1567.38193,558.96 1568.06193,559.24 C1568.58193,559.46 1569.08193,559.56 1569.60193,559.56 L1570.20193,559.56 C1570.92193,560.94 1572.04193,561.62 1573.56193,561.62 C1574.90193,561.62 1575.58193,561.28 1575.58193,560.64 L1575.58193,560.64 Z M1573.08193,555.3 C1573.08193,555.96 1572.48193,556.68 1571.28193,557.46 L1571.28193,557.1 C1571.28193,556.56 1571.36193,556.04 1571.56193,555.54 C1571.76193,554.94 1572.04193,554.64 1572.40193,554.64 C1572.56193,554.64 1572.72193,554.72 1572.88193,554.84 C1573.00193,555 1573.08193,555.14 1573.08193,555.3 L1573.08193,555.3 Z M1592.06193,557.34 C1592.06193,556.24 1591.78193,555.34 1591.26193,554.64 C1590.66193,553.86 1589.84193,553.46 1588.78193,553.46 C1587.82193,553.46 1586.76193,553.96 1585.64193,554.94 C1585.96193,552.9 1587.32193,551.46 1589.76193,550.66 C1590.46193,550.42 1590.82193,550.08 1590.82193,549.6 C1590.82193,549.26 1590.70193,548.9 1590.50193,548.52 C1590.26193,548.16 1590.00193,547.96 1589.72193,547.96 C1589.46193,547.96 1589.32193,548.14 1589.30193,548.48 C1589.26193,548.88 1589.24193,549.08 1589.22193,549.12 C1589.16193,549.22 1588.96193,549.34 1588.62193,549.48 C1585.46193,550.76 1583.90193,553.14 1583.90193,556.64 C1583.90193,558.14 1584.20193,559.36 1584.84193,560.32 C1585.54193,561.32 1586.52193,561.84 1587.78193,561.84 C1588.90193,561.84 1589.88193,561.4 1590.76193,560.54 C1591.62193,559.66 1592.06193,558.6 1592.06193,557.34 L1592.06193,557.34 Z M1590.62193,556.88 C1590.62193,557.84 1590.34193,558.64 1589.80193,559.32 C1589.24193,560 1588.54193,560.34 1587.74193,560.34 C1587.10193,560.34 1586.56193,560.06 1586.16193,559.46 C1585.76193,558.86 1585.56193,558.12 1585.56193,557.22 C1585.56193,557.12 1585.56193,556.98 1585.58193,556.78 C1586.08193,556.72 1586.36193,556.5 1586.42193,556.14 C1587.34193,555.38 1588.18193,554.98 1588.90193,554.98 C1589.34193,554.98 1589.74193,555.18 1590.10193,555.54 C1590.44193,555.94 1590.62193,556.38 1590.62193,556.88 L1590.62193,556.88 Z M1601.38193,557.72 L1601.38193,556.38 C1601.38193,554.98 1601.06193,554.26 1600.44193,554.26 C1600.12193,554.26 1599.82193,554.54 1599.52193,555.06 C1598.90193,556.16 1598.42193,556.94 1598.06193,557.38 C1597.58193,557.98 1597.12193,558.28 1596.68193,558.28 C1596.36193,558.28 1596.22193,558.1 1596.22193,557.74 C1596.22193,557.42 1596.28193,556.8 1596.40193,555.88 C1596.52193,554.96 1596.60193,554.4 1596.60193,554.22 C1596.60193,553.74 1596.52193,553.3 1596.36193,552.94 C1596.18193,552.5 1595.92193,552.28 1595.60193,552.28 C1595.00193,552.28 1594.72193,552.54 1594.72193,553.04 C1594.72193,553.16 1594.74193,553.32 1594.82193,553.56 C1594.88193,553.8 1594.92193,553.96 1594.92193,554.08 C1594.92193,554.48 1594.86193,555.08 1594.76193,555.92 C1594.66193,556.76 1594.62193,557.4 1594.62193,557.8 C1594.62193,558.46 1594.80193,559 1595.18193,559.42 C1595.54193,559.86 1596.02193,560.06 1596.66193,560.06 C1597.68193,560.06 1598.72193,559.32 1599.78193,557.84 C1599.78193,558.52 1599.72193,559.16 1599.62193,559.78 C1599.14193,562.44 1597.38193,563.78 1594.32193,563.82 C1593.84193,563.76 1593.48193,563.72 1593.24193,563.7 C1592.74193,563.72 1592.48193,563.98 1592.48193,564.5 C1592.48193,565.22 1593.10193,565.6 1594.34193,565.6 C1596.30193,565.6 1597.88193,565.06 1599.12193,564.02 C1600.62193,562.74 1601.38193,560.66 1601.38193,557.72 L1601.38193,557.72 Z M1612.04193,561.04 C1612.04193,560.98 1612.00193,560.88 1611.92193,560.76 C1611.68193,560.32 1611.40193,560.1 1611.12193,560.1 C1611.08193,560.1 1611.02193,560.12 1610.92193,560.12 C1611.02193,557.64 1611.10193,555.84 1611.18193,554.7 C1611.22193,554.12 1611.34193,553.54 1611.56193,552.94 C1611.56193,552.74 1611.44193,552.52 1611.24193,552.32 C1611.04193,552.12 1610.84193,552.02 1610.64193,552.02 C1610.12193,552.02 1609.50193,552.14 1608.76193,552.34 C1607.88193,552.6 1607.30193,552.8 1607.02193,552.92 C1606.58193,553.16 1606.38193,553.46 1606.38193,553.8 C1606.38193,553.9 1606.42193,554.04 1606.52193,554.24 C1606.58193,554.44 1606.62193,554.58 1606.62193,554.66 C1606.62193,555.54 1606.40193,556.54 1605.96193,557.7 C1605.48193,558.92 1604.94193,559.88 1604.30193,560.58 C1603.68193,560.62 1603.36193,560.9 1603.32193,561.42 C1603.24193,562.2 1603.22193,562.88 1603.22193,563.44 C1603.22193,563.62 1603.30193,563.8 1603.46193,563.96 C1603.62193,564.12 1603.84193,564.22 1604.08193,564.22 C1604.54193,564.22 1604.78193,563.98 1604.78193,563.52 C1604.78193,563.44 1604.76193,563.34 1604.74193,563.2 C1604.70193,563.06 1604.70193,562.96 1604.70193,562.92 C1604.70193,562.84 1604.70193,562.76 1604.72193,562.64 L1604.72193,562.34 C1604.72193,562.18 1604.86193,562.08 1605.18193,562.06 C1606.36193,561.92 1607.44193,561.82 1608.40193,561.76 C1609.10193,561.7 1609.60193,561.68 1609.88193,561.68 C1610.12193,561.68 1610.26193,561.78 1610.26193,561.98 C1610.26193,562.04 1610.26193,562.26 1610.28193,562.66 L1610.28193,563.36 C1610.28193,563.92 1610.48193,564.22 1610.92193,564.22 C1611.08193,564.22 1611.28193,564.16 1611.50193,564.06 C1611.68193,563.94 1611.78193,563.78 1611.78193,563.62 C1611.78193,563.48 1611.76193,563.3 1611.74193,563.06 C1611.70193,562.82 1611.68193,562.62 1611.68193,562.5 C1611.68193,562.18 1611.70193,561.9 1611.78193,561.68 C1611.78193,561.64 1611.82193,561.54 1611.90193,561.38 C1611.98193,561.2 1612.04193,561.08 1612.04193,561.04 L1612.04193,561.04 Z M1609.70193,553.72 C1609.70193,556.44 1609.58193,558.64 1609.34193,560.3 C1607.78193,560.4 1606.72193,560.48 1606.14193,560.56 C1607.12193,559 1607.80193,556.84 1608.18193,554.12 C1608.50193,553.96 1609.02193,553.82 1609.70193,553.72 L1609.70193,553.72 Z M1621.82193,560.64 C1621.82193,560.44 1621.74193,560.24 1621.58193,560.04 C1621.42193,559.88 1621.22193,559.78 1621.02193,559.78 C1620.86193,559.78 1620.60193,559.82 1620.26193,559.86 C1619.92193,559.9 1619.66193,559.92 1619.50193,559.92 C1618.90193,559.92 1618.38193,559.64 1617.90193,559.06 C1619.90193,557.98 1620.90193,556.7 1620.90193,555.22 C1620.90193,554.66 1620.66193,554.12 1620.18193,553.64 C1619.70193,553.16 1619.22193,552.92 1618.72193,552.92 C1617.86193,552.92 1617.16193,553.42 1616.60193,554.4 C1616.12193,555.24 1615.88193,556.14 1615.88193,557.1 C1615.88193,557.3 1615.90193,557.58 1615.96193,557.92 L1615.50193,557.92 C1615.22193,557.92 1614.96193,557.82 1614.68193,557.62 C1614.40193,557.42 1614.20193,557.32 1614.08193,557.32 C1613.56193,557.32 1613.30193,557.6 1613.30193,558.16 C1613.30193,558.6 1613.62193,558.96 1614.30193,559.24 C1614.82193,559.46 1615.32193,559.56 1615.84193,559.56 L1616.44193,559.56 C1617.16193,560.94 1618.28193,561.62 1619.80193,561.62 C1621.14193,561.62 1621.82193,561.28 1621.82193,560.64 L1621.82193,560.64 Z M1619.32193,555.3 C1619.32193,555.96 1618.72193,556.68 1617.52193,557.46 L1617.52193,557.1 C1617.52193,556.56 1617.60193,556.04 1617.80193,555.54 C1618.00193,554.94 1618.28193,554.64 1618.64193,554.64 C1618.80193,554.64 1618.96193,554.72 1619.12193,554.84 C1619.24193,555 1619.32193,555.14 1619.32193,555.3 L1619.32193,555.3 Z M1631.34193,552.68 C1631.34193,552.48 1631.26193,552.28 1631.12193,552.1 C1630.98193,551.94 1630.82193,551.84 1630.64193,551.84 C1630.34193,551.84 1629.92193,551.92 1629.36193,552.04 C1627.16193,552.56 1625.20193,553.02 1623.52193,553.42 C1623.40193,553.46 1623.32193,553.46 1623.28193,553.46 C1622.88193,553.54 1622.68193,553.84 1622.68193,554.34 C1622.68193,554.9 1622.90193,555.16 1623.38193,555.16 C1623.96193,555.04 1624.42193,554.94 1624.74193,554.84 C1625.32193,554.72 1625.82193,554.6 1626.24193,554.52 C1626.16193,556.06 1626.12193,557.54 1626.12193,558.94 C1626.12193,560.3 1626.20193,561.24 1626.36193,561.76 C1626.48193,562.12 1626.72193,562.3 1627.12193,562.3 C1627.64193,562.3 1627.90193,561.82 1627.90193,560.88 C1627.90193,560.42 1627.80193,560.08 1627.64193,559.86 C1627.60193,559.36 1627.58193,558.58 1627.58193,557.5 C1627.58193,556.66 1627.64193,555.52 1627.80193,554.1 C1628.38193,553.96 1628.78193,553.86 1629.02193,553.82 C1629.20193,553.94 1629.34193,553.98 1629.44193,553.98 C1629.56193,553.98 1629.70193,553.96 1629.88193,553.88 L1630.80193,553.46 C1631.16193,553.3 1631.34193,553.04 1631.34193,552.68 L1631.34193,552.68 Z M1635.56193,560.54 C1635.56193,559.7 1635.22193,559.26 1634.56193,559.26 C1634.20193,559.26 1633.90193,559.44 1633.62193,559.8 C1633.32193,560.16 1633.18193,560.52 1633.18193,560.84 C1633.18193,561.06 1633.30193,561.36 1633.56193,561.72 C1633.82193,562.08 1634.10193,562.28 1634.40193,562.28 C1634.84193,562.28 1635.14193,562.02 1635.30193,561.54 C1635.46193,560.98 1635.56193,560.64 1635.56193,560.54 L1635.56193,560.54 Z" id="Не-запускай-это-дело" transform="translate(1500.261928, 543.620000) rotate(-10.000000) translate(-1500.261928, -543.620000) "></path>
        </g>
    </g>
</svg>