<?xml version="1.0" encoding="UTF-8"?>
<svg width="180px" height="73px" viewBox="0 0 180 73" version="1.1" xmlns="http://www.w3.org/2000/svg" xmlns:xlink="http://www.w3.org/1999/xlink">
    <!-- Generator: Sketch 40.3 (33839) - http://www.bohemiancoding.com/sketch -->
    <title>Сама готовлю, шью, с</title>
    <desc>Created with Sketch.</desc>
    <defs></defs>
    <g id="Page-1" stroke="none" stroke-width="1" fill="none" fill-rule="evenodd">
        <g id="Desktop" transform="translate(-503.000000, -561.000000)" fill="#354777">
            <g id="Group-10" transform="translate(501.000000, 539.000000)">
                <g id="Group-2">
                    <path d="M14.7139444,31.9769071 C14.7139444,31.7569071 14.6139444,31.5369071 14.4139444,31.3369071 C14.2139444,31.1369071 14.0139444,31.0369071 13.8139444,31.0369071 C13.7139444,31.0369071 13.4539444,31.1769071 13.0539444,31.4169071 C11.7939444,32.1569071 10.6739444,32.5169071 9.71394439,32.5169071 C8.19394439,32.5169071 7.43394439,31.4569071 7.43394439,29.2969071 C7.43394439,27.5569071 7.85394439,25.7969071 8.71394439,24.0369071 C9.57394439,22.2969071 10.4539444,21.4169071 11.3339444,21.4169071 C11.7739444,21.4169071 12.2139444,21.6769071 12.6539444,22.1569071 C13.0939444,22.6569071 13.4139444,22.8969071 13.6539444,22.8969071 C13.8939444,22.8969071 14.1139444,22.8169071 14.3139444,22.6369071 C14.4739444,22.4769071 14.5739444,22.2569071 14.5739444,21.9969071 C14.5739444,21.7169071 14.4139444,21.3969071 14.1339444,21.0369071 C13.8539444,20.6769071 13.4739444,20.3369071 13.0139444,20.0369071 C12.4939444,19.7169071 12.0139444,19.5569071 11.5939444,19.5569071 C9.91394439,19.5569071 8.45394439,20.6769071 7.25394439,22.9169071 C6.19394439,24.9169071 5.67394439,26.9769071 5.67394439,29.1169071 C5.67394439,30.6169071 5.97394439,31.8369071 6.57394439,32.7569071 C7.29394439,33.7969071 8.33394439,34.3369071 9.69394439,34.3369071 C10.1739444,34.3369071 10.8539444,34.2169071 11.7139444,33.9769071 C12.6139444,33.7169071 13.3339444,33.4169071 13.8939444,33.0569071 C14.4339444,32.7169071 14.7139444,32.3569071 14.7139444,31.9769071 L14.7139444,31.9769071 Z M24.0339444,29.1169071 C24.0339444,28.9369071 23.9339444,28.7369071 23.7739444,28.5369071 C23.7739444,28.0769071 23.6939444,27.6769071 23.5739444,27.3169071 C23.5939444,27.2369071 23.6139444,27.1369071 23.6139444,27.0369071 C23.6139444,26.7969071 23.4739444,26.5569071 23.2339444,26.3569071 C22.9739444,26.1569071 22.7139444,26.0369071 22.4539444,26.0369071 C21.3539444,26.0369071 20.1539444,26.6769071 18.8339444,27.9169071 C17.4539444,29.1969071 16.7739444,30.4369071 16.7739444,31.5969071 C16.7739444,32.2169071 16.9739444,32.7569071 17.4139444,33.2369071 C17.8339444,33.7369071 18.3339444,33.9769071 18.9139444,33.9769071 C19.8139444,33.9769071 20.8139444,33.4169071 21.9339444,32.2969071 C22.0339444,33.8169071 22.3739444,34.5969071 22.9539444,34.5969071 C23.1539444,34.5969071 23.3539444,34.5169071 23.5339444,34.3969071 C23.6939444,34.2369071 23.7939444,34.0369071 23.7939444,33.8369071 C23.7939444,33.7769071 23.7339444,33.5369071 23.6539444,33.0569071 C23.5539444,32.5969071 23.5139444,32.2369071 23.5139444,31.9969071 C23.5139444,31.1969071 23.6339444,30.3969071 23.9139444,29.5569071 C23.9939444,29.3369071 24.0339444,29.1969071 24.0339444,29.1169071 L24.0339444,29.1169071 Z M22.2139444,28.5369071 C22.2139444,29.2169071 21.8139444,30.0169071 21.0539444,30.9369071 C20.2939444,31.8569071 19.5939444,32.2969071 18.9939444,32.2969071 C18.5739444,32.2969071 18.3739444,32.0569071 18.3739444,31.5569071 C18.3739444,30.9169071 18.8739444,30.1169071 19.8939444,29.1369071 C20.8139444,28.2569071 21.4739444,27.7969071 21.8539444,27.7969071 C22.0939444,27.7969071 22.2139444,28.0569071 22.2139444,28.5369071 L22.2139444,28.5369071 Z M34.8139444,34.5769071 C34.8139444,34.3969071 34.7539444,34.1969071 34.6339444,33.9569071 C34.5139444,33.7169071 34.3739444,33.5569071 34.2339444,33.4369071 C33.9139444,32.7569071 33.6339444,31.5169071 33.3939444,29.7369071 C33.2339444,28.8169071 33.1139444,27.7969071 32.9939444,26.7169071 C32.9339444,26.2969071 32.6939444,26.0769071 32.2739444,26.0769071 C31.8939444,26.0769071 31.3939444,26.8969071 30.7739444,28.5369071 C30.5539444,29.0969071 30.3739444,29.5769071 30.2139444,30.0169071 C29.6739444,29.2169071 29.1939444,28.0169071 28.7539444,26.3769071 C28.5939444,25.7769071 28.3539444,25.4769071 28.0539444,25.4769071 C27.6739444,25.4769071 27.3339444,25.9369071 27.0339444,26.8369071 C26.9739444,26.8369071 26.8939444,26.8169071 26.7939444,26.8169071 C26.6539444,26.8169071 26.5339444,26.8769071 26.4539444,26.9769071 C26.3339444,27.0969071 26.2739444,27.2369071 26.2739444,27.3769071 C26.2739444,27.4169071 26.2739444,27.5369071 26.2939444,27.7369071 C26.2939444,27.9569071 26.3139444,28.0769071 26.3139444,28.1169071 C26.3139444,28.4769071 26.2739444,28.9769071 26.1939444,29.6569071 C26.1139444,30.3369071 26.0739444,31.0969071 26.0739444,31.9169071 C26.0739444,33.2569071 26.3339444,33.9169071 26.8739444,33.9169071 C27.2739444,33.9169071 27.4739444,33.4769071 27.5139444,32.5769071 C27.5739444,30.8169071 27.7339444,29.3569071 27.9739444,28.1969071 C29.0339444,30.7569071 29.8739444,32.0369071 30.4739444,32.0369071 C30.6739444,32.0369071 30.8139444,31.9569071 30.9339444,31.7569071 C31.0339444,31.5969071 31.1539444,31.2369071 31.3139444,30.7169071 C31.5739444,29.8369071 31.7939444,29.1369071 31.9739444,28.6569071 C32.1739444,30.8769071 32.4539444,32.5169071 32.8339444,33.5769071 C33.2539444,34.7969071 33.6939444,35.4169071 34.1339444,35.4169071 C34.2939444,35.4169071 34.4539444,35.3169071 34.5939444,35.1369071 C34.7339444,34.9369071 34.8139444,34.7569071 34.8139444,34.5769071 L34.8139444,34.5769071 Z M43.4939444,29.1169071 C43.4939444,28.9369071 43.3939444,28.7369071 43.2339444,28.5369071 C43.2339444,28.0769071 43.1539444,27.6769071 43.0339444,27.3169071 C43.0539444,27.2369071 43.0739444,27.1369071 43.0739444,27.0369071 C43.0739444,26.7969071 42.9339444,26.5569071 42.6939444,26.3569071 C42.4339444,26.1569071 42.1739444,26.0369071 41.9139444,26.0369071 C40.8139444,26.0369071 39.6139444,26.6769071 38.2939444,27.9169071 C36.9139444,29.1969071 36.2339444,30.4369071 36.2339444,31.5969071 C36.2339444,32.2169071 36.4339444,32.7569071 36.8739444,33.2369071 C37.2939444,33.7369071 37.7939444,33.9769071 38.3739444,33.9769071 C39.2739444,33.9769071 40.2739444,33.4169071 41.3939444,32.2969071 C41.4939444,33.8169071 41.8339444,34.5969071 42.4139444,34.5969071 C42.6139444,34.5969071 42.8139444,34.5169071 42.9939444,34.3969071 C43.1539444,34.2369071 43.2539444,34.0369071 43.2539444,33.8369071 C43.2539444,33.7769071 43.1939444,33.5369071 43.1139444,33.0569071 C43.0139444,32.5969071 42.9739444,32.2369071 42.9739444,31.9969071 C42.9739444,31.1969071 43.0939444,30.3969071 43.3739444,29.5569071 C43.4539444,29.3369071 43.4939444,29.1969071 43.4939444,29.1169071 L43.4939444,29.1169071 Z M41.6739444,28.5369071 C41.6739444,29.2169071 41.2739444,30.0169071 40.5139444,30.9369071 C39.7539444,31.8569071 39.0539444,32.2969071 38.4539444,32.2969071 C38.0339444,32.2969071 37.8339444,32.0569071 37.8339444,31.5569071 C37.8339444,30.9169071 38.3339444,30.1169071 39.3539444,29.1369071 C40.2739444,28.2569071 40.9339444,27.7969071 41.3139444,27.7969071 C41.5539444,27.7969071 41.6739444,28.0569071 41.6739444,28.5369071 L41.6739444,28.5369071 Z M59.7939444,25.8769071 C59.7939444,25.6369071 59.6939444,25.4369071 59.5139444,25.2769071 C59.3339444,25.1369071 59.1339444,25.0569071 58.9339444,25.0569071 C58.7539444,25.0569071 58.4539444,25.1169071 58.0339444,25.1969071 C56.6339444,25.4769071 55.0539444,25.6369071 53.2739444,25.6569071 C53.0939444,25.6569071 52.9339444,25.7369071 52.7939444,25.8969071 C52.6339444,26.0569071 52.5739444,26.2569071 52.5739444,26.4569071 C52.5739444,26.8569071 52.8739444,27.1169071 53.4739444,27.2369071 C53.2939444,29.1769071 52.9939444,31.1769071 52.5539444,33.2569071 C52.4339444,33.8569071 52.3739444,34.2569071 52.3739444,34.4969071 C52.3739444,35.0369071 52.6139444,35.3169071 53.1139444,35.3169071 C53.7139444,35.3169071 54.0539444,34.9969071 54.1339444,34.3769071 C54.2939444,32.7169071 54.6539444,30.2969071 55.1739444,27.1369071 C55.9539444,27.0369071 56.4739444,26.9569071 56.7339444,26.9169071 C57.3339444,26.8769071 57.9339444,26.8369071 58.5339444,26.7769071 C59.3739444,26.6569071 59.7939444,26.3569071 59.7939444,25.8769071 L59.7939444,25.8769071 Z M67.5539444,29.3569071 C67.5539444,28.5769071 67.3339444,27.8569071 66.8939444,27.2169071 C66.4339444,26.5969071 65.8539444,26.1569071 65.1539444,25.9169071 C64.8739444,25.8369071 64.7139444,25.7969071 64.6739444,25.7969071 C64.5139444,25.7969071 64.3339444,25.8969071 64.0939444,26.0569071 C63.8139444,26.2169071 63.5939444,26.3369071 63.4339444,26.3969071 C62.7539444,26.7369071 62.1939444,27.3369071 61.7939444,28.1769071 C61.3939444,28.9369071 61.2139444,29.7569071 61.2139444,30.6169071 C61.2139444,31.6369071 61.4739444,32.4769071 62.0339444,33.1369071 C62.5939444,33.7769071 63.2939444,34.1169071 64.1339444,34.1169071 C65.0939444,34.1169071 65.9139444,33.6769071 66.5739444,32.7569071 C67.2139444,31.8369071 67.5539444,30.7169071 67.5539444,29.3569071 L67.5539444,29.3569071 Z M65.9739444,29.6569071 C65.9739444,30.3369071 65.7739444,30.9569071 65.4139444,31.5369071 C65.0139444,32.1369071 64.5939444,32.4369071 64.1139444,32.4369071 C63.7139444,32.4369071 63.3939444,32.2569071 63.1539444,31.8769071 C62.8939444,31.5169071 62.7739444,31.0969071 62.7739444,30.6169071 C62.7739444,29.9769071 62.9139444,29.3769071 63.2339444,28.8169071 C63.5939444,28.1769071 64.0539444,27.8369071 64.6139444,27.8369071 C64.8139444,27.9569071 65.0739444,28.0169071 65.3939444,28.0169071 C65.7739444,28.2569071 65.9739444,28.8169071 65.9739444,29.6569071 L65.9739444,29.6569071 Z M77.6539444,25.4369071 C77.6539444,25.2369071 77.5739444,25.0369071 77.4339444,24.8569071 C77.2939444,24.6969071 77.1339444,24.5969071 76.9539444,24.5969071 C76.6539444,24.5969071 76.2339444,24.6769071 75.6739444,24.7969071 C73.4739444,25.3169071 71.5139444,25.7769071 69.8339444,26.1769071 C69.7139444,26.2169071 69.6339444,26.2169071 69.5939444,26.2169071 C69.1939444,26.2969071 68.9939444,26.5969071 68.9939444,27.0969071 C68.9939444,27.6569071 69.2139444,27.9169071 69.6939444,27.9169071 C70.2739444,27.7969071 70.7339444,27.6969071 71.0539444,27.5969071 C71.6339444,27.4769071 72.1339444,27.3569071 72.5539444,27.2769071 C72.4739444,28.8169071 72.4339444,30.2969071 72.4339444,31.6969071 C72.4339444,33.0569071 72.5139444,33.9969071 72.6739444,34.5169071 C72.7939444,34.8769071 73.0339444,35.0569071 73.4339444,35.0569071 C73.9539444,35.0569071 74.2139444,34.5769071 74.2139444,33.6369071 C74.2139444,33.1769071 74.1139444,32.8369071 73.9539444,32.6169071 C73.9139444,32.1169071 73.8939444,31.3369071 73.8939444,30.2569071 C73.8939444,29.4169071 73.9539444,28.2769071 74.1139444,26.8569071 C74.6939444,26.7169071 75.0939444,26.6169071 75.3339444,26.5769071 C75.5139444,26.6969071 75.6539444,26.7369071 75.7539444,26.7369071 C75.8739444,26.7369071 76.0139444,26.7169071 76.1939444,26.6369071 L77.1139444,26.2169071 C77.4739444,26.0569071 77.6539444,25.7969071 77.6539444,25.4369071 L77.6539444,25.4369071 Z M85.2139444,29.3569071 C85.2139444,28.5769071 84.9939444,27.8569071 84.5539444,27.2169071 C84.0939444,26.5969071 83.5139444,26.1569071 82.8139444,25.9169071 C82.5339444,25.8369071 82.3739444,25.7969071 82.3339444,25.7969071 C82.1739444,25.7969071 81.9939444,25.8969071 81.7539444,26.0569071 C81.4739444,26.2169071 81.2539444,26.3369071 81.0939444,26.3969071 C80.4139444,26.7369071 79.8539444,27.3369071 79.4539444,28.1769071 C79.0539444,28.9369071 78.8739444,29.7569071 78.8739444,30.6169071 C78.8739444,31.6369071 79.1339444,32.4769071 79.6939444,33.1369071 C80.2539444,33.7769071 80.9539444,34.1169071 81.7939444,34.1169071 C82.7539444,34.1169071 83.5739444,33.6769071 84.2339444,32.7569071 C84.8739444,31.8369071 85.2139444,30.7169071 85.2139444,29.3569071 L85.2139444,29.3569071 Z M83.6339444,29.6569071 C83.6339444,30.3369071 83.4339444,30.9569071 83.0739444,31.5369071 C82.6739444,32.1369071 82.2539444,32.4369071 81.7739444,32.4369071 C81.3739444,32.4369071 81.0539444,32.2569071 80.8139444,31.8769071 C80.5539444,31.5169071 80.4339444,31.0969071 80.4339444,30.6169071 C80.4339444,29.9769071 80.5739444,29.3769071 80.8939444,28.8169071 C81.2539444,28.1769071 81.7139444,27.8369071 82.2739444,27.8369071 C82.4739444,27.9569071 82.7339444,28.0169071 83.0539444,28.0169071 C83.4339444,28.2569071 83.6339444,28.8169071 83.6339444,29.6569071 L83.6339444,29.6569071 Z M95.2339444,31.5369071 C95.2339444,30.3969071 94.0139444,29.7769071 91.6139444,29.6769071 C93.4539444,28.8569071 94.3739444,27.9769071 94.3739444,27.0169071 C94.3739444,26.3969071 94.0539444,25.9169071 93.4339444,25.5769071 C92.9339444,25.3369071 92.3339444,25.1969071 91.6339444,25.1969071 C90.6539444,25.1969071 89.4939444,25.2569071 88.1539444,25.3769071 C87.5539444,25.4569071 87.2739444,25.6969071 87.2739444,26.1369071 C87.2739444,26.6169071 87.5339444,26.8369071 88.0939444,26.8369071 C88.1939444,26.8369071 88.3539444,26.8169071 88.5739444,26.7769071 C88.5339444,31.1969071 88.5139444,33.4769071 88.5139444,33.5969071 C87.8139444,33.6769071 87.4739444,33.9569071 87.4739444,34.4769071 C87.4739444,34.8369071 87.7139444,35.0369071 88.2339444,35.0969071 C88.6539444,35.0769071 89.2739444,34.9769071 90.0939444,34.7969071 C91.6139444,34.4369071 92.7339444,34.0769071 93.4139444,33.7569071 C94.6139444,33.1969071 95.2339444,32.4569071 95.2339444,31.5369071 L95.2339444,31.5369071 Z M92.8339444,27.1969071 C92.8339444,27.7769071 91.8939444,28.3969071 90.0139444,29.0569071 L90.0539444,26.7369071 C90.7939444,26.6769071 91.3339444,26.6369071 91.6539444,26.6369071 C92.4339444,26.6369071 92.8339444,26.8369071 92.8339444,27.1969071 L92.8339444,27.1969071 Z M93.7339444,31.7369071 C93.7339444,32.0369071 93.3939444,32.3369071 92.7139444,32.6169071 C92.0339444,32.8969071 91.1139444,33.1169071 89.9739444,33.2569071 L89.9739444,30.7369071 C91.2939444,30.7769071 92.2139444,30.8769071 92.7739444,30.9969071 C93.4139444,31.1569071 93.7339444,31.3969071 93.7339444,31.7369071 L93.7339444,31.7369071 Z M105.353944,26.6769071 C105.353944,26.3769071 105.253944,26.1169071 105.053944,25.8769071 C104.873944,25.6569071 104.653944,25.5369071 104.373944,25.5369071 C104.253944,25.5369071 104.013944,25.6569071 103.653944,25.8569071 C103.293944,26.0769071 102.413944,26.2569071 100.993944,26.4169071 C100.673944,26.1569071 100.413944,26.0169071 100.233944,26.0169071 C100.013944,26.0169071 99.7739444,26.1369071 99.5339444,26.3769071 C99.2939444,26.6169071 99.1739444,26.8769071 99.1739444,27.1169071 C99.1739444,27.2769071 99.2539444,27.4769071 99.4139444,27.6969071 C99.5539444,27.9369071 99.6339444,28.1969071 99.6339444,28.4969071 C99.6339444,29.7369071 99.5339444,30.7569071 99.3339444,31.5969071 C99.0739444,32.5769071 98.7339444,33.0569071 98.3339444,33.0569071 C98.1739444,33.0569071 98.0539444,32.8169071 98.0139444,32.2969071 C97.9739444,32.0969071 97.8939444,31.9769071 97.7339444,31.9769071 C97.4539444,31.9769071 97.2539444,32.1169071 97.1139444,32.3569071 C96.9339444,32.6369071 96.8539444,32.9569071 96.8539444,33.2969071 C96.8539444,33.6769071 96.9939444,33.9569071 97.2939444,34.1769071 C97.5739444,34.3769071 97.8939444,34.4969071 98.2539444,34.4969071 C99.2939444,34.4969071 100.033944,33.8169071 100.473944,32.4969071 C100.753944,31.6569071 100.993944,30.1369071 101.193944,27.9369071 C101.693944,27.8169071 102.453944,27.6569071 103.493944,27.4769071 C103.293944,29.4369071 103.193944,30.9169071 103.193944,31.9169071 C103.193944,33.2369071 103.273944,34.0569071 103.453944,34.3969071 C103.633944,34.7369071 103.893944,34.9169071 104.213944,34.9169071 C104.733944,34.9169071 104.993944,34.5969071 104.993944,33.9969071 C104.913944,33.6369071 104.873944,33.3169071 104.833944,33.0369071 C104.733944,32.3569071 104.693944,31.7769071 104.693944,31.2769071 C104.693944,30.1969071 104.853944,28.9369071 105.193944,27.4969071 C105.293944,27.0169071 105.353944,26.7569071 105.353944,26.6769071 L105.353944,26.6769071 Z M117.753944,30.1569071 C117.753944,28.8569071 117.133944,27.7969071 115.933944,26.9969071 C115.453944,26.6769071 114.933944,26.5169071 114.373944,26.5169071 C114.173944,26.2369071 113.833944,26.0769071 113.333944,26.0769071 C112.853944,26.0769071 112.333944,26.4369071 111.773944,27.1569071 C111.173944,27.9369071 110.833944,28.7769071 110.713944,29.6969071 C110.173944,29.5969071 109.673944,29.5169071 109.233944,29.4369071 C109.433944,28.3569071 109.573944,27.5169071 109.693944,26.9169071 C109.773944,26.6369071 109.833944,26.3969071 109.873944,26.2369071 C109.873944,25.6969071 109.613944,25.4169071 109.093944,25.4169071 C108.933944,25.4169071 108.813944,25.4569071 108.733944,25.5169071 C108.493944,25.6769071 108.273944,26.2569071 108.113944,27.2569071 C107.993944,27.9369071 107.893944,28.6169071 107.813944,29.2969071 C107.573944,29.4169071 107.453944,29.5969071 107.453944,29.7969071 C107.453944,29.8969071 107.513944,30.0769071 107.633944,30.3369071 C107.473944,31.7369071 107.393944,32.7369071 107.393944,33.2969071 C107.393944,33.5969071 107.453944,33.8769071 107.613944,34.1769071 C107.813944,34.5369071 108.073944,34.7169071 108.373944,34.7169071 C108.793944,34.7169071 109.013944,34.4569071 109.013944,33.9769071 C109.013944,33.8569071 108.973944,33.7369071 108.913944,33.5769071 C108.833944,33.4169071 108.813944,33.3369071 108.813944,33.2969071 C108.813944,32.6769071 108.873944,31.8969071 108.993944,30.9369071 C109.273944,30.9769071 109.473944,30.9769071 109.593944,30.9769071 C109.833944,30.9769071 110.193944,30.9169071 110.693944,30.7569071 C110.773944,31.8769071 111.173944,32.7569071 111.893944,33.4369071 C112.573944,34.0969071 113.433944,34.4369071 114.513944,34.4369071 C115.293944,34.4369071 116.033944,33.9969071 116.733944,33.1169071 C117.413944,32.2369071 117.753944,31.2569071 117.753944,30.1569071 L117.753944,30.1569071 Z M116.333944,29.6369071 C116.333944,30.1969071 116.233944,30.6569071 116.073944,31.0169071 C115.953944,31.2569071 115.833944,31.5169071 115.753944,31.7969071 C115.653944,32.1169071 115.453944,32.3769071 115.133944,32.5969071 C114.813944,32.8369071 114.493944,32.9369071 114.173944,32.9369071 C113.653944,32.9369071 113.193944,32.6969071 112.793944,32.1769071 C112.393944,31.6769071 112.193944,31.1169071 112.193944,30.4769071 C112.193944,29.8169071 112.353944,29.1769071 112.713944,28.5369071 C113.073944,27.8969071 113.493944,27.5169071 113.973944,27.3569071 C114.073944,27.6769071 114.373944,27.8769071 114.853944,27.9769071 C115.233944,28.0569071 115.573944,28.2769071 115.873944,28.5969071 C116.173944,28.9569071 116.333944,29.2969071 116.333944,29.6369071 L116.333944,29.6369071 Z M122.533944,33.2169071 C122.533944,32.6369071 122.233944,32.3369071 121.653944,32.3369071 C120.893944,32.3369071 120.453944,33.0369071 120.333944,34.4169071 C119.813944,35.3569071 119.213944,36.1969071 118.553944,36.9369071 C118.393944,37.1169071 118.313944,37.3369071 118.313944,37.5769071 C118.313944,38.0969071 118.553944,38.3569071 119.013944,38.3569071 C119.273944,38.3569071 119.493944,38.2569071 119.693944,38.0569071 C120.273944,37.4369071 120.833944,36.6969071 121.373944,35.8369071 C122.133944,34.5569071 122.533944,33.6969071 122.533944,33.2169071 L122.533944,33.2169071 Z M14.6339444,49.8769071 C14.6339444,49.6369071 14.5339444,49.3569071 14.3739444,49.0569071 C14.1739444,48.7769071 13.9539444,48.6169071 13.7139444,48.6169071 C13.3139444,48.6169071 13.0739444,48.7569071 12.9539444,49.0369071 C12.9739444,49.2169071 12.9939444,49.4769071 13.0339444,49.8369071 C13.0539444,50.2369071 13.0739444,50.5369071 13.0739444,50.7169071 C13.0739444,51.2769071 12.9339444,52.9769071 12.6539444,55.7769071 C11.7139444,55.8769071 11.0539444,55.9369071 10.6939444,55.9369071 C10.9739444,51.9169071 11.1139444,49.8169071 11.1139444,49.6169071 C11.1139444,48.7369071 10.7539444,48.2769071 10.0739444,48.2769071 C9.95394439,48.2769071 9.81394439,48.3369071 9.67394439,48.4369071 C9.51394439,48.5569071 9.43394439,48.6769071 9.43394439,48.7969071 C9.43394439,48.8369071 9.45394439,48.9769071 9.51394439,49.1769071 C9.53394439,49.3969071 9.55394439,49.5369071 9.55394439,49.5969071 C9.55394439,51.5169071 9.41394439,53.6769071 9.15394439,56.0969071 C8.07394439,56.2369071 7.49394439,56.2969071 7.41394439,56.2969071 C7.25394439,56.2969071 7.15394439,56.1969071 7.13394439,55.9569071 C7.13394439,55.8369071 7.19394439,54.9969071 7.27394439,53.4569071 C7.37394439,51.9169071 7.43394439,51.0569071 7.43394439,50.8569071 C7.43394439,50.1369071 7.35394439,49.6169071 7.21394439,49.2969071 C7.01394439,48.7969071 6.71394439,48.5369071 6.35394439,48.5369071 C6.19394439,48.5369071 6.03394439,48.6169071 5.91394439,48.7569071 C5.79394439,48.8769071 5.73394439,49.0369071 5.73394439,49.1969071 C5.83394439,49.7369071 5.89394439,50.2569071 5.89394439,50.7369071 C5.89394439,52.3169071 5.81394439,54.0569071 5.67394439,55.9369071 C5.71394439,56.6569071 5.93394439,57.1569071 6.33394439,57.4969071 C6.59394439,57.6969071 6.89394439,57.8169071 7.21394439,57.8169071 C8.85394439,57.5169071 10.3539444,57.3769071 11.6939444,57.3769071 C11.8339444,57.3769071 12.0539444,57.3969071 12.3539444,57.4369071 C12.6339444,57.4769071 12.8539444,57.5169071 13.0139444,57.5169071 C13.7339444,57.5169071 14.0939444,57.1169071 14.1339444,56.3569071 C14.1539444,55.5569071 14.2539444,54.3369071 14.4139444,52.6769071 C14.5539444,51.0169071 14.6339444,50.0769071 14.6339444,49.8769071 L14.6339444,49.8769071 Z M22.7539444,54.3369071 C22.7539444,53.5169071 22.4739444,52.8569071 21.9339444,52.3569071 C21.4339444,51.8969071 20.7939444,51.6569071 19.9939444,51.6569071 C19.5539444,51.6569071 19.1139444,51.7769071 18.6739444,52.0169071 C18.7539444,51.2769071 18.8139444,50.6169071 18.8739444,50.0569071 C18.9739444,49.4169071 19.0339444,48.9169071 19.0739444,48.5569071 C18.9939444,47.9769071 18.7539444,47.6769071 18.3139444,47.6769071 C17.7939444,47.6769071 17.5139444,48.0769071 17.4539444,48.8569071 C17.1339444,52.0169071 16.8939444,54.6969071 16.6939444,56.8969071 C16.7139444,57.5969071 16.9739444,57.9569071 17.4939444,57.9569071 C17.8139444,57.9569071 18.0339444,57.8169071 18.1539444,57.5569071 C18.3739444,57.6169071 18.5739444,57.6569071 18.7739444,57.6569071 C19.6539444,57.6569071 20.5139444,57.3369071 21.3539444,56.7169071 C22.2739444,56.0369071 22.7539444,55.2569071 22.7539444,54.3369071 L22.7539444,54.3369071 Z M21.2339444,54.0969071 C21.2339444,54.6969071 20.9139444,55.2369071 20.3139444,55.6969071 C19.7539444,56.1369071 19.2139444,56.3569071 18.6939444,56.3569071 C18.6139444,56.3569071 18.4739444,56.3369071 18.3139444,56.2969071 L18.4939444,53.9969071 C18.8539444,53.3969071 19.3339444,53.0769071 19.9539444,53.0769071 C20.2739444,53.0769071 20.5539444,53.1769071 20.8339444,53.3769071 C21.0939444,53.5769071 21.2339444,53.8169071 21.2339444,54.0969071 L21.2339444,54.0969071 Z M34.9539444,53.1569071 C34.9539444,51.8569071 34.3339444,50.7969071 33.1339444,49.9969071 C32.6539444,49.6769071 32.1339444,49.5169071 31.5739444,49.5169071 C31.3739444,49.2369071 31.0339444,49.0769071 30.5339444,49.0769071 C30.0539444,49.0769071 29.5339444,49.4369071 28.9739444,50.1569071 C28.3739444,50.9369071 28.0339444,51.7769071 27.9139444,52.6969071 C27.3739444,52.5969071 26.8739444,52.5169071 26.4339444,52.4369071 C26.6339444,51.3569071 26.7739444,50.5169071 26.8939444,49.9169071 C26.9739444,49.6369071 27.0339444,49.3969071 27.0739444,49.2369071 C27.0739444,48.6969071 26.8139444,48.4169071 26.2939444,48.4169071 C26.1339444,48.4169071 26.0139444,48.4569071 25.9339444,48.5169071 C25.6939444,48.6769071 25.4739444,49.2569071 25.3139444,50.2569071 C25.1939444,50.9369071 25.0939444,51.6169071 25.0139444,52.2969071 C24.7739444,52.4169071 24.6539444,52.5969071 24.6539444,52.7969071 C24.6539444,52.8969071 24.7139444,53.0769071 24.8339444,53.3369071 C24.6739444,54.7369071 24.5939444,55.7369071 24.5939444,56.2969071 C24.5939444,56.5969071 24.6539444,56.8769071 24.8139444,57.1769071 C25.0139444,57.5369071 25.2739444,57.7169071 25.5739444,57.7169071 C25.9939444,57.7169071 26.2139444,57.4569071 26.2139444,56.9769071 C26.2139444,56.8569071 26.1739444,56.7369071 26.1139444,56.5769071 C26.0339444,56.4169071 26.0139444,56.3369071 26.0139444,56.2969071 C26.0139444,55.6769071 26.0739444,54.8969071 26.1939444,53.9369071 C26.4739444,53.9769071 26.6739444,53.9769071 26.7939444,53.9769071 C27.0339444,53.9769071 27.3939444,53.9169071 27.8939444,53.7569071 C27.9739444,54.8769071 28.3739444,55.7569071 29.0939444,56.4369071 C29.7739444,57.0969071 30.6339444,57.4369071 31.7139444,57.4369071 C32.4939444,57.4369071 33.2339444,56.9969071 33.9339444,56.1169071 C34.6139444,55.2369071 34.9539444,54.2569071 34.9539444,53.1569071 L34.9539444,53.1569071 Z M33.5339444,52.6369071 C33.5339444,53.1969071 33.4339444,53.6569071 33.2739444,54.0169071 C33.1539444,54.2569071 33.0339444,54.5169071 32.9539444,54.7969071 C32.8539444,55.1169071 32.6539444,55.3769071 32.3339444,55.5969071 C32.0139444,55.8369071 31.6939444,55.9369071 31.3739444,55.9369071 C30.8539444,55.9369071 30.3939444,55.6969071 29.9939444,55.1769071 C29.5939444,54.6769071 29.3939444,54.1169071 29.3939444,53.4769071 C29.3939444,52.8169071 29.5539444,52.1769071 29.9139444,51.5369071 C30.2739444,50.8969071 30.6939444,50.5169071 31.1739444,50.3569071 C31.2739444,50.6769071 31.5739444,50.8769071 32.0539444,50.9769071 C32.4339444,51.0569071 32.7739444,51.2769071 33.0739444,51.5969071 C33.3739444,51.9569071 33.5339444,52.2969071 33.5339444,52.6369071 L33.5339444,52.6369071 Z M39.7339444,56.2169071 C39.7339444,55.6369071 39.4339444,55.3369071 38.8539444,55.3369071 C38.0939444,55.3369071 37.6539444,56.0369071 37.5339444,57.4169071 C37.0139444,58.3569071 36.4139444,59.1969071 35.7539444,59.9369071 C35.5939444,60.1169071 35.5139444,60.3369071 35.5139444,60.5769071 C35.5139444,61.0969071 35.7539444,61.3569071 36.2139444,61.3569071 C36.4739444,61.3569071 36.6939444,61.2569071 36.8939444,61.0569071 C37.4739444,60.4369071 38.0339444,59.6969071 38.5739444,58.8369071 C39.3339444,57.5569071 39.7339444,56.6969071 39.7339444,56.2169071 L39.7339444,56.2169071 Z M55.5739444,54.9169071 C55.5739444,54.7169071 55.4939444,54.5169071 55.3339444,54.3169071 C55.1739444,54.1569071 54.9939444,54.0569071 54.7939444,54.0569071 C54.6339444,54.0569071 54.3939444,54.1969071 54.1139444,54.4569071 C53.8739444,54.6569071 53.6339444,54.8569071 53.4339444,55.0569071 C53.0939444,55.3169071 52.6739444,55.4369071 52.1739444,55.4369071 C51.3739444,55.4369071 50.9939444,54.9569071 50.9939444,53.9569071 C50.9939444,53.3369071 51.1739444,52.7169071 51.5339444,52.1169071 C51.8939444,51.5169071 52.3339444,51.0169071 52.8739444,50.6569071 C53.1139444,50.7969071 53.4739444,50.8569071 53.9739444,50.8569071 C54.2339444,50.8569071 54.4939444,50.7569071 54.7539444,50.5169071 C54.9739444,50.2769071 55.0939444,50.0569071 55.0939444,49.8169071 C55.0939444,49.4969071 54.9739444,49.2569071 54.7339444,49.0569071 C54.4739444,48.8769071 54.1939444,48.7769071 53.8939444,48.7769071 C52.6339444,48.7769071 51.5139444,49.4369071 50.5539444,50.7369071 C49.7739444,51.7769071 49.3939444,52.9169071 49.3939444,54.1569071 C49.3939444,55.0369071 49.6739444,55.7369071 50.2339444,56.2969071 C50.7939444,56.8369071 51.4939444,57.1169071 52.3339444,57.1169071 C53.0939444,57.1169071 53.8739444,56.8169071 54.6339444,56.2169071 C55.2539444,55.7369071 55.5739444,55.3169071 55.5739444,54.9169071 L55.5739444,54.9169071 Z M65.4539444,48.4369071 C65.4539444,48.2369071 65.3739444,48.0369071 65.2339444,47.8569071 C65.0939444,47.6969071 64.9339444,47.5969071 64.7539444,47.5969071 C64.4539444,47.5969071 64.0339444,47.6769071 63.4739444,47.7969071 C61.2739444,48.3169071 59.3139444,48.7769071 57.6339444,49.1769071 C57.5139444,49.2169071 57.4339444,49.2169071 57.3939444,49.2169071 C56.9939444,49.2969071 56.7939444,49.5969071 56.7939444,50.0969071 C56.7939444,50.6569071 57.0139444,50.9169071 57.4939444,50.9169071 C58.0739444,50.7969071 58.5339444,50.6969071 58.8539444,50.5969071 C59.4339444,50.4769071 59.9339444,50.3569071 60.3539444,50.2769071 C60.2739444,51.8169071 60.2339444,53.2969071 60.2339444,54.6969071 C60.2339444,56.0569071 60.3139444,56.9969071 60.4739444,57.5169071 C60.5939444,57.8769071 60.8339444,58.0569071 61.2339444,58.0569071 C61.7539444,58.0569071 62.0139444,57.5769071 62.0139444,56.6369071 C62.0139444,56.1769071 61.9139444,55.8369071 61.7539444,55.6169071 C61.7139444,55.1169071 61.6939444,54.3369071 61.6939444,53.2569071 C61.6939444,52.4169071 61.7539444,51.2769071 61.9139444,49.8569071 C62.4939444,49.7169071 62.8939444,49.6169071 63.1339444,49.5769071 C63.3139444,49.6969071 63.4539444,49.7369071 63.5539444,49.7369071 C63.6739444,49.7369071 63.8139444,49.7169071 63.9939444,49.6369071 L64.9139444,49.2169071 C65.2739444,49.0569071 65.4539444,48.7969071 65.4539444,48.4369071 L65.4539444,48.4369071 Z M74.0939444,56.8769071 C74.0939444,56.7369071 73.9939444,56.5569071 73.8139444,56.3569071 C73.3739444,55.8769071 73.1739444,54.6569071 73.1739444,52.6969071 C73.1739444,51.9969071 73.2739444,50.8169071 73.4939444,49.1569071 C73.4939444,48.9369071 73.3939444,48.7369071 73.2339444,48.5369071 C73.0539444,48.3569071 72.8539444,48.2569071 72.6339444,48.2569071 C72.2939444,48.2569071 71.5739444,48.9969071 70.4939444,50.4769071 C69.6139444,51.6369071 68.8939444,52.6969071 68.2939444,53.6169071 C68.4339444,52.0569071 68.5339444,50.9169071 68.5939444,50.2369071 C68.5939444,49.9169071 68.4739444,49.6369071 68.2739444,49.3969071 C68.0739444,49.1769071 67.8139444,49.0569071 67.4939444,49.0569071 C67.3139444,49.0569071 67.1539444,49.1769071 66.9939444,49.3969071 C67.0339444,49.9769071 67.0739444,50.3169071 67.0739444,50.3969071 C67.0739444,50.7569071 67.0139444,51.6569071 66.9139444,53.1169071 L66.8739444,53.6969071 C66.8539444,53.9969071 66.8139444,54.3969071 66.7739444,54.8969071 C66.7139444,55.3769071 66.6739444,55.6769071 66.6739444,55.7969071 C66.6939444,56.0769071 66.7739444,56.2969071 66.9339444,56.4169071 C67.2539444,56.7369071 67.4539444,56.8769071 67.5339444,56.8769071 C67.8139444,56.8769071 68.1539444,56.5769071 68.5139444,55.9369071 C69.2539444,54.6969071 69.7739444,53.8169071 70.0939444,53.3369071 C70.6139444,52.4769071 71.1739444,51.6769071 71.7939444,50.9569071 C71.7939444,51.1569071 71.7739444,51.5769071 71.7739444,52.1969071 C71.7539444,52.8369071 71.7539444,53.1769071 71.7539444,53.2569071 C71.7539444,54.2969071 71.8539444,55.1769071 72.0739444,55.9369071 C72.3739444,57.0369071 72.8139444,57.5969071 73.3739444,57.5969071 C73.4939444,57.5969071 73.6539444,57.4969071 73.8339444,57.3369071 C73.9939444,57.1369071 74.0939444,56.9969071 74.0939444,56.8769071 L74.0939444,56.8769071 Z M83.3739444,49.8369071 C83.3739444,48.8769071 83.1539444,48.0769071 82.7139444,47.4369071 C82.2339444,46.7369071 81.5339444,46.3769071 80.6539444,46.3769071 C79.3939444,46.3769071 78.4139444,47.2569071 77.7139444,49.0169071 C77.2339444,50.2369071 76.9939444,51.6369071 76.9939444,53.1969071 C76.9939444,53.3969071 76.9939444,53.5569071 77.0139444,53.6569071 C76.4539444,53.8569071 76.1939444,54.1569071 76.1939444,54.5769071 C76.1939444,55.0969071 76.4539444,55.3769071 77.0139444,55.4169071 C77.0539444,55.7369071 77.0739444,56.2169071 77.0739444,56.8569071 C77.0739444,58.1369071 76.9939444,59.0369071 76.8739444,59.5969071 C76.7339444,60.1369071 76.6739444,60.4369071 76.6739444,60.4969071 C76.6739444,60.7169071 76.7539444,60.9169071 76.9139444,61.0969071 C77.0739444,61.2569071 77.2739444,61.3569071 77.4939444,61.3569071 C77.9139444,61.3569071 78.2139444,60.9369071 78.3939444,60.1169071 C78.5939444,59.1969071 78.6939444,58.2569071 78.6939444,57.3369071 C78.6939444,56.4969071 78.6539444,55.6769071 78.5939444,54.8769071 C81.7739444,53.7169071 83.3739444,52.0369071 83.3739444,49.8369071 L83.3739444,49.8369071 Z M81.7739444,49.4969071 C81.7739444,51.1369071 80.7139444,52.3369071 78.6139444,53.0969071 C78.6139444,52.0169071 78.7939444,50.9169071 79.1739444,49.8369071 C79.5939444,48.6569071 80.0939444,48.0569071 80.6539444,48.0569071 C80.9939444,48.0569071 81.2739444,48.2169071 81.4939444,48.4969071 C81.6739444,48.7769071 81.7739444,49.1169071 81.7739444,49.4969071 L81.7739444,49.4969071 Z M92.6139444,52.1169071 C92.6139444,51.9369071 92.5139444,51.7369071 92.3539444,51.5369071 C92.3539444,51.0769071 92.2739444,50.6769071 92.1539444,50.3169071 C92.1739444,50.2369071 92.1939444,50.1369071 92.1939444,50.0369071 C92.1939444,49.7969071 92.0539444,49.5569071 91.8139444,49.3569071 C91.5539444,49.1569071 91.2939444,49.0369071 91.0339444,49.0369071 C89.9339444,49.0369071 88.7339444,49.6769071 87.4139444,50.9169071 C86.0339444,52.1969071 85.3539444,53.4369071 85.3539444,54.5969071 C85.3539444,55.2169071 85.5539444,55.7569071 85.9939444,56.2369071 C86.4139444,56.7369071 86.9139444,56.9769071 87.4939444,56.9769071 C88.3939444,56.9769071 89.3939444,56.4169071 90.5139444,55.2969071 C90.6139444,56.8169071 90.9539444,57.5969071 91.5339444,57.5969071 C91.7339444,57.5969071 91.9339444,57.5169071 92.1139444,57.3969071 C92.2739444,57.2369071 92.3739444,57.0369071 92.3739444,56.8369071 C92.3739444,56.7769071 92.3139444,56.5369071 92.2339444,56.0569071 C92.1339444,55.5969071 92.0939444,55.2369071 92.0939444,54.9969071 C92.0939444,54.1969071 92.2139444,53.3969071 92.4939444,52.5569071 C92.5739444,52.3369071 92.6139444,52.1969071 92.6139444,52.1169071 L92.6139444,52.1169071 Z M90.7939444,51.5369071 C90.7939444,52.2169071 90.3939444,53.0169071 89.6339444,53.9369071 C88.8739444,54.8569071 88.1739444,55.2969071 87.5739444,55.2969071 C87.1539444,55.2969071 86.9539444,55.0569071 86.9539444,54.5569071 C86.9539444,53.9169071 87.4539444,53.1169071 88.4739444,52.1369071 C89.3939444,51.2569071 90.0539444,50.7969071 90.4339444,50.7969071 C90.6739444,50.7969071 90.7939444,51.0569071 90.7939444,51.5369071 L90.7939444,51.5369071 Z M105.013944,53.1569071 C105.013944,51.8569071 104.393944,50.7969071 103.193944,49.9969071 C102.713944,49.6769071 102.193944,49.5169071 101.633944,49.5169071 C101.433944,49.2369071 101.093944,49.0769071 100.593944,49.0769071 C100.113944,49.0769071 99.5939444,49.4369071 99.0339444,50.1569071 C98.4339444,50.9369071 98.0939444,51.7769071 97.9739444,52.6969071 C97.4339444,52.5969071 96.9339444,52.5169071 96.4939444,52.4369071 C96.6939444,51.3569071 96.8339444,50.5169071 96.9539444,49.9169071 C97.0339444,49.6369071 97.0939444,49.3969071 97.1339444,49.2369071 C97.1339444,48.6969071 96.8739444,48.4169071 96.3539444,48.4169071 C96.1939444,48.4169071 96.0739444,48.4569071 95.9939444,48.5169071 C95.7539444,48.6769071 95.5339444,49.2569071 95.3739444,50.2569071 C95.2539444,50.9369071 95.1539444,51.6169071 95.0739444,52.2969071 C94.8339444,52.4169071 94.7139444,52.5969071 94.7139444,52.7969071 C94.7139444,52.8969071 94.7739444,53.0769071 94.8939444,53.3369071 C94.7339444,54.7369071 94.6539444,55.7369071 94.6539444,56.2969071 C94.6539444,56.5969071 94.7139444,56.8769071 94.8739444,57.1769071 C95.0739444,57.5369071 95.3339444,57.7169071 95.6339444,57.7169071 C96.0539444,57.7169071 96.2739444,57.4569071 96.2739444,56.9769071 C96.2739444,56.8569071 96.2339444,56.7369071 96.1739444,56.5769071 C96.0939444,56.4169071 96.0739444,56.3369071 96.0739444,56.2969071 C96.0739444,55.6769071 96.1339444,54.8969071 96.2539444,53.9369071 C96.5339444,53.9769071 96.7339444,53.9769071 96.8539444,53.9769071 C97.0939444,53.9769071 97.4539444,53.9169071 97.9539444,53.7569071 C98.0339444,54.8769071 98.4339444,55.7569071 99.1539444,56.4369071 C99.8339444,57.0969071 100.693944,57.4369071 101.773944,57.4369071 C102.553944,57.4369071 103.293944,56.9969071 103.993944,56.1169071 C104.673944,55.2369071 105.013944,54.2569071 105.013944,53.1569071 L105.013944,53.1569071 Z M103.593944,52.6369071 C103.593944,53.1969071 103.493944,53.6569071 103.333944,54.0169071 C103.213944,54.2569071 103.093944,54.5169071 103.013944,54.7969071 C102.913944,55.1169071 102.713944,55.3769071 102.393944,55.5969071 C102.073944,55.8369071 101.753944,55.9369071 101.433944,55.9369071 C100.913944,55.9369071 100.453944,55.6969071 100.053944,55.1769071 C99.6539444,54.6769071 99.4539444,54.1169071 99.4539444,53.4769071 C99.4539444,52.8169071 99.6139444,52.1769071 99.9739444,51.5369071 C100.333944,50.8969071 100.753944,50.5169071 101.233944,50.3569071 C101.333944,50.6769071 101.633944,50.8769071 102.113944,50.9769071 C102.493944,51.0569071 102.833944,51.2769071 103.133944,51.5969071 C103.433944,51.9569071 103.593944,52.2969071 103.593944,52.6369071 L103.593944,52.6369071 Z M109.793944,56.2169071 C109.793944,55.6369071 109.493944,55.3369071 108.913944,55.3369071 C108.153944,55.3369071 107.713944,56.0369071 107.593944,57.4169071 C107.073944,58.3569071 106.473944,59.1969071 105.813944,59.9369071 C105.653944,60.1169071 105.573944,60.3369071 105.573944,60.5769071 C105.573944,61.0969071 105.813944,61.3569071 106.273944,61.3569071 C106.533944,61.3569071 106.753944,61.2569071 106.953944,61.0569071 C107.533944,60.4369071 108.093944,59.6969071 108.633944,58.8369071 C109.393944,57.5569071 109.793944,56.6969071 109.793944,56.2169071 L109.793944,56.2169071 Z M13.6139444,79.3969071 C13.6139444,79.1969071 13.5339444,78.9969071 13.3739444,78.7969071 C13.2139444,78.6369071 13.0139444,78.5369071 12.8139444,78.5369071 C12.6539444,78.5369071 12.3939444,78.5769071 12.0539444,78.6169071 C11.7139444,78.6569071 11.4539444,78.6769071 11.2939444,78.6769071 C10.6939444,78.6769071 10.1739444,78.3969071 9.69394439,77.8169071 C11.6939444,76.7369071 12.6939444,75.4569071 12.6939444,73.9769071 C12.6939444,73.4169071 12.4539444,72.8769071 11.9739444,72.3969071 C11.4939444,71.9169071 11.0139444,71.6769071 10.5139444,71.6769071 C9.65394439,71.6769071 8.95394439,72.1769071 8.39394439,73.1569071 C7.91394439,73.9969071 7.67394439,74.8969071 7.67394439,75.8569071 C7.67394439,76.0569071 7.69394439,76.3369071 7.75394439,76.6769071 L7.29394439,76.6769071 C7.01394439,76.6769071 6.75394439,76.5769071 6.47394439,76.3769071 C6.19394439,76.1769071 5.99394439,76.0769071 5.87394439,76.0769071 C5.35394439,76.0769071 5.09394439,76.3569071 5.09394439,76.9169071 C5.09394439,77.3569071 5.41394439,77.7169071 6.09394439,77.9969071 C6.61394439,78.2169071 7.11394439,78.3169071 7.63394439,78.3169071 L8.23394439,78.3169071 C8.95394439,79.6969071 10.0739444,80.3769071 11.5939444,80.3769071 C12.9339444,80.3769071 13.6139444,80.0369071 13.6139444,79.3969071 L13.6139444,79.3969071 Z M11.1139444,74.0569071 C11.1139444,74.7169071 10.5139444,75.4369071 9.31394439,76.2169071 L9.31394439,75.8569071 C9.31394439,75.3169071 9.39394439,74.7969071 9.59394439,74.2969071 C9.79394439,73.6969071 10.0739444,73.3969071 10.4339444,73.3969071 C10.5939444,73.3969071 10.7539444,73.4769071 10.9139444,73.5969071 C11.0339444,73.7569071 11.1139444,73.8969071 11.1139444,74.0569071 L11.1139444,74.0569071 Z M24.8539444,79.7169071 C24.8539444,78.9569071 24.5739444,78.5569071 24.0339444,78.5169071 C23.7739444,78.5569071 23.5939444,78.5969071 23.5139444,78.5969071 C23.6339444,77.5169071 23.7339444,76.3769071 23.8139444,75.1369071 C23.8339444,74.7769071 23.8739444,74.2769071 23.9339444,73.6369071 C23.9739444,73.1569071 24.0139444,72.8369071 24.0139444,72.7169071 C24.0139444,72.5969071 23.8739444,72.3569071 23.6139444,72.0169071 C23.4139444,71.7769071 23.2139444,71.6369071 23.0139444,71.6369071 C22.6539444,71.6369071 22.4339444,71.7569071 22.3339444,71.9769071 C22.3939444,72.4169071 22.4339444,72.9569071 22.4339444,73.5569071 C22.4339444,74.0969071 22.3739444,74.9969071 22.2539444,76.2569071 C22.1539444,77.4769071 22.0739444,78.3169071 21.9939444,78.7769071 L20.0739444,78.9769071 L20.4939444,72.6769071 C20.4539444,71.7969071 20.0939444,71.3569071 19.4339444,71.3569071 C19.1139444,71.3569071 18.9139444,71.5169071 18.8339444,71.8169071 C18.8939444,72.0769071 18.9339444,72.2969071 18.9339444,72.4969071 C18.9339444,74.8569071 18.7939444,77.0769071 18.5339444,79.1569071 C17.6539444,79.2769071 17.0939444,79.3369071 16.8339444,79.3369071 C16.6539444,79.3169071 16.5739444,79.2169071 16.5739444,79.0569071 C16.5739444,78.9569071 16.6139444,78.0569071 16.6939444,76.3769071 C16.7939444,74.6969071 16.8539444,73.7569071 16.8739444,73.5769071 C16.8339444,73.0569071 16.7739444,72.6369071 16.6739444,72.3369071 C16.4939444,71.8169071 16.1939444,71.5569071 15.7939444,71.5569071 C15.3539444,71.5569071 15.1539444,71.7769071 15.1539444,72.1769071 C15.1539444,72.3769071 15.1739444,72.6569071 15.2539444,73.0169071 C15.2939444,73.3969071 15.3339444,73.6769071 15.3339444,73.8569071 C15.3339444,74.6969071 15.2939444,75.7369071 15.2139444,76.9369071 C15.1339444,78.1569071 15.0939444,78.8369071 15.0939444,78.9969071 C15.0939444,79.3969071 15.1139444,79.6769071 15.1739444,79.8369071 C15.2539444,80.0769071 15.4539444,80.3169071 15.7539444,80.5169071 C16.0539444,80.7169071 16.3339444,80.8369071 16.5739444,80.8369071 C17.4339444,80.6169071 18.3939444,80.4969071 19.4339444,80.4569071 C20.2739444,80.4169071 20.8539444,80.3569071 21.1939444,80.2969071 C21.7939444,80.1769071 22.1339444,80.1369071 22.2139444,80.1369071 C22.2739444,80.1369071 22.3539444,80.1369071 22.4539444,80.1769071 C22.5339444,80.1969071 22.6139444,80.2169071 22.6539444,80.2169071 C22.6939444,80.2169071 22.7539444,80.1969071 22.8739444,80.1769071 C22.9739444,80.1569071 23.0339444,80.1569071 23.0739444,80.1569071 C23.1939444,80.1569071 23.2539444,80.2169071 23.2539444,80.3369071 C23.2539444,80.5169071 23.2139444,80.7969071 23.1339444,81.1569071 C23.0539444,81.4969071 23.0139444,81.7569071 23.0139444,81.9569071 C23.0139444,82.2169071 23.1739444,82.3569071 23.5339444,82.3569071 C23.8539444,82.3569071 24.1739444,82.0369071 24.4739444,81.3969071 C24.7139444,80.8369071 24.8539444,80.2769071 24.8539444,79.7169071 L24.8539444,79.7169071 Z M34.4339444,79.3969071 C34.4339444,79.1969071 34.3539444,78.9969071 34.1939444,78.7969071 C34.0339444,78.6369071 33.8339444,78.5369071 33.6339444,78.5369071 C33.4739444,78.5369071 33.2139444,78.5769071 32.8739444,78.6169071 C32.5339444,78.6569071 32.2739444,78.6769071 32.1139444,78.6769071 C31.5139444,78.6769071 30.9939444,78.3969071 30.5139444,77.8169071 C32.5139444,76.7369071 33.5139444,75.4569071 33.5139444,73.9769071 C33.5139444,73.4169071 33.2739444,72.8769071 32.7939444,72.3969071 C32.3139444,71.9169071 31.8339444,71.6769071 31.3339444,71.6769071 C30.4739444,71.6769071 29.7739444,72.1769071 29.2139444,73.1569071 C28.7339444,73.9969071 28.4939444,74.8969071 28.4939444,75.8569071 C28.4939444,76.0569071 28.5139444,76.3369071 28.5739444,76.6769071 L28.1139444,76.6769071 C27.8339444,76.6769071 27.5739444,76.5769071 27.2939444,76.3769071 C27.0139444,76.1769071 26.8139444,76.0769071 26.6939444,76.0769071 C26.1739444,76.0769071 25.9139444,76.3569071 25.9139444,76.9169071 C25.9139444,77.3569071 26.2339444,77.7169071 26.9139444,77.9969071 C27.4339444,78.2169071 27.9339444,78.3169071 28.4539444,78.3169071 L29.0539444,78.3169071 C29.7739444,79.6969071 30.8939444,80.3769071 32.4139444,80.3769071 C33.7539444,80.3769071 34.4339444,80.0369071 34.4339444,79.3969071 L34.4339444,79.3969071 Z M31.9339444,74.0569071 C31.9339444,74.7169071 31.3339444,75.4369071 30.1339444,76.2169071 L30.1339444,75.8569071 C30.1339444,75.3169071 30.2139444,74.7969071 30.4139444,74.2969071 C30.6139444,73.6969071 30.8939444,73.3969071 31.2539444,73.3969071 C31.4139444,73.3969071 31.5739444,73.4769071 31.7339444,73.5969071 C31.8539444,73.7569071 31.9339444,73.8969071 31.9339444,74.0569071 L31.9339444,74.0569071 Z M50.1739444,79.8769071 C50.1739444,79.7369071 50.0739444,79.5569071 49.8939444,79.3569071 C49.4539444,78.8769071 49.2539444,77.6569071 49.2539444,75.6969071 C49.2539444,74.9969071 49.3539444,73.8169071 49.5739444,72.1569071 C49.5739444,71.9369071 49.4739444,71.7369071 49.3139444,71.5369071 C49.1339444,71.3569071 48.9339444,71.2569071 48.7139444,71.2569071 C48.3739444,71.2569071 47.6539444,71.9969071 46.5739444,73.4769071 C45.6939444,74.6369071 44.9739444,75.6969071 44.3739444,76.6169071 C44.5139444,75.0569071 44.6139444,73.9169071 44.6739444,73.2369071 C44.6739444,72.9169071 44.5539444,72.6369071 44.3539444,72.3969071 C44.1539444,72.1769071 43.8939444,72.0569071 43.5739444,72.0569071 C43.3939444,72.0569071 43.2339444,72.1769071 43.0739444,72.3969071 C43.1139444,72.9769071 43.1539444,73.3169071 43.1539444,73.3969071 C43.1539444,73.7569071 43.0939444,74.6569071 42.9939444,76.1169071 L42.9539444,76.6969071 C42.9339444,76.9969071 42.8939444,77.3969071 42.8539444,77.8969071 C42.7939444,78.3769071 42.7539444,78.6769071 42.7539444,78.7969071 C42.7739444,79.0769071 42.8539444,79.2969071 43.0139444,79.4169071 C43.3339444,79.7369071 43.5339444,79.8769071 43.6139444,79.8769071 C43.8939444,79.8769071 44.2339444,79.5769071 44.5939444,78.9369071 C45.3339444,77.6969071 45.8539444,76.8169071 46.1739444,76.3369071 C46.6939444,75.4769071 47.2539444,74.6769071 47.8739444,73.9569071 C47.8739444,74.1569071 47.8539444,74.5769071 47.8539444,75.1969071 C47.8339444,75.8369071 47.8339444,76.1769071 47.8339444,76.2569071 C47.8339444,77.2969071 47.9339444,78.1769071 48.1539444,78.9369071 C48.4539444,80.0369071 48.8939444,80.5969071 49.4539444,80.5969071 C49.5739444,80.5969071 49.7339444,80.4969071 49.9139444,80.3369071 C50.0739444,80.1369071 50.1739444,79.9969071 50.1739444,79.8769071 L50.1739444,79.8769071 Z M67.0139444,77.5369071 C67.0139444,76.3969071 65.7939444,75.7769071 63.3939444,75.6769071 C65.2339444,74.8569071 66.1539444,73.9769071 66.1539444,73.0169071 C66.1539444,72.3969071 65.8339444,71.9169071 65.2139444,71.5769071 C64.7139444,71.3369071 64.1139444,71.1969071 63.4139444,71.1969071 C62.4339444,71.1969071 61.2739444,71.2569071 59.9339444,71.3769071 C59.3339444,71.4569071 59.0539444,71.6969071 59.0539444,72.1369071 C59.0539444,72.6169071 59.3139444,72.8369071 59.8739444,72.8369071 C59.9739444,72.8369071 60.1339444,72.8169071 60.3539444,72.7769071 C60.3139444,77.1969071 60.2939444,79.4769071 60.2939444,79.5969071 C59.5939444,79.6769071 59.2539444,79.9569071 59.2539444,80.4769071 C59.2539444,80.8369071 59.4939444,81.0369071 60.0139444,81.0969071 C60.4339444,81.0769071 61.0539444,80.9769071 61.8739444,80.7969071 C63.3939444,80.4369071 64.5139444,80.0769071 65.1939444,79.7569071 C66.3939444,79.1969071 67.0139444,78.4569071 67.0139444,77.5369071 L67.0139444,77.5369071 Z M64.6139444,73.1969071 C64.6139444,73.7769071 63.6739444,74.3969071 61.7939444,75.0569071 L61.8339444,72.7369071 C62.5739444,72.6769071 63.1139444,72.6369071 63.4339444,72.6369071 C64.2139444,72.6369071 64.6139444,72.8369071 64.6139444,73.1969071 L64.6139444,73.1969071 Z M65.5139444,77.7369071 C65.5139444,78.0369071 65.1739444,78.3369071 64.4939444,78.6169071 C63.8139444,78.8969071 62.8939444,79.1169071 61.7539444,79.2569071 L61.7539444,76.7369071 C63.0739444,76.7769071 63.9939444,76.8769071 64.5539444,76.9969071 C65.1939444,77.1569071 65.5139444,77.3969071 65.5139444,77.7369071 L65.5139444,77.7369071 Z M84.5139444,79.7969071 C84.5139444,79.7369071 84.4739444,79.6369071 84.3939444,79.5169071 C84.1539444,79.0769071 83.8739444,78.8569071 83.5939444,78.8569071 C83.5539444,78.8569071 83.4939444,78.8769071 83.3939444,78.8769071 C83.4939444,76.3969071 83.5739444,74.5969071 83.6539444,73.4569071 C83.6939444,72.8769071 83.8139444,72.2969071 84.0339444,71.6969071 C84.0339444,71.4969071 83.9139444,71.2769071 83.7139444,71.0769071 C83.5139444,70.8769071 83.3139444,70.7769071 83.1139444,70.7769071 C82.5939444,70.7769071 81.9739444,70.8969071 81.2339444,71.0969071 C80.3539444,71.3569071 79.7739444,71.5569071 79.4939444,71.6769071 C79.0539444,71.9169071 78.8539444,72.2169071 78.8539444,72.5569071 C78.8539444,72.6569071 78.8939444,72.7969071 78.9939444,72.9969071 C79.0539444,73.1969071 79.0939444,73.3369071 79.0939444,73.4169071 C79.0939444,74.2969071 78.8739444,75.2969071 78.4339444,76.4569071 C77.9539444,77.6769071 77.4139444,78.6369071 76.7739444,79.3369071 C76.1539444,79.3769071 75.8339444,79.6569071 75.7939444,80.1769071 C75.7139444,80.9569071 75.6939444,81.6369071 75.6939444,82.1969071 C75.6939444,82.3769071 75.7739444,82.5569071 75.9339444,82.7169071 C76.0939444,82.8769071 76.3139444,82.9769071 76.5539444,82.9769071 C77.0139444,82.9769071 77.2539444,82.7369071 77.2539444,82.2769071 C77.2539444,82.1969071 77.2339444,82.0969071 77.2139444,81.9569071 C77.1739444,81.8169071 77.1739444,81.7169071 77.1739444,81.6769071 C77.1739444,81.5969071 77.1739444,81.5169071 77.1939444,81.3969071 L77.1939444,81.0969071 C77.1939444,80.9369071 77.3339444,80.8369071 77.6539444,80.8169071 C78.8339444,80.6769071 79.9139444,80.5769071 80.8739444,80.5169071 C81.5739444,80.4569071 82.0739444,80.4369071 82.3539444,80.4369071 C82.5939444,80.4369071 82.7339444,80.5369071 82.7339444,80.7369071 C82.7339444,80.7969071 82.7339444,81.0169071 82.7539444,81.4169071 L82.7539444,82.1169071 C82.7539444,82.6769071 82.9539444,82.9769071 83.3939444,82.9769071 C83.5539444,82.9769071 83.7539444,82.9169071 83.9739444,82.8169071 C84.1539444,82.6969071 84.2539444,82.5369071 84.2539444,82.3769071 C84.2539444,82.2369071 84.2339444,82.0569071 84.2139444,81.8169071 C84.1739444,81.5769071 84.1539444,81.3769071 84.1539444,81.2569071 C84.1539444,80.9369071 84.1739444,80.6569071 84.2539444,80.4369071 C84.2539444,80.3969071 84.2939444,80.2969071 84.3739444,80.1369071 C84.4539444,79.9569071 84.5139444,79.8369071 84.5139444,79.7969071 L84.5139444,79.7969071 Z M82.1739444,72.4769071 C82.1739444,75.1969071 82.0539444,77.3969071 81.8139444,79.0569071 C80.2539444,79.1569071 79.1939444,79.2369071 78.6139444,79.3169071 C79.5939444,77.7569071 80.2739444,75.5969071 80.6539444,72.8769071 C80.9739444,72.7169071 81.4939444,72.5769071 82.1739444,72.4769071 L82.1739444,72.4769071 Z M92.6939444,75.3569071 C92.6939444,74.5769071 92.4739444,73.8569071 92.0339444,73.2169071 C91.5739444,72.5969071 90.9939444,72.1569071 90.2939444,71.9169071 C90.0139444,71.8369071 89.8539444,71.7969071 89.8139444,71.7969071 C89.6539444,71.7969071 89.4739444,71.8969071 89.2339444,72.0569071 C88.9539444,72.2169071 88.7339444,72.3369071 88.5739444,72.3969071 C87.8939444,72.7369071 87.3339444,73.3369071 86.9339444,74.1769071 C86.5339444,74.9369071 86.3539444,75.7569071 86.3539444,76.6169071 C86.3539444,77.6369071 86.6139444,78.4769071 87.1739444,79.1369071 C87.7339444,79.7769071 88.4339444,80.1169071 89.2739444,80.1169071 C90.2339444,80.1169071 91.0539444,79.6769071 91.7139444,78.7569071 C92.3539444,77.8369071 92.6939444,76.7169071 92.6939444,75.3569071 L92.6939444,75.3569071 Z M91.1139444,75.6569071 C91.1139444,76.3369071 90.9139444,76.9569071 90.5539444,77.5369071 C90.1539444,78.1369071 89.7339444,78.4369071 89.2539444,78.4369071 C88.8539444,78.4369071 88.5339444,78.2569071 88.2939444,77.8769071 C88.0339444,77.5169071 87.9139444,77.0969071 87.9139444,76.6169071 C87.9139444,75.9769071 88.0539444,75.3769071 88.3739444,74.8169071 C88.7339444,74.1769071 89.1939444,73.8369071 89.7539444,73.8369071 C89.9539444,73.9569071 90.2139444,74.0169071 90.5339444,74.0169071 C90.9139444,74.2569071 91.1139444,74.8169071 91.1139444,75.6569071 L91.1139444,75.6569071 Z M103.493944,80.5769071 C103.493944,80.3969071 103.433944,80.1969071 103.313944,79.9569071 C103.193944,79.7169071 103.053944,79.5569071 102.913944,79.4369071 C102.593944,78.7569071 102.313944,77.5169071 102.073944,75.7369071 C101.913944,74.8169071 101.793944,73.7969071 101.673944,72.7169071 C101.613944,72.2969071 101.373944,72.0769071 100.953944,72.0769071 C100.573944,72.0769071 100.073944,72.8969071 99.4539444,74.5369071 C99.2339444,75.0969071 99.0539444,75.5769071 98.8939444,76.0169071 C98.3539444,75.2169071 97.8739444,74.0169071 97.4339444,72.3769071 C97.2739444,71.7769071 97.0339444,71.4769071 96.7339444,71.4769071 C96.3539444,71.4769071 96.0139444,71.9369071 95.7139444,72.8369071 C95.6539444,72.8369071 95.5739444,72.8169071 95.4739444,72.8169071 C95.3339444,72.8169071 95.2139444,72.8769071 95.1339444,72.9769071 C95.0139444,73.0969071 94.9539444,73.2369071 94.9539444,73.3769071 C94.9539444,73.4169071 94.9539444,73.5369071 94.9739444,73.7369071 C94.9739444,73.9569071 94.9939444,74.0769071 94.9939444,74.1169071 C94.9939444,74.4769071 94.9539444,74.9769071 94.8739444,75.6569071 C94.7939444,76.3369071 94.7539444,77.0969071 94.7539444,77.9169071 C94.7539444,79.2569071 95.0139444,79.9169071 95.5539444,79.9169071 C95.9539444,79.9169071 96.1539444,79.4769071 96.1939444,78.5769071 C96.2539444,76.8169071 96.4139444,75.3569071 96.6539444,74.1969071 C97.7139444,76.7569071 98.5539444,78.0369071 99.1539444,78.0369071 C99.3539444,78.0369071 99.4939444,77.9569071 99.6139444,77.7569071 C99.7139444,77.5969071 99.8339444,77.2369071 99.9939444,76.7169071 C100.253944,75.8369071 100.473944,75.1369071 100.653944,74.6569071 C100.853944,76.8769071 101.133944,78.5169071 101.513944,79.5769071 C101.933944,80.7969071 102.373944,81.4169071 102.813944,81.4169071 C102.973944,81.4169071 103.133944,81.3169071 103.273944,81.1369071 C103.413944,80.9369071 103.493944,80.7569071 103.493944,80.5769071 L103.493944,80.5769071 Z M112.853944,79.3969071 C112.853944,79.1969071 112.773944,78.9969071 112.613944,78.7969071 C112.453944,78.6369071 112.253944,78.5369071 112.053944,78.5369071 C111.893944,78.5369071 111.633944,78.5769071 111.293944,78.6169071 C110.953944,78.6569071 110.693944,78.6769071 110.533944,78.6769071 C109.933944,78.6769071 109.413944,78.3969071 108.933944,77.8169071 C110.933944,76.7369071 111.933944,75.4569071 111.933944,73.9769071 C111.933944,73.4169071 111.693944,72.8769071 111.213944,72.3969071 C110.733944,71.9169071 110.253944,71.6769071 109.753944,71.6769071 C108.893944,71.6769071 108.193944,72.1769071 107.633944,73.1569071 C107.153944,73.9969071 106.913944,74.8969071 106.913944,75.8569071 C106.913944,76.0569071 106.933944,76.3369071 106.993944,76.6769071 L106.533944,76.6769071 C106.253944,76.6769071 105.993944,76.5769071 105.713944,76.3769071 C105.433944,76.1769071 105.233944,76.0769071 105.113944,76.0769071 C104.593944,76.0769071 104.333944,76.3569071 104.333944,76.9169071 C104.333944,77.3569071 104.653944,77.7169071 105.333944,77.9969071 C105.853944,78.2169071 106.353944,78.3169071 106.873944,78.3169071 L107.473944,78.3169071 C108.193944,79.6969071 109.313944,80.3769071 110.833944,80.3769071 C112.173944,80.3769071 112.853944,80.0369071 112.853944,79.3969071 L112.853944,79.3969071 Z M110.353944,74.0569071 C110.353944,74.7169071 109.753944,75.4369071 108.553944,76.2169071 L108.553944,75.8569071 C108.553944,75.3169071 108.633944,74.7969071 108.833944,74.2969071 C109.033944,73.6969071 109.313944,73.3969071 109.673944,73.3969071 C109.833944,73.3969071 109.993944,73.4769071 110.153944,73.5969071 C110.273944,73.7569071 110.353944,73.8969071 110.353944,74.0569071 L110.353944,74.0569071 Z M128.453944,76.4769071 L128.453944,75.1369071 C128.453944,73.7369071 128.133944,73.0169071 127.513944,73.0169071 C127.193944,73.0169071 126.893944,73.2969071 126.593944,73.8169071 C125.973944,74.9169071 125.493944,75.6969071 125.133944,76.1369071 C124.653944,76.7369071 124.193944,77.0369071 123.753944,77.0369071 C123.433944,77.0369071 123.293944,76.8569071 123.293944,76.4969071 C123.293944,76.1769071 123.353944,75.5569071 123.473944,74.6369071 C123.593944,73.7169071 123.673944,73.1569071 123.673944,72.9769071 C123.673944,72.4969071 123.593944,72.0569071 123.433944,71.6969071 C123.253944,71.2569071 122.993944,71.0369071 122.673944,71.0369071 C122.073944,71.0369071 121.793944,71.2969071 121.793944,71.7969071 C121.793944,71.9169071 121.813944,72.0769071 121.893944,72.3169071 C121.953944,72.5569071 121.993944,72.7169071 121.993944,72.8369071 C121.993944,73.2369071 121.933944,73.8369071 121.833944,74.6769071 C121.733944,75.5169071 121.693944,76.1569071 121.693944,76.5569071 C121.693944,77.2169071 121.873944,77.7569071 122.253944,78.1769071 C122.613944,78.6169071 123.093944,78.8169071 123.733944,78.8169071 C124.753944,78.8169071 125.793944,78.0769071 126.853944,76.5969071 C126.853944,77.2769071 126.793944,77.9169071 126.693944,78.5369071 C126.213944,81.1969071 124.453944,82.5369071 121.393944,82.5769071 C120.913944,82.5169071 120.553944,82.4769071 120.313944,82.4569071 C119.813944,82.4769071 119.553944,82.7369071 119.553944,83.2569071 C119.553944,83.9769071 120.173944,84.3569071 121.413944,84.3569071 C123.373944,84.3569071 124.953944,83.8169071 126.193944,82.7769071 C127.693944,81.4969071 128.453944,79.4169071 128.453944,76.4769071 L128.453944,76.4769071 Z M138.653944,76.0969071 C138.653944,74.9969071 138.373944,74.0969071 137.853944,73.3969071 C137.253944,72.6169071 136.433944,72.2169071 135.373944,72.2169071 C134.413944,72.2169071 133.353944,72.7169071 132.233944,73.6969071 C132.553944,71.6569071 133.913944,70.2169071 136.353944,69.4169071 C137.053944,69.1769071 137.413944,68.8369071 137.413944,68.3569071 C137.413944,68.0169071 137.293944,67.6569071 137.093944,67.2769071 C136.853944,66.9169071 136.593944,66.7169071 136.313944,66.7169071 C136.053944,66.7169071 135.913944,66.8969071 135.893944,67.2369071 C135.853944,67.6369071 135.833944,67.8369071 135.813944,67.8769071 C135.753944,67.9769071 135.553944,68.0969071 135.213944,68.2369071 C132.053944,69.5169071 130.493944,71.8969071 130.493944,75.3969071 C130.493944,76.8969071 130.793944,78.1169071 131.433944,79.0769071 C132.133944,80.0769071 133.113944,80.5969071 134.373944,80.5969071 C135.493944,80.5969071 136.473944,80.1569071 137.353944,79.2969071 C138.213944,78.4169071 138.653944,77.3569071 138.653944,76.0969071 L138.653944,76.0969071 Z M137.213944,75.6369071 C137.213944,76.5969071 136.933944,77.3969071 136.393944,78.0769071 C135.833944,78.7569071 135.133944,79.0969071 134.333944,79.0969071 C133.693944,79.0969071 133.153944,78.8169071 132.753944,78.2169071 C132.353944,77.6169071 132.153944,76.8769071 132.153944,75.9769071 C132.153944,75.8769071 132.153944,75.7369071 132.173944,75.5369071 C132.673944,75.4769071 132.953944,75.2569071 133.013944,74.8969071 C133.933944,74.1369071 134.773944,73.7369071 135.493944,73.7369071 C135.933944,73.7369071 136.333944,73.9369071 136.693944,74.2969071 C137.033944,74.6969071 137.213944,75.1369071 137.213944,75.6369071 L137.213944,75.6369071 Z M148.113944,79.8769071 C148.113944,79.7369071 148.013944,79.5569071 147.833944,79.3569071 C147.393944,78.8769071 147.193944,77.6569071 147.193944,75.6969071 C147.193944,74.9969071 147.293944,73.8169071 147.513944,72.1569071 C147.513944,71.9369071 147.413944,71.7369071 147.253944,71.5369071 C147.073944,71.3569071 146.873944,71.2569071 146.653944,71.2569071 C146.313944,71.2569071 145.593944,71.9969071 144.513944,73.4769071 C143.633944,74.6369071 142.913944,75.6969071 142.313944,76.6169071 C142.453944,75.0569071 142.553944,73.9169071 142.613944,73.2369071 C142.613944,72.9169071 142.493944,72.6369071 142.293944,72.3969071 C142.093944,72.1769071 141.833944,72.0569071 141.513944,72.0569071 C141.333944,72.0569071 141.173944,72.1769071 141.013944,72.3969071 C141.053944,72.9769071 141.093944,73.3169071 141.093944,73.3969071 C141.093944,73.7569071 141.033944,74.6569071 140.933944,76.1169071 L140.893944,76.6969071 C140.873944,76.9969071 140.833944,77.3969071 140.793944,77.8969071 C140.733944,78.3769071 140.693944,78.6769071 140.693944,78.7969071 C140.713944,79.0769071 140.793944,79.2969071 140.953944,79.4169071 C141.273944,79.7369071 141.473944,79.8769071 141.553944,79.8769071 C141.833944,79.8769071 142.173944,79.5769071 142.533944,78.9369071 C143.273944,77.6969071 143.793944,76.8169071 144.113944,76.3369071 C144.633944,75.4769071 145.193944,74.6769071 145.813944,73.9569071 C145.813944,74.1569071 145.793944,74.5769071 145.793944,75.1969071 C145.773944,75.8369071 145.773944,76.1769071 145.773944,76.2569071 C145.773944,77.2969071 145.873944,78.1769071 146.093944,78.9369071 C146.393944,80.0369071 146.833944,80.5969071 147.393944,80.5969071 C147.513944,80.5969071 147.673944,80.4969071 147.853944,80.3369071 C148.013944,80.1369071 148.113944,79.9969071 148.113944,79.8769071 L148.113944,79.8769071 Z M157.393944,72.8369071 C157.393944,71.8769071 157.173944,71.0769071 156.733944,70.4369071 C156.253944,69.7369071 155.553944,69.3769071 154.673944,69.3769071 C153.413944,69.3769071 152.433944,70.2569071 151.733944,72.0169071 C151.253944,73.2369071 151.013944,74.6369071 151.013944,76.1969071 C151.013944,76.3969071 151.013944,76.5569071 151.033944,76.6569071 C150.473944,76.8569071 150.213944,77.1569071 150.213944,77.5769071 C150.213944,78.0969071 150.473944,78.3769071 151.033944,78.4169071 C151.073944,78.7369071 151.093944,79.2169071 151.093944,79.8569071 C151.093944,81.1369071 151.013944,82.0369071 150.893944,82.5969071 C150.753944,83.1369071 150.693944,83.4369071 150.693944,83.4969071 C150.693944,83.7169071 150.773944,83.9169071 150.933944,84.0969071 C151.093944,84.2569071 151.293944,84.3569071 151.513944,84.3569071 C151.933944,84.3569071 152.233944,83.9369071 152.413944,83.1169071 C152.613944,82.1969071 152.713944,81.2569071 152.713944,80.3369071 C152.713944,79.4969071 152.673944,78.6769071 152.613944,77.8769071 C155.793944,76.7169071 157.393944,75.0369071 157.393944,72.8369071 L157.393944,72.8369071 Z M155.793944,72.4969071 C155.793944,74.1369071 154.733944,75.3369071 152.633944,76.0969071 C152.633944,75.0169071 152.813944,73.9169071 153.193944,72.8369071 C153.613944,71.6569071 154.113944,71.0569071 154.673944,71.0569071 C155.013944,71.0569071 155.293944,71.2169071 155.513944,71.4969071 C155.693944,71.7769071 155.793944,72.1169071 155.793944,72.4969071 L155.793944,72.4969071 Z M166.633944,75.1169071 C166.633944,74.9369071 166.533944,74.7369071 166.373944,74.5369071 C166.373944,74.0769071 166.293944,73.6769071 166.173944,73.3169071 C166.193944,73.2369071 166.213944,73.1369071 166.213944,73.0369071 C166.213944,72.7969071 166.073944,72.5569071 165.833944,72.3569071 C165.573944,72.1569071 165.313944,72.0369071 165.053944,72.0369071 C163.953944,72.0369071 162.753944,72.6769071 161.433944,73.9169071 C160.053944,75.1969071 159.373944,76.4369071 159.373944,77.5969071 C159.373944,78.2169071 159.573944,78.7569071 160.013944,79.2369071 C160.433944,79.7369071 160.933944,79.9769071 161.513944,79.9769071 C162.413944,79.9769071 163.413944,79.4169071 164.533944,78.2969071 C164.633944,79.8169071 164.973944,80.5969071 165.553944,80.5969071 C165.753944,80.5969071 165.953944,80.5169071 166.133944,80.3969071 C166.293944,80.2369071 166.393944,80.0369071 166.393944,79.8369071 C166.393944,79.7769071 166.333944,79.5369071 166.253944,79.0569071 C166.153944,78.5969071 166.113944,78.2369071 166.113944,77.9969071 C166.113944,77.1969071 166.233944,76.3969071 166.513944,75.5569071 C166.593944,75.3369071 166.633944,75.1969071 166.633944,75.1169071 L166.633944,75.1169071 Z M164.813944,74.5369071 C164.813944,75.2169071 164.413944,76.0169071 163.653944,76.9369071 C162.893944,77.8569071 162.193944,78.2969071 161.593944,78.2969071 C161.173944,78.2969071 160.973944,78.0569071 160.973944,77.5569071 C160.973944,76.9169071 161.473944,76.1169071 162.493944,75.1369071 C163.413944,74.2569071 164.073944,73.7969071 164.453944,73.7969071 C164.693944,73.7969071 164.813944,74.0569071 164.813944,74.5369071 L164.813944,74.5369071 Z M179.033944,76.1569071 C179.033944,74.8569071 178.413944,73.7969071 177.213944,72.9969071 C176.733944,72.6769071 176.213944,72.5169071 175.653944,72.5169071 C175.453944,72.2369071 175.113944,72.0769071 174.613944,72.0769071 C174.133944,72.0769071 173.613944,72.4369071 173.053944,73.1569071 C172.453944,73.9369071 172.113944,74.7769071 171.993944,75.6969071 C171.453944,75.5969071 170.953944,75.5169071 170.513944,75.4369071 C170.713944,74.3569071 170.853944,73.5169071 170.973944,72.9169071 C171.053944,72.6369071 171.113944,72.3969071 171.153944,72.2369071 C171.153944,71.6969071 170.893944,71.4169071 170.373944,71.4169071 C170.213944,71.4169071 170.093944,71.4569071 170.013944,71.5169071 C169.773944,71.6769071 169.553944,72.2569071 169.393944,73.2569071 C169.273944,73.9369071 169.173944,74.6169071 169.093944,75.2969071 C168.853944,75.4169071 168.733944,75.5969071 168.733944,75.7969071 C168.733944,75.8969071 168.793944,76.0769071 168.913944,76.3369071 C168.753944,77.7369071 168.673944,78.7369071 168.673944,79.2969071 C168.673944,79.5969071 168.733944,79.8769071 168.893944,80.1769071 C169.093944,80.5369071 169.353944,80.7169071 169.653944,80.7169071 C170.073944,80.7169071 170.293944,80.4569071 170.293944,79.9769071 C170.293944,79.8569071 170.253944,79.7369071 170.193944,79.5769071 C170.113944,79.4169071 170.093944,79.3369071 170.093944,79.2969071 C170.093944,78.6769071 170.153944,77.8969071 170.273944,76.9369071 C170.553944,76.9769071 170.753944,76.9769071 170.873944,76.9769071 C171.113944,76.9769071 171.473944,76.9169071 171.973944,76.7569071 C172.053944,77.8769071 172.453944,78.7569071 173.173944,79.4369071 C173.853944,80.0969071 174.713944,80.4369071 175.793944,80.4369071 C176.573944,80.4369071 177.313944,79.9969071 178.013944,79.1169071 C178.693944,78.2369071 179.033944,77.2569071 179.033944,76.1569071 L179.033944,76.1569071 Z M177.613944,75.6369071 C177.613944,76.1969071 177.513944,76.6569071 177.353944,77.0169071 C177.233944,77.2569071 177.113944,77.5169071 177.033944,77.7969071 C176.933944,78.1169071 176.733944,78.3769071 176.413944,78.5969071 C176.093944,78.8369071 175.773944,78.9369071 175.453944,78.9369071 C174.933944,78.9369071 174.473944,78.6969071 174.073944,78.1769071 C173.673944,77.6769071 173.473944,77.1169071 173.473944,76.4769071 C173.473944,75.8169071 173.633944,75.1769071 173.993944,74.5369071 C174.353944,73.8969071 174.773944,73.5169071 175.253944,73.3569071 C175.353944,73.6769071 175.653944,73.8769071 176.133944,73.9769071 C176.513944,74.0569071 176.853944,74.2769071 177.153944,74.5969071 C177.453944,74.9569071 177.613944,75.2969071 177.613944,75.6369071 L177.613944,75.6369071 Z" id="Сама-готовлю,-шью,-с" transform="translate(92.473944, 51.956907) rotate(-10.000000) translate(-92.473944, -51.956907) "></path>
                </g>
            </g>
        </g>
    </g>
</svg>