<?xml version="1.0" encoding="UTF-8"?>
<svg width="569px" height="144px" viewBox="0 0 569 144" version="1.1" xmlns="http://www.w3.org/2000/svg" xmlns:xlink="http://www.w3.org/1999/xlink">
    <!-- Generator: Sketch 40.3 (33839) - http://www.bohemiancoding.com/sketch -->
    <title>Береги почки с молод</title>
    <desc>Created with Sketch.</desc>
    <defs></defs>
    <g id="Page-1" stroke="none" stroke-width="1" fill="none" fill-rule="evenodd">
        <g id="Desktop" transform="translate(-4707.000000, -68.000000)" fill="#505050">
            <path d="M4732.59081,119.740852 C4732.59081,119.140852 4732.23081,118.420852 4731.57081,117.640852 C4730.85081,116.800852 4730.19081,116.380852 4729.59081,116.380852 C4729.35081,116.380852 4728.99081,116.560852 4728.39081,116.860852 C4727.25081,117.460852 4724.49081,118.300852 4720.11081,119.380852 C4716.87081,120.220852 4714.05081,120.760852 4711.77081,121.000852 C4711.29081,121.060852 4710.69081,121.240852 4709.97081,121.540852 C4709.61081,121.300852 4709.31081,121.180852 4709.07081,121.180852 C4708.59081,121.180852 4708.05081,121.480852 4707.51081,122.020852 C4706.97081,122.620852 4706.73081,123.280852 4706.73081,123.940852 C4706.73081,124.900852 4707.33081,125.740852 4708.53081,126.580852 C4706.43081,138.040852 4705.41081,147.700852 4705.41081,155.620852 C4705.41081,158.320852 4706.19081,159.640852 4707.81081,159.640852 C4708.17081,159.640852 4708.59081,159.520852 4708.95081,159.340852 C4709.19081,160.660852 4710.09081,161.380852 4711.65081,161.380852 C4715.13081,161.380852 4719.27081,158.980852 4724.07081,154.180852 C4728.81081,149.380852 4731.21081,145.120852 4731.21081,141.340852 C4731.21081,137.140852 4728.69081,135.040852 4723.71081,135.040852 C4721.31081,135.040852 4718.25081,135.760852 4714.41081,137.140852 C4713.03081,137.620852 4711.95081,137.980852 4711.11081,138.220852 C4711.71081,132.520852 4712.43081,128.500852 4713.21081,126.160852 C4721.13081,124.180852 4727.07081,122.740852 4730.91081,121.840852 C4731.99081,121.600852 4732.59081,120.940852 4732.59081,119.740852 L4732.59081,119.740852 Z M4726.47081,141.460852 C4726.47081,143.860852 4724.85081,146.680852 4721.67081,150.040852 C4718.67081,153.100852 4716.09081,155.020852 4713.81081,155.860852 C4713.45081,154.900852 4712.97081,154.360852 4712.49081,154.360852 C4711.95081,154.360852 4711.23081,154.900852 4710.27081,155.920852 C4710.09081,153.880852 4710.03081,152.260852 4710.03081,151.180852 C4710.03081,150.100852 4710.15081,147.940852 4710.45081,144.580852 C4711.53081,143.920852 4712.37081,143.380852 4712.97081,142.960852 C4716.45081,140.560852 4719.81081,139.360852 4723.05081,139.360852 C4725.33081,139.360852 4726.47081,140.080852 4726.47081,141.460852 L4726.47081,141.460852 Z M4761.93081,157.420852 C4761.93081,156.820852 4761.69081,156.220852 4761.21081,155.620852 C4760.73081,155.140852 4760.13081,154.840852 4759.53081,154.840852 C4759.05081,154.840852 4758.27081,154.960852 4757.25081,155.080852 C4756.23081,155.200852 4755.45081,155.260852 4754.97081,155.260852 C4753.17081,155.260852 4751.61081,154.420852 4750.17081,152.680852 C4756.17081,149.440852 4759.17081,145.600852 4759.17081,141.160852 C4759.17081,139.480852 4758.45081,137.860852 4757.01081,136.420852 C4755.57081,134.980852 4754.13081,134.260852 4752.63081,134.260852 C4750.05081,134.260852 4747.95081,135.760852 4746.27081,138.700852 C4744.83081,141.220852 4744.11081,143.920852 4744.11081,146.800852 C4744.11081,147.400852 4744.17081,148.240852 4744.35081,149.260852 L4742.97081,149.260852 C4742.13081,149.260852 4741.35081,148.960852 4740.51081,148.360852 C4739.67081,147.760852 4739.07081,147.460852 4738.71081,147.460852 C4737.15081,147.460852 4736.37081,148.300852 4736.37081,149.980852 C4736.37081,151.300852 4737.33081,152.380852 4739.37081,153.220852 C4740.93081,153.880852 4742.43081,154.180852 4743.99081,154.180852 L4745.79081,154.180852 C4747.95081,158.320852 4751.31081,160.360852 4755.87081,160.360852 C4759.89081,160.360852 4761.93081,159.340852 4761.93081,157.420852 L4761.93081,157.420852 Z M4754.43081,141.400852 C4754.43081,143.380852 4752.63081,145.540852 4749.03081,147.880852 L4749.03081,146.800852 C4749.03081,145.180852 4749.27081,143.620852 4749.87081,142.120852 C4750.47081,140.320852 4751.31081,139.420852 4752.39081,139.420852 C4752.87081,139.420852 4753.35081,139.660852 4753.83081,140.020852 C4754.19081,140.500852 4754.43081,140.920852 4754.43081,141.400852 L4754.43081,141.400852 Z M4788.09081,137.740852 C4788.09081,134.860852 4787.43081,132.460852 4786.11081,130.540852 C4784.67081,128.440852 4782.57081,127.360852 4779.93081,127.360852 C4776.15081,127.360852 4773.21081,130.000852 4771.11081,135.280852 C4769.67081,138.940852 4768.95081,143.140852 4768.95081,147.820852 C4768.95081,148.420852 4768.95081,148.900852 4769.01081,149.200852 C4767.33081,149.800852 4766.55081,150.700852 4766.55081,151.960852 C4766.55081,153.520852 4767.33081,154.360852 4769.01081,154.480852 C4769.13081,155.440852 4769.19081,156.880852 4769.19081,158.800852 C4769.19081,162.640852 4768.95081,165.340852 4768.59081,167.020852 C4768.17081,168.640852 4767.99081,169.540852 4767.99081,169.720852 C4767.99081,170.380852 4768.23081,170.980852 4768.71081,171.520852 C4769.19081,172.000852 4769.79081,172.300852 4770.45081,172.300852 C4771.71081,172.300852 4772.61081,171.040852 4773.15081,168.580852 C4773.75081,165.820852 4774.05081,163.000852 4774.05081,160.240852 C4774.05081,157.720852 4773.93081,155.260852 4773.75081,152.860852 C4783.29081,149.380852 4788.09081,144.340852 4788.09081,137.740852 L4788.09081,137.740852 Z M4783.29081,136.720852 C4783.29081,141.640852 4780.11081,145.240852 4773.81081,147.520852 C4773.81081,144.280852 4774.35081,140.980852 4775.49081,137.740852 C4776.75081,134.200852 4778.25081,132.400852 4779.93081,132.400852 C4780.95081,132.400852 4781.79081,132.880852 4782.45081,133.720852 C4782.99081,134.560852 4783.29081,135.580852 4783.29081,136.720852 L4783.29081,136.720852 Z M4817.85081,157.420852 C4817.85081,156.820852 4817.61081,156.220852 4817.13081,155.620852 C4816.65081,155.140852 4816.05081,154.840852 4815.45081,154.840852 C4814.97081,154.840852 4814.19081,154.960852 4813.17081,155.080852 C4812.15081,155.200852 4811.37081,155.260852 4810.89081,155.260852 C4809.09081,155.260852 4807.53081,154.420852 4806.09081,152.680852 C4812.09081,149.440852 4815.09081,145.600852 4815.09081,141.160852 C4815.09081,139.480852 4814.37081,137.860852 4812.93081,136.420852 C4811.49081,134.980852 4810.05081,134.260852 4808.55081,134.260852 C4805.97081,134.260852 4803.87081,135.760852 4802.19081,138.700852 C4800.75081,141.220852 4800.03081,143.920852 4800.03081,146.800852 C4800.03081,147.400852 4800.09081,148.240852 4800.27081,149.260852 L4798.89081,149.260852 C4798.05081,149.260852 4797.27081,148.960852 4796.43081,148.360852 C4795.59081,147.760852 4794.99081,147.460852 4794.63081,147.460852 C4793.07081,147.460852 4792.29081,148.300852 4792.29081,149.980852 C4792.29081,151.300852 4793.25081,152.380852 4795.29081,153.220852 C4796.85081,153.880852 4798.35081,154.180852 4799.91081,154.180852 L4801.71081,154.180852 C4803.87081,158.320852 4807.23081,160.360852 4811.79081,160.360852 C4815.81081,160.360852 4817.85081,159.340852 4817.85081,157.420852 L4817.85081,157.420852 Z M4810.35081,141.400852 C4810.35081,143.380852 4808.55081,145.540852 4804.95081,147.880852 L4804.95081,146.800852 C4804.95081,145.180852 4805.19081,143.620852 4805.79081,142.120852 C4806.39081,140.320852 4807.23081,139.420852 4808.31081,139.420852 C4808.79081,139.420852 4809.27081,139.660852 4809.75081,140.020852 C4810.11081,140.500852 4810.35081,140.920852 4810.35081,141.400852 L4810.35081,141.400852 Z M4844.55081,134.860852 C4844.55081,134.140852 4844.25081,133.540852 4843.71081,133.060852 C4843.17081,132.640852 4842.57081,132.400852 4841.97081,132.400852 C4841.43081,132.400852 4840.53081,132.580852 4839.27081,132.820852 C4835.07081,133.660852 4830.33081,134.140852 4824.99081,134.200852 C4824.45081,134.200852 4823.97081,134.440852 4823.55081,134.920852 C4823.07081,135.400852 4822.89081,136.000852 4822.89081,136.600852 C4822.89081,137.800852 4823.79081,138.580852 4825.59081,138.940852 C4825.05081,144.760852 4824.15081,150.760852 4822.83081,157.000852 C4822.47081,158.800852 4822.29081,160.000852 4822.29081,160.720852 C4822.29081,162.340852 4823.01081,163.180852 4824.51081,163.180852 C4826.31081,163.180852 4827.33081,162.220852 4827.57081,160.360852 C4828.05081,155.380852 4829.13081,148.120852 4830.69081,138.640852 C4833.03081,138.340852 4834.59081,138.100852 4835.37081,137.980852 C4837.17081,137.860852 4838.97081,137.740852 4840.77081,137.560852 C4843.29081,137.200852 4844.55081,136.300852 4844.55081,134.860852 L4844.55081,134.860852 Z M4871.07081,158.860852 C4871.07081,158.440852 4870.77081,157.900852 4870.23081,157.300852 C4868.91081,155.860852 4868.31081,152.200852 4868.31081,146.320852 C4868.31081,144.220852 4868.61081,140.680852 4869.27081,135.700852 C4869.27081,135.040852 4868.97081,134.440852 4868.49081,133.840852 C4867.95081,133.300852 4867.35081,133.000852 4866.69081,133.000852 C4865.67081,133.000852 4863.51081,135.220852 4860.27081,139.660852 C4857.63081,143.140852 4855.47081,146.320852 4853.67081,149.080852 C4854.09081,144.400852 4854.39081,140.980852 4854.57081,138.940852 C4854.57081,137.980852 4854.21081,137.140852 4853.61081,136.420852 C4853.01081,135.760852 4852.23081,135.400852 4851.27081,135.400852 C4850.73081,135.400852 4850.25081,135.760852 4849.77081,136.420852 C4849.89081,138.160852 4850.01081,139.180852 4850.01081,139.420852 C4850.01081,140.500852 4849.83081,143.200852 4849.53081,147.580852 L4849.41081,149.320852 C4849.35081,150.220852 4849.23081,151.420852 4849.11081,152.920852 C4848.93081,154.360852 4848.81081,155.260852 4848.81081,155.620852 C4848.87081,156.460852 4849.11081,157.120852 4849.59081,157.480852 C4850.55081,158.440852 4851.15081,158.860852 4851.39081,158.860852 C4852.23081,158.860852 4853.25081,157.960852 4854.33081,156.040852 C4856.55081,152.320852 4858.11081,149.680852 4859.07081,148.240852 C4860.63081,145.660852 4862.31081,143.260852 4864.17081,141.100852 C4864.17081,141.700852 4864.11081,142.960852 4864.11081,144.820852 C4864.05081,146.740852 4864.05081,147.760852 4864.05081,148.000852 C4864.05081,151.120852 4864.35081,153.760852 4865.01081,156.040852 C4865.91081,159.340852 4867.23081,161.020852 4868.91081,161.020852 C4869.27081,161.020852 4869.75081,160.720852 4870.29081,160.240852 C4870.77081,159.640852 4871.07081,159.220852 4871.07081,158.860852 L4871.07081,158.860852 Z M4918.89081,136.060852 C4918.89081,135.400852 4918.59081,134.800852 4917.99081,134.320852 C4917.33081,133.900852 4916.67081,133.660852 4916.01081,133.540852 C4909.89081,134.020852 4905.03081,134.440852 4901.55081,134.680852 C4899.45081,134.860852 4898.43081,135.580852 4898.43081,136.900852 C4898.43081,137.740852 4898.55081,138.460852 4898.91081,139.120852 C4898.49081,145.300852 4898.31081,148.420852 4898.31081,148.540852 C4897.89081,152.860852 4897.71081,155.020852 4897.71081,155.020852 C4897.71081,155.800852 4897.95081,156.580852 4898.49081,157.360852 C4899.03081,158.140852 4899.63081,158.500852 4900.35081,158.500852 C4901.55081,158.500852 4902.15081,157.720852 4902.27081,156.100852 C4902.63081,149.620852 4902.99081,144.040852 4903.47081,139.360852 C4906.53081,138.940852 4909.71081,138.640852 4913.01081,138.520852 C4913.01081,138.700852 4912.89081,141.640852 4912.71081,147.280852 C4912.47081,152.320852 4912.41081,155.020852 4912.41081,155.380852 C4912.41081,159.280852 4913.43081,161.260852 4915.59081,161.260852 C4916.73081,161.260852 4917.33081,160.600852 4917.33081,159.400852 C4916.97081,157.600852 4916.85081,155.920852 4916.85081,154.480852 C4916.85081,152.560852 4916.97081,149.500852 4917.21081,145.300852 C4917.27081,144.640852 4917.39081,143.680852 4917.57081,142.360852 C4917.69081,141.280852 4917.75081,140.680852 4917.75081,140.440852 C4917.75081,140.080852 4917.63081,139.540852 4917.51081,138.820852 C4918.41081,137.860852 4918.89081,136.960852 4918.89081,136.060852 L4918.89081,136.060852 Z M4944.09081,145.300852 C4944.09081,142.960852 4943.43081,140.800852 4942.11081,138.880852 C4940.73081,137.020852 4938.99081,135.700852 4936.89081,134.980852 C4936.05081,134.740852 4935.57081,134.620852 4935.45081,134.620852 C4934.97081,134.620852 4934.43081,134.920852 4933.71081,135.400852 C4932.87081,135.880852 4932.21081,136.240852 4931.73081,136.420852 C4929.69081,137.440852 4928.01081,139.240852 4926.81081,141.760852 C4925.61081,144.040852 4925.07081,146.500852 4925.07081,149.080852 C4925.07081,152.140852 4925.85081,154.660852 4927.53081,156.640852 C4929.21081,158.560852 4931.31081,159.580852 4933.83081,159.580852 C4936.71081,159.580852 4939.17081,158.260852 4941.15081,155.500852 C4943.07081,152.740852 4944.09081,149.380852 4944.09081,145.300852 L4944.09081,145.300852 Z M4939.35081,146.200852 C4939.35081,148.240852 4938.75081,150.100852 4937.67081,151.840852 C4936.47081,153.640852 4935.21081,154.540852 4933.77081,154.540852 C4932.57081,154.540852 4931.61081,154.000852 4930.89081,152.860852 C4930.11081,151.780852 4929.75081,150.520852 4929.75081,149.080852 C4929.75081,147.160852 4930.17081,145.360852 4931.13081,143.680852 C4932.21081,141.760852 4933.59081,140.740852 4935.27081,140.740852 C4935.87081,141.100852 4936.65081,141.280852 4937.61081,141.280852 C4938.75081,142.000852 4939.35081,143.680852 4939.35081,146.200852 L4939.35081,146.200852 Z M4970.43081,135.700852 C4970.37081,135.040852 4970.13081,134.380852 4969.65081,133.780852 C4969.17081,133.180852 4968.63081,132.880852 4968.03081,132.880852 C4966.41081,132.880852 4965.57081,133.780852 4965.51081,135.520852 C4965.51081,135.760852 4965.51081,136.540852 4965.57081,137.800852 C4965.57081,139.180852 4965.63081,139.960852 4965.63081,140.200852 C4965.63081,142.540852 4964.85081,144.700852 4963.35081,146.740852 C4961.79081,148.780852 4960.05081,149.740852 4958.19081,149.740852 C4955.85081,149.740852 4954.71081,148.060852 4954.71081,144.580852 C4954.71081,143.260852 4954.95081,140.260852 4955.55081,135.580852 C4955.37081,133.900852 4954.65081,133.000852 4953.45081,133.000852 C4951.77081,133.000852 4950.81081,134.620852 4950.45081,137.800852 C4950.33081,138.700852 4950.27081,140.920852 4950.27081,144.520852 C4950.27081,150.880852 4952.79081,154.060852 4957.89081,154.060852 C4959.33081,154.060852 4960.83081,153.700852 4962.27081,152.860852 C4963.71081,152.080852 4964.85081,151.000852 4965.57081,149.680852 C4965.45081,152.080852 4965.33081,154.060852 4965.21081,155.560852 C4964.97081,158.020852 4964.91081,159.760852 4964.91081,160.960852 C4964.91081,162.580852 4965.57081,163.420852 4967.01081,163.420852 C4968.57081,163.420852 4969.41081,162.580852 4969.47081,160.900852 C4969.53081,157.000852 4969.71081,151.240852 4970.07081,143.680852 C4970.19081,139.720852 4970.31081,137.080852 4970.43081,135.700852 L4970.43081,135.700852 Z M4997.07081,138.880852 C4997.07081,138.400852 4996.83081,137.860852 4996.35081,137.320852 C4995.87081,136.840852 4995.33081,136.600852 4994.85081,136.600852 C4994.37081,136.600852 4993.35081,136.960852 4991.85081,137.680852 C4989.33081,138.880852 4986.15081,141.160852 4982.43081,144.400852 C4983.27081,140.920852 4984.05081,138.160852 4984.89081,136.180852 C4985.37081,134.920852 4985.61081,134.140852 4985.61081,133.900852 C4985.61081,132.340852 4984.83081,131.560852 4983.39081,131.560852 C4982.43081,131.560852 4981.71081,132.100852 4981.23081,133.180852 C4978.29081,140.380852 4976.79081,148.300852 4976.67081,156.880852 C4976.55081,157.180852 4976.55081,157.480852 4976.55081,157.780852 C4976.55081,158.500852 4976.67081,159.160852 4976.91081,159.820852 C4977.27081,160.900852 4978.11081,161.500852 4979.31081,161.500852 C4980.63081,161.500852 4981.29081,160.720852 4981.29081,159.220852 C4981.29081,159.100852 4981.23081,158.740852 4981.23081,158.140852 C4981.17081,157.540852 4981.17081,157.120852 4981.17081,156.760852 L4981.17081,154.540852 C4981.17081,153.700852 4981.17081,152.740852 4981.29081,151.660852 C4981.71081,151.420852 4981.95081,151.300852 4982.01081,151.240852 C4984.29081,154.300852 4987.23081,157.000852 4990.77081,159.340852 C4991.85081,160.120852 4992.69081,160.540852 4993.29081,160.540852 C4994.73081,160.540852 4995.45081,159.760852 4995.45081,158.260852 C4995.45081,157.660852 4994.91081,156.820852 4993.95081,155.860852 C4992.27081,154.360852 4991.31081,153.580852 4990.95081,153.580852 C4990.83081,153.580852 4990.65081,153.640852 4990.53081,153.640852 C4988.19081,151.780852 4986.39081,149.980852 4985.19081,148.240852 C4988.07081,145.540852 4990.47081,143.620852 4992.45081,142.540852 C4992.69081,142.660852 4992.93081,142.720852 4993.23081,142.720852 C4994.01081,142.720852 4994.85081,142.300852 4995.69081,141.460852 C4996.59081,140.680852 4997.07081,139.840852 4997.07081,138.880852 L4997.07081,138.880852 Z M5024.25081,158.860852 C5024.25081,158.440852 5023.95081,157.900852 5023.41081,157.300852 C5022.09081,155.860852 5021.49081,152.200852 5021.49081,146.320852 C5021.49081,144.220852 5021.79081,140.680852 5022.45081,135.700852 C5022.45081,135.040852 5022.15081,134.440852 5021.67081,133.840852 C5021.13081,133.300852 5020.53081,133.000852 5019.87081,133.000852 C5018.85081,133.000852 5016.69081,135.220852 5013.45081,139.660852 C5010.81081,143.140852 5008.65081,146.320852 5006.85081,149.080852 C5007.27081,144.400852 5007.57081,140.980852 5007.75081,138.940852 C5007.75081,137.980852 5007.39081,137.140852 5006.79081,136.420852 C5006.19081,135.760852 5005.41081,135.400852 5004.45081,135.400852 C5003.91081,135.400852 5003.43081,135.760852 5002.95081,136.420852 C5003.07081,138.160852 5003.19081,139.180852 5003.19081,139.420852 C5003.19081,140.500852 5003.01081,143.200852 5002.71081,147.580852 L5002.59081,149.320852 C5002.53081,150.220852 5002.41081,151.420852 5002.29081,152.920852 C5002.11081,154.360852 5001.99081,155.260852 5001.99081,155.620852 C5002.05081,156.460852 5002.29081,157.120852 5002.77081,157.480852 C5003.73081,158.440852 5004.33081,158.860852 5004.57081,158.860852 C5005.41081,158.860852 5006.43081,157.960852 5007.51081,156.040852 C5009.73081,152.320852 5011.29081,149.680852 5012.25081,148.240852 C5013.81081,145.660852 5015.49081,143.260852 5017.35081,141.100852 C5017.35081,141.700852 5017.29081,142.960852 5017.29081,144.820852 C5017.23081,146.740852 5017.23081,147.760852 5017.23081,148.000852 C5017.23081,151.120852 5017.53081,153.760852 5018.19081,156.040852 C5019.09081,159.340852 5020.41081,161.020852 5022.09081,161.020852 C5022.45081,161.020852 5022.93081,160.720852 5023.47081,160.240852 C5023.95081,159.640852 5024.25081,159.220852 5024.25081,158.860852 L5024.25081,158.860852 Z M5069.43081,152.980852 C5069.43081,152.380852 5069.19081,151.780852 5068.71081,151.180852 C5068.23081,150.700852 5067.69081,150.400852 5067.09081,150.400852 C5066.61081,150.400852 5065.89081,150.820852 5065.05081,151.600852 C5064.33081,152.200852 5063.61081,152.800852 5063.01081,153.400852 C5061.99081,154.180852 5060.73081,154.540852 5059.23081,154.540852 C5056.83081,154.540852 5055.69081,153.100852 5055.69081,150.100852 C5055.69081,148.240852 5056.23081,146.380852 5057.31081,144.580852 C5058.39081,142.780852 5059.71081,141.280852 5061.33081,140.200852 C5062.05081,140.620852 5063.13081,140.800852 5064.63081,140.800852 C5065.41081,140.800852 5066.19081,140.500852 5066.97081,139.780852 C5067.63081,139.060852 5067.99081,138.400852 5067.99081,137.680852 C5067.99081,136.720852 5067.63081,136.000852 5066.91081,135.400852 C5066.13081,134.860852 5065.29081,134.560852 5064.39081,134.560852 C5060.61081,134.560852 5057.25081,136.540852 5054.37081,140.440852 C5052.03081,143.560852 5050.89081,146.980852 5050.89081,150.700852 C5050.89081,153.340852 5051.73081,155.440852 5053.41081,157.120852 C5055.09081,158.740852 5057.19081,159.580852 5059.71081,159.580852 C5061.99081,159.580852 5064.33081,158.680852 5066.61081,156.880852 C5068.47081,155.440852 5069.43081,154.180852 5069.43081,152.980852 L5069.43081,152.980852 Z M5121.69081,160.960852 C5121.69081,160.420852 5121.51081,159.820852 5121.15081,159.100852 C5120.79081,158.380852 5120.37081,157.900852 5119.95081,157.540852 C5118.99081,155.500852 5118.15081,151.780852 5117.43081,146.440852 C5116.95081,143.680852 5116.59081,140.620852 5116.23081,137.380852 C5116.05081,136.120852 5115.33081,135.460852 5114.07081,135.460852 C5112.93081,135.460852 5111.43081,137.920852 5109.57081,142.840852 C5108.91081,144.520852 5108.37081,145.960852 5107.89081,147.280852 C5106.27081,144.880852 5104.83081,141.280852 5103.51081,136.360852 C5103.03081,134.560852 5102.31081,133.660852 5101.41081,133.660852 C5100.27081,133.660852 5099.25081,135.040852 5098.35081,137.740852 C5098.17081,137.740852 5097.93081,137.680852 5097.63081,137.680852 C5097.21081,137.680852 5096.85081,137.860852 5096.61081,138.160852 C5096.25081,138.520852 5096.07081,138.940852 5096.07081,139.360852 C5096.07081,139.480852 5096.07081,139.840852 5096.13081,140.440852 C5096.13081,141.100852 5096.19081,141.460852 5096.19081,141.580852 C5096.19081,142.660852 5096.07081,144.160852 5095.83081,146.200852 C5095.59081,148.240852 5095.47081,150.520852 5095.47081,152.980852 C5095.47081,157.000852 5096.25081,158.980852 5097.87081,158.980852 C5099.07081,158.980852 5099.67081,157.660852 5099.79081,154.960852 C5099.97081,149.680852 5100.45081,145.300852 5101.17081,141.820852 C5104.35081,149.500852 5106.87081,153.340852 5108.67081,153.340852 C5109.27081,153.340852 5109.69081,153.100852 5110.05081,152.500852 C5110.35081,152.020852 5110.71081,150.940852 5111.19081,149.380852 C5111.97081,146.740852 5112.63081,144.640852 5113.17081,143.200852 C5113.77081,149.860852 5114.61081,154.780852 5115.75081,157.960852 C5117.01081,161.620852 5118.33081,163.480852 5119.65081,163.480852 C5120.13081,163.480852 5120.61081,163.180852 5121.03081,162.640852 C5121.45081,162.040852 5121.69081,161.500852 5121.69081,160.960852 L5121.69081,160.960852 Z M5144.97081,145.300852 C5144.97081,142.960852 5144.31081,140.800852 5142.99081,138.880852 C5141.61081,137.020852 5139.87081,135.700852 5137.77081,134.980852 C5136.93081,134.740852 5136.45081,134.620852 5136.33081,134.620852 C5135.85081,134.620852 5135.31081,134.920852 5134.59081,135.400852 C5133.75081,135.880852 5133.09081,136.240852 5132.61081,136.420852 C5130.57081,137.440852 5128.89081,139.240852 5127.69081,141.760852 C5126.49081,144.040852 5125.95081,146.500852 5125.95081,149.080852 C5125.95081,152.140852 5126.73081,154.660852 5128.41081,156.640852 C5130.09081,158.560852 5132.19081,159.580852 5134.71081,159.580852 C5137.59081,159.580852 5140.05081,158.260852 5142.03081,155.500852 C5143.95081,152.740852 5144.97081,149.380852 5144.97081,145.300852 L5144.97081,145.300852 Z M5140.23081,146.200852 C5140.23081,148.240852 5139.63081,150.100852 5138.55081,151.840852 C5137.35081,153.640852 5136.09081,154.540852 5134.65081,154.540852 C5133.45081,154.540852 5132.49081,154.000852 5131.77081,152.860852 C5130.99081,151.780852 5130.63081,150.520852 5130.63081,149.080852 C5130.63081,147.160852 5131.05081,145.360852 5132.01081,143.680852 C5133.09081,141.760852 5134.47081,140.740852 5136.15081,140.740852 C5136.75081,141.100852 5137.53081,141.280852 5138.49081,141.280852 C5139.63081,142.000852 5140.23081,143.680852 5140.23081,146.200852 L5140.23081,146.200852 Z M5175.39081,137.260852 C5175.39081,136.360852 5175.09081,135.580852 5174.49081,134.860852 C5173.95081,134.200852 5173.29081,133.840852 5172.45081,133.840852 C5172.09081,133.840852 5171.37081,134.200852 5170.29081,134.800852 C5169.21081,135.460852 5166.57081,136.000852 5162.31081,136.480852 C5161.35081,135.700852 5160.57081,135.280852 5160.03081,135.280852 C5159.37081,135.280852 5158.65081,135.640852 5157.93081,136.360852 C5157.21081,137.080852 5156.85081,137.860852 5156.85081,138.580852 C5156.85081,139.060852 5157.09081,139.660852 5157.57081,140.320852 C5157.99081,141.040852 5158.23081,141.820852 5158.23081,142.720852 C5158.23081,146.440852 5157.93081,149.500852 5157.33081,152.020852 C5156.55081,154.960852 5155.53081,156.400852 5154.33081,156.400852 C5153.85081,156.400852 5153.49081,155.680852 5153.37081,154.120852 C5153.25081,153.520852 5153.01081,153.160852 5152.53081,153.160852 C5151.69081,153.160852 5151.09081,153.580852 5150.67081,154.300852 C5150.13081,155.140852 5149.89081,156.100852 5149.89081,157.120852 C5149.89081,158.260852 5150.31081,159.100852 5151.21081,159.760852 C5152.05081,160.360852 5153.01081,160.720852 5154.09081,160.720852 C5157.21081,160.720852 5159.43081,158.680852 5160.75081,154.720852 C5161.59081,152.200852 5162.31081,147.640852 5162.91081,141.040852 C5164.41081,140.680852 5166.69081,140.200852 5169.81081,139.660852 C5169.21081,145.540852 5168.91081,149.980852 5168.91081,152.980852 C5168.91081,156.940852 5169.15081,159.400852 5169.69081,160.420852 C5170.23081,161.440852 5171.01081,161.980852 5171.97081,161.980852 C5173.53081,161.980852 5174.31081,161.020852 5174.31081,159.220852 C5174.07081,158.140852 5173.95081,157.180852 5173.83081,156.340852 C5173.53081,154.300852 5173.41081,152.560852 5173.41081,151.060852 C5173.41081,147.820852 5173.89081,144.040852 5174.91081,139.720852 C5175.21081,138.280852 5175.39081,137.500852 5175.39081,137.260852 L5175.39081,137.260852 Z M5200.53081,145.300852 C5200.53081,142.960852 5199.87081,140.800852 5198.55081,138.880852 C5197.17081,137.020852 5195.43081,135.700852 5193.33081,134.980852 C5192.49081,134.740852 5192.01081,134.620852 5191.89081,134.620852 C5191.41081,134.620852 5190.87081,134.920852 5190.15081,135.400852 C5189.31081,135.880852 5188.65081,136.240852 5188.17081,136.420852 C5186.13081,137.440852 5184.45081,139.240852 5183.25081,141.760852 C5182.05081,144.040852 5181.51081,146.500852 5181.51081,149.080852 C5181.51081,152.140852 5182.29081,154.660852 5183.97081,156.640852 C5185.65081,158.560852 5187.75081,159.580852 5190.27081,159.580852 C5193.15081,159.580852 5195.61081,158.260852 5197.59081,155.500852 C5199.51081,152.740852 5200.53081,149.380852 5200.53081,145.300852 L5200.53081,145.300852 Z M5195.79081,146.200852 C5195.79081,148.240852 5195.19081,150.100852 5194.11081,151.840852 C5192.91081,153.640852 5191.65081,154.540852 5190.21081,154.540852 C5189.01081,154.540852 5188.05081,154.000852 5187.33081,152.860852 C5186.55081,151.780852 5186.19081,150.520852 5186.19081,149.080852 C5186.19081,147.160852 5186.61081,145.360852 5187.57081,143.680852 C5188.65081,141.760852 5190.03081,140.740852 5191.71081,140.740852 C5192.31081,141.100852 5193.09081,141.280852 5194.05081,141.280852 C5195.19081,142.000852 5195.79081,143.680852 5195.79081,146.200852 L5195.79081,146.200852 Z M5232.57081,158.620852 C5232.57081,158.440852 5232.45081,158.140852 5232.21081,157.780852 C5231.49081,156.460852 5230.65081,155.800852 5229.81081,155.800852 C5229.69081,155.800852 5229.51081,155.860852 5229.21081,155.860852 C5229.51081,148.420852 5229.75081,143.020852 5229.99081,139.600852 C5230.11081,137.860852 5230.47081,136.120852 5231.13081,134.320852 C5231.13081,133.720852 5230.77081,133.060852 5230.17081,132.460852 C5229.57081,131.860852 5228.97081,131.560852 5228.37081,131.560852 C5226.81081,131.560852 5224.95081,131.920852 5222.73081,132.520852 C5220.09081,133.300852 5218.35081,133.900852 5217.51081,134.260852 C5216.19081,134.980852 5215.59081,135.880852 5215.59081,136.900852 C5215.59081,137.200852 5215.71081,137.620852 5216.01081,138.220852 C5216.19081,138.820852 5216.31081,139.240852 5216.31081,139.480852 C5216.31081,142.120852 5215.65081,145.120852 5214.33081,148.600852 C5212.89081,152.260852 5211.27081,155.140852 5209.35081,157.240852 C5207.49081,157.360852 5206.53081,158.200852 5206.41081,159.760852 C5206.17081,162.100852 5206.11081,164.140852 5206.11081,165.820852 C5206.11081,166.360852 5206.35081,166.900852 5206.83081,167.380852 C5207.31081,167.860852 5207.97081,168.160852 5208.69081,168.160852 C5210.07081,168.160852 5210.79081,167.440852 5210.79081,166.060852 C5210.79081,165.820852 5210.73081,165.520852 5210.67081,165.100852 C5210.55081,164.680852 5210.55081,164.380852 5210.55081,164.260852 C5210.55081,164.020852 5210.55081,163.780852 5210.61081,163.420852 L5210.61081,162.520852 C5210.61081,162.040852 5211.03081,161.740852 5211.99081,161.680852 C5215.53081,161.260852 5218.77081,160.960852 5221.65081,160.780852 C5223.75081,160.600852 5225.25081,160.540852 5226.09081,160.540852 C5226.81081,160.540852 5227.23081,160.840852 5227.23081,161.440852 C5227.23081,161.620852 5227.23081,162.280852 5227.29081,163.480852 L5227.29081,165.580852 C5227.29081,167.260852 5227.89081,168.160852 5229.21081,168.160852 C5229.69081,168.160852 5230.29081,167.980852 5230.95081,167.680852 C5231.49081,167.320852 5231.79081,166.840852 5231.79081,166.360852 C5231.79081,165.940852 5231.73081,165.400852 5231.67081,164.680852 C5231.55081,163.960852 5231.49081,163.360852 5231.49081,163.000852 C5231.49081,162.040852 5231.55081,161.200852 5231.79081,160.540852 C5231.79081,160.420852 5231.91081,160.120852 5232.15081,159.640852 C5232.39081,159.100852 5232.57081,158.740852 5232.57081,158.620852 L5232.57081,158.620852 Z M5225.55081,136.660852 C5225.55081,144.820852 5225.19081,151.420852 5224.47081,156.400852 C5219.79081,156.700852 5216.61081,156.940852 5214.87081,157.180852 C5217.81081,152.500852 5219.85081,146.020852 5220.99081,137.860852 C5221.95081,137.380852 5223.51081,136.960852 5225.55081,136.660852 L5225.55081,136.660852 Z M5259.93081,148.660852 L5259.93081,144.640852 C5259.93081,140.440852 5258.97081,138.280852 5257.11081,138.280852 C5256.15081,138.280852 5255.25081,139.120852 5254.35081,140.680852 C5252.49081,143.980852 5251.05081,146.320852 5249.97081,147.640852 C5248.53081,149.440852 5247.15081,150.340852 5245.83081,150.340852 C5244.87081,150.340852 5244.45081,149.800852 5244.45081,148.720852 C5244.45081,147.760852 5244.63081,145.900852 5244.99081,143.140852 C5245.35081,140.380852 5245.59081,138.700852 5245.59081,138.160852 C5245.59081,136.720852 5245.35081,135.400852 5244.87081,134.320852 C5244.33081,133.000852 5243.55081,132.340852 5242.59081,132.340852 C5240.79081,132.340852 5239.95081,133.120852 5239.95081,134.620852 C5239.95081,134.980852 5240.01081,135.460852 5240.25081,136.180852 C5240.43081,136.900852 5240.55081,137.380852 5240.55081,137.740852 C5240.55081,138.940852 5240.37081,140.740852 5240.07081,143.260852 C5239.77081,145.780852 5239.65081,147.700852 5239.65081,148.900852 C5239.65081,150.880852 5240.19081,152.500852 5241.33081,153.760852 C5242.41081,155.080852 5243.85081,155.680852 5245.77081,155.680852 C5248.83081,155.680852 5251.95081,153.460852 5255.13081,149.020852 C5255.13081,151.060852 5254.95081,152.980852 5254.65081,154.840852 C5253.21081,162.820852 5247.93081,166.840852 5238.75081,166.960852 C5237.31081,166.780852 5236.23081,166.660852 5235.51081,166.600852 C5234.01081,166.660852 5233.23081,167.440852 5233.23081,169.000852 C5233.23081,171.160852 5235.09081,172.300852 5238.81081,172.300852 C5244.69081,172.300852 5249.43081,170.680852 5253.15081,167.560852 C5257.65081,163.720852 5259.93081,157.480852 5259.93081,148.660852 L5259.93081,148.660852 Z M5280.03081,119.740852 C5280.03081,119.140852 5279.79081,118.540852 5279.37081,118.000852 C5278.95081,117.460852 5278.41081,117.160852 5277.81081,117.160852 C5277.09081,117.160852 5276.43081,117.460852 5275.77081,118.000852 C5275.05081,118.600852 5274.57081,119.320852 5274.39081,120.040852 C5274.03081,121.240852 5273.91081,122.080852 5273.91081,122.500852 C5273.91081,122.860852 5273.97081,123.160852 5274.09081,123.520852 C5273.37081,126.100852 5272.83081,130.060852 5272.41081,135.340852 C5272.11081,139.540852 5271.93081,142.540852 5271.87081,144.220852 C5271.75081,145.660852 5271.75081,146.560852 5271.75081,146.920852 C5271.75081,147.580852 5271.93081,148.120852 5272.41081,148.600852 C5272.83081,149.080852 5273.37081,149.320852 5274.09081,149.320852 C5275.59081,149.320852 5276.37081,148.300852 5276.49081,146.140852 C5276.85081,136.360852 5277.81081,128.320852 5279.37081,122.020852 C5279.61081,121.060852 5279.85081,120.280852 5280.03081,119.740852 L5280.03081,119.740852 Z M5276.79081,158.860852 C5276.79081,157.000852 5276.25081,155.740852 5275.23081,155.140852 C5274.63081,154.780852 5274.21081,154.600852 5273.85081,154.600852 C5273.01081,154.600852 5272.23081,154.900852 5271.63081,155.500852 C5270.97081,156.100852 5270.67081,156.760852 5270.67081,157.600852 C5270.67081,158.920852 5271.09081,159.880852 5271.93081,160.420852 C5272.59081,161.260852 5273.31081,161.740852 5274.15081,161.740852 C5275.89081,161.740852 5276.79081,160.780852 5276.79081,158.860852 L5276.79081,158.860852 Z" id="Береги-почки-с-молод" transform="translate(4995.870815, 144.340852) rotate(-10.000000) translate(-4995.870815, -144.340852) "></path>
        </g>
    </g>
</svg>