<?xml version="1.0" encoding="UTF-8"?>
<svg width="109px" height="42px" viewBox="0 0 109 42" version="1.1" xmlns="http://www.w3.org/2000/svg" xmlns:xlink="http://www.w3.org/1999/xlink">
    <!-- Generator: Sketch 40.3 (33839) - http://www.bohemiancoding.com/sketch -->
    <title>Group 3</title>
    <desc>Created with Sketch.</desc>
    <defs></defs>
    <g id="Page-1" stroke="none" stroke-width="1" fill="none" fill-rule="evenodd">
        <g id="1600--copy-7" transform="translate(-744.000000, -329.000000)">
            <g id="Group-3" transform="translate(744.000000, 329.000000)">
                <g id="Group" transform="translate(28.000000, 0.000000)" fill="#FFFFFF">
                    <path d="M23.9037829,2.565 C23.9037829,1.305 23.2737829,0.63 22.1037829,0.63 C20.7537829,0.63 19.6287829,1.8 18.7287829,4.095 C15.3537829,9 11.8437829,15.39 8.1987829,23.31 L2.1237829,36.54 C1.2687829,37.8 0.863782902,38.745 0.863782902,39.42 C0.863782902,40.815 1.4487829,41.535 2.6637829,41.535 C3.4737829,41.535 4.1037829,41.085 4.5537829,40.185 C7.8387829,32.895 10.3137829,27.495 11.9337829,23.895 C16.0287829,15.255 19.8087829,8.775 23.2287829,4.41 C23.6787829,3.87 23.9037829,3.24 23.9037829,2.565 L23.9037829,2.565 Z M46.8786106,7.695 C46.8786106,7.29 46.6536106,6.885 46.2936106,6.525 C45.8886106,6.165 45.4836106,5.985 45.0336106,5.985 C44.6736106,5.985 43.5486106,6.48 41.7036106,7.38 C40.5786106,7.875 39.7236106,8.235 39.1386106,8.415 C36.5736106,9.585 34.6836106,10.485 33.4686106,11.07 C32.2086106,11.7 31.6236106,12.42 31.6236106,13.32 C31.6236106,14.535 32.1636106,15.12 33.2886106,15.12 C33.4686106,15.12 34.3236106,14.76 35.7636106,14.04 C38.8686106,12.51 40.7586106,11.7 41.4336106,11.52 C39.8136106,17.055 39.0036106,23.13 39.0036106,29.79 C39.0036106,31.95 39.0486106,33.435 39.1386106,34.245 C39.2736106,35.55 40.1286106,36.18 41.7036106,36.18 C42.3336106,36.18 42.7836106,35.775 43.0986106,34.875 C43.3686106,34.065 43.5036106,32.49 43.5036106,30.195 C43.5036106,29.385 43.1436106,28.71 42.4686106,28.17 C42.8736106,19.53 44.0436106,13.41 46.0236106,9.765 C46.5636106,8.685 46.8786106,7.965 46.8786106,7.695 L46.8786106,7.695 Z M80.3384382,22.905 C80.3384382,19.305 79.4834382,15.975 77.8634382,12.825 C75.9734382,9.225 73.6334382,7.425 70.7534382,7.425 C69.4034382,7.425 68.6834382,8.145 68.5934382,9.54 C65.7134382,10.665 63.4634382,12.555 61.7534382,15.255 C60.0434382,17.955 59.1884382,21.015 59.1884382,24.525 C59.1884382,28.395 59.9534382,31.455 61.5284382,33.66 C63.2384382,36.135 65.8034382,37.395 69.1334382,37.395 C72.5984382,37.395 75.3434382,36.045 77.3684382,33.39 C79.3484382,30.735 80.3384382,27.225 80.3384382,22.905 L80.3384382,22.905 Z M76.8734382,23.31 C76.8734382,26.235 76.1084382,28.755 74.5784382,30.825 C73.0484382,32.895 71.3384382,33.93 69.4484382,33.93 C67.1984382,33.93 65.5334382,33.03 64.3634382,31.185 C63.2384382,29.565 62.6984382,27.315 62.6984382,24.48 C62.6984382,21.6 63.5534382,18.945 65.3084382,16.425 C67.0634382,13.905 69.0434382,12.645 71.2484382,12.645 C71.9684382,12.645 72.5534382,12.42 73.0034382,11.88 C74.2634382,13.05 75.2084382,14.85 75.9284382,17.19 C76.5584382,19.26 76.8734382,21.285 76.8734382,23.31 L76.8734382,23.31 Z" id="2/10"></path>
                </g>
                <path d="M15.3241088,7.324 C15.3241088,6.928 15.1041088,6.532 14.7521088,6.18 C14.3561088,5.828 13.9601088,5.652 13.5201088,5.652 C13.1681088,5.652 12.0681088,6.136 10.2641088,7.016 C9.16410884,7.5 8.32810884,7.852 7.75610884,8.028 C5.24810884,9.172 3.40010884,10.052 2.21210884,10.624 C0.980108844,11.24 0.408108844,11.944 0.408108844,12.824 C0.408108844,14.012 0.936108844,14.584 2.03610884,14.584 C2.21210884,14.584 3.04810884,14.232 4.45610884,13.528 C7.49210884,12.032 9.34010884,11.24 10.0001088,11.064 C8.41610884,16.476 7.62410884,22.416 7.62410884,28.928 C7.62410884,31.04 7.66810884,32.492 7.75610884,33.284 C7.88810884,34.56 8.72410884,35.176 10.2641088,35.176 C10.8801088,35.176 11.3201088,34.78 11.6281088,33.9 C11.8921088,33.108 12.0241088,31.568 12.0241088,29.324 C12.0241088,28.532 11.6721088,27.872 11.0121088,27.344 C11.4081088,18.896 12.5521088,12.912 14.4881088,9.348 C15.0161088,8.292 15.3241088,7.588 15.3241088,7.324 L15.3241088,7.324 Z" id="1" fill="#FFD100"></path>
            </g>
        </g>
    </g>
</svg>