<?xml version="1.0" encoding="UTF-8"?>
<svg width="133px" height="42px" viewBox="0 0 133 42" version="1.1" xmlns="http://www.w3.org/2000/svg" xmlns:xlink="http://www.w3.org/1999/xlink">
    <!-- Generator: Sketch 40.3 (33839) - http://www.bohemiancoding.com/sketch -->
    <title>Group 12</title>
    <desc>Created with Sketch.</desc>
    <defs></defs>
    <g id="Page-1" stroke="none" stroke-width="1" fill="none" fill-rule="evenodd">
        <g id="1600--copy-7" transform="translate(-877.000000, -371.000000)">
            <g id="Group-12" transform="translate(877.000000, 371.000000)">
                <path d="M75.9037829,2.565 C75.9037829,1.305 75.2737829,0.63 74.1037829,0.63 C72.7537829,0.63 71.6287829,1.8 70.7287829,4.095 C67.3537829,9 63.8437829,15.39 60.1987829,23.31 L54.1237829,36.54 C53.2687829,37.8 52.8637829,38.745 52.8637829,39.42 C52.8637829,40.815 53.4487829,41.535 54.6637829,41.535 C55.4737829,41.535 56.1037829,41.085 56.5537829,40.185 C59.8387829,32.895 62.3137829,27.495 63.9337829,23.895 C68.0287829,15.255 71.8087829,8.775 75.2287829,4.41 C75.6787829,3.87 75.9037829,3.24 75.9037829,2.565 L75.9037829,2.565 Z M98.8786106,7.695 C98.8786106,7.29 98.6536106,6.885 98.2936106,6.525 C97.8886106,6.165 97.4836106,5.985 97.0336106,5.985 C96.6736106,5.985 95.5486106,6.48 93.7036106,7.38 C92.5786106,7.875 91.7236106,8.235 91.1386106,8.415 C88.5736106,9.585 86.6836106,10.485 85.4686106,11.07 C84.2086106,11.7 83.6236106,12.42 83.6236106,13.32 C83.6236106,14.535 84.1636106,15.12 85.2886106,15.12 C85.4686106,15.12 86.3236106,14.76 87.7636106,14.04 C90.8686106,12.51 92.7586106,11.7 93.4336106,11.52 C91.8136106,17.055 91.0036106,23.13 91.0036106,29.79 C91.0036106,31.95 91.0486106,33.435 91.1386106,34.245 C91.2736106,35.55 92.1286106,36.18 93.7036106,36.18 C94.3336106,36.18 94.7836106,35.775 95.0986106,34.875 C95.3686106,34.065 95.5036106,32.49 95.5036106,30.195 C95.5036106,29.385 95.1436106,28.71 94.4686106,28.17 C94.8736106,19.53 96.0436106,13.41 98.0236106,9.765 C98.5636106,8.685 98.8786106,7.965 98.8786106,7.695 L98.8786106,7.695 Z M132.338438,22.905 C132.338438,19.305 131.483438,15.975 129.863438,12.825 C127.973438,9.225 125.633438,7.425 122.753438,7.425 C121.403438,7.425 120.683438,8.145 120.593438,9.54 C117.713438,10.665 115.463438,12.555 113.753438,15.255 C112.043438,17.955 111.188438,21.015 111.188438,24.525 C111.188438,28.395 111.953438,31.455 113.528438,33.66 C115.238438,36.135 117.803438,37.395 121.133438,37.395 C124.598438,37.395 127.343438,36.045 129.368438,33.39 C131.348438,30.735 132.338438,27.225 132.338438,22.905 L132.338438,22.905 Z M128.873438,23.31 C128.873438,26.235 128.108438,28.755 126.578438,30.825 C125.048438,32.895 123.338438,33.93 121.448438,33.93 C119.198438,33.93 117.533438,33.03 116.363438,31.185 C115.238438,29.565 114.698438,27.315 114.698438,24.48 C114.698438,21.6 115.553438,18.945 117.308438,16.425 C119.063438,13.905 121.043438,12.645 123.248438,12.645 C123.968438,12.645 124.553438,12.42 125.003438,11.88 C126.263438,13.05 127.208438,14.85 127.928438,17.19 C128.558438,19.26 128.873438,21.285 128.873438,23.31 L128.873438,23.31 Z" id="2/10" fill="#FFFFFF"></path>
                <path d="M15.8786106,7.695 C15.8786106,7.29 15.6536106,6.885 15.2936106,6.525 C14.8886106,6.165 14.4836106,5.985 14.0336106,5.985 C13.6736106,5.985 12.5486106,6.48 10.7036106,7.38 C9.57861055,7.875 8.72361055,8.235 8.13861055,8.415 C5.57361055,9.585 3.68361055,10.485 2.46861055,11.07 C1.20861055,11.7 0.623610554,12.42 0.623610554,13.32 C0.623610554,14.535 1.16361055,15.12 2.28861055,15.12 C2.46861055,15.12 3.32361055,14.76 4.76361055,14.04 C7.86861055,12.51 9.75861055,11.7 10.4336106,11.52 C8.81361055,17.055 8.00361055,23.13 8.00361055,29.79 C8.00361055,31.95 8.04861055,33.435 8.13861055,34.245 C8.27361055,35.55 9.12861055,36.18 10.7036106,36.18 C11.3336106,36.18 11.7836106,35.775 12.0986106,34.875 C12.3686106,34.065 12.5036106,32.49 12.5036106,30.195 C12.5036106,29.385 12.1436106,28.71 11.4686106,28.17 C11.8736106,19.53 13.0436106,13.41 15.0236106,9.765 C15.5636106,8.685 15.8786106,7.965 15.8786106,7.695 L15.8786106,7.695 Z M49.3384382,22.905 C49.3384382,19.305 48.4834382,15.975 46.8634382,12.825 C44.9734382,9.225 42.6334382,7.425 39.7534382,7.425 C38.4034382,7.425 37.6834382,8.145 37.5934382,9.54 C34.7134382,10.665 32.4634382,12.555 30.7534382,15.255 C29.0434382,17.955 28.1884382,21.015 28.1884382,24.525 C28.1884382,28.395 28.9534382,31.455 30.5284382,33.66 C32.2384382,36.135 34.8034382,37.395 38.1334382,37.395 C41.5984382,37.395 44.3434382,36.045 46.3684382,33.39 C48.3484382,30.735 49.3384382,27.225 49.3384382,22.905 L49.3384382,22.905 Z M45.8734382,23.31 C45.8734382,26.235 45.1084382,28.755 43.5784382,30.825 C42.0484382,32.895 40.3384382,33.93 38.4484382,33.93 C36.1984382,33.93 34.5334382,33.03 33.3634382,31.185 C32.2384382,29.565 31.6984382,27.315 31.6984382,24.48 C31.6984382,21.6 32.5534382,18.945 34.3084382,16.425 C36.0634382,13.905 38.0434382,12.645 40.2484382,12.645 C40.9684382,12.645 41.5534382,12.42 42.0034382,11.88 C43.2634382,13.05 44.2084382,14.85 44.9284382,17.19 C45.5584382,19.26 45.8734382,21.285 45.8734382,23.31 L45.8734382,23.31 Z" id="2/10" fill="#FFD100"></path>
            </g>
        </g>
    </g>
</svg>