<?xml version="1.0" encoding="UTF-8"?>
<svg width="109px" height="42px" viewBox="0 0 109 42" version="1.1" xmlns="http://www.w3.org/2000/svg" xmlns:xlink="http://www.w3.org/1999/xlink">
    <!-- Generator: Sketch 40.3 (33839) - http://www.bohemiancoding.com/sketch -->
    <title>Group</title>
    <desc>Created with Sketch.</desc>
    <defs></defs>
    <g id="Page-1" stroke="none" stroke-width="1" fill="none" fill-rule="evenodd">
        <g id="1600--copy-7" transform="translate(-744.000000, -409.000000)">
            <g id="Group" transform="translate(744.000000, 409.000000)">
                <path d="M51.9037829,2.565 C51.9037829,1.305 51.2737829,0.63 50.1037829,0.63 C48.7537829,0.63 47.6287829,1.8 46.7287829,4.095 C43.3537829,9 39.8437829,15.39 36.1987829,23.31 L30.1237829,36.54 C29.2687829,37.8 28.8637829,38.745 28.8637829,39.42 C28.8637829,40.815 29.4487829,41.535 30.6637829,41.535 C31.4737829,41.535 32.1037829,41.085 32.5537829,40.185 C35.8387829,32.895 38.3137829,27.495 39.9337829,23.895 C44.0287829,15.255 47.8087829,8.775 51.2287829,4.41 C51.6787829,3.87 51.9037829,3.24 51.9037829,2.565 L51.9037829,2.565 Z M74.8786106,7.695 C74.8786106,7.29 74.6536106,6.885 74.2936106,6.525 C73.8886106,6.165 73.4836106,5.985 73.0336106,5.985 C72.6736106,5.985 71.5486106,6.48 69.7036106,7.38 C68.5786106,7.875 67.7236106,8.235 67.1386106,8.415 C64.5736106,9.585 62.6836106,10.485 61.4686106,11.07 C60.2086106,11.7 59.6236106,12.42 59.6236106,13.32 C59.6236106,14.535 60.1636106,15.12 61.2886106,15.12 C61.4686106,15.12 62.3236106,14.76 63.7636106,14.04 C66.8686106,12.51 68.7586106,11.7 69.4336106,11.52 C67.8136106,17.055 67.0036106,23.13 67.0036106,29.79 C67.0036106,31.95 67.0486106,33.435 67.1386106,34.245 C67.2736106,35.55 68.1286106,36.18 69.7036106,36.18 C70.3336106,36.18 70.7836106,35.775 71.0986106,34.875 C71.3686106,34.065 71.5036106,32.49 71.5036106,30.195 C71.5036106,29.385 71.1436106,28.71 70.4686106,28.17 C70.8736106,19.53 72.0436106,13.41 74.0236106,9.765 C74.5636106,8.685 74.8786106,7.965 74.8786106,7.695 L74.8786106,7.695 Z M108.338438,22.905 C108.338438,19.305 107.483438,15.975 105.863438,12.825 C103.973438,9.225 101.633438,7.425 98.7534382,7.425 C97.4034382,7.425 96.6834382,8.145 96.5934382,9.54 C93.7134382,10.665 91.4634382,12.555 89.7534382,15.255 C88.0434382,17.955 87.1884382,21.015 87.1884382,24.525 C87.1884382,28.395 87.9534382,31.455 89.5284382,33.66 C91.2384382,36.135 93.8034382,37.395 97.1334382,37.395 C100.598438,37.395 103.343438,36.045 105.368438,33.39 C107.348438,30.735 108.338438,27.225 108.338438,22.905 L108.338438,22.905 Z M104.873438,23.31 C104.873438,26.235 104.108438,28.755 102.578438,30.825 C101.048438,32.895 99.3384382,33.93 97.4484382,33.93 C95.1984382,33.93 93.5334382,33.03 92.3634382,31.185 C91.2384382,29.565 90.6984382,27.315 90.6984382,24.48 C90.6984382,21.6 91.5534382,18.945 93.3084382,16.425 C95.0634382,13.905 97.0434382,12.645 99.2484382,12.645 C99.9684382,12.645 100.553438,12.42 101.003438,11.88 C102.263438,13.05 103.208438,14.85 103.928438,17.19 C104.558438,19.26 104.873438,21.285 104.873438,23.31 L104.873438,23.31 Z" id="2/10" fill="#FFFFFF"></path>
                <path d="M19.1361967,34.075 C19.1361967,32.815 18.5061967,32.14 17.2461967,32.14 C17.0661967,32.14 16.7961967,32.23 16.4811967,32.32 C16.1211967,32.41 15.8511967,32.5 15.7611967,32.5 C13.9611967,32.815 12.0711967,32.95 10.0011967,32.95 C7.66119673,32.95 6.53619673,32.68 6.53619673,32.095 C6.62619673,31.24 7.43619673,29.755 8.96619673,27.64 C10.0011967,26.245 11.0361967,24.85 12.1161967,23.455 C14.3211967,20.305 15.7161967,18.235 16.3011967,17.2 C17.4261967,15.22 18.0111967,13.375 18.0111967,11.755 C18.0111967,8.335 16.2561967,6.625 12.8361967,6.625 C10.5861967,6.625 7.52619673,7.66 3.65619673,9.685 C2.80119673,9.82 2.12619673,10.09 1.63119673,10.54 C0.776196728,11.215 0.371196728,11.89 0.371196728,12.52 C0.371196728,14.005 0.956196728,14.725 2.17119673,14.725 C2.57619673,14.725 3.47619673,14.275 4.82619673,13.375 C7.93119673,11.395 10.5411967,10.36 12.6111967,10.36 C13.6911967,10.36 14.2761967,10.945 14.2761967,12.07 C14.2761967,13.96 12.5661967,17.11 9.23619673,21.475 C6.89619673,24.535 5.59119673,26.29 5.23119673,26.74 C3.61119673,29.17 2.80119673,31.15 2.80119673,32.59 C2.80119673,35.38 4.87119673,36.73 9.05619673,36.73 C12.1161967,36.73 14.8611967,36.505 17.3811967,35.965 C18.5511967,35.695 19.1361967,35.065 19.1361967,34.075 L19.1361967,34.075 Z" id="2/10" fill="#FFD100"></path>
            </g>
        </g>
    </g>
</svg>