<?xml version="1.0" encoding="UTF-8"?>
<svg width="109px" height="42px" viewBox="0 0 109 42" version="1.1" xmlns="http://www.w3.org/2000/svg" xmlns:xlink="http://www.w3.org/1999/xlink">
    <!-- Generator: Sketch 40.3 (33839) - http://www.bohemiancoding.com/sketch -->
    <title>Group 4</title>
    <desc>Created with Sketch.</desc>
    <defs></defs>
    <g id="Page-1" stroke="none" stroke-width="1" fill="none" fill-rule="evenodd">
        <g id="1600--copy-7" transform="translate(-904.000000, -329.000000)">
            <g id="Group-4" transform="translate(904.000000, 329.000000)">
                <path d="M51.9037829,2.565 C51.9037829,1.305 51.2737829,0.63 50.1037829,0.63 C48.7537829,0.63 47.6287829,1.8 46.7287829,4.095 C43.3537829,9 39.8437829,15.39 36.1987829,23.31 L30.1237829,36.54 C29.2687829,37.8 28.8637829,38.745 28.8637829,39.42 C28.8637829,40.815 29.4487829,41.535 30.6637829,41.535 C31.4737829,41.535 32.1037829,41.085 32.5537829,40.185 C35.8387829,32.895 38.3137829,27.495 39.9337829,23.895 C44.0287829,15.255 47.8087829,8.775 51.2287829,4.41 C51.6787829,3.87 51.9037829,3.24 51.9037829,2.565 L51.9037829,2.565 Z M74.8786106,7.695 C74.8786106,7.29 74.6536106,6.885 74.2936106,6.525 C73.8886106,6.165 73.4836106,5.985 73.0336106,5.985 C72.6736106,5.985 71.5486106,6.48 69.7036106,7.38 C68.5786106,7.875 67.7236106,8.235 67.1386106,8.415 C64.5736106,9.585 62.6836106,10.485 61.4686106,11.07 C60.2086106,11.7 59.6236106,12.42 59.6236106,13.32 C59.6236106,14.535 60.1636106,15.12 61.2886106,15.12 C61.4686106,15.12 62.3236106,14.76 63.7636106,14.04 C66.8686106,12.51 68.7586106,11.7 69.4336106,11.52 C67.8136106,17.055 67.0036106,23.13 67.0036106,29.79 C67.0036106,31.95 67.0486106,33.435 67.1386106,34.245 C67.2736106,35.55 68.1286106,36.18 69.7036106,36.18 C70.3336106,36.18 70.7836106,35.775 71.0986106,34.875 C71.3686106,34.065 71.5036106,32.49 71.5036106,30.195 C71.5036106,29.385 71.1436106,28.71 70.4686106,28.17 C70.8736106,19.53 72.0436106,13.41 74.0236106,9.765 C74.5636106,8.685 74.8786106,7.965 74.8786106,7.695 L74.8786106,7.695 Z M108.338438,22.905 C108.338438,19.305 107.483438,15.975 105.863438,12.825 C103.973438,9.225 101.633438,7.425 98.7534382,7.425 C97.4034382,7.425 96.6834382,8.145 96.5934382,9.54 C93.7134382,10.665 91.4634382,12.555 89.7534382,15.255 C88.0434382,17.955 87.1884382,21.015 87.1884382,24.525 C87.1884382,28.395 87.9534382,31.455 89.5284382,33.66 C91.2384382,36.135 93.8034382,37.395 97.1334382,37.395 C100.598438,37.395 103.343438,36.045 105.368438,33.39 C107.348438,30.735 108.338438,27.225 108.338438,22.905 L108.338438,22.905 Z M104.873438,23.31 C104.873438,26.235 104.108438,28.755 102.578438,30.825 C101.048438,32.895 99.3384382,33.93 97.4484382,33.93 C95.1984382,33.93 93.5334382,33.03 92.3634382,31.185 C91.2384382,29.565 90.6984382,27.315 90.6984382,24.48 C90.6984382,21.6 91.5534382,18.945 93.3084382,16.425 C95.0634382,13.905 97.0434382,12.645 99.2484382,12.645 C99.9684382,12.645 100.553438,12.42 101.003438,11.88 C102.263438,13.05 103.208438,14.85 103.928438,17.19 C104.558438,19.26 104.873438,21.285 104.873438,23.31 L104.873438,23.31 Z" id="2/10" fill="#FFFFFF"></path>
                <path d="M19.9321088,9.524 C19.9321088,7.896 19.1841088,6.62 17.7321088,5.696 C16.5001088,4.948 15.0041088,4.552 13.3321088,4.552 C11.5281088,4.552 9.54810884,4.816 7.34810884,5.3 C4.88410884,5.872 3.03610884,6.576 1.80410884,7.412 C1.18810884,7.852 0.880108844,8.468 0.880108844,9.26 C0.880108844,9.788 1.05610884,10.184 1.45210884,10.492 C1.84810884,10.844 2.28810884,10.976 2.77210884,10.976 C2.99210884,10.976 3.25610884,10.888 3.60810884,10.712 C3.87210884,10.58 4.18010884,10.448 4.44410884,10.272 C7.39210884,9.04 10.3401088,8.38 13.3321088,8.38 C15.3121088,8.38 16.3241088,8.908 16.3241088,9.876 C16.3241088,10.712 15.9721088,11.46 15.3121088,12.164 C14.8721088,12.692 14.0361088,13.352 12.8041088,14.188 L6.60010884,18.456 C4.57610884,19.864 3.56410884,20.92 3.56410884,21.58 C3.56410884,22.064 3.69610884,22.46 4.00410884,22.768 C4.26810884,23.076 4.66410884,23.208 5.14810884,23.208 C5.36810884,23.208 5.72010884,23.208 6.16010884,23.164 L7.21610884,23.164 C13.2001088,23.164 16.2361088,24.396 16.2361088,26.772 C16.2361088,27.828 15.3561088,28.884 13.6401088,29.94 C11.8801088,30.996 10.0761088,31.524 8.22810884,31.524 C7.48010884,31.524 6.60010884,31.436 5.63210884,31.172 C4.13610884,30.82 3.21210884,30.6 2.94810884,30.6 C1.76010884,30.6 1.18810884,31.304 1.18810884,32.624 C1.18810884,33.636 2.11210884,34.34 3.96010884,34.78 C5.10410884,35.044 6.42410884,35.22 7.92010884,35.22 C10.9121088,35.22 13.5521088,34.472 15.8401088,32.932 C18.3921088,31.216 19.7121088,29.016 19.7121088,26.376 C19.7121088,22.504 16.7201088,20.304 10.7361088,19.82 L13.6401088,17.708 C15.6641088,16.212 17.0721088,15.112 17.7761088,14.32 C19.1841088,12.868 19.9321088,11.284 19.9321088,9.524 L19.9321088,9.524 Z" id="3" fill="#FFD100"></path>
            </g>
        </g>
    </g>
</svg>