<?xml version="1.0" encoding="UTF-8"?>
<svg width="109px" height="42px" viewBox="0 0 109 42" version="1.1" xmlns="http://www.w3.org/2000/svg" xmlns:xlink="http://www.w3.org/1999/xlink">
    <!-- Generator: Sketch 40.3 (33839) - http://www.bohemiancoding.com/sketch -->
    <title>Group 5</title>
    <desc>Created with Sketch.</desc>
    <defs></defs>
    <g id="Page-1" stroke="none" stroke-width="1" fill="none" fill-rule="evenodd">
        <g id="1600--copy-7" transform="translate(-1044.000000, -329.000000)">
            <g id="Group-5" transform="translate(1044.000000, 329.000000)">
                <path d="M51.9037829,2.565 C51.9037829,1.305 51.2737829,0.63 50.1037829,0.63 C48.7537829,0.63 47.6287829,1.8 46.7287829,4.095 C43.3537829,9 39.8437829,15.39 36.1987829,23.31 L30.1237829,36.54 C29.2687829,37.8 28.8637829,38.745 28.8637829,39.42 C28.8637829,40.815 29.4487829,41.535 30.6637829,41.535 C31.4737829,41.535 32.1037829,41.085 32.5537829,40.185 C35.8387829,32.895 38.3137829,27.495 39.9337829,23.895 C44.0287829,15.255 47.8087829,8.775 51.2287829,4.41 C51.6787829,3.87 51.9037829,3.24 51.9037829,2.565 L51.9037829,2.565 Z M74.8786106,7.695 C74.8786106,7.29 74.6536106,6.885 74.2936106,6.525 C73.8886106,6.165 73.4836106,5.985 73.0336106,5.985 C72.6736106,5.985 71.5486106,6.48 69.7036106,7.38 C68.5786106,7.875 67.7236106,8.235 67.1386106,8.415 C64.5736106,9.585 62.6836106,10.485 61.4686106,11.07 C60.2086106,11.7 59.6236106,12.42 59.6236106,13.32 C59.6236106,14.535 60.1636106,15.12 61.2886106,15.12 C61.4686106,15.12 62.3236106,14.76 63.7636106,14.04 C66.8686106,12.51 68.7586106,11.7 69.4336106,11.52 C67.8136106,17.055 67.0036106,23.13 67.0036106,29.79 C67.0036106,31.95 67.0486106,33.435 67.1386106,34.245 C67.2736106,35.55 68.1286106,36.18 69.7036106,36.18 C70.3336106,36.18 70.7836106,35.775 71.0986106,34.875 C71.3686106,34.065 71.5036106,32.49 71.5036106,30.195 C71.5036106,29.385 71.1436106,28.71 70.4686106,28.17 C70.8736106,19.53 72.0436106,13.41 74.0236106,9.765 C74.5636106,8.685 74.8786106,7.965 74.8786106,7.695 L74.8786106,7.695 Z M108.338438,22.905 C108.338438,19.305 107.483438,15.975 105.863438,12.825 C103.973438,9.225 101.633438,7.425 98.7534382,7.425 C97.4034382,7.425 96.6834382,8.145 96.5934382,9.54 C93.7134382,10.665 91.4634382,12.555 89.7534382,15.255 C88.0434382,17.955 87.1884382,21.015 87.1884382,24.525 C87.1884382,28.395 87.9534382,31.455 89.5284382,33.66 C91.2384382,36.135 93.8034382,37.395 97.1334382,37.395 C100.598438,37.395 103.343438,36.045 105.368438,33.39 C107.348438,30.735 108.338438,27.225 108.338438,22.905 L108.338438,22.905 Z M104.873438,23.31 C104.873438,26.235 104.108438,28.755 102.578438,30.825 C101.048438,32.895 99.3384382,33.93 97.4484382,33.93 C95.1984382,33.93 93.5334382,33.03 92.3634382,31.185 C91.2384382,29.565 90.6984382,27.315 90.6984382,24.48 C90.6984382,21.6 91.5534382,18.945 93.3084382,16.425 C95.0634382,13.905 97.0434382,12.645 99.2484382,12.645 C99.9684382,12.645 100.553438,12.42 101.003438,11.88 C102.263438,13.05 103.208438,14.85 103.928438,17.19 C104.558438,19.26 104.873438,21.285 104.873438,23.31 L104.873438,23.31 Z" id="2/10" fill="#FFFFFF"></path>
                <path d="M24.6601088,20.392 C24.6601088,19.864 24.4841088,19.424 24.1761088,19.072 C23.8241088,18.764 23.4281088,18.588 22.9441088,18.588 C22.0641088,18.588 21.0081088,18.808 19.6881088,19.204 C17.8401088,19.776 16.4761088,20.216 15.5521088,20.48 C16.0361088,17.884 16.3881088,16.212 16.6081088,15.464 C17.4881088,12.516 17.9281088,10.976 17.9281088,10.888 C17.9281088,9.788 17.3121088,9.216 16.1681088,9.216 C15.5521088,9.216 15.1121088,9.568 14.8481088,10.272 C14.2321088,11.768 13.7041088,13.572 13.2201088,15.684 C13.1321088,16.124 12.7361088,17.972 12.0321088,21.228 C10.0961088,21.668 8.51210884,21.844 7.32410884,21.844 C4.86010884,21.844 3.62810884,21.272 3.62810884,20.04 C3.62810884,18.368 4.28810884,16.432 5.69610884,14.32 C6.44410884,13.176 7.89610884,11.372 10.0521088,8.82 C12.0761088,8.028 13.1321088,6.884 13.1321088,5.388 C13.1321088,4.86 12.9121088,4.42 12.5601088,4.068 C12.2081088,3.76 11.7681088,3.584 11.2401088,3.584 C10.5361088,3.584 9.43610884,4.376 7.89610884,5.96 C2.70410884,11.372 0.108108844,16.036 0.108108844,19.996 C0.108108844,21.844 0.680108844,23.208 1.91210884,24.176 C3.01210884,25.1 4.50810884,25.54 6.44410884,25.54 C8.11610884,25.54 9.87610884,25.408 11.6361088,25.1 C11.5481088,26.728 11.5041088,27.872 11.5041088,28.488 C11.5041088,31.832 11.8121088,34.604 12.5161088,36.76 C12.8681088,37.772 13.4401088,38.3 14.3201088,38.3 C15.1561088,38.3 15.6841088,37.728 15.9041088,36.672 C15.9041088,36.584 15.8161088,36.012 15.7281088,34.868 C15.6401088,33.724 15.6401088,32.844 15.6401088,32.316 C15.6401088,31.744 15.4641088,31.172 15.1121088,30.556 C15.1121088,30.38 15.0681088,29.984 15.0241088,29.368 C14.9801088,28.752 14.9801088,28.356 14.9801088,28.092 C14.9801088,27.212 15.0241088,25.98 15.1121088,24.308 C17.4881088,23.692 19.3361088,23.12 20.7001088,22.592 C22.0201088,22.592 22.9001088,22.548 23.2961088,22.416 C24.1761088,22.152 24.6601088,21.448 24.6601088,20.392 L24.6601088,20.392 Z" id="4" fill="#FFD100"></path>
            </g>
        </g>
    </g>
</svg>