<?xml version="1.0" encoding="UTF-8"?>
<svg width="109px" height="42px" viewBox="0 0 109 42" version="1.1" xmlns="http://www.w3.org/2000/svg" xmlns:xlink="http://www.w3.org/1999/xlink">
    <!-- Generator: Sketch 40.3 (33839) - http://www.bohemiancoding.com/sketch -->
    <title>Group 7</title>
    <desc>Created with Sketch.</desc>
    <defs></defs>
    <g id="Page-1" stroke="none" stroke-width="1" fill="none" fill-rule="evenodd">
        <g id="1600--copy-7" transform="translate(-1034.000000, -277.000000)">
            <g id="Group-7" transform="translate(1034.000000, 277.000000)">
                <path d="M51.9037829,2.565 C51.9037829,1.305 51.2737829,0.63 50.1037829,0.63 C48.7537829,0.63 47.6287829,1.8 46.7287829,4.095 C43.3537829,9 39.8437829,15.39 36.1987829,23.31 L30.1237829,36.54 C29.2687829,37.8 28.8637829,38.745 28.8637829,39.42 C28.8637829,40.815 29.4487829,41.535 30.6637829,41.535 C31.4737829,41.535 32.1037829,41.085 32.5537829,40.185 C35.8387829,32.895 38.3137829,27.495 39.9337829,23.895 C44.0287829,15.255 47.8087829,8.775 51.2287829,4.41 C51.6787829,3.87 51.9037829,3.24 51.9037829,2.565 L51.9037829,2.565 Z M74.8786106,7.695 C74.8786106,7.29 74.6536106,6.885 74.2936106,6.525 C73.8886106,6.165 73.4836106,5.985 73.0336106,5.985 C72.6736106,5.985 71.5486106,6.48 69.7036106,7.38 C68.5786106,7.875 67.7236106,8.235 67.1386106,8.415 C64.5736106,9.585 62.6836106,10.485 61.4686106,11.07 C60.2086106,11.7 59.6236106,12.42 59.6236106,13.32 C59.6236106,14.535 60.1636106,15.12 61.2886106,15.12 C61.4686106,15.12 62.3236106,14.76 63.7636106,14.04 C66.8686106,12.51 68.7586106,11.7 69.4336106,11.52 C67.8136106,17.055 67.0036106,23.13 67.0036106,29.79 C67.0036106,31.95 67.0486106,33.435 67.1386106,34.245 C67.2736106,35.55 68.1286106,36.18 69.7036106,36.18 C70.3336106,36.18 70.7836106,35.775 71.0986106,34.875 C71.3686106,34.065 71.5036106,32.49 71.5036106,30.195 C71.5036106,29.385 71.1436106,28.71 70.4686106,28.17 C70.8736106,19.53 72.0436106,13.41 74.0236106,9.765 C74.5636106,8.685 74.8786106,7.965 74.8786106,7.695 L74.8786106,7.695 Z M108.338438,22.905 C108.338438,19.305 107.483438,15.975 105.863438,12.825 C103.973438,9.225 101.633438,7.425 98.7534382,7.425 C97.4034382,7.425 96.6834382,8.145 96.5934382,9.54 C93.7134382,10.665 91.4634382,12.555 89.7534382,15.255 C88.0434382,17.955 87.1884382,21.015 87.1884382,24.525 C87.1884382,28.395 87.9534382,31.455 89.5284382,33.66 C91.2384382,36.135 93.8034382,37.395 97.1334382,37.395 C100.598438,37.395 103.343438,36.045 105.368438,33.39 C107.348438,30.735 108.338438,27.225 108.338438,22.905 L108.338438,22.905 Z M104.873438,23.31 C104.873438,26.235 104.108438,28.755 102.578438,30.825 C101.048438,32.895 99.3384382,33.93 97.4484382,33.93 C95.1984382,33.93 93.5334382,33.03 92.3634382,31.185 C91.2384382,29.565 90.6984382,27.315 90.6984382,24.48 C90.6984382,21.6 91.5534382,18.945 93.3084382,16.425 C95.0634382,13.905 97.0434382,12.645 99.2484382,12.645 C99.9684382,12.645 100.553438,12.42 101.003438,11.88 C102.263438,13.05 103.208438,14.85 103.928438,17.19 C104.558438,19.26 104.873438,21.285 104.873438,23.31 L104.873438,23.31 Z" id="2/10" fill="#FFFFFF"></path>
                <path d="M20.2841088,24.176 C20.2841088,22.196 19.4481088,20.612 17.7761088,19.38 C16.2801088,18.28 14.3441088,17.708 12.0561088,17.708 C10.1201088,17.708 7.87610884,18.28 5.36810884,19.336 C6.33610884,14.804 7.08410884,11.68 7.65610884,9.964 C9.15210884,9.172 10.9121088,8.776 13.0241088,8.776 C14.3441088,8.776 15.4881088,8.908 16.3681088,9.128 C17.3361088,9.392 17.8641088,9.48 17.9081088,9.48 C18.9201088,9.48 19.4481088,8.82 19.4481088,7.412 C19.4481088,5.916 17.6001088,5.168 13.9481088,5.168 C10.7801088,5.168 8.18410884,5.652 6.20410884,6.576 C4.79610884,7.28 4.13610884,8.028 4.13610884,8.908 C4.13610884,9.216 4.18010884,9.524 4.26810884,9.832 C3.12410884,14.408 2.28810884,17.928 1.84810884,20.392 C1.58410884,21.448 1.49610884,22.152 1.49610884,22.416 C1.49610884,22.856 1.62810884,23.252 1.98010884,23.56 C2.28810884,23.912 2.68410884,24.088 3.12410884,24.088 C3.56410884,24.088 4.22410884,23.868 5.06010884,23.428 C7.70010884,21.976 9.94410884,21.228 11.7921088,21.228 C15.1361088,21.228 16.8521088,22.46 16.8521088,24.88 C16.8521088,26.508 15.8401088,28.092 13.9041088,29.588 C12.4081088,30.688 10.6481088,31.612 8.62410884,32.36 C6.95210884,32.976 5.54410884,33.24 4.48810884,33.24 C4.00410884,33.24 3.56410884,33.196 3.12410884,33.064 C2.68410884,32.976 2.42010884,32.888 2.37610884,32.888 C1.14410884,32.888 0.572108844,33.548 0.572108844,34.78 C0.572108844,36.1 1.58410884,36.804 3.65210884,36.804 C5.72010884,36.804 8.14010884,36.232 10.9561088,35.088 C17.1601088,32.536 20.2841088,28.928 20.2841088,24.176 L20.2841088,24.176 Z" id="5" fill="#FFD100"></path>
            </g>
        </g>
    </g>
</svg>