<?xml version="1.0" encoding="UTF-8"?>
<svg width="109px" height="42px" viewBox="0 0 109 42" version="1.1" xmlns="http://www.w3.org/2000/svg" xmlns:xlink="http://www.w3.org/1999/xlink">
    <!-- Generator: Sketch 40.3 (33839) - http://www.bohemiancoding.com/sketch -->
    <title>Group 8</title>
    <desc>Created with Sketch.</desc>
    <defs></defs>
    <g id="Page-1" stroke="none" stroke-width="1" fill="none" fill-rule="evenodd">
        <g id="1600--copy-7" transform="translate(-894.000000, -279.000000)">
            <g id="Group-8" transform="translate(894.000000, 279.000000)">
                <path d="M51.9037829,2.565 C51.9037829,1.305 51.2737829,0.63 50.1037829,0.63 C48.7537829,0.63 47.6287829,1.8 46.7287829,4.095 C43.3537829,9 39.8437829,15.39 36.1987829,23.31 L30.1237829,36.54 C29.2687829,37.8 28.8637829,38.745 28.8637829,39.42 C28.8637829,40.815 29.4487829,41.535 30.6637829,41.535 C31.4737829,41.535 32.1037829,41.085 32.5537829,40.185 C35.8387829,32.895 38.3137829,27.495 39.9337829,23.895 C44.0287829,15.255 47.8087829,8.775 51.2287829,4.41 C51.6787829,3.87 51.9037829,3.24 51.9037829,2.565 L51.9037829,2.565 Z M74.8786106,7.695 C74.8786106,7.29 74.6536106,6.885 74.2936106,6.525 C73.8886106,6.165 73.4836106,5.985 73.0336106,5.985 C72.6736106,5.985 71.5486106,6.48 69.7036106,7.38 C68.5786106,7.875 67.7236106,8.235 67.1386106,8.415 C64.5736106,9.585 62.6836106,10.485 61.4686106,11.07 C60.2086106,11.7 59.6236106,12.42 59.6236106,13.32 C59.6236106,14.535 60.1636106,15.12 61.2886106,15.12 C61.4686106,15.12 62.3236106,14.76 63.7636106,14.04 C66.8686106,12.51 68.7586106,11.7 69.4336106,11.52 C67.8136106,17.055 67.0036106,23.13 67.0036106,29.79 C67.0036106,31.95 67.0486106,33.435 67.1386106,34.245 C67.2736106,35.55 68.1286106,36.18 69.7036106,36.18 C70.3336106,36.18 70.7836106,35.775 71.0986106,34.875 C71.3686106,34.065 71.5036106,32.49 71.5036106,30.195 C71.5036106,29.385 71.1436106,28.71 70.4686106,28.17 C70.8736106,19.53 72.0436106,13.41 74.0236106,9.765 C74.5636106,8.685 74.8786106,7.965 74.8786106,7.695 L74.8786106,7.695 Z M108.338438,22.905 C108.338438,19.305 107.483438,15.975 105.863438,12.825 C103.973438,9.225 101.633438,7.425 98.7534382,7.425 C97.4034382,7.425 96.6834382,8.145 96.5934382,9.54 C93.7134382,10.665 91.4634382,12.555 89.7534382,15.255 C88.0434382,17.955 87.1884382,21.015 87.1884382,24.525 C87.1884382,28.395 87.9534382,31.455 89.5284382,33.66 C91.2384382,36.135 93.8034382,37.395 97.1334382,37.395 C100.598438,37.395 103.343438,36.045 105.368438,33.39 C107.348438,30.735 108.338438,27.225 108.338438,22.905 L108.338438,22.905 Z M104.873438,23.31 C104.873438,26.235 104.108438,28.755 102.578438,30.825 C101.048438,32.895 99.3384382,33.93 97.4484382,33.93 C95.1984382,33.93 93.5334382,33.03 92.3634382,31.185 C91.2384382,29.565 90.6984382,27.315 90.6984382,24.48 C90.6984382,21.6 91.5534382,18.945 93.3084382,16.425 C95.0634382,13.905 97.0434382,12.645 99.2484382,12.645 C99.9684382,12.645 100.553438,12.42 101.003438,11.88 C102.263438,13.05 103.208438,14.85 103.928438,17.19 C104.558438,19.26 104.873438,21.285 104.873438,23.31 L104.873438,23.31 Z" id="2/10" fill="#FFFFFF"></path>
                <path d="M20.1521088,27.256 C20.1521088,24.308 18.5681088,22.812 15.4441088,22.812 C13.8601088,22.812 12.1001088,23.252 10.1641088,24.044 C9.19610884,24.484 7.56810884,25.32 5.32410884,26.552 C5.32410884,21.184 6.38010884,16.212 8.49210884,11.724 C8.80010884,11.02 9.15210884,10.36 9.59210884,9.832 C9.81210884,9.524 10.1641088,9.084 10.6481088,8.556 C11.3961088,7.72 11.7921088,7.104 11.7921088,6.664 C11.7921088,5.432 11.1761088,4.816 10.0321088,4.816 C9.46010884,4.816 8.66810884,5.476 7.70010884,6.796 C5.85210884,9.216 4.40010884,12.384 3.34410884,16.344 C2.37610884,19.908 1.89210884,23.428 1.89210884,26.904 C1.89210884,27.52 1.89210884,28.092 1.98010884,28.576 C1.10010884,29.236 0.660108844,29.852 0.660108844,30.424 C0.660108844,31.48 1.36410884,32.052 2.77210884,32.14 C4.22410884,35.396 6.46810884,37.068 9.50410884,37.068 C11.9241088,37.068 14.2561088,36.056 16.5441088,34.076 C18.9201088,32.008 20.1521088,29.72 20.1521088,27.256 L20.1521088,27.256 Z M16.8081088,27.212 C16.8081088,28.796 15.9721088,30.248 14.3001088,31.524 C12.6281088,32.844 10.8681088,33.504 9.10810884,33.504 C8.40410884,33.504 7.74410884,33.196 7.12810884,32.536 C6.51210884,31.92 6.11610884,31.216 5.85210884,30.424 C6.90810884,29.456 8.40410884,28.488 10.2521088,27.608 C12.1881088,26.684 13.8161088,26.2 15.1361088,26.2 C16.2361088,26.2 16.8081088,26.552 16.8081088,27.212 L16.8081088,27.212 Z" id="6" fill="#FFD100"></path>
            </g>
        </g>
    </g>
</svg>