<?xml version="1.0" encoding="UTF-8"?>
<svg width="109px" height="42px" viewBox="0 0 109 42" version="1.1" xmlns="http://www.w3.org/2000/svg" xmlns:xlink="http://www.w3.org/1999/xlink">
    <!-- Generator: Sketch 40.3 (33839) - http://www.bohemiancoding.com/sketch -->
    <title>Group 9</title>
    <desc>Created with Sketch.</desc>
    <defs></defs>
    <g id="Page-1" stroke="none" stroke-width="1" fill="none" fill-rule="evenodd">
        <g id="1600--copy-7" transform="translate(-734.000000, -279.000000)">
            <g id="Group-9" transform="translate(734.000000, 279.000000)">
                <path d="M51.9037829,2.565 C51.9037829,1.305 51.2737829,0.63 50.1037829,0.63 C48.7537829,0.63 47.6287829,1.8 46.7287829,4.095 C43.3537829,9 39.8437829,15.39 36.1987829,23.31 L30.1237829,36.54 C29.2687829,37.8 28.8637829,38.745 28.8637829,39.42 C28.8637829,40.815 29.4487829,41.535 30.6637829,41.535 C31.4737829,41.535 32.1037829,41.085 32.5537829,40.185 C35.8387829,32.895 38.3137829,27.495 39.9337829,23.895 C44.0287829,15.255 47.8087829,8.775 51.2287829,4.41 C51.6787829,3.87 51.9037829,3.24 51.9037829,2.565 L51.9037829,2.565 Z M74.8786106,7.695 C74.8786106,7.29 74.6536106,6.885 74.2936106,6.525 C73.8886106,6.165 73.4836106,5.985 73.0336106,5.985 C72.6736106,5.985 71.5486106,6.48 69.7036106,7.38 C68.5786106,7.875 67.7236106,8.235 67.1386106,8.415 C64.5736106,9.585 62.6836106,10.485 61.4686106,11.07 C60.2086106,11.7 59.6236106,12.42 59.6236106,13.32 C59.6236106,14.535 60.1636106,15.12 61.2886106,15.12 C61.4686106,15.12 62.3236106,14.76 63.7636106,14.04 C66.8686106,12.51 68.7586106,11.7 69.4336106,11.52 C67.8136106,17.055 67.0036106,23.13 67.0036106,29.79 C67.0036106,31.95 67.0486106,33.435 67.1386106,34.245 C67.2736106,35.55 68.1286106,36.18 69.7036106,36.18 C70.3336106,36.18 70.7836106,35.775 71.0986106,34.875 C71.3686106,34.065 71.5036106,32.49 71.5036106,30.195 C71.5036106,29.385 71.1436106,28.71 70.4686106,28.17 C70.8736106,19.53 72.0436106,13.41 74.0236106,9.765 C74.5636106,8.685 74.8786106,7.965 74.8786106,7.695 L74.8786106,7.695 Z M108.338438,22.905 C108.338438,19.305 107.483438,15.975 105.863438,12.825 C103.973438,9.225 101.633438,7.425 98.7534382,7.425 C97.4034382,7.425 96.6834382,8.145 96.5934382,9.54 C93.7134382,10.665 91.4634382,12.555 89.7534382,15.255 C88.0434382,17.955 87.1884382,21.015 87.1884382,24.525 C87.1884382,28.395 87.9534382,31.455 89.5284382,33.66 C91.2384382,36.135 93.8034382,37.395 97.1334382,37.395 C100.598438,37.395 103.343438,36.045 105.368438,33.39 C107.348438,30.735 108.338438,27.225 108.338438,22.905 L108.338438,22.905 Z M104.873438,23.31 C104.873438,26.235 104.108438,28.755 102.578438,30.825 C101.048438,32.895 99.3384382,33.93 97.4484382,33.93 C95.1984382,33.93 93.5334382,33.03 92.3634382,31.185 C91.2384382,29.565 90.6984382,27.315 90.6984382,24.48 C90.6984382,21.6 91.5534382,18.945 93.3084382,16.425 C95.0634382,13.905 97.0434382,12.645 99.2484382,12.645 C99.9684382,12.645 100.553438,12.42 101.003438,11.88 C102.263438,13.05 103.208438,14.85 103.928438,17.19 C104.558438,19.26 104.873438,21.285 104.873438,23.31 L104.873438,23.31 Z" id="2/10" fill="#FFFFFF"></path>
                <path d="M25.8801088,20.172 C25.8801088,19.292 25.3961088,18.852 24.4721088,18.852 C23.5481088,18.852 21.3481088,18.984 17.8281088,19.16 C18.4441088,16.696 18.7521088,14.628 18.7521088,13 C18.7521088,8.072 15.5401088,5.564 9.16010884,5.564 C7.79610884,5.564 5.72810884,5.74 2.95610884,6.092 C1.54810884,6.268 0.888108844,6.884 0.888108844,7.896 C0.888108844,8.38 1.02010884,8.776 1.32810884,9.128 C1.63610884,9.48 2.03210884,9.656 2.47210884,9.656 C2.56010884,9.656 3.22010884,9.612 4.49610884,9.436 C6.43210884,9.26 7.88410884,9.172 8.85210884,9.172 C13.2081088,9.172 15.4081088,10.404 15.4081088,12.824 C15.4081088,14.496 15.0121088,16.652 14.3081088,19.38 C9.73210884,19.644 6.74010884,19.864 5.28810884,19.952 C2.91210884,20.128 1.72410884,21.008 1.72410884,22.504 C1.72410884,23.736 2.42810884,24.352 3.83610884,24.352 C4.71610884,24.352 5.55210884,24.132 6.34410884,23.604 C7.04810884,23.12 7.66410884,22.856 8.14810884,22.812 C10.4361088,22.68 12.1961088,22.548 13.3841088,22.46 C11.4481088,28.928 10.5241088,32.932 10.5241088,34.516 C10.5241088,35.572 11.1401088,36.1 12.4601088,36.1 C13.4281088,36.1 14.0001088,35.44 14.1761088,34.12 C14.5281088,31.304 15.4961088,27.344 16.9921088,22.196 L23.9441088,21.712 C24.5161088,21.712 25.0001088,21.492 25.3961088,21.096 C25.7041088,20.832 25.8801088,20.524 25.8801088,20.172 L25.8801088,20.172 Z" id="7" fill="#FFD100"></path>
            </g>
        </g>
    </g>
</svg>