<?xml version="1.0" encoding="UTF-8"?>
<svg width="109px" height="42px" viewBox="0 0 109 42" version="1.1" xmlns="http://www.w3.org/2000/svg" xmlns:xlink="http://www.w3.org/1999/xlink">
    <!-- Generator: Sketch 40.3 (33839) - http://www.bohemiancoding.com/sketch -->
    <title>Group 10</title>
    <desc>Created with Sketch.</desc>
    <defs></defs>
    <g id="Page-1" stroke="none" stroke-width="1" fill="none" fill-rule="evenodd">
        <g id="1600--copy-7" transform="translate(-614.000000, -329.000000)">
            <g id="Group-10" transform="translate(614.000000, 329.000000)">
                <path d="M51.9037829,2.565 C51.9037829,1.305 51.2737829,0.63 50.1037829,0.63 C48.7537829,0.63 47.6287829,1.8 46.7287829,4.095 C43.3537829,9 39.8437829,15.39 36.1987829,23.31 L30.1237829,36.54 C29.2687829,37.8 28.8637829,38.745 28.8637829,39.42 C28.8637829,40.815 29.4487829,41.535 30.6637829,41.535 C31.4737829,41.535 32.1037829,41.085 32.5537829,40.185 C35.8387829,32.895 38.3137829,27.495 39.9337829,23.895 C44.0287829,15.255 47.8087829,8.775 51.2287829,4.41 C51.6787829,3.87 51.9037829,3.24 51.9037829,2.565 L51.9037829,2.565 Z M74.8786106,7.695 C74.8786106,7.29 74.6536106,6.885 74.2936106,6.525 C73.8886106,6.165 73.4836106,5.985 73.0336106,5.985 C72.6736106,5.985 71.5486106,6.48 69.7036106,7.38 C68.5786106,7.875 67.7236106,8.235 67.1386106,8.415 C64.5736106,9.585 62.6836106,10.485 61.4686106,11.07 C60.2086106,11.7 59.6236106,12.42 59.6236106,13.32 C59.6236106,14.535 60.1636106,15.12 61.2886106,15.12 C61.4686106,15.12 62.3236106,14.76 63.7636106,14.04 C66.8686106,12.51 68.7586106,11.7 69.4336106,11.52 C67.8136106,17.055 67.0036106,23.13 67.0036106,29.79 C67.0036106,31.95 67.0486106,33.435 67.1386106,34.245 C67.2736106,35.55 68.1286106,36.18 69.7036106,36.18 C70.3336106,36.18 70.7836106,35.775 71.0986106,34.875 C71.3686106,34.065 71.5036106,32.49 71.5036106,30.195 C71.5036106,29.385 71.1436106,28.71 70.4686106,28.17 C70.8736106,19.53 72.0436106,13.41 74.0236106,9.765 C74.5636106,8.685 74.8786106,7.965 74.8786106,7.695 L74.8786106,7.695 Z M108.338438,22.905 C108.338438,19.305 107.483438,15.975 105.863438,12.825 C103.973438,9.225 101.633438,7.425 98.7534382,7.425 C97.4034382,7.425 96.6834382,8.145 96.5934382,9.54 C93.7134382,10.665 91.4634382,12.555 89.7534382,15.255 C88.0434382,17.955 87.1884382,21.015 87.1884382,24.525 C87.1884382,28.395 87.9534382,31.455 89.5284382,33.66 C91.2384382,36.135 93.8034382,37.395 97.1334382,37.395 C100.598438,37.395 103.343438,36.045 105.368438,33.39 C107.348438,30.735 108.338438,27.225 108.338438,22.905 L108.338438,22.905 Z M104.873438,23.31 C104.873438,26.235 104.108438,28.755 102.578438,30.825 C101.048438,32.895 99.3384382,33.93 97.4484382,33.93 C95.1984382,33.93 93.5334382,33.03 92.3634382,31.185 C91.2384382,29.565 90.6984382,27.315 90.6984382,24.48 C90.6984382,21.6 91.5534382,18.945 93.3084382,16.425 C95.0634382,13.905 97.0434382,12.645 99.2484382,12.645 C99.9684382,12.645 100.553438,12.42 101.003438,11.88 C102.263438,13.05 103.208438,14.85 103.928438,17.19 C104.558438,19.26 104.873438,21.285 104.873438,23.31 L104.873438,23.31 Z" id="2/10" fill="#FFFFFF"></path>
                <path d="M18.4041088,10.052 C18.4041088,8.82 17.8761088,7.764 16.9081088,6.928 C15.9401088,6.092 14.8401088,5.652 13.6081088,5.652 C11.4081088,5.652 9.20810884,6.136 6.96410884,7.104 C4.80810884,8.072 2.96010884,9.348 1.37610884,10.844 C0.672108844,11.46 0.364108844,12.032 0.364108844,12.472 C0.364108844,13.396 0.980108844,14.056 2.21210884,14.408 C2.74010884,15.728 4.28010884,17.488 6.74410884,19.776 C2.69610884,23.78 0.672108844,27.3 0.672108844,30.336 C0.672108844,32.184 1.28810884,33.724 2.60810884,34.868 C3.84010884,36.056 5.38010884,36.672 7.27210884,36.672 C9.91210884,36.672 12.2441088,35.924 14.2241088,34.428 C16.2921088,32.888 17.3481088,30.952 17.3481088,28.576 C17.3481088,27.08 16.7321088,25.54 15.5881088,23.912 C14.7961088,22.768 13.4761088,21.36 11.6721088,19.644 C14.0481088,17.488 15.6761088,15.904 16.4681088,14.892 C17.7441088,13.264 18.4041088,11.636 18.4041088,10.052 L18.4041088,10.052 Z M14.9281088,10.756 C14.9281088,11.636 13.0361088,13.88 9.25210884,17.444 C6.92010884,15.288 5.51210884,13.528 4.98410884,12.208 C8.37210884,10.052 11.1001088,8.952 13.2121088,8.952 C14.3561088,8.952 14.9281088,9.568 14.9281088,10.756 L14.9281088,10.756 Z M13.9161088,28.664 C13.9161088,29.852 13.2121088,30.908 11.8481088,31.832 C10.4401088,32.756 8.94410884,33.196 7.40410884,33.196 C5.07210884,33.196 3.92810884,32.14 3.92810884,29.984 C3.92810884,28.048 5.64410884,25.364 9.16410884,21.932 C12.3321088,24.88 13.9161088,27.124 13.9161088,28.664 L13.9161088,28.664 Z" id="8" fill="#FFD100"></path>
            </g>
        </g>
    </g>
</svg>