<?xml version="1.0" encoding="UTF-8"?>
<svg width="109px" height="42px" viewBox="0 0 109 42" version="1.1" xmlns="http://www.w3.org/2000/svg" xmlns:xlink="http://www.w3.org/1999/xlink">
    <!-- Generator: Sketch 40.3 (33839) - http://www.bohemiancoding.com/sketch -->
    <title>Group 11</title>
    <desc>Created with Sketch.</desc>
    <defs></defs>
    <g id="Page-1" stroke="none" stroke-width="1" fill="none" fill-rule="evenodd">
        <g id="1600--copy-7" transform="translate(-564.000000, -389.000000)">
            <g id="Group-11" transform="translate(564.000000, 389.000000)">
                <path d="M51.9037829,2.565 C51.9037829,1.305 51.2737829,0.63 50.1037829,0.63 C48.7537829,0.63 47.6287829,1.8 46.7287829,4.095 C43.3537829,9 39.8437829,15.39 36.1987829,23.31 L30.1237829,36.54 C29.2687829,37.8 28.8637829,38.745 28.8637829,39.42 C28.8637829,40.815 29.4487829,41.535 30.6637829,41.535 C31.4737829,41.535 32.1037829,41.085 32.5537829,40.185 C35.8387829,32.895 38.3137829,27.495 39.9337829,23.895 C44.0287829,15.255 47.8087829,8.775 51.2287829,4.41 C51.6787829,3.87 51.9037829,3.24 51.9037829,2.565 L51.9037829,2.565 Z M74.8786106,7.695 C74.8786106,7.29 74.6536106,6.885 74.2936106,6.525 C73.8886106,6.165 73.4836106,5.985 73.0336106,5.985 C72.6736106,5.985 71.5486106,6.48 69.7036106,7.38 C68.5786106,7.875 67.7236106,8.235 67.1386106,8.415 C64.5736106,9.585 62.6836106,10.485 61.4686106,11.07 C60.2086106,11.7 59.6236106,12.42 59.6236106,13.32 C59.6236106,14.535 60.1636106,15.12 61.2886106,15.12 C61.4686106,15.12 62.3236106,14.76 63.7636106,14.04 C66.8686106,12.51 68.7586106,11.7 69.4336106,11.52 C67.8136106,17.055 67.0036106,23.13 67.0036106,29.79 C67.0036106,31.95 67.0486106,33.435 67.1386106,34.245 C67.2736106,35.55 68.1286106,36.18 69.7036106,36.18 C70.3336106,36.18 70.7836106,35.775 71.0986106,34.875 C71.3686106,34.065 71.5036106,32.49 71.5036106,30.195 C71.5036106,29.385 71.1436106,28.71 70.4686106,28.17 C70.8736106,19.53 72.0436106,13.41 74.0236106,9.765 C74.5636106,8.685 74.8786106,7.965 74.8786106,7.695 L74.8786106,7.695 Z M108.338438,22.905 C108.338438,19.305 107.483438,15.975 105.863438,12.825 C103.973438,9.225 101.633438,7.425 98.7534382,7.425 C97.4034382,7.425 96.6834382,8.145 96.5934382,9.54 C93.7134382,10.665 91.4634382,12.555 89.7534382,15.255 C88.0434382,17.955 87.1884382,21.015 87.1884382,24.525 C87.1884382,28.395 87.9534382,31.455 89.5284382,33.66 C91.2384382,36.135 93.8034382,37.395 97.1334382,37.395 C100.598438,37.395 103.343438,36.045 105.368438,33.39 C107.348438,30.735 108.338438,27.225 108.338438,22.905 L108.338438,22.905 Z M104.873438,23.31 C104.873438,26.235 104.108438,28.755 102.578438,30.825 C101.048438,32.895 99.3384382,33.93 97.4484382,33.93 C95.1984382,33.93 93.5334382,33.03 92.3634382,31.185 C91.2384382,29.565 90.6984382,27.315 90.6984382,24.48 C90.6984382,21.6 91.5534382,18.945 93.3084382,16.425 C95.0634382,13.905 97.0434382,12.645 99.2484382,12.645 C99.9684382,12.645 100.553438,12.42 101.003438,11.88 C102.263438,13.05 103.208438,14.85 103.928438,17.19 C104.558438,19.26 104.873438,21.285 104.873438,23.31 L104.873438,23.31 Z" id="2/10" fill="#FFFFFF"></path>
                <path d="M18.0521088,12.956 C18.0521088,11.812 17.3921088,10.976 16.0721088,10.536 C16.4241088,10.096 16.6441088,9.436 16.6441088,8.644 C16.6441088,8.204 16.3801088,7.676 15.8521088,7.06 C15.3241088,6.532 14.6201088,6.048 13.6521088,5.608 C12.6841088,5.168 11.7601088,4.948 10.9681088,4.948 C8.06410884,4.948 5.60010884,6.4 3.53210884,9.304 C1.68410884,11.944 0.804108844,14.76 0.804108844,17.708 C0.804108844,19.292 1.15610884,20.612 1.94810884,21.624 C2.78410884,22.768 3.97210884,23.296 5.46810884,23.296 C8.59210884,23.296 11.4961088,21.624 14.1361088,18.192 C13.7841088,22.592 13.0361088,26.156 11.8921088,28.796 C10.3961088,32.096 8.46010884,33.724 6.08410884,33.724 C5.73210884,33.724 5.29210884,33.636 4.67610884,33.46 C4.01610884,33.284 3.53210884,33.152 3.26810884,33.152 C2.30010884,33.152 1.81610884,33.768 1.81610884,34.912 C1.81610884,35.616 2.25610884,36.232 3.13610884,36.672 C3.88410884,37.024 4.76410884,37.2 5.77610884,37.2 C9.91210884,37.2 12.9921088,34.912 14.9281088,30.292 C15.9401088,27.828 16.8641088,23.648 17.6561088,17.752 C17.9201088,15.728 18.0521088,14.1 18.0521088,12.956 L18.0521088,12.956 Z M15.0161088,10.712 C14.3121088,12.032 13.7841088,13.132 13.4321088,14.012 C12.6401088,15.376 11.5841088,16.608 10.3081088,17.664 C8.76810884,18.94 7.36010884,19.556 6.08410884,19.556 C4.85210884,19.556 4.23610884,18.852 4.23610884,17.4 C4.23610884,15.552 4.80810884,13.66 5.99610884,11.724 C7.27210884,9.7 8.76810884,8.644 10.4401088,8.644 C11.4081088,8.644 12.1121088,8.908 12.5961088,9.348 C13.0361088,10.008 13.8721088,10.448 15.0161088,10.712 L15.0161088,10.712 Z" id="9" fill="#FFD100"></path>
            </g>
        </g>
    </g>
</svg>