<?xml version="1.0" encoding="UTF-8"?>
<svg width="404px" height="109px" viewBox="0 0 404 109" version="1.1" xmlns="http://www.w3.org/2000/svg" xmlns:xlink="http://www.w3.org/1999/xlink">
    <!-- Generator: Sketch 40.3 (33839) - http://www.bohemiancoding.com/sketch -->
    <title>У вас все хорошо!</title>
    <desc>Created with Sketch.</desc>
    <defs></defs>
    <g id="Page-1" stroke="none" stroke-width="1" fill="none" fill-rule="evenodd">
        <g id="Desktop" transform="translate(-627.000000, -227.000000)" fill="#505050">
            <path d="M657.69,262.535 C657.69,260.94 656.92,260.115 655.49,260.115 C654.39,260.115 652.905,261.6 651.09,264.46 C648.56,268.475 645.865,273.755 643.005,280.3 C640.805,275.295 639.54,272.49 639.265,271.885 C637.505,268.2 635.745,265.285 633.985,263.085 C632.61,261.38 631.565,260.5 630.905,260.5 C629.365,260.5 628.65,261.325 628.65,262.92 C628.65,263.58 629.145,264.46 630.135,265.615 C632.005,267.87 633.875,271.115 635.8,275.295 C638.33,281.015 639.98,284.425 640.695,285.635 C639.815,287.615 638.99,289.87 638.22,292.345 C637.285,295.425 636.845,297.625 636.845,298.945 C636.845,301.145 637.67,302.245 639.32,302.245 C640.97,302.245 641.795,301.365 641.795,299.605 C641.52,299.055 641.41,298.505 641.41,297.955 C641.41,297.735 641.52,297.075 641.85,296.03 C644.38,287.45 648.505,278.1 654.225,268.09 C655.05,266.66 655.765,265.615 656.315,264.955 C657.195,264.075 657.69,263.25 657.69,262.535 L657.69,262.535 Z M702.9,292.895 C702.9,289.76 699.545,288.055 692.945,287.78 C698.005,285.525 700.535,283.105 700.535,280.465 C700.535,278.76 699.655,277.44 697.95,276.505 C696.575,275.845 694.925,275.46 693,275.46 C690.305,275.46 687.115,275.625 683.43,275.955 C681.78,276.175 681.01,276.835 681.01,278.045 C681.01,279.365 681.725,279.97 683.265,279.97 C683.54,279.97 683.98,279.915 684.585,279.805 C684.475,291.96 684.42,298.23 684.42,298.56 C682.495,298.78 681.56,299.55 681.56,300.98 C681.56,301.97 682.22,302.52 683.65,302.685 C684.805,302.63 686.51,302.355 688.765,301.86 C692.945,300.87 696.025,299.88 697.895,299 C701.195,297.46 702.9,295.425 702.9,292.895 L702.9,292.895 Z M696.3,280.96 C696.3,282.555 693.715,284.26 688.545,286.075 L688.655,279.695 C690.69,279.53 692.175,279.42 693.055,279.42 C695.2,279.42 696.3,279.97 696.3,280.96 L696.3,280.96 Z M698.775,293.445 C698.775,294.27 697.84,295.095 695.97,295.865 C694.1,296.635 691.57,297.24 688.435,297.625 L688.435,290.695 C692.065,290.805 694.595,291.08 696.135,291.41 C697.895,291.85 698.775,292.51 698.775,293.445 L698.775,293.445 Z M728.475,286.24 C728.475,285.745 728.2,285.195 727.76,284.645 C727.76,283.38 727.54,282.28 727.21,281.29 C727.265,281.07 727.32,280.795 727.32,280.52 C727.32,279.86 726.935,279.2 726.275,278.65 C725.56,278.1 724.845,277.77 724.13,277.77 C721.105,277.77 717.805,279.53 714.175,282.94 C710.38,286.46 708.51,289.87 708.51,293.06 C708.51,294.765 709.06,296.25 710.27,297.57 C711.425,298.945 712.8,299.605 714.395,299.605 C716.87,299.605 719.62,298.065 722.7,294.985 C722.975,299.165 723.91,301.31 725.505,301.31 C726.055,301.31 726.605,301.09 727.1,300.76 C727.54,300.32 727.815,299.77 727.815,299.22 C727.815,299.055 727.65,298.395 727.43,297.075 C727.155,295.81 727.045,294.82 727.045,294.16 C727.045,291.96 727.375,289.76 728.145,287.45 C728.365,286.845 728.475,286.46 728.475,286.24 L728.475,286.24 Z M723.47,284.645 C723.47,286.515 722.37,288.715 720.28,291.245 C718.19,293.775 716.265,294.985 714.615,294.985 C713.46,294.985 712.91,294.325 712.91,292.95 C712.91,291.19 714.285,288.99 717.09,286.295 C719.62,283.875 721.435,282.61 722.48,282.61 C723.14,282.61 723.47,283.325 723.47,284.645 L723.47,284.645 Z M751.08,293.94 C751.08,293.39 750.86,292.84 750.42,292.29 C749.98,291.85 749.485,291.575 748.935,291.575 C748.495,291.575 747.835,291.96 747.065,292.675 C746.405,293.225 745.745,293.775 745.195,294.325 C744.26,295.04 743.105,295.37 741.73,295.37 C739.53,295.37 738.485,294.05 738.485,291.3 C738.485,289.595 738.98,287.89 739.97,286.24 C740.96,284.59 742.17,283.215 743.655,282.225 C744.315,282.61 745.305,282.775 746.68,282.775 C747.395,282.775 748.11,282.5 748.825,281.84 C749.43,281.18 749.76,280.575 749.76,279.915 C749.76,279.035 749.43,278.375 748.77,277.825 C748.055,277.33 747.285,277.055 746.46,277.055 C742.995,277.055 739.915,278.87 737.275,282.445 C735.13,285.305 734.085,288.44 734.085,291.85 C734.085,294.27 734.855,296.195 736.395,297.735 C737.935,299.22 739.86,299.99 742.17,299.99 C744.26,299.99 746.405,299.165 748.495,297.515 C750.2,296.195 751.08,295.04 751.08,293.94 L751.08,293.94 Z M796.84,292.895 C796.84,289.76 793.485,288.055 786.885,287.78 C791.945,285.525 794.475,283.105 794.475,280.465 C794.475,278.76 793.595,277.44 791.89,276.505 C790.515,275.845 788.865,275.46 786.94,275.46 C784.245,275.46 781.055,275.625 777.37,275.955 C775.72,276.175 774.95,276.835 774.95,278.045 C774.95,279.365 775.665,279.97 777.205,279.97 C777.48,279.97 777.92,279.915 778.525,279.805 C778.415,291.96 778.36,298.23 778.36,298.56 C776.435,298.78 775.5,299.55 775.5,300.98 C775.5,301.97 776.16,302.52 777.59,302.685 C778.745,302.63 780.45,302.355 782.705,301.86 C786.885,300.87 789.965,299.88 791.835,299 C795.135,297.46 796.84,295.425 796.84,292.895 L796.84,292.895 Z M790.24,280.96 C790.24,282.555 787.655,284.26 782.485,286.075 L782.595,279.695 C784.63,279.53 786.115,279.42 786.995,279.42 C789.14,279.42 790.24,279.97 790.24,280.96 L790.24,280.96 Z M792.715,293.445 C792.715,294.27 791.78,295.095 789.91,295.865 C788.04,296.635 785.51,297.24 782.375,297.625 L782.375,290.695 C786.005,290.805 788.535,291.08 790.075,291.41 C791.835,291.85 792.715,292.51 792.715,293.445 L792.715,293.445 Z M819.445,293.94 C819.445,293.39 819.225,292.84 818.785,292.29 C818.345,291.85 817.85,291.575 817.3,291.575 C816.86,291.575 816.2,291.96 815.43,292.675 C814.77,293.225 814.11,293.775 813.56,294.325 C812.625,295.04 811.47,295.37 810.095,295.37 C807.895,295.37 806.85,294.05 806.85,291.3 C806.85,289.595 807.345,287.89 808.335,286.24 C809.325,284.59 810.535,283.215 812.02,282.225 C812.68,282.61 813.67,282.775 815.045,282.775 C815.76,282.775 816.475,282.5 817.19,281.84 C817.795,281.18 818.125,280.575 818.125,279.915 C818.125,279.035 817.795,278.375 817.135,277.825 C816.42,277.33 815.65,277.055 814.825,277.055 C811.36,277.055 808.28,278.87 805.64,282.445 C803.495,285.305 802.45,288.44 802.45,291.85 C802.45,294.27 803.22,296.195 804.76,297.735 C806.3,299.22 808.225,299.99 810.535,299.99 C812.625,299.99 814.77,299.165 816.86,297.515 C818.565,296.195 819.445,295.04 819.445,293.94 L819.445,293.94 Z M846.34,298.01 C846.34,297.46 846.12,296.91 845.68,296.36 C845.24,295.92 844.69,295.645 844.14,295.645 C843.7,295.645 842.985,295.755 842.05,295.865 C841.115,295.975 840.4,296.03 839.96,296.03 C838.31,296.03 836.88,295.26 835.56,293.665 C841.06,290.695 843.81,287.175 843.81,283.105 C843.81,281.565 843.15,280.08 841.83,278.76 C840.51,277.44 839.19,276.78 837.815,276.78 C835.45,276.78 833.525,278.155 831.985,280.85 C830.665,283.16 830.005,285.635 830.005,288.275 C830.005,288.825 830.06,289.595 830.225,290.53 L828.96,290.53 C828.19,290.53 827.475,290.255 826.705,289.705 C825.935,289.155 825.385,288.88 825.055,288.88 C823.625,288.88 822.91,289.65 822.91,291.19 C822.91,292.4 823.79,293.39 825.66,294.16 C827.09,294.765 828.465,295.04 829.895,295.04 L831.545,295.04 C833.525,298.835 836.605,300.705 840.785,300.705 C844.47,300.705 846.34,299.77 846.34,298.01 L846.34,298.01 Z M839.465,283.325 C839.465,285.14 837.815,287.12 834.515,289.265 L834.515,288.275 C834.515,286.79 834.735,285.36 835.285,283.985 C835.835,282.335 836.605,281.51 837.595,281.51 C838.035,281.51 838.475,281.73 838.915,282.06 C839.245,282.5 839.465,282.885 839.465,283.325 L839.465,283.325 Z M891.33,281.455 C891.33,280.85 891.055,280.355 890.56,279.915 C890.065,279.475 889.515,279.255 888.91,279.255 C888.58,279.255 887.975,279.64 886.985,280.355 C884.29,282.445 882.2,284.04 880.715,285.25 C879.395,283.38 878.075,281.62 876.7,279.97 C875.325,278.32 874.28,277.495 873.62,277.495 C871.86,277.495 871.035,278.375 871.035,280.08 C871.035,280.52 871.53,281.51 872.575,282.995 C873.455,284.315 874.115,285.195 874.665,285.635 C874.94,285.965 875.27,286.185 875.71,286.295 C876.26,287.01 876.755,287.615 877.085,288.11 C874.225,290.42 872.135,292.235 870.76,293.555 C868.945,295.26 868.065,296.58 868.065,297.46 C868.065,299 868.835,299.825 870.375,299.825 C870.925,299.825 871.585,299.495 872.245,298.835 C874.225,296.745 876.7,294.545 879.67,292.125 C880.935,294.325 882.09,296.47 883.08,298.67 C883.52,299.605 884.29,300.1 885.335,300.1 C885.83,300.1 886.325,299.88 886.82,299.44 C887.315,299 887.59,298.45 887.59,297.9 C887.59,297.46 887.04,296.195 886.05,294.105 C885.28,292.565 884.345,290.97 883.3,289.21 C886.27,286.9 888.58,284.975 890.23,283.545 C890.945,282.94 891.33,282.225 891.33,281.455 L891.33,281.455 Z M913.275,286.9 C913.275,284.755 912.67,282.775 911.46,281.015 C910.195,279.31 908.6,278.1 906.675,277.44 C905.905,277.22 905.465,277.11 905.355,277.11 C904.915,277.11 904.42,277.385 903.76,277.825 C902.99,278.265 902.385,278.595 901.945,278.76 C900.075,279.695 898.535,281.345 897.435,283.655 C896.335,285.745 895.84,288 895.84,290.365 C895.84,293.17 896.555,295.48 898.095,297.295 C899.635,299.055 901.56,299.99 903.87,299.99 C906.51,299.99 908.765,298.78 910.58,296.25 C912.34,293.72 913.275,290.64 913.275,286.9 L913.275,286.9 Z M908.93,287.725 C908.93,289.595 908.38,291.3 907.39,292.895 C906.29,294.545 905.135,295.37 903.815,295.37 C902.715,295.37 901.835,294.875 901.175,293.83 C900.46,292.84 900.13,291.685 900.13,290.365 C900.13,288.605 900.515,286.955 901.395,285.415 C902.385,283.655 903.65,282.72 905.19,282.72 C905.74,283.05 906.455,283.215 907.335,283.215 C908.38,283.875 908.93,285.415 908.93,287.725 L908.93,287.725 Z M938.85,279.97 C938.85,277.33 938.245,275.13 937.035,273.37 C935.715,271.445 933.79,270.455 931.37,270.455 C927.905,270.455 925.21,272.875 923.285,277.715 C921.965,281.07 921.305,284.92 921.305,289.21 C921.305,289.76 921.305,290.2 921.36,290.475 C919.82,291.025 919.105,291.85 919.105,293.005 C919.105,294.435 919.82,295.205 921.36,295.315 C921.47,296.195 921.525,297.515 921.525,299.275 C921.525,302.795 921.305,305.27 920.975,306.81 C920.59,308.295 920.425,309.12 920.425,309.285 C920.425,309.89 920.645,310.44 921.085,310.935 C921.525,311.375 922.075,311.65 922.68,311.65 C923.835,311.65 924.66,310.495 925.155,308.24 C925.705,305.71 925.98,303.125 925.98,300.595 C925.98,298.285 925.87,296.03 925.705,293.83 C934.45,290.64 938.85,286.02 938.85,279.97 L938.85,279.97 Z M934.45,279.035 C934.45,283.545 931.535,286.845 925.76,288.935 C925.76,285.965 926.255,282.94 927.3,279.97 C928.455,276.725 929.83,275.075 931.37,275.075 C932.305,275.075 933.075,275.515 933.68,276.285 C934.175,277.055 934.45,277.99 934.45,279.035 L934.45,279.035 Z M961.73,286.9 C961.73,284.755 961.125,282.775 959.915,281.015 C958.65,279.31 957.055,278.1 955.13,277.44 C954.36,277.22 953.92,277.11 953.81,277.11 C953.37,277.11 952.875,277.385 952.215,277.825 C951.445,278.265 950.84,278.595 950.4,278.76 C948.53,279.695 946.99,281.345 945.89,283.655 C944.79,285.745 944.295,288 944.295,290.365 C944.295,293.17 945.01,295.48 946.55,297.295 C948.09,299.055 950.015,299.99 952.325,299.99 C954.965,299.99 957.22,298.78 959.035,296.25 C960.795,293.72 961.73,290.64 961.73,286.9 L961.73,286.9 Z M957.385,287.725 C957.385,289.595 956.835,291.3 955.845,292.895 C954.745,294.545 953.59,295.37 952.27,295.37 C951.17,295.37 950.29,294.875 949.63,293.83 C948.915,292.84 948.585,291.685 948.585,290.365 C948.585,288.605 948.97,286.955 949.85,285.415 C950.84,283.655 952.105,282.72 953.645,282.72 C954.195,283.05 954.91,283.215 955.79,283.215 C956.835,283.875 957.385,285.415 957.385,287.725 L957.385,287.725 Z M992.035,280.08 C992.035,279.42 991.76,278.65 991.32,277.825 C990.77,277.055 990.165,276.615 989.505,276.615 C988.405,276.615 987.745,277 987.415,277.77 C987.47,278.265 987.525,278.98 987.635,279.97 C987.69,281.07 987.745,281.895 987.745,282.39 C987.745,283.93 987.36,288.605 986.59,296.305 C984.005,296.58 982.19,296.745 981.2,296.745 C981.97,285.69 982.355,279.915 982.355,279.365 C982.355,276.945 981.365,275.68 979.495,275.68 C979.165,275.68 978.78,275.845 978.395,276.12 C977.955,276.45 977.735,276.78 977.735,277.11 C977.735,277.22 977.79,277.605 977.955,278.155 C978.01,278.76 978.065,279.145 978.065,279.31 C978.065,284.59 977.68,290.53 976.965,297.185 C973.995,297.57 972.4,297.735 972.18,297.735 C971.74,297.735 971.465,297.46 971.41,296.8 C971.41,296.47 971.575,294.16 971.795,289.925 C972.07,285.69 972.235,283.325 972.235,282.775 C972.235,280.795 972.015,279.365 971.63,278.485 C971.08,277.11 970.255,276.395 969.265,276.395 C968.825,276.395 968.385,276.615 968.055,277 C967.725,277.33 967.56,277.77 967.56,278.21 C967.835,279.695 968,281.125 968,282.445 C968,286.79 967.78,291.575 967.395,296.745 C967.505,298.725 968.11,300.1 969.21,301.035 C969.925,301.585 970.75,301.915 971.63,301.915 C976.14,301.09 980.265,300.705 983.95,300.705 C984.335,300.705 984.94,300.76 985.765,300.87 C986.535,300.98 987.14,301.09 987.58,301.09 C989.56,301.09 990.55,299.99 990.66,297.9 C990.715,295.7 990.99,292.345 991.43,287.78 C991.815,283.215 992.035,280.63 992.035,280.08 L992.035,280.08 Z M1015.135,286.9 C1015.135,284.755 1014.53,282.775 1013.32,281.015 C1012.055,279.31 1010.46,278.1 1008.535,277.44 C1007.765,277.22 1007.325,277.11 1007.215,277.11 C1006.775,277.11 1006.28,277.385 1005.62,277.825 C1004.85,278.265 1004.245,278.595 1003.805,278.76 C1001.935,279.695 1000.395,281.345 999.295,283.655 C998.195,285.745 997.7,288 997.7,290.365 C997.7,293.17 998.415,295.48 999.955,297.295 C1001.495,299.055 1003.42,299.99 1005.73,299.99 C1008.37,299.99 1010.625,298.78 1012.44,296.25 C1014.2,293.72 1015.135,290.64 1015.135,286.9 L1015.135,286.9 Z M1010.79,287.725 C1010.79,289.595 1010.24,291.3 1009.25,292.895 C1008.15,294.545 1006.995,295.37 1005.675,295.37 C1004.575,295.37 1003.695,294.875 1003.035,293.83 C1002.32,292.84 1001.99,291.685 1001.99,290.365 C1001.99,288.605 1002.375,286.955 1003.255,285.415 C1004.245,283.655 1005.51,282.72 1007.05,282.72 C1007.6,283.05 1008.315,283.215 1009.195,283.215 C1010.24,283.875 1010.79,285.415 1010.79,287.725 L1010.79,287.725 Z M1033.615,263.47 C1033.615,262.92 1033.395,262.37 1033.01,261.875 C1032.625,261.38 1032.13,261.105 1031.58,261.105 C1030.92,261.105 1030.315,261.38 1029.71,261.875 C1029.05,262.425 1028.61,263.085 1028.445,263.745 C1028.115,264.845 1028.005,265.615 1028.005,266 C1028.005,266.33 1028.06,266.605 1028.17,266.935 C1027.51,269.3 1027.015,272.93 1026.63,277.77 C1026.355,281.62 1026.19,284.37 1026.135,285.91 C1026.025,287.23 1026.025,288.055 1026.025,288.385 C1026.025,288.99 1026.19,289.485 1026.63,289.925 C1027.015,290.365 1027.51,290.585 1028.17,290.585 C1029.545,290.585 1030.26,289.65 1030.37,287.67 C1030.7,278.705 1031.58,271.335 1033.01,265.56 C1033.23,264.68 1033.45,263.965 1033.615,263.47 L1033.615,263.47 Z M1030.645,299.33 C1030.645,297.625 1030.15,296.47 1029.215,295.92 C1028.665,295.59 1028.28,295.425 1027.95,295.425 C1027.18,295.425 1026.465,295.7 1025.915,296.25 C1025.31,296.8 1025.035,297.405 1025.035,298.175 C1025.035,299.385 1025.42,300.265 1026.19,300.76 C1026.795,301.53 1027.455,301.97 1028.225,301.97 C1029.82,301.97 1030.645,301.09 1030.645,299.33 L1030.645,299.33 Z" id="У-вас-все-хорошо!" transform="translate(834.020000, 285.882500) rotate(-10.000000) translate(-834.020000, -285.882500) "></path>
        </g>
    </g>
</svg>