<?xml version="1.0" encoding="UTF-8"?>
<svg width="543px" height="118px" viewBox="0 0 543 118" version="1.1" xmlns="http://www.w3.org/2000/svg" xmlns:xlink="http://www.w3.org/1999/xlink">
    <!-- Generator: Sketch 40.3 (33839) - http://www.bohemiancoding.com/sketch -->
    <title>С почками у вас поря</title>
    <desc>Created with Sketch.</desc>
    <defs></defs>
    <g id="Page-1" stroke="none" stroke-width="1" fill="none" fill-rule="evenodd">
        <g id="Desktop" transform="translate(-723.000000, -269.000000)" fill="#505050">
            <path d="M744.665,334.105 C744.665,333.5 744.39,332.895 743.84,332.345 C743.29,331.795 742.74,331.52 742.19,331.52 C741.915,331.52 741.2,331.905 740.1,332.565 C736.635,334.6 733.555,335.59 730.915,335.59 C726.735,335.59 724.645,332.675 724.645,326.735 C724.645,321.95 725.8,317.11 728.165,312.27 C730.53,307.485 732.95,305.065 735.37,305.065 C736.58,305.065 737.79,305.78 739,307.1 C740.21,308.475 741.09,309.135 741.75,309.135 C742.41,309.135 743.015,308.915 743.565,308.42 C744.005,307.98 744.28,307.375 744.28,306.66 C744.28,305.89 743.84,305.01 743.07,304.02 C742.3,303.03 741.255,302.095 739.99,301.27 C738.56,300.39 737.24,299.95 736.085,299.95 C731.465,299.95 727.45,303.03 724.15,309.19 C721.235,314.69 719.805,320.355 719.805,326.24 C719.805,330.365 720.63,333.72 722.28,336.25 C724.26,339.11 727.12,340.595 730.86,340.595 C732.18,340.595 734.05,340.265 736.415,339.605 C738.89,338.89 740.87,338.065 742.41,337.075 C743.895,336.14 744.665,335.15 744.665,334.105 L744.665,334.105 Z M788.555,318.43 C788.555,317.825 788.28,317.275 787.73,316.835 C787.125,316.45 786.52,316.23 785.915,316.12 C780.305,316.56 775.85,316.945 772.66,317.165 C770.735,317.33 769.8,317.99 769.8,319.2 C769.8,319.97 769.91,320.63 770.24,321.235 C769.855,326.9 769.69,329.76 769.69,329.87 C769.305,333.83 769.14,335.81 769.14,335.81 C769.14,336.525 769.36,337.24 769.855,337.955 C770.35,338.67 770.9,339 771.56,339 C772.66,339 773.21,338.285 773.32,336.8 C773.65,330.86 773.98,325.745 774.42,321.455 C777.225,321.07 780.14,320.795 783.165,320.685 C783.165,320.85 783.055,323.545 782.89,328.715 C782.67,333.335 782.615,335.81 782.615,336.14 C782.615,339.715 783.55,341.53 785.53,341.53 C786.575,341.53 787.125,340.925 787.125,339.825 C786.795,338.175 786.685,336.635 786.685,335.315 C786.685,333.555 786.795,330.75 787.015,326.9 C787.07,326.295 787.18,325.415 787.345,324.205 C787.455,323.215 787.51,322.665 787.51,322.445 C787.51,322.115 787.4,321.62 787.29,320.96 C788.115,320.08 788.555,319.255 788.555,318.43 L788.555,318.43 Z M811.655,326.9 C811.655,324.755 811.05,322.775 809.84,321.015 C808.575,319.31 806.98,318.1 805.055,317.44 C804.285,317.22 803.845,317.11 803.735,317.11 C803.295,317.11 802.8,317.385 802.14,317.825 C801.37,318.265 800.765,318.595 800.325,318.76 C798.455,319.695 796.915,321.345 795.815,323.655 C794.715,325.745 794.22,328 794.22,330.365 C794.22,333.17 794.935,335.48 796.475,337.295 C798.015,339.055 799.94,339.99 802.25,339.99 C804.89,339.99 807.145,338.78 808.96,336.25 C810.72,333.72 811.655,330.64 811.655,326.9 L811.655,326.9 Z M807.31,327.725 C807.31,329.595 806.76,331.3 805.77,332.895 C804.67,334.545 803.515,335.37 802.195,335.37 C801.095,335.37 800.215,334.875 799.555,333.83 C798.84,332.84 798.51,331.685 798.51,330.365 C798.51,328.605 798.895,326.955 799.775,325.415 C800.765,323.655 802.03,322.72 803.57,322.72 C804.12,323.05 804.835,323.215 805.715,323.215 C806.76,323.875 807.31,325.415 807.31,327.725 L807.31,327.725 Z M835.8,318.1 C835.745,317.495 835.525,316.89 835.085,316.34 C834.645,315.79 834.15,315.515 833.6,315.515 C832.115,315.515 831.345,316.34 831.29,317.935 C831.29,318.155 831.29,318.87 831.345,320.025 C831.345,321.29 831.4,322.005 831.4,322.225 C831.4,324.37 830.685,326.35 829.31,328.22 C827.88,330.09 826.285,330.97 824.58,330.97 C822.435,330.97 821.39,329.43 821.39,326.24 C821.39,325.03 821.61,322.28 822.16,317.99 C821.995,316.45 821.335,315.625 820.235,315.625 C818.695,315.625 817.815,317.11 817.485,320.025 C817.375,320.85 817.32,322.885 817.32,326.185 C817.32,332.015 819.63,334.93 824.305,334.93 C825.625,334.93 827,334.6 828.32,333.83 C829.64,333.115 830.685,332.125 831.345,330.915 C831.235,333.115 831.125,334.93 831.015,336.305 C830.795,338.56 830.74,340.155 830.74,341.255 C830.74,342.74 831.345,343.51 832.665,343.51 C834.095,343.51 834.865,342.74 834.92,341.2 C834.975,337.625 835.14,332.345 835.47,325.415 C835.58,321.785 835.69,319.365 835.8,318.1 L835.8,318.1 Z M860.22,321.015 C860.22,320.575 860,320.08 859.56,319.585 C859.12,319.145 858.625,318.925 858.185,318.925 C857.745,318.925 856.81,319.255 855.435,319.915 C853.125,321.015 850.21,323.105 846.8,326.075 C847.57,322.885 848.285,320.355 849.055,318.54 C849.495,317.385 849.715,316.67 849.715,316.45 C849.715,315.02 849,314.305 847.68,314.305 C846.8,314.305 846.14,314.8 845.7,315.79 C843.005,322.39 841.63,329.65 841.52,337.515 C841.41,337.79 841.41,338.065 841.41,338.34 C841.41,339 841.52,339.605 841.74,340.21 C842.07,341.2 842.84,341.75 843.94,341.75 C845.15,341.75 845.755,341.035 845.755,339.66 C845.755,339.55 845.7,339.22 845.7,338.67 C845.645,338.12 845.645,337.735 845.645,337.405 L845.645,335.37 C845.645,334.6 845.645,333.72 845.755,332.73 C846.14,332.51 846.36,332.4 846.415,332.345 C848.505,335.15 851.2,337.625 854.445,339.77 C855.435,340.485 856.205,340.87 856.755,340.87 C858.075,340.87 858.735,340.155 858.735,338.78 C858.735,338.23 858.24,337.46 857.36,336.58 C855.82,335.205 854.94,334.49 854.61,334.49 C854.5,334.49 854.335,334.545 854.225,334.545 C852.08,332.84 850.43,331.19 849.33,329.595 C851.97,327.12 854.17,325.36 855.985,324.37 C856.205,324.48 856.425,324.535 856.7,324.535 C857.415,324.535 858.185,324.15 858.955,323.38 C859.78,322.665 860.22,321.895 860.22,321.015 L860.22,321.015 Z M884.695,326.24 C884.695,325.745 884.42,325.195 883.98,324.645 C883.98,323.38 883.76,322.28 883.43,321.29 C883.485,321.07 883.54,320.795 883.54,320.52 C883.54,319.86 883.155,319.2 882.495,318.65 C881.78,318.1 881.065,317.77 880.35,317.77 C877.325,317.77 874.025,319.53 870.395,322.94 C866.6,326.46 864.73,329.87 864.73,333.06 C864.73,334.765 865.28,336.25 866.49,337.57 C867.645,338.945 869.02,339.605 870.615,339.605 C873.09,339.605 875.84,338.065 878.92,334.985 C879.195,339.165 880.13,341.31 881.725,341.31 C882.275,341.31 882.825,341.09 883.32,340.76 C883.76,340.32 884.035,339.77 884.035,339.22 C884.035,339.055 883.87,338.395 883.65,337.075 C883.375,335.81 883.265,334.82 883.265,334.16 C883.265,331.96 883.595,329.76 884.365,327.45 C884.585,326.845 884.695,326.46 884.695,326.24 L884.695,326.24 Z M879.69,324.645 C879.69,326.515 878.59,328.715 876.5,331.245 C874.41,333.775 872.485,334.985 870.835,334.985 C869.68,334.985 869.13,334.325 869.13,332.95 C869.13,331.19 870.505,328.99 873.31,326.295 C875.84,323.875 877.655,322.61 878.7,322.61 C879.36,322.61 879.69,323.325 879.69,324.645 L879.69,324.645 Z M914.34,341.255 C914.34,340.76 914.175,340.21 913.845,339.55 C913.515,338.89 913.13,338.45 912.745,338.12 C911.865,336.25 911.095,332.84 910.435,327.945 C909.995,325.415 909.665,322.61 909.335,319.64 C909.17,318.485 908.51,317.88 907.355,317.88 C906.31,317.88 904.935,320.135 903.23,324.645 C902.625,326.185 902.13,327.505 901.69,328.715 C900.205,326.515 898.885,323.215 897.675,318.705 C897.235,317.055 896.575,316.23 895.75,316.23 C894.705,316.23 893.77,317.495 892.945,319.97 C892.78,319.97 892.56,319.915 892.285,319.915 C891.9,319.915 891.57,320.08 891.35,320.355 C891.02,320.685 890.855,321.07 890.855,321.455 C890.855,321.565 890.855,321.895 890.91,322.445 C890.91,323.05 890.965,323.38 890.965,323.49 C890.965,324.48 890.855,325.855 890.635,327.725 C890.415,329.595 890.305,331.685 890.305,333.94 C890.305,337.625 891.02,339.44 892.505,339.44 C893.605,339.44 894.155,338.23 894.265,335.755 C894.43,330.915 894.87,326.9 895.53,323.71 C898.445,330.75 900.755,334.27 902.405,334.27 C902.955,334.27 903.34,334.05 903.67,333.5 C903.945,333.06 904.275,332.07 904.715,330.64 C905.43,328.22 906.035,326.295 906.53,324.975 C907.08,331.08 907.85,335.59 908.895,338.505 C910.05,341.86 911.26,343.565 912.47,343.565 C912.91,343.565 913.35,343.29 913.735,342.795 C914.12,342.245 914.34,341.75 914.34,341.255 L914.34,341.255 Z M938.65,339.33 C938.65,338.945 938.375,338.45 937.88,337.9 C936.67,336.58 936.12,333.225 936.12,327.835 C936.12,325.91 936.395,322.665 937,318.1 C937,317.495 936.725,316.945 936.285,316.395 C935.79,315.9 935.24,315.625 934.635,315.625 C933.7,315.625 931.72,317.66 928.75,321.73 C926.33,324.92 924.35,327.835 922.7,330.365 C923.085,326.075 923.36,322.94 923.525,321.07 C923.525,320.19 923.195,319.42 922.645,318.76 C922.095,318.155 921.38,317.825 920.5,317.825 C920.005,317.825 919.565,318.155 919.125,318.76 C919.235,320.355 919.345,321.29 919.345,321.51 C919.345,322.5 919.18,324.975 918.905,328.99 L918.795,330.585 C918.74,331.41 918.63,332.51 918.52,333.885 C918.355,335.205 918.245,336.03 918.245,336.36 C918.3,337.13 918.52,337.735 918.96,338.065 C919.84,338.945 920.39,339.33 920.61,339.33 C921.38,339.33 922.315,338.505 923.305,336.745 C925.34,333.335 926.77,330.915 927.65,329.595 C929.08,327.23 930.62,325.03 932.325,323.05 C932.325,323.6 932.27,324.755 932.27,326.46 C932.215,328.22 932.215,329.155 932.215,329.375 C932.215,332.235 932.49,334.655 933.095,336.745 C933.92,339.77 935.13,341.31 936.67,341.31 C937,341.31 937.44,341.035 937.935,340.595 C938.375,340.045 938.65,339.66 938.65,339.33 L938.65,339.33 Z M983.09,329.98 L983.09,326.295 C983.09,322.445 982.21,320.465 980.505,320.465 C979.625,320.465 978.8,321.235 977.975,322.665 C976.27,325.69 974.95,327.835 973.96,329.045 C972.64,330.695 971.375,331.52 970.165,331.52 C969.285,331.52 968.9,331.025 968.9,330.035 C968.9,329.155 969.065,327.45 969.395,324.92 C969.725,322.39 969.945,320.85 969.945,320.355 C969.945,319.035 969.725,317.825 969.285,316.835 C968.79,315.625 968.075,315.02 967.195,315.02 C965.545,315.02 964.775,315.735 964.775,317.11 C964.775,317.44 964.83,317.88 965.05,318.54 C965.215,319.2 965.325,319.64 965.325,319.97 C965.325,321.07 965.16,322.72 964.885,325.03 C964.61,327.34 964.5,329.1 964.5,330.2 C964.5,332.015 964.995,333.5 966.04,334.655 C967.03,335.865 968.35,336.415 970.11,336.415 C972.915,336.415 975.775,334.38 978.69,330.31 C978.69,332.18 978.525,333.94 978.25,335.645 C976.93,342.96 972.09,346.645 963.675,346.755 C962.355,346.59 961.365,346.48 960.705,346.425 C959.33,346.48 958.615,347.195 958.615,348.625 C958.615,350.605 960.32,351.65 963.73,351.65 C969.12,351.65 973.465,350.165 976.875,347.305 C981,343.785 983.09,338.065 983.09,329.98 L983.09,329.98 Z M1029.4,332.895 C1029.4,329.76 1026.045,328.055 1019.445,327.78 C1024.505,325.525 1027.035,323.105 1027.035,320.465 C1027.035,318.76 1026.155,317.44 1024.45,316.505 C1023.075,315.845 1021.425,315.46 1019.5,315.46 C1016.805,315.46 1013.615,315.625 1009.93,315.955 C1008.28,316.175 1007.51,316.835 1007.51,318.045 C1007.51,319.365 1008.225,319.97 1009.765,319.97 C1010.04,319.97 1010.48,319.915 1011.085,319.805 C1010.975,331.96 1010.92,338.23 1010.92,338.56 C1008.995,338.78 1008.06,339.55 1008.06,340.98 C1008.06,341.97 1008.72,342.52 1010.15,342.685 C1011.305,342.63 1013.01,342.355 1015.265,341.86 C1019.445,340.87 1022.525,339.88 1024.395,339 C1027.695,337.46 1029.4,335.425 1029.4,332.895 L1029.4,332.895 Z M1022.8,320.96 C1022.8,322.555 1020.215,324.26 1015.045,326.075 L1015.155,319.695 C1017.19,319.53 1018.675,319.42 1019.555,319.42 C1021.7,319.42 1022.8,319.97 1022.8,320.96 L1022.8,320.96 Z M1025.275,333.445 C1025.275,334.27 1024.34,335.095 1022.47,335.865 C1020.6,336.635 1018.07,337.24 1014.935,337.625 L1014.935,330.695 C1018.565,330.805 1021.095,331.08 1022.635,331.41 C1024.395,331.85 1025.275,332.51 1025.275,333.445 L1025.275,333.445 Z M1054.975,326.24 C1054.975,325.745 1054.7,325.195 1054.26,324.645 C1054.26,323.38 1054.04,322.28 1053.71,321.29 C1053.765,321.07 1053.82,320.795 1053.82,320.52 C1053.82,319.86 1053.435,319.2 1052.775,318.65 C1052.06,318.1 1051.345,317.77 1050.63,317.77 C1047.605,317.77 1044.305,319.53 1040.675,322.94 C1036.88,326.46 1035.01,329.87 1035.01,333.06 C1035.01,334.765 1035.56,336.25 1036.77,337.57 C1037.925,338.945 1039.3,339.605 1040.895,339.605 C1043.37,339.605 1046.12,338.065 1049.2,334.985 C1049.475,339.165 1050.41,341.31 1052.005,341.31 C1052.555,341.31 1053.105,341.09 1053.6,340.76 C1054.04,340.32 1054.315,339.77 1054.315,339.22 C1054.315,339.055 1054.15,338.395 1053.93,337.075 C1053.655,335.81 1053.545,334.82 1053.545,334.16 C1053.545,331.96 1053.875,329.76 1054.645,327.45 C1054.865,326.845 1054.975,326.46 1054.975,326.24 L1054.975,326.24 Z M1049.97,324.645 C1049.97,326.515 1048.87,328.715 1046.78,331.245 C1044.69,333.775 1042.765,334.985 1041.115,334.985 C1039.96,334.985 1039.41,334.325 1039.41,332.95 C1039.41,331.19 1040.785,328.99 1043.59,326.295 C1046.12,323.875 1047.935,322.61 1048.98,322.61 C1049.64,322.61 1049.97,323.325 1049.97,324.645 L1049.97,324.645 Z M1077.58,333.94 C1077.58,333.39 1077.36,332.84 1076.92,332.29 C1076.48,331.85 1075.985,331.575 1075.435,331.575 C1074.995,331.575 1074.335,331.96 1073.565,332.675 C1072.905,333.225 1072.245,333.775 1071.695,334.325 C1070.76,335.04 1069.605,335.37 1068.23,335.37 C1066.03,335.37 1064.985,334.05 1064.985,331.3 C1064.985,329.595 1065.48,327.89 1066.47,326.24 C1067.46,324.59 1068.67,323.215 1070.155,322.225 C1070.815,322.61 1071.805,322.775 1073.18,322.775 C1073.895,322.775 1074.61,322.5 1075.325,321.84 C1075.93,321.18 1076.26,320.575 1076.26,319.915 C1076.26,319.035 1075.93,318.375 1075.27,317.825 C1074.555,317.33 1073.785,317.055 1072.96,317.055 C1069.495,317.055 1066.415,318.87 1063.775,322.445 C1061.63,325.305 1060.585,328.44 1060.585,331.85 C1060.585,334.27 1061.355,336.195 1062.895,337.735 C1064.435,339.22 1066.36,339.99 1068.67,339.99 C1070.76,339.99 1072.905,339.165 1074.995,337.515 C1076.7,336.195 1077.58,335.04 1077.58,333.94 L1077.58,333.94 Z M1120.865,318.43 C1120.865,317.825 1120.59,317.275 1120.04,316.835 C1119.435,316.45 1118.83,316.23 1118.225,316.12 C1112.615,316.56 1108.16,316.945 1104.97,317.165 C1103.045,317.33 1102.11,317.99 1102.11,319.2 C1102.11,319.97 1102.22,320.63 1102.55,321.235 C1102.165,326.9 1102,329.76 1102,329.87 C1101.615,333.83 1101.45,335.81 1101.45,335.81 C1101.45,336.525 1101.67,337.24 1102.165,337.955 C1102.66,338.67 1103.21,339 1103.87,339 C1104.97,339 1105.52,338.285 1105.63,336.8 C1105.96,330.86 1106.29,325.745 1106.73,321.455 C1109.535,321.07 1112.45,320.795 1115.475,320.685 C1115.475,320.85 1115.365,323.545 1115.2,328.715 C1114.98,333.335 1114.925,335.81 1114.925,336.14 C1114.925,339.715 1115.86,341.53 1117.84,341.53 C1118.885,341.53 1119.435,340.925 1119.435,339.825 C1119.105,338.175 1118.995,336.635 1118.995,335.315 C1118.995,333.555 1119.105,330.75 1119.325,326.9 C1119.38,326.295 1119.49,325.415 1119.655,324.205 C1119.765,323.215 1119.82,322.665 1119.82,322.445 C1119.82,322.115 1119.71,321.62 1119.6,320.96 C1120.425,320.08 1120.865,319.255 1120.865,318.43 L1120.865,318.43 Z M1143.965,326.9 C1143.965,324.755 1143.36,322.775 1142.15,321.015 C1140.885,319.31 1139.29,318.1 1137.365,317.44 C1136.595,317.22 1136.155,317.11 1136.045,317.11 C1135.605,317.11 1135.11,317.385 1134.45,317.825 C1133.68,318.265 1133.075,318.595 1132.635,318.76 C1130.765,319.695 1129.225,321.345 1128.125,323.655 C1127.025,325.745 1126.53,328 1126.53,330.365 C1126.53,333.17 1127.245,335.48 1128.785,337.295 C1130.325,339.055 1132.25,339.99 1134.56,339.99 C1137.2,339.99 1139.455,338.78 1141.27,336.25 C1143.03,333.72 1143.965,330.64 1143.965,326.9 L1143.965,326.9 Z M1139.62,327.725 C1139.62,329.595 1139.07,331.3 1138.08,332.895 C1136.98,334.545 1135.825,335.37 1134.505,335.37 C1133.405,335.37 1132.525,334.875 1131.865,333.83 C1131.15,332.84 1130.82,331.685 1130.82,330.365 C1130.82,328.605 1131.205,326.955 1132.085,325.415 C1133.075,323.655 1134.34,322.72 1135.88,322.72 C1136.43,323.05 1137.145,323.215 1138.025,323.215 C1139.07,323.875 1139.62,325.415 1139.62,327.725 L1139.62,327.725 Z M1169.54,319.97 C1169.54,317.33 1168.935,315.13 1167.725,313.37 C1166.405,311.445 1164.48,310.455 1162.06,310.455 C1158.595,310.455 1155.9,312.875 1153.975,317.715 C1152.655,321.07 1151.995,324.92 1151.995,329.21 C1151.995,329.76 1151.995,330.2 1152.05,330.475 C1150.51,331.025 1149.795,331.85 1149.795,333.005 C1149.795,334.435 1150.51,335.205 1152.05,335.315 C1152.16,336.195 1152.215,337.515 1152.215,339.275 C1152.215,342.795 1151.995,345.27 1151.665,346.81 C1151.28,348.295 1151.115,349.12 1151.115,349.285 C1151.115,349.89 1151.335,350.44 1151.775,350.935 C1152.215,351.375 1152.765,351.65 1153.37,351.65 C1154.525,351.65 1155.35,350.495 1155.845,348.24 C1156.395,345.71 1156.67,343.125 1156.67,340.595 C1156.67,338.285 1156.56,336.03 1156.395,333.83 C1165.14,330.64 1169.54,326.02 1169.54,319.97 L1169.54,319.97 Z M1165.14,319.035 C1165.14,323.545 1162.225,326.845 1156.45,328.935 C1156.45,325.965 1156.945,322.94 1157.99,319.97 C1159.145,316.725 1160.52,315.075 1162.06,315.075 C1162.995,315.075 1163.765,315.515 1164.37,316.285 C1164.865,317.055 1165.14,317.99 1165.14,319.035 L1165.14,319.035 Z M1192.75,323.765 C1192.75,322.115 1192.145,321.235 1190.99,321.235 C1190,321.235 1189.285,321.785 1188.955,322.885 C1187.965,326.075 1185.655,327.615 1182.135,327.615 C1179.88,327.615 1178.78,327.12 1178.78,326.13 C1178.78,324.975 1180.045,323.6 1182.575,322.06 C1184.885,320.74 1186.7,320.08 1188.13,320.08 C1188.46,320.08 1188.68,320.135 1188.845,320.19 C1189.175,320.575 1189.505,320.74 1189.89,320.74 C1190.33,320.74 1190.825,320.52 1191.32,320.08 C1191.76,319.64 1191.98,319.145 1191.98,318.595 C1191.98,317.055 1190.88,316.23 1188.79,316.23 C1186.095,316.23 1183.235,317.165 1180.155,319.035 C1176.58,321.235 1174.82,323.655 1174.82,326.295 C1174.82,328 1175.48,329.32 1176.855,330.2 C1177.845,330.97 1179.22,331.3 1180.925,331.3 L1181.42,331.3 L1177.735,334.38 L1177.405,333.885 C1176.8,334.545 1176.305,335.095 1175.975,335.425 C1175.425,335.645 1174.93,336.085 1174.545,336.69 C1174.05,337.35 1173.83,337.955 1173.83,338.56 C1173.83,339.11 1174.05,339.605 1174.545,340.155 C1174.985,340.595 1175.535,340.87 1176.085,340.87 C1176.635,340.87 1177.46,340.32 1178.56,339.275 C1182.465,335.7 1185.49,333.005 1187.58,331.19 C1186.975,335.7 1186.7,338.23 1186.7,338.78 C1186.7,340.595 1187.415,341.53 1188.845,341.53 C1190.055,341.53 1190.77,340.76 1190.88,339.33 C1191.65,332.4 1192.255,327.23 1192.75,323.765 L1192.75,323.765 Z M1222.12,339.11 C1222.12,338.945 1222.01,338.67 1221.79,338.34 C1221.13,337.13 1220.36,336.525 1219.59,336.525 C1219.48,336.525 1219.315,336.58 1219.04,336.58 C1219.315,329.76 1219.535,324.81 1219.755,321.675 C1219.865,320.08 1220.195,318.485 1220.8,316.835 C1220.8,316.285 1220.47,315.68 1219.92,315.13 C1219.37,314.58 1218.82,314.305 1218.27,314.305 C1216.84,314.305 1215.135,314.635 1213.1,315.185 C1210.68,315.9 1209.085,316.45 1208.315,316.78 C1207.105,317.44 1206.555,318.265 1206.555,319.2 C1206.555,319.475 1206.665,319.86 1206.94,320.41 C1207.105,320.96 1207.215,321.345 1207.215,321.565 C1207.215,323.985 1206.61,326.735 1205.4,329.925 C1204.08,333.28 1202.595,335.92 1200.835,337.845 C1199.13,337.955 1198.25,338.725 1198.14,340.155 C1197.92,342.3 1197.865,344.17 1197.865,345.71 C1197.865,346.205 1198.085,346.7 1198.525,347.14 C1198.965,347.58 1199.57,347.855 1200.23,347.855 C1201.495,347.855 1202.155,347.195 1202.155,345.93 C1202.155,345.71 1202.1,345.435 1202.045,345.05 C1201.935,344.665 1201.935,344.39 1201.935,344.28 C1201.935,344.06 1201.935,343.84 1201.99,343.51 L1201.99,342.685 C1201.99,342.245 1202.375,341.97 1203.255,341.915 C1206.5,341.53 1209.47,341.255 1212.11,341.09 C1214.035,340.925 1215.41,340.87 1216.18,340.87 C1216.84,340.87 1217.225,341.145 1217.225,341.695 C1217.225,341.86 1217.225,342.465 1217.28,343.565 L1217.28,345.49 C1217.28,347.03 1217.83,347.855 1219.04,347.855 C1219.48,347.855 1220.03,347.69 1220.635,347.415 C1221.13,347.085 1221.405,346.645 1221.405,346.205 C1221.405,345.82 1221.35,345.325 1221.295,344.665 C1221.185,344.005 1221.13,343.455 1221.13,343.125 C1221.13,342.245 1221.185,341.475 1221.405,340.87 C1221.405,340.76 1221.515,340.485 1221.735,340.045 C1221.955,339.55 1222.12,339.22 1222.12,339.11 L1222.12,339.11 Z M1215.685,318.98 C1215.685,326.46 1215.355,332.51 1214.695,337.075 C1210.405,337.35 1207.49,337.57 1205.895,337.79 C1208.59,333.5 1210.46,327.56 1211.505,320.08 C1212.385,319.64 1213.815,319.255 1215.685,318.98 L1215.685,318.98 Z M1244.615,326.9 C1244.615,324.755 1244.01,322.775 1242.8,321.015 C1241.535,319.31 1239.94,318.1 1238.015,317.44 C1237.245,317.22 1236.805,317.11 1236.695,317.11 C1236.255,317.11 1235.76,317.385 1235.1,317.825 C1234.33,318.265 1233.725,318.595 1233.285,318.76 C1231.415,319.695 1229.875,321.345 1228.775,323.655 C1227.675,325.745 1227.18,328 1227.18,330.365 C1227.18,333.17 1227.895,335.48 1229.435,337.295 C1230.975,339.055 1232.9,339.99 1235.21,339.99 C1237.85,339.99 1240.105,338.78 1241.92,336.25 C1243.68,333.72 1244.615,330.64 1244.615,326.9 L1244.615,326.9 Z M1240.27,327.725 C1240.27,329.595 1239.72,331.3 1238.73,332.895 C1237.63,334.545 1236.475,335.37 1235.155,335.37 C1234.055,335.37 1233.175,334.875 1232.515,333.83 C1231.8,332.84 1231.47,331.685 1231.47,330.365 C1231.47,328.605 1231.855,326.955 1232.735,325.415 C1233.725,323.655 1234.99,322.72 1236.53,322.72 C1237.08,323.05 1237.795,323.215 1238.675,323.215 C1239.72,323.875 1240.27,325.415 1240.27,327.725 L1240.27,327.725 Z M1269.09,321.015 C1269.09,320.575 1268.87,320.08 1268.43,319.585 C1267.99,319.145 1267.495,318.925 1267.055,318.925 C1266.615,318.925 1265.68,319.255 1264.305,319.915 C1261.995,321.015 1259.08,323.105 1255.67,326.075 C1256.44,322.885 1257.155,320.355 1257.925,318.54 C1258.365,317.385 1258.585,316.67 1258.585,316.45 C1258.585,315.02 1257.87,314.305 1256.55,314.305 C1255.67,314.305 1255.01,314.8 1254.57,315.79 C1251.875,322.39 1250.5,329.65 1250.39,337.515 C1250.28,337.79 1250.28,338.065 1250.28,338.34 C1250.28,339 1250.39,339.605 1250.61,340.21 C1250.94,341.2 1251.71,341.75 1252.81,341.75 C1254.02,341.75 1254.625,341.035 1254.625,339.66 C1254.625,339.55 1254.57,339.22 1254.57,338.67 C1254.515,338.12 1254.515,337.735 1254.515,337.405 L1254.515,335.37 C1254.515,334.6 1254.515,333.72 1254.625,332.73 C1255.01,332.51 1255.23,332.4 1255.285,332.345 C1257.375,335.15 1260.07,337.625 1263.315,339.77 C1264.305,340.485 1265.075,340.87 1265.625,340.87 C1266.945,340.87 1267.605,340.155 1267.605,338.78 C1267.605,338.23 1267.11,337.46 1266.23,336.58 C1264.69,335.205 1263.81,334.49 1263.48,334.49 C1263.37,334.49 1263.205,334.545 1263.095,334.545 C1260.95,332.84 1259.3,331.19 1258.2,329.595 C1260.84,327.12 1263.04,325.36 1264.855,324.37 C1265.075,324.48 1265.295,324.535 1265.57,324.535 C1266.285,324.535 1267.055,324.15 1267.825,323.38 C1268.65,322.665 1269.09,321.895 1269.09,321.015 L1269.09,321.015 Z" id="С-почками-у-вас-поря" transform="translate(995.300000, 325.800000) rotate(-10.000000) translate(-995.300000, -325.800000) "></path>
        </g>
    </g>
</svg>