<?xml version="1.0" encoding="UTF-8"?>
<svg width="419px" height="113px" viewBox="0 0 419 113" version="1.1" xmlns="http://www.w3.org/2000/svg" xmlns:xlink="http://www.w3.org/1999/xlink">
    <!-- Generator: Sketch 40.3 (33839) - http://www.bohemiancoding.com/sketch -->
    <title>Вы все еще живы?</title>
    <desc>Created with Sketch.</desc>
    <defs></defs>
    <g id="Page-1" stroke="none" stroke-width="1" fill="none" fill-rule="evenodd">
        <g id="Desktop" transform="translate(-578.000000, -136.000000)" fill="#505050">
            <path d="M607.745,197.065 C607.745,194.315 605.985,192.335 602.465,191.125 C600.485,190.52 597.13,190.025 592.455,189.64 C596.195,187.605 598.89,185.9 600.54,184.47 C603.18,182.27 604.555,180.07 604.555,177.87 C604.555,175.45 603.455,173.635 601.31,172.425 C599.605,171.545 597.46,171.05 594.875,171.05 C591.465,171.05 587.01,171.325 581.51,171.765 C580.465,171.875 579.805,172.04 579.475,172.26 C578.925,172.59 578.65,173.195 578.65,174.185 C578.65,175.725 579.475,176.44 581.235,176.44 C581.345,176.44 582.115,176.385 583.545,176.22 C583.545,176.33 583.49,177.815 583.435,180.785 C583.325,183.81 583.325,185.68 583.325,186.45 L583.325,196.185 C583.27,202.345 583.27,205.865 583.27,206.745 C581.95,206.965 581.015,207.185 580.465,207.46 C579.75,207.9 579.42,208.615 579.42,209.55 C579.42,210.155 579.585,210.705 580.025,211.145 C580.41,211.585 580.905,211.805 581.565,211.805 C582.995,211.64 587.45,210.43 594.875,208.23 C598.56,207.13 601.365,205.92 603.29,204.6 C606.26,202.62 607.745,200.09 607.745,197.065 L607.745,197.065 Z M599.825,178.09 C599.825,180.18 595.81,183.205 587.89,187.165 L587.89,182.105 C587.89,180.455 587.945,178.42 588.055,175.89 C588.44,175.89 589.485,175.835 591.245,175.725 C592.565,175.67 593.61,175.615 594.49,175.615 C598.01,175.615 599.825,176.44 599.825,178.09 L599.825,178.09 Z M603.125,197.78 C603.125,200.09 597.955,202.62 587.725,205.37 L587.725,193.765 C593.115,194.26 596.635,194.645 598.285,194.92 C601.475,195.58 603.125,196.57 603.125,197.78 L603.125,197.78 Z M639.59,187.11 C639.59,186.56 639.425,186.065 639.095,185.57 C638.655,185.075 638.16,184.8 637.555,184.8 C636.51,184.8 635.63,185.735 634.915,187.495 C634.2,189.365 633.87,190.685 633.87,191.455 C633.87,191.95 634.145,192.445 634.695,192.94 L633.705,200.585 C633.045,205.15 632.77,207.9 632.77,208.89 C632.77,211.2 633.595,212.41 635.3,212.41 C635.905,212.41 636.4,212.135 636.785,211.695 C637.225,211.2 637.445,210.65 637.445,210.045 C637.445,209.385 637.28,208.89 637.005,208.505 C637.06,206.305 637.28,204.05 637.61,201.795 C637.94,199.54 638.325,197.285 638.655,194.975 C639.26,190.905 639.59,188.265 639.59,187.11 L639.59,187.11 Z M630.02,202.345 C630.02,200.09 629.25,198.275 627.765,196.9 C626.39,195.635 624.63,194.975 622.43,194.975 C621.22,194.975 620.01,195.305 618.8,195.965 C619.02,193.93 619.185,192.115 619.35,190.575 C619.625,188.815 619.79,187.44 619.9,186.45 C619.68,184.855 619.02,184.03 617.81,184.03 C616.38,184.03 615.61,185.13 615.445,187.275 C614.565,195.965 613.905,203.335 613.355,209.385 C613.41,211.31 614.125,212.3 615.555,212.3 C616.435,212.3 617.04,211.915 617.37,211.2 C617.975,211.365 618.525,211.475 619.075,211.475 C621.495,211.475 623.86,210.595 626.17,208.89 C628.7,207.02 630.02,204.875 630.02,202.345 L630.02,202.345 Z M625.84,201.685 C625.84,203.335 624.96,204.82 623.31,206.085 C621.77,207.295 620.285,207.9 618.855,207.9 C618.635,207.9 618.25,207.845 617.81,207.735 L618.305,201.41 C619.295,199.76 620.615,198.88 622.32,198.88 C623.2,198.88 623.97,199.155 624.74,199.705 C625.455,200.255 625.84,200.915 625.84,201.685 L625.84,201.685 Z M685.9,202.895 C685.9,199.76 682.545,198.055 675.945,197.78 C681.005,195.525 683.535,193.105 683.535,190.465 C683.535,188.76 682.655,187.44 680.95,186.505 C679.575,185.845 677.925,185.46 676,185.46 C673.305,185.46 670.115,185.625 666.43,185.955 C664.78,186.175 664.01,186.835 664.01,188.045 C664.01,189.365 664.725,189.97 666.265,189.97 C666.54,189.97 666.98,189.915 667.585,189.805 C667.475,201.96 667.42,208.23 667.42,208.56 C665.495,208.78 664.56,209.55 664.56,210.98 C664.56,211.97 665.22,212.52 666.65,212.685 C667.805,212.63 669.51,212.355 671.765,211.86 C675.945,210.87 679.025,209.88 680.895,209 C684.195,207.46 685.9,205.425 685.9,202.895 L685.9,202.895 Z M679.3,190.96 C679.3,192.555 676.715,194.26 671.545,196.075 L671.655,189.695 C673.69,189.53 675.175,189.42 676.055,189.42 C678.2,189.42 679.3,189.97 679.3,190.96 L679.3,190.96 Z M681.775,203.445 C681.775,204.27 680.84,205.095 678.97,205.865 C677.1,206.635 674.57,207.24 671.435,207.625 L671.435,200.695 C675.065,200.805 677.595,201.08 679.135,201.41 C680.895,201.85 681.775,202.51 681.775,203.445 L681.775,203.445 Z M708.505,203.94 C708.505,203.39 708.285,202.84 707.845,202.29 C707.405,201.85 706.91,201.575 706.36,201.575 C705.92,201.575 705.26,201.96 704.49,202.675 C703.83,203.225 703.17,203.775 702.62,204.325 C701.685,205.04 700.53,205.37 699.155,205.37 C696.955,205.37 695.91,204.05 695.91,201.3 C695.91,199.595 696.405,197.89 697.395,196.24 C698.385,194.59 699.595,193.215 701.08,192.225 C701.74,192.61 702.73,192.775 704.105,192.775 C704.82,192.775 705.535,192.5 706.25,191.84 C706.855,191.18 707.185,190.575 707.185,189.915 C707.185,189.035 706.855,188.375 706.195,187.825 C705.48,187.33 704.71,187.055 703.885,187.055 C700.42,187.055 697.34,188.87 694.7,192.445 C692.555,195.305 691.51,198.44 691.51,201.85 C691.51,204.27 692.28,206.195 693.82,207.735 C695.36,209.22 697.285,209.99 699.595,209.99 C701.685,209.99 703.83,209.165 705.92,207.515 C707.625,206.195 708.505,205.04 708.505,203.94 L708.505,203.94 Z M735.4,208.01 C735.4,207.46 735.18,206.91 734.74,206.36 C734.3,205.92 733.75,205.645 733.2,205.645 C732.76,205.645 732.045,205.755 731.11,205.865 C730.175,205.975 729.46,206.03 729.02,206.03 C727.37,206.03 725.94,205.26 724.62,203.665 C730.12,200.695 732.87,197.175 732.87,193.105 C732.87,191.565 732.21,190.08 730.89,188.76 C729.57,187.44 728.25,186.78 726.875,186.78 C724.51,186.78 722.585,188.155 721.045,190.85 C719.725,193.16 719.065,195.635 719.065,198.275 C719.065,198.825 719.12,199.595 719.285,200.53 L718.02,200.53 C717.25,200.53 716.535,200.255 715.765,199.705 C714.995,199.155 714.445,198.88 714.115,198.88 C712.685,198.88 711.97,199.65 711.97,201.19 C711.97,202.4 712.85,203.39 714.72,204.16 C716.15,204.765 717.525,205.04 718.955,205.04 L720.605,205.04 C722.585,208.835 725.665,210.705 729.845,210.705 C733.53,210.705 735.4,209.77 735.4,208.01 L735.4,208.01 Z M728.525,193.325 C728.525,195.14 726.875,197.12 723.575,199.265 L723.575,198.275 C723.575,196.79 723.795,195.36 724.345,193.985 C724.895,192.335 725.665,191.51 726.655,191.51 C727.095,191.51 727.535,191.73 727.975,192.06 C728.305,192.5 728.525,192.885 728.525,193.325 L728.525,193.325 Z M780.115,208.01 C780.115,207.46 779.895,206.91 779.455,206.36 C779.015,205.92 778.465,205.645 777.915,205.645 C777.475,205.645 776.76,205.755 775.825,205.865 C774.89,205.975 774.175,206.03 773.735,206.03 C772.085,206.03 770.655,205.26 769.335,203.665 C774.835,200.695 777.585,197.175 777.585,193.105 C777.585,191.565 776.925,190.08 775.605,188.76 C774.285,187.44 772.965,186.78 771.59,186.78 C769.225,186.78 767.3,188.155 765.76,190.85 C764.44,193.16 763.78,195.635 763.78,198.275 C763.78,198.825 763.835,199.595 764,200.53 L762.735,200.53 C761.965,200.53 761.25,200.255 760.48,199.705 C759.71,199.155 759.16,198.88 758.83,198.88 C757.4,198.88 756.685,199.65 756.685,201.19 C756.685,202.4 757.565,203.39 759.435,204.16 C760.865,204.765 762.24,205.04 763.67,205.04 L765.32,205.04 C767.3,208.835 770.38,210.705 774.56,210.705 C778.245,210.705 780.115,209.77 780.115,208.01 L780.115,208.01 Z M773.24,193.325 C773.24,195.14 771.59,197.12 768.29,199.265 L768.29,198.275 C768.29,196.79 768.51,195.36 769.06,193.985 C769.61,192.335 770.38,191.51 771.37,191.51 C771.81,191.51 772.25,191.73 772.69,192.06 C773.02,192.5 773.24,192.885 773.24,193.325 L773.24,193.325 Z M811.025,208.89 C811.025,206.8 810.255,205.7 808.77,205.59 C808.055,205.7 807.56,205.81 807.34,205.81 C807.67,202.84 807.945,199.705 808.165,196.295 C808.22,195.305 808.33,193.93 808.495,192.17 C808.605,190.85 808.715,189.97 808.715,189.64 C808.715,189.31 808.33,188.65 807.615,187.715 C807.065,187.055 806.515,186.67 805.965,186.67 C804.975,186.67 804.37,187 804.095,187.605 C804.26,188.815 804.37,190.3 804.37,191.95 C804.37,193.435 804.205,195.91 803.875,199.375 C803.6,202.73 803.38,205.04 803.16,206.305 L797.88,206.855 L799.035,189.53 C798.925,187.11 797.935,185.9 796.12,185.9 C795.24,185.9 794.69,186.34 794.47,187.165 C794.635,187.88 794.745,188.485 794.745,189.035 C794.745,195.525 794.36,201.63 793.645,207.35 C791.225,207.68 789.685,207.845 788.97,207.845 C788.475,207.79 788.255,207.515 788.255,207.075 C788.255,206.8 788.365,204.325 788.585,199.705 C788.86,195.085 789.025,192.5 789.08,192.005 C788.97,190.575 788.805,189.42 788.53,188.595 C788.035,187.165 787.21,186.45 786.11,186.45 C784.9,186.45 784.35,187.055 784.35,188.155 C784.35,188.705 784.405,189.475 784.625,190.465 C784.735,191.51 784.845,192.28 784.845,192.775 C784.845,195.085 784.735,197.945 784.515,201.245 C784.295,204.6 784.185,206.47 784.185,206.91 C784.185,208.01 784.24,208.78 784.405,209.22 C784.625,209.88 785.175,210.54 786,211.09 C786.825,211.64 787.595,211.97 788.255,211.97 C790.62,211.365 793.26,211.035 796.12,210.925 C798.43,210.815 800.025,210.65 800.96,210.485 C802.61,210.155 803.545,210.045 803.765,210.045 C803.93,210.045 804.15,210.045 804.425,210.155 C804.645,210.21 804.865,210.265 804.975,210.265 C805.085,210.265 805.25,210.21 805.58,210.155 C805.855,210.1 806.02,210.1 806.13,210.1 C806.46,210.1 806.625,210.265 806.625,210.595 C806.625,211.09 806.515,211.86 806.295,212.85 C806.075,213.785 805.965,214.5 805.965,215.05 C805.965,215.765 806.405,216.15 807.395,216.15 C808.275,216.15 809.155,215.27 809.98,213.51 C810.64,211.97 811.025,210.43 811.025,208.89 L811.025,208.89 Z M837.37,208.01 C837.37,207.46 837.15,206.91 836.71,206.36 C836.27,205.92 835.72,205.645 835.17,205.645 C834.73,205.645 834.015,205.755 833.08,205.865 C832.145,205.975 831.43,206.03 830.99,206.03 C829.34,206.03 827.91,205.26 826.59,203.665 C832.09,200.695 834.84,197.175 834.84,193.105 C834.84,191.565 834.18,190.08 832.86,188.76 C831.54,187.44 830.22,186.78 828.845,186.78 C826.48,186.78 824.555,188.155 823.015,190.85 C821.695,193.16 821.035,195.635 821.035,198.275 C821.035,198.825 821.09,199.595 821.255,200.53 L819.99,200.53 C819.22,200.53 818.505,200.255 817.735,199.705 C816.965,199.155 816.415,198.88 816.085,198.88 C814.655,198.88 813.94,199.65 813.94,201.19 C813.94,202.4 814.82,203.39 816.69,204.16 C818.12,204.765 819.495,205.04 820.925,205.04 L822.575,205.04 C824.555,208.835 827.635,210.705 831.815,210.705 C835.5,210.705 837.37,209.77 837.37,208.01 L837.37,208.01 Z M830.495,193.325 C830.495,195.14 828.845,197.12 825.545,199.265 L825.545,198.275 C825.545,196.79 825.765,195.36 826.315,193.985 C826.865,192.335 827.635,191.51 828.625,191.51 C829.065,191.51 829.505,191.73 829.945,192.06 C830.275,192.5 830.495,192.885 830.495,193.325 L830.495,193.325 Z M889.455,205.755 C889.455,204.545 888.63,203.885 887.035,203.72 C881.865,203.28 878.18,202.455 876.035,201.355 C879.72,196.845 882.58,193.49 884.615,191.29 C885.055,190.795 885.275,190.3 885.275,189.75 C885.275,189.2 885.055,188.65 884.615,188.155 C884.175,187.715 883.68,187.495 883.13,187.495 C882.58,187.495 881.755,188.21 880.545,189.64 C879.225,191.18 877.52,193.325 875.43,196.075 C875.54,194.37 875.87,192.335 876.42,189.915 C876.75,187.99 876.97,186.89 876.97,186.615 C876.97,185.185 876.2,184.415 874.77,184.415 C873.67,184.415 872.955,185.405 872.625,187.275 C872.35,188.595 872.075,190.575 871.8,193.16 C868.335,192.61 865.75,191.62 864.1,190.135 C863.33,189.53 862.615,189.2 861.845,189.2 C861.35,189.2 860.965,189.42 860.635,189.805 C860.305,190.3 860.14,190.74 860.14,191.18 C860.14,192.39 861.24,193.6 863.55,194.81 C864.705,195.47 866.575,196.13 869.16,196.845 C866.465,199.87 863.77,202.345 861.02,204.325 C860.14,204.985 859.7,205.7 859.7,206.525 C859.7,207.075 859.865,207.57 860.305,208.01 C860.69,208.45 861.185,208.67 861.79,208.67 C862.45,208.67 863.275,208.23 864.265,207.35 C867.62,204.325 869.985,202.015 871.415,200.42 C871.525,204.71 871.8,208.01 872.295,210.43 C872.625,211.86 873.45,212.575 874.825,212.575 C875.32,212.575 875.76,212.3 876.2,211.805 C876.585,211.31 876.805,210.815 876.805,210.32 C876.365,208.56 875.98,207.075 875.76,205.92 C878.345,206.69 880.6,207.185 882.58,207.515 C884.725,207.955 886.32,208.12 887.42,208.12 C888.74,208.12 889.455,207.35 889.455,205.755 L889.455,205.755 Z M914.37,209.33 C914.37,208.945 914.095,208.45 913.6,207.9 C912.39,206.58 911.84,203.225 911.84,197.835 C911.84,195.91 912.115,192.665 912.72,188.1 C912.72,187.495 912.445,186.945 912.005,186.395 C911.51,185.9 910.96,185.625 910.355,185.625 C909.42,185.625 907.44,187.66 904.47,191.73 C902.05,194.92 900.07,197.835 898.42,200.365 C898.805,196.075 899.08,192.94 899.245,191.07 C899.245,190.19 898.915,189.42 898.365,188.76 C897.815,188.155 897.1,187.825 896.22,187.825 C895.725,187.825 895.285,188.155 894.845,188.76 C894.955,190.355 895.065,191.29 895.065,191.51 C895.065,192.5 894.9,194.975 894.625,198.99 L894.515,200.585 C894.46,201.41 894.35,202.51 894.24,203.885 C894.075,205.205 893.965,206.03 893.965,206.36 C894.02,207.13 894.24,207.735 894.68,208.065 C895.56,208.945 896.11,209.33 896.33,209.33 C897.1,209.33 898.035,208.505 899.025,206.745 C901.06,203.335 902.49,200.915 903.37,199.595 C904.8,197.23 906.34,195.03 908.045,193.05 C908.045,193.6 907.99,194.755 907.99,196.46 C907.935,198.22 907.935,199.155 907.935,199.375 C907.935,202.235 908.21,204.655 908.815,206.745 C909.64,209.77 910.85,211.31 912.39,211.31 C912.72,211.31 913.16,211.035 913.655,210.595 C914.095,210.045 914.37,209.66 914.37,209.33 L914.37,209.33 Z M941.87,202.895 C941.87,199.76 938.515,198.055 931.915,197.78 C936.975,195.525 939.505,193.105 939.505,190.465 C939.505,188.76 938.625,187.44 936.92,186.505 C935.545,185.845 933.895,185.46 931.97,185.46 C929.275,185.46 926.085,185.625 922.4,185.955 C920.75,186.175 919.98,186.835 919.98,188.045 C919.98,189.365 920.695,189.97 922.235,189.97 C922.51,189.97 922.95,189.915 923.555,189.805 C923.445,201.96 923.39,208.23 923.39,208.56 C921.465,208.78 920.53,209.55 920.53,210.98 C920.53,211.97 921.19,212.52 922.62,212.685 C923.775,212.63 925.48,212.355 927.735,211.86 C931.915,210.87 934.995,209.88 936.865,209 C940.165,207.46 941.87,205.425 941.87,202.895 L941.87,202.895 Z M935.27,190.96 C935.27,192.555 932.685,194.26 927.515,196.075 L927.625,189.695 C929.66,189.53 931.145,189.42 932.025,189.42 C934.17,189.42 935.27,189.97 935.27,190.96 L935.27,190.96 Z M937.745,203.445 C937.745,204.27 936.81,205.095 934.94,205.865 C933.07,206.635 930.54,207.24 927.405,207.625 L927.405,200.695 C931.035,200.805 933.565,201.08 935.105,201.41 C936.865,201.85 937.745,202.51 937.745,203.445 L937.745,203.445 Z M973.715,187.11 C973.715,186.56 973.55,186.065 973.22,185.57 C972.78,185.075 972.285,184.8 971.68,184.8 C970.635,184.8 969.755,185.735 969.04,187.495 C968.325,189.365 967.995,190.685 967.995,191.455 C967.995,191.95 968.27,192.445 968.82,192.94 L967.83,200.585 C967.17,205.15 966.895,207.9 966.895,208.89 C966.895,211.2 967.72,212.41 969.425,212.41 C970.03,212.41 970.525,212.135 970.91,211.695 C971.35,211.2 971.57,210.65 971.57,210.045 C971.57,209.385 971.405,208.89 971.13,208.505 C971.185,206.305 971.405,204.05 971.735,201.795 C972.065,199.54 972.45,197.285 972.78,194.975 C973.385,190.905 973.715,188.265 973.715,187.11 L973.715,187.11 Z M964.145,202.345 C964.145,200.09 963.375,198.275 961.89,196.9 C960.515,195.635 958.755,194.975 956.555,194.975 C955.345,194.975 954.135,195.305 952.925,195.965 C953.145,193.93 953.31,192.115 953.475,190.575 C953.75,188.815 953.915,187.44 954.025,186.45 C953.805,184.855 953.145,184.03 951.935,184.03 C950.505,184.03 949.735,185.13 949.57,187.275 C948.69,195.965 948.03,203.335 947.48,209.385 C947.535,211.31 948.25,212.3 949.68,212.3 C950.56,212.3 951.165,211.915 951.495,211.2 C952.1,211.365 952.65,211.475 953.2,211.475 C955.62,211.475 957.985,210.595 960.295,208.89 C962.825,207.02 964.145,204.875 964.145,202.345 L964.145,202.345 Z M959.965,201.685 C959.965,203.335 959.085,204.82 957.435,206.085 C955.895,207.295 954.41,207.9 952.98,207.9 C952.76,207.9 952.375,207.845 951.935,207.735 L952.43,201.41 C953.42,199.76 954.74,198.88 956.445,198.88 C957.325,198.88 958.095,199.155 958.865,199.705 C959.58,200.255 959.965,200.915 959.965,201.685 L959.965,201.685 Z M1002.04,179.905 C1002.04,177.1 1000.995,174.9 998.905,173.305 C997.035,171.875 994.505,171.105 991.425,171.105 C990.16,171.105 988.675,171.325 987.025,171.71 C986.09,171.435 985.595,171.27 985.54,171.27 C984.88,171.27 984.22,171.6 983.505,172.15 C982.845,172.755 982.515,173.36 982.515,174.02 C982.515,174.79 982.735,175.395 983.175,175.835 C983.615,176.385 984.165,176.605 984.935,176.605 C985.1,176.605 985.65,176.55 986.53,176.33 C989.17,175.89 990.6,175.615 990.82,175.615 C995.33,175.615 997.64,177.045 997.64,179.85 C997.64,181.94 996.375,183.755 993.9,185.185 C991.755,186.45 989.225,187.22 986.31,187.55 C984.55,187.77 983.725,188.54 983.725,189.805 C983.725,190.08 983.89,190.685 984.275,191.675 C985.045,194.04 985.54,196.35 985.815,198.605 C985.98,200.145 986.695,200.86 987.96,200.86 C989.39,200.86 990.16,200.09 990.16,198.44 C990.16,196.735 989.72,194.37 988.895,191.4 C992.36,190.85 995.385,189.585 997.915,187.605 C1000.665,185.405 1002.04,182.875 1002.04,179.905 L1002.04,179.905 Z M991.26,208.23 C991.26,207.35 990.93,206.635 990.325,206.085 C989.61,205.645 988.84,205.37 988.07,205.37 C987.135,205.37 986.42,205.755 985.87,206.47 C985.32,207.13 985.045,207.955 985.045,208.89 C985.045,209.715 985.265,210.43 985.76,211.035 C986.255,211.585 986.805,211.915 987.41,211.915 C988.675,211.915 989.665,211.585 990.325,210.925 C990.93,210.21 991.26,209.33 991.26,208.23 L991.26,208.23 Z" id="Вы-все-еще-живы?" transform="translate(792.132500, 193.600000) rotate(-10.000000) translate(-792.132500, -193.600000) "></path>
        </g>
    </g>
</svg>