<?xml version="1.0" encoding="UTF-8"?>
<svg width="122px" height="31px" viewBox="0 0 122 31" version="1.1" xmlns="http://www.w3.org/2000/svg" xmlns:xlink="http://www.w3.org/1999/xlink">
    <!-- Generator: Sketch 40.3 (33839) - http://www.bohemiancoding.com/sketch -->
    <title>Group 3</title>
    <desc>Created with Sketch.</desc>
    <defs></defs>
    <g id="Page-1" stroke="none" stroke-width="1" fill="none" fill-rule="evenodd">
        <g id="Desktop" transform="translate(-336.000000, -92.000000)" fill="#354777">
            <g id="Group-3" transform="translate(336.000000, 92.000000)">
                <path d="M24.95,24.615 C24.95,22.9 24.215,22.025 22.78,22.025 C22.43,22.025 22.045,22.06 21.695,22.06 C22.045,16.88 22.325,13.1 22.5,10.72 C22.64,9.075 22.78,7.43 22.955,5.82 C23.095,4.595 23.2,3.965 23.2,3.895 C23.2,3.37 22.92,2.81 22.43,2.215 C21.905,1.655 21.415,1.34 20.96,1.34 C20.26,1.34 19.805,1.55 19.595,1.9 C19.665,3.16 19.735,4.7 19.735,6.52 C19.735,7.255 19.595,9.46 19.35,13.135 C19,18.245 18.79,21.36 18.72,22.41 L14.87,22.935 C12.63,23.25 11.265,23.39 10.775,23.39 C10.18,23.39 9.9,23.075 9.9,22.445 C9.9,21.955 9.97,20.1 10.11,16.915 C10.11,16.215 10.25,14.29 10.46,11.21 C10.6,8.48 10.705,6.94 10.705,6.59 C10.705,2.985 9.865,1.165 8.255,1.165 C7.38,1.165 6.96,1.62 6.96,2.495 C7.065,3.265 7.135,3.825 7.205,4.105 C7.275,5.19 7.345,6.275 7.45,7.325 C7.415,8.34 7.275,10.72 7.03,14.5 C6.855,17.44 6.785,19.855 6.785,21.675 C6.785,22.83 6.855,23.6 7.03,24.02 C7.24,24.685 7.765,25.21 8.605,25.665 C9.62,26.155 10.425,26.435 11.02,26.435 C12.455,26.225 13.505,26.085 14.135,25.98 C18.195,25.42 20.47,25.175 20.995,25.175 C21.695,25.175 22.08,25.525 22.08,26.26 C22.08,26.54 21.975,27.59 21.835,29.34 C21.835,29.97 22.29,30.285 23.2,30.285 C24.355,30.285 24.95,28.395 24.95,24.615 L24.95,24.615 Z M40.805,25.21 C40.805,24.965 40.63,24.65 40.315,24.3 C39.545,23.46 39.195,21.325 39.195,17.895 C39.195,16.67 39.37,14.605 39.755,11.7 C39.755,11.315 39.58,10.965 39.3,10.615 C38.985,10.3 38.635,10.125 38.25,10.125 C37.655,10.125 36.395,11.42 34.505,14.01 C32.965,16.04 31.705,17.895 30.655,19.505 C30.9,16.775 31.075,14.78 31.18,13.59 C31.18,13.03 30.97,12.54 30.62,12.12 C30.27,11.735 29.815,11.525 29.255,11.525 C28.94,11.525 28.66,11.735 28.38,12.12 C28.45,13.135 28.52,13.73 28.52,13.87 C28.52,14.5 28.415,16.075 28.24,18.63 L28.17,19.645 C28.135,20.17 28.065,20.87 27.995,21.745 C27.89,22.585 27.82,23.11 27.82,23.32 C27.855,23.81 27.995,24.195 28.275,24.405 C28.835,24.965 29.185,25.21 29.325,25.21 C29.815,25.21 30.41,24.685 31.04,23.565 C32.335,21.395 33.245,19.855 33.805,19.015 C34.715,17.51 35.695,16.11 36.78,14.85 C36.78,15.2 36.745,15.935 36.745,17.02 C36.71,18.14 36.71,18.735 36.71,18.875 C36.71,20.695 36.885,22.235 37.27,23.565 C37.795,25.49 38.565,26.47 39.545,26.47 C39.755,26.47 40.035,26.295 40.35,26.015 C40.63,25.665 40.805,25.42 40.805,25.21 L40.805,25.21 Z M55.19,21.78 C55.19,21.43 55.05,21.08 54.77,20.73 C54.49,20.45 54.175,20.275 53.825,20.275 C53.545,20.275 53.125,20.52 52.635,20.975 C52.215,21.325 51.795,21.675 51.445,22.025 C50.85,22.48 50.115,22.69 49.24,22.69 C47.84,22.69 47.175,21.85 47.175,20.1 C47.175,19.015 47.49,17.93 48.12,16.88 C48.75,15.83 49.52,14.955 50.465,14.325 C50.885,14.57 51.515,14.675 52.39,14.675 C52.845,14.675 53.3,14.5 53.755,14.08 C54.14,13.66 54.35,13.275 54.35,12.855 C54.35,12.295 54.14,11.875 53.72,11.525 C53.265,11.21 52.775,11.035 52.25,11.035 C50.045,11.035 48.085,12.19 46.405,14.465 C45.04,16.285 44.375,18.28 44.375,20.45 C44.375,21.99 44.865,23.215 45.845,24.195 C46.825,25.14 48.05,25.63 49.52,25.63 C50.85,25.63 52.215,25.105 53.545,24.055 C54.63,23.215 55.19,22.48 55.19,21.78 L55.19,21.78 Z M72.48,10.44 C72.48,10.09 72.34,9.74 72.095,9.425 C71.85,9.145 71.57,8.97 71.255,8.97 C70.73,8.97 69.995,9.11 69.015,9.32 C65.165,10.23 61.735,11.035 58.795,11.735 C58.585,11.805 58.445,11.805 58.375,11.805 C57.675,11.945 57.325,12.47 57.325,13.345 C57.325,14.325 57.71,14.78 58.55,14.78 C59.565,14.57 60.37,14.395 60.93,14.22 C61.945,14.01 62.82,13.8 63.555,13.66 C63.415,16.355 63.345,18.945 63.345,21.395 C63.345,23.775 63.485,25.42 63.765,26.33 C63.975,26.96 64.395,27.275 65.095,27.275 C66.005,27.275 66.46,26.435 66.46,24.79 C66.46,23.985 66.285,23.39 66.005,23.005 C65.935,22.13 65.9,20.765 65.9,18.875 C65.9,17.405 66.005,15.41 66.285,12.925 C67.3,12.68 68,12.505 68.42,12.435 C68.735,12.645 68.98,12.715 69.155,12.715 C69.365,12.715 69.61,12.68 69.925,12.54 L71.535,11.805 C72.165,11.525 72.48,11.07 72.48,10.44 L72.48,10.44 Z M87.6,25.21 C87.6,24.965 87.425,24.65 87.11,24.3 C86.34,23.46 85.99,21.325 85.99,17.895 C85.99,16.67 86.165,14.605 86.55,11.7 C86.55,11.315 86.375,10.965 86.095,10.615 C85.78,10.3 85.43,10.125 85.045,10.125 C84.45,10.125 83.19,11.42 81.3,14.01 C79.76,16.04 78.5,17.895 77.45,19.505 C77.695,16.775 77.87,14.78 77.975,13.59 C77.975,13.03 77.765,12.54 77.415,12.12 C77.065,11.735 76.61,11.525 76.05,11.525 C75.735,11.525 75.455,11.735 75.175,12.12 C75.245,13.135 75.315,13.73 75.315,13.87 C75.315,14.5 75.21,16.075 75.035,18.63 L74.965,19.645 C74.93,20.17 74.86,20.87 74.79,21.745 C74.685,22.585 74.615,23.11 74.615,23.32 C74.65,23.81 74.79,24.195 75.07,24.405 C75.63,24.965 75.98,25.21 76.12,25.21 C76.61,25.21 77.205,24.685 77.835,23.565 C79.13,21.395 80.04,19.855 80.6,19.015 C81.51,17.51 82.49,16.11 83.575,14.85 C83.575,15.2 83.54,15.935 83.54,17.02 C83.505,18.14 83.505,18.735 83.505,18.875 C83.505,20.695 83.68,22.235 84.065,23.565 C84.59,25.49 85.36,26.47 86.34,26.47 C86.55,26.47 86.83,26.295 87.145,26.015 C87.425,25.665 87.6,25.42 87.6,25.21 L87.6,25.21 Z M105.24,10.44 C105.24,10.09 105.1,9.74 104.855,9.425 C104.61,9.145 104.33,8.97 104.015,8.97 C103.49,8.97 102.755,9.11 101.775,9.32 C97.925,10.23 94.495,11.035 91.555,11.735 C91.345,11.805 91.205,11.805 91.135,11.805 C90.435,11.945 90.085,12.47 90.085,13.345 C90.085,14.325 90.47,14.78 91.31,14.78 C92.325,14.57 93.13,14.395 93.69,14.22 C94.705,14.01 95.58,13.8 96.315,13.66 C96.175,16.355 96.105,18.945 96.105,21.395 C96.105,23.775 96.245,25.42 96.525,26.33 C96.735,26.96 97.155,27.275 97.855,27.275 C98.765,27.275 99.22,26.435 99.22,24.79 C99.22,23.985 99.045,23.39 98.765,23.005 C98.695,22.13 98.66,20.765 98.66,18.875 C98.66,17.405 98.765,15.41 99.045,12.925 C100.06,12.68 100.76,12.505 101.18,12.435 C101.495,12.645 101.74,12.715 101.915,12.715 C102.125,12.715 102.37,12.68 102.685,12.54 L104.295,11.805 C104.925,11.525 105.24,11.07 105.24,10.44 L105.24,10.44 Z M121.83,6.485 C121.83,4.7 121.165,3.3 119.835,2.285 C118.645,1.375 117.035,0.885 115.075,0.885 C114.27,0.885 113.325,1.025 112.275,1.27 C111.68,1.095 111.365,0.99 111.33,0.99 C110.91,0.99 110.49,1.2 110.035,1.55 C109.615,1.935 109.405,2.32 109.405,2.74 C109.405,3.23 109.545,3.615 109.825,3.895 C110.105,4.245 110.455,4.385 110.945,4.385 C111.05,4.385 111.4,4.35 111.96,4.21 C113.64,3.93 114.55,3.755 114.69,3.755 C117.56,3.755 119.03,4.665 119.03,6.45 C119.03,7.78 118.225,8.935 116.65,9.845 C115.285,10.65 113.675,11.14 111.82,11.35 C110.7,11.49 110.175,11.98 110.175,12.785 C110.175,12.96 110.28,13.345 110.525,13.975 C111.015,15.48 111.33,16.95 111.505,18.385 C111.61,19.365 112.065,19.82 112.87,19.82 C113.78,19.82 114.27,19.33 114.27,18.28 C114.27,17.195 113.99,15.69 113.465,13.8 C115.67,13.45 117.595,12.645 119.205,11.385 C120.955,9.985 121.83,8.375 121.83,6.485 L121.83,6.485 Z M114.97,24.51 C114.97,23.95 114.76,23.495 114.375,23.145 C113.92,22.865 113.43,22.69 112.94,22.69 C112.345,22.69 111.89,22.935 111.54,23.39 C111.19,23.81 111.015,24.335 111.015,24.93 C111.015,25.455 111.155,25.91 111.47,26.295 C111.785,26.645 112.135,26.855 112.52,26.855 C113.325,26.855 113.955,26.645 114.375,26.225 C114.76,25.77 114.97,25.21 114.97,24.51 L114.97,24.51 Z" id="Цистит?"></path>
                <rect id="Rectangle-4" x="0" y="17" width="122" height="2"></rect>
            </g>
        </g>
    </g>
</svg>