<?xml version="1.0" encoding="UTF-8"?>
<svg width="111px" height="28px" viewBox="0 0 111 28" version="1.1" xmlns="http://www.w3.org/2000/svg" xmlns:xlink="http://www.w3.org/1999/xlink">
    <!-- Generator: Sketch 40.3 (33839) - http://www.bohemiancoding.com/sketch -->
    <title>Group 4</title>
    <desc>Created with Sketch.</desc>
    <defs></defs>
    <g id="Page-1" stroke="none" stroke-width="1" fill="none" fill-rule="evenodd">
        <g id="Desktop" transform="translate(-31.000000, -69.000000)" fill="#354777">
            <g id="Group-3" transform="translate(31.000000, 69.000000)">
                <g id="Group-4">
                    <path d="M12.775,14.94 C12.775,12.84 11.725,11.44 9.66,10.81 C11.165,9.97 11.935,8.92 11.935,7.625 C11.935,5.455 10.22,4.37 6.86,4.37 C3.955,4.37 2.52,5 2.52,6.26 C2.52,7.17 2.94,7.625 3.78,7.66 C3.99,7.625 4.515,7.45 5.355,7.1 C5.915,6.89 6.44,6.75 6.86,6.75 C8.47,6.75 9.275,7.135 9.275,7.905 C9.275,8.395 8.855,8.92 8.015,9.41 C7.245,9.83 6.37,10.145 5.355,10.355 C4.095,10.635 3.43,10.775 3.325,10.81 C2.905,10.985 2.73,11.335 2.73,11.825 C2.73,12.175 2.835,12.56 3.115,12.91 C3.36,13.295 3.675,13.47 4.025,13.47 C4.2,13.47 4.445,13.4 4.76,13.19 C5.39,12.84 6.125,12.63 6.93,12.63 C7.735,12.63 8.435,12.77 9.065,13.05 C9.835,13.4 10.22,13.925 10.22,14.625 C10.22,15.465 9.555,16.305 8.295,17.11 C7.105,17.915 6.09,18.3 5.25,18.3 C4.27,18.3 3.815,18.16 3.815,17.88 C3.815,17.74 3.85,17.53 3.955,17.32 C4.025,17.075 4.06,16.9 4.06,16.83 C4.06,16.2 3.64,15.885 2.835,15.885 C2.555,15.885 2.24,16.13 1.925,16.55 C1.575,17.04 1.435,17.46 1.435,17.81 C1.435,18.3 1.61,18.825 2.03,19.385 C2.66,20.295 3.815,20.75 5.46,20.75 C7.07,20.75 8.68,20.155 10.255,19.035 C11.935,17.845 12.775,16.48 12.775,14.94 L12.775,14.94 Z M28.7,10.88 C28.7,10.565 28.525,10.215 28.245,9.865 C28.245,9.06 28.105,8.36 27.895,7.73 C27.93,7.59 27.965,7.415 27.965,7.24 C27.965,6.82 27.72,6.4 27.3,6.05 C26.845,5.7 26.39,5.49 25.935,5.49 C24.01,5.49 21.91,6.61 19.6,8.78 C17.185,11.02 15.995,13.19 15.995,15.22 C15.995,16.305 16.345,17.25 17.115,18.09 C17.85,18.965 18.725,19.385 19.74,19.385 C21.315,19.385 23.065,18.405 25.025,16.445 C25.2,19.105 25.795,20.47 26.81,20.47 C27.16,20.47 27.51,20.33 27.825,20.12 C28.105,19.84 28.28,19.49 28.28,19.14 C28.28,19.035 28.175,18.615 28.035,17.775 C27.86,16.97 27.79,16.34 27.79,15.92 C27.79,14.52 28,13.12 28.49,11.65 C28.63,11.265 28.7,11.02 28.7,10.88 L28.7,10.88 Z M25.515,9.865 C25.515,11.055 24.815,12.455 23.485,14.065 C22.155,15.675 20.93,16.445 19.88,16.445 C19.145,16.445 18.795,16.025 18.795,15.15 C18.795,14.03 19.67,12.63 21.455,10.915 C23.065,9.375 24.22,8.57 24.885,8.57 C25.305,8.57 25.515,9.025 25.515,9.865 L25.515,9.865 Z M44.24,7.555 C44.24,7.275 44.1,6.96 43.82,6.645 C43.54,6.365 43.225,6.225 42.945,6.225 C42.665,6.225 42.07,6.435 41.195,6.855 C39.725,7.555 37.87,8.885 35.7,10.775 C36.19,8.745 36.645,7.135 37.135,5.98 C37.415,5.245 37.555,4.79 37.555,4.65 C37.555,3.74 37.1,3.285 36.26,3.285 C35.7,3.285 35.28,3.6 35,4.23 C33.285,8.43 32.41,13.05 32.34,18.055 C32.27,18.23 32.27,18.405 32.27,18.58 C32.27,19 32.34,19.385 32.48,19.77 C32.69,20.4 33.18,20.75 33.88,20.75 C34.65,20.75 35.035,20.295 35.035,19.42 C35.035,19.35 35,19.14 35,18.79 C34.965,18.44 34.965,18.195 34.965,17.985 L34.965,16.69 C34.965,16.2 34.965,15.64 35.035,15.01 C35.28,14.87 35.42,14.8 35.455,14.765 C36.785,16.55 38.5,18.125 40.565,19.49 C41.195,19.945 41.685,20.19 42.035,20.19 C42.875,20.19 43.295,19.735 43.295,18.86 C43.295,18.51 42.98,18.02 42.42,17.46 C41.44,16.585 40.88,16.13 40.67,16.13 C40.6,16.13 40.495,16.165 40.425,16.165 C39.06,15.08 38.01,14.03 37.31,13.015 C38.99,11.44 40.39,10.32 41.545,9.69 C41.685,9.76 41.825,9.795 42,9.795 C42.455,9.795 42.945,9.55 43.435,9.06 C43.96,8.605 44.24,8.115 44.24,7.555 L44.24,7.555 Z M59.78,6.89 C59.78,5.21 59.395,3.81 58.625,2.69 C57.785,1.465 56.56,0.835 55.02,0.835 C52.815,0.835 51.1,2.375 49.875,5.455 C49.035,7.59 48.615,10.04 48.615,12.77 C48.615,13.12 48.615,13.4 48.65,13.575 C47.67,13.925 47.215,14.45 47.215,15.185 C47.215,16.095 47.67,16.585 48.65,16.655 C48.72,17.215 48.755,18.055 48.755,19.175 C48.755,21.415 48.615,22.99 48.405,23.97 C48.16,24.915 48.055,25.44 48.055,25.545 C48.055,25.93 48.195,26.28 48.475,26.595 C48.755,26.875 49.105,27.05 49.49,27.05 C50.225,27.05 50.75,26.315 51.065,24.88 C51.415,23.27 51.59,21.625 51.59,20.015 C51.59,18.545 51.52,17.11 51.415,15.71 C56.98,13.68 59.78,10.74 59.78,6.89 L59.78,6.89 Z M56.98,6.295 C56.98,9.165 55.125,11.265 51.45,12.595 C51.45,10.705 51.765,8.78 52.43,6.89 C53.165,4.825 54.04,3.775 55.02,3.775 C55.615,3.775 56.105,4.055 56.49,4.545 C56.805,5.035 56.98,5.63 56.98,6.295 L56.98,6.295 Z M79.94,5.07 C79.94,4.72 79.835,4.405 79.625,4.09 C79.345,3.775 79.03,3.6 78.645,3.6 C77.98,3.6 77.42,4.195 76.965,5.315 C76.51,6.505 76.3,7.345 76.3,7.835 C76.3,8.15 76.475,8.465 76.825,8.78 L76.195,13.645 C75.775,16.55 75.6,18.3 75.6,18.93 C75.6,20.4 76.125,21.17 77.21,21.17 C77.595,21.17 77.91,20.995 78.155,20.715 C78.435,20.4 78.575,20.05 78.575,19.665 C78.575,19.245 78.47,18.93 78.295,18.685 C78.33,17.285 78.47,15.85 78.68,14.415 C78.89,12.98 79.135,11.545 79.345,10.075 C79.73,7.485 79.94,5.805 79.94,5.07 L79.94,5.07 Z M73.85,14.765 C73.85,13.33 73.36,12.175 72.415,11.3 C71.54,10.495 70.42,10.075 69.02,10.075 C68.25,10.075 67.48,10.285 66.71,10.705 C66.85,9.41 66.955,8.255 67.06,7.275 C67.235,6.155 67.34,5.28 67.41,4.65 C67.27,3.635 66.85,3.11 66.08,3.11 C65.17,3.11 64.68,3.81 64.575,5.175 C64.015,10.705 63.595,15.395 63.245,19.245 C63.28,20.47 63.735,21.1 64.645,21.1 C65.205,21.1 65.59,20.855 65.8,20.4 C66.185,20.505 66.535,20.575 66.885,20.575 C68.425,20.575 69.93,20.015 71.4,18.93 C73.01,17.74 73.85,16.375 73.85,14.765 L73.85,14.765 Z M71.19,14.345 C71.19,15.395 70.63,16.34 69.58,17.145 C68.6,17.915 67.655,18.3 66.745,18.3 C66.605,18.3 66.36,18.265 66.08,18.195 L66.395,14.17 C67.025,13.12 67.865,12.56 68.95,12.56 C69.51,12.56 70,12.735 70.49,13.085 C70.945,13.435 71.19,13.855 71.19,14.345 L71.19,14.345 Z M97.58,4.44 C97.58,4.09 97.44,3.74 97.195,3.425 C96.95,3.145 96.67,2.97 96.355,2.97 C95.83,2.97 95.095,3.11 94.115,3.32 C90.265,4.23 86.835,5.035 83.895,5.735 C83.685,5.805 83.545,5.805 83.475,5.805 C82.775,5.945 82.425,6.47 82.425,7.345 C82.425,8.325 82.81,8.78 83.65,8.78 C84.665,8.57 85.47,8.395 86.03,8.22 C87.045,8.01 87.92,7.8 88.655,7.66 C88.515,10.355 88.445,12.945 88.445,15.395 C88.445,17.775 88.585,19.42 88.865,20.33 C89.075,20.96 89.495,21.275 90.195,21.275 C91.105,21.275 91.56,20.435 91.56,18.79 C91.56,17.985 91.385,17.39 91.105,17.005 C91.035,16.13 91,14.765 91,12.875 C91,11.405 91.105,9.41 91.385,6.925 C92.4,6.68 93.1,6.505 93.52,6.435 C93.835,6.645 94.08,6.715 94.255,6.715 C94.465,6.715 94.71,6.68 95.025,6.54 L96.635,5.805 C97.265,5.525 97.58,5.07 97.58,4.44 L97.58,4.44 Z M110.32,14.765 C110.32,13.33 109.83,12.175 108.885,11.3 C108.01,10.495 106.89,10.075 105.49,10.075 C104.72,10.075 103.95,10.285 103.18,10.705 C103.32,9.41 103.425,8.255 103.53,7.275 C103.705,6.155 103.81,5.28 103.88,4.65 C103.74,3.635 103.32,3.11 102.55,3.11 C101.64,3.11 101.15,3.81 101.045,5.175 C100.485,10.705 100.065,15.395 99.715,19.245 C99.75,20.47 100.205,21.1 101.115,21.1 C101.675,21.1 102.06,20.855 102.27,20.4 C102.655,20.505 103.005,20.575 103.355,20.575 C104.895,20.575 106.4,20.015 107.87,18.93 C109.48,17.74 110.32,16.375 110.32,14.765 L110.32,14.765 Z M107.66,14.345 C107.66,15.395 107.1,16.34 106.05,17.145 C105.07,17.915 104.125,18.3 103.215,18.3 C103.075,18.3 102.83,18.265 102.55,18.195 L102.865,14.17 C103.495,13.12 104.335,12.56 105.42,12.56 C105.98,12.56 106.47,12.735 106.96,13.085 C107.415,13.435 107.66,13.855 107.66,14.345 L107.66,14.345 Z" id="закрыть"></path>
                    <rect id="Rectangle-9" x="0" y="24" width="109" height="2"></rect>
                </g>
            </g>
        </g>
    </g>
</svg>