<?xml version="1.0" encoding="UTF-8"?>
<svg width="41px" height="42px" viewBox="0 0 41 42" version="1.1" xmlns="http://www.w3.org/2000/svg" xmlns:xlink="http://www.w3.org/1999/xlink">
    <!-- Generator: Sketch 40.3 (33839) - http://www.bohemiancoding.com/sketch -->
    <title>Г.</title>
    <desc>Created with Sketch.</desc>
    <defs></defs>
    <g id="Page-1" stroke="none" stroke-width="1" fill="none" fill-rule="evenodd">
        <g id="Desktop" transform="translate(-732.000000, -544.000000)" fill="#E0E0E0">
            <g id="Group" transform="translate(316.000000, 461.000000)">
                <path d="M443.535,86.075 C443.535,85.195 443.205,84.48 442.6,83.875 C441.94,83.325 441.17,82.995 440.345,82.995 C439.685,82.995 438.53,83.215 436.825,83.545 C434.57,84.04 433.305,84.315 433.03,84.315 C428.355,85.03 423.625,85.36 418.785,85.36 C418.29,85.36 417.85,85.635 417.41,86.075 C416.97,86.57 416.805,87.065 416.805,87.56 C416.805,89.32 418.07,90.2 420.71,90.2 C420.6,93.06 420.49,95.205 420.435,96.525 C419.72,107.635 419.17,115.995 418.84,121.495 C418.895,123.585 419.72,124.63 421.37,124.63 C422.085,124.63 422.69,124.3 423.24,123.695 C423.79,123.035 424.065,122.32 424.065,121.55 C424.065,120.56 424.01,119.24 424.01,117.535 C423.955,115.885 423.955,114.62 423.955,113.795 C423.955,109.12 424.45,101.09 425.495,89.76 C432.645,88.99 438.035,88.385 441.665,87.945 C442.875,87.835 443.535,87.175 443.535,86.075 L443.535,86.075 Z M456.295,119.735 C456.295,117.425 455.36,116.215 453.545,116.215 C452.555,116.215 451.73,116.71 450.96,117.7 C450.135,118.69 449.75,119.68 449.75,120.56 C449.75,121.165 450.08,121.99 450.795,122.98 C451.51,123.97 452.28,124.52 453.105,124.52 C454.315,124.52 455.14,123.805 455.58,122.485 C456.02,120.945 456.295,120.01 456.295,119.735 L456.295,119.735 Z" id="Г."></path>
            </g>
        </g>
    </g>
</svg>