<?xml version="1.0" encoding="UTF-8"?>
<svg width="752px" height="112px" viewBox="0 0 752 112" version="1.1" xmlns="http://www.w3.org/2000/svg" xmlns:xlink="http://www.w3.org/1999/xlink">
    <!-- Generator: Sketch 40.3 (33839) - http://www.bohemiancoding.com/sketch -->
    <title>Под глазами отеки ут</title>
    <desc>Created with Sketch.</desc>
    <defs></defs>
    <g id="Page-1" stroke="none" stroke-width="1" fill="none" fill-rule="evenodd">
        <g id="1600--copy-2" transform="translate(-391.000000, -293.000000)" fill="#FFFFFF">
            <path d="M418.769913,334.610652 C418.769913,334.060652 418.714913,333.675652 418.659913,333.345652 C417.724913,329.605652 417.284913,325.315652 417.284913,320.530652 C417.284913,315.195652 417.504913,310.190652 418.054913,305.460652 C418.494913,301.115652 418.769913,298.860652 418.769913,298.640652 C418.769913,297.375652 418.384913,296.275652 417.724913,295.285652 C416.844913,294.240652 415.799913,293.690652 414.479913,293.690652 C413.709913,293.690652 407.549913,294.240652 395.889913,295.285652 C393.964913,295.450652 393.029913,296.165652 393.029913,297.485652 C393.029913,298.200652 393.084913,299.630652 393.249913,301.720652 C393.029913,307.275652 392.589913,313.545652 391.874913,320.530652 C391.599913,323.115652 391.489913,324.930652 391.489913,325.920652 C391.489913,326.855652 391.709913,327.735652 392.149913,328.560652 C392.699913,329.550652 393.359913,330.045652 394.129913,330.045652 C395.559913,330.045652 396.329913,329.165652 396.329913,327.405652 C396.329913,323.445652 396.879913,314.315652 398.034913,300.125652 C400.674913,299.465652 405.899913,298.860652 413.654913,298.365652 C412.939913,313.105652 412.609913,320.915652 412.609913,321.795652 C412.609913,325.645652 412.829913,329.385652 413.324913,332.960652 C413.654913,335.710652 414.589913,337.140652 416.129913,337.140652 C416.624913,337.140652 417.229913,336.865652 417.889913,336.315652 C418.439913,335.765652 418.769913,335.160652 418.769913,334.610652 L418.769913,334.610652 Z M444.714741,319.815652 C444.714741,317.670652 444.109741,315.690652 442.899741,313.930652 C441.634741,312.225652 440.039741,311.015652 438.114741,310.355652 C437.344741,310.135652 436.904741,310.025652 436.794741,310.025652 C436.354741,310.025652 435.859741,310.300652 435.199741,310.740652 C434.429741,311.180652 433.824741,311.510652 433.384741,311.675652 C431.514741,312.610652 429.974741,314.260652 428.874741,316.570652 C427.774741,318.660652 427.279741,320.915652 427.279741,323.280652 C427.279741,326.085652 427.994741,328.395652 429.534741,330.210652 C431.074741,331.970652 432.999741,332.905652 435.309741,332.905652 C437.949741,332.905652 440.204741,331.695652 442.019741,329.165652 C443.779741,326.635652 444.714741,323.555652 444.714741,319.815652 L444.714741,319.815652 Z M440.369741,320.640652 C440.369741,322.510652 439.819741,324.215652 438.829741,325.810652 C437.729741,327.460652 436.574741,328.285652 435.254741,328.285652 C434.154741,328.285652 433.274741,327.790652 432.614741,326.745652 C431.899741,325.755652 431.569741,324.600652 431.569741,323.280652 C431.569741,321.520652 431.954741,319.870652 432.834741,318.330652 C433.824741,316.570652 435.089741,315.635652 436.629741,315.635652 C437.179741,315.965652 437.894741,316.130652 438.774741,316.130652 C439.819741,316.790652 440.369741,318.330652 440.369741,320.640652 L440.369741,320.640652 Z M476.929568,332.025652 C476.929568,331.860652 476.819568,331.585652 476.599568,331.255652 C475.939568,330.045652 475.169568,329.440652 474.399568,329.440652 C474.289568,329.440652 474.124568,329.495652 473.849568,329.495652 C474.124568,322.675652 474.344568,317.725652 474.564568,314.590652 C474.674568,312.995652 475.004568,311.400652 475.609568,309.750652 C475.609568,309.200652 475.279568,308.595652 474.729568,308.045652 C474.179568,307.495652 473.629568,307.220652 473.079568,307.220652 C471.649568,307.220652 469.944568,307.550652 467.909568,308.100652 C465.489568,308.815652 463.894568,309.365652 463.124568,309.695652 C461.914568,310.355652 461.364568,311.180652 461.364568,312.115652 C461.364568,312.390652 461.474568,312.775652 461.749568,313.325652 C461.914568,313.875652 462.024568,314.260652 462.024568,314.480652 C462.024568,316.900652 461.419568,319.650652 460.209568,322.840652 C458.889568,326.195652 457.404568,328.835652 455.644568,330.760652 C453.939568,330.870652 453.059568,331.640652 452.949568,333.070652 C452.729568,335.215652 452.674568,337.085652 452.674568,338.625652 C452.674568,339.120652 452.894568,339.615652 453.334568,340.055652 C453.774568,340.495652 454.379568,340.770652 455.039568,340.770652 C456.304568,340.770652 456.964568,340.110652 456.964568,338.845652 C456.964568,338.625652 456.909568,338.350652 456.854568,337.965652 C456.744568,337.580652 456.744568,337.305652 456.744568,337.195652 C456.744568,336.975652 456.744568,336.755652 456.799568,336.425652 L456.799568,335.600652 C456.799568,335.160652 457.184568,334.885652 458.064568,334.830652 C461.309568,334.445652 464.279568,334.170652 466.919568,334.005652 C468.844568,333.840652 470.219568,333.785652 470.989568,333.785652 C471.649568,333.785652 472.034568,334.060652 472.034568,334.610652 C472.034568,334.775652 472.034568,335.380652 472.089568,336.480652 L472.089568,338.405652 C472.089568,339.945652 472.639568,340.770652 473.849568,340.770652 C474.289568,340.770652 474.839568,340.605652 475.444568,340.330652 C475.939568,340.000652 476.214568,339.560652 476.214568,339.120652 C476.214568,338.735652 476.159568,338.240652 476.104568,337.580652 C475.994568,336.920652 475.939568,336.370652 475.939568,336.040652 C475.939568,335.160652 475.994568,334.390652 476.214568,333.785652 C476.214568,333.675652 476.324568,333.400652 476.544568,332.960652 C476.764568,332.465652 476.929568,332.135652 476.929568,332.025652 L476.929568,332.025652 Z M470.494568,311.895652 C470.494568,319.375652 470.164568,325.425652 469.504568,329.990652 C465.214568,330.265652 462.299568,330.485652 460.704568,330.705652 C463.399568,326.415652 465.269568,320.475652 466.314568,312.995652 C467.194568,312.555652 468.624568,312.170652 470.494568,311.895652 L470.494568,311.895652 Z M526.894223,310.245652 C526.894223,309.585652 526.619223,309.035652 526.124223,308.595652 C525.629223,308.210652 525.079223,307.990652 524.529223,307.990652 C524.034223,307.990652 523.209223,308.155652 522.054223,308.375652 C518.204223,309.145652 513.859223,309.585652 508.964223,309.640652 C508.469223,309.640652 508.029223,309.860652 507.644223,310.300652 C507.204223,310.740652 507.039223,311.290652 507.039223,311.840652 C507.039223,312.940652 507.864223,313.655652 509.514223,313.985652 C509.019223,319.320652 508.194223,324.820652 506.984223,330.540652 C506.654223,332.190652 506.489223,333.290652 506.489223,333.950652 C506.489223,335.435652 507.149223,336.205652 508.524223,336.205652 C510.174223,336.205652 511.109223,335.325652 511.329223,333.620652 C511.769223,329.055652 512.759223,322.400652 514.189223,313.710652 C516.334223,313.435652 517.764223,313.215652 518.479223,313.105652 C520.129223,312.995652 521.779223,312.885652 523.429223,312.720652 C525.739223,312.390652 526.894223,311.565652 526.894223,310.245652 L526.894223,310.245652 Z M555.864051,312.445652 C555.864051,311.620652 555.589051,310.905652 555.039051,310.245652 C554.544051,309.640652 553.939051,309.310652 553.169051,309.310652 C552.839051,309.310652 552.179051,309.640652 551.189051,310.190652 C550.199051,310.795652 547.779051,311.290652 543.874051,311.730652 C542.994051,311.015652 542.279051,310.630652 541.784051,310.630652 C541.179051,310.630652 540.519051,310.960652 539.859051,311.620652 C539.199051,312.280652 538.869051,312.995652 538.869051,313.655652 C538.869051,314.095652 539.089051,314.645652 539.529051,315.250652 C539.914051,315.910652 540.134051,316.625652 540.134051,317.450652 C540.134051,320.860652 539.859051,323.665652 539.309051,325.975652 C538.594051,328.670652 537.659051,329.990652 536.559051,329.990652 C536.119051,329.990652 535.789051,329.330652 535.679051,327.900652 C535.569051,327.350652 535.349051,327.020652 534.909051,327.020652 C534.139051,327.020652 533.589051,327.405652 533.204051,328.065652 C532.709051,328.835652 532.489051,329.715652 532.489051,330.650652 C532.489051,331.695652 532.874051,332.465652 533.699051,333.070652 C534.469051,333.620652 535.349051,333.950652 536.339051,333.950652 C539.199051,333.950652 541.234051,332.080652 542.444051,328.450652 C543.214051,326.140652 543.874051,321.960652 544.424051,315.910652 C545.799051,315.580652 547.889051,315.140652 550.749051,314.645652 C550.199051,320.035652 549.924051,324.105652 549.924051,326.855652 C549.924051,330.485652 550.144051,332.740652 550.639051,333.675652 C551.134051,334.610652 551.849051,335.105652 552.729051,335.105652 C554.159051,335.105652 554.874051,334.225652 554.874051,332.575652 C554.654051,331.585652 554.544051,330.705652 554.434051,329.935652 C554.159051,328.065652 554.049051,326.470652 554.049051,325.095652 C554.049051,322.125652 554.489051,318.660652 555.424051,314.700652 C555.699051,313.380652 555.864051,312.665652 555.864051,312.445652 L555.864051,312.445652 Z M584.283879,319.155652 C584.283879,318.660652 584.008879,318.110652 583.568879,317.560652 C583.568879,316.295652 583.348879,315.195652 583.018879,314.205652 C583.073879,313.985652 583.128879,313.710652 583.128879,313.435652 C583.128879,312.775652 582.743879,312.115652 582.083879,311.565652 C581.368879,311.015652 580.653879,310.685652 579.938879,310.685652 C576.913879,310.685652 573.613879,312.445652 569.983879,315.855652 C566.188879,319.375652 564.318879,322.785652 564.318879,325.975652 C564.318879,327.680652 564.868879,329.165652 566.078879,330.485652 C567.233879,331.860652 568.608879,332.520652 570.203879,332.520652 C572.678879,332.520652 575.428879,330.980652 578.508879,327.900652 C578.783879,332.080652 579.718879,334.225652 581.313879,334.225652 C581.863879,334.225652 582.413879,334.005652 582.908879,333.675652 C583.348879,333.235652 583.623879,332.685652 583.623879,332.135652 C583.623879,331.970652 583.458879,331.310652 583.238879,329.990652 C582.963879,328.725652 582.853879,327.735652 582.853879,327.075652 C582.853879,324.875652 583.183879,322.675652 583.953879,320.365652 C584.173879,319.760652 584.283879,319.375652 584.283879,319.155652 L584.283879,319.155652 Z M579.278879,317.560652 C579.278879,319.430652 578.178879,321.630652 576.088879,324.160652 C573.998879,326.690652 572.073879,327.900652 570.423879,327.900652 C569.268879,327.900652 568.718879,327.240652 568.718879,325.865652 C568.718879,324.105652 570.093879,321.905652 572.898879,319.210652 C575.428879,316.790652 577.243879,315.525652 578.288879,315.525652 C578.948879,315.525652 579.278879,316.240652 579.278879,317.560652 L579.278879,317.560652 Z M610.008706,325.535652 C610.008706,322.235652 608.358706,320.035652 605.113706,319.045652 C607.478706,317.725652 608.688706,316.075652 608.688706,314.040652 C608.688706,310.630652 605.993706,308.925652 600.713706,308.925652 C596.148706,308.925652 593.893706,309.915652 593.893706,311.895652 C593.893706,313.325652 594.553706,314.040652 595.873706,314.095652 C596.203706,314.040652 597.028706,313.765652 598.348706,313.215652 C599.228706,312.885652 600.053706,312.665652 600.713706,312.665652 C603.243706,312.665652 604.508706,313.270652 604.508706,314.480652 C604.508706,315.250652 603.848706,316.075652 602.528706,316.845652 C601.318706,317.505652 599.943706,318.000652 598.348706,318.330652 C596.368706,318.770652 595.323706,318.990652 595.158706,319.045652 C594.498706,319.320652 594.223706,319.870652 594.223706,320.640652 C594.223706,321.190652 594.388706,321.795652 594.828706,322.345652 C595.213706,322.950652 595.708706,323.225652 596.258706,323.225652 C596.533706,323.225652 596.918706,323.115652 597.413706,322.785652 C598.403706,322.235652 599.558706,321.905652 600.823706,321.905652 C602.088706,321.905652 603.188706,322.125652 604.178706,322.565652 C605.388706,323.115652 605.993706,323.940652 605.993706,325.040652 C605.993706,326.360652 604.948706,327.680652 602.968706,328.945652 C601.098706,330.210652 599.503706,330.815652 598.183706,330.815652 C596.643706,330.815652 595.928706,330.595652 595.928706,330.155652 C595.928706,329.935652 595.983706,329.605652 596.148706,329.275652 C596.258706,328.890652 596.313706,328.615652 596.313706,328.505652 C596.313706,327.515652 595.653706,327.020652 594.388706,327.020652 C593.948706,327.020652 593.453706,327.405652 592.958706,328.065652 C592.408706,328.835652 592.188706,329.495652 592.188706,330.045652 C592.188706,330.815652 592.463706,331.640652 593.123706,332.520652 C594.113706,333.950652 595.928706,334.665652 598.513706,334.665652 C601.043706,334.665652 603.573706,333.730652 606.048706,331.970652 C608.688706,330.100652 610.008706,327.955652 610.008706,325.535652 L610.008706,325.535652 Z M637.878534,319.155652 C637.878534,318.660652 637.603534,318.110652 637.163534,317.560652 C637.163534,316.295652 636.943534,315.195652 636.613534,314.205652 C636.668534,313.985652 636.723534,313.710652 636.723534,313.435652 C636.723534,312.775652 636.338534,312.115652 635.678534,311.565652 C634.963534,311.015652 634.248534,310.685652 633.533534,310.685652 C630.508534,310.685652 627.208534,312.445652 623.578534,315.855652 C619.783534,319.375652 617.913534,322.785652 617.913534,325.975652 C617.913534,327.680652 618.463534,329.165652 619.673534,330.485652 C620.828534,331.860652 622.203534,332.520652 623.798534,332.520652 C626.273534,332.520652 629.023534,330.980652 632.103534,327.900652 C632.378534,332.080652 633.313534,334.225652 634.908534,334.225652 C635.458534,334.225652 636.008534,334.005652 636.503534,333.675652 C636.943534,333.235652 637.218534,332.685652 637.218534,332.135652 C637.218534,331.970652 637.053534,331.310652 636.833534,329.990652 C636.558534,328.725652 636.448534,327.735652 636.448534,327.075652 C636.448534,324.875652 636.778534,322.675652 637.548534,320.365652 C637.768534,319.760652 637.878534,319.375652 637.878534,319.155652 L637.878534,319.155652 Z M632.873534,317.560652 C632.873534,319.430652 631.773534,321.630652 629.683534,324.160652 C627.593534,326.690652 625.668534,327.900652 624.018534,327.900652 C622.863534,327.900652 622.313534,327.240652 622.313534,325.865652 C622.313534,324.105652 623.688534,321.905652 626.493534,319.210652 C629.023534,316.790652 630.838534,315.525652 631.883534,315.525652 C632.543534,315.525652 632.873534,316.240652 632.873534,317.560652 L632.873534,317.560652 Z M670.368362,334.170652 C670.368362,333.675652 670.203362,333.125652 669.873362,332.465652 C669.543362,331.805652 669.158362,331.365652 668.773362,331.035652 C667.893362,329.165652 667.123362,325.755652 666.463362,320.860652 C666.023362,318.330652 665.693362,315.525652 665.363362,312.555652 C665.198362,311.400652 664.538362,310.795652 663.383362,310.795652 C662.338362,310.795652 660.963362,313.050652 659.258362,317.560652 C658.653362,319.100652 658.158362,320.420652 657.718362,321.630652 C656.233362,319.430652 654.913362,316.130652 653.703362,311.620652 C653.263362,309.970652 652.603362,309.145652 651.778362,309.145652 C650.733362,309.145652 649.798362,310.410652 648.973362,312.885652 C648.808362,312.885652 648.588362,312.830652 648.313362,312.830652 C647.928362,312.830652 647.598362,312.995652 647.378362,313.270652 C647.048362,313.600652 646.883362,313.985652 646.883362,314.370652 C646.883362,314.480652 646.883362,314.810652 646.938362,315.360652 C646.938362,315.965652 646.993362,316.295652 646.993362,316.405652 C646.993362,317.395652 646.883362,318.770652 646.663362,320.640652 C646.443362,322.510652 646.333362,324.600652 646.333362,326.855652 C646.333362,330.540652 647.048362,332.355652 648.533362,332.355652 C649.633362,332.355652 650.183362,331.145652 650.293362,328.670652 C650.458362,323.830652 650.898362,319.815652 651.558362,316.625652 C654.473362,323.665652 656.783362,327.185652 658.433362,327.185652 C658.983362,327.185652 659.368362,326.965652 659.698362,326.415652 C659.973362,325.975652 660.303362,324.985652 660.743362,323.555652 C661.458362,321.135652 662.063362,319.210652 662.558362,317.890652 C663.108362,323.995652 663.878362,328.505652 664.923362,331.420652 C666.078362,334.775652 667.288362,336.480652 668.498362,336.480652 C668.938362,336.480652 669.378362,336.205652 669.763362,335.710652 C670.148362,335.160652 670.368362,334.665652 670.368362,334.170652 L670.368362,334.170652 Z M697.523189,332.245652 C697.523189,331.860652 697.248189,331.365652 696.753189,330.815652 C695.543189,329.495652 694.993189,326.140652 694.993189,320.750652 C694.993189,318.825652 695.268189,315.580652 695.873189,311.015652 C695.873189,310.410652 695.598189,309.860652 695.158189,309.310652 C694.663189,308.815652 694.113189,308.540652 693.508189,308.540652 C692.573189,308.540652 690.593189,310.575652 687.623189,314.645652 C685.203189,317.835652 683.223189,320.750652 681.573189,323.280652 C681.958189,318.990652 682.233189,315.855652 682.398189,313.985652 C682.398189,313.105652 682.068189,312.335652 681.518189,311.675652 C680.968189,311.070652 680.253189,310.740652 679.373189,310.740652 C678.878189,310.740652 678.438189,311.070652 677.998189,311.675652 C678.108189,313.270652 678.218189,314.205652 678.218189,314.425652 C678.218189,315.415652 678.053189,317.890652 677.778189,321.905652 L677.668189,323.500652 C677.613189,324.325652 677.503189,325.425652 677.393189,326.800652 C677.228189,328.120652 677.118189,328.945652 677.118189,329.275652 C677.173189,330.045652 677.393189,330.650652 677.833189,330.980652 C678.713189,331.860652 679.263189,332.245652 679.483189,332.245652 C680.253189,332.245652 681.188189,331.420652 682.178189,329.660652 C684.213189,326.250652 685.643189,323.830652 686.523189,322.510652 C687.953189,320.145652 689.493189,317.945652 691.198189,315.965652 C691.198189,316.515652 691.143189,317.670652 691.143189,319.375652 C691.088189,321.135652 691.088189,322.070652 691.088189,322.290652 C691.088189,325.150652 691.363189,327.570652 691.968189,329.660652 C692.793189,332.685652 694.003189,334.225652 695.543189,334.225652 C695.873189,334.225652 696.313189,333.950652 696.808189,333.510652 C697.248189,332.960652 697.523189,332.575652 697.523189,332.245652 L697.523189,332.245652 Z M745.067845,319.815652 C745.067845,317.670652 744.462845,315.690652 743.252845,313.930652 C741.987845,312.225652 740.392845,311.015652 738.467845,310.355652 C737.697845,310.135652 737.257845,310.025652 737.147845,310.025652 C736.707845,310.025652 736.212845,310.300652 735.552845,310.740652 C734.782845,311.180652 734.177845,311.510652 733.737845,311.675652 C731.867845,312.610652 730.327845,314.260652 729.227845,316.570652 C728.127845,318.660652 727.632845,320.915652 727.632845,323.280652 C727.632845,326.085652 728.347845,328.395652 729.887845,330.210652 C731.427845,331.970652 733.352845,332.905652 735.662845,332.905652 C738.302845,332.905652 740.557845,331.695652 742.372845,329.165652 C744.132845,326.635652 745.067845,323.555652 745.067845,319.815652 L745.067845,319.815652 Z M740.722845,320.640652 C740.722845,322.510652 740.172845,324.215652 739.182845,325.810652 C738.082845,327.460652 736.927845,328.285652 735.607845,328.285652 C734.507845,328.285652 733.627845,327.790652 732.967845,326.745652 C732.252845,325.755652 731.922845,324.600652 731.922845,323.280652 C731.922845,321.520652 732.307845,319.870652 733.187845,318.330652 C734.177845,316.570652 735.442845,315.635652 736.982845,315.635652 C737.532845,315.965652 738.247845,316.130652 739.127845,316.130652 C740.172845,316.790652 740.722845,318.330652 740.722845,320.640652 L740.722845,320.640652 Z M775.687672,309.035652 C775.687672,308.485652 775.467672,307.935652 775.082672,307.440652 C774.697672,307.000652 774.257672,306.725652 773.762672,306.725652 C772.937672,306.725652 771.782672,306.945652 770.242672,307.275652 C764.192672,308.705652 758.802672,309.970652 754.182672,311.070652 C753.852672,311.180652 753.632672,311.180652 753.522672,311.180652 C752.422672,311.400652 751.872672,312.225652 751.872672,313.600652 C751.872672,315.140652 752.477672,315.855652 753.797672,315.855652 C755.392672,315.525652 756.657672,315.250652 757.537672,314.975652 C759.132672,314.645652 760.507672,314.315652 761.662672,314.095652 C761.442672,318.330652 761.332672,322.400652 761.332672,326.250652 C761.332672,329.990652 761.552672,332.575652 761.992672,334.005652 C762.322672,334.995652 762.982672,335.490652 764.082672,335.490652 C765.512672,335.490652 766.227672,334.170652 766.227672,331.585652 C766.227672,330.320652 765.952672,329.385652 765.512672,328.780652 C765.402672,327.405652 765.347672,325.260652 765.347672,322.290652 C765.347672,319.980652 765.512672,316.845652 765.952672,312.940652 C767.547672,312.555652 768.647672,312.280652 769.307672,312.170652 C769.802672,312.500652 770.187672,312.610652 770.462672,312.610652 C770.792672,312.610652 771.177672,312.555652 771.672672,312.335652 L774.202672,311.180652 C775.192672,310.740652 775.687672,310.025652 775.687672,309.035652 L775.687672,309.035652 Z M803.7225,330.925652 C803.7225,330.375652 803.5025,329.825652 803.0625,329.275652 C802.6225,328.835652 802.0725,328.560652 801.5225,328.560652 C801.0825,328.560652 800.3675,328.670652 799.4325,328.780652 C798.4975,328.890652 797.7825,328.945652 797.3425,328.945652 C795.6925,328.945652 794.2625,328.175652 792.9425,326.580652 C798.4425,323.610652 801.1925,320.090652 801.1925,316.020652 C801.1925,314.480652 800.5325,312.995652 799.2125,311.675652 C797.8925,310.355652 796.5725,309.695652 795.1975,309.695652 C792.8325,309.695652 790.9075,311.070652 789.3675,313.765652 C788.0475,316.075652 787.3875,318.550652 787.3875,321.190652 C787.3875,321.740652 787.4425,322.510652 787.6075,323.445652 L786.3425,323.445652 C785.5725,323.445652 784.8575,323.170652 784.0875,322.620652 C783.3175,322.070652 782.7675,321.795652 782.4375,321.795652 C781.0075,321.795652 780.2925,322.565652 780.2925,324.105652 C780.2925,325.315652 781.1725,326.305652 783.0425,327.075652 C784.4725,327.680652 785.8475,327.955652 787.2775,327.955652 L788.9275,327.955652 C790.9075,331.750652 793.9875,333.620652 798.1675,333.620652 C801.8525,333.620652 803.7225,332.685652 803.7225,330.925652 L803.7225,330.925652 Z M796.8475,316.240652 C796.8475,318.055652 795.1975,320.035652 791.8975,322.180652 L791.8975,321.190652 C791.8975,319.705652 792.1175,318.275652 792.6675,316.900652 C793.2175,315.250652 793.9875,314.425652 794.9775,314.425652 C795.4175,314.425652 795.8575,314.645652 796.2975,314.975652 C796.6275,315.415652 796.8475,315.800652 796.8475,316.240652 L796.8475,316.240652 Z M829.447328,313.930652 C829.447328,313.490652 829.227328,312.995652 828.787328,312.500652 C828.347328,312.060652 827.852328,311.840652 827.412328,311.840652 C826.972328,311.840652 826.037328,312.170652 824.662328,312.830652 C822.352328,313.930652 819.437328,316.020652 816.027328,318.990652 C816.797328,315.800652 817.512328,313.270652 818.282328,311.455652 C818.722328,310.300652 818.942328,309.585652 818.942328,309.365652 C818.942328,307.935652 818.227328,307.220652 816.907328,307.220652 C816.027328,307.220652 815.367328,307.715652 814.927328,308.705652 C812.232328,315.305652 810.857328,322.565652 810.747328,330.430652 C810.637328,330.705652 810.637328,330.980652 810.637328,331.255652 C810.637328,331.915652 810.747328,332.520652 810.967328,333.125652 C811.297328,334.115652 812.067328,334.665652 813.167328,334.665652 C814.377328,334.665652 814.982328,333.950652 814.982328,332.575652 C814.982328,332.465652 814.927328,332.135652 814.927328,331.585652 C814.872328,331.035652 814.872328,330.650652 814.872328,330.320652 L814.872328,328.285652 C814.872328,327.515652 814.872328,326.635652 814.982328,325.645652 C815.367328,325.425652 815.587328,325.315652 815.642328,325.260652 C817.732328,328.065652 820.427328,330.540652 823.672328,332.685652 C824.662328,333.400652 825.432328,333.785652 825.982328,333.785652 C827.302328,333.785652 827.962328,333.070652 827.962328,331.695652 C827.962328,331.145652 827.467328,330.375652 826.587328,329.495652 C825.047328,328.120652 824.167328,327.405652 823.837328,327.405652 C823.727328,327.405652 823.562328,327.460652 823.452328,327.460652 C821.307328,325.755652 819.657328,324.105652 818.557328,322.510652 C821.197328,320.035652 823.397328,318.275652 825.212328,317.285652 C825.432328,317.395652 825.652328,317.450652 825.927328,317.450652 C826.642328,317.450652 827.412328,317.065652 828.182328,316.295652 C829.007328,315.580652 829.447328,314.810652 829.447328,313.930652 L829.447328,313.930652 Z M857.207155,332.245652 C857.207155,331.860652 856.932155,331.365652 856.437155,330.815652 C855.227155,329.495652 854.677155,326.140652 854.677155,320.750652 C854.677155,318.825652 854.952155,315.580652 855.557155,311.015652 C855.557155,310.410652 855.282155,309.860652 854.842155,309.310652 C854.347155,308.815652 853.797155,308.540652 853.192155,308.540652 C852.257155,308.540652 850.277155,310.575652 847.307155,314.645652 C844.887155,317.835652 842.907155,320.750652 841.257155,323.280652 C841.642155,318.990652 841.917155,315.855652 842.082155,313.985652 C842.082155,313.105652 841.752155,312.335652 841.202155,311.675652 C840.652155,311.070652 839.937155,310.740652 839.057155,310.740652 C838.562155,310.740652 838.122155,311.070652 837.682155,311.675652 C837.792155,313.270652 837.902155,314.205652 837.902155,314.425652 C837.902155,315.415652 837.737155,317.890652 837.462155,321.905652 L837.352155,323.500652 C837.297155,324.325652 837.187155,325.425652 837.077155,326.800652 C836.912155,328.120652 836.802155,328.945652 836.802155,329.275652 C836.857155,330.045652 837.077155,330.650652 837.517155,330.980652 C838.397155,331.860652 838.947155,332.245652 839.167155,332.245652 C839.937155,332.245652 840.872155,331.420652 841.862155,329.660652 C843.897155,326.250652 845.327155,323.830652 846.207155,322.510652 C847.637155,320.145652 849.177155,317.945652 850.882155,315.965652 C850.882155,316.515652 850.827155,317.670652 850.827155,319.375652 C850.772155,321.135652 850.772155,322.070652 850.772155,322.290652 C850.772155,325.150652 851.047155,327.570652 851.652155,329.660652 C852.477155,332.685652 853.687155,334.225652 855.227155,334.225652 C855.557155,334.225652 855.997155,333.950652 856.492155,333.510652 C856.932155,332.960652 857.207155,332.575652 857.207155,332.245652 L857.207155,332.245652 Z M907.336811,322.895652 L907.336811,319.210652 C907.336811,315.360652 906.456811,313.380652 904.751811,313.380652 C903.871811,313.380652 903.046811,314.150652 902.221811,315.580652 C900.516811,318.605652 899.196811,320.750652 898.206811,321.960652 C896.886811,323.610652 895.621811,324.435652 894.411811,324.435652 C893.531811,324.435652 893.146811,323.940652 893.146811,322.950652 C893.146811,322.070652 893.311811,320.365652 893.641811,317.835652 C893.971811,315.305652 894.191811,313.765652 894.191811,313.270652 C894.191811,311.950652 893.971811,310.740652 893.531811,309.750652 C893.036811,308.540652 892.321811,307.935652 891.441811,307.935652 C889.791811,307.935652 889.021811,308.650652 889.021811,310.025652 C889.021811,310.355652 889.076811,310.795652 889.296811,311.455652 C889.461811,312.115652 889.571811,312.555652 889.571811,312.885652 C889.571811,313.985652 889.406811,315.635652 889.131811,317.945652 C888.856811,320.255652 888.746811,322.015652 888.746811,323.115652 C888.746811,324.930652 889.241811,326.415652 890.286811,327.570652 C891.276811,328.780652 892.596811,329.330652 894.356811,329.330652 C897.161811,329.330652 900.021811,327.295652 902.936811,323.225652 C902.936811,325.095652 902.771811,326.855652 902.496811,328.560652 C901.176811,335.875652 896.336811,339.560652 887.921811,339.670652 C886.601811,339.505652 885.611811,339.395652 884.951811,339.340652 C883.576811,339.395652 882.861811,340.110652 882.861811,341.540652 C882.861811,343.520652 884.566811,344.565652 887.976811,344.565652 C893.366811,344.565652 897.711811,343.080652 901.121811,340.220652 C905.246811,336.700652 907.336811,330.980652 907.336811,322.895652 L907.336811,322.895652 Z M937.901638,309.035652 C937.901638,308.485652 937.681638,307.935652 937.296638,307.440652 C936.911638,307.000652 936.471638,306.725652 935.976638,306.725652 C935.151638,306.725652 933.996638,306.945652 932.456638,307.275652 C926.406638,308.705652 921.016638,309.970652 916.396638,311.070652 C916.066638,311.180652 915.846638,311.180652 915.736638,311.180652 C914.636638,311.400652 914.086638,312.225652 914.086638,313.600652 C914.086638,315.140652 914.691638,315.855652 916.011638,315.855652 C917.606638,315.525652 918.871638,315.250652 919.751638,314.975652 C921.346638,314.645652 922.721638,314.315652 923.876638,314.095652 C923.656638,318.330652 923.546638,322.400652 923.546638,326.250652 C923.546638,329.990652 923.766638,332.575652 924.206638,334.005652 C924.536638,334.995652 925.196638,335.490652 926.296638,335.490652 C927.726638,335.490652 928.441638,334.170652 928.441638,331.585652 C928.441638,330.320652 928.166638,329.385652 927.726638,328.780652 C927.616638,327.405652 927.561638,325.260652 927.561638,322.290652 C927.561638,319.980652 927.726638,316.845652 928.166638,312.940652 C929.761638,312.555652 930.861638,312.280652 931.521638,312.170652 C932.016638,312.500652 932.401638,312.610652 932.676638,312.610652 C933.006638,312.610652 933.391638,312.555652 933.886638,312.335652 L936.416638,311.180652 C937.406638,310.740652 937.901638,310.025652 937.901638,309.035652 L937.901638,309.035652 Z M964.011466,312.885652 C964.011466,310.245652 963.406466,308.045652 962.196466,306.285652 C960.876466,304.360652 958.951466,303.370652 956.531466,303.370652 C953.066466,303.370652 950.371466,305.790652 948.446466,310.630652 C947.126466,313.985652 946.466466,317.835652 946.466466,322.125652 C946.466466,322.675652 946.466466,323.115652 946.521466,323.390652 C944.981466,323.940652 944.266466,324.765652 944.266466,325.920652 C944.266466,327.350652 944.981466,328.120652 946.521466,328.230652 C946.631466,329.110652 946.686466,330.430652 946.686466,332.190652 C946.686466,335.710652 946.466466,338.185652 946.136466,339.725652 C945.751466,341.210652 945.586466,342.035652 945.586466,342.200652 C945.586466,342.805652 945.806466,343.355652 946.246466,343.850652 C946.686466,344.290652 947.236466,344.565652 947.841466,344.565652 C948.996466,344.565652 949.821466,343.410652 950.316466,341.155652 C950.866466,338.625652 951.141466,336.040652 951.141466,333.510652 C951.141466,331.200652 951.031466,328.945652 950.866466,326.745652 C959.611466,323.555652 964.011466,318.935652 964.011466,312.885652 L964.011466,312.885652 Z M959.611466,311.950652 C959.611466,316.460652 956.696466,319.760652 950.921466,321.850652 C950.921466,318.880652 951.416466,315.855652 952.461466,312.885652 C953.616466,309.640652 954.991466,307.990652 956.531466,307.990652 C957.466466,307.990652 958.236466,308.430652 958.841466,309.200652 C959.336466,309.970652 959.611466,310.905652 959.611466,311.950652 L959.611466,311.950652 Z M989.736294,319.815652 C989.736294,317.670652 989.131294,315.690652 987.921294,313.930652 C986.656294,312.225652 985.061294,311.015652 983.136294,310.355652 C982.366294,310.135652 981.926294,310.025652 981.816294,310.025652 C981.376294,310.025652 980.881294,310.300652 980.221294,310.740652 C979.451294,311.180652 978.846294,311.510652 978.406294,311.675652 C976.536294,312.610652 974.996294,314.260652 973.896294,316.570652 C972.796294,318.660652 972.301294,320.915652 972.301294,323.280652 C972.301294,326.085652 973.016294,328.395652 974.556294,330.210652 C976.096294,331.970652 978.021294,332.905652 980.331294,332.905652 C982.971294,332.905652 985.226294,331.695652 987.041294,329.165652 C988.801294,326.635652 989.736294,323.555652 989.736294,319.815652 L989.736294,319.815652 Z M985.391294,320.640652 C985.391294,322.510652 984.841294,324.215652 983.851294,325.810652 C982.751294,327.460652 981.596294,328.285652 980.276294,328.285652 C979.176294,328.285652 978.296294,327.790652 977.636294,326.745652 C976.921294,325.755652 976.591294,324.600652 976.591294,323.280652 C976.591294,321.520652 976.976294,319.870652 977.856294,318.330652 C978.846294,316.570652 980.111294,315.635652 981.651294,315.635652 C982.201294,315.965652 982.916294,316.130652 983.796294,316.130652 C984.841294,316.790652 985.391294,318.330652 985.391294,320.640652 L985.391294,320.640652 Z M1022.28112,334.170652 C1022.28112,333.675652 1022.11612,333.125652 1021.78612,332.465652 C1021.45612,331.805652 1021.07112,331.365652 1020.68612,331.035652 C1019.80612,329.165652 1019.03612,325.755652 1018.37612,320.860652 C1017.93612,318.330652 1017.60612,315.525652 1017.27612,312.555652 C1017.11112,311.400652 1016.45112,310.795652 1015.29612,310.795652 C1014.25112,310.795652 1012.87612,313.050652 1011.17112,317.560652 C1010.56612,319.100652 1010.07112,320.420652 1009.63112,321.630652 C1008.14612,319.430652 1006.82612,316.130652 1005.61612,311.620652 C1005.17612,309.970652 1004.51612,309.145652 1003.69112,309.145652 C1002.64612,309.145652 1001.71112,310.410652 1000.88612,312.885652 C1000.72112,312.885652 1000.50112,312.830652 1000.22612,312.830652 C999.841121,312.830652 999.511121,312.995652 999.291121,313.270652 C998.961121,313.600652 998.796121,313.985652 998.796121,314.370652 C998.796121,314.480652 998.796121,314.810652 998.851121,315.360652 C998.851121,315.965652 998.906121,316.295652 998.906121,316.405652 C998.906121,317.395652 998.796121,318.770652 998.576121,320.640652 C998.356121,322.510652 998.246121,324.600652 998.246121,326.855652 C998.246121,330.540652 998.961121,332.355652 1000.44612,332.355652 C1001.54612,332.355652 1002.09612,331.145652 1002.20612,328.670652 C1002.37112,323.830652 1002.81112,319.815652 1003.47112,316.625652 C1006.38612,323.665652 1008.69612,327.185652 1010.34612,327.185652 C1010.89612,327.185652 1011.28112,326.965652 1011.61112,326.415652 C1011.88612,325.975652 1012.21612,324.985652 1012.65612,323.555652 C1013.37112,321.135652 1013.97612,319.210652 1014.47112,317.890652 C1015.02112,323.995652 1015.79112,328.505652 1016.83612,331.420652 C1017.99112,334.775652 1019.20112,336.480652 1020.41112,336.480652 C1020.85112,336.480652 1021.29112,336.205652 1021.67612,335.710652 C1022.06112,335.160652 1022.28112,334.665652 1022.28112,334.170652 L1022.28112,334.170652 Z M1037.11595,330.430652 C1037.11595,328.835652 1036.29095,328.010652 1034.69595,328.010652 C1032.60595,328.010652 1031.39595,329.935652 1031.06595,333.730652 C1029.63595,336.315652 1027.98595,338.625652 1026.17095,340.660652 C1025.73095,341.155652 1025.51095,341.760652 1025.51095,342.420652 C1025.51095,343.850652 1026.17095,344.565652 1027.43595,344.565652 C1028.15095,344.565652 1028.75595,344.290652 1029.30595,343.740652 C1030.90095,342.035652 1032.44095,340.000652 1033.92595,337.635652 C1036.01595,334.115652 1037.11595,331.750652 1037.11595,330.430652 L1037.11595,330.430652 Z M1088.1806,313.930652 C1088.1806,313.490652 1087.9606,312.995652 1087.5206,312.500652 C1087.0806,312.060652 1086.5856,311.840652 1086.1456,311.840652 C1085.7056,311.840652 1084.7706,312.170652 1083.3956,312.830652 C1081.0856,313.930652 1078.1706,316.020652 1074.7606,318.990652 C1075.5306,315.800652 1076.2456,313.270652 1077.0156,311.455652 C1077.4556,310.300652 1077.6756,309.585652 1077.6756,309.365652 C1077.6756,307.935652 1076.9606,307.220652 1075.6406,307.220652 C1074.7606,307.220652 1074.1006,307.715652 1073.6606,308.705652 C1070.9656,315.305652 1069.5906,322.565652 1069.4806,330.430652 C1069.3706,330.705652 1069.3706,330.980652 1069.3706,331.255652 C1069.3706,331.915652 1069.4806,332.520652 1069.7006,333.125652 C1070.0306,334.115652 1070.8006,334.665652 1071.9006,334.665652 C1073.1106,334.665652 1073.7156,333.950652 1073.7156,332.575652 C1073.7156,332.465652 1073.6606,332.135652 1073.6606,331.585652 C1073.6056,331.035652 1073.6056,330.650652 1073.6056,330.320652 L1073.6056,328.285652 C1073.6056,327.515652 1073.6056,326.635652 1073.7156,325.645652 C1074.1006,325.425652 1074.3206,325.315652 1074.3756,325.260652 C1076.4656,328.065652 1079.1606,330.540652 1082.4056,332.685652 C1083.3956,333.400652 1084.1656,333.785652 1084.7156,333.785652 C1086.0356,333.785652 1086.6956,333.070652 1086.6956,331.695652 C1086.6956,331.145652 1086.2006,330.375652 1085.3206,329.495652 C1083.7806,328.120652 1082.9006,327.405652 1082.5706,327.405652 C1082.4606,327.405652 1082.2956,327.460652 1082.1856,327.460652 C1080.0406,325.755652 1078.3906,324.105652 1077.2906,322.510652 C1079.9306,320.035652 1082.1306,318.275652 1083.9456,317.285652 C1084.1656,317.395652 1084.3856,317.450652 1084.6606,317.450652 C1085.3756,317.450652 1086.1456,317.065652 1086.9156,316.295652 C1087.7406,315.580652 1088.1806,314.810652 1088.1806,313.930652 L1088.1806,313.930652 Z M1115.50043,319.155652 C1115.50043,318.660652 1115.22543,318.110652 1114.78543,317.560652 C1114.78543,316.295652 1114.56543,315.195652 1114.23543,314.205652 C1114.29043,313.985652 1114.34543,313.710652 1114.34543,313.435652 C1114.34543,312.775652 1113.96043,312.115652 1113.30043,311.565652 C1112.58543,311.015652 1111.87043,310.685652 1111.15543,310.685652 C1108.13043,310.685652 1104.83043,312.445652 1101.20043,315.855652 C1097.40543,319.375652 1095.53543,322.785652 1095.53543,325.975652 C1095.53543,327.680652 1096.08543,329.165652 1097.29543,330.485652 C1098.45043,331.860652 1099.82543,332.520652 1101.42043,332.520652 C1103.89543,332.520652 1106.64543,330.980652 1109.72543,327.900652 C1110.00043,332.080652 1110.93543,334.225652 1112.53043,334.225652 C1113.08043,334.225652 1113.63043,334.005652 1114.12543,333.675652 C1114.56543,333.235652 1114.84043,332.685652 1114.84043,332.135652 C1114.84043,331.970652 1114.67543,331.310652 1114.45543,329.990652 C1114.18043,328.725652 1114.07043,327.735652 1114.07043,327.075652 C1114.07043,324.875652 1114.40043,322.675652 1115.17043,320.365652 C1115.39043,319.760652 1115.50043,319.375652 1115.50043,319.155652 L1115.50043,319.155652 Z M1110.49543,317.560652 C1110.49543,319.430652 1109.39543,321.630652 1107.30543,324.160652 C1105.21543,326.690652 1103.29043,327.900652 1101.64043,327.900652 C1100.48543,327.900652 1099.93543,327.240652 1099.93543,325.865652 C1099.93543,324.105652 1101.31043,321.905652 1104.11543,319.210652 C1106.64543,316.790652 1108.46043,315.525652 1109.50543,315.525652 C1110.16543,315.525652 1110.49543,316.240652 1110.49543,317.560652 L1110.49543,317.560652 Z M1142.76526,313.930652 C1142.76526,313.490652 1142.54526,312.995652 1142.10526,312.500652 C1141.66526,312.060652 1141.17026,311.840652 1140.73026,311.840652 C1140.29026,311.840652 1139.35526,312.170652 1137.98026,312.830652 C1135.67026,313.930652 1132.75526,316.020652 1129.34526,318.990652 C1130.11526,315.800652 1130.83026,313.270652 1131.60026,311.455652 C1132.04026,310.300652 1132.26026,309.585652 1132.26026,309.365652 C1132.26026,307.935652 1131.54526,307.220652 1130.22526,307.220652 C1129.34526,307.220652 1128.68526,307.715652 1128.24526,308.705652 C1125.55026,315.305652 1124.17526,322.565652 1124.06526,330.430652 C1123.95526,330.705652 1123.95526,330.980652 1123.95526,331.255652 C1123.95526,331.915652 1124.06526,332.520652 1124.28526,333.125652 C1124.61526,334.115652 1125.38526,334.665652 1126.48526,334.665652 C1127.69526,334.665652 1128.30026,333.950652 1128.30026,332.575652 C1128.30026,332.465652 1128.24526,332.135652 1128.24526,331.585652 C1128.19026,331.035652 1128.19026,330.650652 1128.19026,330.320652 L1128.19026,328.285652 C1128.19026,327.515652 1128.19026,326.635652 1128.30026,325.645652 C1128.68526,325.425652 1128.90526,325.315652 1128.96026,325.260652 C1131.05026,328.065652 1133.74526,330.540652 1136.99026,332.685652 C1137.98026,333.400652 1138.75026,333.785652 1139.30026,333.785652 C1140.62026,333.785652 1141.28026,333.070652 1141.28026,331.695652 C1141.28026,331.145652 1140.78526,330.375652 1139.90526,329.495652 C1138.36526,328.120652 1137.48526,327.405652 1137.15526,327.405652 C1137.04526,327.405652 1136.88026,327.460652 1136.77026,327.460652 C1134.62526,325.755652 1132.97526,324.105652 1131.87526,322.510652 C1134.51526,320.035652 1136.71526,318.275652 1138.53026,317.285652 C1138.75026,317.395652 1138.97026,317.450652 1139.24526,317.450652 C1139.96026,317.450652 1140.73026,317.065652 1141.50026,316.295652 C1142.32526,315.580652 1142.76526,314.810652 1142.76526,313.930652 L1142.76526,313.930652 Z M491.61931,381.850652 C491.61931,378.825652 490.84931,376.350652 489.41931,374.425652 C487.76931,372.280652 485.51431,371.180652 482.59931,371.180652 C479.95931,371.180652 477.04431,372.555652 473.96431,375.250652 C474.84431,369.640652 478.58431,365.680652 485.29431,363.480652 C487.21931,362.820652 488.20931,361.885652 488.20931,360.565652 C488.20931,359.630652 487.87931,358.640652 487.32931,357.595652 C486.66931,356.605652 485.95431,356.055652 485.18431,356.055652 C484.46931,356.055652 484.08431,356.550652 484.02931,357.485652 C483.91931,358.585652 483.86431,359.135652 483.80931,359.245652 C483.64431,359.520652 483.09431,359.850652 482.15931,360.235652 C473.46931,363.755652 469.17931,370.300652 469.17931,379.925652 C469.17931,384.050652 470.00431,387.405652 471.76431,390.045652 C473.68931,392.795652 476.38431,394.225652 479.84931,394.225652 C482.92931,394.225652 485.62431,393.015652 488.04431,390.650652 C490.40931,388.230652 491.61931,385.315652 491.61931,381.850652 L491.61931,381.850652 Z M487.65931,380.585652 C487.65931,383.225652 486.88931,385.425652 485.40431,387.295652 C483.86431,389.165652 481.93931,390.100652 479.73931,390.100652 C477.97931,390.100652 476.49431,389.330652 475.39431,387.680652 C474.29431,386.030652 473.74431,383.995652 473.74431,381.520652 C473.74431,381.245652 473.74431,380.860652 473.79931,380.310652 C475.17431,380.145652 475.94431,379.540652 476.10931,378.550652 C478.63931,376.460652 480.94931,375.360652 482.92931,375.360652 C484.13931,375.360652 485.23931,375.910652 486.22931,376.900652 C487.16431,378.000652 487.65931,379.210652 487.65931,380.585652 L487.65931,380.585652 Z M520.094137,382.895652 L520.094137,379.210652 C520.094137,375.360652 519.214137,373.380652 517.509137,373.380652 C516.629137,373.380652 515.804137,374.150652 514.979137,375.580652 C513.274137,378.605652 511.954137,380.750652 510.964137,381.960652 C509.644137,383.610652 508.379137,384.435652 507.169137,384.435652 C506.289137,384.435652 505.904137,383.940652 505.904137,382.950652 C505.904137,382.070652 506.069137,380.365652 506.399137,377.835652 C506.729137,375.305652 506.949137,373.765652 506.949137,373.270652 C506.949137,371.950652 506.729137,370.740652 506.289137,369.750652 C505.794137,368.540652 505.079137,367.935652 504.199137,367.935652 C502.549137,367.935652 501.779137,368.650652 501.779137,370.025652 C501.779137,370.355652 501.834137,370.795652 502.054137,371.455652 C502.219137,372.115652 502.329137,372.555652 502.329137,372.885652 C502.329137,373.985652 502.164137,375.635652 501.889137,377.945652 C501.614137,380.255652 501.504137,382.015652 501.504137,383.115652 C501.504137,384.930652 501.999137,386.415652 503.044137,387.570652 C504.034137,388.780652 505.354137,389.330652 507.114137,389.330652 C509.919137,389.330652 512.779137,387.295652 515.694137,383.225652 C515.694137,385.095652 515.529137,386.855652 515.254137,388.560652 C513.934137,395.875652 509.094137,399.560652 500.679137,399.670652 C499.359137,399.505652 498.369137,399.395652 497.709137,399.340652 C496.334137,399.395652 495.619137,400.110652 495.619137,401.540652 C495.619137,403.520652 497.324137,404.565652 500.734137,404.565652 C506.124137,404.565652 510.469137,403.080652 513.879137,400.220652 C518.004137,396.700652 520.094137,390.980652 520.094137,382.895652 L520.094137,382.895652 Z M552.253965,392.025652 C552.253965,391.860652 552.143965,391.585652 551.923965,391.255652 C551.263965,390.045652 550.493965,389.440652 549.723965,389.440652 C549.613965,389.440652 549.448965,389.495652 549.173965,389.495652 C549.448965,382.675652 549.668965,377.725652 549.888965,374.590652 C549.998965,372.995652 550.328965,371.400652 550.933965,369.750652 C550.933965,369.200652 550.603965,368.595652 550.053965,368.045652 C549.503965,367.495652 548.953965,367.220652 548.403965,367.220652 C546.973965,367.220652 545.268965,367.550652 543.233965,368.100652 C540.813965,368.815652 539.218965,369.365652 538.448965,369.695652 C537.238965,370.355652 536.688965,371.180652 536.688965,372.115652 C536.688965,372.390652 536.798965,372.775652 537.073965,373.325652 C537.238965,373.875652 537.348965,374.260652 537.348965,374.480652 C537.348965,376.900652 536.743965,379.650652 535.533965,382.840652 C534.213965,386.195652 532.728965,388.835652 530.968965,390.760652 C529.263965,390.870652 528.383965,391.640652 528.273965,393.070652 C528.053965,395.215652 527.998965,397.085652 527.998965,398.625652 C527.998965,399.120652 528.218965,399.615652 528.658965,400.055652 C529.098965,400.495652 529.703965,400.770652 530.363965,400.770652 C531.628965,400.770652 532.288965,400.110652 532.288965,398.845652 C532.288965,398.625652 532.233965,398.350652 532.178965,397.965652 C532.068965,397.580652 532.068965,397.305652 532.068965,397.195652 C532.068965,396.975652 532.068965,396.755652 532.123965,396.425652 L532.123965,395.600652 C532.123965,395.160652 532.508965,394.885652 533.388965,394.830652 C536.633965,394.445652 539.603965,394.170652 542.243965,394.005652 C544.168965,393.840652 545.543965,393.785652 546.313965,393.785652 C546.973965,393.785652 547.358965,394.060652 547.358965,394.610652 C547.358965,394.775652 547.358965,395.380652 547.413965,396.480652 L547.413965,398.405652 C547.413965,399.945652 547.963965,400.770652 549.173965,400.770652 C549.613965,400.770652 550.163965,400.605652 550.768965,400.330652 C551.263965,400.000652 551.538965,399.560652 551.538965,399.120652 C551.538965,398.735652 551.483965,398.240652 551.428965,397.580652 C551.318965,396.920652 551.263965,396.370652 551.263965,396.040652 C551.263965,395.160652 551.318965,394.390652 551.538965,393.785652 C551.538965,393.675652 551.648965,393.400652 551.868965,392.960652 C552.088965,392.465652 552.253965,392.135652 552.253965,392.025652 L552.253965,392.025652 Z M545.818965,371.895652 C545.818965,379.375652 545.488965,385.425652 544.828965,389.990652 C540.538965,390.265652 537.623965,390.485652 536.028965,390.705652 C538.723965,386.415652 540.593965,380.475652 541.638965,372.995652 C542.518965,372.555652 543.948965,372.170652 545.818965,371.895652 L545.818965,371.895652 Z M582.268793,369.035652 C582.268793,368.485652 582.048793,367.935652 581.663793,367.440652 C581.278793,367.000652 580.838793,366.725652 580.343793,366.725652 C579.518793,366.725652 578.363793,366.945652 576.823793,367.275652 C570.773793,368.705652 565.383793,369.970652 560.763793,371.070652 C560.433793,371.180652 560.213793,371.180652 560.103793,371.180652 C559.003793,371.400652 558.453793,372.225652 558.453793,373.600652 C558.453793,375.140652 559.058793,375.855652 560.378793,375.855652 C561.973793,375.525652 563.238793,375.250652 564.118793,374.975652 C565.713793,374.645652 567.088793,374.315652 568.243793,374.095652 C568.023793,378.330652 567.913793,382.400652 567.913793,386.250652 C567.913793,389.990652 568.133793,392.575652 568.573793,394.005652 C568.903793,394.995652 569.563793,395.490652 570.663793,395.490652 C572.093793,395.490652 572.808793,394.170652 572.808793,391.585652 C572.808793,390.320652 572.533793,389.385652 572.093793,388.780652 C571.983793,387.405652 571.928793,385.260652 571.928793,382.290652 C571.928793,379.980652 572.093793,376.845652 572.533793,372.940652 C574.128793,372.555652 575.228793,372.280652 575.888793,372.170652 C576.383793,372.500652 576.768793,372.610652 577.043793,372.610652 C577.373793,372.610652 577.758793,372.555652 578.253793,372.335652 L580.783793,371.180652 C581.773793,370.740652 582.268793,370.025652 582.268793,369.035652 L582.268793,369.035652 Z M605.90362,379.815652 C605.90362,377.670652 605.29862,375.690652 604.08862,373.930652 C602.82362,372.225652 601.22862,371.015652 599.30362,370.355652 C598.53362,370.135652 598.09362,370.025652 597.98362,370.025652 C597.54362,370.025652 597.04862,370.300652 596.38862,370.740652 C595.61862,371.180652 595.01362,371.510652 594.57362,371.675652 C592.70362,372.610652 591.16362,374.260652 590.06362,376.570652 C588.96362,378.660652 588.46862,380.915652 588.46862,383.280652 C588.46862,386.085652 589.18362,388.395652 590.72362,390.210652 C592.26362,391.970652 594.18862,392.905652 596.49862,392.905652 C599.13862,392.905652 601.39362,391.695652 603.20862,389.165652 C604.96862,386.635652 605.90362,383.555652 605.90362,379.815652 L605.90362,379.815652 Z M601.55862,380.640652 C601.55862,382.510652 601.00862,384.215652 600.01862,385.810652 C598.91862,387.460652 597.76362,388.285652 596.44362,388.285652 C595.34362,388.285652 594.46362,387.790652 593.80362,386.745652 C593.08862,385.755652 592.75862,384.600652 592.75862,383.280652 C592.75862,381.520652 593.14362,379.870652 594.02362,378.330652 C595.01362,376.570652 596.27862,375.635652 597.81862,375.635652 C598.36862,375.965652 599.08362,376.130652 599.96362,376.130652 C601.00862,376.790652 601.55862,378.330652 601.55862,380.640652 L601.55862,380.640652 Z M657.958276,385.810652 C657.958276,382.675652 654.603276,380.970652 648.003276,380.695652 C653.063276,378.440652 655.593276,376.020652 655.593276,373.380652 C655.593276,371.675652 654.713276,370.355652 653.008276,369.420652 C651.633276,368.760652 649.983276,368.375652 648.058276,368.375652 C645.363276,368.375652 642.173276,368.540652 638.488276,368.870652 C636.838276,369.090652 636.068276,369.750652 636.068276,370.960652 C636.068276,372.280652 636.783276,372.885652 638.323276,372.885652 C638.598276,372.885652 639.038276,372.830652 639.643276,372.720652 C639.533276,384.875652 639.478276,391.145652 639.478276,391.475652 C637.553276,391.695652 636.618276,392.465652 636.618276,393.895652 C636.618276,394.885652 637.278276,395.435652 638.708276,395.600652 C639.863276,395.545652 641.568276,395.270652 643.823276,394.775652 C648.003276,393.785652 651.083276,392.795652 652.953276,391.915652 C656.253276,390.375652 657.958276,388.340652 657.958276,385.810652 L657.958276,385.810652 Z M651.358276,373.875652 C651.358276,375.470652 648.773276,377.175652 643.603276,378.990652 L643.713276,372.610652 C645.748276,372.445652 647.233276,372.335652 648.113276,372.335652 C650.258276,372.335652 651.358276,372.885652 651.358276,373.875652 L651.358276,373.875652 Z M653.833276,386.360652 C653.833276,387.185652 652.898276,388.010652 651.028276,388.780652 C649.158276,389.550652 646.628276,390.155652 643.493276,390.540652 L643.493276,383.610652 C647.123276,383.720652 649.653276,383.995652 651.193276,384.325652 C652.953276,384.765652 653.833276,385.425652 653.833276,386.360652 L653.833276,386.360652 Z M692.648103,370.025652 C692.648103,369.475652 692.483103,368.980652 692.153103,368.485652 C691.713103,367.990652 691.218103,367.715652 690.613103,367.715652 C689.568103,367.715652 688.688103,368.650652 687.973103,370.410652 C687.258103,372.280652 686.928103,373.600652 686.928103,374.370652 C686.928103,374.865652 687.203103,375.360652 687.753103,375.855652 L686.763103,383.500652 C686.103103,388.065652 685.828103,390.815652 685.828103,391.805652 C685.828103,394.115652 686.653103,395.325652 688.358103,395.325652 C688.963103,395.325652 689.458103,395.050652 689.843103,394.610652 C690.283103,394.115652 690.503103,393.565652 690.503103,392.960652 C690.503103,392.300652 690.338103,391.805652 690.063103,391.420652 C690.118103,389.220652 690.338103,386.965652 690.668103,384.710652 C690.998103,382.455652 691.383103,380.200652 691.713103,377.890652 C692.318103,373.820652 692.648103,371.180652 692.648103,370.025652 L692.648103,370.025652 Z M683.078103,385.260652 C683.078103,383.005652 682.308103,381.190652 680.823103,379.815652 C679.448103,378.550652 677.688103,377.890652 675.488103,377.890652 C674.278103,377.890652 673.068103,378.220652 671.858103,378.880652 C672.078103,376.845652 672.243103,375.030652 672.408103,373.490652 C672.683103,371.730652 672.848103,370.355652 672.958103,369.365652 C672.738103,367.770652 672.078103,366.945652 670.868103,366.945652 C669.438103,366.945652 668.668103,368.045652 668.503103,370.190652 C667.623103,378.880652 666.963103,386.250652 666.413103,392.300652 C666.468103,394.225652 667.183103,395.215652 668.613103,395.215652 C669.493103,395.215652 670.098103,394.830652 670.428103,394.115652 C671.033103,394.280652 671.583103,394.390652 672.133103,394.390652 C674.553103,394.390652 676.918103,393.510652 679.228103,391.805652 C681.758103,389.935652 683.078103,387.790652 683.078103,385.260652 L683.078103,385.260652 Z M678.898103,384.600652 C678.898103,386.250652 678.018103,387.735652 676.368103,389.000652 C674.828103,390.210652 673.343103,390.815652 671.913103,390.815652 C671.693103,390.815652 671.308103,390.760652 670.868103,390.650652 L671.363103,384.325652 C672.353103,382.675652 673.673103,381.795652 675.378103,381.795652 C676.258103,381.795652 677.028103,382.070652 677.798103,382.620652 C678.513103,383.170652 678.898103,383.830652 678.898103,384.600652 L678.898103,384.600652 Z M720.517931,371.345652 C720.517931,370.740652 720.242931,370.190652 719.692931,369.750652 C719.087931,369.365652 718.482931,369.145652 717.877931,369.035652 C712.267931,369.475652 707.812931,369.860652 704.622931,370.080652 C702.697931,370.245652 701.762931,370.905652 701.762931,372.115652 C701.762931,372.885652 701.872931,373.545652 702.202931,374.150652 C701.817931,379.815652 701.652931,382.675652 701.652931,382.785652 C701.267931,386.745652 701.102931,388.725652 701.102931,388.725652 C701.102931,389.440652 701.322931,390.155652 701.817931,390.870652 C702.312931,391.585652 702.862931,391.915652 703.522931,391.915652 C704.622931,391.915652 705.172931,391.200652 705.282931,389.715652 C705.612931,383.775652 705.942931,378.660652 706.382931,374.370652 C709.187931,373.985652 712.102931,373.710652 715.127931,373.600652 C715.127931,373.765652 715.017931,376.460652 714.852931,381.630652 C714.632931,386.250652 714.577931,388.725652 714.577931,389.055652 C714.577931,392.630652 715.512931,394.445652 717.492931,394.445652 C718.537931,394.445652 719.087931,393.840652 719.087931,392.740652 C718.757931,391.090652 718.647931,389.550652 718.647931,388.230652 C718.647931,386.470652 718.757931,383.665652 718.977931,379.815652 C719.032931,379.210652 719.142931,378.330652 719.307931,377.120652 C719.417931,376.130652 719.472931,375.580652 719.472931,375.360652 C719.472931,375.030652 719.362931,374.535652 719.252931,373.875652 C720.077931,372.995652 720.517931,372.170652 720.517931,371.345652 L720.517931,371.345652 Z M749.432759,392.245652 C749.432759,391.860652 749.157759,391.365652 748.662759,390.815652 C747.452759,389.495652 746.902759,386.140652 746.902759,380.750652 C746.902759,378.825652 747.177759,375.580652 747.782759,371.015652 C747.782759,370.410652 747.507759,369.860652 747.067759,369.310652 C746.572759,368.815652 746.022759,368.540652 745.417759,368.540652 C744.482759,368.540652 742.502759,370.575652 739.532759,374.645652 C737.112759,377.835652 735.132759,380.750652 733.482759,383.280652 C733.867759,378.990652 734.142759,375.855652 734.307759,373.985652 C734.307759,373.105652 733.977759,372.335652 733.427759,371.675652 C732.877759,371.070652 732.162759,370.740652 731.282759,370.740652 C730.787759,370.740652 730.347759,371.070652 729.907759,371.675652 C730.017759,373.270652 730.127759,374.205652 730.127759,374.425652 C730.127759,375.415652 729.962759,377.890652 729.687759,381.905652 L729.577759,383.500652 C729.522759,384.325652 729.412759,385.425652 729.302759,386.800652 C729.137759,388.120652 729.027759,388.945652 729.027759,389.275652 C729.082759,390.045652 729.302759,390.650652 729.742759,390.980652 C730.622759,391.860652 731.172759,392.245652 731.392759,392.245652 C732.162759,392.245652 733.097759,391.420652 734.087759,389.660652 C736.122759,386.250652 737.552759,383.830652 738.432759,382.510652 C739.862759,380.145652 741.402759,377.945652 743.107759,375.965652 C743.107759,376.515652 743.052759,377.670652 743.052759,379.375652 C742.997759,381.135652 742.997759,382.070652 742.997759,382.290652 C742.997759,385.150652 743.272759,387.570652 743.877759,389.660652 C744.702759,392.685652 745.912759,394.225652 747.452759,394.225652 C747.782759,394.225652 748.222759,393.950652 748.717759,393.510652 C749.157759,392.960652 749.432759,392.575652 749.432759,392.245652 L749.432759,392.245652 Z M779.777586,385.810652 C779.777586,382.675652 776.422586,380.970652 769.822586,380.695652 C774.882586,378.440652 777.412586,376.020652 777.412586,373.380652 C777.412586,371.675652 776.532586,370.355652 774.827586,369.420652 C773.452586,368.760652 771.802586,368.375652 769.877586,368.375652 C767.182586,368.375652 763.992586,368.540652 760.307586,368.870652 C758.657586,369.090652 757.887586,369.750652 757.887586,370.960652 C757.887586,372.280652 758.602586,372.885652 760.142586,372.885652 C760.417586,372.885652 760.857586,372.830652 761.462586,372.720652 C761.352586,384.875652 761.297586,391.145652 761.297586,391.475652 C759.372586,391.695652 758.437586,392.465652 758.437586,393.895652 C758.437586,394.885652 759.097586,395.435652 760.527586,395.600652 C761.682586,395.545652 763.387586,395.270652 765.642586,394.775652 C769.822586,393.785652 772.902586,392.795652 774.772586,391.915652 C778.072586,390.375652 779.777586,388.340652 779.777586,385.810652 L779.777586,385.810652 Z M773.177586,373.875652 C773.177586,375.470652 770.592586,377.175652 765.422586,378.990652 L765.532586,372.610652 C767.567586,372.445652 769.052586,372.335652 769.932586,372.335652 C772.077586,372.335652 773.177586,372.885652 773.177586,373.875652 L773.177586,373.875652 Z M775.652586,386.360652 C775.652586,387.185652 774.717586,388.010652 772.847586,388.780652 C770.977586,389.550652 768.447586,390.155652 765.312586,390.540652 L765.312586,383.610652 C768.942586,383.720652 771.472586,383.995652 773.012586,384.325652 C774.772586,384.765652 775.652586,385.425652 775.652586,386.360652 L775.652586,386.360652 Z M808.197414,379.155652 C808.197414,378.660652 807.922414,378.110652 807.482414,377.560652 C807.482414,376.295652 807.262414,375.195652 806.932414,374.205652 C806.987414,373.985652 807.042414,373.710652 807.042414,373.435652 C807.042414,372.775652 806.657414,372.115652 805.997414,371.565652 C805.282414,371.015652 804.567414,370.685652 803.852414,370.685652 C800.827414,370.685652 797.527414,372.445652 793.897414,375.855652 C790.102414,379.375652 788.232414,382.785652 788.232414,385.975652 C788.232414,387.680652 788.782414,389.165652 789.992414,390.485652 C791.147414,391.860652 792.522414,392.520652 794.117414,392.520652 C796.592414,392.520652 799.342414,390.980652 802.422414,387.900652 C802.697414,392.080652 803.632414,394.225652 805.227414,394.225652 C805.777414,394.225652 806.327414,394.005652 806.822414,393.675652 C807.262414,393.235652 807.537414,392.685652 807.537414,392.135652 C807.537414,391.970652 807.372414,391.310652 807.152414,389.990652 C806.877414,388.725652 806.767414,387.735652 806.767414,387.075652 C806.767414,384.875652 807.097414,382.675652 807.867414,380.365652 C808.087414,379.760652 808.197414,379.375652 808.197414,379.155652 L808.197414,379.155652 Z M803.192414,377.560652 C803.192414,379.430652 802.092414,381.630652 800.002414,384.160652 C797.912414,386.690652 795.987414,387.900652 794.337414,387.900652 C793.182414,387.900652 792.632414,387.240652 792.632414,385.865652 C792.632414,384.105652 794.007414,381.905652 796.812414,379.210652 C799.342414,376.790652 801.157414,375.525652 802.202414,375.525652 C802.862414,375.525652 803.192414,376.240652 803.192414,377.560652 L803.192414,377.560652 Z M838.872241,372.445652 C838.872241,371.620652 838.597241,370.905652 838.047241,370.245652 C837.552241,369.640652 836.947241,369.310652 836.177241,369.310652 C835.847241,369.310652 835.187241,369.640652 834.197241,370.190652 C833.207241,370.795652 830.787241,371.290652 826.882241,371.730652 C826.002241,371.015652 825.287241,370.630652 824.792241,370.630652 C824.187241,370.630652 823.527241,370.960652 822.867241,371.620652 C822.207241,372.280652 821.877241,372.995652 821.877241,373.655652 C821.877241,374.095652 822.097241,374.645652 822.537241,375.250652 C822.922241,375.910652 823.142241,376.625652 823.142241,377.450652 C823.142241,380.860652 822.867241,383.665652 822.317241,385.975652 C821.602241,388.670652 820.667241,389.990652 819.567241,389.990652 C819.127241,389.990652 818.797241,389.330652 818.687241,387.900652 C818.577241,387.350652 818.357241,387.020652 817.917241,387.020652 C817.147241,387.020652 816.597241,387.405652 816.212241,388.065652 C815.717241,388.835652 815.497241,389.715652 815.497241,390.650652 C815.497241,391.695652 815.882241,392.465652 816.707241,393.070652 C817.477241,393.620652 818.357241,393.950652 819.347241,393.950652 C822.207241,393.950652 824.242241,392.080652 825.452241,388.450652 C826.222241,386.140652 826.882241,381.960652 827.432241,375.910652 C828.807241,375.580652 830.897241,375.140652 833.757241,374.645652 C833.207241,380.035652 832.932241,384.105652 832.932241,386.855652 C832.932241,390.485652 833.152241,392.740652 833.647241,393.675652 C834.142241,394.610652 834.857241,395.105652 835.737241,395.105652 C837.167241,395.105652 837.882241,394.225652 837.882241,392.575652 C837.662241,391.585652 837.552241,390.705652 837.442241,389.935652 C837.167241,388.065652 837.057241,386.470652 837.057241,385.095652 C837.057241,382.125652 837.497241,378.660652 838.432241,374.700652 C838.707241,373.380652 838.872241,372.665652 838.872241,372.445652 L838.872241,372.445652 Z M867.732069,392.245652 C867.732069,391.860652 867.457069,391.365652 866.962069,390.815652 C865.752069,389.495652 865.202069,386.140652 865.202069,380.750652 C865.202069,378.825652 865.477069,375.580652 866.082069,371.015652 C866.082069,370.410652 865.807069,369.860652 865.367069,369.310652 C864.872069,368.815652 864.322069,368.540652 863.717069,368.540652 C862.782069,368.540652 860.802069,370.575652 857.832069,374.645652 C855.412069,377.835652 853.432069,380.750652 851.782069,383.280652 C852.167069,378.990652 852.442069,375.855652 852.607069,373.985652 C852.607069,373.105652 852.277069,372.335652 851.727069,371.675652 C851.177069,371.070652 850.462069,370.740652 849.582069,370.740652 C849.087069,370.740652 848.647069,371.070652 848.207069,371.675652 C848.317069,373.270652 848.427069,374.205652 848.427069,374.425652 C848.427069,375.415652 848.262069,377.890652 847.987069,381.905652 L847.877069,383.500652 C847.822069,384.325652 847.712069,385.425652 847.602069,386.800652 C847.437069,388.120652 847.327069,388.945652 847.327069,389.275652 C847.382069,390.045652 847.602069,390.650652 848.042069,390.980652 C848.922069,391.860652 849.472069,392.245652 849.692069,392.245652 C850.462069,392.245652 851.397069,391.420652 852.387069,389.660652 C854.422069,386.250652 855.852069,383.830652 856.732069,382.510652 C858.162069,380.145652 859.702069,377.945652 861.407069,375.965652 C861.407069,376.515652 861.352069,377.670652 861.352069,379.375652 C861.297069,381.135652 861.297069,382.070652 861.297069,382.290652 C861.297069,385.150652 861.572069,387.570652 862.177069,389.660652 C863.002069,392.685652 864.212069,394.225652 865.752069,394.225652 C866.082069,394.225652 866.522069,393.950652 867.017069,393.510652 C867.457069,392.960652 867.732069,392.575652 867.732069,392.245652 L867.732069,392.245652 Z M919.731724,385.810652 C919.731724,382.675652 916.376724,380.970652 909.776724,380.695652 C914.836724,378.440652 917.366724,376.020652 917.366724,373.380652 C917.366724,371.675652 916.486724,370.355652 914.781724,369.420652 C913.406724,368.760652 911.756724,368.375652 909.831724,368.375652 C907.136724,368.375652 903.946724,368.540652 900.261724,368.870652 C898.611724,369.090652 897.841724,369.750652 897.841724,370.960652 C897.841724,372.280652 898.556724,372.885652 900.096724,372.885652 C900.371724,372.885652 900.811724,372.830652 901.416724,372.720652 C901.306724,384.875652 901.251724,391.145652 901.251724,391.475652 C899.326724,391.695652 898.391724,392.465652 898.391724,393.895652 C898.391724,394.885652 899.051724,395.435652 900.481724,395.600652 C901.636724,395.545652 903.341724,395.270652 905.596724,394.775652 C909.776724,393.785652 912.856724,392.795652 914.726724,391.915652 C918.026724,390.375652 919.731724,388.340652 919.731724,385.810652 L919.731724,385.810652 Z M913.131724,373.875652 C913.131724,375.470652 910.546724,377.175652 905.376724,378.990652 L905.486724,372.610652 C907.521724,372.445652 909.006724,372.335652 909.886724,372.335652 C912.031724,372.335652 913.131724,372.885652 913.131724,373.875652 L913.131724,373.875652 Z M915.606724,386.360652 C915.606724,387.185652 914.671724,388.010652 912.801724,388.780652 C910.931724,389.550652 908.401724,390.155652 905.266724,390.540652 L905.266724,383.610652 C908.896724,383.720652 911.426724,383.995652 912.966724,384.325652 C914.726724,384.765652 915.606724,385.425652 915.606724,386.360652 L915.606724,386.360652 Z M946.666552,371.015652 C946.611552,370.410652 946.391552,369.805652 945.951552,369.255652 C945.511552,368.705652 945.016552,368.430652 944.466552,368.430652 C942.981552,368.430652 942.211552,369.255652 942.156552,370.850652 C942.156552,371.070652 942.156552,371.785652 942.211552,372.940652 C942.211552,374.205652 942.266552,374.920652 942.266552,375.140652 C942.266552,377.285652 941.551552,379.265652 940.176552,381.135652 C938.746552,383.005652 937.151552,383.885652 935.446552,383.885652 C933.301552,383.885652 932.256552,382.345652 932.256552,379.155652 C932.256552,377.945652 932.476552,375.195652 933.026552,370.905652 C932.861552,369.365652 932.201552,368.540652 931.101552,368.540652 C929.561552,368.540652 928.681552,370.025652 928.351552,372.940652 C928.241552,373.765652 928.186552,375.800652 928.186552,379.100652 C928.186552,384.930652 930.496552,387.845652 935.171552,387.845652 C936.491552,387.845652 937.866552,387.515652 939.186552,386.745652 C940.506552,386.030652 941.551552,385.040652 942.211552,383.830652 C942.101552,386.030652 941.991552,387.845652 941.881552,389.220652 C941.661552,391.475652 941.606552,393.070652 941.606552,394.170652 C941.606552,395.655652 942.211552,396.425652 943.531552,396.425652 C944.961552,396.425652 945.731552,395.655652 945.786552,394.115652 C945.841552,390.540652 946.006552,385.260652 946.336552,378.330652 C946.446552,374.700652 946.556552,372.280652 946.666552,371.015652 L946.666552,371.015652 Z M976.95638,390.925652 C976.95638,390.375652 976.73638,389.825652 976.29638,389.275652 C975.85638,388.835652 975.30638,388.560652 974.75638,388.560652 C974.31638,388.560652 973.60138,388.670652 972.66638,388.780652 C971.73138,388.890652 971.01638,388.945652 970.57638,388.945652 C968.92638,388.945652 967.49638,388.175652 966.17638,386.580652 C971.67638,383.610652 974.42638,380.090652 974.42638,376.020652 C974.42638,374.480652 973.76638,372.995652 972.44638,371.675652 C971.12638,370.355652 969.80638,369.695652 968.43138,369.695652 C966.06638,369.695652 964.14138,371.070652 962.60138,373.765652 C961.28138,376.075652 960.62138,378.550652 960.62138,381.190652 C960.62138,381.740652 960.67638,382.510652 960.84138,383.445652 L959.57638,383.445652 C958.80638,383.445652 958.09138,383.170652 957.32138,382.620652 C956.55138,382.070652 956.00138,381.795652 955.67138,381.795652 C954.24138,381.795652 953.52638,382.565652 953.52638,384.105652 C953.52638,385.315652 954.40638,386.305652 956.27638,387.075652 C957.70638,387.680652 959.08138,387.955652 960.51138,387.955652 L962.16138,387.955652 C964.14138,391.750652 967.22138,393.620652 971.40138,393.620652 C975.08638,393.620652 976.95638,392.685652 976.95638,390.925652 L976.95638,390.925652 Z M970.08138,376.240652 C970.08138,378.055652 968.43138,380.035652 965.13138,382.180652 L965.13138,381.190652 C965.13138,379.705652 965.35138,378.275652 965.90138,376.900652 C966.45138,375.250652 967.22138,374.425652 968.21138,374.425652 C968.65138,374.425652 969.09138,374.645652 969.53138,374.975652 C969.86138,375.415652 970.08138,375.800652 970.08138,376.240652 L970.08138,376.240652 Z M1003.78121,372.885652 C1003.78121,370.245652 1003.17621,368.045652 1001.96621,366.285652 C1000.64621,364.360652 998.721207,363.370652 996.301207,363.370652 C992.836207,363.370652 990.141207,365.790652 988.216207,370.630652 C986.896207,373.985652 986.236207,377.835652 986.236207,382.125652 C986.236207,382.675652 986.236207,383.115652 986.291207,383.390652 C984.751207,383.940652 984.036207,384.765652 984.036207,385.920652 C984.036207,387.350652 984.751207,388.120652 986.291207,388.230652 C986.401207,389.110652 986.456207,390.430652 986.456207,392.190652 C986.456207,395.710652 986.236207,398.185652 985.906207,399.725652 C985.521207,401.210652 985.356207,402.035652 985.356207,402.200652 C985.356207,402.805652 985.576207,403.355652 986.016207,403.850652 C986.456207,404.290652 987.006207,404.565652 987.611207,404.565652 C988.766207,404.565652 989.591207,403.410652 990.086207,401.155652 C990.636207,398.625652 990.911207,396.040652 990.911207,393.510652 C990.911207,391.200652 990.801207,388.945652 990.636207,386.745652 C999.381207,383.555652 1003.78121,378.935652 1003.78121,372.885652 L1003.78121,372.885652 Z M999.381207,371.950652 C999.381207,376.460652 996.466207,379.760652 990.691207,381.850652 C990.691207,378.880652 991.186207,375.855652 992.231207,372.885652 C993.386207,369.640652 994.761207,367.990652 996.301207,367.990652 C997.236207,367.990652 998.006207,368.430652 998.611207,369.200652 C999.106207,369.970652 999.381207,370.905652 999.381207,371.950652 L999.381207,371.950652 Z M1032.03604,379.155652 C1032.03604,378.660652 1031.76104,378.110652 1031.32104,377.560652 C1031.32104,376.295652 1031.10104,375.195652 1030.77104,374.205652 C1030.82604,373.985652 1030.88104,373.710652 1030.88104,373.435652 C1030.88104,372.775652 1030.49604,372.115652 1029.83604,371.565652 C1029.12104,371.015652 1028.40604,370.685652 1027.69104,370.685652 C1024.66604,370.685652 1021.36604,372.445652 1017.73604,375.855652 C1013.94104,379.375652 1012.07104,382.785652 1012.07104,385.975652 C1012.07104,387.680652 1012.62104,389.165652 1013.83104,390.485652 C1014.98604,391.860652 1016.36104,392.520652 1017.95604,392.520652 C1020.43104,392.520652 1023.18104,390.980652 1026.26104,387.900652 C1026.53604,392.080652 1027.47104,394.225652 1029.06604,394.225652 C1029.61604,394.225652 1030.16604,394.005652 1030.66104,393.675652 C1031.10104,393.235652 1031.37604,392.685652 1031.37604,392.135652 C1031.37604,391.970652 1031.21104,391.310652 1030.99104,389.990652 C1030.71604,388.725652 1030.60604,387.735652 1030.60604,387.075652 C1030.60604,384.875652 1030.93604,382.675652 1031.70604,380.365652 C1031.92604,379.760652 1032.03604,379.375652 1032.03604,379.155652 L1032.03604,379.155652 Z M1027.03104,377.560652 C1027.03104,379.430652 1025.93104,381.630652 1023.84104,384.160652 C1021.75104,386.690652 1019.82604,387.900652 1018.17604,387.900652 C1017.02104,387.900652 1016.47104,387.240652 1016.47104,385.865652 C1016.47104,384.105652 1017.84604,381.905652 1020.65104,379.210652 C1023.18104,376.790652 1024.99604,375.525652 1026.04104,375.525652 C1026.70104,375.525652 1027.03104,376.240652 1027.03104,377.560652 L1027.03104,377.560652 Z M1063.20586,362.820652 C1063.20586,360.015652 1062.16086,357.815652 1060.07086,356.220652 C1058.20086,354.790652 1055.67086,354.020652 1052.59086,354.020652 C1051.32586,354.020652 1049.84086,354.240652 1048.19086,354.625652 C1047.25586,354.350652 1046.76086,354.185652 1046.70586,354.185652 C1046.04586,354.185652 1045.38586,354.515652 1044.67086,355.065652 C1044.01086,355.670652 1043.68086,356.275652 1043.68086,356.935652 C1043.68086,357.705652 1043.90086,358.310652 1044.34086,358.750652 C1044.78086,359.300652 1045.33086,359.520652 1046.10086,359.520652 C1046.26586,359.520652 1046.81586,359.465652 1047.69586,359.245652 C1050.33586,358.805652 1051.76586,358.530652 1051.98586,358.530652 C1056.49586,358.530652 1058.80586,359.960652 1058.80586,362.765652 C1058.80586,364.855652 1057.54086,366.670652 1055.06586,368.100652 C1052.92086,369.365652 1050.39086,370.135652 1047.47586,370.465652 C1045.71586,370.685652 1044.89086,371.455652 1044.89086,372.720652 C1044.89086,372.995652 1045.05586,373.600652 1045.44086,374.590652 C1046.21086,376.955652 1046.70586,379.265652 1046.98086,381.520652 C1047.14586,383.060652 1047.86086,383.775652 1049.12586,383.775652 C1050.55586,383.775652 1051.32586,383.005652 1051.32586,381.355652 C1051.32586,379.650652 1050.88586,377.285652 1050.06086,374.315652 C1053.52586,373.765652 1056.55086,372.500652 1059.08086,370.520652 C1061.83086,368.320652 1063.20586,365.790652 1063.20586,362.820652 L1063.20586,362.820652 Z M1052.42586,391.145652 C1052.42586,390.265652 1052.09586,389.550652 1051.49086,389.000652 C1050.77586,388.560652 1050.00586,388.285652 1049.23586,388.285652 C1048.30086,388.285652 1047.58586,388.670652 1047.03586,389.385652 C1046.48586,390.045652 1046.21086,390.870652 1046.21086,391.805652 C1046.21086,392.630652 1046.43086,393.345652 1046.92586,393.950652 C1047.42086,394.500652 1047.97086,394.830652 1048.57586,394.830652 C1049.84086,394.830652 1050.83086,394.500652 1051.49086,393.840652 C1052.09586,393.125652 1052.42586,392.245652 1052.42586,391.145652 L1052.42586,391.145652 Z" id="Под-глазами-отеки-ут"></path>
        </g>
    </g>
</svg>