<?xml version="1.0" encoding="UTF-8"?>
<svg width="243px" height="33px" viewBox="0 0 243 33" version="1.1" xmlns="http://www.w3.org/2000/svg" xmlns:xlink="http://www.w3.org/1999/xlink">
    <!-- Generator: Sketch 40.3 (33839) - http://www.bohemiancoding.com/sketch -->
    <title>Group 5</title>
    <desc>Created with Sketch.</desc>
    <defs></defs>
    <g id="Page-1" stroke="none" stroke-width="1" fill="none" fill-rule="evenodd">
        <g id="Desktop" transform="translate(-336.000000, -137.000000)" fill="#354777">
            <g id="Group-5" transform="translate(336.000000, 137.000000)">
                <rect id="Rectangle-4" x="0" y="21" width="243" height="2"></rect>
                <path d="M26.015,7.95 C25.91,7.11 25.42,6.585 24.58,6.41 C23.25,6.48 21.185,7.495 18.35,9.42 C16.04,11.03 14.115,12.5 12.645,13.9 L9.215,17.12 C9.775,14.285 10.335,11.905 10.86,10.015 C10.965,9.525 11.42,8.125 12.225,5.815 C12.96,3.61 13.345,2.35 13.38,2 C13.31,1.16 12.82,0.74 11.98,0.74 C11.42,0.74 10.965,1.16 10.685,1.93 C8.585,7.25 7.185,12.185 6.485,16.805 C5.96,20.06 5.68,22.545 5.68,24.295 C5.645,26.36 5.645,27.9 5.645,28.88 C5.645,29.195 5.68,29.58 5.82,30 C5.82,30.35 5.89,30.7 6.065,30.98 C6.24,31.47 6.66,31.75 7.36,31.785 C8.13,31.68 8.55,31.225 8.655,30.42 C8.515,29.23 8.445,27.585 8.445,25.555 C8.445,24.295 8.515,22.79 8.655,21.11 C9.11,21.075 9.46,20.97 9.67,20.795 C9.74,20.795 10.02,20.515 10.58,20.025 C12.015,21.95 13.45,23.56 14.885,24.89 C17.475,27.34 19.4,28.88 20.66,29.51 C21.57,30.245 22.375,30.665 23.075,30.735 C23.81,30.525 24.23,30.035 24.3,29.3 C24.265,28.81 23.88,28.215 23.18,27.55 L21.115,25.625 C20.765,25.345 20.415,25.205 20.065,25.135 L19.575,25.17 C18.525,24.54 17.265,23.42 15.83,21.88 C14.5,20.48 13.415,19.185 12.61,17.96 C16.075,14.6 19.155,12.185 21.815,10.645 C22.27,10.855 22.585,10.925 22.795,10.925 C23.04,10.925 23.355,10.785 23.74,10.505 C25.245,9.91 26.015,9.07 26.015,7.95 L26.015,7.95 Z M39.77,21.88 C39.77,21.565 39.595,21.215 39.315,20.865 C39.315,20.06 39.175,19.36 38.965,18.73 C39,18.59 39.035,18.415 39.035,18.24 C39.035,17.82 38.79,17.4 38.37,17.05 C37.915,16.7 37.46,16.49 37.005,16.49 C35.08,16.49 32.98,17.61 30.67,19.78 C28.255,22.02 27.065,24.19 27.065,26.22 C27.065,27.305 27.415,28.25 28.185,29.09 C28.92,29.965 29.795,30.385 30.81,30.385 C32.385,30.385 34.135,29.405 36.095,27.445 C36.27,30.105 36.865,31.47 37.88,31.47 C38.23,31.47 38.58,31.33 38.895,31.12 C39.175,30.84 39.35,30.49 39.35,30.14 C39.35,30.035 39.245,29.615 39.105,28.775 C38.93,27.97 38.86,27.34 38.86,26.92 C38.86,25.52 39.07,24.12 39.56,22.65 C39.7,22.265 39.77,22.02 39.77,21.88 L39.77,21.88 Z M36.585,20.865 C36.585,22.055 35.885,23.455 34.555,25.065 C33.225,26.675 32,27.445 30.95,27.445 C30.215,27.445 29.865,27.025 29.865,26.15 C29.865,25.03 30.74,23.63 32.525,21.915 C34.135,20.375 35.29,19.57 35.955,19.57 C36.375,19.57 36.585,20.025 36.585,20.865 L36.585,20.865 Z M58.635,31.435 C58.635,31.12 58.53,30.77 58.32,30.35 C58.11,29.93 57.865,29.65 57.62,29.44 C57.06,28.25 56.57,26.08 56.15,22.965 C55.87,21.355 55.66,19.57 55.45,17.68 C55.345,16.945 54.925,16.56 54.19,16.56 C53.525,16.56 52.65,17.995 51.565,20.865 C51.18,21.845 50.865,22.685 50.585,23.455 C49.64,22.055 48.8,19.955 48.03,17.085 C47.75,16.035 47.33,15.51 46.805,15.51 C46.14,15.51 45.545,16.315 45.02,17.89 C44.915,17.89 44.775,17.855 44.6,17.855 C44.355,17.855 44.145,17.96 44.005,18.135 C43.795,18.345 43.69,18.59 43.69,18.835 C43.69,18.905 43.69,19.115 43.725,19.465 C43.725,19.85 43.76,20.06 43.76,20.13 C43.76,20.76 43.69,21.635 43.55,22.825 C43.41,24.015 43.34,25.345 43.34,26.78 C43.34,29.125 43.795,30.28 44.74,30.28 C45.44,30.28 45.79,29.51 45.86,27.935 C45.965,24.855 46.245,22.3 46.665,20.27 C48.52,24.75 49.99,26.99 51.04,26.99 C51.39,26.99 51.635,26.85 51.845,26.5 C52.02,26.22 52.23,25.59 52.51,24.68 C52.965,23.14 53.35,21.915 53.665,21.075 C54.015,24.96 54.505,27.83 55.17,29.685 C55.905,31.82 56.675,32.905 57.445,32.905 C57.725,32.905 58.005,32.73 58.25,32.415 C58.495,32.065 58.635,31.75 58.635,31.435 L58.635,31.435 Z M72.775,17.05 C72.775,16.14 72.355,15.685 71.515,15.685 C70.815,15.685 70.36,16.315 70.185,17.505 C70.01,18.45 69.8,19.78 69.59,21.495 C68.05,21.88 66.545,22.16 65.075,22.3 C65.425,20.06 65.775,18.38 66.125,17.225 C66.335,16.595 66.51,16.105 66.685,15.685 C66.615,14.74 66.195,14.25 65.355,14.25 C64.76,14.25 64.375,14.53 64.165,15.09 C63.465,16.77 62.905,19.185 62.555,22.335 C61.995,22.335 61.61,22.3 61.4,22.265 C60.7,22.265 60.385,22.685 60.385,23.455 C60.385,24.33 60.875,24.75 61.89,24.75 L62.31,24.75 C62.205,26.08 62.1,27.585 62.03,29.335 C62.03,29.44 61.995,29.615 61.96,29.825 C61.89,30.035 61.89,30.175 61.89,30.315 C61.89,30.665 62.03,30.98 62.31,31.26 C62.59,31.54 62.905,31.68 63.255,31.68 C64.095,31.68 64.55,31.225 64.585,30.35 C64.585,29.16 64.69,27.27 64.865,24.68 C66.37,24.54 67.84,24.295 69.31,23.945 C69.135,25.8 69.03,27.27 69.03,28.32 C69.03,28.425 68.995,28.565 68.96,28.775 C68.89,28.95 68.855,29.09 68.855,29.195 C68.855,30.035 68.96,30.665 69.24,31.085 C69.52,31.54 69.835,31.785 70.255,31.785 C70.605,31.785 70.92,31.645 71.2,31.365 C71.445,31.085 71.585,30.735 71.585,30.35 C71.585,30.28 71.55,30.105 71.55,29.755 C71.515,29.405 71.515,29.125 71.515,28.985 C71.515,26.64 71.865,23.035 72.635,18.17 C72.705,17.54 72.775,17.19 72.775,17.05 L72.775,17.05 Z M89.33,30.21 C89.33,29.965 89.155,29.65 88.84,29.3 C88.07,28.46 87.72,26.325 87.72,22.895 C87.72,21.67 87.895,19.605 88.28,16.7 C88.28,16.315 88.105,15.965 87.825,15.615 C87.51,15.3 87.16,15.125 86.775,15.125 C86.18,15.125 84.92,16.42 83.03,19.01 C81.49,21.04 80.23,22.895 79.18,24.505 C79.425,21.775 79.6,19.78 79.705,18.59 C79.705,18.03 79.495,17.54 79.145,17.12 C78.795,16.735 78.34,16.525 77.78,16.525 C77.465,16.525 77.185,16.735 76.905,17.12 C76.975,18.135 77.045,18.73 77.045,18.87 C77.045,19.5 76.94,21.075 76.765,23.63 L76.695,24.645 C76.66,25.17 76.59,25.87 76.52,26.745 C76.415,27.585 76.345,28.11 76.345,28.32 C76.38,28.81 76.52,29.195 76.8,29.405 C77.36,29.965 77.71,30.21 77.85,30.21 C78.34,30.21 78.935,29.685 79.565,28.565 C80.86,26.395 81.77,24.855 82.33,24.015 C83.24,22.51 84.22,21.11 85.305,19.85 C85.305,20.2 85.27,20.935 85.27,22.02 C85.235,23.14 85.235,23.735 85.235,23.875 C85.235,25.695 85.41,27.235 85.795,28.565 C86.32,30.49 87.09,31.47 88.07,31.47 C88.28,31.47 88.56,31.295 88.875,31.015 C89.155,30.665 89.33,30.42 89.33,30.21 L89.33,30.21 Z M118.8,26.115 C118.8,24.12 116.665,23.035 112.465,22.86 C115.685,21.425 117.295,19.885 117.295,18.205 C117.295,17.12 116.735,16.28 115.65,15.685 C114.775,15.265 113.725,15.02 112.5,15.02 C110.785,15.02 108.755,15.125 106.41,15.335 C105.36,15.475 104.87,15.895 104.87,16.665 C104.87,17.505 105.325,17.89 106.305,17.89 C106.48,17.89 106.76,17.855 107.145,17.785 C107.075,25.52 107.04,29.51 107.04,29.72 C105.815,29.86 105.22,30.35 105.22,31.26 C105.22,31.89 105.64,32.24 106.55,32.345 C107.285,32.31 108.37,32.135 109.805,31.82 C112.465,31.19 114.425,30.56 115.615,30 C117.715,29.02 118.8,27.725 118.8,26.115 L118.8,26.115 Z M114.6,18.52 C114.6,19.535 112.955,20.62 109.665,21.775 L109.735,17.715 C111.03,17.61 111.975,17.54 112.535,17.54 C113.9,17.54 114.6,17.89 114.6,18.52 L114.6,18.52 Z M116.175,26.465 C116.175,26.99 115.58,27.515 114.39,28.005 C113.2,28.495 111.59,28.88 109.595,29.125 L109.595,24.715 C111.905,24.785 113.515,24.96 114.495,25.17 C115.615,25.45 116.175,25.87 116.175,26.465 L116.175,26.465 Z M146.695,16.91 C146.695,16.525 146.52,16.175 146.17,15.895 C145.785,15.65 145.4,15.51 145.015,15.44 C141.445,15.72 138.61,15.965 136.58,16.105 C135.355,16.21 134.76,16.63 134.76,17.4 C134.76,17.89 134.83,18.31 135.04,18.695 C134.795,22.3 134.69,24.12 134.69,24.19 C134.445,26.71 134.34,27.97 134.34,27.97 C134.34,28.425 134.48,28.88 134.795,29.335 C135.11,29.79 135.46,30 135.88,30 C136.58,30 136.93,29.545 137,28.6 C137.21,24.82 137.42,21.565 137.7,18.835 C139.485,18.59 141.34,18.415 143.265,18.345 C143.265,18.45 143.195,20.165 143.09,23.455 C142.95,26.395 142.915,27.97 142.915,28.18 C142.915,30.455 143.51,31.61 144.77,31.61 C145.435,31.61 145.785,31.225 145.785,30.525 C145.575,29.475 145.505,28.495 145.505,27.655 C145.505,26.535 145.575,24.75 145.715,22.3 C145.75,21.915 145.82,21.355 145.925,20.585 C145.995,19.955 146.03,19.605 146.03,19.465 C146.03,19.255 145.96,18.94 145.89,18.52 C146.415,17.96 146.695,17.435 146.695,16.91 L146.695,16.91 Z M161.395,22.3 C161.395,20.935 161.01,19.675 160.24,18.555 C159.435,17.47 158.42,16.7 157.195,16.28 C156.705,16.14 156.425,16.07 156.355,16.07 C156.075,16.07 155.76,16.245 155.34,16.525 C154.85,16.805 154.465,17.015 154.185,17.12 C152.995,17.715 152.015,18.765 151.315,20.235 C150.615,21.565 150.3,23 150.3,24.505 C150.3,26.29 150.755,27.76 151.735,28.915 C152.715,30.035 153.94,30.63 155.41,30.63 C157.09,30.63 158.525,29.86 159.68,28.25 C160.8,26.64 161.395,24.68 161.395,22.3 L161.395,22.3 Z M158.63,22.825 C158.63,24.015 158.28,25.1 157.65,26.115 C156.95,27.165 156.215,27.69 155.375,27.69 C154.675,27.69 154.115,27.375 153.695,26.71 C153.24,26.08 153.03,25.345 153.03,24.505 C153.03,23.385 153.275,22.335 153.835,21.355 C154.465,20.235 155.27,19.64 156.25,19.64 C156.6,19.85 157.055,19.955 157.615,19.955 C158.28,20.375 158.63,21.355 158.63,22.825 L158.63,22.825 Z M176.76,16.7 C176.725,16.315 176.585,15.93 176.305,15.58 C176.025,15.23 175.71,15.055 175.36,15.055 C174.415,15.055 173.925,15.58 173.89,16.595 C173.89,16.735 173.89,17.19 173.925,17.925 C173.925,18.73 173.96,19.185 173.96,19.325 C173.96,20.69 173.505,21.95 172.63,23.14 C171.72,24.33 170.705,24.89 169.62,24.89 C168.255,24.89 167.59,23.91 167.59,21.88 C167.59,21.11 167.73,19.36 168.08,16.63 C167.975,15.65 167.555,15.125 166.855,15.125 C165.875,15.125 165.315,16.07 165.105,17.925 C165.035,18.45 165,19.745 165,21.845 C165,25.555 166.47,27.41 169.445,27.41 C170.285,27.41 171.16,27.2 172,26.71 C172.84,26.255 173.505,25.625 173.925,24.855 C173.855,26.255 173.785,27.41 173.715,28.285 C173.575,29.72 173.54,30.735 173.54,31.435 C173.54,32.38 173.925,32.87 174.765,32.87 C175.675,32.87 176.165,32.38 176.2,31.4 C176.235,29.125 176.34,25.765 176.55,21.355 C176.62,19.045 176.69,17.505 176.76,16.7 L176.76,16.7 Z M192.3,18.555 C192.3,18.275 192.16,17.96 191.88,17.645 C191.6,17.365 191.285,17.225 191.005,17.225 C190.725,17.225 190.13,17.435 189.255,17.855 C187.785,18.555 185.93,19.885 183.76,21.775 C184.25,19.745 184.705,18.135 185.195,16.98 C185.475,16.245 185.615,15.79 185.615,15.65 C185.615,14.74 185.16,14.285 184.32,14.285 C183.76,14.285 183.34,14.6 183.06,15.23 C181.345,19.43 180.47,24.05 180.4,29.055 C180.33,29.23 180.33,29.405 180.33,29.58 C180.33,30 180.4,30.385 180.54,30.77 C180.75,31.4 181.24,31.75 181.94,31.75 C182.71,31.75 183.095,31.295 183.095,30.42 C183.095,30.35 183.06,30.14 183.06,29.79 C183.025,29.44 183.025,29.195 183.025,28.985 L183.025,27.69 C183.025,27.2 183.025,26.64 183.095,26.01 C183.34,25.87 183.48,25.8 183.515,25.765 C184.845,27.55 186.56,29.125 188.625,30.49 C189.255,30.945 189.745,31.19 190.095,31.19 C190.935,31.19 191.355,30.735 191.355,29.86 C191.355,29.51 191.04,29.02 190.48,28.46 C189.5,27.585 188.94,27.13 188.73,27.13 C188.66,27.13 188.555,27.165 188.485,27.165 C187.12,26.08 186.07,25.03 185.37,24.015 C187.05,22.44 188.45,21.32 189.605,20.69 C189.745,20.76 189.885,20.795 190.06,20.795 C190.515,20.795 191.005,20.55 191.495,20.06 C192.02,19.605 192.3,19.115 192.3,18.555 L192.3,18.555 Z M207.875,21.88 C207.875,21.565 207.7,21.215 207.42,20.865 C207.42,20.06 207.28,19.36 207.07,18.73 C207.105,18.59 207.14,18.415 207.14,18.24 C207.14,17.82 206.895,17.4 206.475,17.05 C206.02,16.7 205.565,16.49 205.11,16.49 C203.185,16.49 201.085,17.61 198.775,19.78 C196.36,22.02 195.17,24.19 195.17,26.22 C195.17,27.305 195.52,28.25 196.29,29.09 C197.025,29.965 197.9,30.385 198.915,30.385 C200.49,30.385 202.24,29.405 204.2,27.445 C204.375,30.105 204.97,31.47 205.985,31.47 C206.335,31.47 206.685,31.33 207,31.12 C207.28,30.84 207.455,30.49 207.455,30.14 C207.455,30.035 207.35,29.615 207.21,28.775 C207.035,27.97 206.965,27.34 206.965,26.92 C206.965,25.52 207.175,24.12 207.665,22.65 C207.805,22.265 207.875,22.02 207.875,21.88 L207.875,21.88 Z M204.69,20.865 C204.69,22.055 203.99,23.455 202.66,25.065 C201.33,26.675 200.105,27.445 199.055,27.445 C198.32,27.445 197.97,27.025 197.97,26.15 C197.97,25.03 198.845,23.63 200.63,21.915 C202.24,20.375 203.395,19.57 204.06,19.57 C204.48,19.57 204.69,20.025 204.69,20.865 L204.69,20.865 Z M225.515,18.835 C225.515,18.45 225.34,18.135 225.025,17.855 C224.71,17.575 224.36,17.435 223.975,17.435 C223.765,17.435 223.38,17.68 222.75,18.135 C221.035,19.465 219.705,20.48 218.76,21.25 C217.92,20.06 217.08,18.94 216.205,17.89 C215.33,16.84 214.665,16.315 214.245,16.315 C213.125,16.315 212.6,16.875 212.6,17.96 C212.6,18.24 212.915,18.87 213.58,19.815 C214.14,20.655 214.56,21.215 214.91,21.495 C215.085,21.705 215.295,21.845 215.575,21.915 C215.925,22.37 216.24,22.755 216.45,23.07 C214.63,24.54 213.3,25.695 212.425,26.535 C211.27,27.62 210.71,28.46 210.71,29.02 C210.71,30 211.2,30.525 212.18,30.525 C212.53,30.525 212.95,30.315 213.37,29.895 C214.63,28.565 216.205,27.165 218.095,25.625 C218.9,27.025 219.635,28.39 220.265,29.79 C220.545,30.385 221.035,30.7 221.7,30.7 C222.015,30.7 222.33,30.56 222.645,30.28 C222.96,30 223.135,29.65 223.135,29.3 C223.135,29.02 222.785,28.215 222.155,26.885 C221.665,25.905 221.07,24.89 220.405,23.77 C222.295,22.3 223.765,21.075 224.815,20.165 C225.27,19.78 225.515,19.325 225.515,18.835 L225.515,18.835 Z M242.84,11.485 C242.84,9.7 242.175,8.3 240.845,7.285 C239.655,6.375 238.045,5.885 236.085,5.885 C235.28,5.885 234.335,6.025 233.285,6.27 C232.69,6.095 232.375,5.99 232.34,5.99 C231.92,5.99 231.5,6.2 231.045,6.55 C230.625,6.935 230.415,7.32 230.415,7.74 C230.415,8.23 230.555,8.615 230.835,8.895 C231.115,9.245 231.465,9.385 231.955,9.385 C232.06,9.385 232.41,9.35 232.97,9.21 C234.65,8.93 235.56,8.755 235.7,8.755 C238.57,8.755 240.04,9.665 240.04,11.45 C240.04,12.78 239.235,13.935 237.66,14.845 C236.295,15.65 234.685,16.14 232.83,16.35 C231.71,16.49 231.185,16.98 231.185,17.785 C231.185,17.96 231.29,18.345 231.535,18.975 C232.025,20.48 232.34,21.95 232.515,23.385 C232.62,24.365 233.075,24.82 233.88,24.82 C234.79,24.82 235.28,24.33 235.28,23.28 C235.28,22.195 235,20.69 234.475,18.8 C236.68,18.45 238.605,17.645 240.215,16.385 C241.965,14.985 242.84,13.375 242.84,11.485 L242.84,11.485 Z M235.98,29.51 C235.98,28.95 235.77,28.495 235.385,28.145 C234.93,27.865 234.44,27.69 233.95,27.69 C233.355,27.69 232.9,27.935 232.55,28.39 C232.2,28.81 232.025,29.335 232.025,29.93 C232.025,30.455 232.165,30.91 232.48,31.295 C232.795,31.645 233.145,31.855 233.53,31.855 C234.335,31.855 234.965,31.645 235.385,31.225 C235.77,30.77 235.98,30.21 235.98,29.51 L235.98,29.51 Z" id="Камни-в-почках?"></path>
            </g>
        </g>
    </g>
</svg>