<?xml version="1.0" encoding="UTF-8"?>
<svg width="208px" height="64px" viewBox="0 0 208 64" version="1.1" xmlns="http://www.w3.org/2000/svg" xmlns:xlink="http://www.w3.org/1999/xlink">
    <!-- Generator: Sketch 40.3 (33839) - http://www.bohemiancoding.com/sketch -->
    <title>Люблю растительный м</title>
    <desc>Created with Sketch.</desc>
    <defs></defs>
    <g id="Page-1" stroke="none" stroke-width="1" fill="none" fill-rule="evenodd">
        <g id="Desktop" transform="translate(-1634.000000, -283.000000)" fill="#354777">
            <path d="M1649.68145,272.189186 C1649.68145,271.869186 1649.56145,271.529186 1649.32145,271.209186 C1649.04145,270.889186 1648.74145,270.729186 1648.38145,270.729186 C1648.32145,270.729186 1648.14145,270.829186 1647.86145,270.989186 C1647.54145,271.189186 1647.36145,271.289186 1647.30145,271.309186 C1646.38145,271.649186 1645.84145,271.829186 1645.68145,271.869186 C1644.80145,272.109186 1643.94145,272.209186 1643.10145,272.209186 C1643.00145,272.209186 1642.76145,272.089186 1642.38145,271.849186 C1641.98145,271.649186 1641.74145,271.529186 1641.66145,271.529186 C1641.34145,271.529186 1641.02145,271.709186 1640.72145,272.049186 C1640.42145,272.409186 1640.28145,272.689186 1640.28145,272.929186 C1640.28145,273.209186 1640.38145,273.489186 1640.60145,273.769186 C1640.92145,274.229186 1641.08145,274.729186 1641.08145,275.289186 C1641.08145,277.329186 1640.90145,279.089186 1640.56145,280.569186 C1640.12145,282.429186 1639.50145,283.349186 1638.70145,283.349186 C1638.46145,283.349186 1638.36145,283.029186 1638.36145,282.389186 C1638.36145,281.869186 1638.22145,281.609186 1637.96145,281.609186 C1637.60145,281.609186 1637.30145,281.829186 1637.04145,282.229186 C1636.78145,282.629186 1636.66145,283.009186 1636.66145,283.389186 C1636.66145,283.889186 1636.84145,284.269186 1637.20145,284.529186 C1637.56145,284.809186 1638.02145,284.949186 1638.58145,284.949186 C1640.02145,284.949186 1641.12145,283.889186 1641.84145,281.749186 C1642.32145,280.289186 1642.70145,277.749186 1642.98145,274.109186 C1644.70145,273.669186 1646.10145,273.369186 1647.20145,273.189186 L1647.40145,273.329186 C1647.02145,275.809186 1646.84145,278.429186 1646.84145,281.149186 C1646.84145,283.349186 1646.98145,284.649186 1647.30145,285.089186 C1647.58145,285.529186 1647.88145,285.769186 1648.18145,285.769186 C1648.62145,285.769186 1648.92145,285.409186 1649.06145,284.709186 C1648.70145,282.929186 1648.54145,281.349186 1648.54145,279.989186 C1648.54145,278.289186 1648.76145,276.409186 1649.22145,274.349186 L1649.68145,272.189186 Z M1662.10145,280.929186 C1662.10145,279.629186 1661.48145,278.569186 1660.28145,277.769186 C1659.80145,277.449186 1659.28145,277.289186 1658.72145,277.289186 C1658.52145,277.009186 1658.18145,276.849186 1657.68145,276.849186 C1657.20145,276.849186 1656.68145,277.209186 1656.12145,277.929186 C1655.52145,278.709186 1655.18145,279.549186 1655.06145,280.469186 C1654.52145,280.369186 1654.02145,280.289186 1653.58145,280.209186 C1653.78145,279.129186 1653.92145,278.289186 1654.04145,277.689186 C1654.12145,277.409186 1654.18145,277.169186 1654.22145,277.009186 C1654.22145,276.469186 1653.96145,276.189186 1653.44145,276.189186 C1653.28145,276.189186 1653.16145,276.229186 1653.08145,276.289186 C1652.84145,276.449186 1652.62145,277.029186 1652.46145,278.029186 C1652.34145,278.709186 1652.24145,279.389186 1652.16145,280.069186 C1651.92145,280.189186 1651.80145,280.369186 1651.80145,280.569186 C1651.80145,280.669186 1651.86145,280.849186 1651.98145,281.109186 C1651.82145,282.509186 1651.74145,283.509186 1651.74145,284.069186 C1651.74145,284.369186 1651.80145,284.649186 1651.96145,284.949186 C1652.16145,285.309186 1652.42145,285.489186 1652.72145,285.489186 C1653.14145,285.489186 1653.36145,285.229186 1653.36145,284.749186 C1653.36145,284.629186 1653.32145,284.509186 1653.26145,284.349186 C1653.18145,284.189186 1653.16145,284.109186 1653.16145,284.069186 C1653.16145,283.449186 1653.22145,282.669186 1653.34145,281.709186 C1653.62145,281.749186 1653.82145,281.749186 1653.94145,281.749186 C1654.18145,281.749186 1654.54145,281.689186 1655.04145,281.529186 C1655.12145,282.649186 1655.52145,283.529186 1656.24145,284.209186 C1656.92145,284.869186 1657.78145,285.209186 1658.86145,285.209186 C1659.64145,285.209186 1660.38145,284.769186 1661.08145,283.889186 C1661.76145,283.009186 1662.10145,282.029186 1662.10145,280.929186 L1662.10145,280.929186 Z M1660.68145,280.409186 C1660.68145,280.969186 1660.58145,281.429186 1660.42145,281.789186 C1660.30145,282.029186 1660.18145,282.289186 1660.10145,282.569186 C1660.00145,282.889186 1659.80145,283.149186 1659.48145,283.369186 C1659.16145,283.609186 1658.84145,283.709186 1658.52145,283.709186 C1658.00145,283.709186 1657.54145,283.469186 1657.14145,282.949186 C1656.74145,282.449186 1656.54145,281.889186 1656.54145,281.249186 C1656.54145,280.589186 1656.70145,279.949186 1657.06145,279.309186 C1657.42145,278.669186 1657.84145,278.289186 1658.32145,278.129186 C1658.42145,278.449186 1658.72145,278.649186 1659.20145,278.749186 C1659.58145,278.829186 1659.92145,279.049186 1660.22145,279.369186 C1660.52145,279.729186 1660.68145,280.069186 1660.68145,280.409186 L1660.68145,280.409186 Z M1672.10145,280.869186 C1672.10145,279.769186 1671.82145,278.869186 1671.30145,278.169186 C1670.70145,277.389186 1669.88145,276.989186 1668.82145,276.989186 C1667.86145,276.989186 1666.80145,277.489186 1665.68145,278.469186 C1666.00145,276.429186 1667.36145,274.989186 1669.80145,274.189186 C1670.50145,273.949186 1670.86145,273.609186 1670.86145,273.129186 C1670.86145,272.789186 1670.74145,272.429186 1670.54145,272.049186 C1670.30145,271.689186 1670.04145,271.489186 1669.76145,271.489186 C1669.50145,271.489186 1669.36145,271.669186 1669.34145,272.009186 C1669.30145,272.409186 1669.28145,272.609186 1669.26145,272.649186 C1669.20145,272.749186 1669.00145,272.869186 1668.66145,273.009186 C1665.50145,274.289186 1663.94145,276.669186 1663.94145,280.169186 C1663.94145,281.669186 1664.24145,282.889186 1664.88145,283.849186 C1665.58145,284.849186 1666.56145,285.369186 1667.82145,285.369186 C1668.94145,285.369186 1669.92145,284.929186 1670.80145,284.069186 C1671.66145,283.189186 1672.10145,282.129186 1672.10145,280.869186 L1672.10145,280.869186 Z M1670.66145,280.409186 C1670.66145,281.369186 1670.38145,282.169186 1669.84145,282.849186 C1669.28145,283.529186 1668.58145,283.869186 1667.78145,283.869186 C1667.14145,283.869186 1666.60145,283.589186 1666.20145,282.989186 C1665.80145,282.389186 1665.60145,281.649186 1665.60145,280.749186 C1665.60145,280.649186 1665.60145,280.509186 1665.62145,280.309186 C1666.12145,280.249186 1666.40145,280.029186 1666.46145,279.669186 C1667.38145,278.909186 1668.22145,278.509186 1668.94145,278.509186 C1669.38145,278.509186 1669.78145,278.709186 1670.14145,279.069186 C1670.48145,279.469186 1670.66145,279.909186 1670.66145,280.409186 L1670.66145,280.409186 Z M1682.22145,277.449186 C1682.22145,277.149186 1682.12145,276.889186 1681.92145,276.649186 C1681.74145,276.429186 1681.52145,276.309186 1681.24145,276.309186 C1681.12145,276.309186 1680.88145,276.429186 1680.52145,276.629186 C1680.16145,276.849186 1679.28145,277.029186 1677.86145,277.189186 C1677.54145,276.929186 1677.28145,276.789186 1677.10145,276.789186 C1676.88145,276.789186 1676.64145,276.909186 1676.40145,277.149186 C1676.16145,277.389186 1676.04145,277.649186 1676.04145,277.889186 C1676.04145,278.049186 1676.12145,278.249186 1676.28145,278.469186 C1676.42145,278.709186 1676.50145,278.969186 1676.50145,279.269186 C1676.50145,280.509186 1676.40145,281.529186 1676.20145,282.369186 C1675.94145,283.349186 1675.60145,283.829186 1675.20145,283.829186 C1675.04145,283.829186 1674.92145,283.589186 1674.88145,283.069186 C1674.84145,282.869186 1674.76145,282.749186 1674.60145,282.749186 C1674.32145,282.749186 1674.12145,282.889186 1673.98145,283.129186 C1673.80145,283.409186 1673.72145,283.729186 1673.72145,284.069186 C1673.72145,284.449186 1673.86145,284.729186 1674.16145,284.949186 C1674.44145,285.149186 1674.76145,285.269186 1675.12145,285.269186 C1676.16145,285.269186 1676.90145,284.589186 1677.34145,283.269186 C1677.62145,282.429186 1677.86145,280.909186 1678.06145,278.709186 C1678.56145,278.589186 1679.32145,278.429186 1680.36145,278.249186 C1680.16145,280.209186 1680.06145,281.689186 1680.06145,282.689186 C1680.06145,284.009186 1680.14145,284.829186 1680.32145,285.169186 C1680.50145,285.509186 1680.76145,285.689186 1681.08145,285.689186 C1681.60145,285.689186 1681.86145,285.369186 1681.86145,284.769186 C1681.78145,284.409186 1681.74145,284.089186 1681.70145,283.809186 C1681.60145,283.129186 1681.56145,282.549186 1681.56145,282.049186 C1681.56145,280.969186 1681.72145,279.709186 1682.06145,278.269186 C1682.16145,277.789186 1682.22145,277.529186 1682.22145,277.449186 L1682.22145,277.449186 Z M1694.62145,280.929186 C1694.62145,279.629186 1694.00145,278.569186 1692.80145,277.769186 C1692.32145,277.449186 1691.80145,277.289186 1691.24145,277.289186 C1691.04145,277.009186 1690.70145,276.849186 1690.20145,276.849186 C1689.72145,276.849186 1689.20145,277.209186 1688.64145,277.929186 C1688.04145,278.709186 1687.70145,279.549186 1687.58145,280.469186 C1687.04145,280.369186 1686.54145,280.289186 1686.10145,280.209186 C1686.30145,279.129186 1686.44145,278.289186 1686.56145,277.689186 C1686.64145,277.409186 1686.70145,277.169186 1686.74145,277.009186 C1686.74145,276.469186 1686.48145,276.189186 1685.96145,276.189186 C1685.80145,276.189186 1685.68145,276.229186 1685.60145,276.289186 C1685.36145,276.449186 1685.14145,277.029186 1684.98145,278.029186 C1684.86145,278.709186 1684.76145,279.389186 1684.68145,280.069186 C1684.44145,280.189186 1684.32145,280.369186 1684.32145,280.569186 C1684.32145,280.669186 1684.38145,280.849186 1684.50145,281.109186 C1684.34145,282.509186 1684.26145,283.509186 1684.26145,284.069186 C1684.26145,284.369186 1684.32145,284.649186 1684.48145,284.949186 C1684.68145,285.309186 1684.94145,285.489186 1685.24145,285.489186 C1685.66145,285.489186 1685.88145,285.229186 1685.88145,284.749186 C1685.88145,284.629186 1685.84145,284.509186 1685.78145,284.349186 C1685.70145,284.189186 1685.68145,284.109186 1685.68145,284.069186 C1685.68145,283.449186 1685.74145,282.669186 1685.86145,281.709186 C1686.14145,281.749186 1686.34145,281.749186 1686.46145,281.749186 C1686.70145,281.749186 1687.06145,281.689186 1687.56145,281.529186 C1687.64145,282.649186 1688.04145,283.529186 1688.76145,284.209186 C1689.44145,284.869186 1690.30145,285.209186 1691.38145,285.209186 C1692.16145,285.209186 1692.90145,284.769186 1693.60145,283.889186 C1694.28145,283.009186 1694.62145,282.029186 1694.62145,280.929186 L1694.62145,280.929186 Z M1693.20145,280.409186 C1693.20145,280.969186 1693.10145,281.429186 1692.94145,281.789186 C1692.82145,282.029186 1692.70145,282.289186 1692.62145,282.569186 C1692.52145,282.889186 1692.32145,283.149186 1692.00145,283.369186 C1691.68145,283.609186 1691.36145,283.709186 1691.04145,283.709186 C1690.52145,283.709186 1690.06145,283.469186 1689.66145,282.949186 C1689.26145,282.449186 1689.06145,281.889186 1689.06145,281.249186 C1689.06145,280.589186 1689.22145,279.949186 1689.58145,279.309186 C1689.94145,278.669186 1690.36145,278.289186 1690.84145,278.129186 C1690.94145,278.449186 1691.24145,278.649186 1691.72145,278.749186 C1692.10145,278.829186 1692.44145,279.049186 1692.74145,279.369186 C1693.04145,279.729186 1693.20145,280.069186 1693.20145,280.409186 L1693.20145,280.409186 Z M1644.32145,300.609186 C1644.32145,299.649186 1644.10145,298.849186 1643.66145,298.209186 C1643.18145,297.509186 1642.48145,297.149186 1641.60145,297.149186 C1640.34145,297.149186 1639.36145,298.029186 1638.66145,299.789186 C1638.18145,301.009186 1637.94145,302.409186 1637.94145,303.969186 C1637.94145,304.169186 1637.94145,304.329186 1637.96145,304.429186 C1637.40145,304.629186 1637.14145,304.929186 1637.14145,305.349186 C1637.14145,305.869186 1637.40145,306.149186 1637.96145,306.189186 C1638.00145,306.509186 1638.02145,306.989186 1638.02145,307.629186 C1638.02145,308.909186 1637.94145,309.809186 1637.82145,310.369186 C1637.68145,310.909186 1637.62145,311.209186 1637.62145,311.269186 C1637.62145,311.489186 1637.70145,311.689186 1637.86145,311.869186 C1638.02145,312.029186 1638.22145,312.129186 1638.44145,312.129186 C1638.86145,312.129186 1639.16145,311.709186 1639.34145,310.889186 C1639.54145,309.969186 1639.64145,309.029186 1639.64145,308.109186 C1639.64145,307.269186 1639.60145,306.449186 1639.54145,305.649186 C1642.72145,304.489186 1644.32145,302.809186 1644.32145,300.609186 L1644.32145,300.609186 Z M1642.72145,300.269186 C1642.72145,301.909186 1641.66145,303.109186 1639.56145,303.869186 C1639.56145,302.789186 1639.74145,301.689186 1640.12145,300.609186 C1640.54145,299.429186 1641.04145,298.829186 1641.60145,298.829186 C1641.94145,298.829186 1642.22145,298.989186 1642.44145,299.269186 C1642.62145,299.549186 1642.72145,299.889186 1642.72145,300.269186 L1642.72145,300.269186 Z M1653.56145,302.889186 C1653.56145,302.709186 1653.46145,302.509186 1653.30145,302.309186 C1653.30145,301.849186 1653.22145,301.449186 1653.10145,301.089186 C1653.12145,301.009186 1653.14145,300.909186 1653.14145,300.809186 C1653.14145,300.569186 1653.00145,300.329186 1652.76145,300.129186 C1652.50145,299.929186 1652.24145,299.809186 1651.98145,299.809186 C1650.88145,299.809186 1649.68145,300.449186 1648.36145,301.689186 C1646.98145,302.969186 1646.30145,304.209186 1646.30145,305.369186 C1646.30145,305.989186 1646.50145,306.529186 1646.94145,307.009186 C1647.36145,307.509186 1647.86145,307.749186 1648.44145,307.749186 C1649.34145,307.749186 1650.34145,307.189186 1651.46145,306.069186 C1651.56145,307.589186 1651.90145,308.369186 1652.48145,308.369186 C1652.68145,308.369186 1652.88145,308.289186 1653.06145,308.169186 C1653.22145,308.009186 1653.32145,307.809186 1653.32145,307.609186 C1653.32145,307.549186 1653.26145,307.309186 1653.18145,306.829186 C1653.08145,306.369186 1653.04145,306.009186 1653.04145,305.769186 C1653.04145,304.969186 1653.16145,304.169186 1653.44145,303.329186 C1653.52145,303.109186 1653.56145,302.969186 1653.56145,302.889186 L1653.56145,302.889186 Z M1651.74145,302.309186 C1651.74145,302.989186 1651.34145,303.789186 1650.58145,304.709186 C1649.82145,305.629186 1649.12145,306.069186 1648.52145,306.069186 C1648.10145,306.069186 1647.90145,305.829186 1647.90145,305.329186 C1647.90145,304.689186 1648.40145,303.889186 1649.42145,302.909186 C1650.34145,302.029186 1651.00145,301.569186 1651.38145,301.569186 C1651.62145,301.569186 1651.74145,301.829186 1651.74145,302.309186 L1651.74145,302.309186 Z M1661.78145,305.689186 C1661.78145,305.489186 1661.70145,305.289186 1661.54145,305.089186 C1661.38145,304.929186 1661.20145,304.829186 1661.00145,304.829186 C1660.84145,304.829186 1660.60145,304.969186 1660.32145,305.229186 C1660.08145,305.429186 1659.84145,305.629186 1659.64145,305.829186 C1659.30145,306.089186 1658.88145,306.209186 1658.38145,306.209186 C1657.58145,306.209186 1657.20145,305.729186 1657.20145,304.729186 C1657.20145,304.109186 1657.38145,303.489186 1657.74145,302.889186 C1658.10145,302.289186 1658.54145,301.789186 1659.08145,301.429186 C1659.32145,301.569186 1659.68145,301.629186 1660.18145,301.629186 C1660.44145,301.629186 1660.70145,301.529186 1660.96145,301.289186 C1661.18145,301.049186 1661.30145,300.829186 1661.30145,300.589186 C1661.30145,300.269186 1661.18145,300.029186 1660.94145,299.829186 C1660.68145,299.649186 1660.40145,299.549186 1660.10145,299.549186 C1658.84145,299.549186 1657.72145,300.209186 1656.76145,301.509186 C1655.98145,302.549186 1655.60145,303.689186 1655.60145,304.929186 C1655.60145,305.809186 1655.88145,306.509186 1656.44145,307.069186 C1657.00145,307.609186 1657.70145,307.889186 1658.54145,307.889186 C1659.30145,307.889186 1660.08145,307.589186 1660.84145,306.989186 C1661.46145,306.509186 1661.78145,306.089186 1661.78145,305.689186 L1661.78145,305.689186 Z M1671.66145,299.209186 C1671.66145,299.009186 1671.58145,298.809186 1671.44145,298.629186 C1671.30145,298.469186 1671.14145,298.369186 1670.96145,298.369186 C1670.66145,298.369186 1670.24145,298.449186 1669.68145,298.569186 C1667.48145,299.089186 1665.52145,299.549186 1663.84145,299.949186 C1663.72145,299.989186 1663.64145,299.989186 1663.60145,299.989186 C1663.20145,300.069186 1663.00145,300.369186 1663.00145,300.869186 C1663.00145,301.429186 1663.22145,301.689186 1663.70145,301.689186 C1664.28145,301.569186 1664.74145,301.469186 1665.06145,301.369186 C1665.64145,301.249186 1666.14145,301.129186 1666.56145,301.049186 C1666.48145,302.589186 1666.44145,304.069186 1666.44145,305.469186 C1666.44145,306.829186 1666.52145,307.769186 1666.68145,308.289186 C1666.80145,308.649186 1667.04145,308.829186 1667.44145,308.829186 C1667.96145,308.829186 1668.22145,308.349186 1668.22145,307.409186 C1668.22145,306.949186 1668.12145,306.609186 1667.96145,306.389186 C1667.92145,305.889186 1667.90145,305.109186 1667.90145,304.029186 C1667.90145,303.189186 1667.96145,302.049186 1668.12145,300.629186 C1668.70145,300.489186 1669.10145,300.389186 1669.34145,300.349186 C1669.52145,300.469186 1669.66145,300.509186 1669.76145,300.509186 C1669.88145,300.509186 1670.02145,300.489186 1670.20145,300.409186 L1671.12145,299.989186 C1671.48145,299.829186 1671.66145,299.569186 1671.66145,299.209186 L1671.66145,299.209186 Z M1680.30145,307.649186 C1680.30145,307.509186 1680.20145,307.329186 1680.02145,307.129186 C1679.58145,306.649186 1679.38145,305.429186 1679.38145,303.469186 C1679.38145,302.769186 1679.48145,301.589186 1679.70145,299.929186 C1679.70145,299.709186 1679.60145,299.509186 1679.44145,299.309186 C1679.26145,299.129186 1679.06145,299.029186 1678.84145,299.029186 C1678.50145,299.029186 1677.78145,299.769186 1676.70145,301.249186 C1675.82145,302.409186 1675.10145,303.469186 1674.50145,304.389186 C1674.64145,302.829186 1674.74145,301.689186 1674.80145,301.009186 C1674.80145,300.689186 1674.68145,300.409186 1674.48145,300.169186 C1674.28145,299.949186 1674.02145,299.829186 1673.70145,299.829186 C1673.52145,299.829186 1673.36145,299.949186 1673.20145,300.169186 C1673.24145,300.749186 1673.28145,301.089186 1673.28145,301.169186 C1673.28145,301.529186 1673.22145,302.429186 1673.12145,303.889186 L1673.08145,304.469186 C1673.06145,304.769186 1673.02145,305.169186 1672.98145,305.669186 C1672.92145,306.149186 1672.88145,306.449186 1672.88145,306.569186 C1672.90145,306.849186 1672.98145,307.069186 1673.14145,307.189186 C1673.46145,307.509186 1673.66145,307.649186 1673.74145,307.649186 C1674.02145,307.649186 1674.36145,307.349186 1674.72145,306.709186 C1675.46145,305.469186 1675.98145,304.589186 1676.30145,304.109186 C1676.82145,303.249186 1677.38145,302.449186 1678.00145,301.729186 C1678.00145,301.929186 1677.98145,302.349186 1677.98145,302.969186 C1677.96145,303.609186 1677.96145,303.949186 1677.96145,304.029186 C1677.96145,305.069186 1678.06145,305.949186 1678.28145,306.709186 C1678.58145,307.809186 1679.02145,308.369186 1679.58145,308.369186 C1679.70145,308.369186 1679.86145,308.269186 1680.04145,308.109186 C1680.20145,307.909186 1680.30145,307.769186 1680.30145,307.649186 L1680.30145,307.649186 Z M1690.38145,299.209186 C1690.38145,299.009186 1690.30145,298.809186 1690.16145,298.629186 C1690.02145,298.469186 1689.86145,298.369186 1689.68145,298.369186 C1689.38145,298.369186 1688.96145,298.449186 1688.40145,298.569186 C1686.20145,299.089186 1684.24145,299.549186 1682.56145,299.949186 C1682.44145,299.989186 1682.36145,299.989186 1682.32145,299.989186 C1681.92145,300.069186 1681.72145,300.369186 1681.72145,300.869186 C1681.72145,301.429186 1681.94145,301.689186 1682.42145,301.689186 C1683.00145,301.569186 1683.46145,301.469186 1683.78145,301.369186 C1684.36145,301.249186 1684.86145,301.129186 1685.28145,301.049186 C1685.20145,302.589186 1685.16145,304.069186 1685.16145,305.469186 C1685.16145,306.829186 1685.24145,307.769186 1685.40145,308.289186 C1685.52145,308.649186 1685.76145,308.829186 1686.16145,308.829186 C1686.68145,308.829186 1686.94145,308.349186 1686.94145,307.409186 C1686.94145,306.949186 1686.84145,306.609186 1686.68145,306.389186 C1686.64145,305.889186 1686.62145,305.109186 1686.62145,304.029186 C1686.62145,303.189186 1686.68145,302.049186 1686.84145,300.629186 C1687.42145,300.489186 1687.82145,300.389186 1688.06145,300.349186 C1688.24145,300.469186 1688.38145,300.509186 1688.48145,300.509186 C1688.60145,300.509186 1688.74145,300.489186 1688.92145,300.409186 L1689.84145,299.989186 C1690.20145,299.829186 1690.38145,299.569186 1690.38145,299.209186 L1690.38145,299.209186 Z M1699.54145,307.169186 C1699.54145,306.969186 1699.46145,306.769186 1699.30145,306.569186 C1699.14145,306.409186 1698.94145,306.309186 1698.74145,306.309186 C1698.58145,306.309186 1698.32145,306.349186 1697.98145,306.389186 C1697.64145,306.429186 1697.38145,306.449186 1697.22145,306.449186 C1696.62145,306.449186 1696.10145,306.169186 1695.62145,305.589186 C1697.62145,304.509186 1698.62145,303.229186 1698.62145,301.749186 C1698.62145,301.189186 1698.38145,300.649186 1697.90145,300.169186 C1697.42145,299.689186 1696.94145,299.449186 1696.44145,299.449186 C1695.58145,299.449186 1694.88145,299.949186 1694.32145,300.929186 C1693.84145,301.769186 1693.60145,302.669186 1693.60145,303.629186 C1693.60145,303.829186 1693.62145,304.109186 1693.68145,304.449186 L1693.22145,304.449186 C1692.94145,304.449186 1692.68145,304.349186 1692.40145,304.149186 C1692.12145,303.949186 1691.92145,303.849186 1691.80145,303.849186 C1691.28145,303.849186 1691.02145,304.129186 1691.02145,304.689186 C1691.02145,305.129186 1691.34145,305.489186 1692.02145,305.769186 C1692.54145,305.989186 1693.04145,306.089186 1693.56145,306.089186 L1694.16145,306.089186 C1694.88145,307.469186 1696.00145,308.149186 1697.52145,308.149186 C1698.86145,308.149186 1699.54145,307.809186 1699.54145,307.169186 L1699.54145,307.169186 Z M1697.04145,301.829186 C1697.04145,302.489186 1696.44145,303.209186 1695.24145,303.989186 L1695.24145,303.629186 C1695.24145,303.089186 1695.32145,302.569186 1695.52145,302.069186 C1695.72145,301.469186 1696.00145,301.169186 1696.36145,301.169186 C1696.52145,301.169186 1696.68145,301.249186 1696.84145,301.369186 C1696.96145,301.529186 1697.04145,301.669186 1697.04145,301.829186 L1697.04145,301.829186 Z M1709.10145,300.449186 C1709.10145,300.149186 1709.00145,299.889186 1708.80145,299.649186 C1708.62145,299.429186 1708.40145,299.309186 1708.12145,299.309186 C1708.00145,299.309186 1707.76145,299.429186 1707.40145,299.629186 C1707.04145,299.849186 1706.16145,300.029186 1704.74145,300.189186 C1704.42145,299.929186 1704.16145,299.789186 1703.98145,299.789186 C1703.76145,299.789186 1703.52145,299.909186 1703.28145,300.149186 C1703.04145,300.389186 1702.92145,300.649186 1702.92145,300.889186 C1702.92145,301.049186 1703.00145,301.249186 1703.16145,301.469186 C1703.30145,301.709186 1703.38145,301.969186 1703.38145,302.269186 C1703.38145,303.509186 1703.28145,304.529186 1703.08145,305.369186 C1702.82145,306.349186 1702.48145,306.829186 1702.08145,306.829186 C1701.92145,306.829186 1701.80145,306.589186 1701.76145,306.069186 C1701.72145,305.869186 1701.64145,305.749186 1701.48145,305.749186 C1701.20145,305.749186 1701.00145,305.889186 1700.86145,306.129186 C1700.68145,306.409186 1700.60145,306.729186 1700.60145,307.069186 C1700.60145,307.449186 1700.74145,307.729186 1701.04145,307.949186 C1701.32145,308.149186 1701.64145,308.269186 1702.00145,308.269186 C1703.04145,308.269186 1703.78145,307.589186 1704.22145,306.269186 C1704.50145,305.429186 1704.74145,303.909186 1704.94145,301.709186 C1705.44145,301.589186 1706.20145,301.429186 1707.24145,301.249186 C1707.04145,303.209186 1706.94145,304.689186 1706.94145,305.689186 C1706.94145,307.009186 1707.02145,307.829186 1707.20145,308.169186 C1707.38145,308.509186 1707.64145,308.689186 1707.96145,308.689186 C1708.48145,308.689186 1708.74145,308.369186 1708.74145,307.769186 C1708.66145,307.409186 1708.62145,307.089186 1708.58145,306.809186 C1708.48145,306.129186 1708.44145,305.549186 1708.44145,305.049186 C1708.44145,303.969186 1708.60145,302.709186 1708.94145,301.269186 C1709.04145,300.789186 1709.10145,300.529186 1709.10145,300.449186 L1709.10145,300.449186 Z M1717.20145,305.109186 C1717.20145,304.289186 1716.92145,303.629186 1716.38145,303.129186 C1715.88145,302.669186 1715.24145,302.429186 1714.44145,302.429186 C1714.00145,302.429186 1713.56145,302.549186 1713.12145,302.789186 C1713.20145,302.049186 1713.26145,301.389186 1713.32145,300.829186 C1713.42145,300.189186 1713.48145,299.689186 1713.52145,299.329186 C1713.44145,298.749186 1713.20145,298.449186 1712.76145,298.449186 C1712.24145,298.449186 1711.96145,298.849186 1711.90145,299.629186 C1711.58145,302.789186 1711.34145,305.469186 1711.14145,307.669186 C1711.16145,308.369186 1711.42145,308.729186 1711.94145,308.729186 C1712.26145,308.729186 1712.48145,308.589186 1712.60145,308.329186 C1712.82145,308.389186 1713.02145,308.429186 1713.22145,308.429186 C1714.10145,308.429186 1714.96145,308.109186 1715.80145,307.489186 C1716.72145,306.809186 1717.20145,306.029186 1717.20145,305.109186 L1717.20145,305.109186 Z M1715.68145,304.869186 C1715.68145,305.469186 1715.36145,306.009186 1714.76145,306.469186 C1714.20145,306.909186 1713.66145,307.129186 1713.14145,307.129186 C1713.06145,307.129186 1712.92145,307.109186 1712.76145,307.069186 L1712.94145,304.769186 C1713.30145,304.169186 1713.78145,303.849186 1714.40145,303.849186 C1714.72145,303.849186 1715.00145,303.949186 1715.28145,304.149186 C1715.54145,304.349186 1715.68145,304.589186 1715.68145,304.869186 L1715.68145,304.869186 Z M1725.70145,300.129186 C1725.70145,299.609186 1725.46145,299.349186 1724.98145,299.349186 C1724.58145,299.349186 1724.32145,299.709186 1724.22145,300.389186 C1724.12145,300.929186 1724.00145,301.689186 1723.88145,302.669186 C1723.00145,302.889186 1722.14145,303.049186 1721.30145,303.129186 C1721.50145,301.849186 1721.70145,300.889186 1721.90145,300.229186 C1722.02145,299.869186 1722.12145,299.589186 1722.22145,299.349186 C1722.18145,298.809186 1721.94145,298.529186 1721.46145,298.529186 C1721.12145,298.529186 1720.90145,298.689186 1720.78145,299.009186 C1720.38145,299.969186 1720.06145,301.349186 1719.86145,303.149186 C1719.54145,303.149186 1719.32145,303.129186 1719.20145,303.109186 C1718.80145,303.109186 1718.62145,303.349186 1718.62145,303.789186 C1718.62145,304.289186 1718.90145,304.529186 1719.48145,304.529186 L1719.72145,304.529186 C1719.66145,305.289186 1719.60145,306.149186 1719.56145,307.149186 C1719.56145,307.209186 1719.54145,307.309186 1719.52145,307.429186 C1719.48145,307.549186 1719.48145,307.629186 1719.48145,307.709186 C1719.48145,307.909186 1719.56145,308.089186 1719.72145,308.249186 C1719.88145,308.409186 1720.06145,308.489186 1720.26145,308.489186 C1720.74145,308.489186 1721.00145,308.229186 1721.02145,307.729186 C1721.02145,307.049186 1721.08145,305.969186 1721.18145,304.489186 C1722.04145,304.409186 1722.88145,304.269186 1723.72145,304.069186 C1723.62145,305.129186 1723.56145,305.969186 1723.56145,306.569186 C1723.56145,306.629186 1723.54145,306.709186 1723.52145,306.829186 C1723.48145,306.929186 1723.46145,307.009186 1723.46145,307.069186 C1723.46145,307.549186 1723.52145,307.909186 1723.68145,308.149186 C1723.84145,308.409186 1724.02145,308.549186 1724.26145,308.549186 C1724.46145,308.549186 1724.64145,308.469186 1724.80145,308.309186 C1724.94145,308.149186 1725.02145,307.949186 1725.02145,307.729186 C1725.02145,307.689186 1725.00145,307.589186 1725.00145,307.389186 C1724.98145,307.189186 1724.98145,307.029186 1724.98145,306.949186 C1724.98145,305.609186 1725.18145,303.549186 1725.62145,300.769186 C1725.66145,300.409186 1725.70145,300.209186 1725.70145,300.129186 L1725.70145,300.129186 Z M1737.28145,299.569186 C1737.28145,299.369186 1737.22145,299.189186 1737.10145,299.009186 C1736.94145,298.829186 1736.76145,298.729186 1736.54145,298.729186 C1736.16145,298.729186 1735.84145,299.069186 1735.58145,299.709186 C1735.32145,300.389186 1735.20145,300.869186 1735.20145,301.149186 C1735.20145,301.329186 1735.30145,301.509186 1735.50145,301.689186 L1735.14145,304.469186 C1734.90145,306.129186 1734.80145,307.129186 1734.80145,307.489186 C1734.80145,308.329186 1735.10145,308.769186 1735.72145,308.769186 C1735.94145,308.769186 1736.12145,308.669186 1736.26145,308.509186 C1736.42145,308.329186 1736.50145,308.129186 1736.50145,307.909186 C1736.50145,307.669186 1736.44145,307.489186 1736.34145,307.349186 C1736.36145,306.549186 1736.44145,305.729186 1736.56145,304.909186 C1736.68145,304.089186 1736.82145,303.269186 1736.94145,302.429186 C1737.16145,300.949186 1737.28145,299.989186 1737.28145,299.569186 L1737.28145,299.569186 Z M1733.80145,305.109186 C1733.80145,304.289186 1733.52145,303.629186 1732.98145,303.129186 C1732.48145,302.669186 1731.84145,302.429186 1731.04145,302.429186 C1730.60145,302.429186 1730.16145,302.549186 1729.72145,302.789186 C1729.80145,302.049186 1729.86145,301.389186 1729.92145,300.829186 C1730.02145,300.189186 1730.08145,299.689186 1730.12145,299.329186 C1730.04145,298.749186 1729.80145,298.449186 1729.36145,298.449186 C1728.84145,298.449186 1728.56145,298.849186 1728.50145,299.629186 C1728.18145,302.789186 1727.94145,305.469186 1727.74145,307.669186 C1727.76145,308.369186 1728.02145,308.729186 1728.54145,308.729186 C1728.86145,308.729186 1729.08145,308.589186 1729.20145,308.329186 C1729.42145,308.389186 1729.62145,308.429186 1729.82145,308.429186 C1730.70145,308.429186 1731.56145,308.109186 1732.40145,307.489186 C1733.32145,306.809186 1733.80145,306.029186 1733.80145,305.109186 L1733.80145,305.109186 Z M1732.28145,304.869186 C1732.28145,305.469186 1731.96145,306.009186 1731.36145,306.469186 C1730.80145,306.909186 1730.26145,307.129186 1729.74145,307.129186 C1729.66145,307.129186 1729.52145,307.109186 1729.36145,307.069186 L1729.54145,304.769186 C1729.90145,304.169186 1730.38145,303.849186 1731.00145,303.849186 C1731.32145,303.849186 1731.60145,303.949186 1731.88145,304.149186 C1732.14145,304.349186 1732.28145,304.589186 1732.28145,304.869186 L1732.28145,304.869186 Z M1745.04145,296.569186 C1745.04145,296.309186 1744.90145,296.069186 1744.64145,295.849186 C1744.34145,295.649186 1744.06145,295.549186 1743.82145,295.549186 C1743.68145,295.549186 1743.58145,295.589186 1743.52145,295.669186 C1743.72145,296.029186 1743.82145,296.269186 1743.82145,296.349186 C1743.82145,296.589186 1743.68145,296.869186 1743.44145,297.189186 C1743.16145,297.529186 1742.92145,297.689186 1742.72145,297.689186 C1742.60145,297.689186 1742.52145,297.549186 1742.44145,297.269186 L1742.06145,296.109186 C1741.86145,295.709186 1741.54145,295.509186 1741.10145,295.509186 C1741.02145,295.509186 1740.94145,295.569186 1740.86145,295.649186 C1740.76145,295.769186 1740.72145,295.849186 1740.72145,295.889186 C1740.72145,296.389186 1741.04145,297.129186 1741.70145,298.109186 C1742.02145,298.589186 1742.36145,298.829186 1742.74145,298.829186 C1743.16145,298.829186 1743.66145,298.569186 1744.22145,298.009186 C1744.76145,297.489186 1745.04145,297.009186 1745.04145,296.569186 L1745.04145,296.569186 Z M1746.74145,307.649186 C1746.74145,307.509186 1746.64145,307.329186 1746.46145,307.129186 C1746.02145,306.649186 1745.82145,305.429186 1745.82145,303.469186 C1745.82145,302.769186 1745.92145,301.589186 1746.14145,299.929186 C1746.14145,299.709186 1746.04145,299.509186 1745.88145,299.309186 C1745.70145,299.129186 1745.50145,299.029186 1745.28145,299.029186 C1744.94145,299.029186 1744.22145,299.769186 1743.14145,301.249186 C1742.26145,302.409186 1741.54145,303.469186 1740.94145,304.389186 C1741.08145,302.829186 1741.18145,301.689186 1741.24145,301.009186 C1741.24145,300.689186 1741.12145,300.409186 1740.92145,300.169186 C1740.72145,299.949186 1740.46145,299.829186 1740.14145,299.829186 C1739.96145,299.829186 1739.80145,299.949186 1739.64145,300.169186 C1739.68145,300.749186 1739.72145,301.089186 1739.72145,301.169186 C1739.72145,301.529186 1739.66145,302.429186 1739.56145,303.889186 L1739.52145,304.469186 C1739.50145,304.769186 1739.46145,305.169186 1739.42145,305.669186 C1739.36145,306.149186 1739.32145,306.449186 1739.32145,306.569186 C1739.34145,306.849186 1739.42145,307.069186 1739.58145,307.189186 C1739.90145,307.509186 1740.10145,307.649186 1740.18145,307.649186 C1740.46145,307.649186 1740.80145,307.349186 1741.16145,306.709186 C1741.90145,305.469186 1742.42145,304.589186 1742.74145,304.109186 C1743.26145,303.249186 1743.82145,302.449186 1744.44145,301.729186 C1744.44145,301.929186 1744.42145,302.349186 1744.42145,302.969186 C1744.40145,303.609186 1744.40145,303.949186 1744.40145,304.029186 C1744.40145,305.069186 1744.50145,305.949186 1744.72145,306.709186 C1745.02145,307.809186 1745.46145,308.369186 1746.02145,308.369186 C1746.14145,308.369186 1746.30145,308.269186 1746.48145,308.109186 C1746.64145,307.909186 1746.74145,307.769186 1746.74145,307.649186 L1746.74145,307.649186 Z M1764.36145,308.349186 C1764.36145,308.169186 1764.30145,307.969186 1764.18145,307.729186 C1764.06145,307.489186 1763.92145,307.329186 1763.78145,307.209186 C1763.46145,306.529186 1763.18145,305.289186 1762.94145,303.509186 C1762.78145,302.589186 1762.66145,301.569186 1762.54145,300.489186 C1762.48145,300.069186 1762.24145,299.849186 1761.82145,299.849186 C1761.44145,299.849186 1760.94145,300.669186 1760.32145,302.309186 C1760.10145,302.869186 1759.92145,303.349186 1759.76145,303.789186 C1759.22145,302.989186 1758.74145,301.789186 1758.30145,300.149186 C1758.14145,299.549186 1757.90145,299.249186 1757.60145,299.249186 C1757.22145,299.249186 1756.88145,299.709186 1756.58145,300.609186 C1756.52145,300.609186 1756.44145,300.589186 1756.34145,300.589186 C1756.20145,300.589186 1756.08145,300.649186 1756.00145,300.749186 C1755.88145,300.869186 1755.82145,301.009186 1755.82145,301.149186 C1755.82145,301.189186 1755.82145,301.309186 1755.84145,301.509186 C1755.84145,301.729186 1755.86145,301.849186 1755.86145,301.889186 C1755.86145,302.249186 1755.82145,302.749186 1755.74145,303.429186 C1755.66145,304.109186 1755.62145,304.869186 1755.62145,305.689186 C1755.62145,307.029186 1755.88145,307.689186 1756.42145,307.689186 C1756.82145,307.689186 1757.02145,307.249186 1757.06145,306.349186 C1757.12145,304.589186 1757.28145,303.129186 1757.52145,301.969186 C1758.58145,304.529186 1759.42145,305.809186 1760.02145,305.809186 C1760.22145,305.809186 1760.36145,305.729186 1760.48145,305.529186 C1760.58145,305.369186 1760.70145,305.009186 1760.86145,304.489186 C1761.12145,303.609186 1761.34145,302.909186 1761.52145,302.429186 C1761.72145,304.649186 1762.00145,306.289186 1762.38145,307.349186 C1762.80145,308.569186 1763.24145,309.189186 1763.68145,309.189186 C1763.84145,309.189186 1764.00145,309.089186 1764.14145,308.909186 C1764.28145,308.709186 1764.36145,308.529186 1764.36145,308.349186 L1764.36145,308.349186 Z M1773.20145,307.649186 C1773.20145,307.509186 1773.10145,307.329186 1772.92145,307.129186 C1772.48145,306.649186 1772.28145,305.429186 1772.28145,303.469186 C1772.28145,302.769186 1772.38145,301.589186 1772.60145,299.929186 C1772.60145,299.709186 1772.50145,299.509186 1772.34145,299.309186 C1772.16145,299.129186 1771.96145,299.029186 1771.74145,299.029186 C1771.40145,299.029186 1770.68145,299.769186 1769.60145,301.249186 C1768.72145,302.409186 1768.00145,303.469186 1767.40145,304.389186 C1767.54145,302.829186 1767.64145,301.689186 1767.70145,301.009186 C1767.70145,300.689186 1767.58145,300.409186 1767.38145,300.169186 C1767.18145,299.949186 1766.92145,299.829186 1766.60145,299.829186 C1766.42145,299.829186 1766.26145,299.949186 1766.10145,300.169186 C1766.14145,300.749186 1766.18145,301.089186 1766.18145,301.169186 C1766.18145,301.529186 1766.12145,302.429186 1766.02145,303.889186 L1765.98145,304.469186 C1765.96145,304.769186 1765.92145,305.169186 1765.88145,305.669186 C1765.82145,306.149186 1765.78145,306.449186 1765.78145,306.569186 C1765.80145,306.849186 1765.88145,307.069186 1766.04145,307.189186 C1766.36145,307.509186 1766.56145,307.649186 1766.64145,307.649186 C1766.92145,307.649186 1767.26145,307.349186 1767.62145,306.709186 C1768.36145,305.469186 1768.88145,304.589186 1769.20145,304.109186 C1769.72145,303.249186 1770.28145,302.449186 1770.90145,301.729186 C1770.90145,301.929186 1770.88145,302.349186 1770.88145,302.969186 C1770.86145,303.609186 1770.86145,303.949186 1770.86145,304.029186 C1770.86145,305.069186 1770.96145,305.949186 1771.18145,306.709186 C1771.48145,307.809186 1771.92145,308.369186 1772.48145,308.369186 C1772.60145,308.369186 1772.76145,308.269186 1772.94145,308.109186 C1773.10145,307.909186 1773.20145,307.769186 1773.20145,307.649186 L1773.20145,307.649186 Z M1782.48145,300.609186 C1782.48145,299.649186 1782.26145,298.849186 1781.82145,298.209186 C1781.34145,297.509186 1780.64145,297.149186 1779.76145,297.149186 C1778.50145,297.149186 1777.52145,298.029186 1776.82145,299.789186 C1776.34145,301.009186 1776.10145,302.409186 1776.10145,303.969186 C1776.10145,304.169186 1776.10145,304.329186 1776.12145,304.429186 C1775.56145,304.629186 1775.30145,304.929186 1775.30145,305.349186 C1775.30145,305.869186 1775.56145,306.149186 1776.12145,306.189186 C1776.16145,306.509186 1776.18145,306.989186 1776.18145,307.629186 C1776.18145,308.909186 1776.10145,309.809186 1775.98145,310.369186 C1775.84145,310.909186 1775.78145,311.209186 1775.78145,311.269186 C1775.78145,311.489186 1775.86145,311.689186 1776.02145,311.869186 C1776.18145,312.029186 1776.38145,312.129186 1776.60145,312.129186 C1777.02145,312.129186 1777.32145,311.709186 1777.50145,310.889186 C1777.70145,309.969186 1777.80145,309.029186 1777.80145,308.109186 C1777.80145,307.269186 1777.76145,306.449186 1777.70145,305.649186 C1780.88145,304.489186 1782.48145,302.809186 1782.48145,300.609186 L1782.48145,300.609186 Z M1780.88145,300.269186 C1780.88145,301.909186 1779.82145,303.109186 1777.72145,303.869186 C1777.72145,302.789186 1777.90145,301.689186 1778.28145,300.609186 C1778.70145,299.429186 1779.20145,298.829186 1779.76145,298.829186 C1780.10145,298.829186 1780.38145,298.989186 1780.60145,299.269186 C1780.78145,299.549186 1780.88145,299.889186 1780.88145,300.269186 L1780.88145,300.269186 Z M1787.46145,307.069186 C1787.46145,306.229186 1787.12145,305.789186 1786.46145,305.789186 C1786.10145,305.789186 1785.80145,305.969186 1785.52145,306.329186 C1785.22145,306.689186 1785.08145,307.049186 1785.08145,307.369186 C1785.08145,307.589186 1785.20145,307.889186 1785.46145,308.249186 C1785.72145,308.609186 1786.00145,308.809186 1786.30145,308.809186 C1786.74145,308.809186 1787.04145,308.549186 1787.20145,308.069186 C1787.36145,307.509186 1787.46145,307.169186 1787.46145,307.069186 L1787.46145,307.069186 Z M1649.66145,323.889186 C1649.66145,322.009186 1649.14145,320.429186 1648.12145,319.149186 C1647.02145,317.829186 1645.60145,317.149186 1643.84145,317.149186 C1643.32145,317.149186 1642.96145,317.189186 1642.76145,317.229186 C1642.36145,317.349186 1642.12145,317.589186 1642.00145,317.949186 C1640.48145,318.709186 1639.28145,319.609186 1638.40145,320.689186 C1637.38145,321.929186 1636.88145,323.289186 1636.88145,324.729186 C1636.88145,326.289186 1637.56145,327.629186 1638.94145,328.749186 C1640.20145,329.789186 1641.64145,330.289186 1643.28145,330.289186 C1645.04145,330.289186 1646.56145,329.689186 1647.80145,328.489186 C1649.04145,327.289186 1649.66145,325.769186 1649.66145,323.889186 L1649.66145,323.889186 Z M1648.02145,324.029186 C1648.02145,325.309186 1647.58145,326.389186 1646.72145,327.249186 C1645.84145,328.129186 1644.76145,328.549186 1643.48145,328.549186 C1642.16145,328.549186 1641.04145,328.209186 1640.10145,327.489186 C1639.04145,326.729186 1638.52145,325.709186 1638.52145,324.449186 C1638.52145,323.249186 1639.18145,322.089186 1640.52145,320.929186 C1641.76145,319.849186 1643.02145,319.209186 1644.30145,319.049186 C1644.46145,319.049186 1644.58145,319.009186 1644.70145,318.949186 C1646.90145,319.589186 1648.02145,321.269186 1648.02145,324.029186 L1648.02145,324.029186 Z M1658.18145,323.129186 C1658.18145,322.609186 1657.94145,322.349186 1657.46145,322.349186 C1657.06145,322.349186 1656.80145,322.709186 1656.70145,323.389186 C1656.60145,323.929186 1656.48145,324.689186 1656.36145,325.669186 C1655.48145,325.889186 1654.62145,326.049186 1653.78145,326.129186 C1653.98145,324.849186 1654.18145,323.889186 1654.38145,323.229186 C1654.50145,322.869186 1654.60145,322.589186 1654.70145,322.349186 C1654.66145,321.809186 1654.42145,321.529186 1653.94145,321.529186 C1653.60145,321.529186 1653.38145,321.689186 1653.26145,322.009186 C1652.86145,322.969186 1652.54145,324.349186 1652.34145,326.149186 C1652.02145,326.149186 1651.80145,326.129186 1651.68145,326.109186 C1651.28145,326.109186 1651.10145,326.349186 1651.10145,326.789186 C1651.10145,327.289186 1651.38145,327.529186 1651.96145,327.529186 L1652.20145,327.529186 C1652.14145,328.289186 1652.08145,329.149186 1652.04145,330.149186 C1652.04145,330.209186 1652.02145,330.309186 1652.00145,330.429186 C1651.96145,330.549186 1651.96145,330.629186 1651.96145,330.709186 C1651.96145,330.909186 1652.04145,331.089186 1652.20145,331.249186 C1652.36145,331.409186 1652.54145,331.489186 1652.74145,331.489186 C1653.22145,331.489186 1653.48145,331.229186 1653.50145,330.729186 C1653.50145,330.049186 1653.56145,328.969186 1653.66145,327.489186 C1654.52145,327.409186 1655.36145,327.269186 1656.20145,327.069186 C1656.10145,328.129186 1656.04145,328.969186 1656.04145,329.569186 C1656.04145,329.629186 1656.02145,329.709186 1656.00145,329.829186 C1655.96145,329.929186 1655.94145,330.009186 1655.94145,330.069186 C1655.94145,330.549186 1656.00145,330.909186 1656.16145,331.149186 C1656.32145,331.409186 1656.50145,331.549186 1656.74145,331.549186 C1656.94145,331.549186 1657.12145,331.469186 1657.28145,331.309186 C1657.42145,331.149186 1657.50145,330.949186 1657.50145,330.729186 C1657.50145,330.689186 1657.48145,330.589186 1657.48145,330.389186 C1657.46145,330.189186 1657.46145,330.029186 1657.46145,329.949186 C1657.46145,328.609186 1657.66145,326.549186 1658.10145,323.769186 C1658.14145,323.409186 1658.18145,323.209186 1658.18145,323.129186 L1658.18145,323.129186 Z M1673.90145,323.989186 C1673.90145,323.829186 1673.82145,323.649186 1673.66145,323.469186 C1673.50145,323.309186 1673.32145,323.229186 1673.16145,323.229186 C1673.00145,323.229186 1672.66145,323.349186 1672.16145,323.589186 C1671.32145,323.989186 1670.26145,324.749186 1669.02145,325.829186 C1669.30145,324.669186 1669.56145,323.749186 1669.84145,323.089186 C1670.00145,322.669186 1670.08145,322.409186 1670.08145,322.329186 C1670.08145,321.809186 1669.82145,321.549186 1669.34145,321.549186 C1669.02145,321.549186 1668.78145,321.729186 1668.62145,322.089186 C1667.64145,324.489186 1667.14145,327.129186 1667.10145,329.989186 C1667.06145,330.089186 1667.06145,330.189186 1667.06145,330.289186 C1667.06145,330.529186 1667.10145,330.749186 1667.18145,330.969186 C1667.30145,331.329186 1667.58145,331.529186 1667.98145,331.529186 C1668.42145,331.529186 1668.64145,331.269186 1668.64145,330.769186 C1668.64145,330.729186 1668.62145,330.609186 1668.62145,330.409186 C1668.60145,330.209186 1668.60145,330.069186 1668.60145,329.949186 L1668.60145,329.209186 C1668.60145,328.929186 1668.60145,328.609186 1668.64145,328.249186 C1668.78145,328.169186 1668.86145,328.129186 1668.88145,328.109186 C1669.64145,329.129186 1670.62145,330.029186 1671.80145,330.809186 C1672.16145,331.069186 1672.44145,331.209186 1672.64145,331.209186 C1673.12145,331.209186 1673.36145,330.949186 1673.36145,330.449186 C1673.36145,330.249186 1673.18145,329.969186 1672.86145,329.649186 C1672.30145,329.149186 1671.98145,328.889186 1671.86145,328.889186 C1671.82145,328.889186 1671.76145,328.909186 1671.72145,328.909186 C1670.94145,328.289186 1670.34145,327.689186 1669.94145,327.109186 C1670.90145,326.209186 1671.70145,325.569186 1672.36145,325.209186 C1672.44145,325.249186 1672.52145,325.269186 1672.62145,325.269186 C1672.88145,325.269186 1673.16145,325.129186 1673.44145,324.849186 C1673.74145,324.589186 1673.90145,324.309186 1673.90145,323.989186 L1673.90145,323.989186 Z M1682.78145,323.609186 C1682.78145,322.649186 1682.56145,321.849186 1682.12145,321.209186 C1681.64145,320.509186 1680.94145,320.149186 1680.06145,320.149186 C1678.80145,320.149186 1677.82145,321.029186 1677.12145,322.789186 C1676.64145,324.009186 1676.40145,325.409186 1676.40145,326.969186 C1676.40145,327.169186 1676.40145,327.329186 1676.42145,327.429186 C1675.86145,327.629186 1675.60145,327.929186 1675.60145,328.349186 C1675.60145,328.869186 1675.86145,329.149186 1676.42145,329.189186 C1676.46145,329.509186 1676.48145,329.989186 1676.48145,330.629186 C1676.48145,331.909186 1676.40145,332.809186 1676.28145,333.369186 C1676.14145,333.909186 1676.08145,334.209186 1676.08145,334.269186 C1676.08145,334.489186 1676.16145,334.689186 1676.32145,334.869186 C1676.48145,335.029186 1676.68145,335.129186 1676.90145,335.129186 C1677.32145,335.129186 1677.62145,334.709186 1677.80145,333.889186 C1678.00145,332.969186 1678.10145,332.029186 1678.10145,331.109186 C1678.10145,330.269186 1678.06145,329.449186 1678.00145,328.649186 C1681.18145,327.489186 1682.78145,325.809186 1682.78145,323.609186 L1682.78145,323.609186 Z M1681.18145,323.269186 C1681.18145,324.909186 1680.12145,326.109186 1678.02145,326.869186 C1678.02145,325.789186 1678.20145,324.689186 1678.58145,323.609186 C1679.00145,322.429186 1679.50145,321.829186 1680.06145,321.829186 C1680.40145,321.829186 1680.68145,321.989186 1680.90145,322.269186 C1681.08145,322.549186 1681.18145,322.889186 1681.18145,323.269186 L1681.18145,323.269186 Z M1692.02145,325.889186 C1692.02145,325.709186 1691.92145,325.509186 1691.76145,325.309186 C1691.76145,324.849186 1691.68145,324.449186 1691.56145,324.089186 C1691.58145,324.009186 1691.60145,323.909186 1691.60145,323.809186 C1691.60145,323.569186 1691.46145,323.329186 1691.22145,323.129186 C1690.96145,322.929186 1690.70145,322.809186 1690.44145,322.809186 C1689.34145,322.809186 1688.14145,323.449186 1686.82145,324.689186 C1685.44145,325.969186 1684.76145,327.209186 1684.76145,328.369186 C1684.76145,328.989186 1684.96145,329.529186 1685.40145,330.009186 C1685.82145,330.509186 1686.32145,330.749186 1686.90145,330.749186 C1687.80145,330.749186 1688.80145,330.189186 1689.92145,329.069186 C1690.02145,330.589186 1690.36145,331.369186 1690.94145,331.369186 C1691.14145,331.369186 1691.34145,331.289186 1691.52145,331.169186 C1691.68145,331.009186 1691.78145,330.809186 1691.78145,330.609186 C1691.78145,330.549186 1691.72145,330.309186 1691.64145,329.829186 C1691.54145,329.369186 1691.50145,329.009186 1691.50145,328.769186 C1691.50145,327.969186 1691.62145,327.169186 1691.90145,326.329186 C1691.98145,326.109186 1692.02145,325.969186 1692.02145,325.889186 L1692.02145,325.889186 Z M1690.20145,325.309186 C1690.20145,325.989186 1689.80145,326.789186 1689.04145,327.709186 C1688.28145,328.629186 1687.58145,329.069186 1686.98145,329.069186 C1686.56145,329.069186 1686.36145,328.829186 1686.36145,328.329186 C1686.36145,327.689186 1686.86145,326.889186 1687.88145,325.909186 C1688.80145,325.029186 1689.46145,324.569186 1689.84145,324.569186 C1690.08145,324.569186 1690.20145,324.829186 1690.20145,325.309186 L1690.20145,325.309186 Z M1700.24145,328.689186 C1700.24145,328.489186 1700.16145,328.289186 1700.00145,328.089186 C1699.84145,327.929186 1699.66145,327.829186 1699.46145,327.829186 C1699.30145,327.829186 1699.06145,327.969186 1698.78145,328.229186 C1698.54145,328.429186 1698.30145,328.629186 1698.10145,328.829186 C1697.76145,329.089186 1697.34145,329.209186 1696.84145,329.209186 C1696.04145,329.209186 1695.66145,328.729186 1695.66145,327.729186 C1695.66145,327.109186 1695.84145,326.489186 1696.20145,325.889186 C1696.56145,325.289186 1697.00145,324.789186 1697.54145,324.429186 C1697.78145,324.569186 1698.14145,324.629186 1698.64145,324.629186 C1698.90145,324.629186 1699.16145,324.529186 1699.42145,324.289186 C1699.64145,324.049186 1699.76145,323.829186 1699.76145,323.589186 C1699.76145,323.269186 1699.64145,323.029186 1699.40145,322.829186 C1699.14145,322.649186 1698.86145,322.549186 1698.56145,322.549186 C1697.30145,322.549186 1696.18145,323.209186 1695.22145,324.509186 C1694.44145,325.549186 1694.06145,326.689186 1694.06145,327.929186 C1694.06145,328.809186 1694.34145,329.509186 1694.90145,330.069186 C1695.46145,330.609186 1696.16145,330.889186 1697.00145,330.889186 C1697.76145,330.889186 1698.54145,330.589186 1699.30145,329.989186 C1699.92145,329.509186 1700.24145,329.089186 1700.24145,328.689186 L1700.24145,328.689186 Z M1709.50145,330.649186 C1709.50145,330.509186 1709.40145,330.329186 1709.22145,330.129186 C1708.78145,329.649186 1708.58145,328.429186 1708.58145,326.469186 C1708.58145,325.769186 1708.68145,324.589186 1708.90145,322.929186 C1708.90145,322.709186 1708.80145,322.509186 1708.64145,322.309186 C1708.46145,322.129186 1708.26145,322.029186 1708.04145,322.029186 C1707.70145,322.029186 1706.98145,322.769186 1705.90145,324.249186 C1705.02145,325.409186 1704.30145,326.469186 1703.70145,327.389186 C1703.84145,325.829186 1703.94145,324.689186 1704.00145,324.009186 C1704.00145,323.689186 1703.88145,323.409186 1703.68145,323.169186 C1703.48145,322.949186 1703.22145,322.829186 1702.90145,322.829186 C1702.72145,322.829186 1702.56145,322.949186 1702.40145,323.169186 C1702.44145,323.749186 1702.48145,324.089186 1702.48145,324.169186 C1702.48145,324.529186 1702.42145,325.429186 1702.32145,326.889186 L1702.28145,327.469186 C1702.26145,327.769186 1702.22145,328.169186 1702.18145,328.669186 C1702.12145,329.149186 1702.08145,329.449186 1702.08145,329.569186 C1702.10145,329.849186 1702.18145,330.069186 1702.34145,330.189186 C1702.66145,330.509186 1702.86145,330.649186 1702.94145,330.649186 C1703.22145,330.649186 1703.56145,330.349186 1703.92145,329.709186 C1704.66145,328.469186 1705.18145,327.589186 1705.50145,327.109186 C1706.02145,326.249186 1706.58145,325.449186 1707.20145,324.729186 C1707.20145,324.929186 1707.18145,325.349186 1707.18145,325.969186 C1707.16145,326.609186 1707.16145,326.949186 1707.16145,327.029186 C1707.16145,328.069186 1707.26145,328.949186 1707.48145,329.709186 C1707.78145,330.809186 1708.22145,331.369186 1708.78145,331.369186 C1708.90145,331.369186 1709.06145,331.269186 1709.24145,331.109186 C1709.40145,330.909186 1709.50145,330.769186 1709.50145,330.649186 L1709.50145,330.649186 Z M1719.50145,328.309186 C1719.50145,327.169186 1718.28145,326.549186 1715.88145,326.449186 C1717.72145,325.629186 1718.64145,324.749186 1718.64145,323.789186 C1718.64145,323.169186 1718.32145,322.689186 1717.70145,322.349186 C1717.20145,322.109186 1716.60145,321.969186 1715.90145,321.969186 C1714.92145,321.969186 1713.76145,322.029186 1712.42145,322.149186 C1711.82145,322.229186 1711.54145,322.469186 1711.54145,322.909186 C1711.54145,323.389186 1711.80145,323.609186 1712.36145,323.609186 C1712.46145,323.609186 1712.62145,323.589186 1712.84145,323.549186 C1712.80145,327.969186 1712.78145,330.249186 1712.78145,330.369186 C1712.08145,330.449186 1711.74145,330.729186 1711.74145,331.249186 C1711.74145,331.609186 1711.98145,331.809186 1712.50145,331.869186 C1712.92145,331.849186 1713.54145,331.749186 1714.36145,331.569186 C1715.88145,331.209186 1717.00145,330.849186 1717.68145,330.529186 C1718.88145,329.969186 1719.50145,329.229186 1719.50145,328.309186 L1719.50145,328.309186 Z M1717.10145,323.969186 C1717.10145,324.549186 1716.16145,325.169186 1714.28145,325.829186 L1714.32145,323.509186 C1715.06145,323.449186 1715.60145,323.409186 1715.92145,323.409186 C1716.70145,323.409186 1717.10145,323.609186 1717.10145,323.969186 L1717.10145,323.969186 Z M1718.00145,328.509186 C1718.00145,328.809186 1717.66145,329.109186 1716.98145,329.389186 C1716.30145,329.669186 1715.38145,329.889186 1714.24145,330.029186 L1714.24145,327.509186 C1715.56145,327.549186 1716.48145,327.649186 1717.04145,327.769186 C1717.68145,327.929186 1718.00145,328.169186 1718.00145,328.509186 L1718.00145,328.509186 Z M1731.08145,322.569186 C1731.08145,322.369186 1731.02145,322.189186 1730.90145,322.009186 C1730.74145,321.829186 1730.56145,321.729186 1730.34145,321.729186 C1729.96145,321.729186 1729.64145,322.069186 1729.38145,322.709186 C1729.12145,323.389186 1729.00145,323.869186 1729.00145,324.149186 C1729.00145,324.329186 1729.10145,324.509186 1729.30145,324.689186 L1728.94145,327.469186 C1728.70145,329.129186 1728.60145,330.129186 1728.60145,330.489186 C1728.60145,331.329186 1728.90145,331.769186 1729.52145,331.769186 C1729.74145,331.769186 1729.92145,331.669186 1730.06145,331.509186 C1730.22145,331.329186 1730.30145,331.129186 1730.30145,330.909186 C1730.30145,330.669186 1730.24145,330.489186 1730.14145,330.349186 C1730.16145,329.549186 1730.24145,328.729186 1730.36145,327.909186 C1730.48145,327.089186 1730.62145,326.269186 1730.74145,325.429186 C1730.96145,323.949186 1731.08145,322.989186 1731.08145,322.569186 L1731.08145,322.569186 Z M1727.60145,328.109186 C1727.60145,327.289186 1727.32145,326.629186 1726.78145,326.129186 C1726.28145,325.669186 1725.64145,325.429186 1724.84145,325.429186 C1724.40145,325.429186 1723.96145,325.549186 1723.52145,325.789186 C1723.60145,325.049186 1723.66145,324.389186 1723.72145,323.829186 C1723.82145,323.189186 1723.88145,322.689186 1723.92145,322.329186 C1723.84145,321.749186 1723.60145,321.449186 1723.16145,321.449186 C1722.64145,321.449186 1722.36145,321.849186 1722.30145,322.629186 C1721.98145,325.789186 1721.74145,328.469186 1721.54145,330.669186 C1721.56145,331.369186 1721.82145,331.729186 1722.34145,331.729186 C1722.66145,331.729186 1722.88145,331.589186 1723.00145,331.329186 C1723.22145,331.389186 1723.42145,331.429186 1723.62145,331.429186 C1724.50145,331.429186 1725.36145,331.109186 1726.20145,330.489186 C1727.12145,329.809186 1727.60145,329.029186 1727.60145,328.109186 L1727.60145,328.109186 Z M1726.08145,327.869186 C1726.08145,328.469186 1725.76145,329.009186 1725.16145,329.469186 C1724.60145,329.909186 1724.06145,330.129186 1723.54145,330.129186 C1723.46145,330.129186 1723.32145,330.109186 1723.16145,330.069186 L1723.34145,327.769186 C1723.70145,327.169186 1724.18145,326.849186 1724.80145,326.849186 C1725.12145,326.849186 1725.40145,326.949186 1725.68145,327.149186 C1725.94145,327.349186 1726.08145,327.589186 1726.08145,327.869186 L1726.08145,327.869186 Z M1738.84145,319.569186 C1738.84145,319.309186 1738.70145,319.069186 1738.44145,318.849186 C1738.14145,318.649186 1737.86145,318.549186 1737.62145,318.549186 C1737.48145,318.549186 1737.38145,318.589186 1737.32145,318.669186 C1737.52145,319.029186 1737.62145,319.269186 1737.62145,319.349186 C1737.62145,319.589186 1737.48145,319.869186 1737.24145,320.189186 C1736.96145,320.529186 1736.72145,320.689186 1736.52145,320.689186 C1736.40145,320.689186 1736.32145,320.549186 1736.24145,320.269186 L1735.86145,319.109186 C1735.66145,318.709186 1735.34145,318.509186 1734.90145,318.509186 C1734.82145,318.509186 1734.74145,318.569186 1734.66145,318.649186 C1734.56145,318.769186 1734.52145,318.849186 1734.52145,318.889186 C1734.52145,319.389186 1734.84145,320.129186 1735.50145,321.109186 C1735.82145,321.589186 1736.16145,321.829186 1736.54145,321.829186 C1736.96145,321.829186 1737.46145,321.569186 1738.02145,321.009186 C1738.56145,320.489186 1738.84145,320.009186 1738.84145,319.569186 L1738.84145,319.569186 Z M1740.54145,330.649186 C1740.54145,330.509186 1740.44145,330.329186 1740.26145,330.129186 C1739.82145,329.649186 1739.62145,328.429186 1739.62145,326.469186 C1739.62145,325.769186 1739.72145,324.589186 1739.94145,322.929186 C1739.94145,322.709186 1739.84145,322.509186 1739.68145,322.309186 C1739.50145,322.129186 1739.30145,322.029186 1739.08145,322.029186 C1738.74145,322.029186 1738.02145,322.769186 1736.94145,324.249186 C1736.06145,325.409186 1735.34145,326.469186 1734.74145,327.389186 C1734.88145,325.829186 1734.98145,324.689186 1735.04145,324.009186 C1735.04145,323.689186 1734.92145,323.409186 1734.72145,323.169186 C1734.52145,322.949186 1734.26145,322.829186 1733.94145,322.829186 C1733.76145,322.829186 1733.60145,322.949186 1733.44145,323.169186 C1733.48145,323.749186 1733.52145,324.089186 1733.52145,324.169186 C1733.52145,324.529186 1733.46145,325.429186 1733.36145,326.889186 L1733.32145,327.469186 C1733.30145,327.769186 1733.26145,328.169186 1733.22145,328.669186 C1733.16145,329.149186 1733.12145,329.449186 1733.12145,329.569186 C1733.14145,329.849186 1733.22145,330.069186 1733.38145,330.189186 C1733.70145,330.509186 1733.90145,330.649186 1733.98145,330.649186 C1734.26145,330.649186 1734.60145,330.349186 1734.96145,329.709186 C1735.70145,328.469186 1736.22145,327.589186 1736.54145,327.109186 C1737.06145,326.249186 1737.62145,325.449186 1738.24145,324.729186 C1738.24145,324.929186 1738.22145,325.349186 1738.22145,325.969186 C1738.20145,326.609186 1738.20145,326.949186 1738.20145,327.029186 C1738.20145,328.069186 1738.30145,328.949186 1738.52145,329.709186 C1738.82145,330.809186 1739.26145,331.369186 1739.82145,331.369186 C1739.94145,331.369186 1740.10145,331.269186 1740.28145,331.109186 C1740.44145,330.909186 1740.54145,330.769186 1740.54145,330.649186 L1740.54145,330.649186 Z M1756.84145,330.649186 C1756.84145,330.509186 1756.74145,330.329186 1756.56145,330.129186 C1756.12145,329.649186 1755.92145,328.429186 1755.92145,326.469186 C1755.92145,325.769186 1756.02145,324.589186 1756.24145,322.929186 C1756.24145,322.709186 1756.14145,322.509186 1755.98145,322.309186 C1755.80145,322.129186 1755.60145,322.029186 1755.38145,322.029186 C1755.04145,322.029186 1754.32145,322.769186 1753.24145,324.249186 C1752.36145,325.409186 1751.64145,326.469186 1751.04145,327.389186 C1751.18145,325.829186 1751.28145,324.689186 1751.34145,324.009186 C1751.34145,323.689186 1751.22145,323.409186 1751.02145,323.169186 C1750.82145,322.949186 1750.56145,322.829186 1750.24145,322.829186 C1750.06145,322.829186 1749.90145,322.949186 1749.74145,323.169186 C1749.78145,323.749186 1749.82145,324.089186 1749.82145,324.169186 C1749.82145,324.529186 1749.76145,325.429186 1749.66145,326.889186 L1749.62145,327.469186 C1749.60145,327.769186 1749.56145,328.169186 1749.52145,328.669186 C1749.46145,329.149186 1749.42145,329.449186 1749.42145,329.569186 C1749.44145,329.849186 1749.52145,330.069186 1749.68145,330.189186 C1750.00145,330.509186 1750.20145,330.649186 1750.28145,330.649186 C1750.56145,330.649186 1750.90145,330.349186 1751.26145,329.709186 C1752.00145,328.469186 1752.52145,327.589186 1752.84145,327.109186 C1753.36145,326.249186 1753.92145,325.449186 1754.54145,324.729186 C1754.54145,324.929186 1754.52145,325.349186 1754.52145,325.969186 C1754.50145,326.609186 1754.50145,326.949186 1754.50145,327.029186 C1754.50145,328.069186 1754.60145,328.949186 1754.82145,329.709186 C1755.12145,330.809186 1755.56145,331.369186 1756.12145,331.369186 C1756.24145,331.369186 1756.40145,331.269186 1756.58145,331.109186 C1756.74145,330.909186 1756.84145,330.769186 1756.84145,330.649186 L1756.84145,330.649186 Z M1772.78145,323.049186 C1772.78145,322.829186 1772.68145,322.629186 1772.48145,322.469186 C1772.26145,322.329186 1772.04145,322.249186 1771.82145,322.209186 C1769.78145,322.369186 1768.16145,322.509186 1767.00145,322.589186 C1766.30145,322.649186 1765.96145,322.889186 1765.96145,323.329186 C1765.96145,323.609186 1766.00145,323.849186 1766.12145,324.069186 C1765.98145,326.129186 1765.92145,327.169186 1765.92145,327.209186 C1765.78145,328.649186 1765.72145,329.369186 1765.72145,329.369186 C1765.72145,329.629186 1765.80145,329.889186 1765.98145,330.149186 C1766.16145,330.409186 1766.36145,330.529186 1766.60145,330.529186 C1767.00145,330.529186 1767.20145,330.269186 1767.24145,329.729186 C1767.36145,327.569186 1767.48145,325.709186 1767.64145,324.149186 C1768.66145,324.009186 1769.72145,323.909186 1770.82145,323.869186 C1770.82145,323.929186 1770.78145,324.909186 1770.72145,326.789186 C1770.64145,328.469186 1770.62145,329.369186 1770.62145,329.489186 C1770.62145,330.789186 1770.96145,331.449186 1771.68145,331.449186 C1772.06145,331.449186 1772.26145,331.229186 1772.26145,330.829186 C1772.14145,330.229186 1772.10145,329.669186 1772.10145,329.189186 C1772.10145,328.549186 1772.14145,327.529186 1772.22145,326.129186 C1772.24145,325.909186 1772.28145,325.589186 1772.34145,325.149186 C1772.38145,324.789186 1772.40145,324.589186 1772.40145,324.509186 C1772.40145,324.389186 1772.36145,324.209186 1772.32145,323.969186 C1772.62145,323.649186 1772.78145,323.349186 1772.78145,323.049186 L1772.78145,323.049186 Z M1781.18145,326.129186 C1781.18145,325.349186 1780.96145,324.629186 1780.52145,323.989186 C1780.06145,323.369186 1779.48145,322.929186 1778.78145,322.689186 C1778.50145,322.609186 1778.34145,322.569186 1778.30145,322.569186 C1778.14145,322.569186 1777.96145,322.669186 1777.72145,322.829186 C1777.44145,322.989186 1777.22145,323.109186 1777.06145,323.169186 C1776.38145,323.509186 1775.82145,324.109186 1775.42145,324.949186 C1775.02145,325.709186 1774.84145,326.529186 1774.84145,327.389186 C1774.84145,328.409186 1775.10145,329.249186 1775.66145,329.909186 C1776.22145,330.549186 1776.92145,330.889186 1777.76145,330.889186 C1778.72145,330.889186 1779.54145,330.449186 1780.20145,329.529186 C1780.84145,328.609186 1781.18145,327.489186 1781.18145,326.129186 L1781.18145,326.129186 Z M1779.60145,326.429186 C1779.60145,327.109186 1779.40145,327.729186 1779.04145,328.309186 C1778.64145,328.909186 1778.22145,329.209186 1777.74145,329.209186 C1777.34145,329.209186 1777.02145,329.029186 1776.78145,328.649186 C1776.52145,328.289186 1776.40145,327.869186 1776.40145,327.389186 C1776.40145,326.749186 1776.54145,326.149186 1776.86145,325.589186 C1777.22145,324.949186 1777.68145,324.609186 1778.24145,324.609186 C1778.44145,324.729186 1778.70145,324.789186 1779.02145,324.789186 C1779.40145,325.029186 1779.60145,325.589186 1779.60145,326.429186 L1779.60145,326.429186 Z M1791.32145,323.449186 C1791.32145,323.149186 1791.22145,322.889186 1791.02145,322.649186 C1790.84145,322.429186 1790.62145,322.309186 1790.34145,322.309186 C1790.22145,322.309186 1789.98145,322.429186 1789.62145,322.629186 C1789.26145,322.849186 1788.38145,323.029186 1786.96145,323.189186 C1786.64145,322.929186 1786.38145,322.789186 1786.20145,322.789186 C1785.98145,322.789186 1785.74145,322.909186 1785.50145,323.149186 C1785.26145,323.389186 1785.14145,323.649186 1785.14145,323.889186 C1785.14145,324.049186 1785.22145,324.249186 1785.38145,324.469186 C1785.52145,324.709186 1785.60145,324.969186 1785.60145,325.269186 C1785.60145,326.509186 1785.50145,327.529186 1785.30145,328.369186 C1785.04145,329.349186 1784.70145,329.829186 1784.30145,329.829186 C1784.14145,329.829186 1784.02145,329.589186 1783.98145,329.069186 C1783.94145,328.869186 1783.86145,328.749186 1783.70145,328.749186 C1783.42145,328.749186 1783.22145,328.889186 1783.08145,329.129186 C1782.90145,329.409186 1782.82145,329.729186 1782.82145,330.069186 C1782.82145,330.449186 1782.96145,330.729186 1783.26145,330.949186 C1783.54145,331.149186 1783.86145,331.269186 1784.22145,331.269186 C1785.26145,331.269186 1786.00145,330.589186 1786.44145,329.269186 C1786.72145,328.429186 1786.96145,326.909186 1787.16145,324.709186 C1787.66145,324.589186 1788.42145,324.429186 1789.46145,324.249186 C1789.26145,326.209186 1789.16145,327.689186 1789.16145,328.689186 C1789.16145,330.009186 1789.24145,330.829186 1789.42145,331.169186 C1789.60145,331.509186 1789.86145,331.689186 1790.18145,331.689186 C1790.70145,331.689186 1790.96145,331.369186 1790.96145,330.769186 C1790.88145,330.409186 1790.84145,330.089186 1790.80145,329.809186 C1790.70145,329.129186 1790.66145,328.549186 1790.66145,328.049186 C1790.66145,326.969186 1790.82145,325.709186 1791.16145,324.269186 C1791.26145,323.789186 1791.32145,323.529186 1791.32145,323.449186 L1791.32145,323.449186 Z M1801.30145,330.169186 C1801.30145,329.969186 1801.22145,329.769186 1801.06145,329.569186 C1800.90145,329.409186 1800.70145,329.309186 1800.50145,329.309186 C1800.34145,329.309186 1800.08145,329.349186 1799.74145,329.389186 C1799.40145,329.429186 1799.14145,329.449186 1798.98145,329.449186 C1798.38145,329.449186 1797.86145,329.169186 1797.38145,328.589186 C1799.38145,327.509186 1800.38145,326.229186 1800.38145,324.749186 C1800.38145,324.189186 1800.14145,323.649186 1799.66145,323.169186 C1799.18145,322.689186 1798.70145,322.449186 1798.20145,322.449186 C1797.34145,322.449186 1796.64145,322.949186 1796.08145,323.929186 C1795.60145,324.769186 1795.36145,325.669186 1795.36145,326.629186 C1795.36145,326.829186 1795.38145,327.109186 1795.44145,327.449186 L1794.98145,327.449186 C1794.70145,327.449186 1794.44145,327.349186 1794.16145,327.149186 C1793.88145,326.949186 1793.68145,326.849186 1793.56145,326.849186 C1793.04145,326.849186 1792.78145,327.129186 1792.78145,327.689186 C1792.78145,328.129186 1793.10145,328.489186 1793.78145,328.769186 C1794.30145,328.989186 1794.80145,329.089186 1795.32145,329.089186 L1795.92145,329.089186 C1796.64145,330.469186 1797.76145,331.149186 1799.28145,331.149186 C1800.62145,331.149186 1801.30145,330.809186 1801.30145,330.169186 L1801.30145,330.169186 Z M1798.80145,324.829186 C1798.80145,325.489186 1798.20145,326.209186 1797.00145,326.989186 L1797.00145,326.629186 C1797.00145,326.089186 1797.08145,325.569186 1797.28145,325.069186 C1797.48145,324.469186 1797.76145,324.169186 1798.12145,324.169186 C1798.28145,324.169186 1798.44145,324.249186 1798.60145,324.369186 C1798.72145,324.529186 1798.80145,324.669186 1798.80145,324.829186 L1798.80145,324.829186 Z M1809.06145,328.209186 C1809.06145,327.009186 1808.46145,326.209186 1807.28145,325.849186 C1808.14145,325.369186 1808.58145,324.769186 1808.58145,324.029186 C1808.58145,322.789186 1807.60145,322.169186 1805.68145,322.169186 C1804.02145,322.169186 1803.20145,322.529186 1803.20145,323.249186 C1803.20145,323.769186 1803.44145,324.029186 1803.92145,324.049186 C1804.04145,324.029186 1804.34145,323.929186 1804.82145,323.729186 C1805.14145,323.609186 1805.44145,323.529186 1805.68145,323.529186 C1806.60145,323.529186 1807.06145,323.749186 1807.06145,324.189186 C1807.06145,324.469186 1806.82145,324.769186 1806.34145,325.049186 C1805.90145,325.289186 1805.40145,325.469186 1804.82145,325.589186 C1804.10145,325.749186 1803.72145,325.829186 1803.66145,325.849186 C1803.42145,325.949186 1803.32145,326.149186 1803.32145,326.429186 C1803.32145,326.629186 1803.38145,326.849186 1803.54145,327.049186 C1803.68145,327.269186 1803.86145,327.369186 1804.06145,327.369186 C1804.16145,327.369186 1804.30145,327.329186 1804.48145,327.209186 C1804.84145,327.009186 1805.26145,326.889186 1805.72145,326.889186 C1806.18145,326.889186 1806.58145,326.969186 1806.94145,327.129186 C1807.38145,327.329186 1807.60145,327.629186 1807.60145,328.029186 C1807.60145,328.509186 1807.22145,328.989186 1806.50145,329.449186 C1805.82145,329.909186 1805.24145,330.129186 1804.76145,330.129186 C1804.20145,330.129186 1803.94145,330.049186 1803.94145,329.889186 C1803.94145,329.809186 1803.96145,329.689186 1804.02145,329.569186 C1804.06145,329.429186 1804.08145,329.329186 1804.08145,329.289186 C1804.08145,328.929186 1803.84145,328.749186 1803.38145,328.749186 C1803.22145,328.749186 1803.04145,328.889186 1802.86145,329.129186 C1802.66145,329.409186 1802.58145,329.649186 1802.58145,329.849186 C1802.58145,330.129186 1802.68145,330.429186 1802.92145,330.749186 C1803.28145,331.269186 1803.94145,331.529186 1804.88145,331.529186 C1805.80145,331.529186 1806.72145,331.189186 1807.62145,330.549186 C1808.58145,329.869186 1809.06145,329.089186 1809.06145,328.209186 L1809.06145,328.209186 Z M1817.56145,323.129186 C1817.56145,322.609186 1817.32145,322.349186 1816.84145,322.349186 C1816.44145,322.349186 1816.18145,322.709186 1816.08145,323.389186 C1815.98145,323.929186 1815.86145,324.689186 1815.74145,325.669186 C1814.86145,325.889186 1814.00145,326.049186 1813.16145,326.129186 C1813.36145,324.849186 1813.56145,323.889186 1813.76145,323.229186 C1813.88145,322.869186 1813.98145,322.589186 1814.08145,322.349186 C1814.04145,321.809186 1813.80145,321.529186 1813.32145,321.529186 C1812.98145,321.529186 1812.76145,321.689186 1812.64145,322.009186 C1812.24145,322.969186 1811.92145,324.349186 1811.72145,326.149186 C1811.40145,326.149186 1811.18145,326.129186 1811.06145,326.109186 C1810.66145,326.109186 1810.48145,326.349186 1810.48145,326.789186 C1810.48145,327.289186 1810.76145,327.529186 1811.34145,327.529186 L1811.58145,327.529186 C1811.52145,328.289186 1811.46145,329.149186 1811.42145,330.149186 C1811.42145,330.209186 1811.40145,330.309186 1811.38145,330.429186 C1811.34145,330.549186 1811.34145,330.629186 1811.34145,330.709186 C1811.34145,330.909186 1811.42145,331.089186 1811.58145,331.249186 C1811.74145,331.409186 1811.92145,331.489186 1812.12145,331.489186 C1812.60145,331.489186 1812.86145,331.229186 1812.88145,330.729186 C1812.88145,330.049186 1812.94145,328.969186 1813.04145,327.489186 C1813.90145,327.409186 1814.74145,327.269186 1815.58145,327.069186 C1815.48145,328.129186 1815.42145,328.969186 1815.42145,329.569186 C1815.42145,329.629186 1815.40145,329.709186 1815.38145,329.829186 C1815.34145,329.929186 1815.32145,330.009186 1815.32145,330.069186 C1815.32145,330.549186 1815.38145,330.909186 1815.54145,331.149186 C1815.70145,331.409186 1815.88145,331.549186 1816.12145,331.549186 C1816.32145,331.549186 1816.50145,331.469186 1816.66145,331.309186 C1816.80145,331.149186 1816.88145,330.949186 1816.88145,330.729186 C1816.88145,330.689186 1816.86145,330.589186 1816.86145,330.389186 C1816.84145,330.189186 1816.84145,330.029186 1816.84145,329.949186 C1816.84145,328.609186 1817.04145,326.549186 1817.48145,323.769186 C1817.52145,323.409186 1817.56145,323.209186 1817.56145,323.129186 L1817.56145,323.129186 Z M1829.14145,322.569186 C1829.14145,322.369186 1829.08145,322.189186 1828.96145,322.009186 C1828.80145,321.829186 1828.62145,321.729186 1828.40145,321.729186 C1828.02145,321.729186 1827.70145,322.069186 1827.44145,322.709186 C1827.18145,323.389186 1827.06145,323.869186 1827.06145,324.149186 C1827.06145,324.329186 1827.16145,324.509186 1827.36145,324.689186 L1827.00145,327.469186 C1826.76145,329.129186 1826.66145,330.129186 1826.66145,330.489186 C1826.66145,331.329186 1826.96145,331.769186 1827.58145,331.769186 C1827.80145,331.769186 1827.98145,331.669186 1828.12145,331.509186 C1828.28145,331.329186 1828.36145,331.129186 1828.36145,330.909186 C1828.36145,330.669186 1828.30145,330.489186 1828.20145,330.349186 C1828.22145,329.549186 1828.30145,328.729186 1828.42145,327.909186 C1828.54145,327.089186 1828.68145,326.269186 1828.80145,325.429186 C1829.02145,323.949186 1829.14145,322.989186 1829.14145,322.569186 L1829.14145,322.569186 Z M1825.66145,328.109186 C1825.66145,327.289186 1825.38145,326.629186 1824.84145,326.129186 C1824.34145,325.669186 1823.70145,325.429186 1822.90145,325.429186 C1822.46145,325.429186 1822.02145,325.549186 1821.58145,325.789186 C1821.66145,325.049186 1821.72145,324.389186 1821.78145,323.829186 C1821.88145,323.189186 1821.94145,322.689186 1821.98145,322.329186 C1821.90145,321.749186 1821.66145,321.449186 1821.22145,321.449186 C1820.70145,321.449186 1820.42145,321.849186 1820.36145,322.629186 C1820.04145,325.789186 1819.80145,328.469186 1819.60145,330.669186 C1819.62145,331.369186 1819.88145,331.729186 1820.40145,331.729186 C1820.72145,331.729186 1820.94145,331.589186 1821.06145,331.329186 C1821.28145,331.389186 1821.48145,331.429186 1821.68145,331.429186 C1822.56145,331.429186 1823.42145,331.109186 1824.26145,330.489186 C1825.18145,329.809186 1825.66145,329.029186 1825.66145,328.109186 L1825.66145,328.109186 Z M1824.14145,327.869186 C1824.14145,328.469186 1823.82145,329.009186 1823.22145,329.469186 C1822.66145,329.909186 1822.12145,330.129186 1821.60145,330.129186 C1821.52145,330.129186 1821.38145,330.109186 1821.22145,330.069186 L1821.40145,327.769186 C1821.76145,327.169186 1822.24145,326.849186 1822.86145,326.849186 C1823.18145,326.849186 1823.46145,326.949186 1823.74145,327.149186 C1824.00145,327.349186 1824.14145,327.589186 1824.14145,327.869186 L1824.14145,327.869186 Z M1836.90145,319.569186 C1836.90145,319.309186 1836.76145,319.069186 1836.50145,318.849186 C1836.20145,318.649186 1835.92145,318.549186 1835.68145,318.549186 C1835.54145,318.549186 1835.44145,318.589186 1835.38145,318.669186 C1835.58145,319.029186 1835.68145,319.269186 1835.68145,319.349186 C1835.68145,319.589186 1835.54145,319.869186 1835.30145,320.189186 C1835.02145,320.529186 1834.78145,320.689186 1834.58145,320.689186 C1834.46145,320.689186 1834.38145,320.549186 1834.30145,320.269186 L1833.92145,319.109186 C1833.72145,318.709186 1833.40145,318.509186 1832.96145,318.509186 C1832.88145,318.509186 1832.80145,318.569186 1832.72145,318.649186 C1832.62145,318.769186 1832.58145,318.849186 1832.58145,318.889186 C1832.58145,319.389186 1832.90145,320.129186 1833.56145,321.109186 C1833.88145,321.589186 1834.22145,321.829186 1834.60145,321.829186 C1835.02145,321.829186 1835.52145,321.569186 1836.08145,321.009186 C1836.62145,320.489186 1836.90145,320.009186 1836.90145,319.569186 L1836.90145,319.569186 Z M1838.60145,330.649186 C1838.60145,330.509186 1838.50145,330.329186 1838.32145,330.129186 C1837.88145,329.649186 1837.68145,328.429186 1837.68145,326.469186 C1837.68145,325.769186 1837.78145,324.589186 1838.00145,322.929186 C1838.00145,322.709186 1837.90145,322.509186 1837.74145,322.309186 C1837.56145,322.129186 1837.36145,322.029186 1837.14145,322.029186 C1836.80145,322.029186 1836.08145,322.769186 1835.00145,324.249186 C1834.12145,325.409186 1833.40145,326.469186 1832.80145,327.389186 C1832.94145,325.829186 1833.04145,324.689186 1833.10145,324.009186 C1833.10145,323.689186 1832.98145,323.409186 1832.78145,323.169186 C1832.58145,322.949186 1832.32145,322.829186 1832.00145,322.829186 C1831.82145,322.829186 1831.66145,322.949186 1831.50145,323.169186 C1831.54145,323.749186 1831.58145,324.089186 1831.58145,324.169186 C1831.58145,324.529186 1831.52145,325.429186 1831.42145,326.889186 L1831.38145,327.469186 C1831.36145,327.769186 1831.32145,328.169186 1831.28145,328.669186 C1831.22145,329.149186 1831.18145,329.449186 1831.18145,329.569186 C1831.20145,329.849186 1831.28145,330.069186 1831.44145,330.189186 C1831.76145,330.509186 1831.96145,330.649186 1832.04145,330.649186 C1832.32145,330.649186 1832.66145,330.349186 1833.02145,329.709186 C1833.76145,328.469186 1834.28145,327.589186 1834.60145,327.109186 C1835.12145,326.249186 1835.68145,325.449186 1836.30145,324.729186 C1836.30145,324.929186 1836.28145,325.349186 1836.28145,325.969186 C1836.26145,326.609186 1836.26145,326.949186 1836.26145,327.029186 C1836.26145,328.069186 1836.36145,328.949186 1836.58145,329.709186 C1836.88145,330.809186 1837.32145,331.369186 1837.88145,331.369186 C1838.00145,331.369186 1838.16145,331.269186 1838.34145,331.109186 C1838.50145,330.909186 1838.60145,330.769186 1838.60145,330.649186 L1838.60145,330.649186 Z" id="Люблю-растительный-м" transform="translate(1738.141447, 302.929186) rotate(-10.000000) translate(-1738.141447, -302.929186) "></path>
        </g>
    </g>
</svg>