<?xml version="1.0" encoding="UTF-8"?>
<svg width="376px" height="107px" viewBox="0 0 376 107" version="1.1" xmlns="http://www.w3.org/2000/svg" xmlns:xlink="http://www.w3.org/1999/xlink">
    <!-- Generator: Sketch 40.3 (33839) - http://www.bohemiancoding.com/sketch -->
    <title>Мигом к врачу!</title>
    <desc>Created with Sketch.</desc>
    <defs></defs>
    <g id="Page-1" stroke="none" stroke-width="1" fill="none" fill-rule="evenodd">
        <g id="Desktop" transform="translate(-485.000000, -87.000000)" fill="#505050">
            <path d="M529.830815,165.120852 C529.830815,165.000852 529.530815,164.280852 529.050815,163.020852 C528.510815,161.760852 527.790815,160.920852 526.950815,160.560852 C525.630815,158.400852 524.550815,154.740852 523.650815,149.700852 C523.290815,147.600852 522.690815,143.460852 521.970815,137.340852 C521.250815,131.460852 520.350815,126.780852 519.150815,123.180852 C518.730815,121.920852 517.950815,121.260852 516.870815,121.260852 C515.910815,121.260852 515.250815,121.680852 514.830815,122.460852 C511.590815,128.220852 508.770815,135.360852 506.370815,143.940852 C502.710815,138.960852 499.590815,130.980852 496.950815,120.000852 C496.590815,118.620852 495.810815,117.900852 494.610815,117.900852 C493.470815,117.900852 492.690815,118.380852 492.270815,119.280852 C491.370815,121.200852 490.470815,123.360852 489.630815,125.820852 C489.030815,125.460852 488.490815,125.280852 488.010815,125.280852 C486.390815,125.280852 485.610815,126.120852 485.610815,127.680852 C485.610815,128.160852 485.610815,128.760852 485.670815,129.480852 C485.670815,130.320852 485.730815,130.920852 485.730815,131.340852 C485.730815,133.500852 485.490815,136.200852 485.130815,139.560852 C484.650815,144.060852 484.410815,146.880852 484.410815,148.080852 C484.410815,150.360852 484.590815,152.460852 485.070815,154.260852 C485.730815,156.660852 486.690815,157.860852 487.890815,157.860852 C489.330815,157.860852 490.050815,156.660852 490.170815,154.260852 C490.290815,149.820852 490.590815,145.620852 491.070815,141.720852 C491.610815,137.220852 492.570815,132.420852 493.950815,127.320852 C494.670815,130.920852 496.050815,134.880852 498.090815,139.200852 C500.190815,143.880852 502.350815,147.300852 504.570815,149.580852 C505.650815,150.780852 506.670815,151.320852 507.570815,151.320852 C508.770815,151.320852 509.610815,150.540852 509.970815,148.860852 C511.230815,143.340852 513.270815,137.040852 516.030815,130.080852 C517.170815,139.920852 517.890815,145.800852 518.250815,147.780852 C519.450815,154.980852 521.130815,160.440852 523.170815,164.040852 C524.490815,166.440852 525.870815,167.700852 527.250815,167.700852 C527.910815,167.700852 528.510815,167.400852 529.050815,166.920852 C529.530815,166.320852 529.830815,165.720852 529.830815,165.120852 L529.830815,165.120852 Z M555.150815,160.860852 C555.150815,160.440852 554.850815,159.900852 554.310815,159.300852 C552.990815,157.860852 552.390815,154.200852 552.390815,148.320852 C552.390815,146.220852 552.690815,142.680852 553.350815,137.700852 C553.350815,137.040852 553.050815,136.440852 552.570815,135.840852 C552.030815,135.300852 551.430815,135.000852 550.770815,135.000852 C549.750815,135.000852 547.590815,137.220852 544.350815,141.660852 C541.710815,145.140852 539.550815,148.320852 537.750815,151.080852 C538.170815,146.400852 538.470815,142.980852 538.650815,140.940852 C538.650815,139.980852 538.290815,139.140852 537.690815,138.420852 C537.090815,137.760852 536.310815,137.400852 535.350815,137.400852 C534.810815,137.400852 534.330815,137.760852 533.850815,138.420852 C533.970815,140.160852 534.090815,141.180852 534.090815,141.420852 C534.090815,142.500852 533.910815,145.200852 533.610815,149.580852 L533.490815,151.320852 C533.430815,152.220852 533.310815,153.420852 533.190815,154.920852 C533.010815,156.360852 532.890815,157.260852 532.890815,157.620852 C532.950815,158.460852 533.190815,159.120852 533.670815,159.480852 C534.630815,160.440852 535.230815,160.860852 535.470815,160.860852 C536.310815,160.860852 537.330815,159.960852 538.410815,158.040852 C540.630815,154.320852 542.190815,151.680852 543.150815,150.240852 C544.710815,147.660852 546.390815,145.260852 548.250815,143.100852 C548.250815,143.700852 548.190815,144.960852 548.190815,146.820852 C548.130815,148.740852 548.130815,149.760852 548.130815,150.000852 C548.130815,153.120852 548.430815,155.760852 549.090815,158.040852 C549.990815,161.340852 551.310815,163.020852 552.990815,163.020852 C553.350815,163.020852 553.830815,162.720852 554.370815,162.240852 C554.850815,161.640852 555.150815,161.220852 555.150815,160.860852 L555.150815,160.860852 Z M583.530815,136.860852 C583.530815,136.140852 583.230815,135.540852 582.690815,135.060852 C582.150815,134.640852 581.550815,134.400852 580.950815,134.400852 C580.410815,134.400852 579.510815,134.580852 578.250815,134.820852 C574.050815,135.660852 569.310815,136.140852 563.970815,136.200852 C563.430815,136.200852 562.950815,136.440852 562.530815,136.920852 C562.050815,137.400852 561.870815,138.000852 561.870815,138.600852 C561.870815,139.800852 562.770815,140.580852 564.570815,140.940852 C564.030815,146.760852 563.130815,152.760852 561.810815,159.000852 C561.450815,160.800852 561.270815,162.000852 561.270815,162.720852 C561.270815,164.340852 561.990815,165.180852 563.490815,165.180852 C565.290815,165.180852 566.310815,164.220852 566.550815,162.360852 C567.030815,157.380852 568.110815,150.120852 569.670815,140.640852 C572.010815,140.340852 573.570815,140.100852 574.350815,139.980852 C576.150815,139.860852 577.950815,139.740852 579.750815,139.560852 C582.270815,139.200852 583.530815,138.300852 583.530815,136.860852 L583.530815,136.860852 Z M606.810815,147.300852 C606.810815,144.960852 606.150815,142.800852 604.830815,140.880852 C603.450815,139.020852 601.710815,137.700852 599.610815,136.980852 C598.770815,136.740852 598.290815,136.620852 598.170815,136.620852 C597.690815,136.620852 597.150815,136.920852 596.430815,137.400852 C595.590815,137.880852 594.930815,138.240852 594.450815,138.420852 C592.410815,139.440852 590.730815,141.240852 589.530815,143.760852 C588.330815,146.040852 587.790815,148.500852 587.790815,151.080852 C587.790815,154.140852 588.570815,156.660852 590.250815,158.640852 C591.930815,160.560852 594.030815,161.580852 596.550815,161.580852 C599.430815,161.580852 601.890815,160.260852 603.870815,157.500852 C605.790815,154.740852 606.810815,151.380852 606.810815,147.300852 L606.810815,147.300852 Z M602.070815,148.200852 C602.070815,150.240852 601.470815,152.100852 600.390815,153.840852 C599.190815,155.640852 597.930815,156.540852 596.490815,156.540852 C595.290815,156.540852 594.330815,156.000852 593.610815,154.860852 C592.830815,153.780852 592.470815,152.520852 592.470815,151.080852 C592.470815,149.160852 592.890815,147.360852 593.850815,145.680852 C594.930815,143.760852 596.310815,142.740852 597.990815,142.740852 C598.590815,143.100852 599.370815,143.280852 600.330815,143.280852 C601.470815,144.000852 602.070815,145.680852 602.070815,148.200852 L602.070815,148.200852 Z M639.210815,162.960852 C639.210815,162.420852 639.030815,161.820852 638.670815,161.100852 C638.310815,160.380852 637.890815,159.900852 637.470815,159.540852 C636.510815,157.500852 635.670815,153.780852 634.950815,148.440852 C634.470815,145.680852 634.110815,142.620852 633.750815,139.380852 C633.570815,138.120852 632.850815,137.460852 631.590815,137.460852 C630.450815,137.460852 628.950815,139.920852 627.090815,144.840852 C626.430815,146.520852 625.890815,147.960852 625.410815,149.280852 C623.790815,146.880852 622.350815,143.280852 621.030815,138.360852 C620.550815,136.560852 619.830815,135.660852 618.930815,135.660852 C617.790815,135.660852 616.770815,137.040852 615.870815,139.740852 C615.690815,139.740852 615.450815,139.680852 615.150815,139.680852 C614.730815,139.680852 614.370815,139.860852 614.130815,140.160852 C613.770815,140.520852 613.590815,140.940852 613.590815,141.360852 C613.590815,141.480852 613.590815,141.840852 613.650815,142.440852 C613.650815,143.100852 613.710815,143.460852 613.710815,143.580852 C613.710815,144.660852 613.590815,146.160852 613.350815,148.200852 C613.110815,150.240852 612.990815,152.520852 612.990815,154.980852 C612.990815,159.000852 613.770815,160.980852 615.390815,160.980852 C616.590815,160.980852 617.190815,159.660852 617.310815,156.960852 C617.490815,151.680852 617.970815,147.300852 618.690815,143.820852 C621.870815,151.500852 624.390815,155.340852 626.190815,155.340852 C626.790815,155.340852 627.210815,155.100852 627.570815,154.500852 C627.870815,154.020852 628.230815,152.940852 628.710815,151.380852 C629.490815,148.740852 630.150815,146.640852 630.690815,145.200852 C631.290815,151.860852 632.130815,156.780852 633.270815,159.960852 C634.530815,163.620852 635.850815,165.480852 637.170815,165.480852 C637.650815,165.480852 638.130815,165.180852 638.550815,164.640852 C638.970815,164.040852 639.210815,163.500852 639.210815,162.960852 L639.210815,162.960852 Z M684.510815,140.880852 C684.510815,140.400852 684.270815,139.860852 683.790815,139.320852 C683.310815,138.840852 682.770815,138.600852 682.290815,138.600852 C681.810815,138.600852 680.790815,138.960852 679.290815,139.680852 C676.770815,140.880852 673.590815,143.160852 669.870815,146.400852 C670.710815,142.920852 671.490815,140.160852 672.330815,138.180852 C672.810815,136.920852 673.050815,136.140852 673.050815,135.900852 C673.050815,134.340852 672.270815,133.560852 670.830815,133.560852 C669.870815,133.560852 669.150815,134.100852 668.670815,135.180852 C665.730815,142.380852 664.230815,150.300852 664.110815,158.880852 C663.990815,159.180852 663.990815,159.480852 663.990815,159.780852 C663.990815,160.500852 664.110815,161.160852 664.350815,161.820852 C664.710815,162.900852 665.550815,163.500852 666.750815,163.500852 C668.070815,163.500852 668.730815,162.720852 668.730815,161.220852 C668.730815,161.100852 668.670815,160.740852 668.670815,160.140852 C668.610815,159.540852 668.610815,159.120852 668.610815,158.760852 L668.610815,156.540852 C668.610815,155.700852 668.610815,154.740852 668.730815,153.660852 C669.150815,153.420852 669.390815,153.300852 669.450815,153.240852 C671.730815,156.300852 674.670815,159.000852 678.210815,161.340852 C679.290815,162.120852 680.130815,162.540852 680.730815,162.540852 C682.170815,162.540852 682.890815,161.760852 682.890815,160.260852 C682.890815,159.660852 682.350815,158.820852 681.390815,157.860852 C679.710815,156.360852 678.750815,155.580852 678.390815,155.580852 C678.270815,155.580852 678.090815,155.640852 677.970815,155.640852 C675.630815,153.780852 673.830815,151.980852 672.630815,150.240852 C675.510815,147.540852 677.910815,145.620852 679.890815,144.540852 C680.130815,144.660852 680.370815,144.720852 680.670815,144.720852 C681.450815,144.720852 682.290815,144.300852 683.130815,143.460852 C684.030815,142.680852 684.510815,141.840852 684.510815,140.880852 L684.510815,140.880852 Z M733.830815,153.840852 C733.830815,150.420852 730.170815,148.560852 722.970815,148.260852 C728.490815,145.800852 731.250815,143.160852 731.250815,140.280852 C731.250815,138.420852 730.290815,136.980852 728.430815,135.960852 C726.930815,135.240852 725.130815,134.820852 723.030815,134.820852 C720.090815,134.820852 716.610815,135.000852 712.590815,135.360852 C710.790815,135.600852 709.950815,136.320852 709.950815,137.640852 C709.950815,139.080852 710.730815,139.740852 712.410815,139.740852 C712.710815,139.740852 713.190815,139.680852 713.850815,139.560852 C713.730815,152.820852 713.670815,159.660852 713.670815,160.020852 C711.570815,160.260852 710.550815,161.100852 710.550815,162.660852 C710.550815,163.740852 711.270815,164.340852 712.830815,164.520852 C714.090815,164.460852 715.950815,164.160852 718.410815,163.620852 C722.970815,162.540852 726.330815,161.460852 728.370815,160.500852 C731.970815,158.820852 733.830815,156.600852 733.830815,153.840852 L733.830815,153.840852 Z M726.630815,140.820852 C726.630815,142.560852 723.810815,144.420852 718.170815,146.400852 L718.290815,139.440852 C720.510815,139.260852 722.130815,139.140852 723.090815,139.140852 C725.430815,139.140852 726.630815,139.740852 726.630815,140.820852 L726.630815,140.820852 Z M729.330815,154.440852 C729.330815,155.340852 728.310815,156.240852 726.270815,157.080852 C724.230815,157.920852 721.470815,158.580852 718.050815,159.000852 L718.050815,151.440852 C722.010815,151.560852 724.770815,151.860852 726.450815,152.220852 C728.370815,152.700852 729.330815,153.420852 729.330815,154.440852 L729.330815,154.440852 Z M761.670815,139.740852 C761.670815,136.860852 761.010815,134.460852 759.690815,132.540852 C758.250815,130.440852 756.150815,129.360852 753.510815,129.360852 C749.730815,129.360852 746.790815,132.000852 744.690815,137.280852 C743.250815,140.940852 742.530815,145.140852 742.530815,149.820852 C742.530815,150.420852 742.530815,150.900852 742.590815,151.200852 C740.910815,151.800852 740.130815,152.700852 740.130815,153.960852 C740.130815,155.520852 740.910815,156.360852 742.590815,156.480852 C742.710815,157.440852 742.770815,158.880852 742.770815,160.800852 C742.770815,164.640852 742.530815,167.340852 742.170815,169.020852 C741.750815,170.640852 741.570815,171.540852 741.570815,171.720852 C741.570815,172.380852 741.810815,172.980852 742.290815,173.520852 C742.770815,174.000852 743.370815,174.300852 744.030815,174.300852 C745.290815,174.300852 746.190815,173.040852 746.730815,170.580852 C747.330815,167.820852 747.630815,165.000852 747.630815,162.240852 C747.630815,159.720852 747.510815,157.260852 747.330815,154.860852 C756.870815,151.380852 761.670815,146.340852 761.670815,139.740852 L761.670815,139.740852 Z M756.870815,138.720852 C756.870815,143.640852 753.690815,147.240852 747.390815,149.520852 C747.390815,146.280852 747.930815,142.980852 749.070815,139.740852 C750.330815,136.200852 751.830815,134.400852 753.510815,134.400852 C754.530815,134.400852 755.370815,134.880852 756.030815,135.720852 C756.570815,136.560852 756.870815,137.580852 756.870815,138.720852 L756.870815,138.720852 Z M789.390815,146.580852 C789.390815,146.040852 789.090815,145.440852 788.610815,144.840852 C788.610815,143.460852 788.370815,142.260852 788.010815,141.180852 C788.070815,140.940852 788.130815,140.640852 788.130815,140.340852 C788.130815,139.620852 787.710815,138.900852 786.990815,138.300852 C786.210815,137.700852 785.430815,137.340852 784.650815,137.340852 C781.350815,137.340852 777.750815,139.260852 773.790815,142.980852 C769.650815,146.820852 767.610815,150.540852 767.610815,154.020852 C767.610815,155.880852 768.210815,157.500852 769.530815,158.940852 C770.790815,160.440852 772.290815,161.160852 774.030815,161.160852 C776.730815,161.160852 779.730815,159.480852 783.090815,156.120852 C783.390815,160.680852 784.410815,163.020852 786.150815,163.020852 C786.750815,163.020852 787.350815,162.780852 787.890815,162.420852 C788.370815,161.940852 788.670815,161.340852 788.670815,160.740852 C788.670815,160.560852 788.490815,159.840852 788.250815,158.400852 C787.950815,157.020852 787.830815,155.940852 787.830815,155.220852 C787.830815,152.820852 788.190815,150.420852 789.030815,147.900852 C789.270815,147.240852 789.390815,146.820852 789.390815,146.580852 L789.390815,146.580852 Z M783.930815,144.840852 C783.930815,146.880852 782.730815,149.280852 780.450815,152.040852 C778.170815,154.800852 776.070815,156.120852 774.270815,156.120852 C773.010815,156.120852 772.410815,155.400852 772.410815,153.900852 C772.410815,151.980852 773.910815,149.580852 776.970815,146.640852 C779.730815,144.000852 781.710815,142.620852 782.850815,142.620852 C783.570815,142.620852 783.930815,143.400852 783.930815,144.840852 L783.930815,144.840852 Z M815.670815,137.700852 C815.610815,137.040852 815.370815,136.380852 814.890815,135.780852 C814.410815,135.180852 813.870815,134.880852 813.270815,134.880852 C811.650815,134.880852 810.810815,135.780852 810.750815,137.520852 C810.750815,137.760852 810.750815,138.540852 810.810815,139.800852 C810.810815,141.180852 810.870815,141.960852 810.870815,142.200852 C810.870815,144.540852 810.090815,146.700852 808.590815,148.740852 C807.030815,150.780852 805.290815,151.740852 803.430815,151.740852 C801.090815,151.740852 799.950815,150.060852 799.950815,146.580852 C799.950815,145.260852 800.190815,142.260852 800.790815,137.580852 C800.610815,135.900852 799.890815,135.000852 798.690815,135.000852 C797.010815,135.000852 796.050815,136.620852 795.690815,139.800852 C795.570815,140.700852 795.510815,142.920852 795.510815,146.520852 C795.510815,152.880852 798.030815,156.060852 803.130815,156.060852 C804.570815,156.060852 806.070815,155.700852 807.510815,154.860852 C808.950815,154.080852 810.090815,153.000852 810.810815,151.680852 C810.690815,154.080852 810.570815,156.060852 810.450815,157.560852 C810.210815,160.020852 810.150815,161.760852 810.150815,162.960852 C810.150815,164.580852 810.810815,165.420852 812.250815,165.420852 C813.810815,165.420852 814.650815,164.580852 814.710815,162.900852 C814.770815,159.000852 814.950815,153.240852 815.310815,145.680852 C815.430815,141.720852 815.550815,139.080852 815.670815,137.700852 L815.670815,137.700852 Z M843.630815,150.660852 L843.630815,146.640852 C843.630815,142.440852 842.670815,140.280852 840.810815,140.280852 C839.850815,140.280852 838.950815,141.120852 838.050815,142.680852 C836.190815,145.980852 834.750815,148.320852 833.670815,149.640852 C832.230815,151.440852 830.850815,152.340852 829.530815,152.340852 C828.570815,152.340852 828.150815,151.800852 828.150815,150.720852 C828.150815,149.760852 828.330815,147.900852 828.690815,145.140852 C829.050815,142.380852 829.290815,140.700852 829.290815,140.160852 C829.290815,138.720852 829.050815,137.400852 828.570815,136.320852 C828.030815,135.000852 827.250815,134.340852 826.290815,134.340852 C824.490815,134.340852 823.650815,135.120852 823.650815,136.620852 C823.650815,136.980852 823.710815,137.460852 823.950815,138.180852 C824.130815,138.900852 824.250815,139.380852 824.250815,139.740852 C824.250815,140.940852 824.070815,142.740852 823.770815,145.260852 C823.470815,147.780852 823.350815,149.700852 823.350815,150.900852 C823.350815,152.880852 823.890815,154.500852 825.030815,155.760852 C826.110815,157.080852 827.550815,157.680852 829.470815,157.680852 C832.530815,157.680852 835.650815,155.460852 838.830815,151.020852 C838.830815,153.060852 838.650815,154.980852 838.350815,156.840852 C836.910815,164.820852 831.630815,168.840852 822.450815,168.960852 C821.010815,168.780852 819.930815,168.660852 819.210815,168.600852 C817.710815,168.660852 816.930815,169.440852 816.930815,171.000852 C816.930815,173.160852 818.790815,174.300852 822.510815,174.300852 C828.390815,174.300852 833.130815,172.680852 836.850815,169.560852 C841.350815,165.720852 843.630815,159.480852 843.630815,150.660852 L843.630815,150.660852 Z M863.730815,121.740852 C863.730815,121.140852 863.490815,120.540852 863.070815,120.000852 C862.650815,119.460852 862.110815,119.160852 861.510815,119.160852 C860.790815,119.160852 860.130815,119.460852 859.470815,120.000852 C858.750815,120.600852 858.270815,121.320852 858.090815,122.040852 C857.730815,123.240852 857.610815,124.080852 857.610815,124.500852 C857.610815,124.860852 857.670815,125.160852 857.790815,125.520852 C857.070815,128.100852 856.530815,132.060852 856.110815,137.340852 C855.810815,141.540852 855.630815,144.540852 855.570815,146.220852 C855.450815,147.660852 855.450815,148.560852 855.450815,148.920852 C855.450815,149.580852 855.630815,150.120852 856.110815,150.600852 C856.530815,151.080852 857.070815,151.320852 857.790815,151.320852 C859.290815,151.320852 860.070815,150.300852 860.190815,148.140852 C860.550815,138.360852 861.510815,130.320852 863.070815,124.020852 C863.310815,123.060852 863.550815,122.280852 863.730815,121.740852 L863.730815,121.740852 Z M860.490815,160.860852 C860.490815,159.000852 859.950815,157.740852 858.930815,157.140852 C858.330815,156.780852 857.910815,156.600852 857.550815,156.600852 C856.710815,156.600852 855.930815,156.900852 855.330815,157.500852 C854.670815,158.100852 854.370815,158.760852 854.370815,159.600852 C854.370815,160.920852 854.790815,161.880852 855.630815,162.420852 C856.290815,163.260852 857.010815,163.740852 857.850815,163.740852 C859.590815,163.740852 860.490815,162.780852 860.490815,160.860852 L860.490815,160.860852 Z" id="Мигом-к-врачу!" transform="translate(677.220815, 146.100852) rotate(-10.000000) translate(-677.220815, -146.100852) "></path>
        </g>
    </g>
</svg>