<?xml version="1.0" encoding="UTF-8"?>
<svg width="131px" height="55px" viewBox="0 0 131 55" version="1.1" xmlns="http://www.w3.org/2000/svg" xmlns:xlink="http://www.w3.org/1999/xlink">
    <!-- Generator: Sketch 40.3 (33839) - http://www.bohemiancoding.com/sketch -->
    <title>при цистите все ввер</title>
    <desc>Created with Sketch.</desc>
    <defs></defs>
    <g id="Page-1" stroke="none" stroke-width="1" fill="none" fill-rule="evenodd">
        <g id="Sostav-IN-CURVES" transform="translate(-1128.000000, -24.000000)" fill="#354777">
            <path d="M1137.23833,35.7212281 C1137.23833,35.5012281 1137.13833,35.3012281 1136.93833,35.1412281 C1136.71833,35.0012281 1136.49833,34.9212281 1136.27833,34.8812281 C1134.23833,35.0412281 1132.61833,35.1812281 1131.45833,35.2612281 C1130.75833,35.3212281 1130.41833,35.5612281 1130.41833,36.0012281 C1130.41833,36.2812281 1130.45833,36.5212281 1130.57833,36.7412281 C1130.43833,38.8012281 1130.37833,39.8412281 1130.37833,39.8812281 C1130.23833,41.3212281 1130.17833,42.0412281 1130.17833,42.0412281 C1130.17833,42.3012281 1130.25833,42.5612281 1130.43833,42.8212281 C1130.61833,43.0812281 1130.81833,43.2012281 1131.05833,43.2012281 C1131.45833,43.2012281 1131.65833,42.9412281 1131.69833,42.4012281 C1131.81833,40.2412281 1131.93833,38.3812281 1132.09833,36.8212281 C1133.11833,36.6812281 1134.17833,36.5812281 1135.27833,36.5412281 C1135.27833,36.6012281 1135.23833,37.5812281 1135.17833,39.4612281 C1135.09833,41.1412281 1135.07833,42.0412281 1135.07833,42.1612281 C1135.07833,43.4612281 1135.41833,44.1212281 1136.13833,44.1212281 C1136.51833,44.1212281 1136.71833,43.9012281 1136.71833,43.5012281 C1136.59833,42.9012281 1136.55833,42.3412281 1136.55833,41.8612281 C1136.55833,41.2212281 1136.59833,40.2012281 1136.67833,38.8012281 C1136.69833,38.5812281 1136.73833,38.2612281 1136.79833,37.8212281 C1136.83833,37.4612281 1136.85833,37.2612281 1136.85833,37.1812281 C1136.85833,37.0612281 1136.81833,36.8812281 1136.77833,36.6412281 C1137.07833,36.3212281 1137.23833,36.0212281 1137.23833,35.7212281 L1137.23833,35.7212281 Z M1146.53833,36.2812281 C1146.53833,35.3212281 1146.31833,34.5212281 1145.87833,33.8812281 C1145.39833,33.1812281 1144.69833,32.8212281 1143.81833,32.8212281 C1142.55833,32.8212281 1141.57833,33.7012281 1140.87833,35.4612281 C1140.39833,36.6812281 1140.15833,38.0812281 1140.15833,39.6412281 C1140.15833,39.8412281 1140.15833,40.0012281 1140.17833,40.1012281 C1139.61833,40.3012281 1139.35833,40.6012281 1139.35833,41.0212281 C1139.35833,41.5412281 1139.61833,41.8212281 1140.17833,41.8612281 C1140.21833,42.1812281 1140.23833,42.6612281 1140.23833,43.3012281 C1140.23833,44.5812281 1140.15833,45.4812281 1140.03833,46.0412281 C1139.89833,46.5812281 1139.83833,46.8812281 1139.83833,46.9412281 C1139.83833,47.1612281 1139.91833,47.3612281 1140.07833,47.5412281 C1140.23833,47.7012281 1140.43833,47.8012281 1140.65833,47.8012281 C1141.07833,47.8012281 1141.37833,47.3812281 1141.55833,46.5612281 C1141.75833,45.6412281 1141.85833,44.7012281 1141.85833,43.7812281 C1141.85833,42.9412281 1141.81833,42.1212281 1141.75833,41.3212281 C1144.93833,40.1612281 1146.53833,38.4812281 1146.53833,36.2812281 L1146.53833,36.2812281 Z M1144.93833,35.9412281 C1144.93833,37.5812281 1143.87833,38.7812281 1141.77833,39.5412281 C1141.77833,38.4612281 1141.95833,37.3612281 1142.33833,36.2812281 C1142.75833,35.1012281 1143.25833,34.5012281 1143.81833,34.5012281 C1144.15833,34.5012281 1144.43833,34.6612281 1144.65833,34.9412281 C1144.83833,35.2212281 1144.93833,35.5612281 1144.93833,35.9412281 L1144.93833,35.9412281 Z M1155.93833,43.3212281 C1155.93833,43.1812281 1155.83833,43.0012281 1155.65833,42.8012281 C1155.21833,42.3212281 1155.01833,41.1012281 1155.01833,39.1412281 C1155.01833,38.4412281 1155.11833,37.2612281 1155.33833,35.6012281 C1155.33833,35.3812281 1155.23833,35.1812281 1155.07833,34.9812281 C1154.89833,34.8012281 1154.69833,34.7012281 1154.47833,34.7012281 C1154.13833,34.7012281 1153.41833,35.4412281 1152.33833,36.9212281 C1151.45833,38.0812281 1150.73833,39.1412281 1150.13833,40.0612281 C1150.27833,38.5012281 1150.37833,37.3612281 1150.43833,36.6812281 C1150.43833,36.3612281 1150.31833,36.0812281 1150.11833,35.8412281 C1149.91833,35.6212281 1149.65833,35.5012281 1149.33833,35.5012281 C1149.15833,35.5012281 1148.99833,35.6212281 1148.83833,35.8412281 C1148.87833,36.4212281 1148.91833,36.7612281 1148.91833,36.8412281 C1148.91833,37.2012281 1148.85833,38.1012281 1148.75833,39.5612281 L1148.71833,40.1412281 C1148.69833,40.4412281 1148.65833,40.8412281 1148.61833,41.3412281 C1148.55833,41.8212281 1148.51833,42.1212281 1148.51833,42.2412281 C1148.53833,42.5212281 1148.61833,42.7412281 1148.77833,42.8612281 C1149.09833,43.1812281 1149.29833,43.3212281 1149.37833,43.3212281 C1149.65833,43.3212281 1149.99833,43.0212281 1150.35833,42.3812281 C1151.09833,41.1412281 1151.61833,40.2612281 1151.93833,39.7812281 C1152.45833,38.9212281 1153.01833,38.1212281 1153.63833,37.4012281 C1153.63833,37.6012281 1153.61833,38.0212281 1153.61833,38.6412281 C1153.59833,39.2812281 1153.59833,39.6212281 1153.59833,39.7012281 C1153.59833,40.7412281 1153.69833,41.6212281 1153.91833,42.3812281 C1154.21833,43.4812281 1154.65833,44.0412281 1155.21833,44.0412281 C1155.33833,44.0412281 1155.49833,43.9412281 1155.67833,43.7812281 C1155.83833,43.5812281 1155.93833,43.4412281 1155.93833,43.3212281 L1155.93833,43.3212281 Z M1172.05833,43.3412281 C1172.05833,42.4212281 1171.71833,41.9012281 1171.07833,41.7812281 C1170.87833,41.8212281 1170.73833,41.8612281 1170.63833,41.8612281 C1170.87833,39.1412281 1171.03833,37.2612281 1171.11833,36.2212281 C1171.11833,35.9812281 1171.01833,35.7212281 1170.83833,35.4612281 C1170.63833,35.2012281 1170.43833,35.0612281 1170.21833,35.0612281 C1169.79833,35.0612281 1169.55833,35.2412281 1169.49833,35.5612281 L1169.49833,37.2412281 C1169.49833,38.0612281 1169.35833,39.6812281 1169.11833,42.0812281 C1167.67833,42.3012281 1166.83833,42.4012281 1166.61833,42.4012281 C1166.41833,42.4012281 1166.31833,42.2812281 1166.31833,42.0212281 L1166.45833,39.5612281 C1166.55833,37.9412281 1166.61833,37.1012281 1166.61833,37.0212281 C1166.61833,36.5212281 1166.53833,36.0612281 1166.39833,35.6212281 C1166.19833,35.0612281 1165.89833,34.7612281 1165.49833,34.7612281 C1165.11833,34.7612281 1164.91833,34.9812281 1164.87833,35.4212281 C1164.89833,35.8412281 1164.91833,36.1612281 1164.95833,36.3612281 C1164.99833,37.0012281 1165.03833,37.3212281 1165.03833,37.3412281 C1165.03833,37.9012281 1164.99833,38.7012281 1164.93833,39.7812281 C1164.85833,40.8612281 1164.81833,41.6812281 1164.81833,42.2212281 C1164.81833,42.9412281 1165.03833,43.4212281 1165.49833,43.7412281 C1165.81833,43.9412281 1166.09833,44.0612281 1166.33833,44.0612281 L1168.31833,43.7612281 C1169.07833,43.6412281 1169.73833,43.6012281 1170.33833,43.6012281 C1170.49833,43.6012281 1170.57833,43.6812281 1170.57833,43.8612281 C1170.57833,44.1012281 1170.53833,44.3612281 1170.45833,44.6412281 C1170.31833,45.0812281 1170.25833,45.3612281 1170.25833,45.4412281 C1170.25833,45.5212281 1170.31833,45.6412281 1170.45833,45.7812281 C1170.59833,45.9012281 1170.71833,45.9812281 1170.81833,45.9812281 C1171.13833,45.9812281 1171.43833,45.6212281 1171.71833,44.9012281 C1171.93833,44.3012281 1172.05833,43.7812281 1172.05833,43.3412281 L1172.05833,43.3412281 Z M1181.09833,43.3212281 C1181.09833,43.1812281 1180.99833,43.0012281 1180.81833,42.8012281 C1180.37833,42.3212281 1180.17833,41.1012281 1180.17833,39.1412281 C1180.17833,38.4412281 1180.27833,37.2612281 1180.49833,35.6012281 C1180.49833,35.3812281 1180.39833,35.1812281 1180.23833,34.9812281 C1180.05833,34.8012281 1179.85833,34.7012281 1179.63833,34.7012281 C1179.29833,34.7012281 1178.57833,35.4412281 1177.49833,36.9212281 C1176.61833,38.0812281 1175.89833,39.1412281 1175.29833,40.0612281 C1175.43833,38.5012281 1175.53833,37.3612281 1175.59833,36.6812281 C1175.59833,36.3612281 1175.47833,36.0812281 1175.27833,35.8412281 C1175.07833,35.6212281 1174.81833,35.5012281 1174.49833,35.5012281 C1174.31833,35.5012281 1174.15833,35.6212281 1173.99833,35.8412281 C1174.03833,36.4212281 1174.07833,36.7612281 1174.07833,36.8412281 C1174.07833,37.2012281 1174.01833,38.1012281 1173.91833,39.5612281 L1173.87833,40.1412281 C1173.85833,40.4412281 1173.81833,40.8412281 1173.77833,41.3412281 C1173.71833,41.8212281 1173.67833,42.1212281 1173.67833,42.2412281 C1173.69833,42.5212281 1173.77833,42.7412281 1173.93833,42.8612281 C1174.25833,43.1812281 1174.45833,43.3212281 1174.53833,43.3212281 C1174.81833,43.3212281 1175.15833,43.0212281 1175.51833,42.3812281 C1176.25833,41.1412281 1176.77833,40.2612281 1177.09833,39.7812281 C1177.61833,38.9212281 1178.17833,38.1212281 1178.79833,37.4012281 C1178.79833,37.6012281 1178.77833,38.0212281 1178.77833,38.6412281 C1178.75833,39.2812281 1178.75833,39.6212281 1178.75833,39.7012281 C1178.75833,40.7412281 1178.85833,41.6212281 1179.07833,42.3812281 C1179.37833,43.4812281 1179.81833,44.0412281 1180.37833,44.0412281 C1180.49833,44.0412281 1180.65833,43.9412281 1180.83833,43.7812281 C1180.99833,43.5812281 1181.09833,43.4412281 1181.09833,43.3212281 L1181.09833,43.3212281 Z M1189.31833,41.3612281 C1189.31833,41.1612281 1189.23833,40.9612281 1189.07833,40.7612281 C1188.91833,40.6012281 1188.73833,40.5012281 1188.53833,40.5012281 C1188.37833,40.5012281 1188.13833,40.6412281 1187.85833,40.9012281 C1187.61833,41.1012281 1187.37833,41.3012281 1187.17833,41.5012281 C1186.83833,41.7612281 1186.41833,41.8812281 1185.91833,41.8812281 C1185.11833,41.8812281 1184.73833,41.4012281 1184.73833,40.4012281 C1184.73833,39.7812281 1184.91833,39.1612281 1185.27833,38.5612281 C1185.63833,37.9612281 1186.07833,37.4612281 1186.61833,37.1012281 C1186.85833,37.2412281 1187.21833,37.3012281 1187.71833,37.3012281 C1187.97833,37.3012281 1188.23833,37.2012281 1188.49833,36.9612281 C1188.71833,36.7212281 1188.83833,36.5012281 1188.83833,36.2612281 C1188.83833,35.9412281 1188.71833,35.7012281 1188.47833,35.5012281 C1188.21833,35.3212281 1187.93833,35.2212281 1187.63833,35.2212281 C1186.37833,35.2212281 1185.25833,35.8812281 1184.29833,37.1812281 C1183.51833,38.2212281 1183.13833,39.3612281 1183.13833,40.6012281 C1183.13833,41.4812281 1183.41833,42.1812281 1183.97833,42.7412281 C1184.53833,43.2812281 1185.23833,43.5612281 1186.07833,43.5612281 C1186.83833,43.5612281 1187.61833,43.2612281 1188.37833,42.6612281 C1188.99833,42.1812281 1189.31833,41.7612281 1189.31833,41.3612281 L1189.31833,41.3612281 Z M1199.19833,34.8812281 C1199.19833,34.6812281 1199.11833,34.4812281 1198.97833,34.3012281 C1198.83833,34.1412281 1198.67833,34.0412281 1198.49833,34.0412281 C1198.19833,34.0412281 1197.77833,34.1212281 1197.21833,34.2412281 C1195.01833,34.7612281 1193.05833,35.2212281 1191.37833,35.6212281 C1191.25833,35.6612281 1191.17833,35.6612281 1191.13833,35.6612281 C1190.73833,35.7412281 1190.53833,36.0412281 1190.53833,36.5412281 C1190.53833,37.1012281 1190.75833,37.3612281 1191.23833,37.3612281 C1191.81833,37.2412281 1192.27833,37.1412281 1192.59833,37.0412281 C1193.17833,36.9212281 1193.67833,36.8012281 1194.09833,36.7212281 C1194.01833,38.2612281 1193.97833,39.7412281 1193.97833,41.1412281 C1193.97833,42.5012281 1194.05833,43.4412281 1194.21833,43.9612281 C1194.33833,44.3212281 1194.57833,44.5012281 1194.97833,44.5012281 C1195.49833,44.5012281 1195.75833,44.0212281 1195.75833,43.0812281 C1195.75833,42.6212281 1195.65833,42.2812281 1195.49833,42.0612281 C1195.45833,41.5612281 1195.43833,40.7812281 1195.43833,39.7012281 C1195.43833,38.8612281 1195.49833,37.7212281 1195.65833,36.3012281 C1196.23833,36.1612281 1196.63833,36.0612281 1196.87833,36.0212281 C1197.05833,36.1412281 1197.19833,36.1812281 1197.29833,36.1812281 C1197.41833,36.1812281 1197.55833,36.1612281 1197.73833,36.0812281 L1198.65833,35.6612281 C1199.01833,35.5012281 1199.19833,35.2412281 1199.19833,34.8812281 L1199.19833,34.8812281 Z M1207.83833,43.3212281 C1207.83833,43.1812281 1207.73833,43.0012281 1207.55833,42.8012281 C1207.11833,42.3212281 1206.91833,41.1012281 1206.91833,39.1412281 C1206.91833,38.4412281 1207.01833,37.2612281 1207.23833,35.6012281 C1207.23833,35.3812281 1207.13833,35.1812281 1206.97833,34.9812281 C1206.79833,34.8012281 1206.59833,34.7012281 1206.37833,34.7012281 C1206.03833,34.7012281 1205.31833,35.4412281 1204.23833,36.9212281 C1203.35833,38.0812281 1202.63833,39.1412281 1202.03833,40.0612281 C1202.17833,38.5012281 1202.27833,37.3612281 1202.33833,36.6812281 C1202.33833,36.3612281 1202.21833,36.0812281 1202.01833,35.8412281 C1201.81833,35.6212281 1201.55833,35.5012281 1201.23833,35.5012281 C1201.05833,35.5012281 1200.89833,35.6212281 1200.73833,35.8412281 C1200.77833,36.4212281 1200.81833,36.7612281 1200.81833,36.8412281 C1200.81833,37.2012281 1200.75833,38.1012281 1200.65833,39.5612281 L1200.61833,40.1412281 C1200.59833,40.4412281 1200.55833,40.8412281 1200.51833,41.3412281 C1200.45833,41.8212281 1200.41833,42.1212281 1200.41833,42.2412281 C1200.43833,42.5212281 1200.51833,42.7412281 1200.67833,42.8612281 C1200.99833,43.1812281 1201.19833,43.3212281 1201.27833,43.3212281 C1201.55833,43.3212281 1201.89833,43.0212281 1202.25833,42.3812281 C1202.99833,41.1412281 1203.51833,40.2612281 1203.83833,39.7812281 C1204.35833,38.9212281 1204.91833,38.1212281 1205.53833,37.4012281 C1205.53833,37.6012281 1205.51833,38.0212281 1205.51833,38.6412281 C1205.49833,39.2812281 1205.49833,39.6212281 1205.49833,39.7012281 C1205.49833,40.7412281 1205.59833,41.6212281 1205.81833,42.3812281 C1206.11833,43.4812281 1206.55833,44.0412281 1207.11833,44.0412281 C1207.23833,44.0412281 1207.39833,43.9412281 1207.57833,43.7812281 C1207.73833,43.5812281 1207.83833,43.4412281 1207.83833,43.3212281 L1207.83833,43.3212281 Z M1217.91833,34.8812281 C1217.91833,34.6812281 1217.83833,34.4812281 1217.69833,34.3012281 C1217.55833,34.1412281 1217.39833,34.0412281 1217.21833,34.0412281 C1216.91833,34.0412281 1216.49833,34.1212281 1215.93833,34.2412281 C1213.73833,34.7612281 1211.77833,35.2212281 1210.09833,35.6212281 C1209.97833,35.6612281 1209.89833,35.6612281 1209.85833,35.6612281 C1209.45833,35.7412281 1209.25833,36.0412281 1209.25833,36.5412281 C1209.25833,37.1012281 1209.47833,37.3612281 1209.95833,37.3612281 C1210.53833,37.2412281 1210.99833,37.1412281 1211.31833,37.0412281 C1211.89833,36.9212281 1212.39833,36.8012281 1212.81833,36.7212281 C1212.73833,38.2612281 1212.69833,39.7412281 1212.69833,41.1412281 C1212.69833,42.5012281 1212.77833,43.4412281 1212.93833,43.9612281 C1213.05833,44.3212281 1213.29833,44.5012281 1213.69833,44.5012281 C1214.21833,44.5012281 1214.47833,44.0212281 1214.47833,43.0812281 C1214.47833,42.6212281 1214.37833,42.2812281 1214.21833,42.0612281 C1214.17833,41.5612281 1214.15833,40.7812281 1214.15833,39.7012281 C1214.15833,38.8612281 1214.21833,37.7212281 1214.37833,36.3012281 C1214.95833,36.1612281 1215.35833,36.0612281 1215.59833,36.0212281 C1215.77833,36.1412281 1215.91833,36.1812281 1216.01833,36.1812281 C1216.13833,36.1812281 1216.27833,36.1612281 1216.45833,36.0812281 L1217.37833,35.6612281 C1217.73833,35.5012281 1217.91833,35.2412281 1217.91833,34.8812281 L1217.91833,34.8812281 Z M1227.07833,42.8412281 C1227.07833,42.6412281 1226.99833,42.4412281 1226.83833,42.2412281 C1226.67833,42.0812281 1226.47833,41.9812281 1226.27833,41.9812281 C1226.11833,41.9812281 1225.85833,42.0212281 1225.51833,42.0612281 C1225.17833,42.1012281 1224.91833,42.1212281 1224.75833,42.1212281 C1224.15833,42.1212281 1223.63833,41.8412281 1223.15833,41.2612281 C1225.15833,40.1812281 1226.15833,38.9012281 1226.15833,37.4212281 C1226.15833,36.8612281 1225.91833,36.3212281 1225.43833,35.8412281 C1224.95833,35.3612281 1224.47833,35.1212281 1223.97833,35.1212281 C1223.11833,35.1212281 1222.41833,35.6212281 1221.85833,36.6012281 C1221.37833,37.4412281 1221.13833,38.3412281 1221.13833,39.3012281 C1221.13833,39.5012281 1221.15833,39.7812281 1221.21833,40.1212281 L1220.75833,40.1212281 C1220.47833,40.1212281 1220.21833,40.0212281 1219.93833,39.8212281 C1219.65833,39.6212281 1219.45833,39.5212281 1219.33833,39.5212281 C1218.81833,39.5212281 1218.55833,39.8012281 1218.55833,40.3612281 C1218.55833,40.8012281 1218.87833,41.1612281 1219.55833,41.4412281 C1220.07833,41.6612281 1220.57833,41.7612281 1221.09833,41.7612281 L1221.69833,41.7612281 C1222.41833,43.1412281 1223.53833,43.8212281 1225.05833,43.8212281 C1226.39833,43.8212281 1227.07833,43.4812281 1227.07833,42.8412281 L1227.07833,42.8412281 Z M1224.57833,37.5012281 C1224.57833,38.1612281 1223.97833,38.8812281 1222.77833,39.6612281 L1222.77833,39.3012281 C1222.77833,38.7612281 1222.85833,38.2412281 1223.05833,37.7412281 C1223.25833,37.1412281 1223.53833,36.8412281 1223.89833,36.8412281 C1224.05833,36.8412281 1224.21833,36.9212281 1224.37833,37.0412281 C1224.49833,37.2012281 1224.57833,37.3412281 1224.57833,37.5012281 L1224.57833,37.5012281 Z M1243.35833,40.9812281 C1243.35833,39.8412281 1242.13833,39.2212281 1239.73833,39.1212281 C1241.57833,38.3012281 1242.49833,37.4212281 1242.49833,36.4612281 C1242.49833,35.8412281 1242.17833,35.3612281 1241.55833,35.0212281 C1241.05833,34.7812281 1240.45833,34.6412281 1239.75833,34.6412281 C1238.77833,34.6412281 1237.61833,34.7012281 1236.27833,34.8212281 C1235.67833,34.9012281 1235.39833,35.1412281 1235.39833,35.5812281 C1235.39833,36.0612281 1235.65833,36.2812281 1236.21833,36.2812281 C1236.31833,36.2812281 1236.47833,36.2612281 1236.69833,36.2212281 C1236.65833,40.6412281 1236.63833,42.9212281 1236.63833,43.0412281 C1235.93833,43.1212281 1235.59833,43.4012281 1235.59833,43.9212281 C1235.59833,44.2812281 1235.83833,44.4812281 1236.35833,44.5412281 C1236.77833,44.5212281 1237.39833,44.4212281 1238.21833,44.2412281 C1239.73833,43.8812281 1240.85833,43.5212281 1241.53833,43.2012281 C1242.73833,42.6412281 1243.35833,41.9012281 1243.35833,40.9812281 L1243.35833,40.9812281 Z M1240.95833,36.6412281 C1240.95833,37.2212281 1240.01833,37.8412281 1238.13833,38.5012281 L1238.17833,36.1812281 C1238.91833,36.1212281 1239.45833,36.0812281 1239.77833,36.0812281 C1240.55833,36.0812281 1240.95833,36.2812281 1240.95833,36.6412281 L1240.95833,36.6412281 Z M1241.85833,41.1812281 C1241.85833,41.4812281 1241.51833,41.7812281 1240.83833,42.0612281 C1240.15833,42.3412281 1239.23833,42.5612281 1238.09833,42.7012281 L1238.09833,40.1812281 C1239.41833,40.2212281 1240.33833,40.3212281 1240.89833,40.4412281 C1241.53833,40.6012281 1241.85833,40.8412281 1241.85833,41.1812281 L1241.85833,41.1812281 Z M1251.57833,41.3612281 C1251.57833,41.1612281 1251.49833,40.9612281 1251.33833,40.7612281 C1251.17833,40.6012281 1250.99833,40.5012281 1250.79833,40.5012281 C1250.63833,40.5012281 1250.39833,40.6412281 1250.11833,40.9012281 C1249.87833,41.1012281 1249.63833,41.3012281 1249.43833,41.5012281 C1249.09833,41.7612281 1248.67833,41.8812281 1248.17833,41.8812281 C1247.37833,41.8812281 1246.99833,41.4012281 1246.99833,40.4012281 C1246.99833,39.7812281 1247.17833,39.1612281 1247.53833,38.5612281 C1247.89833,37.9612281 1248.33833,37.4612281 1248.87833,37.1012281 C1249.11833,37.2412281 1249.47833,37.3012281 1249.97833,37.3012281 C1250.23833,37.3012281 1250.49833,37.2012281 1250.75833,36.9612281 C1250.97833,36.7212281 1251.09833,36.5012281 1251.09833,36.2612281 C1251.09833,35.9412281 1250.97833,35.7012281 1250.73833,35.5012281 C1250.47833,35.3212281 1250.19833,35.2212281 1249.89833,35.2212281 C1248.63833,35.2212281 1247.51833,35.8812281 1246.55833,37.1812281 C1245.77833,38.2212281 1245.39833,39.3612281 1245.39833,40.6012281 C1245.39833,41.4812281 1245.67833,42.1812281 1246.23833,42.7412281 C1246.79833,43.2812281 1247.49833,43.5612281 1248.33833,43.5612281 C1249.09833,43.5612281 1249.87833,43.2612281 1250.63833,42.6612281 C1251.25833,42.1812281 1251.57833,41.7612281 1251.57833,41.3612281 L1251.57833,41.3612281 Z M1261.35833,42.8412281 C1261.35833,42.6412281 1261.27833,42.4412281 1261.11833,42.2412281 C1260.95833,42.0812281 1260.75833,41.9812281 1260.55833,41.9812281 C1260.39833,41.9812281 1260.13833,42.0212281 1259.79833,42.0612281 C1259.45833,42.1012281 1259.19833,42.1212281 1259.03833,42.1212281 C1258.43833,42.1212281 1257.91833,41.8412281 1257.43833,41.2612281 C1259.43833,40.1812281 1260.43833,38.9012281 1260.43833,37.4212281 C1260.43833,36.8612281 1260.19833,36.3212281 1259.71833,35.8412281 C1259.23833,35.3612281 1258.75833,35.1212281 1258.25833,35.1212281 C1257.39833,35.1212281 1256.69833,35.6212281 1256.13833,36.6012281 C1255.65833,37.4412281 1255.41833,38.3412281 1255.41833,39.3012281 C1255.41833,39.5012281 1255.43833,39.7812281 1255.49833,40.1212281 L1255.03833,40.1212281 C1254.75833,40.1212281 1254.49833,40.0212281 1254.21833,39.8212281 C1253.93833,39.6212281 1253.73833,39.5212281 1253.61833,39.5212281 C1253.09833,39.5212281 1252.83833,39.8012281 1252.83833,40.3612281 C1252.83833,40.8012281 1253.15833,41.1612281 1253.83833,41.4412281 C1254.35833,41.6612281 1254.85833,41.7612281 1255.37833,41.7612281 L1255.97833,41.7612281 C1256.69833,43.1412281 1257.81833,43.8212281 1259.33833,43.8212281 C1260.67833,43.8212281 1261.35833,43.4812281 1261.35833,42.8412281 L1261.35833,42.8412281 Z M1258.85833,37.5012281 C1258.85833,38.1612281 1258.25833,38.8812281 1257.05833,39.6612281 L1257.05833,39.3012281 C1257.05833,38.7612281 1257.13833,38.2412281 1257.33833,37.7412281 C1257.53833,37.1412281 1257.81833,36.8412281 1258.17833,36.8412281 C1258.33833,36.8412281 1258.49833,36.9212281 1258.65833,37.0412281 C1258.77833,37.2012281 1258.85833,37.3412281 1258.85833,37.5012281 L1258.85833,37.5012281 Z M1138.13833,63.9812281 C1138.13833,62.8412281 1136.91833,62.2212281 1134.51833,62.1212281 C1136.35833,61.3012281 1137.27833,60.4212281 1137.27833,59.4612281 C1137.27833,58.8412281 1136.95833,58.3612281 1136.33833,58.0212281 C1135.83833,57.7812281 1135.23833,57.6412281 1134.53833,57.6412281 C1133.55833,57.6412281 1132.39833,57.7012281 1131.05833,57.8212281 C1130.45833,57.9012281 1130.17833,58.1412281 1130.17833,58.5812281 C1130.17833,59.0612281 1130.43833,59.2812281 1130.99833,59.2812281 C1131.09833,59.2812281 1131.25833,59.2612281 1131.47833,59.2212281 C1131.43833,63.6412281 1131.41833,65.9212281 1131.41833,66.0412281 C1130.71833,66.1212281 1130.37833,66.4012281 1130.37833,66.9212281 C1130.37833,67.2812281 1130.61833,67.4812281 1131.13833,67.5412281 C1131.55833,67.5212281 1132.17833,67.4212281 1132.99833,67.2412281 C1134.51833,66.8812281 1135.63833,66.5212281 1136.31833,66.2012281 C1137.51833,65.6412281 1138.13833,64.9012281 1138.13833,63.9812281 L1138.13833,63.9812281 Z M1135.73833,59.6412281 C1135.73833,60.2212281 1134.79833,60.8412281 1132.91833,61.5012281 L1132.95833,59.1812281 C1133.69833,59.1212281 1134.23833,59.0812281 1134.55833,59.0812281 C1135.33833,59.0812281 1135.73833,59.2812281 1135.73833,59.6412281 L1135.73833,59.6412281 Z M1136.63833,64.1812281 C1136.63833,64.4812281 1136.29833,64.7812281 1135.61833,65.0612281 C1134.93833,65.3412281 1134.01833,65.5612281 1132.87833,65.7012281 L1132.87833,63.1812281 C1134.19833,63.2212281 1135.11833,63.3212281 1135.67833,63.4412281 C1136.31833,63.6012281 1136.63833,63.8412281 1136.63833,64.1812281 L1136.63833,64.1812281 Z M1148.13833,63.9812281 C1148.13833,62.8412281 1146.91833,62.2212281 1144.51833,62.1212281 C1146.35833,61.3012281 1147.27833,60.4212281 1147.27833,59.4612281 C1147.27833,58.8412281 1146.95833,58.3612281 1146.33833,58.0212281 C1145.83833,57.7812281 1145.23833,57.6412281 1144.53833,57.6412281 C1143.55833,57.6412281 1142.39833,57.7012281 1141.05833,57.8212281 C1140.45833,57.9012281 1140.17833,58.1412281 1140.17833,58.5812281 C1140.17833,59.0612281 1140.43833,59.2812281 1140.99833,59.2812281 C1141.09833,59.2812281 1141.25833,59.2612281 1141.47833,59.2212281 C1141.43833,63.6412281 1141.41833,65.9212281 1141.41833,66.0412281 C1140.71833,66.1212281 1140.37833,66.4012281 1140.37833,66.9212281 C1140.37833,67.2812281 1140.61833,67.4812281 1141.13833,67.5412281 C1141.55833,67.5212281 1142.17833,67.4212281 1142.99833,67.2412281 C1144.51833,66.8812281 1145.63833,66.5212281 1146.31833,66.2012281 C1147.51833,65.6412281 1148.13833,64.9012281 1148.13833,63.9812281 L1148.13833,63.9812281 Z M1145.73833,59.6412281 C1145.73833,60.2212281 1144.79833,60.8412281 1142.91833,61.5012281 L1142.95833,59.1812281 C1143.69833,59.1212281 1144.23833,59.0812281 1144.55833,59.0812281 C1145.33833,59.0812281 1145.73833,59.2812281 1145.73833,59.6412281 L1145.73833,59.6412281 Z M1146.63833,64.1812281 C1146.63833,64.4812281 1146.29833,64.7812281 1145.61833,65.0612281 C1144.93833,65.3412281 1144.01833,65.5612281 1142.87833,65.7012281 L1142.87833,63.1812281 C1144.19833,63.2212281 1145.11833,63.3212281 1145.67833,63.4412281 C1146.31833,63.6012281 1146.63833,63.8412281 1146.63833,64.1812281 L1146.63833,64.1812281 Z M1158.11833,65.8412281 C1158.11833,65.6412281 1158.03833,65.4412281 1157.87833,65.2412281 C1157.71833,65.0812281 1157.51833,64.9812281 1157.31833,64.9812281 C1157.15833,64.9812281 1156.89833,65.0212281 1156.55833,65.0612281 C1156.21833,65.1012281 1155.95833,65.1212281 1155.79833,65.1212281 C1155.19833,65.1212281 1154.67833,64.8412281 1154.19833,64.2612281 C1156.19833,63.1812281 1157.19833,61.9012281 1157.19833,60.4212281 C1157.19833,59.8612281 1156.95833,59.3212281 1156.47833,58.8412281 C1155.99833,58.3612281 1155.51833,58.1212281 1155.01833,58.1212281 C1154.15833,58.1212281 1153.45833,58.6212281 1152.89833,59.6012281 C1152.41833,60.4412281 1152.17833,61.3412281 1152.17833,62.3012281 C1152.17833,62.5012281 1152.19833,62.7812281 1152.25833,63.1212281 L1151.79833,63.1212281 C1151.51833,63.1212281 1151.25833,63.0212281 1150.97833,62.8212281 C1150.69833,62.6212281 1150.49833,62.5212281 1150.37833,62.5212281 C1149.85833,62.5212281 1149.59833,62.8012281 1149.59833,63.3612281 C1149.59833,63.8012281 1149.91833,64.1612281 1150.59833,64.4412281 C1151.11833,64.6612281 1151.61833,64.7612281 1152.13833,64.7612281 L1152.73833,64.7612281 C1153.45833,66.1412281 1154.57833,66.8212281 1156.09833,66.8212281 C1157.43833,66.8212281 1158.11833,66.4812281 1158.11833,65.8412281 L1158.11833,65.8412281 Z M1155.61833,60.5012281 C1155.61833,61.1612281 1155.01833,61.8812281 1153.81833,62.6612281 L1153.81833,62.3012281 C1153.81833,61.7612281 1153.89833,61.2412281 1154.09833,60.7412281 C1154.29833,60.1412281 1154.57833,59.8412281 1154.93833,59.8412281 C1155.09833,59.8412281 1155.25833,59.9212281 1155.41833,60.0412281 C1155.53833,60.2012281 1155.61833,60.3412281 1155.61833,60.5012281 L1155.61833,60.5012281 Z M1166.83833,59.2812281 C1166.83833,58.3212281 1166.61833,57.5212281 1166.17833,56.8812281 C1165.69833,56.1812281 1164.99833,55.8212281 1164.11833,55.8212281 C1162.85833,55.8212281 1161.87833,56.7012281 1161.17833,58.4612281 C1160.69833,59.6812281 1160.45833,61.0812281 1160.45833,62.6412281 C1160.45833,62.8412281 1160.45833,63.0012281 1160.47833,63.1012281 C1159.91833,63.3012281 1159.65833,63.6012281 1159.65833,64.0212281 C1159.65833,64.5412281 1159.91833,64.8212281 1160.47833,64.8612281 C1160.51833,65.1812281 1160.53833,65.6612281 1160.53833,66.3012281 C1160.53833,67.5812281 1160.45833,68.4812281 1160.33833,69.0412281 C1160.19833,69.5812281 1160.13833,69.8812281 1160.13833,69.9412281 C1160.13833,70.1612281 1160.21833,70.3612281 1160.37833,70.5412281 C1160.53833,70.7012281 1160.73833,70.8012281 1160.95833,70.8012281 C1161.37833,70.8012281 1161.67833,70.3812281 1161.85833,69.5612281 C1162.05833,68.6412281 1162.15833,67.7012281 1162.15833,66.7812281 C1162.15833,65.9412281 1162.11833,65.1212281 1162.05833,64.3212281 C1165.23833,63.1612281 1166.83833,61.4812281 1166.83833,59.2812281 L1166.83833,59.2812281 Z M1165.23833,58.9412281 C1165.23833,60.5812281 1164.17833,61.7812281 1162.07833,62.5412281 C1162.07833,61.4612281 1162.25833,60.3612281 1162.63833,59.2812281 C1163.05833,58.1012281 1163.55833,57.5012281 1164.11833,57.5012281 C1164.45833,57.5012281 1164.73833,57.6612281 1164.95833,57.9412281 C1165.13833,58.2212281 1165.23833,58.5612281 1165.23833,58.9412281 L1165.23833,58.9412281 Z M1176.85833,59.8212281 C1176.85833,59.6012281 1176.75833,59.4212281 1176.57833,59.2612281 C1176.39833,59.1012281 1176.19833,59.0212281 1175.97833,59.0212281 C1175.85833,59.0212281 1175.63833,59.1612281 1175.27833,59.4212281 C1174.29833,60.1812281 1173.53833,60.7612281 1172.99833,61.2012281 C1172.51833,60.5212281 1172.03833,59.8812281 1171.53833,59.2812281 C1171.03833,58.6812281 1170.65833,58.3812281 1170.41833,58.3812281 C1169.77833,58.3812281 1169.47833,58.7012281 1169.47833,59.3212281 C1169.47833,59.4812281 1169.65833,59.8412281 1170.03833,60.3812281 C1170.35833,60.8612281 1170.59833,61.1812281 1170.79833,61.3412281 C1170.89833,61.4612281 1171.01833,61.5412281 1171.17833,61.5812281 C1171.37833,61.8412281 1171.55833,62.0612281 1171.67833,62.2412281 C1170.63833,63.0812281 1169.87833,63.7412281 1169.37833,64.2212281 C1168.71833,64.8412281 1168.39833,65.3212281 1168.39833,65.6412281 C1168.39833,66.2012281 1168.67833,66.5012281 1169.23833,66.5012281 C1169.43833,66.5012281 1169.67833,66.3812281 1169.91833,66.1412281 C1170.63833,65.3812281 1171.53833,64.5812281 1172.61833,63.7012281 C1173.07833,64.5012281 1173.49833,65.2812281 1173.85833,66.0812281 C1174.01833,66.4212281 1174.29833,66.6012281 1174.67833,66.6012281 C1174.85833,66.6012281 1175.03833,66.5212281 1175.21833,66.3612281 C1175.39833,66.2012281 1175.49833,66.0012281 1175.49833,65.8012281 C1175.49833,65.6412281 1175.29833,65.1812281 1174.93833,64.4212281 C1174.65833,63.8612281 1174.31833,63.2812281 1173.93833,62.6412281 C1175.01833,61.8012281 1175.85833,61.1012281 1176.45833,60.5812281 C1176.71833,60.3612281 1176.85833,60.1012281 1176.85833,59.8212281 L1176.85833,59.8212281 Z M1193.95833,66.2412281 C1193.95833,66.1812281 1193.91833,66.0812281 1193.83833,65.9612281 C1193.59833,65.5212281 1193.31833,65.3012281 1193.03833,65.3012281 C1192.99833,65.3012281 1192.93833,65.3212281 1192.83833,65.3212281 C1192.93833,62.8412281 1193.01833,61.0412281 1193.09833,59.9012281 C1193.13833,59.3212281 1193.25833,58.7412281 1193.47833,58.1412281 C1193.47833,57.9412281 1193.35833,57.7212281 1193.15833,57.5212281 C1192.95833,57.3212281 1192.75833,57.2212281 1192.55833,57.2212281 C1192.03833,57.2212281 1191.41833,57.3412281 1190.67833,57.5412281 C1189.79833,57.8012281 1189.21833,58.0012281 1188.93833,58.1212281 C1188.49833,58.3612281 1188.29833,58.6612281 1188.29833,59.0012281 C1188.29833,59.1012281 1188.33833,59.2412281 1188.43833,59.4412281 C1188.49833,59.6412281 1188.53833,59.7812281 1188.53833,59.8612281 C1188.53833,60.7412281 1188.31833,61.7412281 1187.87833,62.9012281 C1187.39833,64.1212281 1186.85833,65.0812281 1186.21833,65.7812281 C1185.59833,65.8212281 1185.27833,66.1012281 1185.23833,66.6212281 C1185.15833,67.4012281 1185.13833,68.0812281 1185.13833,68.6412281 C1185.13833,68.8212281 1185.21833,69.0012281 1185.37833,69.1612281 C1185.53833,69.3212281 1185.75833,69.4212281 1185.99833,69.4212281 C1186.45833,69.4212281 1186.69833,69.1812281 1186.69833,68.7212281 C1186.69833,68.6412281 1186.67833,68.5412281 1186.65833,68.4012281 C1186.61833,68.2612281 1186.61833,68.1612281 1186.61833,68.1212281 C1186.61833,68.0412281 1186.61833,67.9612281 1186.63833,67.8412281 L1186.63833,67.5412281 C1186.63833,67.3812281 1186.77833,67.2812281 1187.09833,67.2612281 C1188.27833,67.1212281 1189.35833,67.0212281 1190.31833,66.9612281 C1191.01833,66.9012281 1191.51833,66.8812281 1191.79833,66.8812281 C1192.03833,66.8812281 1192.17833,66.9812281 1192.17833,67.1812281 C1192.17833,67.2412281 1192.17833,67.4612281 1192.19833,67.8612281 L1192.19833,68.5612281 C1192.19833,69.1212281 1192.39833,69.4212281 1192.83833,69.4212281 C1192.99833,69.4212281 1193.19833,69.3612281 1193.41833,69.2612281 C1193.59833,69.1412281 1193.69833,68.9812281 1193.69833,68.8212281 C1193.69833,68.6812281 1193.67833,68.5012281 1193.65833,68.2612281 C1193.61833,68.0212281 1193.59833,67.8212281 1193.59833,67.7012281 C1193.59833,67.3812281 1193.61833,67.1012281 1193.69833,66.8812281 C1193.69833,66.8412281 1193.73833,66.7412281 1193.81833,66.5812281 C1193.89833,66.4012281 1193.95833,66.2812281 1193.95833,66.2412281 L1193.95833,66.2412281 Z M1191.61833,58.9212281 C1191.61833,61.6412281 1191.49833,63.8412281 1191.25833,65.5012281 C1189.69833,65.6012281 1188.63833,65.6812281 1188.05833,65.7612281 C1189.03833,64.2012281 1189.71833,62.0412281 1190.09833,59.3212281 C1190.41833,59.1612281 1190.93833,59.0212281 1191.61833,58.9212281 L1191.61833,58.9212281 Z M1202.45833,58.8012281 C1202.45833,58.2812281 1202.21833,58.0212281 1201.73833,58.0212281 C1201.33833,58.0212281 1201.07833,58.3812281 1200.97833,59.0612281 C1200.87833,59.6012281 1200.75833,60.3612281 1200.63833,61.3412281 C1199.75833,61.5612281 1198.89833,61.7212281 1198.05833,61.8012281 C1198.25833,60.5212281 1198.45833,59.5612281 1198.65833,58.9012281 C1198.77833,58.5412281 1198.87833,58.2612281 1198.97833,58.0212281 C1198.93833,57.4812281 1198.69833,57.2012281 1198.21833,57.2012281 C1197.87833,57.2012281 1197.65833,57.3612281 1197.53833,57.6812281 C1197.13833,58.6412281 1196.81833,60.0212281 1196.61833,61.8212281 C1196.29833,61.8212281 1196.07833,61.8012281 1195.95833,61.7812281 C1195.55833,61.7812281 1195.37833,62.0212281 1195.37833,62.4612281 C1195.37833,62.9612281 1195.65833,63.2012281 1196.23833,63.2012281 L1196.47833,63.2012281 C1196.41833,63.9612281 1196.35833,64.8212281 1196.31833,65.8212281 C1196.31833,65.8812281 1196.29833,65.9812281 1196.27833,66.1012281 C1196.23833,66.2212281 1196.23833,66.3012281 1196.23833,66.3812281 C1196.23833,66.5812281 1196.31833,66.7612281 1196.47833,66.9212281 C1196.63833,67.0812281 1196.81833,67.1612281 1197.01833,67.1612281 C1197.49833,67.1612281 1197.75833,66.9012281 1197.77833,66.4012281 C1197.77833,65.7212281 1197.83833,64.6412281 1197.93833,63.1612281 C1198.79833,63.0812281 1199.63833,62.9412281 1200.47833,62.7412281 C1200.37833,63.8012281 1200.31833,64.6412281 1200.31833,65.2412281 C1200.31833,65.3012281 1200.29833,65.3812281 1200.27833,65.5012281 C1200.23833,65.6012281 1200.21833,65.6812281 1200.21833,65.7412281 C1200.21833,66.2212281 1200.27833,66.5812281 1200.43833,66.8212281 C1200.59833,67.0812281 1200.77833,67.2212281 1201.01833,67.2212281 C1201.21833,67.2212281 1201.39833,67.1412281 1201.55833,66.9812281 C1201.69833,66.8212281 1201.77833,66.6212281 1201.77833,66.4012281 C1201.77833,66.3612281 1201.75833,66.2612281 1201.75833,66.0612281 C1201.73833,65.8612281 1201.73833,65.7012281 1201.73833,65.6212281 C1201.73833,64.2812281 1201.93833,62.2212281 1202.37833,59.4412281 C1202.41833,59.0812281 1202.45833,58.8812281 1202.45833,58.8012281 L1202.45833,58.8012281 Z M1210.83833,61.8012281 C1210.83833,61.0212281 1210.61833,60.3012281 1210.17833,59.6612281 C1209.71833,59.0412281 1209.13833,58.6012281 1208.43833,58.3612281 C1208.15833,58.2812281 1207.99833,58.2412281 1207.95833,58.2412281 C1207.79833,58.2412281 1207.61833,58.3412281 1207.37833,58.5012281 C1207.09833,58.6612281 1206.87833,58.7812281 1206.71833,58.8412281 C1206.03833,59.1812281 1205.47833,59.7812281 1205.07833,60.6212281 C1204.67833,61.3812281 1204.49833,62.2012281 1204.49833,63.0612281 C1204.49833,64.0812281 1204.75833,64.9212281 1205.31833,65.5812281 C1205.87833,66.2212281 1206.57833,66.5612281 1207.41833,66.5612281 C1208.37833,66.5612281 1209.19833,66.1212281 1209.85833,65.2012281 C1210.49833,64.2812281 1210.83833,63.1612281 1210.83833,61.8012281 L1210.83833,61.8012281 Z M1209.25833,62.1012281 C1209.25833,62.7812281 1209.05833,63.4012281 1208.69833,63.9812281 C1208.29833,64.5812281 1207.87833,64.8812281 1207.39833,64.8812281 C1206.99833,64.8812281 1206.67833,64.7012281 1206.43833,64.3212281 C1206.17833,63.9612281 1206.05833,63.5412281 1206.05833,63.0612281 C1206.05833,62.4212281 1206.19833,61.8212281 1206.51833,61.2612281 C1206.87833,60.6212281 1207.33833,60.2812281 1207.89833,60.2812281 C1208.09833,60.4012281 1208.35833,60.4612281 1208.67833,60.4612281 C1209.05833,60.7012281 1209.25833,61.2612281 1209.25833,62.1012281 L1209.25833,62.1012281 Z M1221.63833,67.0212281 C1221.63833,66.8412281 1221.57833,66.6412281 1221.45833,66.4012281 C1221.33833,66.1612281 1221.19833,66.0012281 1221.05833,65.8812281 C1220.73833,65.2012281 1220.45833,63.9612281 1220.21833,62.1812281 C1220.05833,61.2612281 1219.93833,60.2412281 1219.81833,59.1612281 C1219.75833,58.7412281 1219.51833,58.5212281 1219.09833,58.5212281 C1218.71833,58.5212281 1218.21833,59.3412281 1217.59833,60.9812281 C1217.37833,61.5412281 1217.19833,62.0212281 1217.03833,62.4612281 C1216.49833,61.6612281 1216.01833,60.4612281 1215.57833,58.8212281 C1215.41833,58.2212281 1215.17833,57.9212281 1214.87833,57.9212281 C1214.49833,57.9212281 1214.15833,58.3812281 1213.85833,59.2812281 C1213.79833,59.2812281 1213.71833,59.2612281 1213.61833,59.2612281 C1213.47833,59.2612281 1213.35833,59.3212281 1213.27833,59.4212281 C1213.15833,59.5412281 1213.09833,59.6812281 1213.09833,59.8212281 C1213.09833,59.8612281 1213.09833,59.9812281 1213.11833,60.1812281 C1213.11833,60.4012281 1213.13833,60.5212281 1213.13833,60.5612281 C1213.13833,60.9212281 1213.09833,61.4212281 1213.01833,62.1012281 C1212.93833,62.7812281 1212.89833,63.5412281 1212.89833,64.3612281 C1212.89833,65.7012281 1213.15833,66.3612281 1213.69833,66.3612281 C1214.09833,66.3612281 1214.29833,65.9212281 1214.33833,65.0212281 C1214.39833,63.2612281 1214.55833,61.8012281 1214.79833,60.6412281 C1215.85833,63.2012281 1216.69833,64.4812281 1217.29833,64.4812281 C1217.49833,64.4812281 1217.63833,64.4012281 1217.75833,64.2012281 C1217.85833,64.0412281 1217.97833,63.6812281 1218.13833,63.1612281 C1218.39833,62.2812281 1218.61833,61.5812281 1218.79833,61.1012281 C1218.99833,63.3212281 1219.27833,64.9612281 1219.65833,66.0212281 C1220.07833,67.2412281 1220.51833,67.8612281 1220.95833,67.8612281 C1221.11833,67.8612281 1221.27833,67.7612281 1221.41833,67.5812281 C1221.55833,67.3812281 1221.63833,67.2012281 1221.63833,67.0212281 L1221.63833,67.0212281 Z" id="при-цистите-все-ввер" transform="translate(1195.768335, 51.811228) rotate(-10.000000) translate(-1195.768335, -51.811228) "></path>
        </g>
    </g>
</svg>