<?xml version="1.0" encoding="UTF-8"?>
<svg width="219px" height="68px" viewBox="0 0 219 68" version="1.1" xmlns="http://www.w3.org/2000/svg" xmlns:xlink="http://www.w3.org/1999/xlink">
    <!-- Generator: Sketch 40.3 (33839) - http://www.bohemiancoding.com/sketch -->
    <title>Не знаю, что бы я де</title>
    <desc>Created with Sketch.</desc>
    <defs></defs>
    <g id="Page-1" stroke="none" stroke-width="1" fill="none" fill-rule="evenodd">
        <g id="Sostav-IN-CURVES" transform="translate(-2544.000000, -590.000000)" fill="#354777">
            <path d="M2556.80888,602.128218 C2556.80888,601.928218 2556.72888,601.728218 2556.56888,601.548218 C2556.40888,601.388218 2556.20888,601.288218 2556.00888,601.288218 C2555.62888,601.288218 2555.38888,601.508218 2555.28888,601.928218 C2555.14888,602.528218 2555.04888,602.988218 2555.00888,603.308218 C2554.80888,604.268218 2554.60888,605.588218 2554.40888,607.268218 C2552.84888,607.828218 2551.00888,608.148218 2548.88888,608.268218 C2549.04888,606.848218 2549.28888,605.488218 2549.60888,604.208218 C2549.80888,603.288218 2549.96888,602.688218 2550.08888,602.388218 C2550.42888,601.348218 2550.60888,600.748218 2550.60888,600.608218 C2550.60888,600.068218 2550.32888,599.788218 2549.80888,599.788218 C2549.48888,599.788218 2549.24888,599.968218 2549.06888,600.308218 C2549.00888,600.408218 2548.88888,600.708218 2548.72888,601.228218 C2548.04888,603.148218 2547.54888,605.528218 2547.24888,608.368218 C2547.08888,608.368218 2546.78888,608.348218 2546.36888,608.308218 C2545.94888,608.288218 2545.70888,608.268218 2545.64888,608.268218 C2545.44888,608.268218 2545.28888,608.368218 2545.16888,608.528218 C2545.02888,608.708218 2544.96888,608.888218 2544.96888,609.088218 C2544.96888,609.688218 2545.40888,609.968218 2546.32888,609.968218 L2546.74888,609.968218 C2546.90888,609.968218 2547.04888,609.948218 2547.12888,609.948218 C2546.88888,612.628218 2546.78888,614.768218 2546.78888,616.368218 C2546.78888,616.608218 2546.84888,616.808218 2547.00888,617.008218 C2547.14888,617.208218 2547.32888,617.308218 2547.54888,617.308218 C2547.76888,617.308218 2547.96888,617.188218 2548.14888,616.988218 C2548.30888,616.768218 2548.38888,616.508218 2548.40888,616.228218 C2548.52888,613.588218 2548.64888,611.488218 2548.76888,609.908218 C2550.76888,609.748218 2552.56888,609.448218 2554.20888,609.048218 C2553.92888,611.968218 2553.80888,614.188218 2553.80888,615.728218 C2553.80888,616.808218 2554.10888,617.368218 2554.72888,617.368218 C2554.92888,617.368218 2555.12888,617.288218 2555.28888,617.128218 C2555.44888,616.948218 2555.52888,616.748218 2555.52888,616.528218 C2555.52888,616.448218 2555.50888,616.228218 2555.50888,615.848218 C2555.48888,615.468218 2555.48888,615.188218 2555.48888,614.988218 C2555.48888,611.728218 2555.86888,607.768218 2556.64888,603.128218 L2556.80888,602.128218 Z M2566.80888,615.788218 C2566.80888,615.588218 2566.72888,615.388218 2566.56888,615.188218 C2566.40888,615.028218 2566.20888,614.928218 2566.00888,614.928218 C2565.84888,614.928218 2565.58888,614.968218 2565.24888,615.008218 C2564.90888,615.048218 2564.64888,615.068218 2564.48888,615.068218 C2563.88888,615.068218 2563.36888,614.788218 2562.88888,614.208218 C2564.88888,613.128218 2565.88888,611.848218 2565.88888,610.368218 C2565.88888,609.808218 2565.64888,609.268218 2565.16888,608.788218 C2564.68888,608.308218 2564.20888,608.068218 2563.70888,608.068218 C2562.84888,608.068218 2562.14888,608.568218 2561.58888,609.548218 C2561.10888,610.388218 2560.86888,611.288218 2560.86888,612.248218 C2560.86888,612.448218 2560.88888,612.728218 2560.94888,613.068218 L2560.48888,613.068218 C2560.20888,613.068218 2559.94888,612.968218 2559.66888,612.768218 C2559.38888,612.568218 2559.18888,612.468218 2559.06888,612.468218 C2558.54888,612.468218 2558.28888,612.748218 2558.28888,613.308218 C2558.28888,613.748218 2558.60888,614.108218 2559.28888,614.388218 C2559.80888,614.608218 2560.30888,614.708218 2560.82888,614.708218 L2561.42888,614.708218 C2562.14888,616.088218 2563.26888,616.768218 2564.78888,616.768218 C2566.12888,616.768218 2566.80888,616.428218 2566.80888,615.788218 L2566.80888,615.788218 Z M2564.30888,610.448218 C2564.30888,611.108218 2563.70888,611.828218 2562.50888,612.608218 L2562.50888,612.248218 C2562.50888,611.708218 2562.58888,611.188218 2562.78888,610.688218 C2562.98888,610.088218 2563.26888,609.788218 2563.62888,609.788218 C2563.78888,609.788218 2563.94888,609.868218 2564.10888,609.988218 C2564.22888,610.148218 2564.30888,610.288218 2564.30888,610.448218 L2564.30888,610.448218 Z M2581.40888,613.828218 C2581.40888,612.628218 2580.80888,611.828218 2579.62888,611.468218 C2580.48888,610.988218 2580.92888,610.388218 2580.92888,609.648218 C2580.92888,608.408218 2579.94888,607.788218 2578.02888,607.788218 C2576.36888,607.788218 2575.54888,608.148218 2575.54888,608.868218 C2575.54888,609.388218 2575.78888,609.648218 2576.26888,609.668218 C2576.38888,609.648218 2576.68888,609.548218 2577.16888,609.348218 C2577.48888,609.228218 2577.78888,609.148218 2578.02888,609.148218 C2578.94888,609.148218 2579.40888,609.368218 2579.40888,609.808218 C2579.40888,610.088218 2579.16888,610.388218 2578.68888,610.668218 C2578.24888,610.908218 2577.74888,611.088218 2577.16888,611.208218 C2576.44888,611.368218 2576.06888,611.448218 2576.00888,611.468218 C2575.76888,611.568218 2575.66888,611.768218 2575.66888,612.048218 C2575.66888,612.248218 2575.72888,612.468218 2575.88888,612.668218 C2576.02888,612.888218 2576.20888,612.988218 2576.40888,612.988218 C2576.50888,612.988218 2576.64888,612.948218 2576.82888,612.828218 C2577.18888,612.628218 2577.60888,612.508218 2578.06888,612.508218 C2578.52888,612.508218 2578.92888,612.588218 2579.28888,612.748218 C2579.72888,612.948218 2579.94888,613.248218 2579.94888,613.648218 C2579.94888,614.128218 2579.56888,614.608218 2578.84888,615.068218 C2578.16888,615.528218 2577.58888,615.748218 2577.10888,615.748218 C2576.54888,615.748218 2576.28888,615.668218 2576.28888,615.508218 C2576.28888,615.428218 2576.30888,615.308218 2576.36888,615.188218 C2576.40888,615.048218 2576.42888,614.948218 2576.42888,614.908218 C2576.42888,614.548218 2576.18888,614.368218 2575.72888,614.368218 C2575.56888,614.368218 2575.38888,614.508218 2575.20888,614.748218 C2575.00888,615.028218 2574.92888,615.268218 2574.92888,615.468218 C2574.92888,615.748218 2575.02888,616.048218 2575.26888,616.368218 C2575.62888,616.888218 2576.28888,617.148218 2577.22888,617.148218 C2578.14888,617.148218 2579.06888,616.808218 2579.96888,616.168218 C2580.92888,615.488218 2581.40888,614.708218 2581.40888,613.828218 L2581.40888,613.828218 Z M2589.90888,608.748218 C2589.90888,608.228218 2589.66888,607.968218 2589.18888,607.968218 C2588.78888,607.968218 2588.52888,608.328218 2588.42888,609.008218 C2588.32888,609.548218 2588.20888,610.308218 2588.08888,611.288218 C2587.20888,611.508218 2586.34888,611.668218 2585.50888,611.748218 C2585.70888,610.468218 2585.90888,609.508218 2586.10888,608.848218 C2586.22888,608.488218 2586.32888,608.208218 2586.42888,607.968218 C2586.38888,607.428218 2586.14888,607.148218 2585.66888,607.148218 C2585.32888,607.148218 2585.10888,607.308218 2584.98888,607.628218 C2584.58888,608.588218 2584.26888,609.968218 2584.06888,611.768218 C2583.74888,611.768218 2583.52888,611.748218 2583.40888,611.728218 C2583.00888,611.728218 2582.82888,611.968218 2582.82888,612.408218 C2582.82888,612.908218 2583.10888,613.148218 2583.68888,613.148218 L2583.92888,613.148218 C2583.86888,613.908218 2583.80888,614.768218 2583.76888,615.768218 C2583.76888,615.828218 2583.74888,615.928218 2583.72888,616.048218 C2583.68888,616.168218 2583.68888,616.248218 2583.68888,616.328218 C2583.68888,616.528218 2583.76888,616.708218 2583.92888,616.868218 C2584.08888,617.028218 2584.26888,617.108218 2584.46888,617.108218 C2584.94888,617.108218 2585.20888,616.848218 2585.22888,616.348218 C2585.22888,615.668218 2585.28888,614.588218 2585.38888,613.108218 C2586.24888,613.028218 2587.08888,612.888218 2587.92888,612.688218 C2587.82888,613.748218 2587.76888,614.588218 2587.76888,615.188218 C2587.76888,615.248218 2587.74888,615.328218 2587.72888,615.448218 C2587.68888,615.548218 2587.66888,615.628218 2587.66888,615.688218 C2587.66888,616.168218 2587.72888,616.528218 2587.88888,616.768218 C2588.04888,617.028218 2588.22888,617.168218 2588.46888,617.168218 C2588.66888,617.168218 2588.84888,617.088218 2589.00888,616.928218 C2589.14888,616.768218 2589.22888,616.568218 2589.22888,616.348218 C2589.22888,616.308218 2589.20888,616.208218 2589.20888,616.008218 C2589.18888,615.808218 2589.18888,615.648218 2589.18888,615.568218 C2589.18888,614.228218 2589.38888,612.168218 2589.82888,609.388218 C2589.86888,609.028218 2589.90888,608.828218 2589.90888,608.748218 L2589.90888,608.748218 Z M2599.20888,611.508218 C2599.20888,611.328218 2599.10888,611.128218 2598.94888,610.928218 C2598.94888,610.468218 2598.86888,610.068218 2598.74888,609.708218 C2598.76888,609.628218 2598.78888,609.528218 2598.78888,609.428218 C2598.78888,609.188218 2598.64888,608.948218 2598.40888,608.748218 C2598.14888,608.548218 2597.88888,608.428218 2597.62888,608.428218 C2596.52888,608.428218 2595.32888,609.068218 2594.00888,610.308218 C2592.62888,611.588218 2591.94888,612.828218 2591.94888,613.988218 C2591.94888,614.608218 2592.14888,615.148218 2592.58888,615.628218 C2593.00888,616.128218 2593.50888,616.368218 2594.08888,616.368218 C2594.98888,616.368218 2595.98888,615.808218 2597.10888,614.688218 C2597.20888,616.208218 2597.54888,616.988218 2598.12888,616.988218 C2598.32888,616.988218 2598.52888,616.908218 2598.70888,616.788218 C2598.86888,616.628218 2598.96888,616.428218 2598.96888,616.228218 C2598.96888,616.168218 2598.90888,615.928218 2598.82888,615.448218 C2598.72888,614.988218 2598.68888,614.628218 2598.68888,614.388218 C2598.68888,613.588218 2598.80888,612.788218 2599.08888,611.948218 C2599.16888,611.728218 2599.20888,611.588218 2599.20888,611.508218 L2599.20888,611.508218 Z M2597.38888,610.928218 C2597.38888,611.608218 2596.98888,612.408218 2596.22888,613.328218 C2595.46888,614.248218 2594.76888,614.688218 2594.16888,614.688218 C2593.74888,614.688218 2593.54888,614.448218 2593.54888,613.948218 C2593.54888,613.308218 2594.04888,612.508218 2595.06888,611.528218 C2595.98888,610.648218 2596.64888,610.188218 2597.02888,610.188218 C2597.26888,610.188218 2597.38888,610.448218 2597.38888,610.928218 L2597.38888,610.928218 Z M2611.60888,612.548218 C2611.60888,611.248218 2610.98888,610.188218 2609.78888,609.388218 C2609.30888,609.068218 2608.78888,608.908218 2608.22888,608.908218 C2608.02888,608.628218 2607.68888,608.468218 2607.18888,608.468218 C2606.70888,608.468218 2606.18888,608.828218 2605.62888,609.548218 C2605.02888,610.328218 2604.68888,611.168218 2604.56888,612.088218 C2604.02888,611.988218 2603.52888,611.908218 2603.08888,611.828218 C2603.28888,610.748218 2603.42888,609.908218 2603.54888,609.308218 C2603.62888,609.028218 2603.68888,608.788218 2603.72888,608.628218 C2603.72888,608.088218 2603.46888,607.808218 2602.94888,607.808218 C2602.78888,607.808218 2602.66888,607.848218 2602.58888,607.908218 C2602.34888,608.068218 2602.12888,608.648218 2601.96888,609.648218 C2601.84888,610.328218 2601.74888,611.008218 2601.66888,611.688218 C2601.42888,611.808218 2601.30888,611.988218 2601.30888,612.188218 C2601.30888,612.288218 2601.36888,612.468218 2601.48888,612.728218 C2601.32888,614.128218 2601.24888,615.128218 2601.24888,615.688218 C2601.24888,615.988218 2601.30888,616.268218 2601.46888,616.568218 C2601.66888,616.928218 2601.92888,617.108218 2602.22888,617.108218 C2602.64888,617.108218 2602.86888,616.848218 2602.86888,616.368218 C2602.86888,616.248218 2602.82888,616.128218 2602.76888,615.968218 C2602.68888,615.808218 2602.66888,615.728218 2602.66888,615.688218 C2602.66888,615.068218 2602.72888,614.288218 2602.84888,613.328218 C2603.12888,613.368218 2603.32888,613.368218 2603.44888,613.368218 C2603.68888,613.368218 2604.04888,613.308218 2604.54888,613.148218 C2604.62888,614.268218 2605.02888,615.148218 2605.74888,615.828218 C2606.42888,616.488218 2607.28888,616.828218 2608.36888,616.828218 C2609.14888,616.828218 2609.88888,616.388218 2610.58888,615.508218 C2611.26888,614.628218 2611.60888,613.648218 2611.60888,612.548218 L2611.60888,612.548218 Z M2610.18888,612.028218 C2610.18888,612.588218 2610.08888,613.048218 2609.92888,613.408218 C2609.80888,613.648218 2609.68888,613.908218 2609.60888,614.188218 C2609.50888,614.508218 2609.30888,614.768218 2608.98888,614.988218 C2608.66888,615.228218 2608.34888,615.328218 2608.02888,615.328218 C2607.50888,615.328218 2607.04888,615.088218 2606.64888,614.568218 C2606.24888,614.068218 2606.04888,613.508218 2606.04888,612.868218 C2606.04888,612.208218 2606.20888,611.568218 2606.56888,610.928218 C2606.92888,610.288218 2607.34888,609.908218 2607.82888,609.748218 C2607.92888,610.068218 2608.22888,610.268218 2608.70888,610.368218 C2609.08888,610.448218 2609.42888,610.668218 2609.72888,610.988218 C2610.02888,611.348218 2610.18888,611.688218 2610.18888,612.028218 L2610.18888,612.028218 Z M2616.38888,615.608218 C2616.38888,615.028218 2616.08888,614.728218 2615.50888,614.728218 C2614.74888,614.728218 2614.30888,615.428218 2614.18888,616.808218 C2613.66888,617.748218 2613.06888,618.588218 2612.40888,619.328218 C2612.24888,619.508218 2612.16888,619.728218 2612.16888,619.968218 C2612.16888,620.488218 2612.40888,620.748218 2612.86888,620.748218 C2613.12888,620.748218 2613.34888,620.648218 2613.54888,620.448218 C2614.12888,619.828218 2614.68888,619.088218 2615.22888,618.228218 C2615.98888,616.948218 2616.38888,616.088218 2616.38888,615.608218 L2616.38888,615.608218 Z M2632.76888,608.548218 C2632.74888,608.328218 2632.66888,608.108218 2632.50888,607.908218 C2632.34888,607.708218 2632.16888,607.608218 2631.96888,607.608218 C2631.42888,607.608218 2631.14888,607.908218 2631.12888,608.488218 C2631.12888,608.568218 2631.12888,608.828218 2631.14888,609.248218 C2631.14888,609.708218 2631.16888,609.968218 2631.16888,610.048218 C2631.16888,610.828218 2630.90888,611.548218 2630.40888,612.228218 C2629.88888,612.908218 2629.30888,613.228218 2628.68888,613.228218 C2627.90888,613.228218 2627.52888,612.668218 2627.52888,611.508218 C2627.52888,611.068218 2627.60888,610.068218 2627.80888,608.508218 C2627.74888,607.948218 2627.50888,607.648218 2627.10888,607.648218 C2626.54888,607.648218 2626.22888,608.188218 2626.10888,609.248218 C2626.06888,609.548218 2626.04888,610.288218 2626.04888,611.488218 C2626.04888,613.608218 2626.88888,614.668218 2628.58888,614.668218 C2629.06888,614.668218 2629.56888,614.548218 2630.04888,614.268218 C2630.52888,614.008218 2630.90888,613.648218 2631.14888,613.208218 C2631.10888,614.008218 2631.06888,614.668218 2631.02888,615.168218 C2630.94888,615.988218 2630.92888,616.568218 2630.92888,616.968218 C2630.92888,617.508218 2631.14888,617.788218 2631.62888,617.788218 C2632.14888,617.788218 2632.42888,617.508218 2632.44888,616.948218 C2632.46888,615.648218 2632.52888,613.728218 2632.64888,611.208218 C2632.68888,609.888218 2632.72888,609.008218 2632.76888,608.548218 L2632.76888,608.548218 Z M2642.84888,607.828218 C2642.84888,607.628218 2642.76888,607.428218 2642.62888,607.248218 C2642.48888,607.088218 2642.32888,606.988218 2642.14888,606.988218 C2641.84888,606.988218 2641.42888,607.068218 2640.86888,607.188218 C2638.66888,607.708218 2636.70888,608.168218 2635.02888,608.568218 C2634.90888,608.608218 2634.82888,608.608218 2634.78888,608.608218 C2634.38888,608.688218 2634.18888,608.988218 2634.18888,609.488218 C2634.18888,610.048218 2634.40888,610.308218 2634.88888,610.308218 C2635.46888,610.188218 2635.92888,610.088218 2636.24888,609.988218 C2636.82888,609.868218 2637.32888,609.748218 2637.74888,609.668218 C2637.66888,611.208218 2637.62888,612.688218 2637.62888,614.088218 C2637.62888,615.448218 2637.70888,616.388218 2637.86888,616.908218 C2637.98888,617.268218 2638.22888,617.448218 2638.62888,617.448218 C2639.14888,617.448218 2639.40888,616.968218 2639.40888,616.028218 C2639.40888,615.568218 2639.30888,615.228218 2639.14888,615.008218 C2639.10888,614.508218 2639.08888,613.728218 2639.08888,612.648218 C2639.08888,611.808218 2639.14888,610.668218 2639.30888,609.248218 C2639.88888,609.108218 2640.28888,609.008218 2640.52888,608.968218 C2640.70888,609.088218 2640.84888,609.128218 2640.94888,609.128218 C2641.06888,609.128218 2641.20888,609.108218 2641.38888,609.028218 L2642.30888,608.608218 C2642.66888,608.448218 2642.84888,608.188218 2642.84888,607.828218 L2642.84888,607.828218 Z M2650.40888,611.748218 C2650.40888,610.968218 2650.18888,610.248218 2649.74888,609.608218 C2649.28888,608.988218 2648.70888,608.548218 2648.00888,608.308218 C2647.72888,608.228218 2647.56888,608.188218 2647.52888,608.188218 C2647.36888,608.188218 2647.18888,608.288218 2646.94888,608.448218 C2646.66888,608.608218 2646.44888,608.728218 2646.28888,608.788218 C2645.60888,609.128218 2645.04888,609.728218 2644.64888,610.568218 C2644.24888,611.328218 2644.06888,612.148218 2644.06888,613.008218 C2644.06888,614.028218 2644.32888,614.868218 2644.88888,615.528218 C2645.44888,616.168218 2646.14888,616.508218 2646.98888,616.508218 C2647.94888,616.508218 2648.76888,616.068218 2649.42888,615.148218 C2650.06888,614.228218 2650.40888,613.108218 2650.40888,611.748218 L2650.40888,611.748218 Z M2648.82888,612.048218 C2648.82888,612.728218 2648.62888,613.348218 2648.26888,613.928218 C2647.86888,614.528218 2647.44888,614.828218 2646.96888,614.828218 C2646.56888,614.828218 2646.24888,614.648218 2646.00888,614.268218 C2645.74888,613.908218 2645.62888,613.488218 2645.62888,613.008218 C2645.62888,612.368218 2645.76888,611.768218 2646.08888,611.208218 C2646.44888,610.568218 2646.90888,610.228218 2647.46888,610.228218 C2647.66888,610.348218 2647.92888,610.408218 2648.24888,610.408218 C2648.62888,610.648218 2648.82888,611.208218 2648.82888,612.048218 L2648.82888,612.048218 Z M2667.46888,612.488218 C2667.46888,611.388218 2667.18888,610.488218 2666.66888,609.788218 C2666.06888,609.008218 2665.24888,608.608218 2664.18888,608.608218 C2663.22888,608.608218 2662.16888,609.108218 2661.04888,610.088218 C2661.36888,608.048218 2662.72888,606.608218 2665.16888,605.808218 C2665.86888,605.568218 2666.22888,605.228218 2666.22888,604.748218 C2666.22888,604.408218 2666.10888,604.048218 2665.90888,603.668218 C2665.66888,603.308218 2665.40888,603.108218 2665.12888,603.108218 C2664.86888,603.108218 2664.72888,603.288218 2664.70888,603.628218 C2664.66888,604.028218 2664.64888,604.228218 2664.62888,604.268218 C2664.56888,604.368218 2664.36888,604.488218 2664.02888,604.628218 C2660.86888,605.908218 2659.30888,608.288218 2659.30888,611.788218 C2659.30888,613.288218 2659.60888,614.508218 2660.24888,615.468218 C2660.94888,616.468218 2661.92888,616.988218 2663.18888,616.988218 C2664.30888,616.988218 2665.28888,616.548218 2666.16888,615.688218 C2667.02888,614.808218 2667.46888,613.748218 2667.46888,612.488218 L2667.46888,612.488218 Z M2666.02888,612.028218 C2666.02888,612.988218 2665.74888,613.788218 2665.20888,614.468218 C2664.64888,615.148218 2663.94888,615.488218 2663.14888,615.488218 C2662.50888,615.488218 2661.96888,615.208218 2661.56888,614.608218 C2661.16888,614.008218 2660.96888,613.268218 2660.96888,612.368218 C2660.96888,612.268218 2660.96888,612.128218 2660.98888,611.928218 C2661.48888,611.868218 2661.76888,611.648218 2661.82888,611.288218 C2662.74888,610.528218 2663.58888,610.128218 2664.30888,610.128218 C2664.74888,610.128218 2665.14888,610.328218 2665.50888,610.688218 C2665.84888,611.088218 2666.02888,611.528218 2666.02888,612.028218 L2666.02888,612.028218 Z M2679.04888,608.188218 C2679.04888,607.988218 2678.98888,607.808218 2678.86888,607.628218 C2678.70888,607.448218 2678.52888,607.348218 2678.30888,607.348218 C2677.92888,607.348218 2677.60888,607.688218 2677.34888,608.328218 C2677.08888,609.008218 2676.96888,609.488218 2676.96888,609.768218 C2676.96888,609.948218 2677.06888,610.128218 2677.26888,610.308218 L2676.90888,613.088218 C2676.66888,614.748218 2676.56888,615.748218 2676.56888,616.108218 C2676.56888,616.948218 2676.86888,617.388218 2677.48888,617.388218 C2677.70888,617.388218 2677.88888,617.288218 2678.02888,617.128218 C2678.18888,616.948218 2678.26888,616.748218 2678.26888,616.528218 C2678.26888,616.288218 2678.20888,616.108218 2678.10888,615.968218 C2678.12888,615.168218 2678.20888,614.348218 2678.32888,613.528218 C2678.44888,612.708218 2678.58888,611.888218 2678.70888,611.048218 C2678.92888,609.568218 2679.04888,608.608218 2679.04888,608.188218 L2679.04888,608.188218 Z M2675.56888,613.728218 C2675.56888,612.908218 2675.28888,612.248218 2674.74888,611.748218 C2674.24888,611.288218 2673.60888,611.048218 2672.80888,611.048218 C2672.36888,611.048218 2671.92888,611.168218 2671.48888,611.408218 C2671.56888,610.668218 2671.62888,610.008218 2671.68888,609.448218 C2671.78888,608.808218 2671.84888,608.308218 2671.88888,607.948218 C2671.80888,607.368218 2671.56888,607.068218 2671.12888,607.068218 C2670.60888,607.068218 2670.32888,607.468218 2670.26888,608.248218 C2669.94888,611.408218 2669.70888,614.088218 2669.50888,616.288218 C2669.52888,616.988218 2669.78888,617.348218 2670.30888,617.348218 C2670.62888,617.348218 2670.84888,617.208218 2670.96888,616.948218 C2671.18888,617.008218 2671.38888,617.048218 2671.58888,617.048218 C2672.46888,617.048218 2673.32888,616.728218 2674.16888,616.108218 C2675.08888,615.428218 2675.56888,614.648218 2675.56888,613.728218 L2675.56888,613.728218 Z M2674.04888,613.488218 C2674.04888,614.088218 2673.72888,614.628218 2673.12888,615.088218 C2672.56888,615.528218 2672.02888,615.748218 2671.50888,615.748218 C2671.42888,615.748218 2671.28888,615.728218 2671.12888,615.688218 L2671.30888,613.388218 C2671.66888,612.788218 2672.14888,612.468218 2672.76888,612.468218 C2673.08888,612.468218 2673.36888,612.568218 2673.64888,612.768218 C2673.90888,612.968218 2674.04888,613.208218 2674.04888,613.488218 L2674.04888,613.488218 Z M2694.38888,610.608218 C2694.38888,610.008218 2694.16888,609.688218 2693.74888,609.688218 C2693.38888,609.688218 2693.12888,609.888218 2693.00888,610.288218 C2692.64888,611.448218 2691.80888,612.008218 2690.52888,612.008218 C2689.70888,612.008218 2689.30888,611.828218 2689.30888,611.468218 C2689.30888,611.048218 2689.76888,610.548218 2690.68888,609.988218 C2691.52888,609.508218 2692.18888,609.268218 2692.70888,609.268218 C2692.82888,609.268218 2692.90888,609.288218 2692.96888,609.308218 C2693.08888,609.448218 2693.20888,609.508218 2693.34888,609.508218 C2693.50888,609.508218 2693.68888,609.428218 2693.86888,609.268218 C2694.02888,609.108218 2694.10888,608.928218 2694.10888,608.728218 C2694.10888,608.168218 2693.70888,607.868218 2692.94888,607.868218 C2691.96888,607.868218 2690.92888,608.208218 2689.80888,608.888218 C2688.50888,609.688218 2687.86888,610.568218 2687.86888,611.528218 C2687.86888,612.148218 2688.10888,612.628218 2688.60888,612.948218 C2688.96888,613.228218 2689.46888,613.348218 2690.08888,613.348218 L2690.26888,613.348218 L2688.92888,614.468218 L2688.80888,614.288218 C2688.58888,614.528218 2688.40888,614.728218 2688.28888,614.848218 C2688.08888,614.928218 2687.90888,615.088218 2687.76888,615.308218 C2687.58888,615.548218 2687.50888,615.768218 2687.50888,615.988218 C2687.50888,616.188218 2687.58888,616.368218 2687.76888,616.568218 C2687.92888,616.728218 2688.12888,616.828218 2688.32888,616.828218 C2688.52888,616.828218 2688.82888,616.628218 2689.22888,616.248218 C2690.64888,614.948218 2691.74888,613.968218 2692.50888,613.308218 C2692.28888,614.948218 2692.18888,615.868218 2692.18888,616.068218 C2692.18888,616.728218 2692.44888,617.068218 2692.96888,617.068218 C2693.40888,617.068218 2693.66888,616.788218 2693.70888,616.268218 C2693.98888,613.748218 2694.20888,611.868218 2694.38888,610.608218 L2694.38888,610.608218 Z M2711.90888,616.188218 C2711.90888,616.128218 2711.86888,616.028218 2711.78888,615.908218 C2711.54888,615.468218 2711.26888,615.248218 2710.98888,615.248218 C2710.94888,615.248218 2710.88888,615.268218 2710.78888,615.268218 C2710.88888,612.788218 2710.96888,610.988218 2711.04888,609.848218 C2711.08888,609.268218 2711.20888,608.688218 2711.42888,608.088218 C2711.42888,607.888218 2711.30888,607.668218 2711.10888,607.468218 C2710.90888,607.268218 2710.70888,607.168218 2710.50888,607.168218 C2709.98888,607.168218 2709.36888,607.288218 2708.62888,607.488218 C2707.74888,607.748218 2707.16888,607.948218 2706.88888,608.068218 C2706.44888,608.308218 2706.24888,608.608218 2706.24888,608.948218 C2706.24888,609.048218 2706.28888,609.188218 2706.38888,609.388218 C2706.44888,609.588218 2706.48888,609.728218 2706.48888,609.808218 C2706.48888,610.688218 2706.26888,611.688218 2705.82888,612.848218 C2705.34888,614.068218 2704.80888,615.028218 2704.16888,615.728218 C2703.54888,615.768218 2703.22888,616.048218 2703.18888,616.568218 C2703.10888,617.348218 2703.08888,618.028218 2703.08888,618.588218 C2703.08888,618.768218 2703.16888,618.948218 2703.32888,619.108218 C2703.48888,619.268218 2703.70888,619.368218 2703.94888,619.368218 C2704.40888,619.368218 2704.64888,619.128218 2704.64888,618.668218 C2704.64888,618.588218 2704.62888,618.488218 2704.60888,618.348218 C2704.56888,618.208218 2704.56888,618.108218 2704.56888,618.068218 C2704.56888,617.988218 2704.56888,617.908218 2704.58888,617.788218 L2704.58888,617.488218 C2704.58888,617.328218 2704.72888,617.228218 2705.04888,617.208218 C2706.22888,617.068218 2707.30888,616.968218 2708.26888,616.908218 C2708.96888,616.848218 2709.46888,616.828218 2709.74888,616.828218 C2709.98888,616.828218 2710.12888,616.928218 2710.12888,617.128218 C2710.12888,617.188218 2710.12888,617.408218 2710.14888,617.808218 L2710.14888,618.508218 C2710.14888,619.068218 2710.34888,619.368218 2710.78888,619.368218 C2710.94888,619.368218 2711.14888,619.308218 2711.36888,619.208218 C2711.54888,619.088218 2711.64888,618.928218 2711.64888,618.768218 C2711.64888,618.628218 2711.62888,618.448218 2711.60888,618.208218 C2711.56888,617.968218 2711.54888,617.768218 2711.54888,617.648218 C2711.54888,617.328218 2711.56888,617.048218 2711.64888,616.828218 C2711.64888,616.788218 2711.68888,616.688218 2711.76888,616.528218 C2711.84888,616.348218 2711.90888,616.228218 2711.90888,616.188218 L2711.90888,616.188218 Z M2709.56888,608.868218 C2709.56888,611.588218 2709.44888,613.788218 2709.20888,615.448218 C2707.64888,615.548218 2706.58888,615.628218 2706.00888,615.708218 C2706.98888,614.148218 2707.66888,611.988218 2708.04888,609.268218 C2708.36888,609.108218 2708.88888,608.968218 2709.56888,608.868218 L2709.56888,608.868218 Z M2721.68888,615.788218 C2721.68888,615.588218 2721.60888,615.388218 2721.44888,615.188218 C2721.28888,615.028218 2721.08888,614.928218 2720.88888,614.928218 C2720.72888,614.928218 2720.46888,614.968218 2720.12888,615.008218 C2719.78888,615.048218 2719.52888,615.068218 2719.36888,615.068218 C2718.76888,615.068218 2718.24888,614.788218 2717.76888,614.208218 C2719.76888,613.128218 2720.76888,611.848218 2720.76888,610.368218 C2720.76888,609.808218 2720.52888,609.268218 2720.04888,608.788218 C2719.56888,608.308218 2719.08888,608.068218 2718.58888,608.068218 C2717.72888,608.068218 2717.02888,608.568218 2716.46888,609.548218 C2715.98888,610.388218 2715.74888,611.288218 2715.74888,612.248218 C2715.74888,612.448218 2715.76888,612.728218 2715.82888,613.068218 L2715.36888,613.068218 C2715.08888,613.068218 2714.82888,612.968218 2714.54888,612.768218 C2714.26888,612.568218 2714.06888,612.468218 2713.94888,612.468218 C2713.42888,612.468218 2713.16888,612.748218 2713.16888,613.308218 C2713.16888,613.748218 2713.48888,614.108218 2714.16888,614.388218 C2714.68888,614.608218 2715.18888,614.708218 2715.70888,614.708218 L2716.30888,614.708218 C2717.02888,616.088218 2718.14888,616.768218 2719.66888,616.768218 C2721.00888,616.768218 2721.68888,616.428218 2721.68888,615.788218 L2721.68888,615.788218 Z M2719.18888,610.448218 C2719.18888,611.108218 2718.58888,611.828218 2717.38888,612.608218 L2717.38888,612.248218 C2717.38888,611.708218 2717.46888,611.188218 2717.66888,610.688218 C2717.86888,610.088218 2718.14888,609.788218 2718.50888,609.788218 C2718.66888,609.788218 2718.82888,609.868218 2718.98888,609.988218 C2719.10888,610.148218 2719.18888,610.288218 2719.18888,610.448218 L2719.18888,610.448218 Z M2731.24888,609.068218 C2731.24888,608.768218 2731.14888,608.508218 2730.94888,608.268218 C2730.76888,608.048218 2730.54888,607.928218 2730.26888,607.928218 C2730.14888,607.928218 2729.90888,608.048218 2729.54888,608.248218 C2729.18888,608.468218 2728.30888,608.648218 2726.88888,608.808218 C2726.56888,608.548218 2726.30888,608.408218 2726.12888,608.408218 C2725.90888,608.408218 2725.66888,608.528218 2725.42888,608.768218 C2725.18888,609.008218 2725.06888,609.268218 2725.06888,609.508218 C2725.06888,609.668218 2725.14888,609.868218 2725.30888,610.088218 C2725.44888,610.328218 2725.52888,610.588218 2725.52888,610.888218 C2725.52888,612.128218 2725.42888,613.148218 2725.22888,613.988218 C2724.96888,614.968218 2724.62888,615.448218 2724.22888,615.448218 C2724.06888,615.448218 2723.94888,615.208218 2723.90888,614.688218 C2723.86888,614.488218 2723.78888,614.368218 2723.62888,614.368218 C2723.34888,614.368218 2723.14888,614.508218 2723.00888,614.748218 C2722.82888,615.028218 2722.74888,615.348218 2722.74888,615.688218 C2722.74888,616.068218 2722.88888,616.348218 2723.18888,616.568218 C2723.46888,616.768218 2723.78888,616.888218 2724.14888,616.888218 C2725.18888,616.888218 2725.92888,616.208218 2726.36888,614.888218 C2726.64888,614.048218 2726.88888,612.528218 2727.08888,610.328218 C2727.58888,610.208218 2728.34888,610.048218 2729.38888,609.868218 C2729.18888,611.828218 2729.08888,613.308218 2729.08888,614.308218 C2729.08888,615.628218 2729.16888,616.448218 2729.34888,616.788218 C2729.52888,617.128218 2729.78888,617.308218 2730.10888,617.308218 C2730.62888,617.308218 2730.88888,616.988218 2730.88888,616.388218 C2730.80888,616.028218 2730.76888,615.708218 2730.72888,615.428218 C2730.62888,614.748218 2730.58888,614.168218 2730.58888,613.668218 C2730.58888,612.588218 2730.74888,611.328218 2731.08888,609.888218 C2731.18888,609.408218 2731.24888,609.148218 2731.24888,609.068218 L2731.24888,609.068218 Z M2740.54888,611.508218 C2740.54888,611.328218 2740.44888,611.128218 2740.28888,610.928218 C2740.28888,610.468218 2740.20888,610.068218 2740.08888,609.708218 C2740.10888,609.628218 2740.12888,609.528218 2740.12888,609.428218 C2740.12888,609.188218 2739.98888,608.948218 2739.74888,608.748218 C2739.48888,608.548218 2739.22888,608.428218 2738.96888,608.428218 C2737.86888,608.428218 2736.66888,609.068218 2735.34888,610.308218 C2733.96888,611.588218 2733.28888,612.828218 2733.28888,613.988218 C2733.28888,614.608218 2733.48888,615.148218 2733.92888,615.628218 C2734.34888,616.128218 2734.84888,616.368218 2735.42888,616.368218 C2736.32888,616.368218 2737.32888,615.808218 2738.44888,614.688218 C2738.54888,616.208218 2738.88888,616.988218 2739.46888,616.988218 C2739.66888,616.988218 2739.86888,616.908218 2740.04888,616.788218 C2740.20888,616.628218 2740.30888,616.428218 2740.30888,616.228218 C2740.30888,616.168218 2740.24888,615.928218 2740.16888,615.448218 C2740.06888,614.988218 2740.02888,614.628218 2740.02888,614.388218 C2740.02888,613.588218 2740.14888,612.788218 2740.42888,611.948218 C2740.50888,611.728218 2740.54888,611.588218 2740.54888,611.508218 L2740.54888,611.508218 Z M2738.72888,610.928218 C2738.72888,611.608218 2738.32888,612.408218 2737.56888,613.328218 C2736.80888,614.248218 2736.10888,614.688218 2735.50888,614.688218 C2735.08888,614.688218 2734.88888,614.448218 2734.88888,613.948218 C2734.88888,613.308218 2735.38888,612.508218 2736.40888,611.528218 C2737.32888,610.648218 2737.98888,610.188218 2738.36888,610.188218 C2738.60888,610.188218 2738.72888,610.448218 2738.72888,610.928218 L2738.72888,610.928218 Z M2750.66888,609.068218 C2750.66888,608.768218 2750.56888,608.508218 2750.36888,608.268218 C2750.18888,608.048218 2749.96888,607.928218 2749.68888,607.928218 C2749.56888,607.928218 2749.32888,608.048218 2748.96888,608.248218 C2748.60888,608.468218 2747.72888,608.648218 2746.30888,608.808218 C2745.98888,608.548218 2745.72888,608.408218 2745.54888,608.408218 C2745.32888,608.408218 2745.08888,608.528218 2744.84888,608.768218 C2744.60888,609.008218 2744.48888,609.268218 2744.48888,609.508218 C2744.48888,609.668218 2744.56888,609.868218 2744.72888,610.088218 C2744.86888,610.328218 2744.94888,610.588218 2744.94888,610.888218 C2744.94888,612.128218 2744.84888,613.148218 2744.64888,613.988218 C2744.38888,614.968218 2744.04888,615.448218 2743.64888,615.448218 C2743.48888,615.448218 2743.36888,615.208218 2743.32888,614.688218 C2743.28888,614.488218 2743.20888,614.368218 2743.04888,614.368218 C2742.76888,614.368218 2742.56888,614.508218 2742.42888,614.748218 C2742.24888,615.028218 2742.16888,615.348218 2742.16888,615.688218 C2742.16888,616.068218 2742.30888,616.348218 2742.60888,616.568218 C2742.88888,616.768218 2743.20888,616.888218 2743.56888,616.888218 C2744.60888,616.888218 2745.34888,616.208218 2745.78888,614.888218 C2746.06888,614.048218 2746.30888,612.528218 2746.50888,610.328218 C2747.00888,610.208218 2747.76888,610.048218 2748.80888,609.868218 C2748.60888,611.828218 2748.50888,613.308218 2748.50888,614.308218 C2748.50888,615.628218 2748.58888,616.448218 2748.76888,616.788218 C2748.94888,617.128218 2749.20888,617.308218 2749.52888,617.308218 C2750.04888,617.308218 2750.30888,616.988218 2750.30888,616.388218 C2750.22888,616.028218 2750.18888,615.708218 2750.14888,615.428218 C2750.04888,614.748218 2750.00888,614.168218 2750.00888,613.668218 C2750.00888,612.588218 2750.16888,611.328218 2750.50888,609.888218 C2750.60888,609.408218 2750.66888,609.148218 2750.66888,609.068218 L2750.66888,609.068218 Z M2759.96888,611.508218 C2759.96888,611.328218 2759.86888,611.128218 2759.70888,610.928218 C2759.70888,610.468218 2759.62888,610.068218 2759.50888,609.708218 C2759.52888,609.628218 2759.54888,609.528218 2759.54888,609.428218 C2759.54888,609.188218 2759.40888,608.948218 2759.16888,608.748218 C2758.90888,608.548218 2758.64888,608.428218 2758.38888,608.428218 C2757.28888,608.428218 2756.08888,609.068218 2754.76888,610.308218 C2753.38888,611.588218 2752.70888,612.828218 2752.70888,613.988218 C2752.70888,614.608218 2752.90888,615.148218 2753.34888,615.628218 C2753.76888,616.128218 2754.26888,616.368218 2754.84888,616.368218 C2755.74888,616.368218 2756.74888,615.808218 2757.86888,614.688218 C2757.96888,616.208218 2758.30888,616.988218 2758.88888,616.988218 C2759.08888,616.988218 2759.28888,616.908218 2759.46888,616.788218 C2759.62888,616.628218 2759.72888,616.428218 2759.72888,616.228218 C2759.72888,616.168218 2759.66888,615.928218 2759.58888,615.448218 C2759.48888,614.988218 2759.44888,614.628218 2759.44888,614.388218 C2759.44888,613.588218 2759.56888,612.788218 2759.84888,611.948218 C2759.92888,611.728218 2759.96888,611.588218 2759.96888,611.508218 L2759.96888,611.508218 Z M2758.14888,610.928218 C2758.14888,611.608218 2757.74888,612.408218 2756.98888,613.328218 C2756.22888,614.248218 2755.52888,614.688218 2754.92888,614.688218 C2754.50888,614.688218 2754.30888,614.448218 2754.30888,613.948218 C2754.30888,613.308218 2754.80888,612.508218 2755.82888,611.528218 C2756.74888,610.648218 2757.40888,610.188218 2757.78888,610.188218 C2758.02888,610.188218 2758.14888,610.448218 2758.14888,610.928218 L2758.14888,610.928218 Z M2764.94888,615.608218 C2764.94888,615.028218 2764.64888,614.728218 2764.06888,614.728218 C2763.30888,614.728218 2762.86888,615.428218 2762.74888,616.808218 C2762.22888,617.748218 2761.62888,618.588218 2760.96888,619.328218 C2760.80888,619.508218 2760.72888,619.728218 2760.72888,619.968218 C2760.72888,620.488218 2760.96888,620.748218 2761.42888,620.748218 C2761.68888,620.748218 2761.90888,620.648218 2762.10888,620.448218 C2762.68888,619.828218 2763.24888,619.088218 2763.78888,618.228218 C2764.54888,616.948218 2764.94888,616.088218 2764.94888,615.608218 L2764.94888,615.608218 Z M2553.52888,638.788218 C2553.52888,638.588218 2553.44888,638.388218 2553.28888,638.188218 C2553.12888,638.028218 2552.92888,637.928218 2552.72888,637.928218 C2552.56888,637.928218 2552.30888,637.968218 2551.96888,638.008218 C2551.62888,638.048218 2551.36888,638.068218 2551.20888,638.068218 C2550.60888,638.068218 2550.08888,637.788218 2549.60888,637.208218 C2551.60888,636.128218 2552.60888,634.848218 2552.60888,633.368218 C2552.60888,632.808218 2552.36888,632.268218 2551.88888,631.788218 C2551.40888,631.308218 2550.92888,631.068218 2550.42888,631.068218 C2549.56888,631.068218 2548.86888,631.568218 2548.30888,632.548218 C2547.82888,633.388218 2547.58888,634.288218 2547.58888,635.248218 C2547.58888,635.448218 2547.60888,635.728218 2547.66888,636.068218 L2547.20888,636.068218 C2546.92888,636.068218 2546.66888,635.968218 2546.38888,635.768218 C2546.10888,635.568218 2545.90888,635.468218 2545.78888,635.468218 C2545.26888,635.468218 2545.00888,635.748218 2545.00888,636.308218 C2545.00888,636.748218 2545.32888,637.108218 2546.00888,637.388218 C2546.52888,637.608218 2547.02888,637.708218 2547.54888,637.708218 L2548.14888,637.708218 C2548.86888,639.088218 2549.98888,639.768218 2551.50888,639.768218 C2552.84888,639.768218 2553.52888,639.428218 2553.52888,638.788218 L2553.52888,638.788218 Z M2551.02888,633.448218 C2551.02888,634.108218 2550.42888,634.828218 2549.22888,635.608218 L2549.22888,635.248218 C2549.22888,634.708218 2549.30888,634.188218 2549.50888,633.688218 C2549.70888,633.088218 2549.98888,632.788218 2550.34888,632.788218 C2550.50888,632.788218 2550.66888,632.868218 2550.82888,632.988218 C2550.94888,633.148218 2551.02888,633.288218 2551.02888,633.448218 L2551.02888,633.448218 Z M2561.18888,637.308218 C2561.18888,637.108218 2561.10888,636.908218 2560.94888,636.708218 C2560.78888,636.548218 2560.60888,636.448218 2560.40888,636.448218 C2560.24888,636.448218 2560.00888,636.588218 2559.72888,636.848218 C2559.48888,637.048218 2559.24888,637.248218 2559.04888,637.448218 C2558.70888,637.708218 2558.28888,637.828218 2557.78888,637.828218 C2556.98888,637.828218 2556.60888,637.348218 2556.60888,636.348218 C2556.60888,635.728218 2556.78888,635.108218 2557.14888,634.508218 C2557.50888,633.908218 2557.94888,633.408218 2558.48888,633.048218 C2558.72888,633.188218 2559.08888,633.248218 2559.58888,633.248218 C2559.84888,633.248218 2560.10888,633.148218 2560.36888,632.908218 C2560.58888,632.668218 2560.70888,632.448218 2560.70888,632.208218 C2560.70888,631.888218 2560.58888,631.648218 2560.34888,631.448218 C2560.08888,631.268218 2559.80888,631.168218 2559.50888,631.168218 C2558.24888,631.168218 2557.12888,631.828218 2556.16888,633.128218 C2555.38888,634.168218 2555.00888,635.308218 2555.00888,636.548218 C2555.00888,637.428218 2555.28888,638.128218 2555.84888,638.688218 C2556.40888,639.228218 2557.10888,639.508218 2557.94888,639.508218 C2558.70888,639.508218 2559.48888,639.208218 2560.24888,638.608218 C2560.86888,638.128218 2561.18888,637.708218 2561.18888,637.308218 L2561.18888,637.308218 Z M2571.10888,632.068218 C2571.10888,631.768218 2571.00888,631.508218 2570.80888,631.268218 C2570.62888,631.048218 2570.40888,630.928218 2570.12888,630.928218 C2570.00888,630.928218 2569.76888,631.048218 2569.40888,631.248218 C2569.04888,631.468218 2568.16888,631.648218 2566.74888,631.808218 C2566.42888,631.548218 2566.16888,631.408218 2565.98888,631.408218 C2565.76888,631.408218 2565.52888,631.528218 2565.28888,631.768218 C2565.04888,632.008218 2564.92888,632.268218 2564.92888,632.508218 C2564.92888,632.668218 2565.00888,632.868218 2565.16888,633.088218 C2565.30888,633.328218 2565.38888,633.588218 2565.38888,633.888218 C2565.38888,635.128218 2565.28888,636.148218 2565.08888,636.988218 C2564.82888,637.968218 2564.48888,638.448218 2564.08888,638.448218 C2563.92888,638.448218 2563.80888,638.208218 2563.76888,637.688218 C2563.72888,637.488218 2563.64888,637.368218 2563.48888,637.368218 C2563.20888,637.368218 2563.00888,637.508218 2562.86888,637.748218 C2562.68888,638.028218 2562.60888,638.348218 2562.60888,638.688218 C2562.60888,639.068218 2562.74888,639.348218 2563.04888,639.568218 C2563.32888,639.768218 2563.64888,639.888218 2564.00888,639.888218 C2565.04888,639.888218 2565.78888,639.208218 2566.22888,637.888218 C2566.50888,637.048218 2566.74888,635.528218 2566.94888,633.328218 C2567.44888,633.208218 2568.20888,633.048218 2569.24888,632.868218 C2569.04888,634.828218 2568.94888,636.308218 2568.94888,637.308218 C2568.94888,638.628218 2569.02888,639.448218 2569.20888,639.788218 C2569.38888,640.128218 2569.64888,640.308218 2569.96888,640.308218 C2570.48888,640.308218 2570.74888,639.988218 2570.74888,639.388218 C2570.66888,639.028218 2570.62888,638.708218 2570.58888,638.428218 C2570.48888,637.748218 2570.44888,637.168218 2570.44888,636.668218 C2570.44888,635.588218 2570.60888,634.328218 2570.94888,632.888218 C2571.04888,632.408218 2571.10888,632.148218 2571.10888,632.068218 L2571.10888,632.068218 Z M2580.56888,639.268218 C2580.56888,639.128218 2580.46888,638.948218 2580.28888,638.748218 C2579.84888,638.268218 2579.64888,637.048218 2579.64888,635.088218 C2579.64888,634.388218 2579.74888,633.208218 2579.96888,631.548218 C2579.96888,631.328218 2579.86888,631.128218 2579.70888,630.928218 C2579.52888,630.748218 2579.32888,630.648218 2579.10888,630.648218 C2578.76888,630.648218 2578.04888,631.388218 2576.96888,632.868218 C2576.08888,634.028218 2575.36888,635.088218 2574.76888,636.008218 C2574.90888,634.448218 2575.00888,633.308218 2575.06888,632.628218 C2575.06888,632.308218 2574.94888,632.028218 2574.74888,631.788218 C2574.54888,631.568218 2574.28888,631.448218 2573.96888,631.448218 C2573.78888,631.448218 2573.62888,631.568218 2573.46888,631.788218 C2573.50888,632.368218 2573.54888,632.708218 2573.54888,632.788218 C2573.54888,633.148218 2573.48888,634.048218 2573.38888,635.508218 L2573.34888,636.088218 C2573.32888,636.388218 2573.28888,636.788218 2573.24888,637.288218 C2573.18888,637.768218 2573.14888,638.068218 2573.14888,638.188218 C2573.16888,638.468218 2573.24888,638.688218 2573.40888,638.808218 C2573.72888,639.128218 2573.92888,639.268218 2574.00888,639.268218 C2574.28888,639.268218 2574.62888,638.968218 2574.98888,638.328218 C2575.72888,637.088218 2576.24888,636.208218 2576.56888,635.728218 C2577.08888,634.868218 2577.64888,634.068218 2578.26888,633.348218 C2578.26888,633.548218 2578.24888,633.968218 2578.24888,634.588218 C2578.22888,635.228218 2578.22888,635.568218 2578.22888,635.648218 C2578.22888,636.688218 2578.32888,637.568218 2578.54888,638.328218 C2578.84888,639.428218 2579.28888,639.988218 2579.84888,639.988218 C2579.96888,639.988218 2580.12888,639.888218 2580.30888,639.728218 C2580.46888,639.528218 2580.56888,639.388218 2580.56888,639.268218 L2580.56888,639.268218 Z M2597.60888,635.488218 C2597.60888,634.388218 2597.32888,633.488218 2596.80888,632.788218 C2596.20888,632.008218 2595.38888,631.608218 2594.32888,631.608218 C2593.36888,631.608218 2592.30888,632.108218 2591.18888,633.088218 C2591.50888,631.048218 2592.86888,629.608218 2595.30888,628.808218 C2596.00888,628.568218 2596.36888,628.228218 2596.36888,627.748218 C2596.36888,627.408218 2596.24888,627.048218 2596.04888,626.668218 C2595.80888,626.308218 2595.54888,626.108218 2595.26888,626.108218 C2595.00888,626.108218 2594.86888,626.288218 2594.84888,626.628218 C2594.80888,627.028218 2594.78888,627.228218 2594.76888,627.268218 C2594.70888,627.368218 2594.50888,627.488218 2594.16888,627.628218 C2591.00888,628.908218 2589.44888,631.288218 2589.44888,634.788218 C2589.44888,636.288218 2589.74888,637.508218 2590.38888,638.468218 C2591.08888,639.468218 2592.06888,639.988218 2593.32888,639.988218 C2594.44888,639.988218 2595.42888,639.548218 2596.30888,638.688218 C2597.16888,637.808218 2597.60888,636.748218 2597.60888,635.488218 L2597.60888,635.488218 Z M2596.16888,635.028218 C2596.16888,635.988218 2595.88888,636.788218 2595.34888,637.468218 C2594.78888,638.148218 2594.08888,638.488218 2593.28888,638.488218 C2592.64888,638.488218 2592.10888,638.208218 2591.70888,637.608218 C2591.30888,637.008218 2591.10888,636.268218 2591.10888,635.368218 C2591.10888,635.268218 2591.10888,635.128218 2591.12888,634.928218 C2591.62888,634.868218 2591.90888,634.648218 2591.96888,634.288218 C2592.88888,633.528218 2593.72888,633.128218 2594.44888,633.128218 C2594.88888,633.128218 2595.28888,633.328218 2595.64888,633.688218 C2595.98888,634.088218 2596.16888,634.528218 2596.16888,635.028218 L2596.16888,635.028218 Z M2609.18888,631.188218 C2609.18888,630.988218 2609.12888,630.808218 2609.00888,630.628218 C2608.84888,630.448218 2608.66888,630.348218 2608.44888,630.348218 C2608.06888,630.348218 2607.74888,630.688218 2607.48888,631.328218 C2607.22888,632.008218 2607.10888,632.488218 2607.10888,632.768218 C2607.10888,632.948218 2607.20888,633.128218 2607.40888,633.308218 L2607.04888,636.088218 C2606.80888,637.748218 2606.70888,638.748218 2606.70888,639.108218 C2606.70888,639.948218 2607.00888,640.388218 2607.62888,640.388218 C2607.84888,640.388218 2608.02888,640.288218 2608.16888,640.128218 C2608.32888,639.948218 2608.40888,639.748218 2608.40888,639.528218 C2608.40888,639.288218 2608.34888,639.108218 2608.24888,638.968218 C2608.26888,638.168218 2608.34888,637.348218 2608.46888,636.528218 C2608.58888,635.708218 2608.72888,634.888218 2608.84888,634.048218 C2609.06888,632.568218 2609.18888,631.608218 2609.18888,631.188218 L2609.18888,631.188218 Z M2605.70888,636.728218 C2605.70888,635.908218 2605.42888,635.248218 2604.88888,634.748218 C2604.38888,634.288218 2603.74888,634.048218 2602.94888,634.048218 C2602.50888,634.048218 2602.06888,634.168218 2601.62888,634.408218 C2601.70888,633.668218 2601.76888,633.008218 2601.82888,632.448218 C2601.92888,631.808218 2601.98888,631.308218 2602.02888,630.948218 C2601.94888,630.368218 2601.70888,630.068218 2601.26888,630.068218 C2600.74888,630.068218 2600.46888,630.468218 2600.40888,631.248218 C2600.08888,634.408218 2599.84888,637.088218 2599.64888,639.288218 C2599.66888,639.988218 2599.92888,640.348218 2600.44888,640.348218 C2600.76888,640.348218 2600.98888,640.208218 2601.10888,639.948218 C2601.32888,640.008218 2601.52888,640.048218 2601.72888,640.048218 C2602.60888,640.048218 2603.46888,639.728218 2604.30888,639.108218 C2605.22888,638.428218 2605.70888,637.648218 2605.70888,636.728218 L2605.70888,636.728218 Z M2604.18888,636.488218 C2604.18888,637.088218 2603.86888,637.628218 2603.26888,638.088218 C2602.70888,638.528218 2602.16888,638.748218 2601.64888,638.748218 C2601.56888,638.748218 2601.42888,638.728218 2601.26888,638.688218 L2601.44888,636.388218 C2601.80888,635.788218 2602.28888,635.468218 2602.90888,635.468218 C2603.22888,635.468218 2603.50888,635.568218 2603.78888,635.768218 C2604.04888,635.968218 2604.18888,636.208218 2604.18888,636.488218 L2604.18888,636.488218 Z M2624.72888,631.748218 C2624.72888,631.228218 2624.48888,630.968218 2624.00888,630.968218 C2623.60888,630.968218 2623.34888,631.328218 2623.24888,632.008218 C2623.14888,632.548218 2623.02888,633.308218 2622.90888,634.288218 C2622.02888,634.508218 2621.16888,634.668218 2620.32888,634.748218 C2620.52888,633.468218 2620.72888,632.508218 2620.92888,631.848218 C2621.04888,631.488218 2621.14888,631.208218 2621.24888,630.968218 C2621.20888,630.428218 2620.96888,630.148218 2620.48888,630.148218 C2620.14888,630.148218 2619.92888,630.308218 2619.80888,630.628218 C2619.40888,631.588218 2619.08888,632.968218 2618.88888,634.768218 C2618.56888,634.768218 2618.34888,634.748218 2618.22888,634.728218 C2617.82888,634.728218 2617.64888,634.968218 2617.64888,635.408218 C2617.64888,635.908218 2617.92888,636.148218 2618.50888,636.148218 L2618.74888,636.148218 C2618.68888,636.908218 2618.62888,637.768218 2618.58888,638.768218 C2618.58888,638.828218 2618.56888,638.928218 2618.54888,639.048218 C2618.50888,639.168218 2618.50888,639.248218 2618.50888,639.328218 C2618.50888,639.528218 2618.58888,639.708218 2618.74888,639.868218 C2618.90888,640.028218 2619.08888,640.108218 2619.28888,640.108218 C2619.76888,640.108218 2620.02888,639.848218 2620.04888,639.348218 C2620.04888,638.668218 2620.10888,637.588218 2620.20888,636.108218 C2621.06888,636.028218 2621.90888,635.888218 2622.74888,635.688218 C2622.64888,636.748218 2622.58888,637.588218 2622.58888,638.188218 C2622.58888,638.248218 2622.56888,638.328218 2622.54888,638.448218 C2622.50888,638.548218 2622.48888,638.628218 2622.48888,638.688218 C2622.48888,639.168218 2622.54888,639.528218 2622.70888,639.768218 C2622.86888,640.028218 2623.04888,640.168218 2623.28888,640.168218 C2623.48888,640.168218 2623.66888,640.088218 2623.82888,639.928218 C2623.96888,639.768218 2624.04888,639.568218 2624.04888,639.348218 C2624.04888,639.308218 2624.02888,639.208218 2624.02888,639.008218 C2624.00888,638.808218 2624.00888,638.648218 2624.00888,638.568218 C2624.00888,637.228218 2624.20888,635.168218 2624.64888,632.388218 C2624.68888,632.028218 2624.72888,631.828218 2624.72888,631.748218 L2624.72888,631.748218 Z M2634.70888,638.788218 C2634.70888,638.588218 2634.62888,638.388218 2634.46888,638.188218 C2634.30888,638.028218 2634.10888,637.928218 2633.90888,637.928218 C2633.74888,637.928218 2633.48888,637.968218 2633.14888,638.008218 C2632.80888,638.048218 2632.54888,638.068218 2632.38888,638.068218 C2631.78888,638.068218 2631.26888,637.788218 2630.78888,637.208218 C2632.78888,636.128218 2633.78888,634.848218 2633.78888,633.368218 C2633.78888,632.808218 2633.54888,632.268218 2633.06888,631.788218 C2632.58888,631.308218 2632.10888,631.068218 2631.60888,631.068218 C2630.74888,631.068218 2630.04888,631.568218 2629.48888,632.548218 C2629.00888,633.388218 2628.76888,634.288218 2628.76888,635.248218 C2628.76888,635.448218 2628.78888,635.728218 2628.84888,636.068218 L2628.38888,636.068218 C2628.10888,636.068218 2627.84888,635.968218 2627.56888,635.768218 C2627.28888,635.568218 2627.08888,635.468218 2626.96888,635.468218 C2626.44888,635.468218 2626.18888,635.748218 2626.18888,636.308218 C2626.18888,636.748218 2626.50888,637.108218 2627.18888,637.388218 C2627.70888,637.608218 2628.20888,637.708218 2628.72888,637.708218 L2629.32888,637.708218 C2630.04888,639.088218 2631.16888,639.768218 2632.68888,639.768218 C2634.02888,639.768218 2634.70888,639.428218 2634.70888,638.788218 L2634.70888,638.788218 Z M2632.20888,633.448218 C2632.20888,634.108218 2631.60888,634.828218 2630.40888,635.608218 L2630.40888,635.248218 C2630.40888,634.708218 2630.48888,634.188218 2630.68888,633.688218 C2630.88888,633.088218 2631.16888,632.788218 2631.52888,632.788218 C2631.68888,632.788218 2631.84888,632.868218 2632.00888,632.988218 C2632.12888,633.148218 2632.20888,633.288218 2632.20888,633.448218 L2632.20888,633.448218 Z M2654.58888,626.548218 C2654.52888,626.068218 2654.24888,625.768218 2653.76888,625.668218 C2653.00888,625.708218 2651.82888,626.288218 2650.20888,627.388218 C2648.88888,628.308218 2647.78888,629.148218 2646.94888,629.948218 L2644.98888,631.788218 C2645.30888,630.168218 2645.62888,628.808218 2645.92888,627.728218 C2645.98888,627.448218 2646.24888,626.648218 2646.70888,625.328218 C2647.12888,624.068218 2647.34888,623.348218 2647.36888,623.148218 C2647.32888,622.668218 2647.04888,622.428218 2646.56888,622.428218 C2646.24888,622.428218 2645.98888,622.668218 2645.82888,623.108218 C2644.62888,626.148218 2643.82888,628.968218 2643.42888,631.608218 C2643.12888,633.468218 2642.96888,634.888218 2642.96888,635.888218 C2642.94888,637.068218 2642.94888,637.948218 2642.94888,638.508218 C2642.94888,638.688218 2642.96888,638.908218 2643.04888,639.148218 C2643.04888,639.348218 2643.08888,639.548218 2643.18888,639.708218 C2643.28888,639.988218 2643.52888,640.148218 2643.92888,640.168218 C2644.36888,640.108218 2644.60888,639.848218 2644.66888,639.388218 C2644.58888,638.708218 2644.54888,637.768218 2644.54888,636.608218 C2644.54888,635.888218 2644.58888,635.028218 2644.66888,634.068218 C2644.92888,634.048218 2645.12888,633.988218 2645.24888,633.888218 C2645.28888,633.888218 2645.44888,633.728218 2645.76888,633.448218 C2646.58888,634.548218 2647.40888,635.468218 2648.22888,636.228218 C2649.70888,637.628218 2650.80888,638.508218 2651.52888,638.868218 C2652.04888,639.288218 2652.50888,639.528218 2652.90888,639.568218 C2653.32888,639.448218 2653.56888,639.168218 2653.60888,638.748218 C2653.58888,638.468218 2653.36888,638.128218 2652.96888,637.748218 L2651.78888,636.648218 C2651.58888,636.488218 2651.38888,636.408218 2651.18888,636.368218 L2650.90888,636.388218 C2650.30888,636.028218 2649.58888,635.388218 2648.76888,634.508218 C2648.00888,633.708218 2647.38888,632.968218 2646.92888,632.268218 C2648.90888,630.348218 2650.66888,628.968218 2652.18888,628.088218 C2652.44888,628.208218 2652.62888,628.248218 2652.74888,628.248218 C2652.88888,628.248218 2653.06888,628.168218 2653.28888,628.008218 C2654.14888,627.668218 2654.58888,627.188218 2654.58888,626.548218 L2654.58888,626.548218 Z M2662.44888,634.508218 C2662.44888,634.328218 2662.34888,634.128218 2662.18888,633.928218 C2662.18888,633.468218 2662.10888,633.068218 2661.98888,632.708218 C2662.00888,632.628218 2662.02888,632.528218 2662.02888,632.428218 C2662.02888,632.188218 2661.88888,631.948218 2661.64888,631.748218 C2661.38888,631.548218 2661.12888,631.428218 2660.86888,631.428218 C2659.76888,631.428218 2658.56888,632.068218 2657.24888,633.308218 C2655.86888,634.588218 2655.18888,635.828218 2655.18888,636.988218 C2655.18888,637.608218 2655.38888,638.148218 2655.82888,638.628218 C2656.24888,639.128218 2656.74888,639.368218 2657.32888,639.368218 C2658.22888,639.368218 2659.22888,638.808218 2660.34888,637.688218 C2660.44888,639.208218 2660.78888,639.988218 2661.36888,639.988218 C2661.56888,639.988218 2661.76888,639.908218 2661.94888,639.788218 C2662.10888,639.628218 2662.20888,639.428218 2662.20888,639.228218 C2662.20888,639.168218 2662.14888,638.928218 2662.06888,638.448218 C2661.96888,637.988218 2661.92888,637.628218 2661.92888,637.388218 C2661.92888,636.588218 2662.04888,635.788218 2662.32888,634.948218 C2662.40888,634.728218 2662.44888,634.588218 2662.44888,634.508218 L2662.44888,634.508218 Z M2660.62888,633.928218 C2660.62888,634.608218 2660.22888,635.408218 2659.46888,636.328218 C2658.70888,637.248218 2658.00888,637.688218 2657.40888,637.688218 C2656.98888,637.688218 2656.78888,637.448218 2656.78888,636.948218 C2656.78888,636.308218 2657.28888,635.508218 2658.30888,634.528218 C2659.22888,633.648218 2659.88888,633.188218 2660.26888,633.188218 C2660.50888,633.188218 2660.62888,633.448218 2660.62888,633.928218 L2660.62888,633.928218 Z M2671.14888,631.748218 C2671.14888,631.228218 2670.90888,630.968218 2670.42888,630.968218 C2670.02888,630.968218 2669.76888,631.328218 2669.66888,632.008218 C2669.56888,632.548218 2669.44888,633.308218 2669.32888,634.288218 C2668.44888,634.508218 2667.58888,634.668218 2666.74888,634.748218 C2666.94888,633.468218 2667.14888,632.508218 2667.34888,631.848218 C2667.46888,631.488218 2667.56888,631.208218 2667.66888,630.968218 C2667.62888,630.428218 2667.38888,630.148218 2666.90888,630.148218 C2666.56888,630.148218 2666.34888,630.308218 2666.22888,630.628218 C2665.82888,631.588218 2665.50888,632.968218 2665.30888,634.768218 C2664.98888,634.768218 2664.76888,634.748218 2664.64888,634.728218 C2664.24888,634.728218 2664.06888,634.968218 2664.06888,635.408218 C2664.06888,635.908218 2664.34888,636.148218 2664.92888,636.148218 L2665.16888,636.148218 C2665.10888,636.908218 2665.04888,637.768218 2665.00888,638.768218 C2665.00888,638.828218 2664.98888,638.928218 2664.96888,639.048218 C2664.92888,639.168218 2664.92888,639.248218 2664.92888,639.328218 C2664.92888,639.528218 2665.00888,639.708218 2665.16888,639.868218 C2665.32888,640.028218 2665.50888,640.108218 2665.70888,640.108218 C2666.18888,640.108218 2666.44888,639.848218 2666.46888,639.348218 C2666.46888,638.668218 2666.52888,637.588218 2666.62888,636.108218 C2667.48888,636.028218 2668.32888,635.888218 2669.16888,635.688218 C2669.06888,636.748218 2669.00888,637.588218 2669.00888,638.188218 C2669.00888,638.248218 2668.98888,638.328218 2668.96888,638.448218 C2668.92888,638.548218 2668.90888,638.628218 2668.90888,638.688218 C2668.90888,639.168218 2668.96888,639.528218 2669.12888,639.768218 C2669.28888,640.028218 2669.46888,640.168218 2669.70888,640.168218 C2669.90888,640.168218 2670.08888,640.088218 2670.24888,639.928218 C2670.38888,639.768218 2670.46888,639.568218 2670.46888,639.348218 C2670.46888,639.308218 2670.44888,639.208218 2670.44888,639.008218 C2670.42888,638.808218 2670.42888,638.648218 2670.42888,638.568218 C2670.42888,637.228218 2670.62888,635.168218 2671.06888,632.388218 C2671.10888,632.028218 2671.14888,631.828218 2671.14888,631.748218 L2671.14888,631.748218 Z M2681.12888,638.788218 C2681.12888,638.588218 2681.04888,638.388218 2680.88888,638.188218 C2680.72888,638.028218 2680.52888,637.928218 2680.32888,637.928218 C2680.16888,637.928218 2679.90888,637.968218 2679.56888,638.008218 C2679.22888,638.048218 2678.96888,638.068218 2678.80888,638.068218 C2678.20888,638.068218 2677.68888,637.788218 2677.20888,637.208218 C2679.20888,636.128218 2680.20888,634.848218 2680.20888,633.368218 C2680.20888,632.808218 2679.96888,632.268218 2679.48888,631.788218 C2679.00888,631.308218 2678.52888,631.068218 2678.02888,631.068218 C2677.16888,631.068218 2676.46888,631.568218 2675.90888,632.548218 C2675.42888,633.388218 2675.18888,634.288218 2675.18888,635.248218 C2675.18888,635.448218 2675.20888,635.728218 2675.26888,636.068218 L2674.80888,636.068218 C2674.52888,636.068218 2674.26888,635.968218 2673.98888,635.768218 C2673.70888,635.568218 2673.50888,635.468218 2673.38888,635.468218 C2672.86888,635.468218 2672.60888,635.748218 2672.60888,636.308218 C2672.60888,636.748218 2672.92888,637.108218 2673.60888,637.388218 C2674.12888,637.608218 2674.62888,637.708218 2675.14888,637.708218 L2675.74888,637.708218 C2676.46888,639.088218 2677.58888,639.768218 2679.10888,639.768218 C2680.44888,639.768218 2681.12888,639.428218 2681.12888,638.788218 L2681.12888,638.788218 Z M2678.62888,633.448218 C2678.62888,634.108218 2678.02888,634.828218 2676.82888,635.608218 L2676.82888,635.248218 C2676.82888,634.708218 2676.90888,634.188218 2677.10888,633.688218 C2677.30888,633.088218 2677.58888,632.788218 2677.94888,632.788218 C2678.10888,632.788218 2678.26888,632.868218 2678.42888,632.988218 C2678.54888,633.148218 2678.62888,633.288218 2678.62888,633.448218 L2678.62888,633.448218 Z M2696.60888,633.628218 C2696.60888,632.748218 2696.40888,632.008218 2696.00888,631.408218 C2695.56888,630.788218 2695.00888,630.468218 2694.32888,630.468218 C2692.92888,630.468218 2691.58888,631.728218 2690.32888,634.208218 L2690.54888,632.328218 C2690.78888,630.688218 2690.96888,629.488218 2691.12888,628.728218 C2691.12888,628.368218 2691.02888,628.028218 2690.84888,627.748218 C2690.66888,627.488218 2690.40888,627.348218 2690.08888,627.348218 C2689.64888,627.348218 2689.38888,627.848218 2689.28888,628.828218 C2689.02888,630.988218 2688.88888,632.208218 2688.86888,632.508218 C2688.54888,633.308218 2687.96888,634.268218 2687.08888,635.388218 C2686.12888,636.588218 2685.40888,637.168218 2684.96888,637.168218 C2684.48888,637.168218 2684.26888,636.908218 2684.26888,636.368218 C2684.26888,635.608218 2684.52888,634.768218 2685.08888,633.868218 C2685.62888,632.988218 2686.16888,632.528218 2686.68888,632.528218 C2686.92888,632.528218 2687.16888,632.628218 2687.44888,632.828218 C2687.66888,633.008218 2687.84888,633.088218 2687.98888,633.088218 C2688.30888,633.088218 2688.48888,632.968218 2688.48888,632.688218 C2688.48888,632.648218 2688.46888,632.588218 2688.46888,632.528218 C2688.32888,632.328218 2688.22888,632.188218 2688.14888,632.068218 C2687.78888,631.488218 2687.24888,631.188218 2686.52888,631.188218 C2685.54888,631.188218 2684.64888,631.828218 2683.80888,633.088218 C2683.00888,634.268218 2682.60888,635.388218 2682.60888,636.468218 C2682.60888,637.188218 2682.76888,637.748218 2683.10888,638.188218 C2683.42888,638.628218 2683.90888,638.828218 2684.54888,638.828218 C2685.92888,638.828218 2687.34888,637.768218 2688.78888,635.608218 C2688.56888,638.268218 2688.40888,640.228218 2688.28888,641.528218 C2688.26888,641.648218 2688.24888,641.808218 2688.22888,642.048218 C2688.18888,642.208218 2688.18888,642.328218 2688.18888,642.408218 C2688.18888,642.988218 2688.34888,643.388218 2688.66888,643.588218 C2688.84888,643.688218 2689.06888,643.748218 2689.32888,643.748218 C2689.56888,643.748218 2689.74888,643.608218 2689.90888,643.348218 C2690.04888,643.068218 2690.12888,642.768218 2690.12888,642.468218 C2690.12888,642.428218 2690.10888,642.268218 2690.08888,642.028218 C2690.04888,641.748218 2690.04888,641.548218 2690.04888,641.468218 C2690.04888,641.368218 2690.02888,641.188218 2690.02888,640.948218 C2690.00888,640.708218 2690.00888,640.528218 2690.00888,640.448218 C2690.00888,640.368218 2690.00888,640.028218 2690.02888,639.448218 C2690.02888,638.888218 2690.04888,638.548218 2690.04888,638.428218 C2690.04888,637.548218 2690.58888,636.268218 2691.66888,634.548218 C2692.74888,632.868218 2693.56888,632.008218 2694.16888,632.008218 C2694.76888,632.008218 2695.06888,632.588218 2695.06888,633.728218 C2695.06888,634.488218 2694.94888,635.188218 2694.70888,635.828218 C2694.36888,636.688218 2693.90888,637.108218 2693.30888,637.108218 C2693.06888,637.108218 2692.76888,636.928218 2692.44888,636.548218 C2692.12888,636.188218 2691.88888,635.988218 2691.72888,635.948218 C2691.54888,635.988218 2691.38888,636.088218 2691.26888,636.288218 C2691.12888,636.488218 2691.06888,636.668218 2691.06888,636.848218 C2691.06888,637.188218 2691.30888,637.548218 2691.78888,637.928218 C2692.26888,638.328218 2692.78888,638.528218 2693.34888,638.528218 C2694.54888,638.528218 2695.40888,637.968218 2695.96888,636.848218 C2696.38888,636.008218 2696.60888,634.948218 2696.60888,633.628218 L2696.60888,633.628218 Z M2705.90888,632.228218 C2705.90888,631.268218 2705.68888,630.468218 2705.24888,629.828218 C2704.76888,629.128218 2704.06888,628.768218 2703.18888,628.768218 C2701.92888,628.768218 2700.94888,629.648218 2700.24888,631.408218 C2699.76888,632.628218 2699.52888,634.028218 2699.52888,635.588218 C2699.52888,635.788218 2699.52888,635.948218 2699.54888,636.048218 C2698.98888,636.248218 2698.72888,636.548218 2698.72888,636.968218 C2698.72888,637.488218 2698.98888,637.768218 2699.54888,637.808218 C2699.58888,638.128218 2699.60888,638.608218 2699.60888,639.248218 C2699.60888,640.528218 2699.52888,641.428218 2699.40888,641.988218 C2699.26888,642.528218 2699.20888,642.828218 2699.20888,642.888218 C2699.20888,643.108218 2699.28888,643.308218 2699.44888,643.488218 C2699.60888,643.648218 2699.80888,643.748218 2700.02888,643.748218 C2700.44888,643.748218 2700.74888,643.328218 2700.92888,642.508218 C2701.12888,641.588218 2701.22888,640.648218 2701.22888,639.728218 C2701.22888,638.888218 2701.18888,638.068218 2701.12888,637.268218 C2704.30888,636.108218 2705.90888,634.428218 2705.90888,632.228218 L2705.90888,632.228218 Z M2704.30888,631.888218 C2704.30888,633.528218 2703.24888,634.728218 2701.14888,635.488218 C2701.14888,634.408218 2701.32888,633.308218 2701.70888,632.228218 C2702.12888,631.048218 2702.62888,630.448218 2703.18888,630.448218 C2703.52888,630.448218 2703.80888,630.608218 2704.02888,630.888218 C2704.20888,631.168218 2704.30888,631.508218 2704.30888,631.888218 L2704.30888,631.888218 Z M2714.22888,634.748218 C2714.22888,633.968218 2714.00888,633.248218 2713.56888,632.608218 C2713.10888,631.988218 2712.52888,631.548218 2711.82888,631.308218 C2711.54888,631.228218 2711.38888,631.188218 2711.34888,631.188218 C2711.18888,631.188218 2711.00888,631.288218 2710.76888,631.448218 C2710.48888,631.608218 2710.26888,631.728218 2710.10888,631.788218 C2709.42888,632.128218 2708.86888,632.728218 2708.46888,633.568218 C2708.06888,634.328218 2707.88888,635.148218 2707.88888,636.008218 C2707.88888,637.028218 2708.14888,637.868218 2708.70888,638.528218 C2709.26888,639.168218 2709.96888,639.508218 2710.80888,639.508218 C2711.76888,639.508218 2712.58888,639.068218 2713.24888,638.148218 C2713.88888,637.228218 2714.22888,636.108218 2714.22888,634.748218 L2714.22888,634.748218 Z M2712.64888,635.048218 C2712.64888,635.728218 2712.44888,636.348218 2712.08888,636.928218 C2711.68888,637.528218 2711.26888,637.828218 2710.78888,637.828218 C2710.38888,637.828218 2710.06888,637.648218 2709.82888,637.268218 C2709.56888,636.908218 2709.44888,636.488218 2709.44888,636.008218 C2709.44888,635.368218 2709.58888,634.768218 2709.90888,634.208218 C2710.26888,633.568218 2710.72888,633.228218 2711.28888,633.228218 C2711.48888,633.348218 2711.74888,633.408218 2712.06888,633.408218 C2712.44888,633.648218 2712.64888,634.208218 2712.64888,635.048218 L2712.64888,635.048218 Z M2722.94888,631.748218 C2722.94888,631.228218 2722.70888,630.968218 2722.22888,630.968218 C2721.82888,630.968218 2721.56888,631.328218 2721.46888,632.008218 C2721.36888,632.548218 2721.24888,633.308218 2721.12888,634.288218 C2720.24888,634.508218 2719.38888,634.668218 2718.54888,634.748218 C2718.74888,633.468218 2718.94888,632.508218 2719.14888,631.848218 C2719.26888,631.488218 2719.36888,631.208218 2719.46888,630.968218 C2719.42888,630.428218 2719.18888,630.148218 2718.70888,630.148218 C2718.36888,630.148218 2718.14888,630.308218 2718.02888,630.628218 C2717.62888,631.588218 2717.30888,632.968218 2717.10888,634.768218 C2716.78888,634.768218 2716.56888,634.748218 2716.44888,634.728218 C2716.04888,634.728218 2715.86888,634.968218 2715.86888,635.408218 C2715.86888,635.908218 2716.14888,636.148218 2716.72888,636.148218 L2716.96888,636.148218 C2716.90888,636.908218 2716.84888,637.768218 2716.80888,638.768218 C2716.80888,638.828218 2716.78888,638.928218 2716.76888,639.048218 C2716.72888,639.168218 2716.72888,639.248218 2716.72888,639.328218 C2716.72888,639.528218 2716.80888,639.708218 2716.96888,639.868218 C2717.12888,640.028218 2717.30888,640.108218 2717.50888,640.108218 C2717.98888,640.108218 2718.24888,639.848218 2718.26888,639.348218 C2718.26888,638.668218 2718.32888,637.588218 2718.42888,636.108218 C2719.28888,636.028218 2720.12888,635.888218 2720.96888,635.688218 C2720.86888,636.748218 2720.80888,637.588218 2720.80888,638.188218 C2720.80888,638.248218 2720.78888,638.328218 2720.76888,638.448218 C2720.72888,638.548218 2720.70888,638.628218 2720.70888,638.688218 C2720.70888,639.168218 2720.76888,639.528218 2720.92888,639.768218 C2721.08888,640.028218 2721.26888,640.168218 2721.50888,640.168218 C2721.70888,640.168218 2721.88888,640.088218 2722.04888,639.928218 C2722.18888,639.768218 2722.26888,639.568218 2722.26888,639.348218 C2722.26888,639.308218 2722.24888,639.208218 2722.24888,639.008218 C2722.22888,638.808218 2722.22888,638.648218 2722.22888,638.568218 C2722.22888,637.228218 2722.42888,635.168218 2722.86888,632.388218 C2722.90888,632.028218 2722.94888,631.828218 2722.94888,631.748218 L2722.94888,631.748218 Z M2743.04888,625.128218 C2743.04888,624.928218 2742.96888,624.728218 2742.80888,624.548218 C2742.64888,624.388218 2742.44888,624.288218 2742.24888,624.288218 C2741.86888,624.288218 2741.62888,624.508218 2741.52888,624.928218 C2741.38888,625.528218 2741.28888,625.988218 2741.24888,626.308218 C2741.04888,627.268218 2740.84888,628.588218 2740.64888,630.268218 C2739.08888,630.828218 2737.24888,631.148218 2735.12888,631.268218 C2735.28888,629.848218 2735.52888,628.488218 2735.84888,627.208218 C2736.04888,626.288218 2736.20888,625.688218 2736.32888,625.388218 C2736.66888,624.348218 2736.84888,623.748218 2736.84888,623.608218 C2736.84888,623.068218 2736.56888,622.788218 2736.04888,622.788218 C2735.72888,622.788218 2735.48888,622.968218 2735.30888,623.308218 C2735.24888,623.408218 2735.12888,623.708218 2734.96888,624.228218 C2734.28888,626.148218 2733.78888,628.528218 2733.48888,631.368218 C2733.32888,631.368218 2733.02888,631.348218 2732.60888,631.308218 C2732.18888,631.288218 2731.94888,631.268218 2731.88888,631.268218 C2731.68888,631.268218 2731.52888,631.368218 2731.40888,631.528218 C2731.26888,631.708218 2731.20888,631.888218 2731.20888,632.088218 C2731.20888,632.688218 2731.64888,632.968218 2732.56888,632.968218 L2732.98888,632.968218 C2733.14888,632.968218 2733.28888,632.948218 2733.36888,632.948218 C2733.12888,635.628218 2733.02888,637.768218 2733.02888,639.368218 C2733.02888,639.608218 2733.08888,639.808218 2733.24888,640.008218 C2733.38888,640.208218 2733.56888,640.308218 2733.78888,640.308218 C2734.00888,640.308218 2734.20888,640.188218 2734.38888,639.988218 C2734.54888,639.768218 2734.62888,639.508218 2734.64888,639.228218 C2734.76888,636.588218 2734.88888,634.488218 2735.00888,632.908218 C2737.00888,632.748218 2738.80888,632.448218 2740.44888,632.048218 C2740.16888,634.968218 2740.04888,637.188218 2740.04888,638.728218 C2740.04888,639.808218 2740.34888,640.368218 2740.96888,640.368218 C2741.16888,640.368218 2741.36888,640.288218 2741.52888,640.128218 C2741.68888,639.948218 2741.76888,639.748218 2741.76888,639.528218 C2741.76888,639.448218 2741.74888,639.228218 2741.74888,638.848218 C2741.72888,638.468218 2741.72888,638.188218 2741.72888,637.988218 C2741.72888,634.728218 2742.10888,630.768218 2742.88888,626.128218 L2743.04888,625.128218 Z" id="Не-знаю,-что-бы-я-де" transform="translate(2654.958883, 621.768218) rotate(-10.000000) translate(-2654.958883, -621.768218) "></path>
        </g>
    </g>
</svg>