<?xml version="1.0" encoding="UTF-8"?>
<svg width="143px" height="62px" viewBox="0 0 143 62" version="1.1" xmlns="http://www.w3.org/2000/svg" xmlns:xlink="http://www.w3.org/1999/xlink">
    <!-- Generator: Sketch 40.3 (33839) - http://www.bohemiancoding.com/sketch -->
    <title>с Канефрон® Н жизнь</title>
    <desc>Created with Sketch.</desc>
    <defs></defs>
    <g id="Page-1" stroke="none" stroke-width="1" fill="none" fill-rule="evenodd">
        <g id="Sostav-IN-CURVES" transform="translate(-4749.000000, -573.000000)" fill="#354777">
            <path d="M4758.92487,597.486895 C4758.92487,597.286895 4758.84487,597.086895 4758.68487,596.886895 C4758.52487,596.726895 4758.34487,596.626895 4758.14487,596.626895 C4757.98487,596.626895 4757.74487,596.766895 4757.46487,597.026895 C4757.22487,597.226895 4756.98487,597.426895 4756.78487,597.626895 C4756.44487,597.886895 4756.02487,598.006895 4755.52487,598.006895 C4754.72487,598.006895 4754.34487,597.526895 4754.34487,596.526895 C4754.34487,595.906895 4754.52487,595.286895 4754.88487,594.686895 C4755.24487,594.086895 4755.68487,593.586895 4756.22487,593.226895 C4756.46487,593.366895 4756.82487,593.426895 4757.32487,593.426895 C4757.58487,593.426895 4757.84487,593.326895 4758.10487,593.086895 C4758.32487,592.846895 4758.44487,592.626895 4758.44487,592.386895 C4758.44487,592.066895 4758.32487,591.826895 4758.08487,591.626895 C4757.82487,591.446895 4757.54487,591.346895 4757.24487,591.346895 C4755.98487,591.346895 4754.86487,592.006895 4753.90487,593.306895 C4753.12487,594.346895 4752.74487,595.486895 4752.74487,596.726895 C4752.74487,597.606895 4753.02487,598.306895 4753.58487,598.866895 C4754.14487,599.406895 4754.84487,599.686895 4755.68487,599.686895 C4756.44487,599.686895 4757.22487,599.386895 4757.98487,598.786895 C4758.60487,598.306895 4758.92487,597.886895 4758.92487,597.486895 L4758.92487,597.486895 Z M4779.16487,586.726895 C4779.10487,586.246895 4778.82487,585.946895 4778.34487,585.846895 C4777.58487,585.886895 4776.40487,586.466895 4774.78487,587.566895 C4773.46487,588.486895 4772.36487,589.326895 4771.52487,590.126895 L4769.56487,591.966895 C4769.88487,590.346895 4770.20487,588.986895 4770.50487,587.906895 C4770.56487,587.626895 4770.82487,586.826895 4771.28487,585.506895 C4771.70487,584.246895 4771.92487,583.526895 4771.94487,583.326895 C4771.90487,582.846895 4771.62487,582.606895 4771.14487,582.606895 C4770.82487,582.606895 4770.56487,582.846895 4770.40487,583.286895 C4769.20487,586.326895 4768.40487,589.146895 4768.00487,591.786895 C4767.70487,593.646895 4767.54487,595.066895 4767.54487,596.066895 C4767.52487,597.246895 4767.52487,598.126895 4767.52487,598.686895 C4767.52487,598.866895 4767.54487,599.086895 4767.62487,599.326895 C4767.62487,599.526895 4767.66487,599.726895 4767.76487,599.886895 C4767.86487,600.166895 4768.10487,600.326895 4768.50487,600.346895 C4768.94487,600.286895 4769.18487,600.026895 4769.24487,599.566895 C4769.16487,598.886895 4769.12487,597.946895 4769.12487,596.786895 C4769.12487,596.066895 4769.16487,595.206895 4769.24487,594.246895 C4769.50487,594.226895 4769.70487,594.166895 4769.82487,594.066895 C4769.86487,594.066895 4770.02487,593.906895 4770.34487,593.626895 C4771.16487,594.726895 4771.98487,595.646895 4772.80487,596.406895 C4774.28487,597.806895 4775.38487,598.686895 4776.10487,599.046895 C4776.62487,599.466895 4777.08487,599.706895 4777.48487,599.746895 C4777.90487,599.626895 4778.14487,599.346895 4778.18487,598.926895 C4778.16487,598.646895 4777.94487,598.306895 4777.54487,597.926895 L4776.36487,596.826895 C4776.16487,596.666895 4775.96487,596.586895 4775.76487,596.546895 L4775.48487,596.566895 C4774.88487,596.206895 4774.16487,595.566895 4773.34487,594.686895 C4772.58487,593.886895 4771.96487,593.146895 4771.50487,592.446895 C4773.48487,590.526895 4775.24487,589.146895 4776.76487,588.266895 C4777.02487,588.386895 4777.20487,588.426895 4777.32487,588.426895 C4777.46487,588.426895 4777.64487,588.346895 4777.86487,588.186895 C4778.72487,587.846895 4779.16487,587.366895 4779.16487,586.726895 L4779.16487,586.726895 Z M4787.02487,594.686895 C4787.02487,594.506895 4786.92487,594.306895 4786.76487,594.106895 C4786.76487,593.646895 4786.68487,593.246895 4786.56487,592.886895 C4786.58487,592.806895 4786.60487,592.706895 4786.60487,592.606895 C4786.60487,592.366895 4786.46487,592.126895 4786.22487,591.926895 C4785.96487,591.726895 4785.70487,591.606895 4785.44487,591.606895 C4784.34487,591.606895 4783.14487,592.246895 4781.82487,593.486895 C4780.44487,594.766895 4779.76487,596.006895 4779.76487,597.166895 C4779.76487,597.786895 4779.96487,598.326895 4780.40487,598.806895 C4780.82487,599.306895 4781.32487,599.546895 4781.90487,599.546895 C4782.80487,599.546895 4783.80487,598.986895 4784.92487,597.866895 C4785.02487,599.386895 4785.36487,600.166895 4785.94487,600.166895 C4786.14487,600.166895 4786.34487,600.086895 4786.52487,599.966895 C4786.68487,599.806895 4786.78487,599.606895 4786.78487,599.406895 C4786.78487,599.346895 4786.72487,599.106895 4786.64487,598.626895 C4786.54487,598.166895 4786.50487,597.806895 4786.50487,597.566895 C4786.50487,596.766895 4786.62487,595.966895 4786.90487,595.126895 C4786.98487,594.906895 4787.02487,594.766895 4787.02487,594.686895 L4787.02487,594.686895 Z M4785.20487,594.106895 C4785.20487,594.786895 4784.80487,595.586895 4784.04487,596.506895 C4783.28487,597.426895 4782.58487,597.866895 4781.98487,597.866895 C4781.56487,597.866895 4781.36487,597.626895 4781.36487,597.126895 C4781.36487,596.486895 4781.86487,595.686895 4782.88487,594.706895 C4783.80487,593.826895 4784.46487,593.366895 4784.84487,593.366895 C4785.08487,593.366895 4785.20487,593.626895 4785.20487,594.106895 L4785.20487,594.106895 Z M4795.72487,591.926895 C4795.72487,591.406895 4795.48487,591.146895 4795.00487,591.146895 C4794.60487,591.146895 4794.34487,591.506895 4794.24487,592.186895 C4794.14487,592.726895 4794.02487,593.486895 4793.90487,594.466895 C4793.02487,594.686895 4792.16487,594.846895 4791.32487,594.926895 C4791.52487,593.646895 4791.72487,592.686895 4791.92487,592.026895 C4792.04487,591.666895 4792.14487,591.386895 4792.24487,591.146895 C4792.20487,590.606895 4791.96487,590.326895 4791.48487,590.326895 C4791.14487,590.326895 4790.92487,590.486895 4790.80487,590.806895 C4790.40487,591.766895 4790.08487,593.146895 4789.88487,594.946895 C4789.56487,594.946895 4789.34487,594.926895 4789.22487,594.906895 C4788.82487,594.906895 4788.64487,595.146895 4788.64487,595.586895 C4788.64487,596.086895 4788.92487,596.326895 4789.50487,596.326895 L4789.74487,596.326895 C4789.68487,597.086895 4789.62487,597.946895 4789.58487,598.946895 C4789.58487,599.006895 4789.56487,599.106895 4789.54487,599.226895 C4789.50487,599.346895 4789.50487,599.426895 4789.50487,599.506895 C4789.50487,599.706895 4789.58487,599.886895 4789.74487,600.046895 C4789.90487,600.206895 4790.08487,600.286895 4790.28487,600.286895 C4790.76487,600.286895 4791.02487,600.026895 4791.04487,599.526895 C4791.04487,598.846895 4791.10487,597.766895 4791.20487,596.286895 C4792.06487,596.206895 4792.90487,596.066895 4793.74487,595.866895 C4793.64487,596.926895 4793.58487,597.766895 4793.58487,598.366895 C4793.58487,598.426895 4793.56487,598.506895 4793.54487,598.626895 C4793.50487,598.726895 4793.48487,598.806895 4793.48487,598.866895 C4793.48487,599.346895 4793.54487,599.706895 4793.70487,599.946895 C4793.86487,600.206895 4794.04487,600.346895 4794.28487,600.346895 C4794.48487,600.346895 4794.66487,600.266895 4794.82487,600.106895 C4794.96487,599.946895 4795.04487,599.746895 4795.04487,599.526895 C4795.04487,599.486895 4795.02487,599.386895 4795.02487,599.186895 C4795.00487,598.986895 4795.00487,598.826895 4795.00487,598.746895 C4795.00487,597.406895 4795.20487,595.346895 4795.64487,592.566895 C4795.68487,592.206895 4795.72487,592.006895 4795.72487,591.926895 L4795.72487,591.926895 Z M4805.70487,598.966895 C4805.70487,598.766895 4805.62487,598.566895 4805.46487,598.366895 C4805.30487,598.206895 4805.10487,598.106895 4804.90487,598.106895 C4804.74487,598.106895 4804.48487,598.146895 4804.14487,598.186895 C4803.80487,598.226895 4803.54487,598.246895 4803.38487,598.246895 C4802.78487,598.246895 4802.26487,597.966895 4801.78487,597.386895 C4803.78487,596.306895 4804.78487,595.026895 4804.78487,593.546895 C4804.78487,592.986895 4804.54487,592.446895 4804.06487,591.966895 C4803.58487,591.486895 4803.10487,591.246895 4802.60487,591.246895 C4801.74487,591.246895 4801.04487,591.746895 4800.48487,592.726895 C4800.00487,593.566895 4799.76487,594.466895 4799.76487,595.426895 C4799.76487,595.626895 4799.78487,595.906895 4799.84487,596.246895 L4799.38487,596.246895 C4799.10487,596.246895 4798.84487,596.146895 4798.56487,595.946895 C4798.28487,595.746895 4798.08487,595.646895 4797.96487,595.646895 C4797.44487,595.646895 4797.18487,595.926895 4797.18487,596.486895 C4797.18487,596.926895 4797.50487,597.286895 4798.18487,597.566895 C4798.70487,597.786895 4799.20487,597.886895 4799.72487,597.886895 L4800.32487,597.886895 C4801.04487,599.266895 4802.16487,599.946895 4803.68487,599.946895 C4805.02487,599.946895 4805.70487,599.606895 4805.70487,598.966895 L4805.70487,598.966895 Z M4803.20487,593.626895 C4803.20487,594.286895 4802.60487,595.006895 4801.40487,595.786895 L4801.40487,595.426895 C4801.40487,594.886895 4801.48487,594.366895 4801.68487,593.866895 C4801.88487,593.266895 4802.16487,592.966895 4802.52487,592.966895 C4802.68487,592.966895 4802.84487,593.046895 4803.00487,593.166895 C4803.12487,593.326895 4803.20487,593.466895 4803.20487,593.626895 L4803.20487,593.626895 Z M4821.18487,593.806895 C4821.18487,592.926895 4820.98487,592.186895 4820.58487,591.586895 C4820.14487,590.966895 4819.58487,590.646895 4818.90487,590.646895 C4817.50487,590.646895 4816.16487,591.906895 4814.90487,594.386895 L4815.12487,592.506895 C4815.36487,590.866895 4815.54487,589.666895 4815.70487,588.906895 C4815.70487,588.546895 4815.60487,588.206895 4815.42487,587.926895 C4815.24487,587.666895 4814.98487,587.526895 4814.66487,587.526895 C4814.22487,587.526895 4813.96487,588.026895 4813.86487,589.006895 C4813.60487,591.166895 4813.46487,592.386895 4813.44487,592.686895 C4813.12487,593.486895 4812.54487,594.446895 4811.66487,595.566895 C4810.70487,596.766895 4809.98487,597.346895 4809.54487,597.346895 C4809.06487,597.346895 4808.84487,597.086895 4808.84487,596.546895 C4808.84487,595.786895 4809.10487,594.946895 4809.66487,594.046895 C4810.20487,593.166895 4810.74487,592.706895 4811.26487,592.706895 C4811.50487,592.706895 4811.74487,592.806895 4812.02487,593.006895 C4812.24487,593.186895 4812.42487,593.266895 4812.56487,593.266895 C4812.88487,593.266895 4813.06487,593.146895 4813.06487,592.866895 C4813.06487,592.826895 4813.04487,592.766895 4813.04487,592.706895 C4812.90487,592.506895 4812.80487,592.366895 4812.72487,592.246895 C4812.36487,591.666895 4811.82487,591.366895 4811.10487,591.366895 C4810.12487,591.366895 4809.22487,592.006895 4808.38487,593.266895 C4807.58487,594.446895 4807.18487,595.566895 4807.18487,596.646895 C4807.18487,597.366895 4807.34487,597.926895 4807.68487,598.366895 C4808.00487,598.806895 4808.48487,599.006895 4809.12487,599.006895 C4810.50487,599.006895 4811.92487,597.946895 4813.36487,595.786895 C4813.14487,598.446895 4812.98487,600.406895 4812.86487,601.706895 C4812.84487,601.826895 4812.82487,601.986895 4812.80487,602.226895 C4812.76487,602.386895 4812.76487,602.506895 4812.76487,602.586895 C4812.76487,603.166895 4812.92487,603.566895 4813.24487,603.766895 C4813.42487,603.866895 4813.64487,603.926895 4813.90487,603.926895 C4814.14487,603.926895 4814.32487,603.786895 4814.48487,603.526895 C4814.62487,603.246895 4814.70487,602.946895 4814.70487,602.646895 C4814.70487,602.606895 4814.68487,602.446895 4814.66487,602.206895 C4814.62487,601.926895 4814.62487,601.726895 4814.62487,601.646895 C4814.62487,601.546895 4814.60487,601.366895 4814.60487,601.126895 C4814.58487,600.886895 4814.58487,600.706895 4814.58487,600.626895 C4814.58487,600.546895 4814.58487,600.206895 4814.60487,599.626895 C4814.60487,599.066895 4814.62487,598.726895 4814.62487,598.606895 C4814.62487,597.726895 4815.16487,596.446895 4816.24487,594.726895 C4817.32487,593.046895 4818.14487,592.186895 4818.74487,592.186895 C4819.34487,592.186895 4819.64487,592.766895 4819.64487,593.906895 C4819.64487,594.666895 4819.52487,595.366895 4819.28487,596.006895 C4818.94487,596.866895 4818.48487,597.286895 4817.88487,597.286895 C4817.64487,597.286895 4817.34487,597.106895 4817.02487,596.726895 C4816.70487,596.366895 4816.46487,596.166895 4816.30487,596.126895 C4816.12487,596.166895 4815.96487,596.266895 4815.84487,596.466895 C4815.70487,596.666895 4815.64487,596.846895 4815.64487,597.026895 C4815.64487,597.366895 4815.88487,597.726895 4816.36487,598.106895 C4816.84487,598.506895 4817.36487,598.706895 4817.92487,598.706895 C4819.12487,598.706895 4819.98487,598.146895 4820.54487,597.026895 C4820.96487,596.186895 4821.18487,595.126895 4821.18487,593.806895 L4821.18487,593.806895 Z M4830.48487,592.406895 C4830.48487,591.446895 4830.26487,590.646895 4829.82487,590.006895 C4829.34487,589.306895 4828.64487,588.946895 4827.76487,588.946895 C4826.50487,588.946895 4825.52487,589.826895 4824.82487,591.586895 C4824.34487,592.806895 4824.10487,594.206895 4824.10487,595.766895 C4824.10487,595.966895 4824.10487,596.126895 4824.12487,596.226895 C4823.56487,596.426895 4823.30487,596.726895 4823.30487,597.146895 C4823.30487,597.666895 4823.56487,597.946895 4824.12487,597.986895 C4824.16487,598.306895 4824.18487,598.786895 4824.18487,599.426895 C4824.18487,600.706895 4824.10487,601.606895 4823.98487,602.166895 C4823.84487,602.706895 4823.78487,603.006895 4823.78487,603.066895 C4823.78487,603.286895 4823.86487,603.486895 4824.02487,603.666895 C4824.18487,603.826895 4824.38487,603.926895 4824.60487,603.926895 C4825.02487,603.926895 4825.32487,603.506895 4825.50487,602.686895 C4825.70487,601.766895 4825.80487,600.826895 4825.80487,599.906895 C4825.80487,599.066895 4825.76487,598.246895 4825.70487,597.446895 C4828.88487,596.286895 4830.48487,594.606895 4830.48487,592.406895 L4830.48487,592.406895 Z M4828.88487,592.066895 C4828.88487,593.706895 4827.82487,594.906895 4825.72487,595.666895 C4825.72487,594.586895 4825.90487,593.486895 4826.28487,592.406895 C4826.70487,591.226895 4827.20487,590.626895 4827.76487,590.626895 C4828.10487,590.626895 4828.38487,590.786895 4828.60487,591.066895 C4828.78487,591.346895 4828.88487,591.686895 4828.88487,592.066895 L4828.88487,592.066895 Z M4838.80487,594.926895 C4838.80487,594.146895 4838.58487,593.426895 4838.14487,592.786895 C4837.68487,592.166895 4837.10487,591.726895 4836.40487,591.486895 C4836.12487,591.406895 4835.96487,591.366895 4835.92487,591.366895 C4835.76487,591.366895 4835.58487,591.466895 4835.34487,591.626895 C4835.06487,591.786895 4834.84487,591.906895 4834.68487,591.966895 C4834.00487,592.306895 4833.44487,592.906895 4833.04487,593.746895 C4832.64487,594.506895 4832.46487,595.326895 4832.46487,596.186895 C4832.46487,597.206895 4832.72487,598.046895 4833.28487,598.706895 C4833.84487,599.346895 4834.54487,599.686895 4835.38487,599.686895 C4836.34487,599.686895 4837.16487,599.246895 4837.82487,598.326895 C4838.46487,597.406895 4838.80487,596.286895 4838.80487,594.926895 L4838.80487,594.926895 Z M4837.22487,595.226895 C4837.22487,595.906895 4837.02487,596.526895 4836.66487,597.106895 C4836.26487,597.706895 4835.84487,598.006895 4835.36487,598.006895 C4834.96487,598.006895 4834.64487,597.826895 4834.40487,597.446895 C4834.14487,597.086895 4834.02487,596.666895 4834.02487,596.186895 C4834.02487,595.546895 4834.16487,594.946895 4834.48487,594.386895 C4834.84487,593.746895 4835.30487,593.406895 4835.86487,593.406895 C4836.06487,593.526895 4836.32487,593.586895 4836.64487,593.586895 C4837.02487,593.826895 4837.22487,594.386895 4837.22487,595.226895 L4837.22487,595.226895 Z M4847.52487,591.926895 C4847.52487,591.406895 4847.28487,591.146895 4846.80487,591.146895 C4846.40487,591.146895 4846.14487,591.506895 4846.04487,592.186895 C4845.94487,592.726895 4845.82487,593.486895 4845.70487,594.466895 C4844.82487,594.686895 4843.96487,594.846895 4843.12487,594.926895 C4843.32487,593.646895 4843.52487,592.686895 4843.72487,592.026895 C4843.84487,591.666895 4843.94487,591.386895 4844.04487,591.146895 C4844.00487,590.606895 4843.76487,590.326895 4843.28487,590.326895 C4842.94487,590.326895 4842.72487,590.486895 4842.60487,590.806895 C4842.20487,591.766895 4841.88487,593.146895 4841.68487,594.946895 C4841.36487,594.946895 4841.14487,594.926895 4841.02487,594.906895 C4840.62487,594.906895 4840.44487,595.146895 4840.44487,595.586895 C4840.44487,596.086895 4840.72487,596.326895 4841.30487,596.326895 L4841.54487,596.326895 C4841.48487,597.086895 4841.42487,597.946895 4841.38487,598.946895 C4841.38487,599.006895 4841.36487,599.106895 4841.34487,599.226895 C4841.30487,599.346895 4841.30487,599.426895 4841.30487,599.506895 C4841.30487,599.706895 4841.38487,599.886895 4841.54487,600.046895 C4841.70487,600.206895 4841.88487,600.286895 4842.08487,600.286895 C4842.56487,600.286895 4842.82487,600.026895 4842.84487,599.526895 C4842.84487,598.846895 4842.90487,597.766895 4843.00487,596.286895 C4843.86487,596.206895 4844.70487,596.066895 4845.54487,595.866895 C4845.44487,596.926895 4845.38487,597.766895 4845.38487,598.366895 C4845.38487,598.426895 4845.36487,598.506895 4845.34487,598.626895 C4845.30487,598.726895 4845.28487,598.806895 4845.28487,598.866895 C4845.28487,599.346895 4845.34487,599.706895 4845.50487,599.946895 C4845.66487,600.206895 4845.84487,600.346895 4846.08487,600.346895 C4846.28487,600.346895 4846.46487,600.266895 4846.62487,600.106895 C4846.76487,599.946895 4846.84487,599.746895 4846.84487,599.526895 C4846.84487,599.486895 4846.82487,599.386895 4846.82487,599.186895 C4846.80487,598.986895 4846.80487,598.826895 4846.80487,598.746895 C4846.80487,597.406895 4847.00487,595.346895 4847.44487,592.566895 C4847.48487,592.206895 4847.52487,592.006895 4847.52487,591.926895 L4847.52487,591.926895 Z M4861.36487,588.886895 C4861.36487,587.406895 4860.90487,586.266895 4859.98487,585.426895 C4859.10487,584.626895 4857.92487,584.206895 4856.48487,584.146895 C4856.36487,583.906895 4856.20487,583.766895 4856.00487,583.766895 C4854.28487,583.766895 4852.78487,584.406895 4851.54487,585.646895 C4850.28487,586.906895 4849.66487,588.426895 4849.66487,590.226895 C4849.66487,591.826895 4850.10487,593.146895 4851.00487,594.186895 C4851.92487,595.286895 4853.12487,595.826895 4854.62487,595.826895 C4856.44487,595.826895 4858.02487,595.146895 4859.36487,593.786895 C4860.68487,592.406895 4861.36487,590.766895 4861.36487,588.886895 L4861.36487,588.886895 Z M4860.24487,589.026895 C4860.24487,590.586895 4859.66487,591.926895 4858.54487,593.006895 C4857.40487,594.126895 4856.06487,594.666895 4854.52487,594.666895 C4853.38487,594.666895 4852.48487,594.206895 4851.80487,593.286895 C4851.18487,592.466895 4850.88487,591.446895 4850.88487,590.226895 C4850.88487,588.886895 4851.28487,587.746895 4852.08487,586.786895 C4852.86487,585.826895 4853.90487,585.226895 4855.18487,585.026895 C4855.42487,585.266895 4855.56487,585.386895 4855.60487,585.386895 C4855.68487,585.386895 4855.82487,585.386895 4855.98487,585.366895 C4856.16487,585.346895 4856.30487,585.326895 4856.40487,585.326895 C4858.96487,585.326895 4860.24487,586.566895 4860.24487,589.026895 L4860.24487,589.026895 Z M4857.64487,588.166895 C4857.64487,587.666895 4857.46487,587.266895 4857.14487,586.946895 C4856.78487,586.646895 4856.38487,586.486895 4855.90487,586.486895 C4855.50487,586.486895 4855.04487,586.586895 4854.56487,586.786895 C4854.06487,587.006895 4853.66487,587.266895 4853.36487,587.586895 C4853.16487,587.786895 4853.04487,587.986895 4853.02487,588.226895 C4853.04487,588.426895 4853.18487,588.586895 4853.42487,588.726895 C4853.34487,589.326895 4853.30487,589.786895 4853.28487,590.066895 C4853.00487,590.146895 4852.86487,590.326895 4852.86487,590.646895 C4852.86487,590.946895 4852.98487,591.126895 4853.24487,591.186895 L4853.24487,591.506895 C4853.24487,591.846895 4853.28487,592.246895 4853.38487,592.706895 C4853.42487,593.006895 4853.62487,593.146895 4853.94487,593.146895 C4854.32487,593.146895 4854.52487,592.946895 4854.52487,592.526895 C4854.48487,592.326895 4854.46487,592.046895 4854.44487,591.646895 C4855.40487,592.086895 4855.98487,592.426895 4856.16487,592.686895 C4856.20487,593.066895 4856.38487,593.246895 4856.74487,593.246895 C4857.12487,593.246895 4857.32487,593.046895 4857.32487,592.606895 C4857.32487,591.966895 4856.64487,591.346895 4855.30487,590.706895 C4856.86487,589.986895 4857.64487,589.126895 4857.64487,588.166895 L4857.64487,588.166895 Z M4856.48487,588.206895 C4856.48487,588.806895 4855.80487,589.346895 4854.48487,589.846895 C4854.54487,589.226895 4854.58487,588.646895 4854.62487,588.126895 C4855.02487,587.866895 4855.48487,587.726895 4856.00487,587.726895 C4856.32487,587.726895 4856.48487,587.886895 4856.48487,588.206895 L4856.48487,588.206895 Z M4881.58487,585.306895 C4881.58487,585.106895 4881.50487,584.906895 4881.34487,584.726895 C4881.18487,584.566895 4880.98487,584.466895 4880.78487,584.466895 C4880.40487,584.466895 4880.16487,584.686895 4880.06487,585.106895 C4879.92487,585.706895 4879.82487,586.166895 4879.78487,586.486895 C4879.58487,587.446895 4879.38487,588.766895 4879.18487,590.446895 C4877.62487,591.006895 4875.78487,591.326895 4873.66487,591.446895 C4873.82487,590.026895 4874.06487,588.666895 4874.38487,587.386895 C4874.58487,586.466895 4874.74487,585.866895 4874.86487,585.566895 C4875.20487,584.526895 4875.38487,583.926895 4875.38487,583.786895 C4875.38487,583.246895 4875.10487,582.966895 4874.58487,582.966895 C4874.26487,582.966895 4874.02487,583.146895 4873.84487,583.486895 C4873.78487,583.586895 4873.66487,583.886895 4873.50487,584.406895 C4872.82487,586.326895 4872.32487,588.706895 4872.02487,591.546895 C4871.86487,591.546895 4871.56487,591.526895 4871.14487,591.486895 C4870.72487,591.466895 4870.48487,591.446895 4870.42487,591.446895 C4870.22487,591.446895 4870.06487,591.546895 4869.94487,591.706895 C4869.80487,591.886895 4869.74487,592.066895 4869.74487,592.266895 C4869.74487,592.866895 4870.18487,593.146895 4871.10487,593.146895 L4871.52487,593.146895 C4871.68487,593.146895 4871.82487,593.126895 4871.90487,593.126895 C4871.66487,595.806895 4871.56487,597.946895 4871.56487,599.546895 C4871.56487,599.786895 4871.62487,599.986895 4871.78487,600.186895 C4871.92487,600.386895 4872.10487,600.486895 4872.32487,600.486895 C4872.54487,600.486895 4872.74487,600.366895 4872.92487,600.166895 C4873.08487,599.946895 4873.16487,599.686895 4873.18487,599.406895 C4873.30487,596.766895 4873.42487,594.666895 4873.54487,593.086895 C4875.54487,592.926895 4877.34487,592.626895 4878.98487,592.226895 C4878.70487,595.146895 4878.58487,597.366895 4878.58487,598.906895 C4878.58487,599.986895 4878.88487,600.546895 4879.50487,600.546895 C4879.70487,600.546895 4879.90487,600.466895 4880.06487,600.306895 C4880.22487,600.126895 4880.30487,599.926895 4880.30487,599.706895 C4880.30487,599.626895 4880.28487,599.406895 4880.28487,599.026895 C4880.26487,598.646895 4880.26487,598.366895 4880.26487,598.166895 C4880.26487,594.906895 4880.64487,590.946895 4881.42487,586.306895 L4881.58487,585.306895 Z M4756.52487,621.146895 C4756.52487,620.706895 4756.22487,620.466895 4755.64487,620.406895 C4753.76487,620.246895 4752.42487,619.946895 4751.64487,619.546895 C4752.98487,617.906895 4754.02487,616.686895 4754.76487,615.886895 C4754.92487,615.706895 4755.00487,615.526895 4755.00487,615.326895 C4755.00487,615.126895 4754.92487,614.926895 4754.76487,614.746895 C4754.60487,614.586895 4754.42487,614.506895 4754.22487,614.506895 C4754.02487,614.506895 4753.72487,614.766895 4753.28487,615.286895 C4752.80487,615.846895 4752.18487,616.626895 4751.42487,617.626895 C4751.46487,617.006895 4751.58487,616.266895 4751.78487,615.386895 C4751.90487,614.686895 4751.98487,614.286895 4751.98487,614.186895 C4751.98487,613.666895 4751.70487,613.386895 4751.18487,613.386895 C4750.78487,613.386895 4750.52487,613.746895 4750.40487,614.426895 C4750.30487,614.906895 4750.20487,615.626895 4750.10487,616.566895 C4748.84487,616.366895 4747.90487,616.006895 4747.30487,615.466895 C4747.02487,615.246895 4746.76487,615.126895 4746.48487,615.126895 C4746.30487,615.126895 4746.16487,615.206895 4746.04487,615.346895 C4745.92487,615.526895 4745.86487,615.686895 4745.86487,615.846895 C4745.86487,616.286895 4746.26487,616.726895 4747.10487,617.166895 C4747.52487,617.406895 4748.20487,617.646895 4749.14487,617.906895 C4748.16487,619.006895 4747.18487,619.906895 4746.18487,620.626895 C4745.86487,620.866895 4745.70487,621.126895 4745.70487,621.426895 C4745.70487,621.626895 4745.76487,621.806895 4745.92487,621.966895 C4746.06487,622.126895 4746.24487,622.206895 4746.46487,622.206895 C4746.70487,622.206895 4747.00487,622.046895 4747.36487,621.726895 C4748.58487,620.626895 4749.44487,619.786895 4749.96487,619.206895 C4750.00487,620.766895 4750.10487,621.966895 4750.28487,622.846895 C4750.40487,623.366895 4750.70487,623.626895 4751.20487,623.626895 C4751.38487,623.626895 4751.54487,623.526895 4751.70487,623.346895 C4751.84487,623.166895 4751.92487,622.986895 4751.92487,622.806895 C4751.76487,622.166895 4751.62487,621.626895 4751.54487,621.206895 C4752.48487,621.486895 4753.30487,621.666895 4754.02487,621.786895 C4754.80487,621.946895 4755.38487,622.006895 4755.78487,622.006895 C4756.26487,622.006895 4756.52487,621.726895 4756.52487,621.146895 L4756.52487,621.146895 Z M4765.58487,622.446895 C4765.58487,622.306895 4765.48487,622.126895 4765.30487,621.926895 C4764.86487,621.446895 4764.66487,620.226895 4764.66487,618.266895 C4764.66487,617.566895 4764.76487,616.386895 4764.98487,614.726895 C4764.98487,614.506895 4764.88487,614.306895 4764.72487,614.106895 C4764.54487,613.926895 4764.34487,613.826895 4764.12487,613.826895 C4763.78487,613.826895 4763.06487,614.566895 4761.98487,616.046895 C4761.10487,617.206895 4760.38487,618.266895 4759.78487,619.186895 C4759.92487,617.626895 4760.02487,616.486895 4760.08487,615.806895 C4760.08487,615.486895 4759.96487,615.206895 4759.76487,614.966895 C4759.56487,614.746895 4759.30487,614.626895 4758.98487,614.626895 C4758.80487,614.626895 4758.64487,614.746895 4758.48487,614.966895 C4758.52487,615.546895 4758.56487,615.886895 4758.56487,615.966895 C4758.56487,616.326895 4758.50487,617.226895 4758.40487,618.686895 L4758.36487,619.266895 C4758.34487,619.566895 4758.30487,619.966895 4758.26487,620.466895 C4758.20487,620.946895 4758.16487,621.246895 4758.16487,621.366895 C4758.18487,621.646895 4758.26487,621.866895 4758.42487,621.986895 C4758.74487,622.306895 4758.94487,622.446895 4759.02487,622.446895 C4759.30487,622.446895 4759.64487,622.146895 4760.00487,621.506895 C4760.74487,620.266895 4761.26487,619.386895 4761.58487,618.906895 C4762.10487,618.046895 4762.66487,617.246895 4763.28487,616.526895 C4763.28487,616.726895 4763.26487,617.146895 4763.26487,617.766895 C4763.24487,618.406895 4763.24487,618.746895 4763.24487,618.826895 C4763.24487,619.866895 4763.34487,620.746895 4763.56487,621.506895 C4763.86487,622.606895 4764.30487,623.166895 4764.86487,623.166895 C4764.98487,623.166895 4765.14487,623.066895 4765.32487,622.906895 C4765.48487,622.706895 4765.58487,622.566895 4765.58487,622.446895 L4765.58487,622.446895 Z M4773.90487,620.006895 C4773.90487,618.806895 4773.30487,618.006895 4772.12487,617.646895 C4772.98487,617.166895 4773.42487,616.566895 4773.42487,615.826895 C4773.42487,614.586895 4772.44487,613.966895 4770.52487,613.966895 C4768.86487,613.966895 4768.04487,614.326895 4768.04487,615.046895 C4768.04487,615.566895 4768.28487,615.826895 4768.76487,615.846895 C4768.88487,615.826895 4769.18487,615.726895 4769.66487,615.526895 C4769.98487,615.406895 4770.28487,615.326895 4770.52487,615.326895 C4771.44487,615.326895 4771.90487,615.546895 4771.90487,615.986895 C4771.90487,616.266895 4771.66487,616.566895 4771.18487,616.846895 C4770.74487,617.086895 4770.24487,617.266895 4769.66487,617.386895 C4768.94487,617.546895 4768.56487,617.626895 4768.50487,617.646895 C4768.26487,617.746895 4768.16487,617.946895 4768.16487,618.226895 C4768.16487,618.426895 4768.22487,618.646895 4768.38487,618.846895 C4768.52487,619.066895 4768.70487,619.166895 4768.90487,619.166895 C4769.00487,619.166895 4769.14487,619.126895 4769.32487,619.006895 C4769.68487,618.806895 4770.10487,618.686895 4770.56487,618.686895 C4771.02487,618.686895 4771.42487,618.766895 4771.78487,618.926895 C4772.22487,619.126895 4772.44487,619.426895 4772.44487,619.826895 C4772.44487,620.306895 4772.06487,620.786895 4771.34487,621.246895 C4770.66487,621.706895 4770.08487,621.926895 4769.60487,621.926895 C4769.04487,621.926895 4768.78487,621.846895 4768.78487,621.686895 C4768.78487,621.606895 4768.80487,621.486895 4768.86487,621.366895 C4768.90487,621.226895 4768.92487,621.126895 4768.92487,621.086895 C4768.92487,620.726895 4768.68487,620.546895 4768.22487,620.546895 C4768.06487,620.546895 4767.88487,620.686895 4767.70487,620.926895 C4767.50487,621.206895 4767.42487,621.446895 4767.42487,621.646895 C4767.42487,621.926895 4767.52487,622.226895 4767.76487,622.546895 C4768.12487,623.066895 4768.78487,623.326895 4769.72487,623.326895 C4770.64487,623.326895 4771.56487,622.986895 4772.46487,622.346895 C4773.42487,621.666895 4773.90487,620.886895 4773.90487,620.006895 L4773.90487,620.006895 Z M4782.40487,614.926895 C4782.40487,614.406895 4782.16487,614.146895 4781.68487,614.146895 C4781.28487,614.146895 4781.02487,614.506895 4780.92487,615.186895 C4780.82487,615.726895 4780.70487,616.486895 4780.58487,617.466895 C4779.70487,617.686895 4778.84487,617.846895 4778.00487,617.926895 C4778.20487,616.646895 4778.40487,615.686895 4778.60487,615.026895 C4778.72487,614.666895 4778.82487,614.386895 4778.92487,614.146895 C4778.88487,613.606895 4778.64487,613.326895 4778.16487,613.326895 C4777.82487,613.326895 4777.60487,613.486895 4777.48487,613.806895 C4777.08487,614.766895 4776.76487,616.146895 4776.56487,617.946895 C4776.24487,617.946895 4776.02487,617.926895 4775.90487,617.906895 C4775.50487,617.906895 4775.32487,618.146895 4775.32487,618.586895 C4775.32487,619.086895 4775.60487,619.326895 4776.18487,619.326895 L4776.42487,619.326895 C4776.36487,620.086895 4776.30487,620.946895 4776.26487,621.946895 C4776.26487,622.006895 4776.24487,622.106895 4776.22487,622.226895 C4776.18487,622.346895 4776.18487,622.426895 4776.18487,622.506895 C4776.18487,622.706895 4776.26487,622.886895 4776.42487,623.046895 C4776.58487,623.206895 4776.76487,623.286895 4776.96487,623.286895 C4777.44487,623.286895 4777.70487,623.026895 4777.72487,622.526895 C4777.72487,621.846895 4777.78487,620.766895 4777.88487,619.286895 C4778.74487,619.206895 4779.58487,619.066895 4780.42487,618.866895 C4780.32487,619.926895 4780.26487,620.766895 4780.26487,621.366895 C4780.26487,621.426895 4780.24487,621.506895 4780.22487,621.626895 C4780.18487,621.726895 4780.16487,621.806895 4780.16487,621.866895 C4780.16487,622.346895 4780.22487,622.706895 4780.38487,622.946895 C4780.54487,623.206895 4780.72487,623.346895 4780.96487,623.346895 C4781.16487,623.346895 4781.34487,623.266895 4781.50487,623.106895 C4781.64487,622.946895 4781.72487,622.746895 4781.72487,622.526895 C4781.72487,622.486895 4781.70487,622.386895 4781.70487,622.186895 C4781.68487,621.986895 4781.68487,621.826895 4781.68487,621.746895 C4781.68487,620.406895 4781.88487,618.346895 4782.32487,615.566895 C4782.36487,615.206895 4782.40487,615.006895 4782.40487,614.926895 L4782.40487,614.926895 Z M4790.50487,619.906895 C4790.50487,619.086895 4790.22487,618.426895 4789.68487,617.926895 C4789.18487,617.466895 4788.54487,617.226895 4787.74487,617.226895 C4787.30487,617.226895 4786.86487,617.346895 4786.42487,617.586895 C4786.50487,616.846895 4786.56487,616.186895 4786.62487,615.626895 C4786.72487,614.986895 4786.78487,614.486895 4786.82487,614.126895 C4786.74487,613.546895 4786.50487,613.246895 4786.06487,613.246895 C4785.54487,613.246895 4785.26487,613.646895 4785.20487,614.426895 C4784.88487,617.586895 4784.64487,620.266895 4784.44487,622.466895 C4784.46487,623.166895 4784.72487,623.526895 4785.24487,623.526895 C4785.56487,623.526895 4785.78487,623.386895 4785.90487,623.126895 C4786.12487,623.186895 4786.32487,623.226895 4786.52487,623.226895 C4787.40487,623.226895 4788.26487,622.906895 4789.10487,622.286895 C4790.02487,621.606895 4790.50487,620.826895 4790.50487,619.906895 L4790.50487,619.906895 Z M4788.98487,619.666895 C4788.98487,620.266895 4788.66487,620.806895 4788.06487,621.266895 C4787.50487,621.706895 4786.96487,621.926895 4786.44487,621.926895 C4786.36487,621.926895 4786.22487,621.906895 4786.06487,621.866895 L4786.24487,619.566895 C4786.60487,618.966895 4787.08487,618.646895 4787.70487,618.646895 C4788.02487,618.646895 4788.30487,618.746895 4788.58487,618.946895 C4788.84487,619.146895 4788.98487,619.386895 4788.98487,619.666895 L4788.98487,619.666895 Z M4805.84487,614.926895 C4805.84487,614.406895 4805.60487,614.146895 4805.12487,614.146895 C4804.72487,614.146895 4804.46487,614.506895 4804.36487,615.186895 C4804.26487,615.726895 4804.14487,616.486895 4804.02487,617.466895 C4803.14487,617.686895 4802.28487,617.846895 4801.44487,617.926895 C4801.64487,616.646895 4801.84487,615.686895 4802.04487,615.026895 C4802.16487,614.666895 4802.26487,614.386895 4802.36487,614.146895 C4802.32487,613.606895 4802.08487,613.326895 4801.60487,613.326895 C4801.26487,613.326895 4801.04487,613.486895 4800.92487,613.806895 C4800.52487,614.766895 4800.20487,616.146895 4800.00487,617.946895 C4799.68487,617.946895 4799.46487,617.926895 4799.34487,617.906895 C4798.94487,617.906895 4798.76487,618.146895 4798.76487,618.586895 C4798.76487,619.086895 4799.04487,619.326895 4799.62487,619.326895 L4799.86487,619.326895 C4799.80487,620.086895 4799.74487,620.946895 4799.70487,621.946895 C4799.70487,622.006895 4799.68487,622.106895 4799.66487,622.226895 C4799.62487,622.346895 4799.62487,622.426895 4799.62487,622.506895 C4799.62487,622.706895 4799.70487,622.886895 4799.86487,623.046895 C4800.02487,623.206895 4800.20487,623.286895 4800.40487,623.286895 C4800.88487,623.286895 4801.14487,623.026895 4801.16487,622.526895 C4801.16487,621.846895 4801.22487,620.766895 4801.32487,619.286895 C4802.18487,619.206895 4803.02487,619.066895 4803.86487,618.866895 C4803.76487,619.926895 4803.70487,620.766895 4803.70487,621.366895 C4803.70487,621.426895 4803.68487,621.506895 4803.66487,621.626895 C4803.62487,621.726895 4803.60487,621.806895 4803.60487,621.866895 C4803.60487,622.346895 4803.66487,622.706895 4803.82487,622.946895 C4803.98487,623.206895 4804.16487,623.346895 4804.40487,623.346895 C4804.60487,623.346895 4804.78487,623.266895 4804.94487,623.106895 C4805.08487,622.946895 4805.16487,622.746895 4805.16487,622.526895 C4805.16487,622.486895 4805.14487,622.386895 4805.14487,622.186895 C4805.12487,621.986895 4805.12487,621.826895 4805.12487,621.746895 C4805.12487,620.406895 4805.32487,618.346895 4805.76487,615.566895 C4805.80487,615.206895 4805.84487,615.006895 4805.84487,614.926895 L4805.84487,614.926895 Z M4815.14487,617.686895 C4815.14487,617.506895 4815.04487,617.306895 4814.88487,617.106895 C4814.88487,616.646895 4814.80487,616.246895 4814.68487,615.886895 C4814.70487,615.806895 4814.72487,615.706895 4814.72487,615.606895 C4814.72487,615.366895 4814.58487,615.126895 4814.34487,614.926895 C4814.08487,614.726895 4813.82487,614.606895 4813.56487,614.606895 C4812.46487,614.606895 4811.26487,615.246895 4809.94487,616.486895 C4808.56487,617.766895 4807.88487,619.006895 4807.88487,620.166895 C4807.88487,620.786895 4808.08487,621.326895 4808.52487,621.806895 C4808.94487,622.306895 4809.44487,622.546895 4810.02487,622.546895 C4810.92487,622.546895 4811.92487,621.986895 4813.04487,620.866895 C4813.14487,622.386895 4813.48487,623.166895 4814.06487,623.166895 C4814.26487,623.166895 4814.46487,623.086895 4814.64487,622.966895 C4814.80487,622.806895 4814.90487,622.606895 4814.90487,622.406895 C4814.90487,622.346895 4814.84487,622.106895 4814.76487,621.626895 C4814.66487,621.166895 4814.62487,620.806895 4814.62487,620.566895 C4814.62487,619.766895 4814.74487,618.966895 4815.02487,618.126895 C4815.10487,617.906895 4815.14487,617.766895 4815.14487,617.686895 L4815.14487,617.686895 Z M4813.32487,617.106895 C4813.32487,617.786895 4812.92487,618.586895 4812.16487,619.506895 C4811.40487,620.426895 4810.70487,620.866895 4810.10487,620.866895 C4809.68487,620.866895 4809.48487,620.626895 4809.48487,620.126895 C4809.48487,619.486895 4809.98487,618.686895 4811.00487,617.706895 C4811.92487,616.826895 4812.58487,616.366895 4812.96487,616.366895 C4813.20487,616.366895 4813.32487,616.626895 4813.32487,617.106895 L4813.32487,617.106895 Z M4825.26487,615.246895 C4825.26487,614.946895 4825.16487,614.686895 4824.96487,614.446895 C4824.78487,614.226895 4824.56487,614.106895 4824.28487,614.106895 C4824.16487,614.106895 4823.92487,614.226895 4823.56487,614.426895 C4823.20487,614.646895 4822.32487,614.826895 4820.90487,614.986895 C4820.58487,614.726895 4820.32487,614.586895 4820.14487,614.586895 C4819.92487,614.586895 4819.68487,614.706895 4819.44487,614.946895 C4819.20487,615.186895 4819.08487,615.446895 4819.08487,615.686895 C4819.08487,615.846895 4819.16487,616.046895 4819.32487,616.266895 C4819.46487,616.506895 4819.54487,616.766895 4819.54487,617.066895 C4819.54487,618.306895 4819.44487,619.326895 4819.24487,620.166895 C4818.98487,621.146895 4818.64487,621.626895 4818.24487,621.626895 C4818.08487,621.626895 4817.96487,621.386895 4817.92487,620.866895 C4817.88487,620.666895 4817.80487,620.546895 4817.64487,620.546895 C4817.36487,620.546895 4817.16487,620.686895 4817.02487,620.926895 C4816.84487,621.206895 4816.76487,621.526895 4816.76487,621.866895 C4816.76487,622.246895 4816.90487,622.526895 4817.20487,622.746895 C4817.48487,622.946895 4817.80487,623.066895 4818.16487,623.066895 C4819.20487,623.066895 4819.94487,622.386895 4820.38487,621.066895 C4820.66487,620.226895 4820.90487,618.706895 4821.10487,616.506895 C4821.60487,616.386895 4822.36487,616.226895 4823.40487,616.046895 C4823.20487,618.006895 4823.10487,619.486895 4823.10487,620.486895 C4823.10487,621.806895 4823.18487,622.626895 4823.36487,622.966895 C4823.54487,623.306895 4823.80487,623.486895 4824.12487,623.486895 C4824.64487,623.486895 4824.90487,623.166895 4824.90487,622.566895 C4824.82487,622.206895 4824.78487,621.886895 4824.74487,621.606895 C4824.64487,620.926895 4824.60487,620.346895 4824.60487,619.846895 C4824.60487,618.766895 4824.76487,617.506895 4825.10487,616.066895 C4825.20487,615.586895 4825.26487,615.326895 4825.26487,615.246895 L4825.26487,615.246895 Z M4834.56487,617.686895 C4834.56487,617.506895 4834.46487,617.306895 4834.30487,617.106895 C4834.30487,616.646895 4834.22487,616.246895 4834.10487,615.886895 C4834.12487,615.806895 4834.14487,615.706895 4834.14487,615.606895 C4834.14487,615.366895 4834.00487,615.126895 4833.76487,614.926895 C4833.50487,614.726895 4833.24487,614.606895 4832.98487,614.606895 C4831.88487,614.606895 4830.68487,615.246895 4829.36487,616.486895 C4827.98487,617.766895 4827.30487,619.006895 4827.30487,620.166895 C4827.30487,620.786895 4827.50487,621.326895 4827.94487,621.806895 C4828.36487,622.306895 4828.86487,622.546895 4829.44487,622.546895 C4830.34487,622.546895 4831.34487,621.986895 4832.46487,620.866895 C4832.56487,622.386895 4832.90487,623.166895 4833.48487,623.166895 C4833.68487,623.166895 4833.88487,623.086895 4834.06487,622.966895 C4834.22487,622.806895 4834.32487,622.606895 4834.32487,622.406895 C4834.32487,622.346895 4834.26487,622.106895 4834.18487,621.626895 C4834.08487,621.166895 4834.04487,620.806895 4834.04487,620.566895 C4834.04487,619.766895 4834.16487,618.966895 4834.44487,618.126895 C4834.52487,617.906895 4834.56487,617.766895 4834.56487,617.686895 L4834.56487,617.686895 Z M4832.74487,617.106895 C4832.74487,617.786895 4832.34487,618.586895 4831.58487,619.506895 C4830.82487,620.426895 4830.12487,620.866895 4829.52487,620.866895 C4829.10487,620.866895 4828.90487,620.626895 4828.90487,620.126895 C4828.90487,619.486895 4829.40487,618.686895 4830.42487,617.706895 C4831.34487,616.826895 4832.00487,616.366895 4832.38487,616.366895 C4832.62487,616.366895 4832.74487,616.626895 4832.74487,617.106895 L4832.74487,617.106895 Z M4845.22487,622.366895 C4845.22487,622.306895 4845.18487,622.206895 4845.10487,622.086895 C4844.86487,621.646895 4844.58487,621.426895 4844.30487,621.426895 C4844.26487,621.426895 4844.20487,621.446895 4844.10487,621.446895 C4844.20487,618.966895 4844.28487,617.166895 4844.36487,616.026895 C4844.40487,615.446895 4844.52487,614.866895 4844.74487,614.266895 C4844.74487,614.066895 4844.62487,613.846895 4844.42487,613.646895 C4844.22487,613.446895 4844.02487,613.346895 4843.82487,613.346895 C4843.30487,613.346895 4842.68487,613.466895 4841.94487,613.666895 C4841.06487,613.926895 4840.48487,614.126895 4840.20487,614.246895 C4839.76487,614.486895 4839.56487,614.786895 4839.56487,615.126895 C4839.56487,615.226895 4839.60487,615.366895 4839.70487,615.566895 C4839.76487,615.766895 4839.80487,615.906895 4839.80487,615.986895 C4839.80487,616.866895 4839.58487,617.866895 4839.14487,619.026895 C4838.66487,620.246895 4838.12487,621.206895 4837.48487,621.906895 C4836.86487,621.946895 4836.54487,622.226895 4836.50487,622.746895 C4836.42487,623.526895 4836.40487,624.206895 4836.40487,624.766895 C4836.40487,624.946895 4836.48487,625.126895 4836.64487,625.286895 C4836.80487,625.446895 4837.02487,625.546895 4837.26487,625.546895 C4837.72487,625.546895 4837.96487,625.306895 4837.96487,624.846895 C4837.96487,624.766895 4837.94487,624.666895 4837.92487,624.526895 C4837.88487,624.386895 4837.88487,624.286895 4837.88487,624.246895 C4837.88487,624.166895 4837.88487,624.086895 4837.90487,623.966895 L4837.90487,623.666895 C4837.90487,623.506895 4838.04487,623.406895 4838.36487,623.386895 C4839.54487,623.246895 4840.62487,623.146895 4841.58487,623.086895 C4842.28487,623.026895 4842.78487,623.006895 4843.06487,623.006895 C4843.30487,623.006895 4843.44487,623.106895 4843.44487,623.306895 C4843.44487,623.366895 4843.44487,623.586895 4843.46487,623.986895 L4843.46487,624.686895 C4843.46487,625.246895 4843.66487,625.546895 4844.10487,625.546895 C4844.26487,625.546895 4844.46487,625.486895 4844.68487,625.386895 C4844.86487,625.266895 4844.96487,625.106895 4844.96487,624.946895 C4844.96487,624.806895 4844.94487,624.626895 4844.92487,624.386895 C4844.88487,624.146895 4844.86487,623.946895 4844.86487,623.826895 C4844.86487,623.506895 4844.88487,623.226895 4844.96487,623.006895 C4844.96487,622.966895 4845.00487,622.866895 4845.08487,622.706895 C4845.16487,622.526895 4845.22487,622.406895 4845.22487,622.366895 L4845.22487,622.366895 Z M4842.88487,615.046895 C4842.88487,617.766895 4842.76487,619.966895 4842.52487,621.626895 C4840.96487,621.726895 4839.90487,621.806895 4839.32487,621.886895 C4840.30487,620.326895 4840.98487,618.166895 4841.36487,615.446895 C4841.68487,615.286895 4842.20487,615.146895 4842.88487,615.046895 L4842.88487,615.046895 Z M4854.48487,622.446895 C4854.48487,622.306895 4854.38487,622.126895 4854.20487,621.926895 C4853.76487,621.446895 4853.56487,620.226895 4853.56487,618.266895 C4853.56487,617.566895 4853.66487,616.386895 4853.88487,614.726895 C4853.88487,614.506895 4853.78487,614.306895 4853.62487,614.106895 C4853.44487,613.926895 4853.24487,613.826895 4853.02487,613.826895 C4852.68487,613.826895 4851.96487,614.566895 4850.88487,616.046895 C4850.00487,617.206895 4849.28487,618.266895 4848.68487,619.186895 C4848.82487,617.626895 4848.92487,616.486895 4848.98487,615.806895 C4848.98487,615.486895 4848.86487,615.206895 4848.66487,614.966895 C4848.46487,614.746895 4848.20487,614.626895 4847.88487,614.626895 C4847.70487,614.626895 4847.54487,614.746895 4847.38487,614.966895 C4847.42487,615.546895 4847.46487,615.886895 4847.46487,615.966895 C4847.46487,616.326895 4847.40487,617.226895 4847.30487,618.686895 L4847.26487,619.266895 C4847.24487,619.566895 4847.20487,619.966895 4847.16487,620.466895 C4847.10487,620.946895 4847.06487,621.246895 4847.06487,621.366895 C4847.08487,621.646895 4847.16487,621.866895 4847.32487,621.986895 C4847.64487,622.306895 4847.84487,622.446895 4847.92487,622.446895 C4848.20487,622.446895 4848.54487,622.146895 4848.90487,621.506895 C4849.64487,620.266895 4850.16487,619.386895 4850.48487,618.906895 C4851.00487,618.046895 4851.56487,617.246895 4852.18487,616.526895 C4852.18487,616.726895 4852.16487,617.146895 4852.16487,617.766895 C4852.14487,618.406895 4852.14487,618.746895 4852.14487,618.826895 C4852.14487,619.866895 4852.24487,620.746895 4852.46487,621.506895 C4852.76487,622.606895 4853.20487,623.166895 4853.76487,623.166895 C4853.88487,623.166895 4854.04487,623.066895 4854.22487,622.906895 C4854.38487,622.706895 4854.48487,622.566895 4854.48487,622.446895 L4854.48487,622.446895 Z M4864.60487,615.246895 C4864.60487,614.946895 4864.50487,614.686895 4864.30487,614.446895 C4864.12487,614.226895 4863.90487,614.106895 4863.62487,614.106895 C4863.50487,614.106895 4863.26487,614.226895 4862.90487,614.426895 C4862.54487,614.646895 4861.66487,614.826895 4860.24487,614.986895 C4859.92487,614.726895 4859.66487,614.586895 4859.48487,614.586895 C4859.26487,614.586895 4859.02487,614.706895 4858.78487,614.946895 C4858.54487,615.186895 4858.42487,615.446895 4858.42487,615.686895 C4858.42487,615.846895 4858.50487,616.046895 4858.66487,616.266895 C4858.80487,616.506895 4858.88487,616.766895 4858.88487,617.066895 C4858.88487,618.306895 4858.78487,619.326895 4858.58487,620.166895 C4858.32487,621.146895 4857.98487,621.626895 4857.58487,621.626895 C4857.42487,621.626895 4857.30487,621.386895 4857.26487,620.866895 C4857.22487,620.666895 4857.14487,620.546895 4856.98487,620.546895 C4856.70487,620.546895 4856.50487,620.686895 4856.36487,620.926895 C4856.18487,621.206895 4856.10487,621.526895 4856.10487,621.866895 C4856.10487,622.246895 4856.24487,622.526895 4856.54487,622.746895 C4856.82487,622.946895 4857.14487,623.066895 4857.50487,623.066895 C4858.54487,623.066895 4859.28487,622.386895 4859.72487,621.066895 C4860.00487,620.226895 4860.24487,618.706895 4860.44487,616.506895 C4860.94487,616.386895 4861.70487,616.226895 4862.74487,616.046895 C4862.54487,618.006895 4862.44487,619.486895 4862.44487,620.486895 C4862.44487,621.806895 4862.52487,622.626895 4862.70487,622.966895 C4862.88487,623.306895 4863.14487,623.486895 4863.46487,623.486895 C4863.98487,623.486895 4864.24487,623.166895 4864.24487,622.566895 C4864.16487,622.206895 4864.12487,621.886895 4864.08487,621.606895 C4863.98487,620.926895 4863.94487,620.346895 4863.94487,619.846895 C4863.94487,618.766895 4864.10487,617.506895 4864.44487,616.066895 C4864.54487,615.586895 4864.60487,615.326895 4864.60487,615.246895 L4864.60487,615.246895 Z M4873.90487,617.686895 C4873.90487,617.506895 4873.80487,617.306895 4873.64487,617.106895 C4873.64487,616.646895 4873.56487,616.246895 4873.44487,615.886895 C4873.46487,615.806895 4873.48487,615.706895 4873.48487,615.606895 C4873.48487,615.366895 4873.34487,615.126895 4873.10487,614.926895 C4872.84487,614.726895 4872.58487,614.606895 4872.32487,614.606895 C4871.22487,614.606895 4870.02487,615.246895 4868.70487,616.486895 C4867.32487,617.766895 4866.64487,619.006895 4866.64487,620.166895 C4866.64487,620.786895 4866.84487,621.326895 4867.28487,621.806895 C4867.70487,622.306895 4868.20487,622.546895 4868.78487,622.546895 C4869.68487,622.546895 4870.68487,621.986895 4871.80487,620.866895 C4871.90487,622.386895 4872.24487,623.166895 4872.82487,623.166895 C4873.02487,623.166895 4873.22487,623.086895 4873.40487,622.966895 C4873.56487,622.806895 4873.66487,622.606895 4873.66487,622.406895 C4873.66487,622.346895 4873.60487,622.106895 4873.52487,621.626895 C4873.42487,621.166895 4873.38487,620.806895 4873.38487,620.566895 C4873.38487,619.766895 4873.50487,618.966895 4873.78487,618.126895 C4873.86487,617.906895 4873.90487,617.766895 4873.90487,617.686895 L4873.90487,617.686895 Z M4872.08487,617.106895 C4872.08487,617.786895 4871.68487,618.586895 4870.92487,619.506895 C4870.16487,620.426895 4869.46487,620.866895 4868.86487,620.866895 C4868.44487,620.866895 4868.24487,620.626895 4868.24487,620.126895 C4868.24487,619.486895 4868.74487,618.686895 4869.76487,617.706895 C4870.68487,616.826895 4871.34487,616.366895 4871.72487,616.366895 C4871.96487,616.366895 4872.08487,616.626895 4872.08487,617.106895 L4872.08487,617.106895 Z M4882.12487,620.486895 C4882.12487,620.286895 4882.04487,620.086895 4881.88487,619.886895 C4881.72487,619.726895 4881.54487,619.626895 4881.34487,619.626895 C4881.18487,619.626895 4880.94487,619.766895 4880.66487,620.026895 C4880.42487,620.226895 4880.18487,620.426895 4879.98487,620.626895 C4879.64487,620.886895 4879.22487,621.006895 4878.72487,621.006895 C4877.92487,621.006895 4877.54487,620.526895 4877.54487,619.526895 C4877.54487,618.906895 4877.72487,618.286895 4878.08487,617.686895 C4878.44487,617.086895 4878.88487,616.586895 4879.42487,616.226895 C4879.66487,616.366895 4880.02487,616.426895 4880.52487,616.426895 C4880.78487,616.426895 4881.04487,616.326895 4881.30487,616.086895 C4881.52487,615.846895 4881.64487,615.626895 4881.64487,615.386895 C4881.64487,615.066895 4881.52487,614.826895 4881.28487,614.626895 C4881.02487,614.446895 4880.74487,614.346895 4880.44487,614.346895 C4879.18487,614.346895 4878.06487,615.006895 4877.10487,616.306895 C4876.32487,617.346895 4875.94487,618.486895 4875.94487,619.726895 C4875.94487,620.606895 4876.22487,621.306895 4876.78487,621.866895 C4877.34487,622.406895 4878.04487,622.686895 4878.88487,622.686895 C4879.64487,622.686895 4880.42487,622.386895 4881.18487,621.786895 C4881.80487,621.306895 4882.12487,620.886895 4882.12487,620.486895 L4882.12487,620.486895 Z M4890.02487,619.906895 C4890.02487,619.086895 4889.74487,618.426895 4889.20487,617.926895 C4888.70487,617.466895 4888.06487,617.226895 4887.26487,617.226895 C4886.82487,617.226895 4886.38487,617.346895 4885.94487,617.586895 C4886.02487,616.846895 4886.08487,616.186895 4886.14487,615.626895 C4886.24487,614.986895 4886.30487,614.486895 4886.34487,614.126895 C4886.26487,613.546895 4886.02487,613.246895 4885.58487,613.246895 C4885.06487,613.246895 4884.78487,613.646895 4884.72487,614.426895 C4884.40487,617.586895 4884.16487,620.266895 4883.96487,622.466895 C4883.98487,623.166895 4884.24487,623.526895 4884.76487,623.526895 C4885.08487,623.526895 4885.30487,623.386895 4885.42487,623.126895 C4885.64487,623.186895 4885.84487,623.226895 4886.04487,623.226895 C4886.92487,623.226895 4887.78487,622.906895 4888.62487,622.286895 C4889.54487,621.606895 4890.02487,620.826895 4890.02487,619.906895 L4890.02487,619.906895 Z M4888.50487,619.666895 C4888.50487,620.266895 4888.18487,620.806895 4887.58487,621.266895 C4887.02487,621.706895 4886.48487,621.926895 4885.96487,621.926895 C4885.88487,621.926895 4885.74487,621.906895 4885.58487,621.866895 L4885.76487,619.566895 C4886.12487,618.966895 4886.60487,618.646895 4887.22487,618.646895 C4887.54487,618.646895 4887.82487,618.746895 4888.10487,618.946895 C4888.36487,619.146895 4888.50487,619.386895 4888.50487,619.666895 L4888.50487,619.666895 Z" id="с-Канефрон®-Н-жизнь" transform="translate(4818.274874, 604.076895) rotate(-10.000000) translate(-4818.274874, -604.076895) "></path>
        </g>
    </g>
</svg>