<?xml version="1.0" encoding="UTF-8"?>
<svg width="165px" height="59px" viewBox="0 0 165 59" version="1.1" xmlns="http://www.w3.org/2000/svg" xmlns:xlink="http://www.w3.org/1999/xlink">
    <!-- Generator: Sketch 40.3 (33839) - http://www.bohemiancoding.com/sketch -->
    <title>Главное – корешки, а</title>
    <desc>Created with Sketch.</desc>
    <defs></defs>
    <g id="Page-1" stroke="none" stroke-width="1" fill="none" fill-rule="evenodd">
        <g id="Sostav-IN-CURVES" transform="translate(-3895.000000, -35.000000)" fill="#354777">
            <path d="M3907.41509,44.3015822 C3907.41509,43.9815822 3907.29509,43.7215822 3907.07509,43.5015822 C3906.83509,43.3015822 3906.55509,43.1815822 3906.25509,43.1815822 C3906.01509,43.1815822 3905.59509,43.2615822 3904.97509,43.3815822 C3904.15509,43.5615822 3903.69509,43.6615822 3903.59509,43.6615822 C3901.89509,43.9215822 3900.17509,44.0415822 3898.41509,44.0415822 C3898.23509,44.0415822 3898.07509,44.1415822 3897.91509,44.3015822 C3897.75509,44.4815822 3897.69509,44.6615822 3897.69509,44.8415822 C3897.69509,45.4815822 3898.15509,45.8015822 3899.11509,45.8015822 C3899.07509,46.8415822 3899.03509,47.6215822 3899.01509,48.1015822 C3898.75509,52.1415822 3898.55509,55.1815822 3898.43509,57.1815822 C3898.45509,57.9415822 3898.75509,58.3215822 3899.35509,58.3215822 C3899.61509,58.3215822 3899.83509,58.2015822 3900.03509,57.9815822 C3900.23509,57.7415822 3900.33509,57.4815822 3900.33509,57.2015822 C3900.33509,56.8415822 3900.31509,56.3615822 3900.31509,55.7415822 C3900.29509,55.1415822 3900.29509,54.6815822 3900.29509,54.3815822 C3900.29509,52.6815822 3900.47509,49.7615822 3900.85509,45.6415822 C3903.45509,45.3615822 3905.41509,45.1415822 3906.73509,44.9815822 C3907.17509,44.9415822 3907.41509,44.7015822 3907.41509,44.3015822 L3907.41509,44.3015822 Z M3917.13509,49.9215822 C3917.13509,49.6215822 3917.03509,49.3615822 3916.83509,49.1215822 C3916.65509,48.9015822 3916.43509,48.7815822 3916.15509,48.7815822 C3916.03509,48.7815822 3915.79509,48.9015822 3915.43509,49.1015822 C3915.07509,49.3215822 3914.19509,49.5015822 3912.77509,49.6615822 C3912.45509,49.4015822 3912.19509,49.2615822 3912.01509,49.2615822 C3911.79509,49.2615822 3911.55509,49.3815822 3911.31509,49.6215822 C3911.07509,49.8615822 3910.95509,50.1215822 3910.95509,50.3615822 C3910.95509,50.5215822 3911.03509,50.7215822 3911.19509,50.9415822 C3911.33509,51.1815822 3911.41509,51.4415822 3911.41509,51.7415822 C3911.41509,52.9815822 3911.31509,54.0015822 3911.11509,54.8415822 C3910.85509,55.8215822 3910.51509,56.3015822 3910.11509,56.3015822 C3909.95509,56.3015822 3909.83509,56.0615822 3909.79509,55.5415822 C3909.75509,55.3415822 3909.67509,55.2215822 3909.51509,55.2215822 C3909.23509,55.2215822 3909.03509,55.3615822 3908.89509,55.6015822 C3908.71509,55.8815822 3908.63509,56.2015822 3908.63509,56.5415822 C3908.63509,56.9215822 3908.77509,57.2015822 3909.07509,57.4215822 C3909.35509,57.6215822 3909.67509,57.7415822 3910.03509,57.7415822 C3911.07509,57.7415822 3911.81509,57.0615822 3912.25509,55.7415822 C3912.53509,54.9015822 3912.77509,53.3815822 3912.97509,51.1815822 C3913.47509,51.0615822 3914.23509,50.9015822 3915.27509,50.7215822 C3915.07509,52.6815822 3914.97509,54.1615822 3914.97509,55.1615822 C3914.97509,56.4815822 3915.05509,57.3015822 3915.23509,57.6415822 C3915.41509,57.9815822 3915.67509,58.1615822 3915.99509,58.1615822 C3916.51509,58.1615822 3916.77509,57.8415822 3916.77509,57.2415822 C3916.69509,56.8815822 3916.65509,56.5615822 3916.61509,56.2815822 C3916.51509,55.6015822 3916.47509,55.0215822 3916.47509,54.5215822 C3916.47509,53.4415822 3916.63509,52.1815822 3916.97509,50.7415822 C3917.07509,50.2615822 3917.13509,50.0015822 3917.13509,49.9215822 L3917.13509,49.9215822 Z M3926.43509,52.3615822 C3926.43509,52.1815822 3926.33509,51.9815822 3926.17509,51.7815822 C3926.17509,51.3215822 3926.09509,50.9215822 3925.97509,50.5615822 C3925.99509,50.4815822 3926.01509,50.3815822 3926.01509,50.2815822 C3926.01509,50.0415822 3925.87509,49.8015822 3925.63509,49.6015822 C3925.37509,49.4015822 3925.11509,49.2815822 3924.85509,49.2815822 C3923.75509,49.2815822 3922.55509,49.9215822 3921.23509,51.1615822 C3919.85509,52.4415822 3919.17509,53.6815822 3919.17509,54.8415822 C3919.17509,55.4615822 3919.37509,56.0015822 3919.81509,56.4815822 C3920.23509,56.9815822 3920.73509,57.2215822 3921.31509,57.2215822 C3922.21509,57.2215822 3923.21509,56.6615822 3924.33509,55.5415822 C3924.43509,57.0615822 3924.77509,57.8415822 3925.35509,57.8415822 C3925.55509,57.8415822 3925.75509,57.7615822 3925.93509,57.6415822 C3926.09509,57.4815822 3926.19509,57.2815822 3926.19509,57.0815822 C3926.19509,57.0215822 3926.13509,56.7815822 3926.05509,56.3015822 C3925.95509,55.8415822 3925.91509,55.4815822 3925.91509,55.2415822 C3925.91509,54.4415822 3926.03509,53.6415822 3926.31509,52.8015822 C3926.39509,52.5815822 3926.43509,52.4415822 3926.43509,52.3615822 L3926.43509,52.3615822 Z M3924.61509,51.7815822 C3924.61509,52.4615822 3924.21509,53.2615822 3923.45509,54.1815822 C3922.69509,55.1015822 3921.99509,55.5415822 3921.39509,55.5415822 C3920.97509,55.5415822 3920.77509,55.3015822 3920.77509,54.8015822 C3920.77509,54.1615822 3921.27509,53.3615822 3922.29509,52.3815822 C3923.21509,51.5015822 3923.87509,51.0415822 3924.25509,51.0415822 C3924.49509,51.0415822 3924.61509,51.3015822 3924.61509,51.7815822 L3924.61509,51.7815822 Z M3936.43509,54.7815822 C3936.43509,53.6415822 3935.21509,53.0215822 3932.81509,52.9215822 C3934.65509,52.1015822 3935.57509,51.2215822 3935.57509,50.2615822 C3935.57509,49.6415822 3935.25509,49.1615822 3934.63509,48.8215822 C3934.13509,48.5815822 3933.53509,48.4415822 3932.83509,48.4415822 C3931.85509,48.4415822 3930.69509,48.5015822 3929.35509,48.6215822 C3928.75509,48.7015822 3928.47509,48.9415822 3928.47509,49.3815822 C3928.47509,49.8615822 3928.73509,50.0815822 3929.29509,50.0815822 C3929.39509,50.0815822 3929.55509,50.0615822 3929.77509,50.0215822 C3929.73509,54.4415822 3929.71509,56.7215822 3929.71509,56.8415822 C3929.01509,56.9215822 3928.67509,57.2015822 3928.67509,57.7215822 C3928.67509,58.0815822 3928.91509,58.2815822 3929.43509,58.3415822 C3929.85509,58.3215822 3930.47509,58.2215822 3931.29509,58.0415822 C3932.81509,57.6815822 3933.93509,57.3215822 3934.61509,57.0015822 C3935.81509,56.4415822 3936.43509,55.7015822 3936.43509,54.7815822 L3936.43509,54.7815822 Z M3934.03509,50.4415822 C3934.03509,51.0215822 3933.09509,51.6415822 3931.21509,52.3015822 L3931.25509,49.9815822 C3931.99509,49.9215822 3932.53509,49.8815822 3932.85509,49.8815822 C3933.63509,49.8815822 3934.03509,50.0815822 3934.03509,50.4415822 L3934.03509,50.4415822 Z M3934.93509,54.9815822 C3934.93509,55.2815822 3934.59509,55.5815822 3933.91509,55.8615822 C3933.23509,56.1415822 3932.31509,56.3615822 3931.17509,56.5015822 L3931.17509,53.9815822 C3932.49509,54.0215822 3933.41509,54.1215822 3933.97509,54.2415822 C3934.61509,54.4015822 3934.93509,54.6415822 3934.93509,54.9815822 L3934.93509,54.9815822 Z M3945.13509,49.6015822 C3945.13509,49.0815822 3944.89509,48.8215822 3944.41509,48.8215822 C3944.01509,48.8215822 3943.75509,49.1815822 3943.65509,49.8615822 C3943.55509,50.4015822 3943.43509,51.1615822 3943.31509,52.1415822 C3942.43509,52.3615822 3941.57509,52.5215822 3940.73509,52.6015822 C3940.93509,51.3215822 3941.13509,50.3615822 3941.33509,49.7015822 C3941.45509,49.3415822 3941.55509,49.0615822 3941.65509,48.8215822 C3941.61509,48.2815822 3941.37509,48.0015822 3940.89509,48.0015822 C3940.55509,48.0015822 3940.33509,48.1615822 3940.21509,48.4815822 C3939.81509,49.4415822 3939.49509,50.8215822 3939.29509,52.6215822 C3938.97509,52.6215822 3938.75509,52.6015822 3938.63509,52.5815822 C3938.23509,52.5815822 3938.05509,52.8215822 3938.05509,53.2615822 C3938.05509,53.7615822 3938.33509,54.0015822 3938.91509,54.0015822 L3939.15509,54.0015822 C3939.09509,54.7615822 3939.03509,55.6215822 3938.99509,56.6215822 C3938.99509,56.6815822 3938.97509,56.7815822 3938.95509,56.9015822 C3938.91509,57.0215822 3938.91509,57.1015822 3938.91509,57.1815822 C3938.91509,57.3815822 3938.99509,57.5615822 3939.15509,57.7215822 C3939.31509,57.8815822 3939.49509,57.9615822 3939.69509,57.9615822 C3940.17509,57.9615822 3940.43509,57.7015822 3940.45509,57.2015822 C3940.45509,56.5215822 3940.51509,55.4415822 3940.61509,53.9615822 C3941.47509,53.8815822 3942.31509,53.7415822 3943.15509,53.5415822 C3943.05509,54.6015822 3942.99509,55.4415822 3942.99509,56.0415822 C3942.99509,56.1015822 3942.97509,56.1815822 3942.95509,56.3015822 C3942.91509,56.4015822 3942.89509,56.4815822 3942.89509,56.5415822 C3942.89509,57.0215822 3942.95509,57.3815822 3943.11509,57.6215822 C3943.27509,57.8815822 3943.45509,58.0215822 3943.69509,58.0215822 C3943.89509,58.0215822 3944.07509,57.9415822 3944.23509,57.7815822 C3944.37509,57.6215822 3944.45509,57.4215822 3944.45509,57.2015822 C3944.45509,57.1615822 3944.43509,57.0615822 3944.43509,56.8615822 C3944.41509,56.6615822 3944.41509,56.5015822 3944.41509,56.4215822 C3944.41509,55.0815822 3944.61509,53.0215822 3945.05509,50.2415822 C3945.09509,49.8815822 3945.13509,49.6815822 3945.13509,49.6015822 L3945.13509,49.6015822 Z M3953.51509,52.6015822 C3953.51509,51.8215822 3953.29509,51.1015822 3952.85509,50.4615822 C3952.39509,49.8415822 3951.81509,49.4015822 3951.11509,49.1615822 C3950.83509,49.0815822 3950.67509,49.0415822 3950.63509,49.0415822 C3950.47509,49.0415822 3950.29509,49.1415822 3950.05509,49.3015822 C3949.77509,49.4615822 3949.55509,49.5815822 3949.39509,49.6415822 C3948.71509,49.9815822 3948.15509,50.5815822 3947.75509,51.4215822 C3947.35509,52.1815822 3947.17509,53.0015822 3947.17509,53.8615822 C3947.17509,54.8815822 3947.43509,55.7215822 3947.99509,56.3815822 C3948.55509,57.0215822 3949.25509,57.3615822 3950.09509,57.3615822 C3951.05509,57.3615822 3951.87509,56.9215822 3952.53509,56.0015822 C3953.17509,55.0815822 3953.51509,53.9615822 3953.51509,52.6015822 L3953.51509,52.6015822 Z M3951.93509,52.9015822 C3951.93509,53.5815822 3951.73509,54.2015822 3951.37509,54.7815822 C3950.97509,55.3815822 3950.55509,55.6815822 3950.07509,55.6815822 C3949.67509,55.6815822 3949.35509,55.5015822 3949.11509,55.1215822 C3948.85509,54.7615822 3948.73509,54.3415822 3948.73509,53.8615822 C3948.73509,53.2215822 3948.87509,52.6215822 3949.19509,52.0615822 C3949.55509,51.4215822 3950.01509,51.0815822 3950.57509,51.0815822 C3950.77509,51.2015822 3951.03509,51.2615822 3951.35509,51.2615822 C3951.73509,51.5015822 3951.93509,52.0615822 3951.93509,52.9015822 L3951.93509,52.9015822 Z M3963.51509,56.6415822 C3963.51509,56.4415822 3963.43509,56.2415822 3963.27509,56.0415822 C3963.11509,55.8815822 3962.91509,55.7815822 3962.71509,55.7815822 C3962.55509,55.7815822 3962.29509,55.8215822 3961.95509,55.8615822 C3961.61509,55.9015822 3961.35509,55.9215822 3961.19509,55.9215822 C3960.59509,55.9215822 3960.07509,55.6415822 3959.59509,55.0615822 C3961.59509,53.9815822 3962.59509,52.7015822 3962.59509,51.2215822 C3962.59509,50.6615822 3962.35509,50.1215822 3961.87509,49.6415822 C3961.39509,49.1615822 3960.91509,48.9215822 3960.41509,48.9215822 C3959.55509,48.9215822 3958.85509,49.4215822 3958.29509,50.4015822 C3957.81509,51.2415822 3957.57509,52.1415822 3957.57509,53.1015822 C3957.57509,53.3015822 3957.59509,53.5815822 3957.65509,53.9215822 L3957.19509,53.9215822 C3956.91509,53.9215822 3956.65509,53.8215822 3956.37509,53.6215822 C3956.09509,53.4215822 3955.89509,53.3215822 3955.77509,53.3215822 C3955.25509,53.3215822 3954.99509,53.6015822 3954.99509,54.1615822 C3954.99509,54.6015822 3955.31509,54.9615822 3955.99509,55.2415822 C3956.51509,55.4615822 3957.01509,55.5615822 3957.53509,55.5615822 L3958.13509,55.5615822 C3958.85509,56.9415822 3959.97509,57.6215822 3961.49509,57.6215822 C3962.83509,57.6215822 3963.51509,57.2815822 3963.51509,56.6415822 L3963.51509,56.6415822 Z M3961.01509,51.3015822 C3961.01509,51.9615822 3960.41509,52.6815822 3959.21509,53.4615822 L3959.21509,53.1015822 C3959.21509,52.5615822 3959.29509,52.0415822 3959.49509,51.5415822 C3959.69509,50.9415822 3959.97509,50.6415822 3960.33509,50.6415822 C3960.49509,50.6415822 3960.65509,50.7215822 3960.81509,50.8415822 C3960.93509,51.0015822 3961.01509,51.1415822 3961.01509,51.3015822 L3961.01509,51.3015822 Z M3985.75509,51.0015822 C3985.73509,50.6415822 3985.53509,50.3415822 3985.15509,50.1215822 C3984.77509,49.8815822 3984.35509,49.7615822 3983.89509,49.7615822 C3983.73509,49.7615822 3983.53509,49.8015822 3983.29509,49.8415822 C3981.27509,49.6615822 3979.29509,49.5615822 3977.35509,49.5615822 C3975.67509,49.5615822 3974.31509,49.6615822 3973.27509,49.8615822 C3972.31509,50.0615822 3971.83509,50.3015822 3971.83509,50.6215822 C3971.83509,50.9015822 3971.95509,51.1415822 3972.21509,51.3615822 C3972.45509,51.6015822 3972.75509,51.7015822 3973.09509,51.7015822 C3973.51509,51.7015822 3973.87509,51.6815822 3974.17509,51.6015822 C3974.55509,51.5415822 3974.83509,51.4415822 3975.01509,51.3215822 C3975.93509,51.2015822 3976.93509,51.1415822 3977.97509,51.1415822 C3978.43509,51.1415822 3979.81509,51.2215822 3982.13509,51.3415822 C3984.05509,51.4615822 3985.07509,51.5415822 3985.19509,51.5415822 C3985.53509,51.5015822 3985.71509,51.3215822 3985.75509,51.0015822 L3985.75509,51.0015822 Z M4001.49509,50.4615822 C4001.49509,50.3015822 4001.41509,50.1215822 4001.25509,49.9415822 C4001.09509,49.7815822 4000.91509,49.7015822 4000.75509,49.7015822 C4000.59509,49.7015822 4000.25509,49.8215822 3999.75509,50.0615822 C3998.91509,50.4615822 3997.85509,51.2215822 3996.61509,52.3015822 C3996.89509,51.1415822 3997.15509,50.2215822 3997.43509,49.5615822 C3997.59509,49.1415822 3997.67509,48.8815822 3997.67509,48.8015822 C3997.67509,48.2815822 3997.41509,48.0215822 3996.93509,48.0215822 C3996.61509,48.0215822 3996.37509,48.2015822 3996.21509,48.5615822 C3995.23509,50.9615822 3994.73509,53.6015822 3994.69509,56.4615822 C3994.65509,56.5615822 3994.65509,56.6615822 3994.65509,56.7615822 C3994.65509,57.0015822 3994.69509,57.2215822 3994.77509,57.4415822 C3994.89509,57.8015822 3995.17509,58.0015822 3995.57509,58.0015822 C3996.01509,58.0015822 3996.23509,57.7415822 3996.23509,57.2415822 C3996.23509,57.2015822 3996.21509,57.0815822 3996.21509,56.8815822 C3996.19509,56.6815822 3996.19509,56.5415822 3996.19509,56.4215822 L3996.19509,55.6815822 C3996.19509,55.4015822 3996.19509,55.0815822 3996.23509,54.7215822 C3996.37509,54.6415822 3996.45509,54.6015822 3996.47509,54.5815822 C3997.23509,55.6015822 3998.21509,56.5015822 3999.39509,57.2815822 C3999.75509,57.5415822 4000.03509,57.6815822 4000.23509,57.6815822 C4000.71509,57.6815822 4000.95509,57.4215822 4000.95509,56.9215822 C4000.95509,56.7215822 4000.77509,56.4415822 4000.45509,56.1215822 C3999.89509,55.6215822 3999.57509,55.3615822 3999.45509,55.3615822 C3999.41509,55.3615822 3999.35509,55.3815822 3999.31509,55.3815822 C3998.53509,54.7615822 3997.93509,54.1615822 3997.53509,53.5815822 C3998.49509,52.6815822 3999.29509,52.0415822 3999.95509,51.6815822 C4000.03509,51.7215822 4000.11509,51.7415822 4000.21509,51.7415822 C4000.47509,51.7415822 4000.75509,51.6015822 4001.03509,51.3215822 C4001.33509,51.0615822 4001.49509,50.7815822 4001.49509,50.4615822 L4001.49509,50.4615822 Z M4009.47509,52.6015822 C4009.47509,51.8215822 4009.25509,51.1015822 4008.81509,50.4615822 C4008.35509,49.8415822 4007.77509,49.4015822 4007.07509,49.1615822 C4006.79509,49.0815822 4006.63509,49.0415822 4006.59509,49.0415822 C4006.43509,49.0415822 4006.25509,49.1415822 4006.01509,49.3015822 C4005.73509,49.4615822 4005.51509,49.5815822 4005.35509,49.6415822 C4004.67509,49.9815822 4004.11509,50.5815822 4003.71509,51.4215822 C4003.31509,52.1815822 4003.13509,53.0015822 4003.13509,53.8615822 C4003.13509,54.8815822 4003.39509,55.7215822 4003.95509,56.3815822 C4004.51509,57.0215822 4005.21509,57.3615822 4006.05509,57.3615822 C4007.01509,57.3615822 4007.83509,56.9215822 4008.49509,56.0015822 C4009.13509,55.0815822 4009.47509,53.9615822 4009.47509,52.6015822 L4009.47509,52.6015822 Z M4007.89509,52.9015822 C4007.89509,53.5815822 4007.69509,54.2015822 4007.33509,54.7815822 C4006.93509,55.3815822 4006.51509,55.6815822 4006.03509,55.6815822 C4005.63509,55.6815822 4005.31509,55.5015822 4005.07509,55.1215822 C4004.81509,54.7615822 4004.69509,54.3415822 4004.69509,53.8615822 C4004.69509,53.2215822 4004.83509,52.6215822 4005.15509,52.0615822 C4005.51509,51.4215822 4005.97509,51.0815822 4006.53509,51.0815822 C4006.73509,51.2015822 4006.99509,51.2615822 4007.31509,51.2615822 C4007.69509,51.5015822 4007.89509,52.0615822 4007.89509,52.9015822 L4007.89509,52.9015822 Z M4018.77509,50.0815822 C4018.77509,49.1215822 4018.55509,48.3215822 4018.11509,47.6815822 C4017.63509,46.9815822 4016.93509,46.6215822 4016.05509,46.6215822 C4014.79509,46.6215822 4013.81509,47.5015822 4013.11509,49.2615822 C4012.63509,50.4815822 4012.39509,51.8815822 4012.39509,53.4415822 C4012.39509,53.6415822 4012.39509,53.8015822 4012.41509,53.9015822 C4011.85509,54.1015822 4011.59509,54.4015822 4011.59509,54.8215822 C4011.59509,55.3415822 4011.85509,55.6215822 4012.41509,55.6615822 C4012.45509,55.9815822 4012.47509,56.4615822 4012.47509,57.1015822 C4012.47509,58.3815822 4012.39509,59.2815822 4012.27509,59.8415822 C4012.13509,60.3815822 4012.07509,60.6815822 4012.07509,60.7415822 C4012.07509,60.9615822 4012.15509,61.1615822 4012.31509,61.3415822 C4012.47509,61.5015822 4012.67509,61.6015822 4012.89509,61.6015822 C4013.31509,61.6015822 4013.61509,61.1815822 4013.79509,60.3615822 C4013.99509,59.4415822 4014.09509,58.5015822 4014.09509,57.5815822 C4014.09509,56.7415822 4014.05509,55.9215822 4013.99509,55.1215822 C4017.17509,53.9615822 4018.77509,52.2815822 4018.77509,50.0815822 L4018.77509,50.0815822 Z M4017.17509,49.7415822 C4017.17509,51.3815822 4016.11509,52.5815822 4014.01509,53.3415822 C4014.01509,52.2615822 4014.19509,51.1615822 4014.57509,50.0815822 C4014.99509,48.9015822 4015.49509,48.3015822 4016.05509,48.3015822 C4016.39509,48.3015822 4016.67509,48.4615822 4016.89509,48.7415822 C4017.07509,49.0215822 4017.17509,49.3615822 4017.17509,49.7415822 L4017.17509,49.7415822 Z M4028.69509,56.6415822 C4028.69509,56.4415822 4028.61509,56.2415822 4028.45509,56.0415822 C4028.29509,55.8815822 4028.09509,55.7815822 4027.89509,55.7815822 C4027.73509,55.7815822 4027.47509,55.8215822 4027.13509,55.8615822 C4026.79509,55.9015822 4026.53509,55.9215822 4026.37509,55.9215822 C4025.77509,55.9215822 4025.25509,55.6415822 4024.77509,55.0615822 C4026.77509,53.9815822 4027.77509,52.7015822 4027.77509,51.2215822 C4027.77509,50.6615822 4027.53509,50.1215822 4027.05509,49.6415822 C4026.57509,49.1615822 4026.09509,48.9215822 4025.59509,48.9215822 C4024.73509,48.9215822 4024.03509,49.4215822 4023.47509,50.4015822 C4022.99509,51.2415822 4022.75509,52.1415822 4022.75509,53.1015822 C4022.75509,53.3015822 4022.77509,53.5815822 4022.83509,53.9215822 L4022.37509,53.9215822 C4022.09509,53.9215822 4021.83509,53.8215822 4021.55509,53.6215822 C4021.27509,53.4215822 4021.07509,53.3215822 4020.95509,53.3215822 C4020.43509,53.3215822 4020.17509,53.6015822 4020.17509,54.1615822 C4020.17509,54.6015822 4020.49509,54.9615822 4021.17509,55.2415822 C4021.69509,55.4615822 4022.19509,55.5615822 4022.71509,55.5615822 L4023.31509,55.5615822 C4024.03509,56.9415822 4025.15509,57.6215822 4026.67509,57.6215822 C4028.01509,57.6215822 4028.69509,57.2815822 4028.69509,56.6415822 L4028.69509,56.6415822 Z M4026.19509,51.3015822 C4026.19509,51.9615822 4025.59509,52.6815822 4024.39509,53.4615822 L4024.39509,53.1015822 C4024.39509,52.5615822 4024.47509,52.0415822 4024.67509,51.5415822 C4024.87509,50.9415822 4025.15509,50.6415822 4025.51509,50.6415822 C4025.67509,50.6415822 4025.83509,50.7215822 4025.99509,50.8415822 C4026.11509,51.0015822 4026.19509,51.1415822 4026.19509,51.3015822 L4026.19509,51.3015822 Z M4039.13509,50.1215822 C4039.13509,49.8815822 4039.03509,49.6015822 4038.87509,49.3015822 C4038.67509,49.0215822 4038.45509,48.8615822 4038.21509,48.8615822 C4037.81509,48.8615822 4037.57509,49.0015822 4037.45509,49.2815822 C4037.47509,49.4615822 4037.49509,49.7215822 4037.53509,50.0815822 C4037.55509,50.4815822 4037.57509,50.7815822 4037.57509,50.9615822 C4037.57509,51.5215822 4037.43509,53.2215822 4037.15509,56.0215822 C4036.21509,56.1215822 4035.55509,56.1815822 4035.19509,56.1815822 C4035.47509,52.1615822 4035.61509,50.0615822 4035.61509,49.8615822 C4035.61509,48.9815822 4035.25509,48.5215822 4034.57509,48.5215822 C4034.45509,48.5215822 4034.31509,48.5815822 4034.17509,48.6815822 C4034.01509,48.8015822 4033.93509,48.9215822 4033.93509,49.0415822 C4033.93509,49.0815822 4033.95509,49.2215822 4034.01509,49.4215822 C4034.03509,49.6415822 4034.05509,49.7815822 4034.05509,49.8415822 C4034.05509,51.7615822 4033.91509,53.9215822 4033.65509,56.3415822 C4032.57509,56.4815822 4031.99509,56.5415822 4031.91509,56.5415822 C4031.75509,56.5415822 4031.65509,56.4415822 4031.63509,56.2015822 C4031.63509,56.0815822 4031.69509,55.2415822 4031.77509,53.7015822 C4031.87509,52.1615822 4031.93509,51.3015822 4031.93509,51.1015822 C4031.93509,50.3815822 4031.85509,49.8615822 4031.71509,49.5415822 C4031.51509,49.0415822 4031.21509,48.7815822 4030.85509,48.7815822 C4030.69509,48.7815822 4030.53509,48.8615822 4030.41509,49.0015822 C4030.29509,49.1215822 4030.23509,49.2815822 4030.23509,49.4415822 C4030.33509,49.9815822 4030.39509,50.5015822 4030.39509,50.9815822 C4030.39509,52.5615822 4030.31509,54.3015822 4030.17509,56.1815822 C4030.21509,56.9015822 4030.43509,57.4015822 4030.83509,57.7415822 C4031.09509,57.9415822 4031.39509,58.0615822 4031.71509,58.0615822 C4033.35509,57.7615822 4034.85509,57.6215822 4036.19509,57.6215822 C4036.33509,57.6215822 4036.55509,57.6415822 4036.85509,57.6815822 C4037.13509,57.7215822 4037.35509,57.7615822 4037.51509,57.7615822 C4038.23509,57.7615822 4038.59509,57.3615822 4038.63509,56.6015822 C4038.65509,55.8015822 4038.75509,54.5815822 4038.91509,52.9215822 C4039.05509,51.2615822 4039.13509,50.3215822 4039.13509,50.1215822 L4039.13509,50.1215822 Z M4048.03509,50.4615822 C4048.03509,50.3015822 4047.95509,50.1215822 4047.79509,49.9415822 C4047.63509,49.7815822 4047.45509,49.7015822 4047.29509,49.7015822 C4047.13509,49.7015822 4046.79509,49.8215822 4046.29509,50.0615822 C4045.45509,50.4615822 4044.39509,51.2215822 4043.15509,52.3015822 C4043.43509,51.1415822 4043.69509,50.2215822 4043.97509,49.5615822 C4044.13509,49.1415822 4044.21509,48.8815822 4044.21509,48.8015822 C4044.21509,48.2815822 4043.95509,48.0215822 4043.47509,48.0215822 C4043.15509,48.0215822 4042.91509,48.2015822 4042.75509,48.5615822 C4041.77509,50.9615822 4041.27509,53.6015822 4041.23509,56.4615822 C4041.19509,56.5615822 4041.19509,56.6615822 4041.19509,56.7615822 C4041.19509,57.0015822 4041.23509,57.2215822 4041.31509,57.4415822 C4041.43509,57.8015822 4041.71509,58.0015822 4042.11509,58.0015822 C4042.55509,58.0015822 4042.77509,57.7415822 4042.77509,57.2415822 C4042.77509,57.2015822 4042.75509,57.0815822 4042.75509,56.8815822 C4042.73509,56.6815822 4042.73509,56.5415822 4042.73509,56.4215822 L4042.73509,55.6815822 C4042.73509,55.4015822 4042.73509,55.0815822 4042.77509,54.7215822 C4042.91509,54.6415822 4042.99509,54.6015822 4043.01509,54.5815822 C4043.77509,55.6015822 4044.75509,56.5015822 4045.93509,57.2815822 C4046.29509,57.5415822 4046.57509,57.6815822 4046.77509,57.6815822 C4047.25509,57.6815822 4047.49509,57.4215822 4047.49509,56.9215822 C4047.49509,56.7215822 4047.31509,56.4415822 4046.99509,56.1215822 C4046.43509,55.6215822 4046.11509,55.3615822 4045.99509,55.3615822 C4045.95509,55.3615822 4045.89509,55.3815822 4045.85509,55.3815822 C4045.07509,54.7615822 4044.47509,54.1615822 4044.07509,53.5815822 C4045.03509,52.6815822 4045.83509,52.0415822 4046.49509,51.6815822 C4046.57509,51.7215822 4046.65509,51.7415822 4046.75509,51.7415822 C4047.01509,51.7415822 4047.29509,51.6015822 4047.57509,51.3215822 C4047.87509,51.0615822 4048.03509,50.7815822 4048.03509,50.4615822 L4048.03509,50.4615822 Z M4057.09509,57.1215822 C4057.09509,56.9815822 4056.99509,56.8015822 4056.81509,56.6015822 C4056.37509,56.1215822 4056.17509,54.9015822 4056.17509,52.9415822 C4056.17509,52.2415822 4056.27509,51.0615822 4056.49509,49.4015822 C4056.49509,49.1815822 4056.39509,48.9815822 4056.23509,48.7815822 C4056.05509,48.6015822 4055.85509,48.5015822 4055.63509,48.5015822 C4055.29509,48.5015822 4054.57509,49.2415822 4053.49509,50.7215822 C4052.61509,51.8815822 4051.89509,52.9415822 4051.29509,53.8615822 C4051.43509,52.3015822 4051.53509,51.1615822 4051.59509,50.4815822 C4051.59509,50.1615822 4051.47509,49.8815822 4051.27509,49.6415822 C4051.07509,49.4215822 4050.81509,49.3015822 4050.49509,49.3015822 C4050.31509,49.3015822 4050.15509,49.4215822 4049.99509,49.6415822 C4050.03509,50.2215822 4050.07509,50.5615822 4050.07509,50.6415822 C4050.07509,51.0015822 4050.01509,51.9015822 4049.91509,53.3615822 L4049.87509,53.9415822 C4049.85509,54.2415822 4049.81509,54.6415822 4049.77509,55.1415822 C4049.71509,55.6215822 4049.67509,55.9215822 4049.67509,56.0415822 C4049.69509,56.3215822 4049.77509,56.5415822 4049.93509,56.6615822 C4050.25509,56.9815822 4050.45509,57.1215822 4050.53509,57.1215822 C4050.81509,57.1215822 4051.15509,56.8215822 4051.51509,56.1815822 C4052.25509,54.9415822 4052.77509,54.0615822 4053.09509,53.5815822 C4053.61509,52.7215822 4054.17509,51.9215822 4054.79509,51.2015822 C4054.79509,51.4015822 4054.77509,51.8215822 4054.77509,52.4415822 C4054.75509,53.0815822 4054.75509,53.4215822 4054.75509,53.5015822 C4054.75509,54.5415822 4054.85509,55.4215822 4055.07509,56.1815822 C4055.37509,57.2815822 4055.81509,57.8415822 4056.37509,57.8415822 C4056.49509,57.8415822 4056.65509,57.7415822 4056.83509,57.5815822 C4056.99509,57.3815822 4057.09509,57.2415822 4057.09509,57.1215822 L4057.09509,57.1215822 Z M4062.07509,56.4615822 C4062.07509,55.8815822 4061.77509,55.5815822 4061.19509,55.5815822 C4060.43509,55.5815822 4059.99509,56.2815822 4059.87509,57.6615822 C4059.35509,58.6015822 4058.75509,59.4415822 4058.09509,60.1815822 C4057.93509,60.3615822 4057.85509,60.5815822 4057.85509,60.8215822 C4057.85509,61.3415822 4058.09509,61.6015822 4058.55509,61.6015822 C4058.81509,61.6015822 4059.03509,61.5015822 4059.23509,61.3015822 C4059.81509,60.6815822 4060.37509,59.9415822 4060.91509,59.0815822 C4061.67509,57.8015822 4062.07509,56.9415822 4062.07509,56.4615822 L4062.07509,56.4615822 Z M3904.95509,75.3615822 C3904.95509,75.1815822 3904.85509,74.9815822 3904.69509,74.7815822 C3904.69509,74.3215822 3904.61509,73.9215822 3904.49509,73.5615822 C3904.51509,73.4815822 3904.53509,73.3815822 3904.53509,73.2815822 C3904.53509,73.0415822 3904.39509,72.8015822 3904.15509,72.6015822 C3903.89509,72.4015822 3903.63509,72.2815822 3903.37509,72.2815822 C3902.27509,72.2815822 3901.07509,72.9215822 3899.75509,74.1615822 C3898.37509,75.4415822 3897.69509,76.6815822 3897.69509,77.8415822 C3897.69509,78.4615822 3897.89509,79.0015822 3898.33509,79.4815822 C3898.75509,79.9815822 3899.25509,80.2215822 3899.83509,80.2215822 C3900.73509,80.2215822 3901.73509,79.6615822 3902.85509,78.5415822 C3902.95509,80.0615822 3903.29509,80.8415822 3903.87509,80.8415822 C3904.07509,80.8415822 3904.27509,80.7615822 3904.45509,80.6415822 C3904.61509,80.4815822 3904.71509,80.2815822 3904.71509,80.0815822 C3904.71509,80.0215822 3904.65509,79.7815822 3904.57509,79.3015822 C3904.47509,78.8415822 3904.43509,78.4815822 3904.43509,78.2415822 C3904.43509,77.4415822 3904.55509,76.6415822 3904.83509,75.8015822 C3904.91509,75.5815822 3904.95509,75.4415822 3904.95509,75.3615822 L3904.95509,75.3615822 Z M3903.13509,74.7815822 C3903.13509,75.4615822 3902.73509,76.2615822 3901.97509,77.1815822 C3901.21509,78.1015822 3900.51509,78.5415822 3899.91509,78.5415822 C3899.49509,78.5415822 3899.29509,78.3015822 3899.29509,77.8015822 C3899.29509,77.1615822 3899.79509,76.3615822 3900.81509,75.3815822 C3901.73509,74.5015822 3902.39509,74.0415822 3902.77509,74.0415822 C3903.01509,74.0415822 3903.13509,74.3015822 3903.13509,74.7815822 L3903.13509,74.7815822 Z M3920.49509,72.6015822 C3920.49509,72.0815822 3920.25509,71.8215822 3919.77509,71.8215822 C3919.37509,71.8215822 3919.11509,72.1815822 3919.01509,72.8615822 C3918.91509,73.4015822 3918.79509,74.1615822 3918.67509,75.1415822 C3917.79509,75.3615822 3916.93509,75.5215822 3916.09509,75.6015822 C3916.29509,74.3215822 3916.49509,73.3615822 3916.69509,72.7015822 C3916.81509,72.3415822 3916.91509,72.0615822 3917.01509,71.8215822 C3916.97509,71.2815822 3916.73509,71.0015822 3916.25509,71.0015822 C3915.91509,71.0015822 3915.69509,71.1615822 3915.57509,71.4815822 C3915.17509,72.4415822 3914.85509,73.8215822 3914.65509,75.6215822 C3914.33509,75.6215822 3914.11509,75.6015822 3913.99509,75.5815822 C3913.59509,75.5815822 3913.41509,75.8215822 3913.41509,76.2615822 C3913.41509,76.7615822 3913.69509,77.0015822 3914.27509,77.0015822 L3914.51509,77.0015822 C3914.45509,77.7615822 3914.39509,78.6215822 3914.35509,79.6215822 C3914.35509,79.6815822 3914.33509,79.7815822 3914.31509,79.9015822 C3914.27509,80.0215822 3914.27509,80.1015822 3914.27509,80.1815822 C3914.27509,80.3815822 3914.35509,80.5615822 3914.51509,80.7215822 C3914.67509,80.8815822 3914.85509,80.9615822 3915.05509,80.9615822 C3915.53509,80.9615822 3915.79509,80.7015822 3915.81509,80.2015822 C3915.81509,79.5215822 3915.87509,78.4415822 3915.97509,76.9615822 C3916.83509,76.8815822 3917.67509,76.7415822 3918.51509,76.5415822 C3918.41509,77.6015822 3918.35509,78.4415822 3918.35509,79.0415822 C3918.35509,79.1015822 3918.33509,79.1815822 3918.31509,79.3015822 C3918.27509,79.4015822 3918.25509,79.4815822 3918.25509,79.5415822 C3918.25509,80.0215822 3918.31509,80.3815822 3918.47509,80.6215822 C3918.63509,80.8815822 3918.81509,81.0215822 3919.05509,81.0215822 C3919.25509,81.0215822 3919.43509,80.9415822 3919.59509,80.7815822 C3919.73509,80.6215822 3919.81509,80.4215822 3919.81509,80.2015822 C3919.81509,80.1615822 3919.79509,80.0615822 3919.79509,79.8615822 C3919.77509,79.6615822 3919.77509,79.5015822 3919.77509,79.4215822 C3919.77509,78.0815822 3919.97509,76.0215822 3920.41509,73.2415822 C3920.45509,72.8815822 3920.49509,72.6815822 3920.49509,72.6015822 L3920.49509,72.6015822 Z M3930.47509,79.6415822 C3930.47509,79.4415822 3930.39509,79.2415822 3930.23509,79.0415822 C3930.07509,78.8815822 3929.87509,78.7815822 3929.67509,78.7815822 C3929.51509,78.7815822 3929.25509,78.8215822 3928.91509,78.8615822 C3928.57509,78.9015822 3928.31509,78.9215822 3928.15509,78.9215822 C3927.55509,78.9215822 3927.03509,78.6415822 3926.55509,78.0615822 C3928.55509,76.9815822 3929.55509,75.7015822 3929.55509,74.2215822 C3929.55509,73.6615822 3929.31509,73.1215822 3928.83509,72.6415822 C3928.35509,72.1615822 3927.87509,71.9215822 3927.37509,71.9215822 C3926.51509,71.9215822 3925.81509,72.4215822 3925.25509,73.4015822 C3924.77509,74.2415822 3924.53509,75.1415822 3924.53509,76.1015822 C3924.53509,76.3015822 3924.55509,76.5815822 3924.61509,76.9215822 L3924.15509,76.9215822 C3923.87509,76.9215822 3923.61509,76.8215822 3923.33509,76.6215822 C3923.05509,76.4215822 3922.85509,76.3215822 3922.73509,76.3215822 C3922.21509,76.3215822 3921.95509,76.6015822 3921.95509,77.1615822 C3921.95509,77.6015822 3922.27509,77.9615822 3922.95509,78.2415822 C3923.47509,78.4615822 3923.97509,78.5615822 3924.49509,78.5615822 L3925.09509,78.5615822 C3925.81509,79.9415822 3926.93509,80.6215822 3928.45509,80.6215822 C3929.79509,80.6215822 3930.47509,80.2815822 3930.47509,79.6415822 L3930.47509,79.6415822 Z M3927.97509,74.3015822 C3927.97509,74.9615822 3927.37509,75.6815822 3926.17509,76.4615822 L3926.17509,76.1015822 C3926.17509,75.5615822 3926.25509,75.0415822 3926.45509,74.5415822 C3926.65509,73.9415822 3926.93509,73.6415822 3927.29509,73.6415822 C3927.45509,73.6415822 3927.61509,73.7215822 3927.77509,73.8415822 C3927.89509,74.0015822 3927.97509,74.1415822 3927.97509,74.3015822 L3927.97509,74.3015822 Z M3946.75509,77.7815822 C3946.75509,76.6415822 3945.53509,76.0215822 3943.13509,75.9215822 C3944.97509,75.1015822 3945.89509,74.2215822 3945.89509,73.2615822 C3945.89509,72.6415822 3945.57509,72.1615822 3944.95509,71.8215822 C3944.45509,71.5815822 3943.85509,71.4415822 3943.15509,71.4415822 C3942.17509,71.4415822 3941.01509,71.5015822 3939.67509,71.6215822 C3939.07509,71.7015822 3938.79509,71.9415822 3938.79509,72.3815822 C3938.79509,72.8615822 3939.05509,73.0815822 3939.61509,73.0815822 C3939.71509,73.0815822 3939.87509,73.0615822 3940.09509,73.0215822 C3940.05509,77.4415822 3940.03509,79.7215822 3940.03509,79.8415822 C3939.33509,79.9215822 3938.99509,80.2015822 3938.99509,80.7215822 C3938.99509,81.0815822 3939.23509,81.2815822 3939.75509,81.3415822 C3940.17509,81.3215822 3940.79509,81.2215822 3941.61509,81.0415822 C3943.13509,80.6815822 3944.25509,80.3215822 3944.93509,80.0015822 C3946.13509,79.4415822 3946.75509,78.7015822 3946.75509,77.7815822 L3946.75509,77.7815822 Z M3944.35509,73.4415822 C3944.35509,74.0215822 3943.41509,74.6415822 3941.53509,75.3015822 L3941.57509,72.9815822 C3942.31509,72.9215822 3942.85509,72.8815822 3943.17509,72.8815822 C3943.95509,72.8815822 3944.35509,73.0815822 3944.35509,73.4415822 L3944.35509,73.4415822 Z M3945.25509,77.9815822 C3945.25509,78.2815822 3944.91509,78.5815822 3944.23509,78.8615822 C3943.55509,79.1415822 3942.63509,79.3615822 3941.49509,79.5015822 L3941.49509,76.9815822 C3942.81509,77.0215822 3943.73509,77.1215822 3944.29509,77.2415822 C3944.93509,77.4015822 3945.25509,77.6415822 3945.25509,77.9815822 L3945.25509,77.9815822 Z M3956.73509,79.6415822 C3956.73509,79.4415822 3956.65509,79.2415822 3956.49509,79.0415822 C3956.33509,78.8815822 3956.13509,78.7815822 3955.93509,78.7815822 C3955.77509,78.7815822 3955.51509,78.8215822 3955.17509,78.8615822 C3954.83509,78.9015822 3954.57509,78.9215822 3954.41509,78.9215822 C3953.81509,78.9215822 3953.29509,78.6415822 3952.81509,78.0615822 C3954.81509,76.9815822 3955.81509,75.7015822 3955.81509,74.2215822 C3955.81509,73.6615822 3955.57509,73.1215822 3955.09509,72.6415822 C3954.61509,72.1615822 3954.13509,71.9215822 3953.63509,71.9215822 C3952.77509,71.9215822 3952.07509,72.4215822 3951.51509,73.4015822 C3951.03509,74.2415822 3950.79509,75.1415822 3950.79509,76.1015822 C3950.79509,76.3015822 3950.81509,76.5815822 3950.87509,76.9215822 L3950.41509,76.9215822 C3950.13509,76.9215822 3949.87509,76.8215822 3949.59509,76.6215822 C3949.31509,76.4215822 3949.11509,76.3215822 3948.99509,76.3215822 C3948.47509,76.3215822 3948.21509,76.6015822 3948.21509,77.1615822 C3948.21509,77.6015822 3948.53509,77.9615822 3949.21509,78.2415822 C3949.73509,78.4615822 3950.23509,78.5615822 3950.75509,78.5615822 L3951.35509,78.5615822 C3952.07509,79.9415822 3953.19509,80.6215822 3954.71509,80.6215822 C3956.05509,80.6215822 3956.73509,80.2815822 3956.73509,79.6415822 L3956.73509,79.6415822 Z M3954.23509,74.3015822 C3954.23509,74.9615822 3953.63509,75.6815822 3952.43509,76.4615822 L3952.43509,76.1015822 C3952.43509,75.5615822 3952.51509,75.0415822 3952.71509,74.5415822 C3952.91509,73.9415822 3953.19509,73.6415822 3953.55509,73.6415822 C3953.71509,73.6415822 3953.87509,73.7215822 3954.03509,73.8415822 C3954.15509,74.0015822 3954.23509,74.1415822 3954.23509,74.3015822 L3954.23509,74.3015822 Z M3965.45509,73.0815822 C3965.45509,72.1215822 3965.23509,71.3215822 3964.79509,70.6815822 C3964.31509,69.9815822 3963.61509,69.6215822 3962.73509,69.6215822 C3961.47509,69.6215822 3960.49509,70.5015822 3959.79509,72.2615822 C3959.31509,73.4815822 3959.07509,74.8815822 3959.07509,76.4415822 C3959.07509,76.6415822 3959.07509,76.8015822 3959.09509,76.9015822 C3958.53509,77.1015822 3958.27509,77.4015822 3958.27509,77.8215822 C3958.27509,78.3415822 3958.53509,78.6215822 3959.09509,78.6615822 C3959.13509,78.9815822 3959.15509,79.4615822 3959.15509,80.1015822 C3959.15509,81.3815822 3959.07509,82.2815822 3958.95509,82.8415822 C3958.81509,83.3815822 3958.75509,83.6815822 3958.75509,83.7415822 C3958.75509,83.9615822 3958.83509,84.1615822 3958.99509,84.3415822 C3959.15509,84.5015822 3959.35509,84.6015822 3959.57509,84.6015822 C3959.99509,84.6015822 3960.29509,84.1815822 3960.47509,83.3615822 C3960.67509,82.4415822 3960.77509,81.5015822 3960.77509,80.5815822 C3960.77509,79.7415822 3960.73509,78.9215822 3960.67509,78.1215822 C3963.85509,76.9615822 3965.45509,75.2815822 3965.45509,73.0815822 L3965.45509,73.0815822 Z M3963.85509,72.7415822 C3963.85509,74.3815822 3962.79509,75.5815822 3960.69509,76.3415822 C3960.69509,75.2615822 3960.87509,74.1615822 3961.25509,73.0815822 C3961.67509,71.9015822 3962.17509,71.3015822 3962.73509,71.3015822 C3963.07509,71.3015822 3963.35509,71.4615822 3963.57509,71.7415822 C3963.75509,72.0215822 3963.85509,72.3615822 3963.85509,72.7415822 L3963.85509,72.7415822 Z M3976.39509,73.1215822 C3976.39509,72.8815822 3976.29509,72.6015822 3976.13509,72.3015822 C3975.93509,72.0215822 3975.71509,71.8615822 3975.47509,71.8615822 C3975.07509,71.8615822 3974.83509,72.0015822 3974.71509,72.2815822 C3974.73509,72.4615822 3974.75509,72.7215822 3974.79509,73.0815822 C3974.81509,73.4815822 3974.83509,73.7815822 3974.83509,73.9615822 C3974.83509,74.5215822 3974.69509,76.2215822 3974.41509,79.0215822 C3973.47509,79.1215822 3972.81509,79.1815822 3972.45509,79.1815822 C3972.73509,75.1615822 3972.87509,73.0615822 3972.87509,72.8615822 C3972.87509,71.9815822 3972.51509,71.5215822 3971.83509,71.5215822 C3971.71509,71.5215822 3971.57509,71.5815822 3971.43509,71.6815822 C3971.27509,71.8015822 3971.19509,71.9215822 3971.19509,72.0415822 C3971.19509,72.0815822 3971.21509,72.2215822 3971.27509,72.4215822 C3971.29509,72.6415822 3971.31509,72.7815822 3971.31509,72.8415822 C3971.31509,74.7615822 3971.17509,76.9215822 3970.91509,79.3415822 C3969.83509,79.4815822 3969.25509,79.5415822 3969.17509,79.5415822 C3969.01509,79.5415822 3968.91509,79.4415822 3968.89509,79.2015822 C3968.89509,79.0815822 3968.95509,78.2415822 3969.03509,76.7015822 C3969.13509,75.1615822 3969.19509,74.3015822 3969.19509,74.1015822 C3969.19509,73.3815822 3969.11509,72.8615822 3968.97509,72.5415822 C3968.77509,72.0415822 3968.47509,71.7815822 3968.11509,71.7815822 C3967.95509,71.7815822 3967.79509,71.8615822 3967.67509,72.0015822 C3967.55509,72.1215822 3967.49509,72.2815822 3967.49509,72.4415822 C3967.59509,72.9815822 3967.65509,73.5015822 3967.65509,73.9815822 C3967.65509,75.5615822 3967.57509,77.3015822 3967.43509,79.1815822 C3967.47509,79.9015822 3967.69509,80.4015822 3968.09509,80.7415822 C3968.35509,80.9415822 3968.65509,81.0615822 3968.97509,81.0615822 C3970.61509,80.7615822 3972.11509,80.6215822 3973.45509,80.6215822 C3973.59509,80.6215822 3973.81509,80.6415822 3974.11509,80.6815822 C3974.39509,80.7215822 3974.61509,80.7615822 3974.77509,80.7615822 C3975.49509,80.7615822 3975.85509,80.3615822 3975.89509,79.6015822 C3975.91509,78.8015822 3976.01509,77.5815822 3976.17509,75.9215822 C3976.31509,74.2615822 3976.39509,73.3215822 3976.39509,73.1215822 L3976.39509,73.1215822 Z M3985.29509,73.4615822 C3985.29509,73.3015822 3985.21509,73.1215822 3985.05509,72.9415822 C3984.89509,72.7815822 3984.71509,72.7015822 3984.55509,72.7015822 C3984.39509,72.7015822 3984.05509,72.8215822 3983.55509,73.0615822 C3982.71509,73.4615822 3981.65509,74.2215822 3980.41509,75.3015822 C3980.69509,74.1415822 3980.95509,73.2215822 3981.23509,72.5615822 C3981.39509,72.1415822 3981.47509,71.8815822 3981.47509,71.8015822 C3981.47509,71.2815822 3981.21509,71.0215822 3980.73509,71.0215822 C3980.41509,71.0215822 3980.17509,71.2015822 3980.01509,71.5615822 C3979.03509,73.9615822 3978.53509,76.6015822 3978.49509,79.4615822 C3978.45509,79.5615822 3978.45509,79.6615822 3978.45509,79.7615822 C3978.45509,80.0015822 3978.49509,80.2215822 3978.57509,80.4415822 C3978.69509,80.8015822 3978.97509,81.0015822 3979.37509,81.0015822 C3979.81509,81.0015822 3980.03509,80.7415822 3980.03509,80.2415822 C3980.03509,80.2015822 3980.01509,80.0815822 3980.01509,79.8815822 C3979.99509,79.6815822 3979.99509,79.5415822 3979.99509,79.4215822 L3979.99509,78.6815822 C3979.99509,78.4015822 3979.99509,78.0815822 3980.03509,77.7215822 C3980.17509,77.6415822 3980.25509,77.6015822 3980.27509,77.5815822 C3981.03509,78.6015822 3982.01509,79.5015822 3983.19509,80.2815822 C3983.55509,80.5415822 3983.83509,80.6815822 3984.03509,80.6815822 C3984.51509,80.6815822 3984.75509,80.4215822 3984.75509,79.9215822 C3984.75509,79.7215822 3984.57509,79.4415822 3984.25509,79.1215822 C3983.69509,78.6215822 3983.37509,78.3615822 3983.25509,78.3615822 C3983.21509,78.3615822 3983.15509,78.3815822 3983.11509,78.3815822 C3982.33509,77.7615822 3981.73509,77.1615822 3981.33509,76.5815822 C3982.29509,75.6815822 3983.09509,75.0415822 3983.75509,74.6815822 C3983.83509,74.7215822 3983.91509,74.7415822 3984.01509,74.7415822 C3984.27509,74.7415822 3984.55509,74.6015822 3984.83509,74.3215822 C3985.13509,74.0615822 3985.29509,73.7815822 3985.29509,73.4615822 L3985.29509,73.4615822 Z M3994.35509,80.1215822 C3994.35509,79.9815822 3994.25509,79.8015822 3994.07509,79.6015822 C3993.63509,79.1215822 3993.43509,77.9015822 3993.43509,75.9415822 C3993.43509,75.2415822 3993.53509,74.0615822 3993.75509,72.4015822 C3993.75509,72.1815822 3993.65509,71.9815822 3993.49509,71.7815822 C3993.31509,71.6015822 3993.11509,71.5015822 3992.89509,71.5015822 C3992.55509,71.5015822 3991.83509,72.2415822 3990.75509,73.7215822 C3989.87509,74.8815822 3989.15509,75.9415822 3988.55509,76.8615822 C3988.69509,75.3015822 3988.79509,74.1615822 3988.85509,73.4815822 C3988.85509,73.1615822 3988.73509,72.8815822 3988.53509,72.6415822 C3988.33509,72.4215822 3988.07509,72.3015822 3987.75509,72.3015822 C3987.57509,72.3015822 3987.41509,72.4215822 3987.25509,72.6415822 C3987.29509,73.2215822 3987.33509,73.5615822 3987.33509,73.6415822 C3987.33509,74.0015822 3987.27509,74.9015822 3987.17509,76.3615822 L3987.13509,76.9415822 C3987.11509,77.2415822 3987.07509,77.6415822 3987.03509,78.1415822 C3986.97509,78.6215822 3986.93509,78.9215822 3986.93509,79.0415822 C3986.95509,79.3215822 3987.03509,79.5415822 3987.19509,79.6615822 C3987.51509,79.9815822 3987.71509,80.1215822 3987.79509,80.1215822 C3988.07509,80.1215822 3988.41509,79.8215822 3988.77509,79.1815822 C3989.51509,77.9415822 3990.03509,77.0615822 3990.35509,76.5815822 C3990.87509,75.7215822 3991.43509,74.9215822 3992.05509,74.2015822 C3992.05509,74.4015822 3992.03509,74.8215822 3992.03509,75.4415822 C3992.01509,76.0815822 3992.01509,76.4215822 3992.01509,76.5015822 C3992.01509,77.5415822 3992.11509,78.4215822 3992.33509,79.1815822 C3992.63509,80.2815822 3993.07509,80.8415822 3993.63509,80.8415822 C3993.75509,80.8415822 3993.91509,80.7415822 3994.09509,80.5815822 C3994.25509,80.3815822 3994.35509,80.2415822 3994.35509,80.1215822 L3994.35509,80.1215822 Z" id="Главное-–-корешки,-а" transform="translate(3979.885087, 63.891582) rotate(-10.000000) translate(-3979.885087, -63.891582) "></path>
        </g>
    </g>
</svg>