<?xml version="1.0" encoding="UTF-8"?>
<svg width="147px" height="50px" viewBox="0 0 147 50" version="1.1" xmlns="http://www.w3.org/2000/svg" xmlns:xlink="http://www.w3.org/1999/xlink">
    <!-- Generator: Sketch 40.3 (33839) - http://www.bohemiancoding.com/sketch -->
    <title>Не надо тут самодеят</title>
    <desc>Created with Sketch.</desc>
    <defs></defs>
    <g id="Page-1" stroke="none" stroke-width="1" fill="none" fill-rule="evenodd">
        <g id="Sostav-IN-CURVES" transform="translate(-7352.000000, -616.000000)" fill="#354777">
            <path d="M7365.13247,616.220071 C7365.13247,616.020071 7365.05247,615.820071 7364.89247,615.640071 C7364.73247,615.480071 7364.53247,615.380071 7364.33247,615.380071 C7363.95247,615.380071 7363.71247,615.600071 7363.61247,616.020071 C7363.47247,616.620071 7363.37247,617.080071 7363.33247,617.400071 C7363.13247,618.360071 7362.93247,619.680071 7362.73247,621.360071 C7361.17247,621.920071 7359.33247,622.240071 7357.21247,622.360071 C7357.37247,620.940071 7357.61247,619.580071 7357.93247,618.300071 C7358.13247,617.380071 7358.29247,616.780071 7358.41247,616.480071 C7358.75247,615.440071 7358.93247,614.840071 7358.93247,614.700071 C7358.93247,614.160071 7358.65247,613.880071 7358.13247,613.880071 C7357.81247,613.880071 7357.57247,614.060071 7357.39247,614.400071 C7357.33247,614.500071 7357.21247,614.800071 7357.05247,615.320071 C7356.37247,617.240071 7355.87247,619.620071 7355.57247,622.460071 C7355.41247,622.460071 7355.11247,622.440071 7354.69247,622.400071 C7354.27247,622.380071 7354.03247,622.360071 7353.97247,622.360071 C7353.77247,622.360071 7353.61247,622.460071 7353.49247,622.620071 C7353.35247,622.800071 7353.29247,622.980071 7353.29247,623.180071 C7353.29247,623.780071 7353.73247,624.060071 7354.65247,624.060071 L7355.07247,624.060071 C7355.23247,624.060071 7355.37247,624.040071 7355.45247,624.040071 C7355.21247,626.720071 7355.11247,628.860071 7355.11247,630.460071 C7355.11247,630.700071 7355.17247,630.900071 7355.33247,631.100071 C7355.47247,631.300071 7355.65247,631.400071 7355.87247,631.400071 C7356.09247,631.400071 7356.29247,631.280071 7356.47247,631.080071 C7356.63247,630.860071 7356.71247,630.600071 7356.73247,630.320071 C7356.85247,627.680071 7356.97247,625.580071 7357.09247,624.000071 C7359.09247,623.840071 7360.89247,623.540071 7362.53247,623.140071 C7362.25247,626.060071 7362.13247,628.280071 7362.13247,629.820071 C7362.13247,630.900071 7362.43247,631.460071 7363.05247,631.460071 C7363.25247,631.460071 7363.45247,631.380071 7363.61247,631.220071 C7363.77247,631.040071 7363.85247,630.840071 7363.85247,630.620071 C7363.85247,630.540071 7363.83247,630.320071 7363.83247,629.940071 C7363.81247,629.560071 7363.81247,629.280071 7363.81247,629.080071 C7363.81247,625.820071 7364.19247,621.860071 7364.97247,617.220071 L7365.13247,616.220071 Z M7375.13247,629.880071 C7375.13247,629.680071 7375.05247,629.480071 7374.89247,629.280071 C7374.73247,629.120071 7374.53247,629.020071 7374.33247,629.020071 C7374.17247,629.020071 7373.91247,629.060071 7373.57247,629.100071 C7373.23247,629.140071 7372.97247,629.160071 7372.81247,629.160071 C7372.21247,629.160071 7371.69247,628.880071 7371.21247,628.300071 C7373.21247,627.220071 7374.21247,625.940071 7374.21247,624.460071 C7374.21247,623.900071 7373.97247,623.360071 7373.49247,622.880071 C7373.01247,622.400071 7372.53247,622.160071 7372.03247,622.160071 C7371.17247,622.160071 7370.47247,622.660071 7369.91247,623.640071 C7369.43247,624.480071 7369.19247,625.380071 7369.19247,626.340071 C7369.19247,626.540071 7369.21247,626.820071 7369.27247,627.160071 L7368.81247,627.160071 C7368.53247,627.160071 7368.27247,627.060071 7367.99247,626.860071 C7367.71247,626.660071 7367.51247,626.560071 7367.39247,626.560071 C7366.87247,626.560071 7366.61247,626.840071 7366.61247,627.400071 C7366.61247,627.840071 7366.93247,628.200071 7367.61247,628.480071 C7368.13247,628.700071 7368.63247,628.800071 7369.15247,628.800071 L7369.75247,628.800071 C7370.47247,630.180071 7371.59247,630.860071 7373.11247,630.860071 C7374.45247,630.860071 7375.13247,630.520071 7375.13247,629.880071 L7375.13247,629.880071 Z M7372.63247,624.540071 C7372.63247,625.200071 7372.03247,625.920071 7370.83247,626.700071 L7370.83247,626.340071 C7370.83247,625.800071 7370.91247,625.280071 7371.11247,624.780071 C7371.31247,624.180071 7371.59247,623.880071 7371.95247,623.880071 C7372.11247,623.880071 7372.27247,623.960071 7372.43247,624.080071 C7372.55247,624.240071 7372.63247,624.380071 7372.63247,624.540071 L7372.63247,624.540071 Z M7390.11247,622.840071 C7390.11247,622.320071 7389.87247,622.060071 7389.39247,622.060071 C7388.99247,622.060071 7388.73247,622.420071 7388.63247,623.100071 C7388.53247,623.640071 7388.41247,624.400071 7388.29247,625.380071 C7387.41247,625.600071 7386.55247,625.760071 7385.71247,625.840071 C7385.91247,624.560071 7386.11247,623.600071 7386.31247,622.940071 C7386.43247,622.580071 7386.53247,622.300071 7386.63247,622.060071 C7386.59247,621.520071 7386.35247,621.240071 7385.87247,621.240071 C7385.53247,621.240071 7385.31247,621.400071 7385.19247,621.720071 C7384.79247,622.680071 7384.47247,624.060071 7384.27247,625.860071 C7383.95247,625.860071 7383.73247,625.840071 7383.61247,625.820071 C7383.21247,625.820071 7383.03247,626.060071 7383.03247,626.500071 C7383.03247,627.000071 7383.31247,627.240071 7383.89247,627.240071 L7384.13247,627.240071 C7384.07247,628.000071 7384.01247,628.860071 7383.97247,629.860071 C7383.97247,629.920071 7383.95247,630.020071 7383.93247,630.140071 C7383.89247,630.260071 7383.89247,630.340071 7383.89247,630.420071 C7383.89247,630.620071 7383.97247,630.800071 7384.13247,630.960071 C7384.29247,631.120071 7384.47247,631.200071 7384.67247,631.200071 C7385.15247,631.200071 7385.41247,630.940071 7385.43247,630.440071 C7385.43247,629.760071 7385.49247,628.680071 7385.59247,627.200071 C7386.45247,627.120071 7387.29247,626.980071 7388.13247,626.780071 C7388.03247,627.840071 7387.97247,628.680071 7387.97247,629.280071 C7387.97247,629.340071 7387.95247,629.420071 7387.93247,629.540071 C7387.89247,629.640071 7387.87247,629.720071 7387.87247,629.780071 C7387.87247,630.260071 7387.93247,630.620071 7388.09247,630.860071 C7388.25247,631.120071 7388.43247,631.260071 7388.67247,631.260071 C7388.87247,631.260071 7389.05247,631.180071 7389.21247,631.020071 C7389.35247,630.860071 7389.43247,630.660071 7389.43247,630.440071 C7389.43247,630.400071 7389.41247,630.300071 7389.41247,630.100071 C7389.39247,629.900071 7389.39247,629.740071 7389.39247,629.660071 C7389.39247,628.320071 7389.59247,626.260071 7390.03247,623.480071 C7390.07247,623.120071 7390.11247,622.920071 7390.11247,622.840071 L7390.11247,622.840071 Z M7399.41247,625.600071 C7399.41247,625.420071 7399.31247,625.220071 7399.15247,625.020071 C7399.15247,624.560071 7399.07247,624.160071 7398.95247,623.800071 C7398.97247,623.720071 7398.99247,623.620071 7398.99247,623.520071 C7398.99247,623.280071 7398.85247,623.040071 7398.61247,622.840071 C7398.35247,622.640071 7398.09247,622.520071 7397.83247,622.520071 C7396.73247,622.520071 7395.53247,623.160071 7394.21247,624.400071 C7392.83247,625.680071 7392.15247,626.920071 7392.15247,628.080071 C7392.15247,628.700071 7392.35247,629.240071 7392.79247,629.720071 C7393.21247,630.220071 7393.71247,630.460071 7394.29247,630.460071 C7395.19247,630.460071 7396.19247,629.900071 7397.31247,628.780071 C7397.41247,630.300071 7397.75247,631.080071 7398.33247,631.080071 C7398.53247,631.080071 7398.73247,631.000071 7398.91247,630.880071 C7399.07247,630.720071 7399.17247,630.520071 7399.17247,630.320071 C7399.17247,630.260071 7399.11247,630.020071 7399.03247,629.540071 C7398.93247,629.080071 7398.89247,628.720071 7398.89247,628.480071 C7398.89247,627.680071 7399.01247,626.880071 7399.29247,626.040071 C7399.37247,625.820071 7399.41247,625.680071 7399.41247,625.600071 L7399.41247,625.600071 Z M7397.59247,625.020071 C7397.59247,625.700071 7397.19247,626.500071 7396.43247,627.420071 C7395.67247,628.340071 7394.97247,628.780071 7394.37247,628.780071 C7393.95247,628.780071 7393.75247,628.540071 7393.75247,628.040071 C7393.75247,627.400071 7394.25247,626.600071 7395.27247,625.620071 C7396.19247,624.740071 7396.85247,624.280071 7397.23247,624.280071 C7397.47247,624.280071 7397.59247,624.540071 7397.59247,625.020071 L7397.59247,625.020071 Z M7410.07247,630.280071 C7410.07247,630.220071 7410.03247,630.120071 7409.95247,630.000071 C7409.71247,629.560071 7409.43247,629.340071 7409.15247,629.340071 C7409.11247,629.340071 7409.05247,629.360071 7408.95247,629.360071 C7409.05247,626.880071 7409.13247,625.080071 7409.21247,623.940071 C7409.25247,623.360071 7409.37247,622.780071 7409.59247,622.180071 C7409.59247,621.980071 7409.47247,621.760071 7409.27247,621.560071 C7409.07247,621.360071 7408.87247,621.260071 7408.67247,621.260071 C7408.15247,621.260071 7407.53247,621.380071 7406.79247,621.580071 C7405.91247,621.840071 7405.33247,622.040071 7405.05247,622.160071 C7404.61247,622.400071 7404.41247,622.700071 7404.41247,623.040071 C7404.41247,623.140071 7404.45247,623.280071 7404.55247,623.480071 C7404.61247,623.680071 7404.65247,623.820071 7404.65247,623.900071 C7404.65247,624.780071 7404.43247,625.780071 7403.99247,626.940071 C7403.51247,628.160071 7402.97247,629.120071 7402.33247,629.820071 C7401.71247,629.860071 7401.39247,630.140071 7401.35247,630.660071 C7401.27247,631.440071 7401.25247,632.120071 7401.25247,632.680071 C7401.25247,632.860071 7401.33247,633.040071 7401.49247,633.200071 C7401.65247,633.360071 7401.87247,633.460071 7402.11247,633.460071 C7402.57247,633.460071 7402.81247,633.220071 7402.81247,632.760071 C7402.81247,632.680071 7402.79247,632.580071 7402.77247,632.440071 C7402.73247,632.300071 7402.73247,632.200071 7402.73247,632.160071 C7402.73247,632.080071 7402.73247,632.000071 7402.75247,631.880071 L7402.75247,631.580071 C7402.75247,631.420071 7402.89247,631.320071 7403.21247,631.300071 C7404.39247,631.160071 7405.47247,631.060071 7406.43247,631.000071 C7407.13247,630.940071 7407.63247,630.920071 7407.91247,630.920071 C7408.15247,630.920071 7408.29247,631.020071 7408.29247,631.220071 C7408.29247,631.280071 7408.29247,631.500071 7408.31247,631.900071 L7408.31247,632.600071 C7408.31247,633.160071 7408.51247,633.460071 7408.95247,633.460071 C7409.11247,633.460071 7409.31247,633.400071 7409.53247,633.300071 C7409.71247,633.180071 7409.81247,633.020071 7409.81247,632.860071 C7409.81247,632.720071 7409.79247,632.540071 7409.77247,632.300071 C7409.73247,632.060071 7409.71247,631.860071 7409.71247,631.740071 C7409.71247,631.420071 7409.73247,631.140071 7409.81247,630.920071 C7409.81247,630.880071 7409.85247,630.780071 7409.93247,630.620071 C7410.01247,630.440071 7410.07247,630.320071 7410.07247,630.280071 L7410.07247,630.280071 Z M7407.73247,622.960071 C7407.73247,625.680071 7407.61247,627.880071 7407.37247,629.540071 C7405.81247,629.640071 7404.75247,629.720071 7404.17247,629.800071 C7405.15247,628.240071 7405.83247,626.080071 7406.21247,623.360071 C7406.53247,623.200071 7407.05247,623.060071 7407.73247,622.960071 L7407.73247,622.960071 Z M7418.25247,625.840071 C7418.25247,625.060071 7418.03247,624.340071 7417.59247,623.700071 C7417.13247,623.080071 7416.55247,622.640071 7415.85247,622.400071 C7415.57247,622.320071 7415.41247,622.280071 7415.37247,622.280071 C7415.21247,622.280071 7415.03247,622.380071 7414.79247,622.540071 C7414.51247,622.700071 7414.29247,622.820071 7414.13247,622.880071 C7413.45247,623.220071 7412.89247,623.820071 7412.49247,624.660071 C7412.09247,625.420071 7411.91247,626.240071 7411.91247,627.100071 C7411.91247,628.120071 7412.17247,628.960071 7412.73247,629.620071 C7413.29247,630.260071 7413.99247,630.600071 7414.83247,630.600071 C7415.79247,630.600071 7416.61247,630.160071 7417.27247,629.240071 C7417.91247,628.320071 7418.25247,627.200071 7418.25247,625.840071 L7418.25247,625.840071 Z M7416.67247,626.140071 C7416.67247,626.820071 7416.47247,627.440071 7416.11247,628.020071 C7415.71247,628.620071 7415.29247,628.920071 7414.81247,628.920071 C7414.41247,628.920071 7414.09247,628.740071 7413.85247,628.360071 C7413.59247,628.000071 7413.47247,627.580071 7413.47247,627.100071 C7413.47247,626.460071 7413.61247,625.860071 7413.93247,625.300071 C7414.29247,624.660071 7414.75247,624.320071 7415.31247,624.320071 C7415.51247,624.440071 7415.77247,624.500071 7416.09247,624.500071 C7416.47247,624.740071 7416.67247,625.300071 7416.67247,626.140071 L7416.67247,626.140071 Z M7435.19247,621.920071 C7435.19247,621.720071 7435.11247,621.520071 7434.97247,621.340071 C7434.83247,621.180071 7434.67247,621.080071 7434.49247,621.080071 C7434.19247,621.080071 7433.77247,621.160071 7433.21247,621.280071 C7431.01247,621.800071 7429.05247,622.260071 7427.37247,622.660071 C7427.25247,622.700071 7427.17247,622.700071 7427.13247,622.700071 C7426.73247,622.780071 7426.53247,623.080071 7426.53247,623.580071 C7426.53247,624.140071 7426.75247,624.400071 7427.23247,624.400071 C7427.81247,624.280071 7428.27247,624.180071 7428.59247,624.080071 C7429.17247,623.960071 7429.67247,623.840071 7430.09247,623.760071 C7430.01247,625.300071 7429.97247,626.780071 7429.97247,628.180071 C7429.97247,629.540071 7430.05247,630.480071 7430.21247,631.000071 C7430.33247,631.360071 7430.57247,631.540071 7430.97247,631.540071 C7431.49247,631.540071 7431.75247,631.060071 7431.75247,630.120071 C7431.75247,629.660071 7431.65247,629.320071 7431.49247,629.100071 C7431.45247,628.600071 7431.43247,627.820071 7431.43247,626.740071 C7431.43247,625.900071 7431.49247,624.760071 7431.65247,623.340071 C7432.23247,623.200071 7432.63247,623.100071 7432.87247,623.060071 C7433.05247,623.180071 7433.19247,623.220071 7433.29247,623.220071 C7433.41247,623.220071 7433.55247,623.200071 7433.73247,623.120071 L7434.65247,622.700071 C7435.01247,622.540071 7435.19247,622.280071 7435.19247,621.920071 L7435.19247,621.920071 Z M7443.69247,626.960071 L7443.69247,625.620071 C7443.69247,624.220071 7443.37247,623.500071 7442.75247,623.500071 C7442.43247,623.500071 7442.13247,623.780071 7441.83247,624.300071 C7441.21247,625.400071 7440.73247,626.180071 7440.37247,626.620071 C7439.89247,627.220071 7439.43247,627.520071 7438.99247,627.520071 C7438.67247,627.520071 7438.53247,627.340071 7438.53247,626.980071 C7438.53247,626.660071 7438.59247,626.040071 7438.71247,625.120071 C7438.83247,624.200071 7438.91247,623.640071 7438.91247,623.460071 C7438.91247,622.980071 7438.83247,622.540071 7438.67247,622.180071 C7438.49247,621.740071 7438.23247,621.520071 7437.91247,621.520071 C7437.31247,621.520071 7437.03247,621.780071 7437.03247,622.280071 C7437.03247,622.400071 7437.05247,622.560071 7437.13247,622.800071 C7437.19247,623.040071 7437.23247,623.200071 7437.23247,623.320071 C7437.23247,623.720071 7437.17247,624.320071 7437.07247,625.160071 C7436.97247,626.000071 7436.93247,626.640071 7436.93247,627.040071 C7436.93247,627.700071 7437.11247,628.240071 7437.49247,628.660071 C7437.85247,629.100071 7438.33247,629.300071 7438.97247,629.300071 C7439.99247,629.300071 7441.03247,628.560071 7442.09247,627.080071 C7442.09247,627.760071 7442.03247,628.400071 7441.93247,629.020071 C7441.45247,631.680071 7439.69247,633.020071 7436.63247,633.060071 C7436.15247,633.000071 7435.79247,632.960071 7435.55247,632.940071 C7435.05247,632.960071 7434.79247,633.220071 7434.79247,633.740071 C7434.79247,634.460071 7435.41247,634.840071 7436.65247,634.840071 C7438.61247,634.840071 7440.19247,634.300071 7441.43247,633.260071 C7442.93247,631.980071 7443.69247,629.900071 7443.69247,626.960071 L7443.69247,626.960071 Z M7453.77247,621.920071 C7453.77247,621.720071 7453.69247,621.520071 7453.55247,621.340071 C7453.41247,621.180071 7453.25247,621.080071 7453.07247,621.080071 C7452.77247,621.080071 7452.35247,621.160071 7451.79247,621.280071 C7449.59247,621.800071 7447.63247,622.260071 7445.95247,622.660071 C7445.83247,622.700071 7445.75247,622.700071 7445.71247,622.700071 C7445.31247,622.780071 7445.11247,623.080071 7445.11247,623.580071 C7445.11247,624.140071 7445.33247,624.400071 7445.81247,624.400071 C7446.39247,624.280071 7446.85247,624.180071 7447.17247,624.080071 C7447.75247,623.960071 7448.25247,623.840071 7448.67247,623.760071 C7448.59247,625.300071 7448.55247,626.780071 7448.55247,628.180071 C7448.55247,629.540071 7448.63247,630.480071 7448.79247,631.000071 C7448.91247,631.360071 7449.15247,631.540071 7449.55247,631.540071 C7450.07247,631.540071 7450.33247,631.060071 7450.33247,630.120071 C7450.33247,629.660071 7450.23247,629.320071 7450.07247,629.100071 C7450.03247,628.600071 7450.01247,627.820071 7450.01247,626.740071 C7450.01247,625.900071 7450.07247,624.760071 7450.23247,623.340071 C7450.81247,623.200071 7451.21247,623.100071 7451.45247,623.060071 C7451.63247,623.180071 7451.77247,623.220071 7451.87247,623.220071 C7451.99247,623.220071 7452.13247,623.200071 7452.31247,623.120071 L7453.23247,622.700071 C7453.59247,622.540071 7453.77247,622.280071 7453.77247,621.920071 L7453.77247,621.920071 Z M7360.09247,651.400071 C7360.09247,651.200071 7360.01247,651.000071 7359.85247,650.800071 C7359.69247,650.640071 7359.51247,650.540071 7359.31247,650.540071 C7359.15247,650.540071 7358.91247,650.680071 7358.63247,650.940071 C7358.39247,651.140071 7358.15247,651.340071 7357.95247,651.540071 C7357.61247,651.800071 7357.19247,651.920071 7356.69247,651.920071 C7355.89247,651.920071 7355.51247,651.440071 7355.51247,650.440071 C7355.51247,649.820071 7355.69247,649.200071 7356.05247,648.600071 C7356.41247,648.000071 7356.85247,647.500071 7357.39247,647.140071 C7357.63247,647.280071 7357.99247,647.340071 7358.49247,647.340071 C7358.75247,647.340071 7359.01247,647.240071 7359.27247,647.000071 C7359.49247,646.760071 7359.61247,646.540071 7359.61247,646.300071 C7359.61247,645.980071 7359.49247,645.740071 7359.25247,645.540071 C7358.99247,645.360071 7358.71247,645.260071 7358.41247,645.260071 C7357.15247,645.260071 7356.03247,645.920071 7355.07247,647.220071 C7354.29247,648.260071 7353.91247,649.400071 7353.91247,650.640071 C7353.91247,651.520071 7354.19247,652.220071 7354.75247,652.780071 C7355.31247,653.320071 7356.01247,653.600071 7356.85247,653.600071 C7357.61247,653.600071 7358.39247,653.300071 7359.15247,652.700071 C7359.77247,652.220071 7360.09247,651.800071 7360.09247,651.400071 L7360.09247,651.400071 Z M7369.19247,648.600071 C7369.19247,648.420071 7369.09247,648.220071 7368.93247,648.020071 C7368.93247,647.560071 7368.85247,647.160071 7368.73247,646.800071 C7368.75247,646.720071 7368.77247,646.620071 7368.77247,646.520071 C7368.77247,646.280071 7368.63247,646.040071 7368.39247,645.840071 C7368.13247,645.640071 7367.87247,645.520071 7367.61247,645.520071 C7366.51247,645.520071 7365.31247,646.160071 7363.99247,647.400071 C7362.61247,648.680071 7361.93247,649.920071 7361.93247,651.080071 C7361.93247,651.700071 7362.13247,652.240071 7362.57247,652.720071 C7362.99247,653.220071 7363.49247,653.460071 7364.07247,653.460071 C7364.97247,653.460071 7365.97247,652.900071 7367.09247,651.780071 C7367.19247,653.300071 7367.53247,654.080071 7368.11247,654.080071 C7368.31247,654.080071 7368.51247,654.000071 7368.69247,653.880071 C7368.85247,653.720071 7368.95247,653.520071 7368.95247,653.320071 C7368.95247,653.260071 7368.89247,653.020071 7368.81247,652.540071 C7368.71247,652.080071 7368.67247,651.720071 7368.67247,651.480071 C7368.67247,650.680071 7368.79247,649.880071 7369.07247,649.040071 C7369.15247,648.820071 7369.19247,648.680071 7369.19247,648.600071 L7369.19247,648.600071 Z M7367.37247,648.020071 C7367.37247,648.700071 7366.97247,649.500071 7366.21247,650.420071 C7365.45247,651.340071 7364.75247,651.780071 7364.15247,651.780071 C7363.73247,651.780071 7363.53247,651.540071 7363.53247,651.040071 C7363.53247,650.400071 7364.03247,649.600071 7365.05247,648.620071 C7365.97247,647.740071 7366.63247,647.280071 7367.01247,647.280071 C7367.25247,647.280071 7367.37247,647.540071 7367.37247,648.020071 L7367.37247,648.020071 Z M7379.97247,654.060071 C7379.97247,653.880071 7379.91247,653.680071 7379.79247,653.440071 C7379.67247,653.200071 7379.53247,653.040071 7379.39247,652.920071 C7379.07247,652.240071 7378.79247,651.000071 7378.55247,649.220071 C7378.39247,648.300071 7378.27247,647.280071 7378.15247,646.200071 C7378.09247,645.780071 7377.85247,645.560071 7377.43247,645.560071 C7377.05247,645.560071 7376.55247,646.380071 7375.93247,648.020071 C7375.71247,648.580071 7375.53247,649.060071 7375.37247,649.500071 C7374.83247,648.700071 7374.35247,647.500071 7373.91247,645.860071 C7373.75247,645.260071 7373.51247,644.960071 7373.21247,644.960071 C7372.83247,644.960071 7372.49247,645.420071 7372.19247,646.320071 C7372.13247,646.320071 7372.05247,646.300071 7371.95247,646.300071 C7371.81247,646.300071 7371.69247,646.360071 7371.61247,646.460071 C7371.49247,646.580071 7371.43247,646.720071 7371.43247,646.860071 C7371.43247,646.900071 7371.43247,647.020071 7371.45247,647.220071 C7371.45247,647.440071 7371.47247,647.560071 7371.47247,647.600071 C7371.47247,647.960071 7371.43247,648.460071 7371.35247,649.140071 C7371.27247,649.820071 7371.23247,650.580071 7371.23247,651.400071 C7371.23247,652.740071 7371.49247,653.400071 7372.03247,653.400071 C7372.43247,653.400071 7372.63247,652.960071 7372.67247,652.060071 C7372.73247,650.300071 7372.89247,648.840071 7373.13247,647.680071 C7374.19247,650.240071 7375.03247,651.520071 7375.63247,651.520071 C7375.83247,651.520071 7375.97247,651.440071 7376.09247,651.240071 C7376.19247,651.080071 7376.31247,650.720071 7376.47247,650.200071 C7376.73247,649.320071 7376.95247,648.620071 7377.13247,648.140071 C7377.33247,650.360071 7377.61247,652.000071 7377.99247,653.060071 C7378.41247,654.280071 7378.85247,654.900071 7379.29247,654.900071 C7379.45247,654.900071 7379.61247,654.800071 7379.75247,654.620071 C7379.89247,654.420071 7379.97247,654.240071 7379.97247,654.060071 L7379.97247,654.060071 Z M7387.73247,648.840071 C7387.73247,648.060071 7387.51247,647.340071 7387.07247,646.700071 C7386.61247,646.080071 7386.03247,645.640071 7385.33247,645.400071 C7385.05247,645.320071 7384.89247,645.280071 7384.85247,645.280071 C7384.69247,645.280071 7384.51247,645.380071 7384.27247,645.540071 C7383.99247,645.700071 7383.77247,645.820071 7383.61247,645.880071 C7382.93247,646.220071 7382.37247,646.820071 7381.97247,647.660071 C7381.57247,648.420071 7381.39247,649.240071 7381.39247,650.100071 C7381.39247,651.120071 7381.65247,651.960071 7382.21247,652.620071 C7382.77247,653.260071 7383.47247,653.600071 7384.31247,653.600071 C7385.27247,653.600071 7386.09247,653.160071 7386.75247,652.240071 C7387.39247,651.320071 7387.73247,650.200071 7387.73247,648.840071 L7387.73247,648.840071 Z M7386.15247,649.140071 C7386.15247,649.820071 7385.95247,650.440071 7385.59247,651.020071 C7385.19247,651.620071 7384.77247,651.920071 7384.29247,651.920071 C7383.89247,651.920071 7383.57247,651.740071 7383.33247,651.360071 C7383.07247,651.000071 7382.95247,650.580071 7382.95247,650.100071 C7382.95247,649.460071 7383.09247,648.860071 7383.41247,648.300071 C7383.77247,647.660071 7384.23247,647.320071 7384.79247,647.320071 C7384.99247,647.440071 7385.25247,647.500071 7385.57247,647.500071 C7385.95247,647.740071 7386.15247,648.300071 7386.15247,649.140071 L7386.15247,649.140071 Z M7398.41247,653.280071 C7398.41247,653.220071 7398.37247,653.120071 7398.29247,653.000071 C7398.05247,652.560071 7397.77247,652.340071 7397.49247,652.340071 C7397.45247,652.340071 7397.39247,652.360071 7397.29247,652.360071 C7397.39247,649.880071 7397.47247,648.080071 7397.55247,646.940071 C7397.59247,646.360071 7397.71247,645.780071 7397.93247,645.180071 C7397.93247,644.980071 7397.81247,644.760071 7397.61247,644.560071 C7397.41247,644.360071 7397.21247,644.260071 7397.01247,644.260071 C7396.49247,644.260071 7395.87247,644.380071 7395.13247,644.580071 C7394.25247,644.840071 7393.67247,645.040071 7393.39247,645.160071 C7392.95247,645.400071 7392.75247,645.700071 7392.75247,646.040071 C7392.75247,646.140071 7392.79247,646.280071 7392.89247,646.480071 C7392.95247,646.680071 7392.99247,646.820071 7392.99247,646.900071 C7392.99247,647.780071 7392.77247,648.780071 7392.33247,649.940071 C7391.85247,651.160071 7391.31247,652.120071 7390.67247,652.820071 C7390.05247,652.860071 7389.73247,653.140071 7389.69247,653.660071 C7389.61247,654.440071 7389.59247,655.120071 7389.59247,655.680071 C7389.59247,655.860071 7389.67247,656.040071 7389.83247,656.200071 C7389.99247,656.360071 7390.21247,656.460071 7390.45247,656.460071 C7390.91247,656.460071 7391.15247,656.220071 7391.15247,655.760071 C7391.15247,655.680071 7391.13247,655.580071 7391.11247,655.440071 C7391.07247,655.300071 7391.07247,655.200071 7391.07247,655.160071 C7391.07247,655.080071 7391.07247,655.000071 7391.09247,654.880071 L7391.09247,654.580071 C7391.09247,654.420071 7391.23247,654.320071 7391.55247,654.300071 C7392.73247,654.160071 7393.81247,654.060071 7394.77247,654.000071 C7395.47247,653.940071 7395.97247,653.920071 7396.25247,653.920071 C7396.49247,653.920071 7396.63247,654.020071 7396.63247,654.220071 C7396.63247,654.280071 7396.63247,654.500071 7396.65247,654.900071 L7396.65247,655.600071 C7396.65247,656.160071 7396.85247,656.460071 7397.29247,656.460071 C7397.45247,656.460071 7397.65247,656.400071 7397.87247,656.300071 C7398.05247,656.180071 7398.15247,656.020071 7398.15247,655.860071 C7398.15247,655.720071 7398.13247,655.540071 7398.11247,655.300071 C7398.07247,655.060071 7398.05247,654.860071 7398.05247,654.740071 C7398.05247,654.420071 7398.07247,654.140071 7398.15247,653.920071 C7398.15247,653.880071 7398.19247,653.780071 7398.27247,653.620071 C7398.35247,653.440071 7398.41247,653.320071 7398.41247,653.280071 L7398.41247,653.280071 Z M7396.07247,645.960071 C7396.07247,648.680071 7395.95247,650.880071 7395.71247,652.540071 C7394.15247,652.640071 7393.09247,652.720071 7392.51247,652.800071 C7393.49247,651.240071 7394.17247,649.080071 7394.55247,646.360071 C7394.87247,646.200071 7395.39247,646.060071 7396.07247,645.960071 L7396.07247,645.960071 Z M7408.19247,652.880071 C7408.19247,652.680071 7408.11247,652.480071 7407.95247,652.280071 C7407.79247,652.120071 7407.59247,652.020071 7407.39247,652.020071 C7407.23247,652.020071 7406.97247,652.060071 7406.63247,652.100071 C7406.29247,652.140071 7406.03247,652.160071 7405.87247,652.160071 C7405.27247,652.160071 7404.75247,651.880071 7404.27247,651.300071 C7406.27247,650.220071 7407.27247,648.940071 7407.27247,647.460071 C7407.27247,646.900071 7407.03247,646.360071 7406.55247,645.880071 C7406.07247,645.400071 7405.59247,645.160071 7405.09247,645.160071 C7404.23247,645.160071 7403.53247,645.660071 7402.97247,646.640071 C7402.49247,647.480071 7402.25247,648.380071 7402.25247,649.340071 C7402.25247,649.540071 7402.27247,649.820071 7402.33247,650.160071 L7401.87247,650.160071 C7401.59247,650.160071 7401.33247,650.060071 7401.05247,649.860071 C7400.77247,649.660071 7400.57247,649.560071 7400.45247,649.560071 C7399.93247,649.560071 7399.67247,649.840071 7399.67247,650.400071 C7399.67247,650.840071 7399.99247,651.200071 7400.67247,651.480071 C7401.19247,651.700071 7401.69247,651.800071 7402.21247,651.800071 L7402.81247,651.800071 C7403.53247,653.180071 7404.65247,653.860071 7406.17247,653.860071 C7407.51247,653.860071 7408.19247,653.520071 7408.19247,652.880071 L7408.19247,652.880071 Z M7405.69247,647.540071 C7405.69247,648.200071 7405.09247,648.920071 7403.89247,649.700071 L7403.89247,649.340071 C7403.89247,648.800071 7403.97247,648.280071 7404.17247,647.780071 C7404.37247,647.180071 7404.65247,646.880071 7405.01247,646.880071 C7405.17247,646.880071 7405.33247,646.960071 7405.49247,647.080071 C7405.61247,647.240071 7405.69247,647.380071 7405.69247,647.540071 L7405.69247,647.540071 Z M7416.13247,647.700071 C7416.13247,647.100071 7415.91247,646.780071 7415.49247,646.780071 C7415.13247,646.780071 7414.87247,646.980071 7414.75247,647.380071 C7414.39247,648.540071 7413.55247,649.100071 7412.27247,649.100071 C7411.45247,649.100071 7411.05247,648.920071 7411.05247,648.560071 C7411.05247,648.140071 7411.51247,647.640071 7412.43247,647.080071 C7413.27247,646.600071 7413.93247,646.360071 7414.45247,646.360071 C7414.57247,646.360071 7414.65247,646.380071 7414.71247,646.400071 C7414.83247,646.540071 7414.95247,646.600071 7415.09247,646.600071 C7415.25247,646.600071 7415.43247,646.520071 7415.61247,646.360071 C7415.77247,646.200071 7415.85247,646.020071 7415.85247,645.820071 C7415.85247,645.260071 7415.45247,644.960071 7414.69247,644.960071 C7413.71247,644.960071 7412.67247,645.300071 7411.55247,645.980071 C7410.25247,646.780071 7409.61247,647.660071 7409.61247,648.620071 C7409.61247,649.240071 7409.85247,649.720071 7410.35247,650.040071 C7410.71247,650.320071 7411.21247,650.440071 7411.83247,650.440071 L7412.01247,650.440071 L7410.67247,651.560071 L7410.55247,651.380071 C7410.33247,651.620071 7410.15247,651.820071 7410.03247,651.940071 C7409.83247,652.020071 7409.65247,652.180071 7409.51247,652.400071 C7409.33247,652.640071 7409.25247,652.860071 7409.25247,653.080071 C7409.25247,653.280071 7409.33247,653.460071 7409.51247,653.660071 C7409.67247,653.820071 7409.87247,653.920071 7410.07247,653.920071 C7410.27247,653.920071 7410.57247,653.720071 7410.97247,653.340071 C7412.39247,652.040071 7413.49247,651.060071 7414.25247,650.400071 C7414.03247,652.040071 7413.93247,652.960071 7413.93247,653.160071 C7413.93247,653.820071 7414.19247,654.160071 7414.71247,654.160071 C7415.15247,654.160071 7415.41247,653.880071 7415.45247,653.360071 C7415.73247,650.840071 7415.95247,648.960071 7416.13247,647.700071 L7416.13247,647.700071 Z M7426.23247,644.920071 C7426.23247,644.720071 7426.15247,644.520071 7426.01247,644.340071 C7425.87247,644.180071 7425.71247,644.080071 7425.53247,644.080071 C7425.23247,644.080071 7424.81247,644.160071 7424.25247,644.280071 C7422.05247,644.800071 7420.09247,645.260071 7418.41247,645.660071 C7418.29247,645.700071 7418.21247,645.700071 7418.17247,645.700071 C7417.77247,645.780071 7417.57247,646.080071 7417.57247,646.580071 C7417.57247,647.140071 7417.79247,647.400071 7418.27247,647.400071 C7418.85247,647.280071 7419.31247,647.180071 7419.63247,647.080071 C7420.21247,646.960071 7420.71247,646.840071 7421.13247,646.760071 C7421.05247,648.300071 7421.01247,649.780071 7421.01247,651.180071 C7421.01247,652.540071 7421.09247,653.480071 7421.25247,654.000071 C7421.37247,654.360071 7421.61247,654.540071 7422.01247,654.540071 C7422.53247,654.540071 7422.79247,654.060071 7422.79247,653.120071 C7422.79247,652.660071 7422.69247,652.320071 7422.53247,652.100071 C7422.49247,651.600071 7422.47247,650.820071 7422.47247,649.740071 C7422.47247,648.900071 7422.53247,647.760071 7422.69247,646.340071 C7423.27247,646.200071 7423.67247,646.100071 7423.91247,646.060071 C7424.09247,646.180071 7424.23247,646.220071 7424.33247,646.220071 C7424.45247,646.220071 7424.59247,646.200071 7424.77247,646.120071 L7425.69247,645.700071 C7426.05247,645.540071 7426.23247,645.280071 7426.23247,644.920071 L7426.23247,644.920071 Z M7435.39247,652.880071 C7435.39247,652.680071 7435.31247,652.480071 7435.15247,652.280071 C7434.99247,652.120071 7434.79247,652.020071 7434.59247,652.020071 C7434.43247,652.020071 7434.17247,652.060071 7433.83247,652.100071 C7433.49247,652.140071 7433.23247,652.160071 7433.07247,652.160071 C7432.47247,652.160071 7431.95247,651.880071 7431.47247,651.300071 C7433.47247,650.220071 7434.47247,648.940071 7434.47247,647.460071 C7434.47247,646.900071 7434.23247,646.360071 7433.75247,645.880071 C7433.27247,645.400071 7432.79247,645.160071 7432.29247,645.160071 C7431.43247,645.160071 7430.73247,645.660071 7430.17247,646.640071 C7429.69247,647.480071 7429.45247,648.380071 7429.45247,649.340071 C7429.45247,649.540071 7429.47247,649.820071 7429.53247,650.160071 L7429.07247,650.160071 C7428.79247,650.160071 7428.53247,650.060071 7428.25247,649.860071 C7427.97247,649.660071 7427.77247,649.560071 7427.65247,649.560071 C7427.13247,649.560071 7426.87247,649.840071 7426.87247,650.400071 C7426.87247,650.840071 7427.19247,651.200071 7427.87247,651.480071 C7428.39247,651.700071 7428.89247,651.800071 7429.41247,651.800071 L7430.01247,651.800071 C7430.73247,653.180071 7431.85247,653.860071 7433.37247,653.860071 C7434.71247,653.860071 7435.39247,653.520071 7435.39247,652.880071 L7435.39247,652.880071 Z M7432.89247,647.540071 C7432.89247,648.200071 7432.29247,648.920071 7431.09247,649.700071 L7431.09247,649.340071 C7431.09247,648.800071 7431.17247,648.280071 7431.37247,647.780071 C7431.57247,647.180071 7431.85247,646.880071 7432.21247,646.880071 C7432.37247,646.880071 7432.53247,646.960071 7432.69247,647.080071 C7432.81247,647.240071 7432.89247,647.380071 7432.89247,647.540071 L7432.89247,647.540071 Z M7444.95247,646.160071 C7444.95247,645.860071 7444.85247,645.600071 7444.65247,645.360071 C7444.47247,645.140071 7444.25247,645.020071 7443.97247,645.020071 C7443.85247,645.020071 7443.61247,645.140071 7443.25247,645.340071 C7442.89247,645.560071 7442.01247,645.740071 7440.59247,645.900071 C7440.27247,645.640071 7440.01247,645.500071 7439.83247,645.500071 C7439.61247,645.500071 7439.37247,645.620071 7439.13247,645.860071 C7438.89247,646.100071 7438.77247,646.360071 7438.77247,646.600071 C7438.77247,646.760071 7438.85247,646.960071 7439.01247,647.180071 C7439.15247,647.420071 7439.23247,647.680071 7439.23247,647.980071 C7439.23247,649.220071 7439.13247,650.240071 7438.93247,651.080071 C7438.67247,652.060071 7438.33247,652.540071 7437.93247,652.540071 C7437.77247,652.540071 7437.65247,652.300071 7437.61247,651.780071 C7437.57247,651.580071 7437.49247,651.460071 7437.33247,651.460071 C7437.05247,651.460071 7436.85247,651.600071 7436.71247,651.840071 C7436.53247,652.120071 7436.45247,652.440071 7436.45247,652.780071 C7436.45247,653.160071 7436.59247,653.440071 7436.89247,653.660071 C7437.17247,653.860071 7437.49247,653.980071 7437.85247,653.980071 C7438.89247,653.980071 7439.63247,653.300071 7440.07247,651.980071 C7440.35247,651.140071 7440.59247,649.620071 7440.79247,647.420071 C7441.29247,647.300071 7442.05247,647.140071 7443.09247,646.960071 C7442.89247,648.920071 7442.79247,650.400071 7442.79247,651.400071 C7442.79247,652.720071 7442.87247,653.540071 7443.05247,653.880071 C7443.23247,654.220071 7443.49247,654.400071 7443.81247,654.400071 C7444.33247,654.400071 7444.59247,654.080071 7444.59247,653.480071 C7444.51247,653.120071 7444.47247,652.800071 7444.43247,652.520071 C7444.33247,651.840071 7444.29247,651.260071 7444.29247,650.760071 C7444.29247,649.680071 7444.45247,648.420071 7444.79247,646.980071 C7444.89247,646.500071 7444.95247,646.240071 7444.95247,646.160071 L7444.95247,646.160071 Z M7453.05247,650.820071 C7453.05247,650.000071 7452.77247,649.340071 7452.23247,648.840071 C7451.73247,648.380071 7451.09247,648.140071 7450.29247,648.140071 C7449.85247,648.140071 7449.41247,648.260071 7448.97247,648.500071 C7449.05247,647.760071 7449.11247,647.100071 7449.17247,646.540071 C7449.27247,645.900071 7449.33247,645.400071 7449.37247,645.040071 C7449.29247,644.460071 7449.05247,644.160071 7448.61247,644.160071 C7448.09247,644.160071 7447.81247,644.560071 7447.75247,645.340071 C7447.43247,648.500071 7447.19247,651.180071 7446.99247,653.380071 C7447.01247,654.080071 7447.27247,654.440071 7447.79247,654.440071 C7448.11247,654.440071 7448.33247,654.300071 7448.45247,654.040071 C7448.67247,654.100071 7448.87247,654.140071 7449.07247,654.140071 C7449.95247,654.140071 7450.81247,653.820071 7451.65247,653.200071 C7452.57247,652.520071 7453.05247,651.740071 7453.05247,650.820071 L7453.05247,650.820071 Z M7451.53247,650.580071 C7451.53247,651.180071 7451.21247,651.720071 7450.61247,652.180071 C7450.05247,652.620071 7449.51247,652.840071 7448.99247,652.840071 C7448.91247,652.840071 7448.77247,652.820071 7448.61247,652.780071 L7448.79247,650.480071 C7449.15247,649.880071 7449.63247,649.560071 7450.25247,649.560071 C7450.57247,649.560071 7450.85247,649.660071 7451.13247,649.860071 C7451.39247,650.060071 7451.53247,650.300071 7451.53247,650.580071 L7451.53247,650.580071 Z M7461.55247,645.840071 C7461.55247,645.320071 7461.31247,645.060071 7460.83247,645.060071 C7460.43247,645.060071 7460.17247,645.420071 7460.07247,646.100071 C7459.97247,646.640071 7459.85247,647.400071 7459.73247,648.380071 C7458.85247,648.600071 7457.99247,648.760071 7457.15247,648.840071 C7457.35247,647.560071 7457.55247,646.600071 7457.75247,645.940071 C7457.87247,645.580071 7457.97247,645.300071 7458.07247,645.060071 C7458.03247,644.520071 7457.79247,644.240071 7457.31247,644.240071 C7456.97247,644.240071 7456.75247,644.400071 7456.63247,644.720071 C7456.23247,645.680071 7455.91247,647.060071 7455.71247,648.860071 C7455.39247,648.860071 7455.17247,648.840071 7455.05247,648.820071 C7454.65247,648.820071 7454.47247,649.060071 7454.47247,649.500071 C7454.47247,650.000071 7454.75247,650.240071 7455.33247,650.240071 L7455.57247,650.240071 C7455.51247,651.000071 7455.45247,651.860071 7455.41247,652.860071 C7455.41247,652.920071 7455.39247,653.020071 7455.37247,653.140071 C7455.33247,653.260071 7455.33247,653.340071 7455.33247,653.420071 C7455.33247,653.620071 7455.41247,653.800071 7455.57247,653.960071 C7455.73247,654.120071 7455.91247,654.200071 7456.11247,654.200071 C7456.59247,654.200071 7456.85247,653.940071 7456.87247,653.440071 C7456.87247,652.760071 7456.93247,651.680071 7457.03247,650.200071 C7457.89247,650.120071 7458.73247,649.980071 7459.57247,649.780071 C7459.47247,650.840071 7459.41247,651.680071 7459.41247,652.280071 C7459.41247,652.340071 7459.39247,652.420071 7459.37247,652.540071 C7459.33247,652.640071 7459.31247,652.720071 7459.31247,652.780071 C7459.31247,653.260071 7459.37247,653.620071 7459.53247,653.860071 C7459.69247,654.120071 7459.87247,654.260071 7460.11247,654.260071 C7460.31247,654.260071 7460.49247,654.180071 7460.65247,654.020071 C7460.79247,653.860071 7460.87247,653.660071 7460.87247,653.440071 C7460.87247,653.400071 7460.85247,653.300071 7460.85247,653.100071 C7460.83247,652.900071 7460.83247,652.740071 7460.83247,652.660071 C7460.83247,651.320071 7461.03247,649.260071 7461.47247,646.480071 C7461.51247,646.120071 7461.55247,645.920071 7461.55247,645.840071 L7461.55247,645.840071 Z M7469.93247,648.840071 C7469.93247,648.060071 7469.71247,647.340071 7469.27247,646.700071 C7468.81247,646.080071 7468.23247,645.640071 7467.53247,645.400071 C7467.25247,645.320071 7467.09247,645.280071 7467.05247,645.280071 C7466.89247,645.280071 7466.71247,645.380071 7466.47247,645.540071 C7466.19247,645.700071 7465.97247,645.820071 7465.81247,645.880071 C7465.13247,646.220071 7464.57247,646.820071 7464.17247,647.660071 C7463.77247,648.420071 7463.59247,649.240071 7463.59247,650.100071 C7463.59247,651.120071 7463.85247,651.960071 7464.41247,652.620071 C7464.97247,653.260071 7465.67247,653.600071 7466.51247,653.600071 C7467.47247,653.600071 7468.29247,653.160071 7468.95247,652.240071 C7469.59247,651.320071 7469.93247,650.200071 7469.93247,648.840071 L7469.93247,648.840071 Z M7468.35247,649.140071 C7468.35247,649.820071 7468.15247,650.440071 7467.79247,651.020071 C7467.39247,651.620071 7466.97247,651.920071 7466.49247,651.920071 C7466.09247,651.920071 7465.77247,651.740071 7465.53247,651.360071 C7465.27247,651.000071 7465.15247,650.580071 7465.15247,650.100071 C7465.15247,649.460071 7465.29247,648.860071 7465.61247,648.300071 C7465.97247,647.660071 7466.43247,647.320071 7466.99247,647.320071 C7467.19247,647.440071 7467.45247,647.500071 7467.77247,647.500071 C7468.15247,647.740071 7468.35247,648.300071 7468.35247,649.140071 L7468.35247,649.140071 Z M7478.17247,651.400071 C7478.17247,651.200071 7478.09247,651.000071 7477.93247,650.800071 C7477.77247,650.640071 7477.59247,650.540071 7477.39247,650.540071 C7477.23247,650.540071 7476.99247,650.680071 7476.71247,650.940071 C7476.47247,651.140071 7476.23247,651.340071 7476.03247,651.540071 C7475.69247,651.800071 7475.27247,651.920071 7474.77247,651.920071 C7473.97247,651.920071 7473.59247,651.440071 7473.59247,650.440071 C7473.59247,649.820071 7473.77247,649.200071 7474.13247,648.600071 C7474.49247,648.000071 7474.93247,647.500071 7475.47247,647.140071 C7475.71247,647.280071 7476.07247,647.340071 7476.57247,647.340071 C7476.83247,647.340071 7477.09247,647.240071 7477.35247,647.000071 C7477.57247,646.760071 7477.69247,646.540071 7477.69247,646.300071 C7477.69247,645.980071 7477.57247,645.740071 7477.33247,645.540071 C7477.07247,645.360071 7476.79247,645.260071 7476.49247,645.260071 C7475.23247,645.260071 7474.11247,645.920071 7473.15247,647.220071 C7472.37247,648.260071 7471.99247,649.400071 7471.99247,650.640071 C7471.99247,651.520071 7472.27247,652.220071 7472.83247,652.780071 C7473.39247,653.320071 7474.09247,653.600071 7474.93247,653.600071 C7475.69247,653.600071 7476.47247,653.300071 7477.23247,652.700071 C7477.85247,652.220071 7478.17247,651.800071 7478.17247,651.400071 L7478.17247,651.400071 Z M7488.05247,644.920071 C7488.05247,644.720071 7487.97247,644.520071 7487.83247,644.340071 C7487.69247,644.180071 7487.53247,644.080071 7487.35247,644.080071 C7487.05247,644.080071 7486.63247,644.160071 7486.07247,644.280071 C7483.87247,644.800071 7481.91247,645.260071 7480.23247,645.660071 C7480.11247,645.700071 7480.03247,645.700071 7479.99247,645.700071 C7479.59247,645.780071 7479.39247,646.080071 7479.39247,646.580071 C7479.39247,647.140071 7479.61247,647.400071 7480.09247,647.400071 C7480.67247,647.280071 7481.13247,647.180071 7481.45247,647.080071 C7482.03247,646.960071 7482.53247,646.840071 7482.95247,646.760071 C7482.87247,648.300071 7482.83247,649.780071 7482.83247,651.180071 C7482.83247,652.540071 7482.91247,653.480071 7483.07247,654.000071 C7483.19247,654.360071 7483.43247,654.540071 7483.83247,654.540071 C7484.35247,654.540071 7484.61247,654.060071 7484.61247,653.120071 C7484.61247,652.660071 7484.51247,652.320071 7484.35247,652.100071 C7484.31247,651.600071 7484.29247,650.820071 7484.29247,649.740071 C7484.29247,648.900071 7484.35247,647.760071 7484.51247,646.340071 C7485.09247,646.200071 7485.49247,646.100071 7485.73247,646.060071 C7485.91247,646.180071 7486.05247,646.220071 7486.15247,646.220071 C7486.27247,646.220071 7486.41247,646.200071 7486.59247,646.120071 L7487.51247,645.700071 C7487.87247,645.540071 7488.05247,645.280071 7488.05247,644.920071 L7488.05247,644.920071 Z M7496.69247,653.360071 C7496.69247,653.220071 7496.59247,653.040071 7496.41247,652.840071 C7495.97247,652.360071 7495.77247,651.140071 7495.77247,649.180071 C7495.77247,648.480071 7495.87247,647.300071 7496.09247,645.640071 C7496.09247,645.420071 7495.99247,645.220071 7495.83247,645.020071 C7495.65247,644.840071 7495.45247,644.740071 7495.23247,644.740071 C7494.89247,644.740071 7494.17247,645.480071 7493.09247,646.960071 C7492.21247,648.120071 7491.49247,649.180071 7490.89247,650.100071 C7491.03247,648.540071 7491.13247,647.400071 7491.19247,646.720071 C7491.19247,646.400071 7491.07247,646.120071 7490.87247,645.880071 C7490.67247,645.660071 7490.41247,645.540071 7490.09247,645.540071 C7489.91247,645.540071 7489.75247,645.660071 7489.59247,645.880071 C7489.63247,646.460071 7489.67247,646.800071 7489.67247,646.880071 C7489.67247,647.240071 7489.61247,648.140071 7489.51247,649.600071 L7489.47247,650.180071 C7489.45247,650.480071 7489.41247,650.880071 7489.37247,651.380071 C7489.31247,651.860071 7489.27247,652.160071 7489.27247,652.280071 C7489.29247,652.560071 7489.37247,652.780071 7489.53247,652.900071 C7489.85247,653.220071 7490.05247,653.360071 7490.13247,653.360071 C7490.41247,653.360071 7490.75247,653.060071 7491.11247,652.420071 C7491.85247,651.180071 7492.37247,650.300071 7492.69247,649.820071 C7493.21247,648.960071 7493.77247,648.160071 7494.39247,647.440071 C7494.39247,647.640071 7494.37247,648.060071 7494.37247,648.680071 C7494.35247,649.320071 7494.35247,649.660071 7494.35247,649.740071 C7494.35247,650.780071 7494.45247,651.660071 7494.67247,652.420071 C7494.97247,653.520071 7495.41247,654.080071 7495.97247,654.080071 C7496.09247,654.080071 7496.25247,653.980071 7496.43247,653.820071 C7496.59247,653.620071 7496.69247,653.480071 7496.69247,653.360071 L7496.69247,653.360071 Z" id="Не-надо-тут-самодеят" transform="translate(7425.502470, 635.170071) rotate(-10.000000) translate(-7425.502470, -635.170071) "></path>
        </g>
    </g>
</svg>