<?xml version="1.0" encoding="UTF-8"?>
<svg width="822px" height="59px" viewBox="0 0 822 59" version="1.1" xmlns="http://www.w3.org/2000/svg" xmlns:xlink="http://www.w3.org/1999/xlink">
    <!-- Generator: Sketch 40.3 (33839) - http://www.bohemiancoding.com/sketch -->
    <title>Побаливает ли у вас</title>
    <desc>Created with Sketch.</desc>
    <defs></defs>
    <g id="Page-1" stroke="none" stroke-width="1" fill="none" fill-rule="evenodd">
        <g id="1600--copy-7" transform="translate(-389.000000, -221.000000)" fill="#FFFFFF">
            <path d="M420.372774,268.05916 C420.372774,267.426645 420.309522,266.983884 420.246271,266.604375 C419.170994,262.303269 418.664982,257.369647 418.664982,251.866761 C418.664982,245.73136 418.917988,239.975468 419.550503,234.535834 C420.056516,229.538961 420.372774,226.945647 420.372774,226.69264 C420.372774,225.237855 419.930013,223.972823 419.170994,222.834295 C418.158969,221.632516 416.957189,221 415.439152,221 C414.55363,221 407.469455,221.632516 394.060125,222.834295 C391.84632,223.02405 390.771044,223.84632 390.771044,225.364358 C390.771044,226.186628 390.834295,227.831168 391.02405,230.234728 C390.771044,236.623135 390.265031,243.833813 389.442761,251.866761 C389.126503,254.839584 389,256.926886 389,258.065414 C389,259.140691 389.253006,260.152715 389.759019,261.101489 C390.391534,262.240017 391.150553,262.809281 392.036075,262.809281 C393.680615,262.809281 394.566137,261.797256 394.566137,259.773206 C394.566137,255.219094 395.198653,244.719335 396.526936,228.400432 C399.56301,227.641414 405.571909,226.945647 414.490379,226.376383 C413.668108,243.327801 413.288599,252.309522 413.288599,253.321547 C413.288599,257.749156 413.541605,262.050262 414.110869,266.161614 C414.490379,269.324192 415.565655,270.968732 417.336699,270.968732 C417.905963,270.968732 418.60173,270.652474 419.360749,270.019959 C419.993264,269.387443 420.372774,268.691676 420.372774,268.05916 L420.372774,268.05916 Z M446.938429,251.044491 C446.938429,248.57768 446.242662,246.300624 444.851127,244.276574 C443.396341,242.315776 441.562046,240.924241 439.348242,240.165223 C438.46272,239.912216 437.956707,239.785713 437.830204,239.785713 C437.324192,239.785713 436.754928,240.101971 435.995909,240.607984 C435.110387,241.113996 434.41462,241.493505 433.908607,241.68326 C431.758054,242.758537 429.987011,244.656083 428.72198,247.312649 C427.456948,249.716208 426.887684,252.309522 426.887684,255.029339 C426.887684,258.255169 427.709955,260.911734 429.480998,262.999036 C431.252042,265.023086 433.465846,266.098362 436.122412,266.098362 C439.158487,266.098362 441.751801,264.706828 443.839102,261.797256 C445.863152,258.887684 446.938429,255.345597 446.938429,251.044491 L446.938429,251.044491 Z M441.941555,251.993264 C441.941555,254.143817 441.30904,256.104616 440.170512,257.938911 C438.905481,259.836458 437.577198,260.785231 436.05916,260.785231 C434.794129,260.785231 433.782104,260.215967 433.023086,259.014187 C432.200815,257.875659 431.821306,256.547377 431.821306,255.029339 C431.821306,253.005289 432.264067,251.107742 433.276092,249.336699 C434.41462,247.312649 435.869406,246.237372 437.640449,246.237372 C438.272965,246.616882 439.095235,246.806636 440.10726,246.806636 C441.30904,247.565655 441.941555,249.336699 441.941555,251.993264 L441.941555,251.993264 Z M479.259976,253.384799 C479.259976,249.905963 478.374454,247.059643 476.729913,244.845838 C474.832367,242.379027 472.239053,241.113996 468.88672,241.113996 C465.850645,241.113996 462.498312,242.695285 458.956225,245.794611 C459.96825,239.342952 464.269356,234.78884 471.986046,232.258778 C474.199851,231.499759 475.338379,230.424482 475.338379,228.906445 C475.338379,227.831168 474.95887,226.69264 474.326354,225.490861 C473.567335,224.352333 472.745065,223.719817 471.859543,223.719817 C471.037273,223.719817 470.594512,224.289081 470.53126,225.364358 C470.404757,226.629389 470.341506,227.261904 470.278254,227.388408 C470.0885,227.704665 469.455984,228.084175 468.380707,228.526936 C458.386961,232.575035 453.453339,240.101971 453.453339,251.170994 C453.453339,255.914861 454.402113,259.773206 456.426163,262.809281 C458.639967,265.971859 461.739294,267.6164 465.724142,267.6164 C469.266229,267.6164 472.365556,266.224865 475.148624,263.505048 C477.868441,260.72198 479.259976,257.369647 479.259976,253.384799 L479.259976,253.384799 Z M474.705863,251.930013 C474.705863,254.966088 473.820342,257.49615 472.112549,259.646703 C470.341506,261.797256 468.127701,262.872533 465.597639,262.872533 C463.573589,262.872533 461.865797,261.987011 460.600766,260.089464 C459.335734,258.191917 458.703219,255.851609 458.703219,253.005289 C458.703219,252.689031 458.703219,252.246271 458.76647,251.613755 C460.347759,251.424 461.233281,250.728233 461.423036,249.589705 C464.332608,247.186146 466.989173,245.921115 469.266229,245.921115 C470.657764,245.921115 471.922795,246.55363 473.061323,247.692158 C474.136599,248.957189 474.705863,250.348724 474.705863,251.930013 L474.705863,251.930013 Z M508.671951,250.285472 C508.671951,249.716208 508.355693,249.083693 507.849681,248.451177 C507.849681,246.996391 507.596674,245.73136 507.217165,244.592832 C507.280417,244.339826 507.343668,244.023568 507.343668,243.70731 C507.343668,242.948291 506.900907,242.189273 506.141889,241.556757 C505.319618,240.924241 504.497348,240.544732 503.675078,240.544732 C500.196242,240.544732 496.401148,242.568782 492.226545,246.490379 C487.862188,250.538478 485.711635,254.460075 485.711635,258.128666 C485.711635,260.089464 486.34415,261.797256 487.735685,263.315293 C489.063967,264.896582 490.645256,265.655601 492.479552,265.655601 C495.325872,265.655601 498.48845,263.884557 502.030537,260.34247 C502.346795,265.149589 503.422072,267.6164 505.256367,267.6164 C505.888882,267.6164 506.521398,267.363393 507.090662,266.983884 C507.596674,266.477871 507.912932,265.845356 507.912932,265.21284 C507.912932,265.023086 507.723178,264.264067 507.470171,262.746029 C507.153914,261.291244 507.02741,260.152715 507.02741,259.393697 C507.02741,256.863634 507.40692,254.333572 508.292442,251.677006 C508.545448,250.981239 508.671951,250.538478 508.671951,250.285472 L508.671951,250.285472 Z M502.916059,248.451177 C502.916059,250.60173 501.651028,253.131792 499.247469,256.041364 C496.843909,258.950936 494.630105,260.34247 492.732558,260.34247 C491.404275,260.34247 490.77176,259.583451 490.77176,258.002162 C490.77176,255.978113 492.353049,253.44805 495.578878,250.348724 C498.48845,247.565655 500.575751,246.110869 501.777531,246.110869 C502.53655,246.110869 502.916059,246.933139 502.916059,248.451177 L502.916059,248.451177 Z M540.67724,242.568782 C540.67724,241.620008 540.360982,240.797738 539.728467,240.038719 C539.159203,239.342952 538.463436,238.963443 537.577914,238.963443 C537.198404,238.963443 536.439386,239.342952 535.300858,239.975468 C534.16233,240.671235 531.379261,241.240499 526.8884,241.746512 C525.876375,240.924241 525.054105,240.48148 524.484841,240.48148 C523.789074,240.48148 523.030055,240.86099 522.271036,241.620008 C521.512018,242.379027 521.132508,243.201297 521.132508,243.960316 C521.132508,244.466329 521.385515,245.098844 521.891527,245.794611 C522.334288,246.55363 522.587294,247.3759 522.587294,248.324674 C522.587294,252.246271 522.271036,255.4721 521.638521,258.128666 C520.81625,261.227992 519.740974,262.746029 518.475943,262.746029 C517.96993,262.746029 517.590421,261.987011 517.463918,260.34247 C517.337415,259.709955 517.084408,259.330445 516.578396,259.330445 C515.692874,259.330445 515.060359,259.773206 514.617598,260.532225 C514.048334,261.417747 513.795327,262.429772 513.795327,263.505048 C513.795327,264.706828 514.238088,265.59235 515.186862,266.288117 C516.072384,266.920632 517.084408,267.300142 518.222937,267.300142 C521.512018,267.300142 523.852325,265.149589 525.24386,260.974986 C526.129381,258.31842 526.8884,253.511302 527.520916,246.55363 C529.102205,246.174121 531.505764,245.668108 534.794845,245.098844 C534.16233,251.297497 533.846072,255.978113 533.846072,259.140691 C533.846072,263.315293 534.099078,265.908607 534.668342,266.983884 C535.237606,268.05916 536.059876,268.628424 537.071901,268.628424 C538.716442,268.628424 539.538712,267.6164 539.538712,265.718853 C539.285706,264.580325 539.159203,263.5683 539.0327,262.682778 C538.716442,260.532225 538.589939,258.69793 538.589939,257.116641 C538.589939,253.701056 539.095951,249.716208 540.171228,245.162096 C540.487486,243.644058 540.67724,242.821788 540.67724,242.568782 L540.67724,242.568782 Z M570.595228,265.339343 C570.595228,264.896582 570.27897,264.327318 569.709706,263.694803 C568.318172,262.176765 567.685656,258.31842 567.685656,252.119767 C567.685656,249.905963 568.001914,246.174121 568.697681,240.924241 C568.697681,240.228474 568.381423,239.595959 567.875411,238.963443 C567.306147,238.394179 566.673631,238.077921 565.977864,238.077921 C564.902588,238.077921 562.625531,240.418229 559.209947,245.098844 C556.426879,248.767435 554.149822,252.119767 552.252276,255.029339 C552.695037,250.095717 553.011294,246.490379 553.201049,244.339826 C553.201049,243.327801 552.82154,242.442279 552.189024,241.68326 C551.556509,240.987493 550.734238,240.607984 549.722213,240.607984 C549.152949,240.607984 548.646937,240.987493 548.140924,241.68326 C548.267427,243.517555 548.393931,244.592832 548.393931,244.845838 C548.393931,245.984366 548.204176,248.830686 547.887918,253.44805 L547.761415,255.282345 C547.698163,256.231119 547.57166,257.49615 547.445157,259.077439 C547.255402,260.595476 547.128899,261.54425 547.128899,261.923759 C547.192151,262.809281 547.445157,263.505048 547.95117,263.884557 C548.963195,264.896582 549.59571,265.339343 549.848716,265.339343 C550.734238,265.339343 551.809515,264.39057 552.948043,262.36652 C555.288351,258.444923 556.932891,255.661855 557.944916,254.143817 C559.589457,251.424 561.3605,248.893938 563.321299,246.616882 C563.321299,247.249397 563.258047,248.57768 563.258047,250.538478 C563.194796,252.562528 563.194796,253.637805 563.194796,253.890811 C563.194796,257.179892 563.511053,259.962961 564.20682,262.36652 C565.155594,265.845356 566.547128,267.6164 568.318172,267.6164 C568.697681,267.6164 569.203694,267.300142 569.772958,266.794129 C570.27897,266.161614 570.595228,265.718853 570.595228,265.339343 L570.595228,265.339343 Z M602.221008,257.938911 C602.221008,254.333572 598.362663,252.372774 590.772476,252.056516 C596.591619,249.463202 599.501191,246.680133 599.501191,243.644058 C599.501191,241.68326 598.489166,240.165223 596.528367,239.089946 C594.947078,238.330927 593.049532,237.888166 590.835727,237.888166 C587.736401,237.888166 584.06781,238.077921 579.829956,238.45743 C577.932409,238.710437 577.046887,239.469455 577.046887,240.86099 C577.046887,242.379027 577.869157,243.074794 579.640201,243.074794 C579.956459,243.074794 580.462471,243.011543 581.158238,242.88504 C581.031735,256.863634 580.968484,264.074312 580.968484,264.453822 C578.754679,264.706828 577.679403,265.59235 577.679403,267.23689 C577.679403,268.375418 578.438421,269.007934 580.082962,269.197689 C581.411245,269.134437 583.372043,268.818179 585.965357,268.248915 C590.772476,267.110387 594.314563,265.971859 596.465116,264.959834 C600.26021,263.18879 602.221008,260.848483 602.221008,257.938911 L602.221008,257.938911 Z M594.630821,244.213322 C594.630821,246.047618 591.657997,248.008416 585.712351,250.095717 L585.838854,242.758537 C588.179162,242.568782 589.886954,242.442279 590.898979,242.442279 C593.365789,242.442279 594.630821,243.074794 594.630821,244.213322 L594.630821,244.213322 Z M597.477141,258.571426 C597.477141,259.5202 596.401864,260.468973 594.251311,261.354495 C592.100758,262.240017 589.191187,262.935784 585.585848,263.378545 L585.585848,255.408848 C589.760451,255.535352 592.670022,255.851609 594.441066,256.231119 C596.465116,256.737131 597.477141,257.49615 597.477141,258.571426 L597.477141,258.571426 Z M631.632983,250.285472 C631.632983,249.716208 631.316725,249.083693 630.810713,248.451177 C630.810713,246.996391 630.557707,245.73136 630.178197,244.592832 C630.241449,244.339826 630.3047,244.023568 630.3047,243.70731 C630.3047,242.948291 629.861939,242.189273 629.102921,241.556757 C628.28065,240.924241 627.45838,240.544732 626.63611,240.544732 C623.157274,240.544732 619.362181,242.568782 615.187578,246.490379 C610.82322,250.538478 608.672667,254.460075 608.672667,258.128666 C608.672667,260.089464 609.305183,261.797256 610.696717,263.315293 C612.025,264.896582 613.606289,265.655601 615.440584,265.655601 C618.286904,265.655601 621.449482,263.884557 624.991569,260.34247 C625.307827,265.149589 626.383104,267.6164 628.217399,267.6164 C628.849915,267.6164 629.48243,267.363393 630.051694,266.983884 C630.557707,266.477871 630.873964,265.845356 630.873964,265.21284 C630.873964,265.023086 630.68421,264.264067 630.431203,262.746029 C630.114946,261.291244 629.988443,260.152715 629.988443,259.393697 C629.988443,256.863634 630.367952,254.333572 631.253474,251.677006 C631.50648,250.981239 631.632983,250.538478 631.632983,250.285472 L631.632983,250.285472 Z M625.877091,248.451177 C625.877091,250.60173 624.61206,253.131792 622.208501,256.041364 C619.804941,258.950936 617.591137,260.34247 615.69359,260.34247 C614.365307,260.34247 613.732792,259.583451 613.732792,258.002162 C613.732792,255.978113 615.314081,253.44805 618.53991,250.348724 C621.449482,247.565655 623.536783,246.110869 624.738563,246.110869 C625.497582,246.110869 625.877091,246.933139 625.877091,248.451177 L625.877091,248.451177 Z M663.195511,263.821306 C663.195511,263.18879 662.942505,262.556275 662.436493,261.923759 C661.93048,261.417747 661.297965,261.101489 660.665449,261.101489 C660.159437,261.101489 659.337166,261.227992 658.26189,261.354495 C657.186613,261.480998 656.364343,261.54425 655.858331,261.54425 C653.960784,261.54425 652.316243,260.658728 650.798206,258.824433 C657.123362,255.408848 660.28594,251.360749 660.28594,246.680133 C660.28594,244.90909 659.526921,243.201297 658.008884,241.68326 C656.490846,240.165223 654.972809,239.406204 653.39152,239.406204 C650.671703,239.406204 648.457898,240.987493 646.686854,244.086819 C645.168817,246.743385 644.409798,249.589705 644.409798,252.62578 C644.409798,253.258295 644.47305,254.143817 644.662804,255.219094 L643.208019,255.219094 C642.322497,255.219094 641.500226,254.902836 640.614705,254.27032 C639.729183,253.637805 639.096667,253.321547 638.717158,253.321547 C637.072617,253.321547 636.250347,254.207069 636.250347,255.978113 C636.250347,257.369647 637.262372,258.508175 639.412925,259.393697 C641.057466,260.089464 642.638755,260.405722 644.283295,260.405722 L646.180842,260.405722 C648.457898,264.770079 651.999985,266.920632 656.807104,266.920632 C661.044958,266.920632 663.195511,265.845356 663.195511,263.821306 L663.195511,263.821306 Z M655.289066,246.933139 C655.289066,249.020441 653.39152,251.297497 649.596426,253.764308 L649.596426,252.62578 C649.596426,250.917988 649.849432,249.273447 650.481948,247.692158 C651.114464,245.794611 651.999985,244.845838 653.138513,244.845838 C653.644526,244.845838 654.150538,245.098844 654.656551,245.478354 C655.03606,245.984366 655.289066,246.427127 655.289066,246.933139 L655.289066,246.933139 Z M693.303254,238.647185 C693.303254,238.01467 693.050248,237.382154 692.607487,236.81289 C692.164726,236.306877 691.658713,235.99062 691.089449,235.99062 C690.140676,235.99062 688.812393,236.243626 687.041349,236.623135 C680.083678,238.267676 673.885025,239.722462 668.571894,240.987493 C668.192385,241.113996 667.939378,241.113996 667.812875,241.113996 C666.547844,241.367002 665.915329,242.315776 665.915329,243.897065 C665.915329,245.668108 666.611096,246.490379 668.129133,246.490379 C669.963428,246.110869 671.418214,245.794611 672.430239,245.478354 C674.264534,245.098844 675.845823,244.719335 677.174106,244.466329 C676.9211,249.336699 676.794597,254.017314 676.794597,258.444923 C676.794597,262.746029 677.047603,265.718853 677.553615,267.363393 C677.933125,268.501921 678.692144,269.071185 679.957175,269.071185 C681.601715,269.071185 682.423986,267.553148 682.423986,264.580325 C682.423986,263.125539 682.107728,262.050262 681.601715,261.354495 C681.475212,259.773206 681.411961,257.306395 681.411961,253.890811 C681.411961,251.234246 681.601715,247.628907 682.107728,243.138046 C683.942023,242.695285 685.207054,242.379027 685.966073,242.252524 C686.535337,242.632033 686.978098,242.758537 687.294356,242.758537 C687.673865,242.758537 688.116626,242.695285 688.68589,242.442279 L691.595462,241.113996 C692.73399,240.607984 693.303254,239.785713 693.303254,238.647185 L693.303254,238.647185 Z M744.347263,242.568782 C744.347263,241.620008 744.031005,240.797738 743.398489,240.038719 C742.829225,239.342952 742.133458,238.963443 741.247936,238.963443 C740.868427,238.963443 740.109408,239.342952 738.97088,239.975468 C737.832352,240.671235 735.049283,241.240499 730.558423,241.746512 C729.546398,240.924241 728.724127,240.48148 728.154863,240.48148 C727.459096,240.48148 726.700077,240.86099 725.941059,241.620008 C725.18204,242.379027 724.802531,243.201297 724.802531,243.960316 C724.802531,244.466329 725.055537,245.098844 725.561549,245.794611 C726.00431,246.55363 726.257316,247.3759 726.257316,248.324674 C726.257316,252.246271 725.941059,255.4721 725.308543,258.128666 C724.486273,261.227992 723.410996,262.746029 722.145965,262.746029 C721.639953,262.746029 721.260443,261.987011 721.13394,260.34247 C721.007437,259.709955 720.754431,259.330445 720.248418,259.330445 C719.362896,259.330445 718.730381,259.773206 718.28762,260.532225 C717.718356,261.417747 717.46535,262.429772 717.46535,263.505048 C717.46535,264.706828 717.908111,265.59235 718.856884,266.288117 C719.742406,266.920632 720.754431,267.300142 721.892959,267.300142 C725.18204,267.300142 727.522348,265.149589 728.913882,260.974986 C729.799404,258.31842 730.558423,253.511302 731.190938,246.55363 C732.772227,246.174121 735.175786,245.668108 738.464868,245.098844 C737.832352,251.297497 737.516094,255.978113 737.516094,259.140691 C737.516094,263.315293 737.7691,265.908607 738.338364,266.983884 C738.907628,268.05916 739.729899,268.628424 740.741924,268.628424 C742.386464,268.628424 743.208734,267.6164 743.208734,265.718853 C742.955728,264.580325 742.829225,263.5683 742.702722,262.682778 C742.386464,260.532225 742.259961,258.69793 742.259961,257.116641 C742.259961,253.701056 742.765974,249.716208 743.84125,245.162096 C744.157508,243.644058 744.347263,242.821788 744.347263,242.568782 L744.347263,242.568782 Z M774.26525,265.339343 C774.26525,264.896582 773.948993,264.327318 773.379728,263.694803 C771.988194,262.176765 771.355679,258.31842 771.355679,252.119767 C771.355679,249.905963 771.671936,246.174121 772.367704,240.924241 C772.367704,240.228474 772.051446,239.595959 771.545433,238.963443 C770.976169,238.394179 770.343654,238.077921 769.647886,238.077921 C768.57261,238.077921 766.295554,240.418229 762.87997,245.098844 C760.096901,248.767435 757.819845,252.119767 755.922298,255.029339 C756.365059,250.095717 756.681317,246.490379 756.871071,244.339826 C756.871071,243.327801 756.491562,242.442279 755.859046,241.68326 C755.226531,240.987493 754.404261,240.607984 753.392236,240.607984 C752.822972,240.607984 752.316959,240.987493 751.810947,241.68326 C751.93745,243.517555 752.063953,244.592832 752.063953,244.845838 C752.063953,245.984366 751.874198,248.830686 751.55794,253.44805 L751.431437,255.282345 C751.368186,256.231119 751.241683,257.49615 751.115179,259.077439 C750.925425,260.595476 750.798922,261.54425 750.798922,261.923759 C750.862173,262.809281 751.115179,263.505048 751.621192,263.884557 C752.633217,264.896582 753.265732,265.339343 753.518739,265.339343 C754.404261,265.339343 755.479537,264.39057 756.618065,262.36652 C758.958373,258.444923 760.602913,255.661855 761.614938,254.143817 C763.259479,251.424 765.030523,248.893938 766.991321,246.616882 C766.991321,247.249397 766.928069,248.57768 766.928069,250.538478 C766.864818,252.562528 766.864818,253.637805 766.864818,253.890811 C766.864818,257.179892 767.181076,259.962961 767.876843,262.36652 C768.825616,265.845356 770.217151,267.6164 771.988194,267.6164 C772.367704,267.6164 772.873716,267.300142 773.44298,266.794129 C773.948993,266.161614 774.26525,265.718853 774.26525,265.339343 L774.26525,265.339343 Z M825.372511,254.586578 L825.372511,250.348724 C825.372511,245.921115 824.360486,243.644058 822.399687,243.644058 C821.387662,243.644058 820.438889,244.52958 819.490116,246.174121 C817.529317,249.652957 816.01128,252.119767 814.872752,253.511302 C813.354714,255.408848 811.899928,256.357622 810.508394,256.357622 C809.496369,256.357622 809.053608,255.788358 809.053608,254.64983 C809.053608,253.637805 809.243363,251.677006 809.622872,248.767435 C810.002382,245.857863 810.255388,244.086819 810.255388,243.517555 C810.255388,241.999518 810.002382,240.607984 809.496369,239.469455 C808.927105,238.077921 808.104835,237.382154 807.09281,237.382154 C805.195263,237.382154 804.309741,238.204424 804.309741,239.785713 C804.309741,240.165223 804.372993,240.671235 804.625999,241.430254 C804.815754,242.189273 804.942257,242.695285 804.942257,243.074794 C804.942257,244.339826 804.752502,246.237372 804.436244,248.893938 C804.119987,251.550503 803.993483,253.574553 803.993483,254.839584 C803.993483,256.926886 804.562747,258.634678 805.764527,259.962961 C806.903055,261.354495 808.421093,261.987011 810.445142,261.987011 C813.670972,261.987011 816.960053,259.646703 820.312386,254.966088 C820.312386,257.116641 820.122631,259.140691 819.806373,261.101489 C818.288336,269.513946 812.722199,273.751801 803.04471,273.878304 C801.526673,273.688549 800.388144,273.562046 799.629126,273.498795 C798.047837,273.562046 797.225567,274.384316 797.225567,276.028857 C797.225567,278.305913 799.186365,279.507693 803.107962,279.507693 C809.306614,279.507693 814.303488,277.799901 818.225084,274.51082 C822.968951,270.46272 825.372511,263.884557 825.372511,254.586578 L825.372511,254.586578 Z M878.630324,257.938911 C878.630324,254.333572 874.771979,252.372774 867.181792,252.056516 C873.000935,249.463202 875.910507,246.680133 875.910507,243.644058 C875.910507,241.68326 874.898482,240.165223 872.937684,239.089946 C871.356395,238.330927 869.458848,237.888166 867.245043,237.888166 C864.145717,237.888166 860.477126,238.077921 856.239272,238.45743 C854.341725,238.710437 853.456203,239.469455 853.456203,240.86099 C853.456203,242.379027 854.278473,243.074794 856.049517,243.074794 C856.365775,243.074794 856.871787,243.011543 857.567554,242.88504 C857.441051,256.863634 857.3778,264.074312 857.3778,264.453822 C855.163995,264.706828 854.088719,265.59235 854.088719,267.23689 C854.088719,268.375418 854.847737,269.007934 856.492278,269.197689 C857.820561,269.134437 859.781359,268.818179 862.374673,268.248915 C867.181792,267.110387 870.723879,265.971859 872.874432,264.959834 C876.669526,263.18879 878.630324,260.848483 878.630324,257.938911 L878.630324,257.938911 Z M871.040137,244.213322 C871.040137,246.047618 868.067313,248.008416 862.121667,250.095717 L862.24817,242.758537 C864.588478,242.568782 866.29627,242.442279 867.308295,242.442279 C869.775106,242.442279 871.040137,243.074794 871.040137,244.213322 L871.040137,244.213322 Z M873.886457,258.571426 C873.886457,259.5202 872.81118,260.468973 870.660627,261.354495 C868.510074,262.240017 865.600503,262.935784 861.995164,263.378545 L861.995164,255.408848 C866.169767,255.535352 869.079338,255.851609 870.850382,256.231119 C872.874432,256.737131 873.886457,257.49615 873.886457,258.571426 L873.886457,258.571426 Z M908.042299,250.285472 C908.042299,249.716208 907.726041,249.083693 907.220029,248.451177 C907.220029,246.996391 906.967023,245.73136 906.587513,244.592832 C906.650765,244.339826 906.714016,244.023568 906.714016,243.70731 C906.714016,242.948291 906.271255,242.189273 905.512237,241.556757 C904.689966,240.924241 903.867696,240.544732 903.045426,240.544732 C899.56659,240.544732 895.771497,242.568782 891.596894,246.490379 C887.232536,250.538478 885.081983,254.460075 885.081983,258.128666 C885.081983,260.089464 885.714499,261.797256 887.106033,263.315293 C888.434316,264.896582 890.015605,265.655601 891.8499,265.655601 C894.69622,265.655601 897.858798,263.884557 901.400885,260.34247 C901.717143,265.149589 902.79242,267.6164 904.626715,267.6164 C905.259231,267.6164 905.891746,267.363393 906.46101,266.983884 C906.967023,266.477871 907.28328,265.845356 907.28328,265.21284 C907.28328,265.023086 907.093526,264.264067 906.84052,262.746029 C906.524262,261.291244 906.397759,260.152715 906.397759,259.393697 C906.397759,256.863634 906.777268,254.333572 907.66279,251.677006 C907.915796,250.981239 908.042299,250.538478 908.042299,250.285472 L908.042299,250.285472 Z M902.286407,248.451177 C902.286407,250.60173 901.021376,253.131792 898.617817,256.041364 C896.214257,258.950936 894.000453,260.34247 892.102906,260.34247 C890.774623,260.34247 890.142108,259.583451 890.142108,258.002162 C890.142108,255.978113 891.723397,253.44805 894.949226,250.348724 C897.858798,247.565655 899.9461,246.110869 901.147879,246.110869 C901.906898,246.110869 902.286407,246.933139 902.286407,248.451177 L902.286407,248.451177 Z M934.03869,259.140691 C934.03869,258.508175 933.785684,257.875659 933.279671,257.243144 C932.773659,256.737131 932.204395,256.420873 931.571879,256.420873 C931.065867,256.420873 930.306848,256.863634 929.421326,257.685905 C928.662308,258.31842 927.903289,258.950936 927.270773,259.583451 C926.195497,260.405722 924.867214,260.785231 923.285925,260.785231 C920.755863,260.785231 919.554083,259.267194 919.554083,256.104616 C919.554083,254.143817 920.123347,252.183019 921.261875,250.285472 C922.400403,248.387925 923.791938,246.806636 925.49973,245.668108 C926.258748,246.110869 927.397276,246.300624 928.978565,246.300624 C929.800836,246.300624 930.623106,245.984366 931.445376,245.225347 C932.141143,244.466329 932.520653,243.770562 932.520653,243.011543 C932.520653,241.999518 932.141143,241.240499 931.382125,240.607984 C930.559854,240.038719 929.674333,239.722462 928.725559,239.722462 C924.740711,239.722462 921.198624,241.809763 918.162549,245.921115 C915.695738,249.210196 914.493958,252.815535 914.493958,256.737131 C914.493958,259.5202 915.37948,261.734004 917.150524,263.505048 C918.921567,265.21284 921.135372,266.098362 923.791938,266.098362 C926.195497,266.098362 928.662308,265.149589 931.065867,263.252042 C933.026665,261.734004 934.03869,260.405722 934.03869,259.140691 L934.03869,259.140691 Z M983.817668,241.303751 C983.817668,240.607984 983.50141,239.975468 982.868894,239.469455 C982.173127,239.026695 981.47736,238.773688 980.781593,238.647185 C974.329934,239.153198 969.206557,239.595959 965.537967,239.848965 C963.324162,240.038719 962.248886,240.797738 962.248886,242.189273 C962.248886,243.074794 962.375389,243.833813 962.754898,244.52958 C962.312137,251.044491 962.122383,254.333572 962.122383,254.460075 C961.679622,259.014187 961.489867,261.291244 961.489867,261.291244 C961.489867,262.113514 961.742873,262.935784 962.312137,263.758054 C962.881401,264.580325 963.513917,264.959834 964.272936,264.959834 C965.537967,264.959834 966.170483,264.137564 966.296986,262.429772 C966.676495,255.598603 967.056004,249.716208 967.562017,244.782586 C970.787846,244.339826 974.140179,244.023568 977.619015,243.897065 C977.619015,244.086819 977.492512,247.186146 977.302757,253.131792 C977.049751,258.444923 976.986499,261.291244 976.986499,261.670753 C976.986499,265.782104 978.061776,267.869406 980.338832,267.869406 C981.540612,267.869406 982.173127,267.173639 982.173127,265.908607 C981.793618,264.011061 981.667115,262.240017 981.667115,260.72198 C981.667115,258.69793 981.793618,255.4721 982.046624,251.044491 C982.109876,250.348724 982.236379,249.336699 982.426133,247.945164 C982.552637,246.806636 982.615888,246.174121 982.615888,245.921115 C982.615888,245.541605 982.489385,244.972341 982.362882,244.213322 C983.311655,243.201297 983.817668,242.252524 983.817668,241.303751 L983.817668,241.303751 Z M1010.38332,251.044491 C1010.38332,248.57768 1009.68756,246.300624 1008.29602,244.276574 C1006.84124,242.315776 1005.00694,240.924241 1002.79314,240.165223 C1001.90761,239.912216 1001.4016,239.785713 1001.2751,239.785713 C1000.76909,239.785713 1000.19982,240.101971 999.440803,240.607984 C998.555281,241.113996 997.859514,241.493505 997.353502,241.68326 C995.202948,242.758537 993.431905,244.656083 992.166874,247.312649 C990.901842,249.716208 990.332578,252.309522 990.332578,255.029339 C990.332578,258.255169 991.154849,260.911734 992.925892,262.999036 C994.696936,265.023086 996.910741,266.098362 999.567306,266.098362 C1002.60338,266.098362 1005.19669,264.706828 1007.284,261.797256 C1009.30805,258.887684 1010.38332,255.345597 1010.38332,251.044491 L1010.38332,251.044491 Z M1005.38645,251.993264 C1005.38645,254.143817 1004.75393,256.104616 1003.61541,257.938911 C1002.35037,259.836458 1001.02209,260.785231 999.504055,260.785231 C998.239023,260.785231 997.226998,260.215967 996.46798,259.014187 C995.645709,257.875659 995.2662,256.547377 995.2662,255.029339 C995.2662,253.005289 995.708961,251.107742 996.720986,249.336699 C997.859514,247.312649 999.3143,246.237372 1001.08534,246.237372 C1001.71786,246.616882 1002.54013,246.806636 1003.55215,246.806636 C1004.75393,247.565655 1005.38645,249.336699 1005.38645,251.993264 L1005.38645,251.993264 Z M1037.32849,247.439152 C1037.32849,245.541605 1036.63272,244.52958 1035.30444,244.52958 C1034.16591,244.52958 1033.34364,245.162096 1032.96413,246.427127 C1031.8256,250.095717 1029.16904,251.866761 1025.12094,251.866761 C1022.52762,251.866761 1021.26259,251.297497 1021.26259,250.158969 C1021.26259,248.830686 1022.71738,247.249397 1025.62695,245.478354 C1028.28351,243.960316 1030.37082,243.201297 1032.01536,243.201297 C1032.39487,243.201297 1032.64787,243.264549 1032.83763,243.327801 C1033.21714,243.770562 1033.59665,243.960316 1034.03941,243.960316 C1034.54542,243.960316 1035.11468,243.70731 1035.68395,243.201297 C1036.18996,242.695285 1036.44297,242.126021 1036.44297,241.493505 C1036.44297,239.722462 1035.17793,238.773688 1032.77437,238.773688 C1029.67505,238.773688 1026.38597,239.848965 1022.84388,241.999518 C1018.73253,244.52958 1016.70848,247.312649 1016.70848,250.348724 C1016.70848,252.309522 1017.4675,253.82756 1019.04879,254.839584 C1020.18731,255.725106 1021.7686,256.104616 1023.7294,256.104616 L1024.29867,256.104616 L1020.06081,259.646703 L1019.6813,259.077439 C1018.98553,259.836458 1018.41627,260.468973 1018.03676,260.848483 C1017.40425,261.101489 1016.83498,261.607501 1016.39222,262.303269 C1015.82296,263.062287 1015.56995,263.758054 1015.56995,264.453822 C1015.56995,265.086337 1015.82296,265.655601 1016.39222,266.288117 C1016.89823,266.794129 1017.53075,267.110387 1018.16326,267.110387 C1018.79578,267.110387 1019.74455,266.477871 1021.00958,265.276092 C1025.50045,261.16474 1028.97928,258.065414 1031.38284,255.978113 C1030.68707,261.16474 1030.37082,264.074312 1030.37082,264.706828 C1030.37082,266.794129 1031.19309,267.869406 1032.83763,267.869406 C1034.22916,267.869406 1035.05143,266.983884 1035.17793,265.339343 C1036.06346,257.369647 1036.75922,251.424 1037.32849,247.439152 L1037.32849,247.439152 Z M1063.38813,259.140691 C1063.38813,258.508175 1063.13512,257.875659 1062.62911,257.243144 C1062.1231,256.737131 1061.55383,256.420873 1060.92132,256.420873 C1060.41531,256.420873 1059.65629,256.863634 1058.77077,257.685905 C1058.01175,258.31842 1057.25273,258.950936 1056.62021,259.583451 C1055.54494,260.405722 1054.21665,260.785231 1052.63536,260.785231 C1050.1053,260.785231 1048.90352,259.267194 1048.90352,256.104616 C1048.90352,254.143817 1049.47279,252.183019 1050.61131,250.285472 C1051.74984,248.387925 1053.14138,246.806636 1054.84917,245.668108 C1055.60819,246.110869 1056.74672,246.300624 1058.32801,246.300624 C1059.15028,246.300624 1059.97255,245.984366 1060.79482,245.225347 C1061.49058,244.466329 1061.87009,243.770562 1061.87009,243.011543 C1061.87009,241.999518 1061.49058,241.240499 1060.73156,240.607984 C1059.90929,240.038719 1059.02377,239.722462 1058.075,239.722462 C1054.09015,239.722462 1050.54806,241.809763 1047.51199,245.921115 C1045.04518,249.210196 1043.8434,252.815535 1043.8434,256.737131 C1043.8434,259.5202 1044.72892,261.734004 1046.49996,263.505048 C1048.27101,265.21284 1050.48481,266.098362 1053.14138,266.098362 C1055.54494,266.098362 1058.01175,265.149589 1060.41531,263.252042 C1062.3761,261.734004 1063.38813,260.405722 1063.38813,259.140691 L1063.38813,259.140691 Z M1090.27004,241.556757 C1090.27004,239.912216 1089.51102,239.089946 1087.99299,239.089946 C1086.72796,239.089946 1085.90569,240.228474 1085.58943,242.379027 C1085.27317,244.086819 1084.89366,246.490379 1084.51415,249.589705 C1081.73108,250.285472 1079.01127,250.791485 1076.3547,251.044491 C1076.98722,246.996391 1077.61973,243.960316 1078.25225,241.873015 C1078.63176,240.734487 1078.94801,239.848965 1079.26427,239.089946 C1079.13777,237.382154 1078.37875,236.496632 1076.86071,236.496632 C1075.78544,236.496632 1075.08967,237.002645 1074.71016,238.01467 C1073.44513,241.050744 1072.4331,245.415102 1071.80059,251.107742 C1070.78856,251.107742 1070.0928,251.044491 1069.71329,250.981239 C1068.44825,250.981239 1067.87899,251.740258 1067.87899,253.131792 C1067.87899,254.713081 1068.76451,255.4721 1070.59881,255.4721 L1071.35783,255.4721 C1071.16807,257.875659 1070.97832,260.595476 1070.85181,263.758054 C1070.85181,263.947809 1070.78856,264.264067 1070.72531,264.643576 C1070.59881,265.023086 1070.59881,265.276092 1070.59881,265.529098 C1070.59881,266.161614 1070.85181,266.730878 1071.35783,267.23689 C1071.86384,267.742903 1072.4331,267.995909 1073.06562,267.995909 C1074.58366,267.995909 1075.40593,267.173639 1075.46918,265.59235 C1075.46918,263.441797 1075.65893,260.026212 1075.97519,255.345597 C1078.69501,255.092591 1081.35157,254.64983 1084.00814,254.017314 C1083.69188,257.369647 1083.50213,260.026212 1083.50213,261.923759 C1083.50213,262.113514 1083.43887,262.36652 1083.37562,262.746029 C1083.24912,263.062287 1083.18587,263.315293 1083.18587,263.505048 C1083.18587,265.023086 1083.37562,266.161614 1083.88164,266.920632 C1084.38765,267.742903 1084.95691,268.185664 1085.71593,268.185664 C1086.34845,268.185664 1086.91771,267.932657 1087.42372,267.426645 C1087.86648,266.920632 1088.11949,266.288117 1088.11949,265.59235 C1088.11949,265.465846 1088.05624,265.149589 1088.05624,264.517073 C1087.99299,263.884557 1087.99299,263.378545 1087.99299,263.125539 C1087.99299,258.887684 1088.6255,252.372774 1090.01704,243.580807 C1090.14354,242.442279 1090.27004,241.809763 1090.27004,241.556757 L1090.27004,241.556757 Z M1120.18803,265.339343 C1120.18803,264.896582 1119.87177,264.327318 1119.30251,263.694803 C1117.91097,262.176765 1117.27846,258.31842 1117.27846,252.119767 C1117.27846,249.905963 1117.59472,246.174121 1118.29048,240.924241 C1118.29048,240.228474 1117.97423,239.595959 1117.46821,238.963443 C1116.89895,238.394179 1116.26643,238.077921 1115.57067,238.077921 C1114.49539,238.077921 1112.21833,240.418229 1108.80275,245.098844 C1106.01968,248.767435 1103.74262,252.119767 1101.84508,255.029339 C1102.28784,250.095717 1102.6041,246.490379 1102.79385,244.339826 C1102.79385,243.327801 1102.41434,242.442279 1101.78183,241.68326 C1101.14931,240.987493 1100.32704,240.607984 1099.31502,240.607984 C1098.74575,240.607984 1098.23974,240.987493 1097.73373,241.68326 C1097.86023,243.517555 1097.98673,244.592832 1097.98673,244.845838 C1097.98673,245.984366 1097.79698,248.830686 1097.48072,253.44805 L1097.35422,255.282345 C1097.29097,256.231119 1097.16446,257.49615 1097.03796,259.077439 C1096.8482,260.595476 1096.7217,261.54425 1096.7217,261.923759 C1096.78495,262.809281 1097.03796,263.505048 1097.54397,263.884557 C1098.556,264.896582 1099.18851,265.339343 1099.44152,265.339343 C1100.32704,265.339343 1101.40232,264.39057 1102.54085,262.36652 C1104.88115,258.444923 1106.52569,255.661855 1107.53772,254.143817 C1109.18226,251.424 1110.9533,248.893938 1112.9141,246.616882 C1112.9141,247.249397 1112.85085,248.57768 1112.85085,250.538478 C1112.7876,252.562528 1112.7876,253.637805 1112.7876,253.890811 C1112.7876,257.179892 1113.10386,259.962961 1113.79962,262.36652 C1114.7484,265.845356 1116.13993,267.6164 1117.91097,267.6164 C1118.29048,267.6164 1118.7965,267.300142 1119.36576,266.794129 C1119.87177,266.161614 1120.18803,265.718853 1120.18803,265.339343 L1120.18803,265.339343 Z M1149.53675,265.402595 C1149.53675,262.493023 1148.46148,260.848483 1146.43743,260.468973 C1145.80491,260.595476 1145.36215,260.72198 1145.04589,260.72198 C1145.80491,252.119767 1146.31092,246.174121 1146.56393,242.88504 C1146.56393,242.126021 1146.24767,241.303751 1145.67841,240.48148 C1145.04589,239.65921 1144.41338,239.216449 1143.71761,239.216449 C1142.38933,239.216449 1141.63031,239.785713 1141.44055,240.797738 L1141.44055,246.110869 C1141.44055,248.704183 1140.99779,253.82756 1140.23877,261.417747 C1135.68466,262.113514 1133.0281,262.429772 1132.33233,262.429772 C1131.69981,262.429772 1131.38356,262.050262 1131.38356,261.227992 L1131.82632,253.44805 C1132.14258,248.324674 1132.33233,245.668108 1132.33233,245.415102 C1132.33233,243.833813 1132.07932,242.379027 1131.63656,240.987493 C1131.00405,239.216449 1130.05527,238.267676 1128.79024,238.267676 C1127.58846,238.267676 1126.95595,238.963443 1126.82944,240.354977 C1126.8927,241.68326 1126.95595,242.695285 1127.08245,243.327801 C1127.20895,245.35185 1127.33546,246.363875 1127.33546,246.427127 C1127.33546,248.198171 1127.20895,250.728233 1127.0192,254.143817 C1126.76619,257.559402 1126.63969,260.152715 1126.63969,261.860508 C1126.63969,264.137564 1127.33546,265.655601 1128.79024,266.667626 C1129.80227,267.300142 1130.68779,267.679651 1131.44681,267.679651 L1137.70871,266.730878 C1140.11227,266.351368 1142.19957,266.224865 1144.09712,266.224865 C1144.60313,266.224865 1144.85614,266.477871 1144.85614,267.047135 C1144.85614,267.806154 1144.72964,268.628424 1144.47663,269.513946 C1144.03387,270.905481 1143.84411,271.791002 1143.84411,272.044009 C1143.84411,272.297015 1144.03387,272.676524 1144.47663,273.119285 C1144.91939,273.498795 1145.2989,273.751801 1145.61516,273.751801 C1146.62718,273.751801 1147.57596,272.613273 1148.46148,270.336217 C1149.15724,268.43867 1149.53675,266.794129 1149.53675,265.402595 L1149.53675,265.402595 Z M1177.62045,250.285472 C1177.62045,249.716208 1177.30419,249.083693 1176.79818,248.451177 C1176.79818,246.996391 1176.54517,245.73136 1176.16566,244.592832 C1176.22891,244.339826 1176.29216,244.023568 1176.29216,243.70731 C1176.29216,242.948291 1175.8494,242.189273 1175.09038,241.556757 C1174.26811,240.924241 1173.44584,240.544732 1172.62357,240.544732 C1169.14474,240.544732 1165.34964,242.568782 1161.17504,246.490379 C1156.81068,250.538478 1154.66013,254.460075 1154.66013,258.128666 C1154.66013,260.089464 1155.29265,261.797256 1156.68418,263.315293 C1158.01246,264.896582 1159.59375,265.655601 1161.42805,265.655601 C1164.27437,265.655601 1167.43695,263.884557 1170.97903,260.34247 C1171.29529,265.149589 1172.37057,267.6164 1174.20486,267.6164 C1174.83738,267.6164 1175.46989,267.363393 1176.03916,266.983884 C1176.54517,266.477871 1176.86143,265.845356 1176.86143,265.21284 C1176.86143,265.023086 1176.67167,264.264067 1176.41867,262.746029 C1176.10241,261.291244 1175.97591,260.152715 1175.97591,259.393697 C1175.97591,256.863634 1176.35542,254.333572 1177.24094,251.677006 C1177.49394,250.981239 1177.62045,250.538478 1177.62045,250.285472 L1177.62045,250.285472 Z M1171.86455,248.451177 C1171.86455,250.60173 1170.59952,253.131792 1168.19596,256.041364 C1165.79241,258.950936 1163.5786,260.34247 1161.68105,260.34247 C1160.35277,260.34247 1159.72026,259.583451 1159.72026,258.002162 C1159.72026,255.978113 1161.30154,253.44805 1164.52737,250.348724 C1167.43695,247.565655 1169.52425,246.110869 1170.72603,246.110869 C1171.48505,246.110869 1171.86455,246.933139 1171.86455,248.451177 L1171.86455,248.451177 Z M1210.195,231.499759 C1210.195,228.273929 1208.99322,225.743867 1206.58966,223.909572 C1204.43911,222.265031 1201.52954,221.379509 1197.98745,221.379509 C1196.53266,221.379509 1194.82487,221.632516 1192.92732,222.075277 C1191.85205,221.759019 1191.28278,221.569264 1191.21953,221.569264 C1190.46051,221.569264 1189.70149,221.948773 1188.87922,222.581289 C1188.12021,223.277056 1187.7407,223.972823 1187.7407,224.731842 C1187.7407,225.617364 1187.9937,226.313131 1188.49972,226.819143 C1189.00573,227.451659 1189.63824,227.704665 1190.52376,227.704665 C1190.71352,227.704665 1191.34604,227.641414 1192.35806,227.388408 C1195.39414,226.882395 1197.03868,226.566137 1197.29168,226.566137 C1202.47831,226.566137 1205.13488,228.210678 1205.13488,231.436507 C1205.13488,233.840067 1203.68009,235.927368 1200.83377,237.571909 C1198.36696,239.026695 1195.45739,239.912216 1192.10505,240.291726 C1190.081,240.544732 1189.13223,241.430254 1189.13223,242.88504 C1189.13223,243.201297 1189.32199,243.897065 1189.76475,245.035593 C1190.65027,247.75541 1191.21953,250.411975 1191.53579,253.005289 C1191.72554,254.776333 1192.54781,255.598603 1194.0026,255.598603 C1195.64714,255.598603 1196.53266,254.713081 1196.53266,252.815535 C1196.53266,250.854736 1196.02665,248.134919 1195.07788,244.719335 C1199.06273,244.086819 1202.54156,242.632033 1205.45113,240.354977 C1208.61371,237.824915 1210.195,234.915343 1210.195,231.499759 L1210.195,231.499759 Z M1197.79769,264.074312 C1197.79769,263.062287 1197.41818,262.240017 1196.72242,261.607501 C1195.90015,261.101489 1195.01463,260.785231 1194.1291,260.785231 C1193.05383,260.785231 1192.23156,261.227992 1191.59904,262.050262 C1190.96653,262.809281 1190.65027,263.758054 1190.65027,264.833331 C1190.65027,265.782104 1190.90327,266.604375 1191.47254,267.300142 C1192.0418,267.932657 1192.67432,268.312167 1193.37009,268.312167 C1194.82487,268.312167 1195.9634,267.932657 1196.72242,267.173639 C1197.41818,266.351368 1197.79769,265.339343 1197.79769,264.074312 L1197.79769,264.074312 Z" id="Побаливает-ли-у-вас"></path>
        </g>
    </g>
</svg>