<?xml version="1.0" encoding="UTF-8"?>
<svg width="690px" height="48px" viewBox="0 0 690 48" version="1.1" xmlns="http://www.w3.org/2000/svg" xmlns:xlink="http://www.w3.org/1999/xlink">
    <!-- Generator: Sketch 40.3 (33839) - http://www.bohemiancoding.com/sketch -->
    <title>Постоянно хочется пи</title>
    <desc>Created with Sketch.</desc>
    <defs></defs>
    <g id="Page-1" stroke="none" stroke-width="1" fill="none" fill-rule="evenodd">
        <g id="1600--copy-7" transform="translate(-453.000000, -288.000000)" fill="#FFFFFF">
            <path d="M483.66,332.94 C483.66,332.34 483.6,331.92 483.54,331.56 C482.52,327.48 482.04,322.8 482.04,317.58 C482.04,311.76 482.28,306.3 482.88,301.14 C483.36,296.4 483.66,293.94 483.66,293.7 C483.66,292.32 483.24,291.12 482.52,290.04 C481.56,288.9 480.42,288.3 478.98,288.3 C478.14,288.3 471.42,288.9 458.7,290.04 C456.6,290.22 455.58,291 455.58,292.44 C455.58,293.22 455.64,294.78 455.82,297.06 C455.58,303.12 455.1,309.96 454.32,317.58 C454.02,320.4 453.9,322.38 453.9,323.46 C453.9,324.48 454.14,325.44 454.62,326.34 C455.22,327.42 455.94,327.96 456.78,327.96 C458.34,327.96 459.18,327 459.18,325.08 C459.18,320.76 459.78,310.8 461.04,295.32 C463.92,294.6 469.62,293.94 478.08,293.4 C477.3,309.48 476.94,318 476.94,318.96 C476.94,323.16 477.18,327.24 477.72,331.14 C478.08,334.14 479.1,335.7 480.78,335.7 C481.32,335.7 481.98,335.4 482.7,334.8 C483.3,334.2 483.66,333.54 483.66,332.94 L483.66,332.94 Z M512.86,316.8 C512.86,314.46 512.2,312.3 510.88,310.38 C509.5,308.52 507.76,307.2 505.66,306.48 C504.82,306.24 504.34,306.12 504.22,306.12 C503.74,306.12 503.2,306.42 502.48,306.9 C501.64,307.38 500.98,307.74 500.5,307.92 C498.46,308.94 496.78,310.74 495.58,313.26 C494.38,315.54 493.84,318 493.84,320.58 C493.84,323.64 494.62,326.16 496.3,328.14 C497.98,330.06 500.08,331.08 502.6,331.08 C505.48,331.08 507.94,329.76 509.92,327 C511.84,324.24 512.86,320.88 512.86,316.8 L512.86,316.8 Z M508.12,317.7 C508.12,319.74 507.52,321.6 506.44,323.34 C505.24,325.14 503.98,326.04 502.54,326.04 C501.34,326.04 500.38,325.5 499.66,324.36 C498.88,323.28 498.52,322.02 498.52,320.58 C498.52,318.66 498.94,316.86 499.9,315.18 C500.98,313.26 502.36,312.24 504.04,312.24 C504.64,312.6 505.42,312.78 506.38,312.78 C507.52,313.5 508.12,315.18 508.12,317.7 L508.12,317.7 Z M541.58,324.48 C541.58,323.88 541.34,323.28 540.86,322.68 C540.38,322.2 539.84,321.9 539.24,321.9 C538.76,321.9 538.04,322.32 537.2,323.1 C536.48,323.7 535.76,324.3 535.16,324.9 C534.14,325.68 532.88,326.04 531.38,326.04 C528.98,326.04 527.84,324.6 527.84,321.6 C527.84,319.74 528.38,317.88 529.46,316.08 C530.54,314.28 531.86,312.78 533.48,311.7 C534.2,312.12 535.28,312.3 536.78,312.3 C537.56,312.3 538.34,312 539.12,311.28 C539.78,310.56 540.14,309.9 540.14,309.18 C540.14,308.22 539.78,307.5 539.06,306.9 C538.28,306.36 537.44,306.06 536.54,306.06 C532.76,306.06 529.4,308.04 526.52,311.94 C524.18,315.06 523.04,318.48 523.04,322.2 C523.04,324.84 523.88,326.94 525.56,328.62 C527.24,330.24 529.34,331.08 531.86,331.08 C534.14,331.08 536.48,330.18 538.76,328.38 C540.62,326.94 541.58,325.68 541.58,324.48 L541.58,324.48 Z M575.22,305.04 C575.22,304.44 574.98,303.84 574.56,303.3 C574.14,302.82 573.66,302.52 573.12,302.52 C572.22,302.52 570.96,302.76 569.28,303.12 C562.68,304.68 556.8,306.06 551.76,307.26 C551.4,307.38 551.16,307.38 551.04,307.38 C549.84,307.62 549.24,308.52 549.24,310.02 C549.24,311.7 549.9,312.48 551.34,312.48 C553.08,312.12 554.46,311.82 555.42,311.52 C557.16,311.16 558.66,310.8 559.92,310.56 C559.68,315.18 559.56,319.62 559.56,323.82 C559.56,327.9 559.8,330.72 560.28,332.28 C560.64,333.36 561.36,333.9 562.56,333.9 C564.12,333.9 564.9,332.46 564.9,329.64 C564.9,328.26 564.6,327.24 564.12,326.58 C564,325.08 563.94,322.74 563.94,319.5 C563.94,316.98 564.12,313.56 564.6,309.3 C566.34,308.88 567.54,308.58 568.26,308.46 C568.8,308.82 569.22,308.94 569.52,308.94 C569.88,308.94 570.3,308.88 570.84,308.64 L573.6,307.38 C574.68,306.9 575.22,306.12 575.22,305.04 L575.22,305.04 Z M601.9,316.8 C601.9,314.46 601.24,312.3 599.92,310.38 C598.54,308.52 596.8,307.2 594.7,306.48 C593.86,306.24 593.38,306.12 593.26,306.12 C592.78,306.12 592.24,306.42 591.52,306.9 C590.68,307.38 590.02,307.74 589.54,307.92 C587.5,308.94 585.82,310.74 584.62,313.26 C583.42,315.54 582.88,318 582.88,320.58 C582.88,323.64 583.66,326.16 585.34,328.14 C587.02,330.06 589.12,331.08 591.64,331.08 C594.52,331.08 596.98,329.76 598.96,327 C600.88,324.24 601.9,320.88 601.9,316.8 L601.9,316.8 Z M597.16,317.7 C597.16,319.74 596.56,321.6 595.48,323.34 C594.28,325.14 593.02,326.04 591.58,326.04 C590.38,326.04 589.42,325.5 588.7,324.36 C587.92,323.28 587.56,322.02 587.56,320.58 C587.56,318.66 587.98,316.86 588.94,315.18 C590.02,313.26 591.4,312.24 593.08,312.24 C593.68,312.6 594.46,312.78 595.42,312.78 C596.56,313.5 597.16,315.18 597.16,317.7 L597.16,317.7 Z M631.46,313.38 C631.46,311.58 630.8,310.62 629.54,310.62 C628.46,310.62 627.68,311.22 627.32,312.42 C626.24,315.9 623.72,317.58 619.88,317.58 C617.42,317.58 616.22,317.04 616.22,315.96 C616.22,314.7 617.6,313.2 620.36,311.52 C622.88,310.08 624.86,309.36 626.42,309.36 C626.78,309.36 627.02,309.42 627.2,309.48 C627.56,309.9 627.92,310.08 628.34,310.08 C628.82,310.08 629.36,309.84 629.9,309.36 C630.38,308.88 630.62,308.34 630.62,307.74 C630.62,306.06 629.42,305.16 627.14,305.16 C624.2,305.16 621.08,306.18 617.72,308.22 C613.82,310.62 611.9,313.26 611.9,316.14 C611.9,318 612.62,319.44 614.12,320.4 C615.2,321.24 616.7,321.6 618.56,321.6 L619.1,321.6 L615.08,324.96 L614.72,324.42 C614.06,325.14 613.52,325.74 613.16,326.1 C612.56,326.34 612.02,326.82 611.6,327.48 C611.06,328.2 610.82,328.86 610.82,329.52 C610.82,330.12 611.06,330.66 611.6,331.26 C612.08,331.74 612.68,332.04 613.28,332.04 C613.88,332.04 614.78,331.44 615.98,330.3 C620.24,326.4 623.54,323.46 625.82,321.48 C625.16,326.4 624.86,329.16 624.86,329.76 C624.86,331.74 625.64,332.76 627.2,332.76 C628.52,332.76 629.3,331.92 629.42,330.36 C630.26,322.8 630.92,317.16 631.46,313.38 L631.46,313.38 Z M661.62,307.8 C661.62,306.24 660.9,305.46 659.46,305.46 C658.26,305.46 657.48,306.54 657.18,308.58 C656.88,310.2 656.52,312.48 656.16,315.42 C653.52,316.08 650.94,316.56 648.42,316.8 C649.02,312.96 649.62,310.08 650.22,308.1 C650.58,307.02 650.88,306.18 651.18,305.46 C651.06,303.84 650.34,303 648.9,303 C647.88,303 647.22,303.48 646.86,304.44 C645.66,307.32 644.7,311.46 644.1,316.86 C643.14,316.86 642.48,316.8 642.12,316.74 C640.92,316.74 640.38,317.46 640.38,318.78 C640.38,320.28 641.22,321 642.96,321 L643.68,321 C643.5,323.28 643.32,325.86 643.2,328.86 C643.2,329.04 643.14,329.34 643.08,329.7 C642.96,330.06 642.96,330.3 642.96,330.54 C642.96,331.14 643.2,331.68 643.68,332.16 C644.16,332.64 644.7,332.88 645.3,332.88 C646.74,332.88 647.52,332.1 647.58,330.6 C647.58,328.56 647.76,325.32 648.06,320.88 C650.64,320.64 653.16,320.22 655.68,319.62 C655.38,322.8 655.2,325.32 655.2,327.12 C655.2,327.3 655.14,327.54 655.08,327.9 C654.96,328.2 654.9,328.44 654.9,328.62 C654.9,330.06 655.08,331.14 655.56,331.86 C656.04,332.64 656.58,333.06 657.3,333.06 C657.9,333.06 658.44,332.82 658.92,332.34 C659.34,331.86 659.58,331.26 659.58,330.6 C659.58,330.48 659.52,330.18 659.52,329.58 C659.46,328.98 659.46,328.5 659.46,328.26 C659.46,324.24 660.06,318.06 661.38,309.72 C661.5,308.64 661.62,308.04 661.62,307.8 L661.62,307.8 Z M691.72,307.8 C691.72,306.24 691,305.46 689.56,305.46 C688.36,305.46 687.58,306.54 687.28,308.58 C686.98,310.2 686.62,312.48 686.26,315.42 C683.62,316.08 681.04,316.56 678.52,316.8 C679.12,312.96 679.72,310.08 680.32,308.1 C680.68,307.02 680.98,306.18 681.28,305.46 C681.16,303.84 680.44,303 679,303 C677.98,303 677.32,303.48 676.96,304.44 C675.76,307.32 674.8,311.46 674.2,316.86 C673.24,316.86 672.58,316.8 672.22,316.74 C671.02,316.74 670.48,317.46 670.48,318.78 C670.48,320.28 671.32,321 673.06,321 L673.78,321 C673.6,323.28 673.42,325.86 673.3,328.86 C673.3,329.04 673.24,329.34 673.18,329.7 C673.06,330.06 673.06,330.3 673.06,330.54 C673.06,331.14 673.3,331.68 673.78,332.16 C674.26,332.64 674.8,332.88 675.4,332.88 C676.84,332.88 677.62,332.1 677.68,330.6 C677.68,328.56 677.86,325.32 678.16,320.88 C680.74,320.64 683.26,320.22 685.78,319.62 C685.48,322.8 685.3,325.32 685.3,327.12 C685.3,327.3 685.24,327.54 685.18,327.9 C685.06,328.2 685,328.44 685,328.62 C685,330.06 685.18,331.14 685.66,331.86 C686.14,332.64 686.68,333.06 687.4,333.06 C688,333.06 688.54,332.82 689.02,332.34 C689.44,331.86 689.68,331.26 689.68,330.6 C689.68,330.48 689.62,330.18 689.62,329.58 C689.56,328.98 689.56,328.5 689.56,328.26 C689.56,324.24 690.16,318.06 691.48,309.72 C691.6,308.64 691.72,308.04 691.72,307.8 L691.72,307.8 Z M720.86,316.8 C720.86,314.46 720.2,312.3 718.88,310.38 C717.5,308.52 715.76,307.2 713.66,306.48 C712.82,306.24 712.34,306.12 712.22,306.12 C711.74,306.12 711.2,306.42 710.48,306.9 C709.64,307.38 708.98,307.74 708.5,307.92 C706.46,308.94 704.78,310.74 703.58,313.26 C702.38,315.54 701.84,318 701.84,320.58 C701.84,323.64 702.62,326.16 704.3,328.14 C705.98,330.06 708.08,331.08 710.6,331.08 C713.48,331.08 715.94,329.76 717.92,327 C719.84,324.24 720.86,320.88 720.86,316.8 L720.86,316.8 Z M716.12,317.7 C716.12,319.74 715.52,321.6 714.44,323.34 C713.24,325.14 711.98,326.04 710.54,326.04 C709.34,326.04 708.38,325.5 707.66,324.36 C706.88,323.28 706.52,322.02 706.52,320.58 C706.52,318.66 706.94,316.86 707.9,315.18 C708.98,313.26 710.36,312.24 712.04,312.24 C712.64,312.6 713.42,312.78 714.38,312.78 C715.52,313.5 716.12,315.18 716.12,317.7 L716.12,317.7 Z M779.68,310.86 C779.68,310.2 779.38,309.66 778.84,309.18 C778.3,308.7 777.7,308.46 777.04,308.46 C776.68,308.46 776.02,308.88 774.94,309.66 C772,311.94 769.72,313.68 768.1,315 C766.66,312.96 765.22,311.04 763.72,309.24 C762.22,307.44 761.08,306.54 760.36,306.54 C758.44,306.54 757.54,307.5 757.54,309.36 C757.54,309.84 758.08,310.92 759.22,312.54 C760.18,313.98 760.9,314.94 761.5,315.42 C761.8,315.78 762.16,316.02 762.64,316.14 C763.24,316.92 763.78,317.58 764.14,318.12 C761.02,320.64 758.74,322.62 757.24,324.06 C755.26,325.92 754.3,327.36 754.3,328.32 C754.3,330 755.14,330.9 756.82,330.9 C757.42,330.9 758.14,330.54 758.86,329.82 C761.02,327.54 763.72,325.14 766.96,322.5 C768.34,324.9 769.6,327.24 770.68,329.64 C771.16,330.66 772,331.2 773.14,331.2 C773.68,331.2 774.22,330.96 774.76,330.48 C775.3,330 775.6,329.4 775.6,328.8 C775.6,328.32 775,326.94 773.92,324.66 C773.08,322.98 772.06,321.24 770.92,319.32 C774.16,316.8 776.68,314.7 778.48,313.14 C779.26,312.48 779.68,311.7 779.68,310.86 L779.68,310.86 Z M807.62,316.8 C807.62,314.46 806.96,312.3 805.64,310.38 C804.26,308.52 802.52,307.2 800.42,306.48 C799.58,306.24 799.1,306.12 798.98,306.12 C798.5,306.12 797.96,306.42 797.24,306.9 C796.4,307.38 795.74,307.74 795.26,307.92 C793.22,308.94 791.54,310.74 790.34,313.26 C789.14,315.54 788.6,318 788.6,320.58 C788.6,323.64 789.38,326.16 791.06,328.14 C792.74,330.06 794.84,331.08 797.36,331.08 C800.24,331.08 802.7,329.76 804.68,327 C806.6,324.24 807.62,320.88 807.62,316.8 L807.62,316.8 Z M802.88,317.7 C802.88,319.74 802.28,321.6 801.2,323.34 C800,325.14 798.74,326.04 797.3,326.04 C796.1,326.04 795.14,325.5 794.42,324.36 C793.64,323.28 793.28,322.02 793.28,320.58 C793.28,318.66 793.7,316.86 794.66,315.18 C795.74,313.26 797.12,312.24 798.8,312.24 C799.4,312.6 800.18,312.78 801.14,312.78 C802.28,313.5 802.88,315.18 802.88,317.7 L802.88,317.7 Z M837.96,307.2 C837.9,306.54 837.66,305.88 837.18,305.28 C836.7,304.68 836.16,304.38 835.56,304.38 C833.94,304.38 833.1,305.28 833.04,307.02 C833.04,307.26 833.04,308.04 833.1,309.3 C833.1,310.68 833.16,311.46 833.16,311.7 C833.16,314.04 832.38,316.2 830.88,318.24 C829.32,320.28 827.58,321.24 825.72,321.24 C823.38,321.24 822.24,319.56 822.24,316.08 C822.24,314.76 822.48,311.76 823.08,307.08 C822.9,305.4 822.18,304.5 820.98,304.5 C819.3,304.5 818.34,306.12 817.98,309.3 C817.86,310.2 817.8,312.42 817.8,316.02 C817.8,322.38 820.32,325.56 825.42,325.56 C826.86,325.56 828.36,325.2 829.8,324.36 C831.24,323.58 832.38,322.5 833.1,321.18 C832.98,323.58 832.86,325.56 832.74,327.06 C832.5,329.52 832.44,331.26 832.44,332.46 C832.44,334.08 833.1,334.92 834.54,334.92 C836.1,334.92 836.94,334.08 837,332.4 C837.06,328.5 837.24,322.74 837.6,315.18 C837.72,311.22 837.84,308.58 837.96,307.2 L837.96,307.2 Z M871.9,328.92 C871.9,328.32 871.66,327.72 871.18,327.12 C870.7,326.64 870.1,326.34 869.5,326.34 C869.02,326.34 868.24,326.46 867.22,326.58 C866.2,326.7 865.42,326.76 864.94,326.76 C863.14,326.76 861.58,325.92 860.14,324.18 C866.14,320.94 869.14,317.1 869.14,312.66 C869.14,310.98 868.42,309.36 866.98,307.92 C865.54,306.48 864.1,305.76 862.6,305.76 C860.02,305.76 857.92,307.26 856.24,310.2 C854.8,312.72 854.08,315.42 854.08,318.3 C854.08,318.9 854.14,319.74 854.32,320.76 L852.94,320.76 C852.1,320.76 851.32,320.46 850.48,319.86 C849.64,319.26 849.04,318.96 848.68,318.96 C847.12,318.96 846.34,319.8 846.34,321.48 C846.34,322.8 847.3,323.88 849.34,324.72 C850.9,325.38 852.4,325.68 853.96,325.68 L855.76,325.68 C857.92,329.82 861.28,331.86 865.84,331.86 C869.86,331.86 871.9,330.84 871.9,328.92 L871.9,328.92 Z M864.4,312.9 C864.4,314.88 862.6,317.04 859,319.38 L859,318.3 C859,316.68 859.24,315.12 859.84,313.62 C860.44,311.82 861.28,310.92 862.36,310.92 C862.84,310.92 863.32,311.16 863.8,311.52 C864.16,312 864.4,312.42 864.4,312.9 L864.4,312.9 Z M904.46,305.04 C904.46,304.44 904.22,303.84 903.8,303.3 C903.38,302.82 902.9,302.52 902.36,302.52 C901.46,302.52 900.2,302.76 898.52,303.12 C891.92,304.68 886.04,306.06 881,307.26 C880.64,307.38 880.4,307.38 880.28,307.38 C879.08,307.62 878.48,308.52 878.48,310.02 C878.48,311.7 879.14,312.48 880.58,312.48 C882.32,312.12 883.7,311.82 884.66,311.52 C886.4,311.16 887.9,310.8 889.16,310.56 C888.92,315.18 888.8,319.62 888.8,323.82 C888.8,327.9 889.04,330.72 889.52,332.28 C889.88,333.36 890.6,333.9 891.8,333.9 C893.36,333.9 894.14,332.46 894.14,329.64 C894.14,328.26 893.84,327.24 893.36,326.58 C893.24,325.08 893.18,322.74 893.18,319.5 C893.18,316.98 893.36,313.56 893.84,309.3 C895.58,308.88 896.78,308.58 897.5,308.46 C898.04,308.82 898.46,308.94 898.76,308.94 C899.12,308.94 899.54,308.88 900.08,308.64 L902.84,307.38 C903.92,306.9 904.46,306.12 904.46,305.04 L904.46,305.04 Z M930.66,324.48 C930.66,323.88 930.42,323.28 929.94,322.68 C929.46,322.2 928.92,321.9 928.32,321.9 C927.84,321.9 927.12,322.32 926.28,323.1 C925.56,323.7 924.84,324.3 924.24,324.9 C923.22,325.68 921.96,326.04 920.46,326.04 C918.06,326.04 916.92,324.6 916.92,321.6 C916.92,319.74 917.46,317.88 918.54,316.08 C919.62,314.28 920.94,312.78 922.56,311.7 C923.28,312.12 924.36,312.3 925.86,312.3 C926.64,312.3 927.42,312 928.2,311.28 C928.86,310.56 929.22,309.9 929.22,309.18 C929.22,308.22 928.86,307.5 928.14,306.9 C927.36,306.36 926.52,306.06 925.62,306.06 C921.84,306.06 918.48,308.04 915.6,311.94 C913.26,315.06 912.12,318.48 912.12,322.2 C912.12,324.84 912.96,326.94 914.64,328.62 C916.32,330.24 918.42,331.08 920.94,331.08 C923.22,331.08 925.56,330.18 927.84,328.38 C929.7,326.94 930.66,325.68 930.66,324.48 L930.66,324.48 Z M959.56,313.38 C959.56,311.58 958.9,310.62 957.64,310.62 C956.56,310.62 955.78,311.22 955.42,312.42 C954.34,315.9 951.82,317.58 947.98,317.58 C945.52,317.58 944.32,317.04 944.32,315.96 C944.32,314.7 945.7,313.2 948.46,311.52 C950.98,310.08 952.96,309.36 954.52,309.36 C954.88,309.36 955.12,309.42 955.3,309.48 C955.66,309.9 956.02,310.08 956.44,310.08 C956.92,310.08 957.46,309.84 958,309.36 C958.48,308.88 958.72,308.34 958.72,307.74 C958.72,306.06 957.52,305.16 955.24,305.16 C952.3,305.16 949.18,306.18 945.82,308.22 C941.92,310.62 940,313.26 940,316.14 C940,318 940.72,319.44 942.22,320.4 C943.3,321.24 944.8,321.6 946.66,321.6 L947.2,321.6 L943.18,324.96 L942.82,324.42 C942.16,325.14 941.62,325.74 941.26,326.1 C940.66,326.34 940.12,326.82 939.7,327.48 C939.16,328.2 938.92,328.86 938.92,329.52 C938.92,330.12 939.16,330.66 939.7,331.26 C940.18,331.74 940.78,332.04 941.38,332.04 C941.98,332.04 942.88,331.44 944.08,330.3 C948.34,326.4 951.64,323.46 953.92,321.48 C953.26,326.4 952.96,329.16 952.96,329.76 C952.96,331.74 953.74,332.76 955.3,332.76 C956.62,332.76 957.4,331.92 957.52,330.36 C958.36,322.8 959.02,317.16 959.56,313.38 L959.56,313.38 Z M1015.44,307.56 C1015.44,306.9 1015.14,306.3 1014.54,305.82 C1013.88,305.4 1013.22,305.16 1012.56,305.04 C1006.44,305.52 1001.58,305.94 998.1,306.18 C996,306.36 994.98,307.08 994.98,308.4 C994.98,309.24 995.1,309.96 995.46,310.62 C995.04,316.8 994.86,319.92 994.86,320.04 C994.44,324.36 994.26,326.52 994.26,326.52 C994.26,327.3 994.5,328.08 995.04,328.86 C995.58,329.64 996.18,330 996.9,330 C998.1,330 998.7,329.22 998.82,327.6 C999.18,321.12 999.54,315.54 1000.02,310.86 C1003.08,310.44 1006.26,310.14 1009.56,310.02 C1009.56,310.2 1009.44,313.14 1009.26,318.78 C1009.02,323.82 1008.96,326.52 1008.96,326.88 C1008.96,330.78 1009.98,332.76 1012.14,332.76 C1013.28,332.76 1013.88,332.1 1013.88,330.9 C1013.52,329.1 1013.4,327.42 1013.4,325.98 C1013.4,324.06 1013.52,321 1013.76,316.8 C1013.82,316.14 1013.94,315.18 1014.12,313.86 C1014.24,312.78 1014.3,312.18 1014.3,311.94 C1014.3,311.58 1014.18,311.04 1014.06,310.32 C1014.96,309.36 1015.44,308.46 1015.44,307.56 L1015.44,307.56 Z M1047.88,330.36 C1047.88,329.94 1047.58,329.4 1047.04,328.8 C1045.72,327.36 1045.12,323.7 1045.12,317.82 C1045.12,315.72 1045.42,312.18 1046.08,307.2 C1046.08,306.54 1045.78,305.94 1045.3,305.34 C1044.76,304.8 1044.16,304.5 1043.5,304.5 C1042.48,304.5 1040.32,306.72 1037.08,311.16 C1034.44,314.64 1032.28,317.82 1030.48,320.58 C1030.9,315.9 1031.2,312.48 1031.38,310.44 C1031.38,309.48 1031.02,308.64 1030.42,307.92 C1029.82,307.26 1029.04,306.9 1028.08,306.9 C1027.54,306.9 1027.06,307.26 1026.58,307.92 C1026.7,309.66 1026.82,310.68 1026.82,310.92 C1026.82,312 1026.64,314.7 1026.34,319.08 L1026.22,320.82 C1026.16,321.72 1026.04,322.92 1025.92,324.42 C1025.74,325.86 1025.62,326.76 1025.62,327.12 C1025.68,327.96 1025.92,328.62 1026.4,328.98 C1027.36,329.94 1027.96,330.36 1028.2,330.36 C1029.04,330.36 1030.06,329.46 1031.14,327.54 C1033.36,323.82 1034.92,321.18 1035.88,319.74 C1037.44,317.16 1039.12,314.76 1040.98,312.6 C1040.98,313.2 1040.92,314.46 1040.92,316.32 C1040.86,318.24 1040.86,319.26 1040.86,319.5 C1040.86,322.62 1041.16,325.26 1041.82,327.54 C1042.72,330.84 1044.04,332.52 1045.72,332.52 C1046.08,332.52 1046.56,332.22 1047.1,331.74 C1047.58,331.14 1047.88,330.72 1047.88,330.36 L1047.88,330.36 Z M1082.12,305.04 C1082.12,304.44 1081.88,303.84 1081.46,303.3 C1081.04,302.82 1080.56,302.52 1080.02,302.52 C1079.12,302.52 1077.86,302.76 1076.18,303.12 C1069.58,304.68 1063.7,306.06 1058.66,307.26 C1058.3,307.38 1058.06,307.38 1057.94,307.38 C1056.74,307.62 1056.14,308.52 1056.14,310.02 C1056.14,311.7 1056.8,312.48 1058.24,312.48 C1059.98,312.12 1061.36,311.82 1062.32,311.52 C1064.06,311.16 1065.56,310.8 1066.82,310.56 C1066.58,315.18 1066.46,319.62 1066.46,323.82 C1066.46,327.9 1066.7,330.72 1067.18,332.28 C1067.54,333.36 1068.26,333.9 1069.46,333.9 C1071.02,333.9 1071.8,332.46 1071.8,329.64 C1071.8,328.26 1071.5,327.24 1071.02,326.58 C1070.9,325.08 1070.84,322.74 1070.84,319.5 C1070.84,316.98 1071.02,313.56 1071.5,309.3 C1073.24,308.88 1074.44,308.58 1075.16,308.46 C1075.7,308.82 1076.12,308.94 1076.42,308.94 C1076.78,308.94 1077.2,308.88 1077.74,308.64 L1080.5,307.38 C1081.58,306.9 1082.12,306.12 1082.12,305.04 L1082.12,305.04 Z M1107.96,322.74 C1107.96,320.28 1107.12,318.3 1105.5,316.8 C1104,315.42 1102.08,314.7 1099.68,314.7 C1098.36,314.7 1097.04,315.06 1095.72,315.78 C1095.96,313.56 1096.14,311.58 1096.32,309.9 C1096.62,307.98 1096.8,306.48 1096.92,305.4 C1096.68,303.66 1095.96,302.76 1094.64,302.76 C1093.08,302.76 1092.24,303.96 1092.06,306.3 C1091.1,315.78 1090.38,323.82 1089.78,330.42 C1089.84,332.52 1090.62,333.6 1092.18,333.6 C1093.14,333.6 1093.8,333.18 1094.16,332.4 C1094.82,332.58 1095.42,332.7 1096.02,332.7 C1098.66,332.7 1101.24,331.74 1103.76,329.88 C1106.52,327.84 1107.96,325.5 1107.96,322.74 L1107.96,322.74 Z M1103.4,322.02 C1103.4,323.82 1102.44,325.44 1100.64,326.82 C1098.96,328.14 1097.34,328.8 1095.78,328.8 C1095.54,328.8 1095.12,328.74 1094.64,328.62 L1095.18,321.72 C1096.26,319.92 1097.7,318.96 1099.56,318.96 C1100.52,318.96 1101.36,319.26 1102.2,319.86 C1102.98,320.46 1103.4,321.18 1103.4,322.02 L1103.4,322.02 Z M1142.26,298.26 C1142.26,295.2 1141.12,292.8 1138.84,291.06 C1136.8,289.5 1134.04,288.66 1130.68,288.66 C1129.3,288.66 1127.68,288.9 1125.88,289.32 C1124.86,289.02 1124.32,288.84 1124.26,288.84 C1123.54,288.84 1122.82,289.2 1122.04,289.8 C1121.32,290.46 1120.96,291.12 1120.96,291.84 C1120.96,292.68 1121.2,293.34 1121.68,293.82 C1122.16,294.42 1122.76,294.66 1123.6,294.66 C1123.78,294.66 1124.38,294.6 1125.34,294.36 C1128.22,293.88 1129.78,293.58 1130.02,293.58 C1134.94,293.58 1137.46,295.14 1137.46,298.2 C1137.46,300.48 1136.08,302.46 1133.38,304.02 C1131.04,305.4 1128.28,306.24 1125.1,306.6 C1123.18,306.84 1122.28,307.68 1122.28,309.06 C1122.28,309.36 1122.46,310.02 1122.88,311.1 C1123.72,313.68 1124.26,316.2 1124.56,318.66 C1124.74,320.34 1125.52,321.12 1126.9,321.12 C1128.46,321.12 1129.3,320.28 1129.3,318.48 C1129.3,316.62 1128.82,314.04 1127.92,310.8 C1131.7,310.2 1135,308.82 1137.76,306.66 C1140.76,304.26 1142.26,301.5 1142.26,298.26 L1142.26,298.26 Z M1130.5,329.16 C1130.5,328.2 1130.14,327.42 1129.48,326.82 C1128.7,326.34 1127.86,326.04 1127.02,326.04 C1126,326.04 1125.22,326.46 1124.62,327.24 C1124.02,327.96 1123.72,328.86 1123.72,329.88 C1123.72,330.78 1123.96,331.56 1124.5,332.22 C1125.04,332.82 1125.64,333.18 1126.3,333.18 C1127.68,333.18 1128.76,332.82 1129.48,332.1 C1130.14,331.32 1130.5,330.36 1130.5,329.16 L1130.5,329.16 Z" id="Постоянно-хочется-пи"></path>
        </g>
    </g>
</svg>