<?xml version="1.0" encoding="UTF-8"?>
<svg width="847px" height="121px" viewBox="0 0 847 121" version="1.1" xmlns="http://www.w3.org/2000/svg" xmlns:xlink="http://www.w3.org/1999/xlink">
    <!-- Generator: Sketch 40.3 (33839) - http://www.bohemiancoding.com/sketch -->
    <title>Под глазами отеки, к</title>
    <desc>Created with Sketch.</desc>
    <defs></defs>
    <g id="Page-1" stroke="none" stroke-width="1" fill="none" fill-rule="evenodd">
        <g id="1600--copy-7" transform="translate(-394.000000, -292.000000)" fill="#FFFFFF">
            <path d="M424.05,336.94 C424.05,336.34 423.99,335.92 423.93,335.56 C422.91,331.48 422.43,326.8 422.43,321.58 C422.43,315.76 422.67,310.3 423.27,305.14 C423.75,300.4 424.05,297.94 424.05,297.7 C424.05,296.32 423.63,295.12 422.91,294.04 C421.95,292.9 420.81,292.3 419.37,292.3 C418.53,292.3 411.81,292.9 399.09,294.04 C396.99,294.22 395.97,295 395.97,296.44 C395.97,297.22 396.03,298.78 396.21,301.06 C395.97,307.12 395.49,313.96 394.71,321.58 C394.41,324.4 394.29,326.38 394.29,327.46 C394.29,328.48 394.53,329.44 395.01,330.34 C395.61,331.42 396.33,331.96 397.17,331.96 C398.73,331.96 399.57,331 399.57,329.08 C399.57,324.76 400.17,314.8 401.43,299.32 C404.31,298.6 410.01,297.94 418.47,297.4 C417.69,313.48 417.33,322 417.33,322.96 C417.33,327.16 417.57,331.24 418.11,335.14 C418.47,338.14 419.49,339.7 421.17,339.7 C421.71,339.7 422.37,339.4 423.09,338.8 C423.69,338.2 424.05,337.54 424.05,336.94 L424.05,336.94 Z M453.25,320.8 C453.25,318.46 452.59,316.3 451.27,314.38 C449.89,312.52 448.15,311.2 446.05,310.48 C445.21,310.24 444.73,310.12 444.61,310.12 C444.13,310.12 443.59,310.42 442.87,310.9 C442.03,311.38 441.37,311.74 440.89,311.92 C438.85,312.94 437.17,314.74 435.97,317.26 C434.77,319.54 434.23,322 434.23,324.58 C434.23,327.64 435.01,330.16 436.69,332.14 C438.37,334.06 440.47,335.08 442.99,335.08 C445.87,335.08 448.33,333.76 450.31,331 C452.23,328.24 453.25,324.88 453.25,320.8 L453.25,320.8 Z M448.51,321.7 C448.51,323.74 447.91,325.6 446.83,327.34 C445.63,329.14 444.37,330.04 442.93,330.04 C441.73,330.04 440.77,329.5 440.05,328.36 C439.27,327.28 438.91,326.02 438.91,324.58 C438.91,322.66 439.33,320.86 440.29,319.18 C441.37,317.26 442.75,316.24 444.43,316.24 C445.03,316.6 445.81,316.78 446.77,316.78 C447.91,317.5 448.51,319.18 448.51,321.7 L448.51,321.7 Z M489.29,334.12 C489.29,333.94 489.17,333.64 488.93,333.28 C488.21,331.96 487.37,331.3 486.53,331.3 C486.41,331.3 486.23,331.36 485.93,331.36 C486.23,323.92 486.47,318.52 486.71,315.1 C486.83,313.36 487.19,311.62 487.85,309.82 C487.85,309.22 487.49,308.56 486.89,307.96 C486.29,307.36 485.69,307.06 485.09,307.06 C483.53,307.06 481.67,307.42 479.45,308.02 C476.81,308.8 475.07,309.4 474.23,309.76 C472.91,310.48 472.31,311.38 472.31,312.4 C472.31,312.7 472.43,313.12 472.73,313.72 C472.91,314.32 473.03,314.74 473.03,314.98 C473.03,317.62 472.37,320.62 471.05,324.1 C469.61,327.76 467.99,330.64 466.07,332.74 C464.21,332.86 463.25,333.7 463.13,335.26 C462.89,337.6 462.83,339.64 462.83,341.32 C462.83,341.86 463.07,342.4 463.55,342.88 C464.03,343.36 464.69,343.66 465.41,343.66 C466.79,343.66 467.51,342.94 467.51,341.56 C467.51,341.32 467.45,341.02 467.39,340.6 C467.27,340.18 467.27,339.88 467.27,339.76 C467.27,339.52 467.27,339.28 467.33,338.92 L467.33,338.02 C467.33,337.54 467.75,337.24 468.71,337.18 C472.25,336.76 475.49,336.46 478.37,336.28 C480.47,336.1 481.97,336.04 482.81,336.04 C483.53,336.04 483.95,336.34 483.95,336.94 C483.95,337.12 483.95,337.78 484.01,338.98 L484.01,341.08 C484.01,342.76 484.61,343.66 485.93,343.66 C486.41,343.66 487.01,343.48 487.67,343.18 C488.21,342.82 488.51,342.34 488.51,341.86 C488.51,341.44 488.45,340.9 488.39,340.18 C488.27,339.46 488.21,338.86 488.21,338.5 C488.21,337.54 488.27,336.7 488.51,336.04 C488.51,335.92 488.63,335.62 488.87,335.14 C489.11,334.6 489.29,334.24 489.29,334.12 L489.29,334.12 Z M482.27,312.16 C482.27,320.32 481.91,326.92 481.19,331.9 C476.51,332.2 473.33,332.44 471.59,332.68 C474.53,328 476.57,321.52 477.71,313.36 C478.67,312.88 480.23,312.46 482.27,312.16 L482.27,312.16 Z M545.59,310.36 C545.59,309.64 545.29,309.04 544.75,308.56 C544.21,308.14 543.61,307.9 543.01,307.9 C542.47,307.9 541.57,308.08 540.31,308.32 C536.11,309.16 531.37,309.64 526.03,309.7 C525.49,309.7 525.01,309.94 524.59,310.42 C524.11,310.9 523.93,311.5 523.93,312.1 C523.93,313.3 524.83,314.08 526.63,314.44 C526.09,320.26 525.19,326.26 523.87,332.5 C523.51,334.3 523.33,335.5 523.33,336.22 C523.33,337.84 524.05,338.68 525.55,338.68 C527.35,338.68 528.37,337.72 528.61,335.86 C529.09,330.88 530.17,323.62 531.73,314.14 C534.07,313.84 535.63,313.6 536.41,313.48 C538.21,313.36 540.01,313.24 541.81,313.06 C544.33,312.7 545.59,311.8 545.59,310.36 L545.59,310.36 Z M578.09,312.76 C578.09,311.86 577.79,311.08 577.19,310.36 C576.65,309.7 575.99,309.34 575.15,309.34 C574.79,309.34 574.07,309.7 572.99,310.3 C571.91,310.96 569.27,311.5 565.01,311.98 C564.05,311.2 563.27,310.78 562.73,310.78 C562.07,310.78 561.35,311.14 560.63,311.86 C559.91,312.58 559.55,313.36 559.55,314.08 C559.55,314.56 559.79,315.16 560.27,315.82 C560.69,316.54 560.93,317.32 560.93,318.22 C560.93,321.94 560.63,325 560.03,327.52 C559.25,330.46 558.23,331.9 557.03,331.9 C556.55,331.9 556.19,331.18 556.07,329.62 C555.95,329.02 555.71,328.66 555.23,328.66 C554.39,328.66 553.79,329.08 553.37,329.8 C552.83,330.64 552.59,331.6 552.59,332.62 C552.59,333.76 553.01,334.6 553.91,335.26 C554.75,335.86 555.71,336.22 556.79,336.22 C559.91,336.22 562.13,334.18 563.45,330.22 C564.29,327.7 565.01,323.14 565.61,316.54 C567.11,316.18 569.39,315.7 572.51,315.16 C571.91,321.04 571.61,325.48 571.61,328.48 C571.61,332.44 571.85,334.9 572.39,335.92 C572.93,336.94 573.71,337.48 574.67,337.48 C576.23,337.48 577.01,336.52 577.01,334.72 C576.77,333.64 576.65,332.68 576.53,331.84 C576.23,329.8 576.11,328.06 576.11,326.56 C576.11,323.32 576.59,319.54 577.61,315.22 C577.91,313.78 578.09,313 578.09,312.76 L578.09,312.76 Z M609.99,320.08 C609.99,319.54 609.69,318.94 609.21,318.34 C609.21,316.96 608.97,315.76 608.61,314.68 C608.67,314.44 608.73,314.14 608.73,313.84 C608.73,313.12 608.31,312.4 607.59,311.8 C606.81,311.2 606.03,310.84 605.25,310.84 C601.95,310.84 598.35,312.76 594.39,316.48 C590.25,320.32 588.21,324.04 588.21,327.52 C588.21,329.38 588.81,331 590.13,332.44 C591.39,333.94 592.89,334.66 594.63,334.66 C597.33,334.66 600.33,332.98 603.69,329.62 C603.99,334.18 605.01,336.52 606.75,336.52 C607.35,336.52 607.95,336.28 608.49,335.92 C608.97,335.44 609.27,334.84 609.27,334.24 C609.27,334.06 609.09,333.34 608.85,331.9 C608.55,330.52 608.43,329.44 608.43,328.72 C608.43,326.32 608.79,323.92 609.63,321.4 C609.87,320.74 609.99,320.32 609.99,320.08 L609.99,320.08 Z M604.53,318.34 C604.53,320.38 603.33,322.78 601.05,325.54 C598.77,328.3 596.67,329.62 594.87,329.62 C593.61,329.62 593.01,328.9 593.01,327.4 C593.01,325.48 594.51,323.08 597.57,320.14 C600.33,317.5 602.31,316.12 603.45,316.12 C604.17,316.12 604.53,316.9 604.53,318.34 L604.53,318.34 Z M638.95,327.04 C638.95,323.44 637.15,321.04 633.61,319.96 C636.19,318.52 637.51,316.72 637.51,314.5 C637.51,310.78 634.57,308.92 628.81,308.92 C623.83,308.92 621.37,310 621.37,312.16 C621.37,313.72 622.09,314.5 623.53,314.56 C623.89,314.5 624.79,314.2 626.23,313.6 C627.19,313.24 628.09,313 628.81,313 C631.57,313 632.95,313.66 632.95,314.98 C632.95,315.82 632.23,316.72 630.79,317.56 C629.47,318.28 627.97,318.82 626.23,319.18 C624.07,319.66 622.93,319.9 622.75,319.96 C622.03,320.26 621.73,320.86 621.73,321.7 C621.73,322.3 621.91,322.96 622.39,323.56 C622.81,324.22 623.35,324.52 623.95,324.52 C624.25,324.52 624.67,324.4 625.21,324.04 C626.29,323.44 627.55,323.08 628.93,323.08 C630.31,323.08 631.51,323.32 632.59,323.8 C633.91,324.4 634.57,325.3 634.57,326.5 C634.57,327.94 633.43,329.38 631.27,330.76 C629.23,332.14 627.49,332.8 626.05,332.8 C624.37,332.8 623.59,332.56 623.59,332.08 C623.59,331.84 623.65,331.48 623.83,331.12 C623.95,330.7 624.01,330.4 624.01,330.28 C624.01,329.2 623.29,328.66 621.91,328.66 C621.43,328.66 620.89,329.08 620.35,329.8 C619.75,330.64 619.51,331.36 619.51,331.96 C619.51,332.8 619.81,333.7 620.53,334.66 C621.61,336.22 623.59,337 626.41,337 C629.17,337 631.93,335.98 634.63,334.06 C637.51,332.02 638.95,329.68 638.95,327.04 L638.95,327.04 Z M670.25,320.08 C670.25,319.54 669.95,318.94 669.47,318.34 C669.47,316.96 669.23,315.76 668.87,314.68 C668.93,314.44 668.99,314.14 668.99,313.84 C668.99,313.12 668.57,312.4 667.85,311.8 C667.07,311.2 666.29,310.84 665.51,310.84 C662.21,310.84 658.61,312.76 654.65,316.48 C650.51,320.32 648.47,324.04 648.47,327.52 C648.47,329.38 649.07,331 650.39,332.44 C651.65,333.94 653.15,334.66 654.89,334.66 C657.59,334.66 660.59,332.98 663.95,329.62 C664.25,334.18 665.27,336.52 667.01,336.52 C667.61,336.52 668.21,336.28 668.75,335.92 C669.23,335.44 669.53,334.84 669.53,334.24 C669.53,334.06 669.35,333.34 669.11,331.9 C668.81,330.52 668.69,329.44 668.69,328.72 C668.69,326.32 669.05,323.92 669.89,321.4 C670.13,320.74 670.25,320.32 670.25,320.08 L670.25,320.08 Z M664.79,318.34 C664.79,320.38 663.59,322.78 661.31,325.54 C659.03,328.3 656.93,329.62 655.13,329.62 C653.87,329.62 653.27,328.9 653.27,327.4 C653.27,325.48 654.77,323.08 657.83,320.14 C660.59,317.5 662.57,316.12 663.71,316.12 C664.43,316.12 664.79,316.9 664.79,318.34 L664.79,318.34 Z M706.59,336.46 C706.59,335.92 706.41,335.32 706.05,334.6 C705.69,333.88 705.27,333.4 704.85,333.04 C703.89,331 703.05,327.28 702.33,321.94 C701.85,319.18 701.49,316.12 701.13,312.88 C700.95,311.62 700.23,310.96 698.97,310.96 C697.83,310.96 696.33,313.42 694.47,318.34 C693.81,320.02 693.27,321.46 692.79,322.78 C691.17,320.38 689.73,316.78 688.41,311.86 C687.93,310.06 687.21,309.16 686.31,309.16 C685.17,309.16 684.15,310.54 683.25,313.24 C683.07,313.24 682.83,313.18 682.53,313.18 C682.11,313.18 681.75,313.36 681.51,313.66 C681.15,314.02 680.97,314.44 680.97,314.86 C680.97,314.98 680.97,315.34 681.03,315.94 C681.03,316.6 681.09,316.96 681.09,317.08 C681.09,318.16 680.97,319.66 680.73,321.7 C680.49,323.74 680.37,326.02 680.37,328.48 C680.37,332.5 681.15,334.48 682.77,334.48 C683.97,334.48 684.57,333.16 684.69,330.46 C684.87,325.18 685.35,320.8 686.07,317.32 C689.25,325 691.77,328.84 693.57,328.84 C694.17,328.84 694.59,328.6 694.95,328 C695.25,327.52 695.61,326.44 696.09,324.88 C696.87,322.24 697.53,320.14 698.07,318.7 C698.67,325.36 699.51,330.28 700.65,333.46 C701.91,337.12 703.23,338.98 704.55,338.98 C705.03,338.98 705.51,338.68 705.93,338.14 C706.35,337.54 706.59,337 706.59,336.46 L706.59,336.46 Z M737.11,334.36 C737.11,333.94 736.81,333.4 736.27,332.8 C734.95,331.36 734.35,327.7 734.35,321.82 C734.35,319.72 734.65,316.18 735.31,311.2 C735.31,310.54 735.01,309.94 734.53,309.34 C733.99,308.8 733.39,308.5 732.73,308.5 C731.71,308.5 729.55,310.72 726.31,315.16 C723.67,318.64 721.51,321.82 719.71,324.58 C720.13,319.9 720.43,316.48 720.61,314.44 C720.61,313.48 720.25,312.64 719.65,311.92 C719.05,311.26 718.27,310.9 717.31,310.9 C716.77,310.9 716.29,311.26 715.81,311.92 C715.93,313.66 716.05,314.68 716.05,314.92 C716.05,316 715.87,318.7 715.57,323.08 L715.45,324.82 C715.39,325.72 715.27,326.92 715.15,328.42 C714.97,329.86 714.85,330.76 714.85,331.12 C714.91,331.96 715.15,332.62 715.63,332.98 C716.59,333.94 717.19,334.36 717.43,334.36 C718.27,334.36 719.29,333.46 720.37,331.54 C722.59,327.82 724.15,325.18 725.11,323.74 C726.67,321.16 728.35,318.76 730.21,316.6 C730.21,317.2 730.15,318.46 730.15,320.32 C730.09,322.24 730.09,323.26 730.09,323.5 C730.09,326.62 730.39,329.26 731.05,331.54 C731.95,334.84 733.27,336.52 734.95,336.52 C735.31,336.52 735.79,336.22 736.33,335.74 C736.81,335.14 737.11,334.72 737.11,334.36 L737.11,334.36 Z M790.77,320.8 C790.77,318.46 790.11,316.3 788.79,314.38 C787.41,312.52 785.67,311.2 783.57,310.48 C782.73,310.24 782.25,310.12 782.13,310.12 C781.65,310.12 781.11,310.42 780.39,310.9 C779.55,311.38 778.89,311.74 778.41,311.92 C776.37,312.94 774.69,314.74 773.49,317.26 C772.29,319.54 771.75,322 771.75,324.58 C771.75,327.64 772.53,330.16 774.21,332.14 C775.89,334.06 777.99,335.08 780.51,335.08 C783.39,335.08 785.85,333.76 787.83,331 C789.75,328.24 790.77,324.88 790.77,320.8 L790.77,320.8 Z M786.03,321.7 C786.03,323.74 785.43,325.6 784.35,327.34 C783.15,329.14 781.89,330.04 780.45,330.04 C779.25,330.04 778.29,329.5 777.57,328.36 C776.79,327.28 776.43,326.02 776.43,324.58 C776.43,322.66 776.85,320.86 777.81,319.18 C778.89,317.26 780.27,316.24 781.95,316.24 C782.55,316.6 783.33,316.78 784.29,316.78 C785.43,317.5 786.03,319.18 786.03,321.7 L786.03,321.7 Z M825.07,309.04 C825.07,308.44 824.83,307.84 824.41,307.3 C823.99,306.82 823.51,306.52 822.97,306.52 C822.07,306.52 820.81,306.76 819.13,307.12 C812.53,308.68 806.65,310.06 801.61,311.26 C801.25,311.38 801.01,311.38 800.89,311.38 C799.69,311.62 799.09,312.52 799.09,314.02 C799.09,315.7 799.75,316.48 801.19,316.48 C802.93,316.12 804.31,315.82 805.27,315.52 C807.01,315.16 808.51,314.8 809.77,314.56 C809.53,319.18 809.41,323.62 809.41,327.82 C809.41,331.9 809.65,334.72 810.13,336.28 C810.49,337.36 811.21,337.9 812.41,337.9 C813.97,337.9 814.75,336.46 814.75,333.64 C814.75,332.26 814.45,331.24 813.97,330.58 C813.85,329.08 813.79,326.74 813.79,323.5 C813.79,320.98 813.97,317.56 814.45,313.3 C816.19,312.88 817.39,312.58 818.11,312.46 C818.65,312.82 819.07,312.94 819.37,312.94 C819.73,312.94 820.15,312.88 820.69,312.64 L823.45,311.38 C824.53,310.9 825.07,310.12 825.07,309.04 L825.07,309.04 Z M856.55,332.92 C856.55,332.32 856.31,331.72 855.83,331.12 C855.35,330.64 854.75,330.34 854.15,330.34 C853.67,330.34 852.89,330.46 851.87,330.58 C850.85,330.7 850.07,330.76 849.59,330.76 C847.79,330.76 846.23,329.92 844.79,328.18 C850.79,324.94 853.79,321.1 853.79,316.66 C853.79,314.98 853.07,313.36 851.63,311.92 C850.19,310.48 848.75,309.76 847.25,309.76 C844.67,309.76 842.57,311.26 840.89,314.2 C839.45,316.72 838.73,319.42 838.73,322.3 C838.73,322.9 838.79,323.74 838.97,324.76 L837.59,324.76 C836.75,324.76 835.97,324.46 835.13,323.86 C834.29,323.26 833.69,322.96 833.33,322.96 C831.77,322.96 830.99,323.8 830.99,325.48 C830.99,326.8 831.95,327.88 833.99,328.72 C835.55,329.38 837.05,329.68 838.61,329.68 L840.41,329.68 C842.57,333.82 845.93,335.86 850.49,335.86 C854.51,335.86 856.55,334.84 856.55,332.92 L856.55,332.92 Z M849.05,316.9 C849.05,318.88 847.25,321.04 843.65,323.38 L843.65,322.3 C843.65,320.68 843.89,319.12 844.49,317.62 C845.09,315.82 845.93,314.92 847.01,314.92 C847.49,314.92 847.97,315.16 848.45,315.52 C848.81,316 849.05,316.42 849.05,316.9 L849.05,316.9 Z M885.51,314.38 C885.51,313.9 885.27,313.36 884.79,312.82 C884.31,312.34 883.77,312.1 883.29,312.1 C882.81,312.1 881.79,312.46 880.29,313.18 C877.77,314.38 874.59,316.66 870.87,319.9 C871.71,316.42 872.49,313.66 873.33,311.68 C873.81,310.42 874.05,309.64 874.05,309.4 C874.05,307.84 873.27,307.06 871.83,307.06 C870.87,307.06 870.15,307.6 869.67,308.68 C866.73,315.88 865.23,323.8 865.11,332.38 C864.99,332.68 864.99,332.98 864.99,333.28 C864.99,334 865.11,334.66 865.35,335.32 C865.71,336.4 866.55,337 867.75,337 C869.07,337 869.73,336.22 869.73,334.72 C869.73,334.6 869.67,334.24 869.67,333.64 C869.61,333.04 869.61,332.62 869.61,332.26 L869.61,330.04 C869.61,329.2 869.61,328.24 869.73,327.16 C870.15,326.92 870.39,326.8 870.45,326.74 C872.73,329.8 875.67,332.5 879.21,334.84 C880.29,335.62 881.13,336.04 881.73,336.04 C883.17,336.04 883.89,335.26 883.89,333.76 C883.89,333.16 883.35,332.32 882.39,331.36 C880.71,329.86 879.75,329.08 879.39,329.08 C879.27,329.08 879.09,329.14 878.97,329.14 C876.63,327.28 874.83,325.48 873.63,323.74 C876.51,321.04 878.91,319.12 880.89,318.04 C881.13,318.16 881.37,318.22 881.67,318.22 C882.45,318.22 883.29,317.8 884.13,316.96 C885.03,316.18 885.51,315.34 885.51,314.38 L885.51,314.38 Z M916.69,334.36 C916.69,333.94 916.39,333.4 915.85,332.8 C914.53,331.36 913.93,327.7 913.93,321.82 C913.93,319.72 914.23,316.18 914.89,311.2 C914.89,310.54 914.59,309.94 914.11,309.34 C913.57,308.8 912.97,308.5 912.31,308.5 C911.29,308.5 909.13,310.72 905.89,315.16 C903.25,318.64 901.09,321.82 899.29,324.58 C899.71,319.9 900.01,316.48 900.19,314.44 C900.19,313.48 899.83,312.64 899.23,311.92 C898.63,311.26 897.85,310.9 896.89,310.9 C896.35,310.9 895.87,311.26 895.39,311.92 C895.51,313.66 895.63,314.68 895.63,314.92 C895.63,316 895.45,318.7 895.15,323.08 L895.03,324.82 C894.97,325.72 894.85,326.92 894.73,328.42 C894.55,329.86 894.43,330.76 894.43,331.12 C894.49,331.96 894.73,332.62 895.21,332.98 C896.17,333.94 896.77,334.36 897.01,334.36 C897.85,334.36 898.87,333.46 899.95,331.54 C902.17,327.82 903.73,325.18 904.69,323.74 C906.25,321.16 907.93,318.76 909.79,316.6 C909.79,317.2 909.73,318.46 909.73,320.32 C909.67,322.24 909.67,323.26 909.67,323.5 C909.67,326.62 909.97,329.26 910.63,331.54 C911.53,334.84 912.85,336.52 914.53,336.52 C914.89,336.52 915.37,336.22 915.91,335.74 C916.39,335.14 916.69,334.72 916.69,334.36 L916.69,334.36 Z M935.63,332.38 C935.63,330.64 934.73,329.74 932.99,329.74 C930.71,329.74 929.39,331.84 929.03,335.98 C927.47,338.8 925.67,341.32 923.69,343.54 C923.21,344.08 922.97,344.74 922.97,345.46 C922.97,347.02 923.69,347.8 925.07,347.8 C925.85,347.8 926.51,347.5 927.11,346.9 C928.85,345.04 930.53,342.82 932.15,340.24 C934.43,336.4 935.63,333.82 935.63,332.38 L935.63,332.38 Z M993.13,314.38 C993.13,313.9 992.89,313.36 992.41,312.82 C991.93,312.34 991.39,312.1 990.91,312.1 C990.43,312.1 989.41,312.46 987.91,313.18 C985.39,314.38 982.21,316.66 978.49,319.9 C979.33,316.42 980.11,313.66 980.95,311.68 C981.43,310.42 981.67,309.64 981.67,309.4 C981.67,307.84 980.89,307.06 979.45,307.06 C978.49,307.06 977.77,307.6 977.29,308.68 C974.35,315.88 972.85,323.8 972.73,332.38 C972.61,332.68 972.61,332.98 972.61,333.28 C972.61,334 972.73,334.66 972.97,335.32 C973.33,336.4 974.17,337 975.37,337 C976.69,337 977.35,336.22 977.35,334.72 C977.35,334.6 977.29,334.24 977.29,333.64 C977.23,333.04 977.23,332.62 977.23,332.26 L977.23,330.04 C977.23,329.2 977.23,328.24 977.35,327.16 C977.77,326.92 978.01,326.8 978.07,326.74 C980.35,329.8 983.29,332.5 986.83,334.84 C987.91,335.62 988.75,336.04 989.35,336.04 C990.79,336.04 991.51,335.26 991.51,333.76 C991.51,333.16 990.97,332.32 990.01,331.36 C988.33,329.86 987.37,329.08 987.01,329.08 C986.89,329.08 986.71,329.14 986.59,329.14 C984.25,327.28 982.45,325.48 981.25,323.74 C984.13,321.04 986.53,319.12 988.51,318.04 C988.75,318.16 988.99,318.22 989.29,318.22 C990.07,318.22 990.91,317.8 991.75,316.96 C992.65,316.18 993.13,315.34 993.13,314.38 L993.13,314.38 Z M1023.83,320.08 C1023.83,319.54 1023.53,318.94 1023.05,318.34 C1023.05,316.96 1022.81,315.76 1022.45,314.68 C1022.51,314.44 1022.57,314.14 1022.57,313.84 C1022.57,313.12 1022.15,312.4 1021.43,311.8 C1020.65,311.2 1019.87,310.84 1019.09,310.84 C1015.79,310.84 1012.19,312.76 1008.23,316.48 C1004.09,320.32 1002.05,324.04 1002.05,327.52 C1002.05,329.38 1002.65,331 1003.97,332.44 C1005.23,333.94 1006.73,334.66 1008.47,334.66 C1011.17,334.66 1014.17,332.98 1017.53,329.62 C1017.83,334.18 1018.85,336.52 1020.59,336.52 C1021.19,336.52 1021.79,336.28 1022.33,335.92 C1022.81,335.44 1023.11,334.84 1023.11,334.24 C1023.11,334.06 1022.93,333.34 1022.69,331.9 C1022.39,330.52 1022.27,329.44 1022.27,328.72 C1022.27,326.32 1022.63,323.92 1023.47,321.4 C1023.71,320.74 1023.83,320.32 1023.83,320.08 L1023.83,320.08 Z M1018.37,318.34 C1018.37,320.38 1017.17,322.78 1014.89,325.54 C1012.61,328.3 1010.51,329.62 1008.71,329.62 C1007.45,329.62 1006.85,328.9 1006.85,327.4 C1006.85,325.48 1008.35,323.08 1011.41,320.14 C1014.17,317.5 1016.15,316.12 1017.29,316.12 C1018.01,316.12 1018.37,316.9 1018.37,318.34 L1018.37,318.34 Z M1054.47,314.38 C1054.47,313.9 1054.23,313.36 1053.75,312.82 C1053.27,312.34 1052.73,312.1 1052.25,312.1 C1051.77,312.1 1050.75,312.46 1049.25,313.18 C1046.73,314.38 1043.55,316.66 1039.83,319.9 C1040.67,316.42 1041.45,313.66 1042.29,311.68 C1042.77,310.42 1043.01,309.64 1043.01,309.4 C1043.01,307.84 1042.23,307.06 1040.79,307.06 C1039.83,307.06 1039.11,307.6 1038.63,308.68 C1035.69,315.88 1034.19,323.8 1034.07,332.38 C1033.95,332.68 1033.95,332.98 1033.95,333.28 C1033.95,334 1034.07,334.66 1034.31,335.32 C1034.67,336.4 1035.51,337 1036.71,337 C1038.03,337 1038.69,336.22 1038.69,334.72 C1038.69,334.6 1038.63,334.24 1038.63,333.64 C1038.57,333.04 1038.57,332.62 1038.57,332.26 L1038.57,330.04 C1038.57,329.2 1038.57,328.24 1038.69,327.16 C1039.11,326.92 1039.35,326.8 1039.41,326.74 C1041.69,329.8 1044.63,332.5 1048.17,334.84 C1049.25,335.62 1050.09,336.04 1050.69,336.04 C1052.13,336.04 1052.85,335.26 1052.85,333.76 C1052.85,333.16 1052.31,332.32 1051.35,331.36 C1049.67,329.86 1048.71,329.08 1048.35,329.08 C1048.23,329.08 1048.05,329.14 1047.93,329.14 C1045.59,327.28 1043.79,325.48 1042.59,323.74 C1045.47,321.04 1047.87,319.12 1049.85,318.04 C1050.09,318.16 1050.33,318.22 1050.63,318.22 C1051.41,318.22 1052.25,317.8 1053.09,316.96 C1053.99,316.18 1054.47,315.34 1054.47,314.38 L1054.47,314.38 Z M1112.39,323.02 C1112.39,319.72 1111.55,317.02 1109.99,314.92 C1108.19,312.58 1105.73,311.38 1102.55,311.38 C1099.67,311.38 1096.49,312.88 1093.13,315.82 C1094.09,309.7 1098.17,305.38 1105.49,302.98 C1107.59,302.26 1108.67,301.24 1108.67,299.8 C1108.67,298.78 1108.31,297.7 1107.71,296.56 C1106.99,295.48 1106.21,294.88 1105.37,294.88 C1104.59,294.88 1104.17,295.42 1104.11,296.44 C1103.99,297.64 1103.93,298.24 1103.87,298.36 C1103.69,298.66 1103.09,299.02 1102.07,299.44 C1092.59,303.28 1087.91,310.42 1087.91,320.92 C1087.91,325.42 1088.81,329.08 1090.73,331.96 C1092.83,334.96 1095.77,336.52 1099.55,336.52 C1102.91,336.52 1105.85,335.2 1108.49,332.62 C1111.07,329.98 1112.39,326.8 1112.39,323.02 L1112.39,323.02 Z M1108.07,321.64 C1108.07,324.52 1107.23,326.92 1105.61,328.96 C1103.93,331 1101.83,332.02 1099.43,332.02 C1097.51,332.02 1095.89,331.18 1094.69,329.38 C1093.49,327.58 1092.89,325.36 1092.89,322.66 C1092.89,322.36 1092.89,321.94 1092.95,321.34 C1094.45,321.16 1095.29,320.5 1095.47,319.42 C1098.23,317.14 1100.75,315.94 1102.91,315.94 C1104.23,315.94 1105.43,316.54 1106.51,317.62 C1107.53,318.82 1108.07,320.14 1108.07,321.64 L1108.07,321.64 Z M1144.35,324.16 L1144.35,320.14 C1144.35,315.94 1143.39,313.78 1141.53,313.78 C1140.57,313.78 1139.67,314.62 1138.77,316.18 C1136.91,319.48 1135.47,321.82 1134.39,323.14 C1132.95,324.94 1131.57,325.84 1130.25,325.84 C1129.29,325.84 1128.87,325.3 1128.87,324.22 C1128.87,323.26 1129.05,321.4 1129.41,318.64 C1129.77,315.88 1130.01,314.2 1130.01,313.66 C1130.01,312.22 1129.77,310.9 1129.29,309.82 C1128.75,308.5 1127.97,307.84 1127.01,307.84 C1125.21,307.84 1124.37,308.62 1124.37,310.12 C1124.37,310.48 1124.43,310.96 1124.67,311.68 C1124.85,312.4 1124.97,312.88 1124.97,313.24 C1124.97,314.44 1124.79,316.24 1124.49,318.76 C1124.19,321.28 1124.07,323.2 1124.07,324.4 C1124.07,326.38 1124.61,328 1125.75,329.26 C1126.83,330.58 1128.27,331.18 1130.19,331.18 C1133.25,331.18 1136.37,328.96 1139.55,324.52 C1139.55,326.56 1139.37,328.48 1139.07,330.34 C1137.63,338.32 1132.35,342.34 1123.17,342.46 C1121.73,342.28 1120.65,342.16 1119.93,342.1 C1118.43,342.16 1117.65,342.94 1117.65,344.5 C1117.65,346.66 1119.51,347.8 1123.23,347.8 C1129.11,347.8 1133.85,346.18 1137.57,343.06 C1142.07,339.22 1144.35,332.98 1144.35,324.16 L1144.35,324.16 Z M1180.33,334.12 C1180.33,333.94 1180.21,333.64 1179.97,333.28 C1179.25,331.96 1178.41,331.3 1177.57,331.3 C1177.45,331.3 1177.27,331.36 1176.97,331.36 C1177.27,323.92 1177.51,318.52 1177.75,315.1 C1177.87,313.36 1178.23,311.62 1178.89,309.82 C1178.89,309.22 1178.53,308.56 1177.93,307.96 C1177.33,307.36 1176.73,307.06 1176.13,307.06 C1174.57,307.06 1172.71,307.42 1170.49,308.02 C1167.85,308.8 1166.11,309.4 1165.27,309.76 C1163.95,310.48 1163.35,311.38 1163.35,312.4 C1163.35,312.7 1163.47,313.12 1163.77,313.72 C1163.95,314.32 1164.07,314.74 1164.07,314.98 C1164.07,317.62 1163.41,320.62 1162.09,324.1 C1160.65,327.76 1159.03,330.64 1157.11,332.74 C1155.25,332.86 1154.29,333.7 1154.17,335.26 C1153.93,337.6 1153.87,339.64 1153.87,341.32 C1153.87,341.86 1154.11,342.4 1154.59,342.88 C1155.07,343.36 1155.73,343.66 1156.45,343.66 C1157.83,343.66 1158.55,342.94 1158.55,341.56 C1158.55,341.32 1158.49,341.02 1158.43,340.6 C1158.31,340.18 1158.31,339.88 1158.31,339.76 C1158.31,339.52 1158.31,339.28 1158.37,338.92 L1158.37,338.02 C1158.37,337.54 1158.79,337.24 1159.75,337.18 C1163.29,336.76 1166.53,336.46 1169.41,336.28 C1171.51,336.1 1173.01,336.04 1173.85,336.04 C1174.57,336.04 1174.99,336.34 1174.99,336.94 C1174.99,337.12 1174.99,337.78 1175.05,338.98 L1175.05,341.08 C1175.05,342.76 1175.65,343.66 1176.97,343.66 C1177.45,343.66 1178.05,343.48 1178.71,343.18 C1179.25,342.82 1179.55,342.34 1179.55,341.86 C1179.55,341.44 1179.49,340.9 1179.43,340.18 C1179.31,339.46 1179.25,338.86 1179.25,338.5 C1179.25,337.54 1179.31,336.7 1179.55,336.04 C1179.55,335.92 1179.67,335.62 1179.91,335.14 C1180.15,334.6 1180.33,334.24 1180.33,334.12 L1180.33,334.12 Z M1173.31,312.16 C1173.31,320.32 1172.95,326.92 1172.23,331.9 C1167.55,332.2 1164.37,332.44 1162.63,332.68 C1165.57,328 1167.61,321.52 1168.75,313.36 C1169.71,312.88 1171.27,312.46 1173.31,312.16 L1173.31,312.16 Z M1213.97,309.04 C1213.97,308.44 1213.73,307.84 1213.31,307.3 C1212.89,306.82 1212.41,306.52 1211.87,306.52 C1210.97,306.52 1209.71,306.76 1208.03,307.12 C1201.43,308.68 1195.55,310.06 1190.51,311.26 C1190.15,311.38 1189.91,311.38 1189.79,311.38 C1188.59,311.62 1187.99,312.52 1187.99,314.02 C1187.99,315.7 1188.65,316.48 1190.09,316.48 C1191.83,316.12 1193.21,315.82 1194.17,315.52 C1195.91,315.16 1197.41,314.8 1198.67,314.56 C1198.43,319.18 1198.31,323.62 1198.31,327.82 C1198.31,331.9 1198.55,334.72 1199.03,336.28 C1199.39,337.36 1200.11,337.9 1201.31,337.9 C1202.87,337.9 1203.65,336.46 1203.65,333.64 C1203.65,332.26 1203.35,331.24 1202.87,330.58 C1202.75,329.08 1202.69,326.74 1202.69,323.5 C1202.69,320.98 1202.87,317.56 1203.35,313.3 C1205.09,312.88 1206.29,312.58 1207.01,312.46 C1207.55,312.82 1207.97,312.94 1208.27,312.94 C1208.63,312.94 1209.05,312.88 1209.59,312.64 L1212.35,311.38 C1213.43,310.9 1213.97,310.12 1213.97,309.04 L1213.97,309.04 Z M1240.65,320.8 C1240.65,318.46 1239.99,316.3 1238.67,314.38 C1237.29,312.52 1235.55,311.2 1233.45,310.48 C1232.61,310.24 1232.13,310.12 1232.01,310.12 C1231.53,310.12 1230.99,310.42 1230.27,310.9 C1229.43,311.38 1228.77,311.74 1228.29,311.92 C1226.25,312.94 1224.57,314.74 1223.37,317.26 C1222.17,319.54 1221.63,322 1221.63,324.58 C1221.63,327.64 1222.41,330.16 1224.09,332.14 C1225.77,334.06 1227.87,335.08 1230.39,335.08 C1233.27,335.08 1235.73,333.76 1237.71,331 C1239.63,328.24 1240.65,324.88 1240.65,320.8 L1240.65,320.8 Z M1235.91,321.7 C1235.91,323.74 1235.31,325.6 1234.23,327.34 C1233.03,329.14 1231.77,330.04 1230.33,330.04 C1229.13,330.04 1228.17,329.5 1227.45,328.36 C1226.67,327.28 1226.31,326.02 1226.31,324.58 C1226.31,322.66 1226.73,320.86 1227.69,319.18 C1228.77,317.26 1230.15,316.24 1231.83,316.24 C1232.43,316.6 1233.21,316.78 1234.17,316.78 C1235.31,317.5 1235.91,319.18 1235.91,321.7 L1235.91,321.7 Z M603.7,392.34 C603.7,388.92 600.04,387.06 592.84,386.76 C598.36,384.3 601.12,381.66 601.12,378.78 C601.12,376.92 600.16,375.48 598.3,374.46 C596.8,373.74 595,373.32 592.9,373.32 C589.96,373.32 586.48,373.5 582.46,373.86 C580.66,374.1 579.82,374.82 579.82,376.14 C579.82,377.58 580.6,378.24 582.28,378.24 C582.58,378.24 583.06,378.18 583.72,378.06 C583.6,391.32 583.54,398.16 583.54,398.52 C581.44,398.76 580.42,399.6 580.42,401.16 C580.42,402.24 581.14,402.84 582.7,403.02 C583.96,402.96 585.82,402.66 588.28,402.12 C592.84,401.04 596.2,399.96 598.24,399 C601.84,397.32 603.7,395.1 603.7,392.34 L603.7,392.34 Z M596.5,379.32 C596.5,381.06 593.68,382.92 588.04,384.9 L588.16,377.94 C590.38,377.76 592,377.64 592.96,377.64 C595.3,377.64 596.5,378.24 596.5,379.32 L596.5,379.32 Z M599.2,392.94 C599.2,393.84 598.18,394.74 596.14,395.58 C594.1,396.42 591.34,397.08 587.92,397.5 L587.92,389.94 C591.88,390.06 594.64,390.36 596.32,390.72 C598.24,391.2 599.2,391.92 599.2,392.94 L599.2,392.94 Z M642.44,375.12 C642.44,374.52 642.26,373.98 641.9,373.44 C641.42,372.9 640.88,372.6 640.22,372.6 C639.08,372.6 638.12,373.62 637.34,375.54 C636.56,377.58 636.2,379.02 636.2,379.86 C636.2,380.4 636.5,380.94 637.1,381.48 L636.02,389.82 C635.3,394.8 635,397.8 635,398.88 C635,401.4 635.9,402.72 637.76,402.72 C638.42,402.72 638.96,402.42 639.38,401.94 C639.86,401.4 640.1,400.8 640.1,400.14 C640.1,399.42 639.92,398.88 639.62,398.46 C639.68,396.06 639.92,393.6 640.28,391.14 C640.64,388.68 641.06,386.22 641.42,383.7 C642.08,379.26 642.44,376.38 642.44,375.12 L642.44,375.12 Z M632,391.74 C632,389.28 631.16,387.3 629.54,385.8 C628.04,384.42 626.12,383.7 623.72,383.7 C622.4,383.7 621.08,384.06 619.76,384.78 C620,382.56 620.18,380.58 620.36,378.9 C620.66,376.98 620.84,375.48 620.96,374.4 C620.72,372.66 620,371.76 618.68,371.76 C617.12,371.76 616.28,372.96 616.1,375.3 C615.14,384.78 614.42,392.82 613.82,399.42 C613.88,401.52 614.66,402.6 616.22,402.6 C617.18,402.6 617.84,402.18 618.2,401.4 C618.86,401.58 619.46,401.7 620.06,401.7 C622.7,401.7 625.28,400.74 627.8,398.88 C630.56,396.84 632,394.5 632,391.74 L632,391.74 Z M627.44,391.02 C627.44,392.82 626.48,394.44 624.68,395.82 C623,397.14 621.38,397.8 619.82,397.8 C619.58,397.8 619.16,397.74 618.68,397.62 L619.22,390.72 C620.3,388.92 621.74,387.96 623.6,387.96 C624.56,387.96 625.4,388.26 626.24,388.86 C627.02,389.46 627.44,390.18 627.44,391.02 L627.44,391.02 Z M673.74,376.56 C673.74,375.9 673.44,375.3 672.84,374.82 C672.18,374.4 671.52,374.16 670.86,374.04 C664.74,374.52 659.88,374.94 656.4,375.18 C654.3,375.36 653.28,376.08 653.28,377.4 C653.28,378.24 653.4,378.96 653.76,379.62 C653.34,385.8 653.16,388.92 653.16,389.04 C652.74,393.36 652.56,395.52 652.56,395.52 C652.56,396.3 652.8,397.08 653.34,397.86 C653.88,398.64 654.48,399 655.2,399 C656.4,399 657,398.22 657.12,396.6 C657.48,390.12 657.84,384.54 658.32,379.86 C661.38,379.44 664.56,379.14 667.86,379.02 C667.86,379.2 667.74,382.14 667.56,387.78 C667.32,392.82 667.26,395.52 667.26,395.88 C667.26,399.78 668.28,401.76 670.44,401.76 C671.58,401.76 672.18,401.1 672.18,399.9 C671.82,398.1 671.7,396.42 671.7,394.98 C671.7,393.06 671.82,390 672.06,385.8 C672.12,385.14 672.24,384.18 672.42,382.86 C672.54,381.78 672.6,381.18 672.6,380.94 C672.6,380.58 672.48,380.04 672.36,379.32 C673.26,378.36 673.74,377.46 673.74,376.56 L673.74,376.56 Z M706.18,399.36 C706.18,398.94 705.88,398.4 705.34,397.8 C704.02,396.36 703.42,392.7 703.42,386.82 C703.42,384.72 703.72,381.18 704.38,376.2 C704.38,375.54 704.08,374.94 703.6,374.34 C703.06,373.8 702.46,373.5 701.8,373.5 C700.78,373.5 698.62,375.72 695.38,380.16 C692.74,383.64 690.58,386.82 688.78,389.58 C689.2,384.9 689.5,381.48 689.68,379.44 C689.68,378.48 689.32,377.64 688.72,376.92 C688.12,376.26 687.34,375.9 686.38,375.9 C685.84,375.9 685.36,376.26 684.88,376.92 C685,378.66 685.12,379.68 685.12,379.92 C685.12,381 684.94,383.7 684.64,388.08 L684.52,389.82 C684.46,390.72 684.34,391.92 684.22,393.42 C684.04,394.86 683.92,395.76 683.92,396.12 C683.98,396.96 684.22,397.62 684.7,397.98 C685.66,398.94 686.26,399.36 686.5,399.36 C687.34,399.36 688.36,398.46 689.44,396.54 C691.66,392.82 693.22,390.18 694.18,388.74 C695.74,386.16 697.42,383.76 699.28,381.6 C699.28,382.2 699.22,383.46 699.22,385.32 C699.16,387.24 699.16,388.26 699.16,388.5 C699.16,391.62 699.46,394.26 700.12,396.54 C701.02,399.84 702.34,401.52 704.02,401.52 C704.38,401.52 704.86,401.22 705.4,400.74 C705.88,400.14 706.18,399.72 706.18,399.36 L706.18,399.36 Z M740.18,392.34 C740.18,388.92 736.52,387.06 729.32,386.76 C734.84,384.3 737.6,381.66 737.6,378.78 C737.6,376.92 736.64,375.48 734.78,374.46 C733.28,373.74 731.48,373.32 729.38,373.32 C726.44,373.32 722.96,373.5 718.94,373.86 C717.14,374.1 716.3,374.82 716.3,376.14 C716.3,377.58 717.08,378.24 718.76,378.24 C719.06,378.24 719.54,378.18 720.2,378.06 C720.08,391.32 720.02,398.16 720.02,398.52 C717.92,398.76 716.9,399.6 716.9,401.16 C716.9,402.24 717.62,402.84 719.18,403.02 C720.44,402.96 722.3,402.66 724.76,402.12 C729.32,401.04 732.68,399.96 734.72,399 C738.32,397.32 740.18,395.1 740.18,392.34 L740.18,392.34 Z M732.98,379.32 C732.98,381.06 730.16,382.92 724.52,384.9 L724.64,377.94 C726.86,377.76 728.48,377.64 729.44,377.64 C731.78,377.64 732.98,378.24 732.98,379.32 L732.98,379.32 Z M735.68,392.94 C735.68,393.84 734.66,394.74 732.62,395.58 C730.58,396.42 727.82,397.08 724.4,397.5 L724.4,389.94 C728.36,390.06 731.12,390.36 732.8,390.72 C734.72,391.2 735.68,391.92 735.68,392.94 L735.68,392.94 Z M772.08,385.08 C772.08,384.54 771.78,383.94 771.3,383.34 C771.3,381.96 771.06,380.76 770.7,379.68 C770.76,379.44 770.82,379.14 770.82,378.84 C770.82,378.12 770.4,377.4 769.68,376.8 C768.9,376.2 768.12,375.84 767.34,375.84 C764.04,375.84 760.44,377.76 756.48,381.48 C752.34,385.32 750.3,389.04 750.3,392.52 C750.3,394.38 750.9,396 752.22,397.44 C753.48,398.94 754.98,399.66 756.72,399.66 C759.42,399.66 762.42,397.98 765.78,394.62 C766.08,399.18 767.1,401.52 768.84,401.52 C769.44,401.52 770.04,401.28 770.58,400.92 C771.06,400.44 771.36,399.84 771.36,399.24 C771.36,399.06 771.18,398.34 770.94,396.9 C770.64,395.52 770.52,394.44 770.52,393.72 C770.52,391.32 770.88,388.92 771.72,386.4 C771.96,385.74 772.08,385.32 772.08,385.08 L772.08,385.08 Z M766.62,383.34 C766.62,385.38 765.42,387.78 763.14,390.54 C760.86,393.3 758.76,394.62 756.96,394.62 C755.7,394.62 755.1,393.9 755.1,392.4 C755.1,390.48 756.6,388.08 759.66,385.14 C762.42,382.5 764.4,381.12 765.54,381.12 C766.26,381.12 766.62,381.9 766.62,383.34 L766.62,383.34 Z M806.44,377.76 C806.44,376.86 806.14,376.08 805.54,375.36 C805,374.7 804.34,374.34 803.5,374.34 C803.14,374.34 802.42,374.7 801.34,375.3 C800.26,375.96 797.62,376.5 793.36,376.98 C792.4,376.2 791.62,375.78 791.08,375.78 C790.42,375.78 789.7,376.14 788.98,376.86 C788.26,377.58 787.9,378.36 787.9,379.08 C787.9,379.56 788.14,380.16 788.62,380.82 C789.04,381.54 789.28,382.32 789.28,383.22 C789.28,386.94 788.98,390 788.38,392.52 C787.6,395.46 786.58,396.9 785.38,396.9 C784.9,396.9 784.54,396.18 784.42,394.62 C784.3,394.02 784.06,393.66 783.58,393.66 C782.74,393.66 782.14,394.08 781.72,394.8 C781.18,395.64 780.94,396.6 780.94,397.62 C780.94,398.76 781.36,399.6 782.26,400.26 C783.1,400.86 784.06,401.22 785.14,401.22 C788.26,401.22 790.48,399.18 791.8,395.22 C792.64,392.7 793.36,388.14 793.96,381.54 C795.46,381.18 797.74,380.7 800.86,380.16 C800.26,386.04 799.96,390.48 799.96,393.48 C799.96,397.44 800.2,399.9 800.74,400.92 C801.28,401.94 802.06,402.48 803.02,402.48 C804.58,402.48 805.36,401.52 805.36,399.72 C805.12,398.64 805,397.68 804.88,396.84 C804.58,394.8 804.46,393.06 804.46,391.56 C804.46,388.32 804.94,384.54 805.96,380.22 C806.26,378.78 806.44,378 806.44,377.76 L806.44,377.76 Z M838.82,399.36 C838.82,398.94 838.52,398.4 837.98,397.8 C836.66,396.36 836.06,392.7 836.06,386.82 C836.06,384.72 836.36,381.18 837.02,376.2 C837.02,375.54 836.72,374.94 836.24,374.34 C835.7,373.8 835.1,373.5 834.44,373.5 C833.42,373.5 831.26,375.72 828.02,380.16 C825.38,383.64 823.22,386.82 821.42,389.58 C821.84,384.9 822.14,381.48 822.32,379.44 C822.32,378.48 821.96,377.64 821.36,376.92 C820.76,376.26 819.98,375.9 819.02,375.9 C818.48,375.9 818,376.26 817.52,376.92 C817.64,378.66 817.76,379.68 817.76,379.92 C817.76,381 817.58,383.7 817.28,388.08 L817.16,389.82 C817.1,390.72 816.98,391.92 816.86,393.42 C816.68,394.86 816.56,395.76 816.56,396.12 C816.62,396.96 816.86,397.62 817.34,397.98 C818.3,398.94 818.9,399.36 819.14,399.36 C819.98,399.36 821,398.46 822.08,396.54 C824.3,392.82 825.86,390.18 826.82,388.74 C828.38,386.16 830.06,383.76 831.92,381.6 C831.92,382.2 831.86,383.46 831.86,385.32 C831.8,387.24 831.8,388.26 831.8,388.5 C831.8,391.62 832.1,394.26 832.76,396.54 C833.66,399.84 834.98,401.52 836.66,401.52 C837.02,401.52 837.5,401.22 838.04,400.74 C838.52,400.14 838.82,399.72 838.82,399.36 L838.82,399.36 Z M897.34,392.34 C897.34,388.92 893.68,387.06 886.48,386.76 C892,384.3 894.76,381.66 894.76,378.78 C894.76,376.92 893.8,375.48 891.94,374.46 C890.44,373.74 888.64,373.32 886.54,373.32 C883.6,373.32 880.12,373.5 876.1,373.86 C874.3,374.1 873.46,374.82 873.46,376.14 C873.46,377.58 874.24,378.24 875.92,378.24 C876.22,378.24 876.7,378.18 877.36,378.06 C877.24,391.32 877.18,398.16 877.18,398.52 C875.08,398.76 874.06,399.6 874.06,401.16 C874.06,402.24 874.78,402.84 876.34,403.02 C877.6,402.96 879.46,402.66 881.92,402.12 C886.48,401.04 889.84,399.96 891.88,399 C895.48,397.32 897.34,395.1 897.34,392.34 L897.34,392.34 Z M890.14,379.32 C890.14,381.06 887.32,382.92 881.68,384.9 L881.8,377.94 C884.02,377.76 885.64,377.64 886.6,377.64 C888.94,377.64 890.14,378.24 890.14,379.32 L890.14,379.32 Z M892.84,392.94 C892.84,393.84 891.82,394.74 889.78,395.58 C887.74,396.42 884.98,397.08 881.56,397.5 L881.56,389.94 C885.52,390.06 888.28,390.36 889.96,390.72 C891.88,391.2 892.84,391.92 892.84,392.94 L892.84,392.94 Z M927.62,376.2 C927.56,375.54 927.32,374.88 926.84,374.28 C926.36,373.68 925.82,373.38 925.22,373.38 C923.6,373.38 922.76,374.28 922.7,376.02 C922.7,376.26 922.7,377.04 922.76,378.3 C922.76,379.68 922.82,380.46 922.82,380.7 C922.82,383.04 922.04,385.2 920.54,387.24 C918.98,389.28 917.24,390.24 915.38,390.24 C913.04,390.24 911.9,388.56 911.9,385.08 C911.9,383.76 912.14,380.76 912.74,376.08 C912.56,374.4 911.84,373.5 910.64,373.5 C908.96,373.5 908,375.12 907.64,378.3 C907.52,379.2 907.46,381.42 907.46,385.02 C907.46,391.38 909.98,394.56 915.08,394.56 C916.52,394.56 918.02,394.2 919.46,393.36 C920.9,392.58 922.04,391.5 922.76,390.18 C922.64,392.58 922.52,394.56 922.4,396.06 C922.16,398.52 922.1,400.26 922.1,401.46 C922.1,403.08 922.76,403.92 924.2,403.92 C925.76,403.92 926.6,403.08 926.66,401.4 C926.72,397.5 926.9,391.74 927.26,384.18 C927.38,380.22 927.5,377.58 927.62,376.2 L927.62,376.2 Z M961.56,397.92 C961.56,397.32 961.32,396.72 960.84,396.12 C960.36,395.64 959.76,395.34 959.16,395.34 C958.68,395.34 957.9,395.46 956.88,395.58 C955.86,395.7 955.08,395.76 954.6,395.76 C952.8,395.76 951.24,394.92 949.8,393.18 C955.8,389.94 958.8,386.1 958.8,381.66 C958.8,379.98 958.08,378.36 956.64,376.92 C955.2,375.48 953.76,374.76 952.26,374.76 C949.68,374.76 947.58,376.26 945.9,379.2 C944.46,381.72 943.74,384.42 943.74,387.3 C943.74,387.9 943.8,388.74 943.98,389.76 L942.6,389.76 C941.76,389.76 940.98,389.46 940.14,388.86 C939.3,388.26 938.7,387.96 938.34,387.96 C936.78,387.96 936,388.8 936,390.48 C936,391.8 936.96,392.88 939,393.72 C940.56,394.38 942.06,394.68 943.62,394.68 L945.42,394.68 C947.58,398.82 950.94,400.86 955.5,400.86 C959.52,400.86 961.56,399.84 961.56,397.92 L961.56,397.92 Z M954.06,381.9 C954.06,383.88 952.26,386.04 948.66,388.38 L948.66,387.3 C948.66,385.68 948.9,384.12 949.5,382.62 C950.1,380.82 950.94,379.92 952.02,379.92 C952.5,379.92 952.98,380.16 953.46,380.52 C953.82,381 954.06,381.42 954.06,381.9 L954.06,381.9 Z M991.72,378.24 C991.72,375.36 991.06,372.96 989.74,371.04 C988.3,368.94 986.2,367.86 983.56,367.86 C979.78,367.86 976.84,370.5 974.74,375.78 C973.3,379.44 972.58,383.64 972.58,388.32 C972.58,388.92 972.58,389.4 972.64,389.7 C970.96,390.3 970.18,391.2 970.18,392.46 C970.18,394.02 970.96,394.86 972.64,394.98 C972.76,395.94 972.82,397.38 972.82,399.3 C972.82,403.14 972.58,405.84 972.22,407.52 C971.8,409.14 971.62,410.04 971.62,410.22 C971.62,410.88 971.86,411.48 972.34,412.02 C972.82,412.5 973.42,412.8 974.08,412.8 C975.34,412.8 976.24,411.54 976.78,409.08 C977.38,406.32 977.68,403.5 977.68,400.74 C977.68,398.22 977.56,395.76 977.38,393.36 C986.92,389.88 991.72,384.84 991.72,378.24 L991.72,378.24 Z M986.92,377.22 C986.92,382.14 983.74,385.74 977.44,388.02 C977.44,384.78 977.98,381.48 979.12,378.24 C980.38,374.7 981.88,372.9 983.56,372.9 C984.58,372.9 985.42,373.38 986.08,374.22 C986.62,375.06 986.92,376.08 986.92,377.22 L986.92,377.22 Z M1023.44,385.08 C1023.44,384.54 1023.14,383.94 1022.66,383.34 C1022.66,381.96 1022.42,380.76 1022.06,379.68 C1022.12,379.44 1022.18,379.14 1022.18,378.84 C1022.18,378.12 1021.76,377.4 1021.04,376.8 C1020.26,376.2 1019.48,375.84 1018.7,375.84 C1015.4,375.84 1011.8,377.76 1007.84,381.48 C1003.7,385.32 1001.66,389.04 1001.66,392.52 C1001.66,394.38 1002.26,396 1003.58,397.44 C1004.84,398.94 1006.34,399.66 1008.08,399.66 C1010.78,399.66 1013.78,397.98 1017.14,394.62 C1017.44,399.18 1018.46,401.52 1020.2,401.52 C1020.8,401.52 1021.4,401.28 1021.94,400.92 C1022.42,400.44 1022.72,399.84 1022.72,399.24 C1022.72,399.06 1022.54,398.34 1022.3,396.9 C1022,395.52 1021.88,394.44 1021.88,393.72 C1021.88,391.32 1022.24,388.92 1023.08,386.4 C1023.32,385.74 1023.44,385.32 1023.44,385.08 L1023.44,385.08 Z M1017.98,383.34 C1017.98,385.38 1016.78,387.78 1014.5,390.54 C1012.22,393.3 1010.12,394.62 1008.32,394.62 C1007.06,394.62 1006.46,393.9 1006.46,392.4 C1006.46,390.48 1007.96,388.08 1011.02,385.14 C1013.78,382.5 1015.76,381.12 1016.9,381.12 C1017.62,381.12 1017.98,381.9 1017.98,383.34 L1017.98,383.34 Z M1058.34,367.26 C1058.34,364.2 1057.2,361.8 1054.92,360.06 C1052.88,358.5 1050.12,357.66 1046.76,357.66 C1045.38,357.66 1043.76,357.9 1041.96,358.32 C1040.94,358.02 1040.4,357.84 1040.34,357.84 C1039.62,357.84 1038.9,358.2 1038.12,358.8 C1037.4,359.46 1037.04,360.12 1037.04,360.84 C1037.04,361.68 1037.28,362.34 1037.76,362.82 C1038.24,363.42 1038.84,363.66 1039.68,363.66 C1039.86,363.66 1040.46,363.6 1041.42,363.36 C1044.3,362.88 1045.86,362.58 1046.1,362.58 C1051.02,362.58 1053.54,364.14 1053.54,367.2 C1053.54,369.48 1052.16,371.46 1049.46,373.02 C1047.12,374.4 1044.36,375.24 1041.18,375.6 C1039.26,375.84 1038.36,376.68 1038.36,378.06 C1038.36,378.36 1038.54,379.02 1038.96,380.1 C1039.8,382.68 1040.34,385.2 1040.64,387.66 C1040.82,389.34 1041.6,390.12 1042.98,390.12 C1044.54,390.12 1045.38,389.28 1045.38,387.48 C1045.38,385.62 1044.9,383.04 1044,379.8 C1047.78,379.2 1051.08,377.82 1053.84,375.66 C1056.84,373.26 1058.34,370.5 1058.34,367.26 L1058.34,367.26 Z M1046.58,398.16 C1046.58,397.2 1046.22,396.42 1045.56,395.82 C1044.78,395.34 1043.94,395.04 1043.1,395.04 C1042.08,395.04 1041.3,395.46 1040.7,396.24 C1040.1,396.96 1039.8,397.86 1039.8,398.88 C1039.8,399.78 1040.04,400.56 1040.58,401.22 C1041.12,401.82 1041.72,402.18 1042.38,402.18 C1043.76,402.18 1044.84,401.82 1045.56,401.1 C1046.22,400.32 1046.58,399.36 1046.58,398.16 L1046.58,398.16 Z" id="Под-глазами-отеки,-к"></path>
        </g>
    </g>
</svg>