<?xml version="1.0" encoding="UTF-8"?>
<svg width="702px" height="64px" viewBox="0 0 702 64" version="1.1" xmlns="http://www.w3.org/2000/svg" xmlns:xlink="http://www.w3.org/1999/xlink">
    <!-- Generator: Sketch 40.3 (33839) - http://www.bohemiancoding.com/sketch -->
    <title>Ноги тянут вас к зем Copy</title>
    <desc>Created with Sketch.</desc>
    <defs></defs>
    <g id="Page-1" stroke="none" stroke-width="1" fill="none" fill-rule="evenodd">
        <g id="1600--copy-7" transform="translate(-678.000000, -310.000000)" fill="#FFFFFF">
            <path d="M714.19,317.94 C714.19,317.34 713.95,316.74 713.47,316.2 C712.99,315.72 712.39,315.42 711.79,315.42 C710.65,315.42 709.93,316.08 709.63,317.34 C709.21,319.14 708.91,320.52 708.79,321.48 C708.19,324.36 707.59,328.32 706.99,333.36 C702.31,335.04 696.79,336 690.43,336.36 C690.91,332.1 691.63,328.02 692.59,324.18 C693.19,321.42 693.67,319.62 694.03,318.72 C695.05,315.6 695.59,313.8 695.59,313.38 C695.59,311.76 694.75,310.92 693.19,310.92 C692.23,310.92 691.51,311.46 690.97,312.48 C690.79,312.78 690.43,313.68 689.95,315.24 C687.91,321 686.41,328.14 685.51,336.66 C685.03,336.66 684.13,336.6 682.87,336.48 C681.61,336.42 680.89,336.36 680.71,336.36 C680.11,336.36 679.63,336.66 679.27,337.14 C678.85,337.68 678.67,338.22 678.67,338.82 C678.67,340.62 679.99,341.46 682.75,341.46 L684.01,341.46 C684.49,341.46 684.91,341.4 685.15,341.4 C684.43,349.44 684.13,355.86 684.13,360.66 C684.13,361.38 684.31,361.98 684.79,362.58 C685.21,363.18 685.75,363.48 686.41,363.48 C687.07,363.48 687.67,363.12 688.21,362.52 C688.69,361.86 688.93,361.08 688.99,360.24 C689.35,352.32 689.71,346.02 690.07,341.28 C696.07,340.8 701.47,339.9 706.39,338.7 C705.55,347.46 705.19,354.12 705.19,358.74 C705.19,361.98 706.09,363.66 707.95,363.66 C708.55,363.66 709.15,363.42 709.63,362.94 C710.11,362.4 710.35,361.8 710.35,361.14 C710.35,360.9 710.29,360.24 710.29,359.1 C710.23,357.96 710.23,357.12 710.23,356.52 C710.23,346.74 711.37,334.86 713.71,320.94 L714.19,317.94 Z M743.39,346.8 C743.39,344.46 742.73,342.3 741.41,340.38 C740.03,338.52 738.29,337.2 736.19,336.48 C735.35,336.24 734.87,336.12 734.75,336.12 C734.27,336.12 733.73,336.42 733.01,336.9 C732.17,337.38 731.51,337.74 731.03,337.92 C728.99,338.94 727.31,340.74 726.11,343.26 C724.91,345.54 724.37,348 724.37,350.58 C724.37,353.64 725.15,356.16 726.83,358.14 C728.51,360.06 730.61,361.08 733.13,361.08 C736.01,361.08 738.47,359.76 740.45,357 C742.37,354.24 743.39,350.88 743.39,346.8 L743.39,346.8 Z M738.65,347.7 C738.65,349.74 738.05,351.6 736.97,353.34 C735.77,355.14 734.51,356.04 733.07,356.04 C731.87,356.04 730.91,355.5 730.19,354.36 C729.41,353.28 729.05,352.02 729.05,350.58 C729.05,348.66 729.47,346.86 730.43,345.18 C731.51,343.26 732.89,342.24 734.57,342.24 C735.17,342.6 735.95,342.78 736.91,342.78 C738.05,343.5 738.65,345.18 738.65,347.7 L738.65,347.7 Z M775.83,336.36 C775.83,335.64 775.53,335.04 774.99,334.56 C774.45,334.14 773.85,333.9 773.25,333.9 C772.71,333.9 771.81,334.08 770.55,334.32 C766.35,335.16 761.61,335.64 756.27,335.7 C755.73,335.7 755.25,335.94 754.83,336.42 C754.35,336.9 754.17,337.5 754.17,338.1 C754.17,339.3 755.07,340.08 756.87,340.44 C756.33,346.26 755.43,352.26 754.11,358.5 C753.75,360.3 753.57,361.5 753.57,362.22 C753.57,363.84 754.29,364.68 755.79,364.68 C757.59,364.68 758.61,363.72 758.85,361.86 C759.33,356.88 760.41,349.62 761.97,340.14 C764.31,339.84 765.87,339.6 766.65,339.48 C768.45,339.36 770.25,339.24 772.05,339.06 C774.57,338.7 775.83,337.8 775.83,336.36 L775.83,336.36 Z M806.35,360.36 C806.35,359.94 806.05,359.4 805.51,358.8 C804.19,357.36 803.59,353.7 803.59,347.82 C803.59,345.72 803.89,342.18 804.55,337.2 C804.55,336.54 804.25,335.94 803.77,335.34 C803.23,334.8 802.63,334.5 801.97,334.5 C800.95,334.5 798.79,336.72 795.55,341.16 C792.91,344.64 790.75,347.82 788.95,350.58 C789.37,345.9 789.67,342.48 789.85,340.44 C789.85,339.48 789.49,338.64 788.89,337.92 C788.29,337.26 787.51,336.9 786.55,336.9 C786.01,336.9 785.53,337.26 785.05,337.92 C785.17,339.66 785.29,340.68 785.29,340.92 C785.29,342 785.11,344.7 784.81,349.08 L784.69,350.82 C784.63,351.72 784.51,352.92 784.39,354.42 C784.21,355.86 784.09,356.76 784.09,357.12 C784.15,357.96 784.39,358.62 784.87,358.98 C785.83,359.94 786.43,360.36 786.67,360.36 C787.51,360.36 788.53,359.46 789.61,357.54 C791.83,353.82 793.39,351.18 794.35,349.74 C795.91,347.16 797.59,344.76 799.45,342.6 C799.45,343.2 799.39,344.46 799.39,346.32 C799.33,348.24 799.33,349.26 799.33,349.5 C799.33,352.62 799.63,355.26 800.29,357.54 C801.19,360.84 802.51,362.52 804.19,362.52 C804.55,362.52 805.03,362.22 805.57,361.74 C806.05,361.14 806.35,360.72 806.35,360.36 L806.35,360.36 Z M865.11,335.04 C865.11,334.44 864.87,333.84 864.45,333.3 C864.03,332.82 863.55,332.52 863.01,332.52 C862.11,332.52 860.85,332.76 859.17,333.12 C852.57,334.68 846.69,336.06 841.65,337.26 C841.29,337.38 841.05,337.38 840.93,337.38 C839.73,337.62 839.13,338.52 839.13,340.02 C839.13,341.7 839.79,342.48 841.23,342.48 C842.97,342.12 844.35,341.82 845.31,341.52 C847.05,341.16 848.55,340.8 849.81,340.56 C849.57,345.18 849.45,349.62 849.45,353.82 C849.45,357.9 849.69,360.72 850.17,362.28 C850.53,363.36 851.25,363.9 852.45,363.9 C854.01,363.9 854.79,362.46 854.79,359.64 C854.79,358.26 854.49,357.24 854.01,356.58 C853.89,355.08 853.83,352.74 853.83,349.5 C853.83,346.98 854.01,343.56 854.49,339.3 C856.23,338.88 857.43,338.58 858.15,338.46 C858.69,338.82 859.11,338.94 859.41,338.94 C859.77,338.94 860.19,338.88 860.73,338.64 L863.49,337.38 C864.57,336.9 865.11,336.12 865.11,335.04 L865.11,335.04 Z M892.15,343.38 C892.15,341.58 891.49,340.62 890.23,340.62 C889.15,340.62 888.37,341.22 888.01,342.42 C886.93,345.9 884.41,347.58 880.57,347.58 C878.11,347.58 876.91,347.04 876.91,345.96 C876.91,344.7 878.29,343.2 881.05,341.52 C883.57,340.08 885.55,339.36 887.11,339.36 C887.47,339.36 887.71,339.42 887.89,339.48 C888.25,339.9 888.61,340.08 889.03,340.08 C889.51,340.08 890.05,339.84 890.59,339.36 C891.07,338.88 891.31,338.34 891.31,337.74 C891.31,336.06 890.11,335.16 887.83,335.16 C884.89,335.16 881.77,336.18 878.41,338.22 C874.51,340.62 872.59,343.26 872.59,346.14 C872.59,348 873.31,349.44 874.81,350.4 C875.89,351.24 877.39,351.6 879.25,351.6 L879.79,351.6 L875.77,354.96 L875.41,354.42 C874.75,355.14 874.21,355.74 873.85,356.1 C873.25,356.34 872.71,356.82 872.29,357.48 C871.75,358.2 871.51,358.86 871.51,359.52 C871.51,360.12 871.75,360.66 872.29,361.26 C872.77,361.74 873.37,362.04 873.97,362.04 C874.57,362.04 875.47,361.44 876.67,360.3 C880.93,356.4 884.23,353.46 886.51,351.48 C885.85,356.4 885.55,359.16 885.55,359.76 C885.55,361.74 886.33,362.76 887.89,362.76 C889.21,362.76 889.99,361.92 890.11,360.36 C890.95,352.8 891.61,347.16 892.15,343.38 L892.15,343.38 Z M922.31,337.8 C922.31,336.24 921.59,335.46 920.15,335.46 C918.95,335.46 918.17,336.54 917.87,338.58 C917.57,340.2 917.21,342.48 916.85,345.42 C914.21,346.08 911.63,346.56 909.11,346.8 C909.71,342.96 910.31,340.08 910.91,338.1 C911.27,337.02 911.57,336.18 911.87,335.46 C911.75,333.84 911.03,333 909.59,333 C908.57,333 907.91,333.48 907.55,334.44 C906.35,337.32 905.39,341.46 904.79,346.86 C903.83,346.86 903.17,346.8 902.81,346.74 C901.61,346.74 901.07,347.46 901.07,348.78 C901.07,350.28 901.91,351 903.65,351 L904.37,351 C904.19,353.28 904.01,355.86 903.89,358.86 C903.89,359.04 903.83,359.34 903.77,359.7 C903.65,360.06 903.65,360.3 903.65,360.54 C903.65,361.14 903.89,361.68 904.37,362.16 C904.85,362.64 905.39,362.88 905.99,362.88 C907.43,362.88 908.21,362.1 908.27,360.6 C908.27,358.56 908.45,355.32 908.75,350.88 C911.33,350.64 913.85,350.22 916.37,349.62 C916.07,352.8 915.89,355.32 915.89,357.12 C915.89,357.3 915.83,357.54 915.77,357.9 C915.65,358.2 915.59,358.44 915.59,358.62 C915.59,360.06 915.77,361.14 916.25,361.86 C916.73,362.64 917.27,363.06 917.99,363.06 C918.59,363.06 919.13,362.82 919.61,362.34 C920.03,361.86 920.27,361.26 920.27,360.6 C920.27,360.48 920.21,360.18 920.21,359.58 C920.15,358.98 920.15,358.5 920.15,358.26 C920.15,354.24 920.75,348.06 922.07,339.72 C922.19,338.64 922.31,338.04 922.31,337.8 L922.31,337.8 Z M954.27,350.16 L954.27,346.14 C954.27,341.94 953.31,339.78 951.45,339.78 C950.49,339.78 949.59,340.62 948.69,342.18 C946.83,345.48 945.39,347.82 944.31,349.14 C942.87,350.94 941.49,351.84 940.17,351.84 C939.21,351.84 938.79,351.3 938.79,350.22 C938.79,349.26 938.97,347.4 939.33,344.64 C939.69,341.88 939.93,340.2 939.93,339.66 C939.93,338.22 939.69,336.9 939.21,335.82 C938.67,334.5 937.89,333.84 936.93,333.84 C935.13,333.84 934.29,334.62 934.29,336.12 C934.29,336.48 934.35,336.96 934.59,337.68 C934.77,338.4 934.89,338.88 934.89,339.24 C934.89,340.44 934.71,342.24 934.41,344.76 C934.11,347.28 933.99,349.2 933.99,350.4 C933.99,352.38 934.53,354 935.67,355.26 C936.75,356.58 938.19,357.18 940.11,357.18 C943.17,357.18 946.29,354.96 949.47,350.52 C949.47,352.56 949.29,354.48 948.99,356.34 C947.55,364.32 942.27,368.34 933.09,368.46 C931.65,368.28 930.57,368.16 929.85,368.1 C928.35,368.16 927.57,368.94 927.57,370.5 C927.57,372.66 929.43,373.8 933.15,373.8 C939.03,373.8 943.77,372.18 947.49,369.06 C951.99,365.22 954.27,358.98 954.27,350.16 L954.27,350.16 Z M988.51,335.04 C988.51,334.44 988.27,333.84 987.85,333.3 C987.43,332.82 986.95,332.52 986.41,332.52 C985.51,332.52 984.25,332.76 982.57,333.12 C975.97,334.68 970.09,336.06 965.05,337.26 C964.69,337.38 964.45,337.38 964.33,337.38 C963.13,337.62 962.53,338.52 962.53,340.02 C962.53,341.7 963.19,342.48 964.63,342.48 C966.37,342.12 967.75,341.82 968.71,341.52 C970.45,341.16 971.95,340.8 973.21,340.56 C972.97,345.18 972.85,349.62 972.85,353.82 C972.85,357.9 973.09,360.72 973.57,362.28 C973.93,363.36 974.65,363.9 975.85,363.9 C977.41,363.9 978.19,362.46 978.19,359.64 C978.19,358.26 977.89,357.24 977.41,356.58 C977.29,355.08 977.23,352.74 977.23,349.5 C977.23,346.98 977.41,343.56 977.89,339.3 C979.63,338.88 980.83,338.58 981.55,338.46 C982.09,338.82 982.51,338.94 982.81,338.94 C983.17,338.94 983.59,338.88 984.13,338.64 L986.89,337.38 C987.97,336.9 988.51,336.12 988.51,335.04 L988.51,335.04 Z M1044.57,353.34 C1044.57,349.92 1040.91,348.06 1033.71,347.76 C1039.23,345.3 1041.99,342.66 1041.99,339.78 C1041.99,337.92 1041.03,336.48 1039.17,335.46 C1037.67,334.74 1035.87,334.32 1033.77,334.32 C1030.83,334.32 1027.35,334.5 1023.33,334.86 C1021.53,335.1 1020.69,335.82 1020.69,337.14 C1020.69,338.58 1021.47,339.24 1023.15,339.24 C1023.45,339.24 1023.93,339.18 1024.59,339.06 C1024.47,352.32 1024.41,359.16 1024.41,359.52 C1022.31,359.76 1021.29,360.6 1021.29,362.16 C1021.29,363.24 1022.01,363.84 1023.57,364.02 C1024.83,363.96 1026.69,363.66 1029.15,363.12 C1033.71,362.04 1037.07,360.96 1039.11,360 C1042.71,358.32 1044.57,356.1 1044.57,353.34 L1044.57,353.34 Z M1037.37,340.32 C1037.37,342.06 1034.55,343.92 1028.91,345.9 L1029.03,338.94 C1031.25,338.76 1032.87,338.64 1033.83,338.64 C1036.17,338.64 1037.37,339.24 1037.37,340.32 L1037.37,340.32 Z M1040.07,353.94 C1040.07,354.84 1039.05,355.74 1037.01,356.58 C1034.97,357.42 1032.21,358.08 1028.79,358.5 L1028.79,350.94 C1032.75,351.06 1035.51,351.36 1037.19,351.72 C1039.11,352.2 1040.07,352.92 1040.07,353.94 L1040.07,353.94 Z M1076.47,346.08 C1076.47,345.54 1076.17,344.94 1075.69,344.34 C1075.69,342.96 1075.45,341.76 1075.09,340.68 C1075.15,340.44 1075.21,340.14 1075.21,339.84 C1075.21,339.12 1074.79,338.4 1074.07,337.8 C1073.29,337.2 1072.51,336.84 1071.73,336.84 C1068.43,336.84 1064.83,338.76 1060.87,342.48 C1056.73,346.32 1054.69,350.04 1054.69,353.52 C1054.69,355.38 1055.29,357 1056.61,358.44 C1057.87,359.94 1059.37,360.66 1061.11,360.66 C1063.81,360.66 1066.81,358.98 1070.17,355.62 C1070.47,360.18 1071.49,362.52 1073.23,362.52 C1073.83,362.52 1074.43,362.28 1074.97,361.92 C1075.45,361.44 1075.75,360.84 1075.75,360.24 C1075.75,360.06 1075.57,359.34 1075.33,357.9 C1075.03,356.52 1074.91,355.44 1074.91,354.72 C1074.91,352.32 1075.27,349.92 1076.11,347.4 C1076.35,346.74 1076.47,346.32 1076.47,346.08 L1076.47,346.08 Z M1071.01,344.34 C1071.01,346.38 1069.81,348.78 1067.53,351.54 C1065.25,354.3 1063.15,355.62 1061.35,355.62 C1060.09,355.62 1059.49,354.9 1059.49,353.4 C1059.49,351.48 1060.99,349.08 1064.05,346.14 C1066.81,343.5 1068.79,342.12 1069.93,342.12 C1070.65,342.12 1071.01,342.9 1071.01,344.34 L1071.01,344.34 Z M1105.13,354.48 C1105.13,353.88 1104.89,353.28 1104.41,352.68 C1103.93,352.2 1103.39,351.9 1102.79,351.9 C1102.31,351.9 1101.59,352.32 1100.75,353.1 C1100.03,353.7 1099.31,354.3 1098.71,354.9 C1097.69,355.68 1096.43,356.04 1094.93,356.04 C1092.53,356.04 1091.39,354.6 1091.39,351.6 C1091.39,349.74 1091.93,347.88 1093.01,346.08 C1094.09,344.28 1095.41,342.78 1097.03,341.7 C1097.75,342.12 1098.83,342.3 1100.33,342.3 C1101.11,342.3 1101.89,342 1102.67,341.28 C1103.33,340.56 1103.69,339.9 1103.69,339.18 C1103.69,338.22 1103.33,337.5 1102.61,336.9 C1101.83,336.36 1100.99,336.06 1100.09,336.06 C1096.31,336.06 1092.95,338.04 1090.07,341.94 C1087.73,345.06 1086.59,348.48 1086.59,352.2 C1086.59,354.84 1087.43,356.94 1089.11,358.62 C1090.79,360.24 1092.89,361.08 1095.41,361.08 C1097.69,361.08 1100.03,360.18 1102.31,358.38 C1104.17,356.94 1105.13,355.68 1105.13,354.48 L1105.13,354.48 Z M1159.69,340.38 C1159.69,339.9 1159.45,339.36 1158.97,338.82 C1158.49,338.34 1157.95,338.1 1157.47,338.1 C1156.99,338.1 1155.97,338.46 1154.47,339.18 C1151.95,340.38 1148.77,342.66 1145.05,345.9 C1145.89,342.42 1146.67,339.66 1147.51,337.68 C1147.99,336.42 1148.23,335.64 1148.23,335.4 C1148.23,333.84 1147.45,333.06 1146.01,333.06 C1145.05,333.06 1144.33,333.6 1143.85,334.68 C1140.91,341.88 1139.41,349.8 1139.29,358.38 C1139.17,358.68 1139.17,358.98 1139.17,359.28 C1139.17,360 1139.29,360.66 1139.53,361.32 C1139.89,362.4 1140.73,363 1141.93,363 C1143.25,363 1143.91,362.22 1143.91,360.72 C1143.91,360.6 1143.85,360.24 1143.85,359.64 C1143.79,359.04 1143.79,358.62 1143.79,358.26 L1143.79,356.04 C1143.79,355.2 1143.79,354.24 1143.91,353.16 C1144.33,352.92 1144.57,352.8 1144.63,352.74 C1146.91,355.8 1149.85,358.5 1153.39,360.84 C1154.47,361.62 1155.31,362.04 1155.91,362.04 C1157.35,362.04 1158.07,361.26 1158.07,359.76 C1158.07,359.16 1157.53,358.32 1156.57,357.36 C1154.89,355.86 1153.93,355.08 1153.57,355.08 C1153.45,355.08 1153.27,355.14 1153.15,355.14 C1150.81,353.28 1149.01,351.48 1147.81,349.74 C1150.69,347.04 1153.09,345.12 1155.07,344.04 C1155.31,344.16 1155.55,344.22 1155.85,344.22 C1156.63,344.22 1157.47,343.8 1158.31,342.96 C1159.21,342.18 1159.69,341.34 1159.69,340.38 L1159.69,340.38 Z M1211.97,353.04 C1211.97,349.44 1210.17,347.04 1206.63,345.96 C1209.21,344.52 1210.53,342.72 1210.53,340.5 C1210.53,336.78 1207.59,334.92 1201.83,334.92 C1196.85,334.92 1194.39,336 1194.39,338.16 C1194.39,339.72 1195.11,340.5 1196.55,340.56 C1196.91,340.5 1197.81,340.2 1199.25,339.6 C1200.21,339.24 1201.11,339 1201.83,339 C1204.59,339 1205.97,339.66 1205.97,340.98 C1205.97,341.82 1205.25,342.72 1203.81,343.56 C1202.49,344.28 1200.99,344.82 1199.25,345.18 C1197.09,345.66 1195.95,345.9 1195.77,345.96 C1195.05,346.26 1194.75,346.86 1194.75,347.7 C1194.75,348.3 1194.93,348.96 1195.41,349.56 C1195.83,350.22 1196.37,350.52 1196.97,350.52 C1197.27,350.52 1197.69,350.4 1198.23,350.04 C1199.31,349.44 1200.57,349.08 1201.95,349.08 C1203.33,349.08 1204.53,349.32 1205.61,349.8 C1206.93,350.4 1207.59,351.3 1207.59,352.5 C1207.59,353.94 1206.45,355.38 1204.29,356.76 C1202.25,358.14 1200.51,358.8 1199.07,358.8 C1197.39,358.8 1196.61,358.56 1196.61,358.08 C1196.61,357.84 1196.67,357.48 1196.85,357.12 C1196.97,356.7 1197.03,356.4 1197.03,356.28 C1197.03,355.2 1196.31,354.66 1194.93,354.66 C1194.45,354.66 1193.91,355.08 1193.37,355.8 C1192.77,356.64 1192.53,357.36 1192.53,357.96 C1192.53,358.8 1192.83,359.7 1193.55,360.66 C1194.63,362.22 1196.61,363 1199.43,363 C1202.19,363 1204.95,361.98 1207.65,360.06 C1210.53,358.02 1211.97,355.68 1211.97,353.04 L1211.97,353.04 Z M1245.31,358.92 C1245.31,358.32 1245.07,357.72 1244.59,357.12 C1244.11,356.64 1243.51,356.34 1242.91,356.34 C1242.43,356.34 1241.65,356.46 1240.63,356.58 C1239.61,356.7 1238.83,356.76 1238.35,356.76 C1236.55,356.76 1234.99,355.92 1233.55,354.18 C1239.55,350.94 1242.55,347.1 1242.55,342.66 C1242.55,340.98 1241.83,339.36 1240.39,337.92 C1238.95,336.48 1237.51,335.76 1236.01,335.76 C1233.43,335.76 1231.33,337.26 1229.65,340.2 C1228.21,342.72 1227.49,345.42 1227.49,348.3 C1227.49,348.9 1227.55,349.74 1227.73,350.76 L1226.35,350.76 C1225.51,350.76 1224.73,350.46 1223.89,349.86 C1223.05,349.26 1222.45,348.96 1222.09,348.96 C1220.53,348.96 1219.75,349.8 1219.75,351.48 C1219.75,352.8 1220.71,353.88 1222.75,354.72 C1224.31,355.38 1225.81,355.68 1227.37,355.68 L1229.17,355.68 C1231.33,359.82 1234.69,361.86 1239.25,361.86 C1243.27,361.86 1245.31,360.84 1245.31,358.92 L1245.31,358.92 Z M1237.81,342.9 C1237.81,344.88 1236.01,347.04 1232.41,349.38 L1232.41,348.3 C1232.41,346.68 1232.65,345.12 1233.25,343.62 C1233.85,341.82 1234.69,340.92 1235.77,340.92 C1236.25,340.92 1236.73,341.16 1237.21,341.52 C1237.57,342 1237.81,342.42 1237.81,342.9 L1237.81,342.9 Z M1279.97,362.46 C1279.97,361.92 1279.79,361.32 1279.43,360.6 C1279.07,359.88 1278.65,359.4 1278.23,359.04 C1277.27,357 1276.43,353.28 1275.71,347.94 C1275.23,345.18 1274.87,342.12 1274.51,338.88 C1274.33,337.62 1273.61,336.96 1272.35,336.96 C1271.21,336.96 1269.71,339.42 1267.85,344.34 C1267.19,346.02 1266.65,347.46 1266.17,348.78 C1264.55,346.38 1263.11,342.78 1261.79,337.86 C1261.31,336.06 1260.59,335.16 1259.69,335.16 C1258.55,335.16 1257.53,336.54 1256.63,339.24 C1256.45,339.24 1256.21,339.18 1255.91,339.18 C1255.49,339.18 1255.13,339.36 1254.89,339.66 C1254.53,340.02 1254.35,340.44 1254.35,340.86 C1254.35,340.98 1254.35,341.34 1254.41,341.94 C1254.41,342.6 1254.47,342.96 1254.47,343.08 C1254.47,344.16 1254.35,345.66 1254.11,347.7 C1253.87,349.74 1253.75,352.02 1253.75,354.48 C1253.75,358.5 1254.53,360.48 1256.15,360.48 C1257.35,360.48 1257.95,359.16 1258.07,356.46 C1258.25,351.18 1258.73,346.8 1259.45,343.32 C1262.63,351 1265.15,354.84 1266.95,354.84 C1267.55,354.84 1267.97,354.6 1268.33,354 C1268.63,353.52 1268.99,352.44 1269.47,350.88 C1270.25,348.24 1270.91,346.14 1271.45,344.7 C1272.05,351.36 1272.89,356.28 1274.03,359.46 C1275.29,363.12 1276.61,364.98 1277.93,364.98 C1278.41,364.98 1278.89,364.68 1279.31,364.14 C1279.73,363.54 1279.97,363 1279.97,362.46 L1279.97,362.46 Z M1312.47,338.76 C1312.47,337.86 1312.17,337.08 1311.57,336.36 C1311.03,335.7 1310.37,335.34 1309.53,335.34 C1309.17,335.34 1308.45,335.7 1307.37,336.3 C1306.29,336.96 1303.65,337.5 1299.39,337.98 C1298.43,337.2 1297.65,336.78 1297.11,336.78 C1296.45,336.78 1295.73,337.14 1295.01,337.86 C1294.29,338.58 1293.93,339.36 1293.93,340.08 C1293.93,340.56 1294.17,341.16 1294.65,341.82 C1295.07,342.54 1295.31,343.32 1295.31,344.22 C1295.31,347.94 1295.01,351 1294.41,353.52 C1293.63,356.46 1292.61,357.9 1291.41,357.9 C1290.93,357.9 1290.57,357.18 1290.45,355.62 C1290.33,355.02 1290.09,354.66 1289.61,354.66 C1288.77,354.66 1288.17,355.08 1287.75,355.8 C1287.21,356.64 1286.97,357.6 1286.97,358.62 C1286.97,359.76 1287.39,360.6 1288.29,361.26 C1289.13,361.86 1290.09,362.22 1291.17,362.22 C1294.29,362.22 1296.51,360.18 1297.83,356.22 C1298.67,353.7 1299.39,349.14 1299.99,342.54 C1301.49,342.18 1303.77,341.7 1306.89,341.16 C1306.29,347.04 1305.99,351.48 1305.99,354.48 C1305.99,358.44 1306.23,360.9 1306.77,361.92 C1307.31,362.94 1308.09,363.48 1309.05,363.48 C1310.61,363.48 1311.39,362.52 1311.39,360.72 C1311.15,359.64 1311.03,358.68 1310.91,357.84 C1310.61,355.8 1310.49,354.06 1310.49,352.56 C1310.49,349.32 1310.97,345.54 1311.99,341.22 C1312.29,339.78 1312.47,339 1312.47,338.76 L1312.47,338.76 Z M1346.41,358.92 C1346.41,358.32 1346.17,357.72 1345.69,357.12 C1345.21,356.64 1344.61,356.34 1344.01,356.34 C1343.53,356.34 1342.75,356.46 1341.73,356.58 C1340.71,356.7 1339.93,356.76 1339.45,356.76 C1337.65,356.76 1336.09,355.92 1334.65,354.18 C1340.65,350.94 1343.65,347.1 1343.65,342.66 C1343.65,340.98 1342.93,339.36 1341.49,337.92 C1340.05,336.48 1338.61,335.76 1337.11,335.76 C1334.53,335.76 1332.43,337.26 1330.75,340.2 C1329.31,342.72 1328.59,345.42 1328.59,348.3 C1328.59,348.9 1328.65,349.74 1328.83,350.76 L1327.45,350.76 C1326.61,350.76 1325.83,350.46 1324.99,349.86 C1324.15,349.26 1323.55,348.96 1323.19,348.96 C1321.63,348.96 1320.85,349.8 1320.85,351.48 C1320.85,352.8 1321.81,353.88 1323.85,354.72 C1325.41,355.38 1326.91,355.68 1328.47,355.68 L1330.27,355.68 C1332.43,359.82 1335.79,361.86 1340.35,361.86 C1344.37,361.86 1346.41,360.84 1346.41,358.92 L1346.41,358.92 Z M1338.91,342.9 C1338.91,344.88 1337.11,347.04 1333.51,349.38 L1333.51,348.3 C1333.51,346.68 1333.75,345.12 1334.35,343.62 C1334.95,341.82 1335.79,340.92 1336.87,340.92 C1337.35,340.92 1337.83,341.16 1338.31,341.52 C1338.67,342 1338.91,342.42 1338.91,342.9 L1338.91,342.9 Z M1379.63,328.26 C1379.63,325.2 1378.49,322.8 1376.21,321.06 C1374.17,319.5 1371.41,318.66 1368.05,318.66 C1366.67,318.66 1365.05,318.9 1363.25,319.32 C1362.23,319.02 1361.69,318.84 1361.63,318.84 C1360.91,318.84 1360.19,319.2 1359.41,319.8 C1358.69,320.46 1358.33,321.12 1358.33,321.84 C1358.33,322.68 1358.57,323.34 1359.05,323.82 C1359.53,324.42 1360.13,324.66 1360.97,324.66 C1361.15,324.66 1361.75,324.6 1362.71,324.36 C1365.59,323.88 1367.15,323.58 1367.39,323.58 C1372.31,323.58 1374.83,325.14 1374.83,328.2 C1374.83,330.48 1373.45,332.46 1370.75,334.02 C1368.41,335.4 1365.65,336.24 1362.47,336.6 C1360.55,336.84 1359.65,337.68 1359.65,339.06 C1359.65,339.36 1359.83,340.02 1360.25,341.1 C1361.09,343.68 1361.63,346.2 1361.93,348.66 C1362.11,350.34 1362.89,351.12 1364.27,351.12 C1365.83,351.12 1366.67,350.28 1366.67,348.48 C1366.67,346.62 1366.19,344.04 1365.29,340.8 C1369.07,340.2 1372.37,338.82 1375.13,336.66 C1378.13,334.26 1379.63,331.5 1379.63,328.26 L1379.63,328.26 Z M1367.87,359.16 C1367.87,358.2 1367.51,357.42 1366.85,356.82 C1366.07,356.34 1365.23,356.04 1364.39,356.04 C1363.37,356.04 1362.59,356.46 1361.99,357.24 C1361.39,357.96 1361.09,358.86 1361.09,359.88 C1361.09,360.78 1361.33,361.56 1361.87,362.22 C1362.41,362.82 1363.01,363.18 1363.67,363.18 C1365.05,363.18 1366.13,362.82 1366.85,362.1 C1367.51,361.32 1367.87,360.36 1367.87,359.16 L1367.87,359.16 Z" id="Ноги-тянут-вас-к-зем-Copy"></path>
        </g>
    </g>
</svg>