<?xml version="1.0" encoding="UTF-8"?>
<svg width="970px" height="56px" viewBox="0 0 970 56" version="1.1" xmlns="http://www.w3.org/2000/svg" xmlns:xlink="http://www.w3.org/1999/xlink">
    <!-- Generator: Sketch 40.3 (33839) - http://www.bohemiancoding.com/sketch -->
    <title>Частенько захаживаеш</title>
    <desc>Created with Sketch.</desc>
    <defs></defs>
    <g id="Page-1" stroke="none" stroke-width="1" fill="none" fill-rule="evenodd">
        <g id="1600--copy-7" transform="translate(-314.000000, -242.000000)" fill="#FFFFFF">
            <path d="M345.54,288.08 C345,284.24 344.76,278.96 344.76,272.18 L344.76,265.34 C344.76,261.56 344.82,257.54 345,253.34 C345.12,250.58 345.24,248.54 345.42,247.1 C345.42,246.26 345.12,245.54 344.52,244.82 C343.86,244.16 343.2,243.8 342.6,243.8 C340.56,243.8 339.6,244.82 339.6,246.86 C339.6,247.22 339.6,248.54 339.66,250.76 L339.66,255.8 C339.66,259.22 338.28,262.58 335.52,265.94 C332.64,269.54 329.52,271.34 326.16,271.34 C321.84,271.34 319.68,268.4 319.68,262.4 C319.68,259.28 319.92,255.86 320.46,252.14 C320.76,249.8 321,248.18 321.12,247.34 C321.12,245.12 320.22,243.98 318.48,243.98 C316.56,243.98 315.42,245.54 315.12,248.6 C314.94,251.12 314.82,253.1 314.76,254.66 C314.46,258.26 314.34,260.72 314.34,262.04 C314.34,266.36 315.36,269.78 317.46,272.36 C319.44,275 322.32,276.26 326.16,276.26 C328.38,276.26 330.66,275.54 333.06,274.1 C335.7,272.54 337.86,270.44 339.54,267.68 C339.78,279.92 340.02,286.76 340.26,288.38 C340.26,288.98 340.5,289.52 340.98,290.06 C341.4,290.54 341.94,290.84 342.54,290.84 C344.52,290.84 345.54,289.88 345.54,288.08 L345.54,288.08 Z M377.5,270.08 C377.5,269.54 377.2,268.94 376.72,268.34 C376.72,266.96 376.48,265.76 376.12,264.68 C376.18,264.44 376.24,264.14 376.24,263.84 C376.24,263.12 375.82,262.4 375.1,261.8 C374.32,261.2 373.54,260.84 372.76,260.84 C369.46,260.84 365.86,262.76 361.9,266.48 C357.76,270.32 355.72,274.04 355.72,277.52 C355.72,279.38 356.32,281 357.64,282.44 C358.9,283.94 360.4,284.66 362.14,284.66 C364.84,284.66 367.84,282.98 371.2,279.62 C371.5,284.18 372.52,286.52 374.26,286.52 C374.86,286.52 375.46,286.28 376,285.92 C376.48,285.44 376.78,284.84 376.78,284.24 C376.78,284.06 376.6,283.34 376.36,281.9 C376.06,280.52 375.94,279.44 375.94,278.72 C375.94,276.32 376.3,273.92 377.14,271.4 C377.38,270.74 377.5,270.32 377.5,270.08 L377.5,270.08 Z M372.04,268.34 C372.04,270.38 370.84,272.78 368.56,275.54 C366.28,278.3 364.18,279.62 362.38,279.62 C361.12,279.62 360.52,278.9 360.52,277.4 C360.52,275.48 362.02,273.08 365.08,270.14 C367.84,267.5 369.82,266.12 370.96,266.12 C371.68,266.12 372.04,266.9 372.04,268.34 L372.04,268.34 Z M406.16,278.48 C406.16,277.88 405.92,277.28 405.44,276.68 C404.96,276.2 404.42,275.9 403.82,275.9 C403.34,275.9 402.62,276.32 401.78,277.1 C401.06,277.7 400.34,278.3 399.74,278.9 C398.72,279.68 397.46,280.04 395.96,280.04 C393.56,280.04 392.42,278.6 392.42,275.6 C392.42,273.74 392.96,271.88 394.04,270.08 C395.12,268.28 396.44,266.78 398.06,265.7 C398.78,266.12 399.86,266.3 401.36,266.3 C402.14,266.3 402.92,266 403.7,265.28 C404.36,264.56 404.72,263.9 404.72,263.18 C404.72,262.22 404.36,261.5 403.64,260.9 C402.86,260.36 402.02,260.06 401.12,260.06 C397.34,260.06 393.98,262.04 391.1,265.94 C388.76,269.06 387.62,272.48 387.62,276.2 C387.62,278.84 388.46,280.94 390.14,282.62 C391.82,284.24 393.92,285.08 396.44,285.08 C398.72,285.08 401.06,284.18 403.34,282.38 C405.2,280.94 406.16,279.68 406.16,278.48 L406.16,278.48 Z M439.8,259.04 C439.8,258.44 439.56,257.84 439.14,257.3 C438.72,256.82 438.24,256.52 437.7,256.52 C436.8,256.52 435.54,256.76 433.86,257.12 C427.26,258.68 421.38,260.06 416.34,261.26 C415.98,261.38 415.74,261.38 415.62,261.38 C414.42,261.62 413.82,262.52 413.82,264.02 C413.82,265.7 414.48,266.48 415.92,266.48 C417.66,266.12 419.04,265.82 420,265.52 C421.74,265.16 423.24,264.8 424.5,264.56 C424.26,269.18 424.14,273.62 424.14,277.82 C424.14,281.9 424.38,284.72 424.86,286.28 C425.22,287.36 425.94,287.9 427.14,287.9 C428.7,287.9 429.48,286.46 429.48,283.64 C429.48,282.26 429.18,281.24 428.7,280.58 C428.58,279.08 428.52,276.74 428.52,273.5 C428.52,270.98 428.7,267.56 429.18,263.3 C430.92,262.88 432.12,262.58 432.84,262.46 C433.38,262.82 433.8,262.94 434.1,262.94 C434.46,262.94 434.88,262.88 435.42,262.64 L438.18,261.38 C439.26,260.9 439.8,260.12 439.8,259.04 L439.8,259.04 Z M471.28,282.92 C471.28,282.32 471.04,281.72 470.56,281.12 C470.08,280.64 469.48,280.34 468.88,280.34 C468.4,280.34 467.62,280.46 466.6,280.58 C465.58,280.7 464.8,280.76 464.32,280.76 C462.52,280.76 460.96,279.92 459.52,278.18 C465.52,274.94 468.52,271.1 468.52,266.66 C468.52,264.98 467.8,263.36 466.36,261.92 C464.92,260.48 463.48,259.76 461.98,259.76 C459.4,259.76 457.3,261.26 455.62,264.2 C454.18,266.72 453.46,269.42 453.46,272.3 C453.46,272.9 453.52,273.74 453.7,274.76 L452.32,274.76 C451.48,274.76 450.7,274.46 449.86,273.86 C449.02,273.26 448.42,272.96 448.06,272.96 C446.5,272.96 445.72,273.8 445.72,275.48 C445.72,276.8 446.68,277.88 448.72,278.72 C450.28,279.38 451.78,279.68 453.34,279.68 L455.14,279.68 C457.3,283.82 460.66,285.86 465.22,285.86 C469.24,285.86 471.28,284.84 471.28,282.92 L471.28,282.92 Z M463.78,266.9 C463.78,268.88 461.98,271.04 458.38,273.38 L458.38,272.3 C458.38,270.68 458.62,269.12 459.22,267.62 C459.82,265.82 460.66,264.92 461.74,264.92 C462.22,264.92 462.7,265.16 463.18,265.52 C463.54,266 463.78,266.42 463.78,266.9 L463.78,266.9 Z M499.7,261.8 C499.7,260.24 498.98,259.46 497.54,259.46 C496.34,259.46 495.56,260.54 495.26,262.58 C494.96,264.2 494.6,266.48 494.24,269.42 C491.6,270.08 489.02,270.56 486.5,270.8 C487.1,266.96 487.7,264.08 488.3,262.1 C488.66,261.02 488.96,260.18 489.26,259.46 C489.14,257.84 488.42,257 486.98,257 C485.96,257 485.3,257.48 484.94,258.44 C483.74,261.32 482.78,265.46 482.18,270.86 C481.22,270.86 480.56,270.8 480.2,270.74 C479,270.74 478.46,271.46 478.46,272.78 C478.46,274.28 479.3,275 481.04,275 L481.76,275 C481.58,277.28 481.4,279.86 481.28,282.86 C481.28,283.04 481.22,283.34 481.16,283.7 C481.04,284.06 481.04,284.3 481.04,284.54 C481.04,285.14 481.28,285.68 481.76,286.16 C482.24,286.64 482.78,286.88 483.38,286.88 C484.82,286.88 485.6,286.1 485.66,284.6 C485.66,282.56 485.84,279.32 486.14,274.88 C488.72,274.64 491.24,274.22 493.76,273.62 C493.46,276.8 493.28,279.32 493.28,281.12 C493.28,281.3 493.22,281.54 493.16,281.9 C493.04,282.2 492.98,282.44 492.98,282.62 C492.98,284.06 493.16,285.14 493.64,285.86 C494.12,286.64 494.66,287.06 495.38,287.06 C495.98,287.06 496.52,286.82 497,286.34 C497.42,285.86 497.66,285.26 497.66,284.6 C497.66,284.48 497.6,284.18 497.6,283.58 C497.54,282.98 497.54,282.5 497.54,282.26 C497.54,278.24 498.14,272.06 499.46,263.72 C499.58,262.64 499.7,262.04 499.7,261.8 L499.7,261.8 Z M528,276.74 C528,274.28 527.16,272.3 525.54,270.8 C524.04,269.42 522.12,268.7 519.72,268.7 C518.4,268.7 517.08,269.06 515.76,269.78 C516,267.56 516.18,265.58 516.36,263.9 C516.66,261.98 516.84,260.48 516.96,259.4 C516.72,257.66 516,256.76 514.68,256.76 C513.12,256.76 512.28,257.96 512.1,260.3 C511.14,269.78 510.42,277.82 509.82,284.42 C509.88,286.52 510.66,287.6 512.22,287.6 C513.18,287.6 513.84,287.18 514.2,286.4 C514.86,286.58 515.46,286.7 516.06,286.7 C518.7,286.7 521.28,285.74 523.8,283.88 C526.56,281.84 528,279.5 528,276.74 L528,276.74 Z M523.44,276.02 C523.44,277.82 522.48,279.44 520.68,280.82 C519,282.14 517.38,282.8 515.82,282.8 C515.58,282.8 515.16,282.74 514.68,282.62 L515.22,275.72 C516.3,273.92 517.74,272.96 519.6,272.96 C520.56,272.96 521.4,273.26 522.24,273.86 C523.02,274.46 523.44,275.18 523.44,276.02 L523.44,276.02 Z M558.04,264.38 C558.04,263.9 557.8,263.36 557.32,262.82 C556.84,262.34 556.3,262.1 555.82,262.1 C555.34,262.1 554.32,262.46 552.82,263.18 C550.3,264.38 547.12,266.66 543.4,269.9 C544.24,266.42 545.02,263.66 545.86,261.68 C546.34,260.42 546.58,259.64 546.58,259.4 C546.58,257.84 545.8,257.06 544.36,257.06 C543.4,257.06 542.68,257.6 542.2,258.68 C539.26,265.88 537.76,273.8 537.64,282.38 C537.52,282.68 537.52,282.98 537.52,283.28 C537.52,284 537.64,284.66 537.88,285.32 C538.24,286.4 539.08,287 540.28,287 C541.6,287 542.26,286.22 542.26,284.72 C542.26,284.6 542.2,284.24 542.2,283.64 C542.14,283.04 542.14,282.62 542.14,282.26 L542.14,280.04 C542.14,279.2 542.14,278.24 542.26,277.16 C542.68,276.92 542.92,276.8 542.98,276.74 C545.26,279.8 548.2,282.5 551.74,284.84 C552.82,285.62 553.66,286.04 554.26,286.04 C555.7,286.04 556.42,285.26 556.42,283.76 C556.42,283.16 555.88,282.32 554.92,281.36 C553.24,279.86 552.28,279.08 551.92,279.08 C551.8,279.08 551.62,279.14 551.5,279.14 C549.16,277.28 547.36,275.48 546.16,273.74 C549.04,271.04 551.44,269.12 553.42,268.04 C553.66,268.16 553.9,268.22 554.2,268.22 C554.98,268.22 555.82,267.8 556.66,266.96 C557.56,266.18 558.04,265.34 558.04,264.38 L558.04,264.38 Z M585.98,270.8 C585.98,268.46 585.32,266.3 584,264.38 C582.62,262.52 580.88,261.2 578.78,260.48 C577.94,260.24 577.46,260.12 577.34,260.12 C576.86,260.12 576.32,260.42 575.6,260.9 C574.76,261.38 574.1,261.74 573.62,261.92 C571.58,262.94 569.9,264.74 568.7,267.26 C567.5,269.54 566.96,272 566.96,274.58 C566.96,277.64 567.74,280.16 569.42,282.14 C571.1,284.06 573.2,285.08 575.72,285.08 C578.6,285.08 581.06,283.76 583.04,281 C584.96,278.24 585.98,274.88 585.98,270.8 L585.98,270.8 Z M581.24,271.7 C581.24,273.74 580.64,275.6 579.56,277.34 C578.36,279.14 577.1,280.04 575.66,280.04 C574.46,280.04 573.5,279.5 572.78,278.36 C572,277.28 571.64,276.02 571.64,274.58 C571.64,272.66 572.06,270.86 573.02,269.18 C574.1,267.26 575.48,266.24 577.16,266.24 C577.76,266.6 578.54,266.78 579.5,266.78 C580.64,267.5 581.24,269.18 581.24,271.7 L581.24,271.7 Z M639.52,277.04 C639.52,273.44 637.72,271.04 634.18,269.96 C636.76,268.52 638.08,266.72 638.08,264.5 C638.08,260.78 635.14,258.92 629.38,258.92 C624.4,258.92 621.94,260 621.94,262.16 C621.94,263.72 622.66,264.5 624.1,264.56 C624.46,264.5 625.36,264.2 626.8,263.6 C627.76,263.24 628.66,263 629.38,263 C632.14,263 633.52,263.66 633.52,264.98 C633.52,265.82 632.8,266.72 631.36,267.56 C630.04,268.28 628.54,268.82 626.8,269.18 C624.64,269.66 623.5,269.9 623.32,269.96 C622.6,270.26 622.3,270.86 622.3,271.7 C622.3,272.3 622.48,272.96 622.96,273.56 C623.38,274.22 623.92,274.52 624.52,274.52 C624.82,274.52 625.24,274.4 625.78,274.04 C626.86,273.44 628.12,273.08 629.5,273.08 C630.88,273.08 632.08,273.32 633.16,273.8 C634.48,274.4 635.14,275.3 635.14,276.5 C635.14,277.94 634,279.38 631.84,280.76 C629.8,282.14 628.06,282.8 626.62,282.8 C624.94,282.8 624.16,282.56 624.16,282.08 C624.16,281.84 624.22,281.48 624.4,281.12 C624.52,280.7 624.58,280.4 624.58,280.28 C624.58,279.2 623.86,278.66 622.48,278.66 C622,278.66 621.46,279.08 620.92,279.8 C620.32,280.64 620.08,281.36 620.08,281.96 C620.08,282.8 620.38,283.7 621.1,284.66 C622.18,286.22 624.16,287 626.98,287 C629.74,287 632.5,285.98 635.2,284.06 C638.08,282.02 639.52,279.68 639.52,277.04 L639.52,277.04 Z M670.82,270.08 C670.82,269.54 670.52,268.94 670.04,268.34 C670.04,266.96 669.8,265.76 669.44,264.68 C669.5,264.44 669.56,264.14 669.56,263.84 C669.56,263.12 669.14,262.4 668.42,261.8 C667.64,261.2 666.86,260.84 666.08,260.84 C662.78,260.84 659.18,262.76 655.22,266.48 C651.08,270.32 649.04,274.04 649.04,277.52 C649.04,279.38 649.64,281 650.96,282.44 C652.22,283.94 653.72,284.66 655.46,284.66 C658.16,284.66 661.16,282.98 664.52,279.62 C664.82,284.18 665.84,286.52 667.58,286.52 C668.18,286.52 668.78,286.28 669.32,285.92 C669.8,285.44 670.1,284.84 670.1,284.24 C670.1,284.06 669.92,283.34 669.68,281.9 C669.38,280.52 669.26,279.44 669.26,278.72 C669.26,276.32 669.62,273.92 670.46,271.4 C670.7,270.74 670.82,270.32 670.82,270.08 L670.82,270.08 Z M665.36,268.34 C665.36,270.38 664.16,272.78 661.88,275.54 C659.6,278.3 657.5,279.62 655.7,279.62 C654.44,279.62 653.84,278.9 653.84,277.4 C653.84,275.48 655.34,273.08 658.4,270.14 C661.16,267.5 663.14,266.12 664.28,266.12 C665,266.12 665.36,266.9 665.36,268.34 L665.36,268.34 Z M705.06,264.86 C705.06,264.2 704.76,263.66 704.22,263.18 C703.68,262.7 703.08,262.46 702.42,262.46 C702.06,262.46 701.4,262.88 700.32,263.66 C697.38,265.94 695.1,267.68 693.48,269 C692.04,266.96 690.6,265.04 689.1,263.24 C687.6,261.44 686.46,260.54 685.74,260.54 C683.82,260.54 682.92,261.5 682.92,263.36 C682.92,263.84 683.46,264.92 684.6,266.54 C685.56,267.98 686.28,268.94 686.88,269.42 C687.18,269.78 687.54,270.02 688.02,270.14 C688.62,270.92 689.16,271.58 689.52,272.12 C686.4,274.64 684.12,276.62 682.62,278.06 C680.64,279.92 679.68,281.36 679.68,282.32 C679.68,284 680.52,284.9 682.2,284.9 C682.8,284.9 683.52,284.54 684.24,283.82 C686.4,281.54 689.1,279.14 692.34,276.5 C693.72,278.9 694.98,281.24 696.06,283.64 C696.54,284.66 697.38,285.2 698.52,285.2 C699.06,285.2 699.6,284.96 700.14,284.48 C700.68,284 700.98,283.4 700.98,282.8 C700.98,282.32 700.38,280.94 699.3,278.66 C698.46,276.98 697.44,275.24 696.3,273.32 C699.54,270.8 702.06,268.7 703.86,267.14 C704.64,266.48 705.06,265.7 705.06,264.86 L705.06,264.86 Z M735.76,270.08 C735.76,269.54 735.46,268.94 734.98,268.34 C734.98,266.96 734.74,265.76 734.38,264.68 C734.44,264.44 734.5,264.14 734.5,263.84 C734.5,263.12 734.08,262.4 733.36,261.8 C732.58,261.2 731.8,260.84 731.02,260.84 C727.72,260.84 724.12,262.76 720.16,266.48 C716.02,270.32 713.98,274.04 713.98,277.52 C713.98,279.38 714.58,281 715.9,282.44 C717.16,283.94 718.66,284.66 720.4,284.66 C723.1,284.66 726.1,282.98 729.46,279.62 C729.76,284.18 730.78,286.52 732.52,286.52 C733.12,286.52 733.72,286.28 734.26,285.92 C734.74,285.44 735.04,284.84 735.04,284.24 C735.04,284.06 734.86,283.34 734.62,281.9 C734.32,280.52 734.2,279.44 734.2,278.72 C734.2,276.32 734.56,273.92 735.4,271.4 C735.64,270.74 735.76,270.32 735.76,270.08 L735.76,270.08 Z M730.3,268.34 C730.3,270.38 729.1,272.78 726.82,275.54 C724.54,278.3 722.44,279.62 720.64,279.62 C719.38,279.62 718.78,278.9 718.78,277.4 C718.78,275.48 720.28,273.08 723.34,270.14 C726.1,267.5 728.08,266.12 729.22,266.12 C729.94,266.12 730.3,266.9 730.3,268.34 L730.3,268.34 Z M777.74,280.46 C777.74,279.14 776.84,278.42 775.1,278.24 C769.46,277.76 765.44,276.86 763.1,275.66 C767.12,270.74 770.24,267.08 772.46,264.68 C772.94,264.14 773.18,263.6 773.18,263 C773.18,262.4 772.94,261.8 772.46,261.26 C771.98,260.78 771.44,260.54 770.84,260.54 C770.24,260.54 769.34,261.32 768.02,262.88 C766.58,264.56 764.72,266.9 762.44,269.9 C762.56,268.04 762.92,265.82 763.52,263.18 C763.88,261.08 764.12,259.88 764.12,259.58 C764.12,258.02 763.28,257.18 761.72,257.18 C760.52,257.18 759.74,258.26 759.38,260.3 C759.08,261.74 758.78,263.9 758.48,266.72 C754.7,266.12 751.88,265.04 750.08,263.42 C749.24,262.76 748.46,262.4 747.62,262.4 C747.08,262.4 746.66,262.64 746.3,263.06 C745.94,263.6 745.76,264.08 745.76,264.56 C745.76,265.88 746.96,267.2 749.48,268.52 C750.74,269.24 752.78,269.96 755.6,270.74 C752.66,274.04 749.72,276.74 746.72,278.9 C745.76,279.62 745.28,280.4 745.28,281.3 C745.28,281.9 745.46,282.44 745.94,282.92 C746.36,283.4 746.9,283.64 747.56,283.64 C748.28,283.64 749.18,283.16 750.26,282.2 C753.92,278.9 756.5,276.38 758.06,274.64 C758.18,279.32 758.48,282.92 759.02,285.56 C759.38,287.12 760.28,287.9 761.78,287.9 C762.32,287.9 762.8,287.6 763.28,287.06 C763.7,286.52 763.94,285.98 763.94,285.44 C763.46,283.52 763.04,281.9 762.8,280.64 C765.62,281.48 768.08,282.02 770.24,282.38 C772.58,282.86 774.32,283.04 775.52,283.04 C776.96,283.04 777.74,282.2 777.74,280.46 L777.74,280.46 Z M808.92,284.36 C808.92,283.94 808.62,283.4 808.08,282.8 C806.76,281.36 806.16,277.7 806.16,271.82 C806.16,269.72 806.46,266.18 807.12,261.2 C807.12,260.54 806.82,259.94 806.34,259.34 C805.8,258.8 805.2,258.5 804.54,258.5 C803.52,258.5 801.36,260.72 798.12,265.16 C795.48,268.64 793.32,271.82 791.52,274.58 C791.94,269.9 792.24,266.48 792.42,264.44 C792.42,263.48 792.06,262.64 791.46,261.92 C790.86,261.26 790.08,260.9 789.12,260.9 C788.58,260.9 788.1,261.26 787.62,261.92 C787.74,263.66 787.86,264.68 787.86,264.92 C787.86,266 787.68,268.7 787.38,273.08 L787.26,274.82 C787.2,275.72 787.08,276.92 786.96,278.42 C786.78,279.86 786.66,280.76 786.66,281.12 C786.72,281.96 786.96,282.62 787.44,282.98 C788.4,283.94 789,284.36 789.24,284.36 C790.08,284.36 791.1,283.46 792.18,281.54 C794.4,277.82 795.96,275.18 796.92,273.74 C798.48,271.16 800.16,268.76 802.02,266.6 C802.02,267.2 801.96,268.46 801.96,270.32 C801.9,272.24 801.9,273.26 801.9,273.5 C801.9,276.62 802.2,279.26 802.86,281.54 C803.76,284.84 805.08,286.52 806.76,286.52 C807.12,286.52 807.6,286.22 808.14,285.74 C808.62,285.14 808.92,284.72 808.92,284.36 L808.92,284.36 Z M842.92,277.34 C842.92,273.92 839.26,272.06 832.06,271.76 C837.58,269.3 840.34,266.66 840.34,263.78 C840.34,261.92 839.38,260.48 837.52,259.46 C836.02,258.74 834.22,258.32 832.12,258.32 C829.18,258.32 825.7,258.5 821.68,258.86 C819.88,259.1 819.04,259.82 819.04,261.14 C819.04,262.58 819.82,263.24 821.5,263.24 C821.8,263.24 822.28,263.18 822.94,263.06 C822.82,276.32 822.76,283.16 822.76,283.52 C820.66,283.76 819.64,284.6 819.64,286.16 C819.64,287.24 820.36,287.84 821.92,288.02 C823.18,287.96 825.04,287.66 827.5,287.12 C832.06,286.04 835.42,284.96 837.46,284 C841.06,282.32 842.92,280.1 842.92,277.34 L842.92,277.34 Z M835.72,264.32 C835.72,266.06 832.9,267.92 827.26,269.9 L827.38,262.94 C829.6,262.76 831.22,262.64 832.18,262.64 C834.52,262.64 835.72,263.24 835.72,264.32 L835.72,264.32 Z M838.42,277.94 C838.42,278.84 837.4,279.74 835.36,280.58 C833.32,281.42 830.56,282.08 827.14,282.5 L827.14,274.94 C831.1,275.06 833.86,275.36 835.54,275.72 C837.46,276.2 838.42,276.92 838.42,277.94 L838.42,277.94 Z M874.82,270.08 C874.82,269.54 874.52,268.94 874.04,268.34 C874.04,266.96 873.8,265.76 873.44,264.68 C873.5,264.44 873.56,264.14 873.56,263.84 C873.56,263.12 873.14,262.4 872.42,261.8 C871.64,261.2 870.86,260.84 870.08,260.84 C866.78,260.84 863.18,262.76 859.22,266.48 C855.08,270.32 853.04,274.04 853.04,277.52 C853.04,279.38 853.64,281 854.96,282.44 C856.22,283.94 857.72,284.66 859.46,284.66 C862.16,284.66 865.16,282.98 868.52,279.62 C868.82,284.18 869.84,286.52 871.58,286.52 C872.18,286.52 872.78,286.28 873.32,285.92 C873.8,285.44 874.1,284.84 874.1,284.24 C874.1,284.06 873.92,283.34 873.68,281.9 C873.38,280.52 873.26,279.44 873.26,278.72 C873.26,276.32 873.62,273.92 874.46,271.4 C874.7,270.74 874.82,270.32 874.82,270.08 L874.82,270.08 Z M869.36,268.34 C869.36,270.38 868.16,272.78 865.88,275.54 C863.6,278.3 861.5,279.62 859.7,279.62 C858.44,279.62 857.84,278.9 857.84,277.4 C857.84,275.48 859.34,273.08 862.4,270.14 C865.16,267.5 867.14,266.12 868.28,266.12 C869,266.12 869.36,266.9 869.36,268.34 L869.36,268.34 Z M908.76,282.92 C908.76,282.32 908.52,281.72 908.04,281.12 C907.56,280.64 906.96,280.34 906.36,280.34 C905.88,280.34 905.1,280.46 904.08,280.58 C903.06,280.7 902.28,280.76 901.8,280.76 C900,280.76 898.44,279.92 897,278.18 C903,274.94 906,271.1 906,266.66 C906,264.98 905.28,263.36 903.84,261.92 C902.4,260.48 900.96,259.76 899.46,259.76 C896.88,259.76 894.78,261.26 893.1,264.2 C891.66,266.72 890.94,269.42 890.94,272.3 C890.94,272.9 891,273.74 891.18,274.76 L889.8,274.76 C888.96,274.76 888.18,274.46 887.34,273.86 C886.5,273.26 885.9,272.96 885.54,272.96 C883.98,272.96 883.2,273.8 883.2,275.48 C883.2,276.8 884.16,277.88 886.2,278.72 C887.76,279.38 889.26,279.68 890.82,279.68 L892.62,279.68 C894.78,283.82 898.14,285.86 902.7,285.86 C906.72,285.86 908.76,284.84 908.76,282.92 L908.76,282.92 Z M901.26,266.9 C901.26,268.88 899.46,271.04 895.86,273.38 L895.86,272.3 C895.86,270.68 896.1,269.12 896.7,267.62 C897.3,265.82 898.14,264.92 899.22,264.92 C899.7,264.92 900.18,265.16 900.66,265.52 C901.02,266 901.26,266.42 901.26,266.9 L901.26,266.9 Z M944.08,263.36 C944.08,262.64 943.78,261.8 943.3,260.9 C942.7,260.06 942.04,259.58 941.32,259.58 C940.12,259.58 939.4,260 939.04,260.84 C939.1,261.38 939.16,262.16 939.28,263.24 C939.34,264.44 939.4,265.34 939.4,265.88 C939.4,267.56 938.98,272.66 938.14,281.06 C935.32,281.36 933.34,281.54 932.26,281.54 C933.1,269.48 933.52,263.18 933.52,262.58 C933.52,259.94 932.44,258.56 930.4,258.56 C930.04,258.56 929.62,258.74 929.2,259.04 C928.72,259.4 928.48,259.76 928.48,260.12 C928.48,260.24 928.54,260.66 928.72,261.26 C928.78,261.92 928.84,262.34 928.84,262.52 C928.84,268.28 928.42,274.76 927.64,282.02 C924.4,282.44 922.66,282.62 922.42,282.62 C921.94,282.62 921.64,282.32 921.58,281.6 C921.58,281.24 921.76,278.72 922,274.1 C922.3,269.48 922.48,266.9 922.48,266.3 C922.48,264.14 922.24,262.58 921.82,261.62 C921.22,260.12 920.32,259.34 919.24,259.34 C918.76,259.34 918.28,259.58 917.92,260 C917.56,260.36 917.38,260.84 917.38,261.32 C917.68,262.94 917.86,264.5 917.86,265.94 C917.86,270.68 917.62,275.9 917.2,281.54 C917.32,283.7 917.98,285.2 919.18,286.22 C919.96,286.82 920.86,287.18 921.82,287.18 C926.74,286.28 931.24,285.86 935.26,285.86 C935.68,285.86 936.34,285.92 937.24,286.04 C938.08,286.16 938.74,286.28 939.22,286.28 C941.38,286.28 942.46,285.08 942.58,282.8 C942.64,280.4 942.94,276.74 943.42,271.76 C943.84,266.78 944.08,263.96 944.08,263.36 L944.08,263.36 Z M972.44,276.74 C972.44,274.28 971.6,272.3 969.98,270.8 C968.48,269.42 966.56,268.7 964.16,268.7 C962.84,268.7 961.52,269.06 960.2,269.78 C960.44,267.56 960.62,265.58 960.8,263.9 C961.1,261.98 961.28,260.48 961.4,259.4 C961.16,257.66 960.44,256.76 959.12,256.76 C957.56,256.76 956.72,257.96 956.54,260.3 C955.58,269.78 954.86,277.82 954.26,284.42 C954.32,286.52 955.1,287.6 956.66,287.6 C957.62,287.6 958.28,287.18 958.64,286.4 C959.3,286.58 959.9,286.7 960.5,286.7 C963.14,286.7 965.72,285.74 968.24,283.88 C971,281.84 972.44,279.5 972.44,276.74 L972.44,276.74 Z M967.88,276.02 C967.88,277.82 966.92,279.44 965.12,280.82 C963.44,282.14 961.82,282.8 960.26,282.8 C960.02,282.8 959.6,282.74 959.12,282.62 L959.66,275.72 C960.74,273.92 962.18,272.96 964.04,272.96 C965,272.96 965.84,273.26 966.68,273.86 C967.46,274.46 967.88,275.18 967.88,276.02 L967.88,276.02 Z M1030.36,277.34 C1030.36,273.92 1026.7,272.06 1019.5,271.76 C1025.02,269.3 1027.78,266.66 1027.78,263.78 C1027.78,261.92 1026.82,260.48 1024.96,259.46 C1023.46,258.74 1021.66,258.32 1019.56,258.32 C1016.62,258.32 1013.14,258.5 1009.12,258.86 C1007.32,259.1 1006.48,259.82 1006.48,261.14 C1006.48,262.58 1007.26,263.24 1008.94,263.24 C1009.24,263.24 1009.72,263.18 1010.38,263.06 C1010.26,276.32 1010.2,283.16 1010.2,283.52 C1008.1,283.76 1007.08,284.6 1007.08,286.16 C1007.08,287.24 1007.8,287.84 1009.36,288.02 C1010.62,287.96 1012.48,287.66 1014.94,287.12 C1019.5,286.04 1022.86,284.96 1024.9,284 C1028.5,282.32 1030.36,280.1 1030.36,277.34 L1030.36,277.34 Z M1023.16,264.32 C1023.16,266.06 1020.34,267.92 1014.7,269.9 L1014.82,262.94 C1017.04,262.76 1018.66,262.64 1019.62,262.64 C1021.96,262.64 1023.16,263.24 1023.16,264.32 L1023.16,264.32 Z M1025.86,277.94 C1025.86,278.84 1024.84,279.74 1022.8,280.58 C1020.76,281.42 1018,282.08 1014.58,282.5 L1014.58,274.94 C1018.54,275.06 1021.3,275.36 1022.98,275.72 C1024.9,276.2 1025.86,276.92 1025.86,277.94 L1025.86,277.94 Z M1089.12,259.04 C1089.12,258.44 1088.88,257.84 1088.46,257.3 C1088.04,256.82 1087.56,256.52 1087.02,256.52 C1086.12,256.52 1084.86,256.76 1083.18,257.12 C1076.58,258.68 1070.7,260.06 1065.66,261.26 C1065.3,261.38 1065.06,261.38 1064.94,261.38 C1063.74,261.62 1063.14,262.52 1063.14,264.02 C1063.14,265.7 1063.8,266.48 1065.24,266.48 C1066.98,266.12 1068.36,265.82 1069.32,265.52 C1071.06,265.16 1072.56,264.8 1073.82,264.56 C1073.58,269.18 1073.46,273.62 1073.46,277.82 C1073.46,281.9 1073.7,284.72 1074.18,286.28 C1074.54,287.36 1075.26,287.9 1076.46,287.9 C1078.02,287.9 1078.8,286.46 1078.8,283.64 C1078.8,282.26 1078.5,281.24 1078.02,280.58 C1077.9,279.08 1077.84,276.74 1077.84,273.5 C1077.84,270.98 1078.02,267.56 1078.5,263.3 C1080.24,262.88 1081.44,262.58 1082.16,262.46 C1082.7,262.82 1083.12,262.94 1083.42,262.94 C1083.78,262.94 1084.2,262.88 1084.74,262.64 L1087.5,261.38 C1088.58,260.9 1089.12,260.12 1089.12,259.04 L1089.12,259.04 Z M1118.62,274.16 L1118.62,270.14 C1118.62,265.94 1117.66,263.78 1115.8,263.78 C1114.84,263.78 1113.94,264.62 1113.04,266.18 C1111.18,269.48 1109.74,271.82 1108.66,273.14 C1107.22,274.94 1105.84,275.84 1104.52,275.84 C1103.56,275.84 1103.14,275.3 1103.14,274.22 C1103.14,273.26 1103.32,271.4 1103.68,268.64 C1104.04,265.88 1104.28,264.2 1104.28,263.66 C1104.28,262.22 1104.04,260.9 1103.56,259.82 C1103.02,258.5 1102.24,257.84 1101.28,257.84 C1099.48,257.84 1098.64,258.62 1098.64,260.12 C1098.64,260.48 1098.7,260.96 1098.94,261.68 C1099.12,262.4 1099.24,262.88 1099.24,263.24 C1099.24,264.44 1099.06,266.24 1098.76,268.76 C1098.46,271.28 1098.34,273.2 1098.34,274.4 C1098.34,276.38 1098.88,278 1100.02,279.26 C1101.1,280.58 1102.54,281.18 1104.46,281.18 C1107.52,281.18 1110.64,278.96 1113.82,274.52 C1113.82,276.56 1113.64,278.48 1113.34,280.34 C1111.9,288.32 1106.62,292.34 1097.44,292.46 C1096,292.28 1094.92,292.16 1094.2,292.1 C1092.7,292.16 1091.92,292.94 1091.92,294.5 C1091.92,296.66 1093.78,297.8 1097.5,297.8 C1103.38,297.8 1108.12,296.18 1111.84,293.06 C1116.34,289.22 1118.62,282.98 1118.62,274.16 L1118.62,274.16 Z M1150.52,270.08 C1150.52,269.54 1150.22,268.94 1149.74,268.34 C1149.74,266.96 1149.5,265.76 1149.14,264.68 C1149.2,264.44 1149.26,264.14 1149.26,263.84 C1149.26,263.12 1148.84,262.4 1148.12,261.8 C1147.34,261.2 1146.56,260.84 1145.78,260.84 C1142.48,260.84 1138.88,262.76 1134.92,266.48 C1130.78,270.32 1128.74,274.04 1128.74,277.52 C1128.74,279.38 1129.34,281 1130.66,282.44 C1131.92,283.94 1133.42,284.66 1135.16,284.66 C1137.86,284.66 1140.86,282.98 1144.22,279.62 C1144.52,284.18 1145.54,286.52 1147.28,286.52 C1147.88,286.52 1148.48,286.28 1149.02,285.92 C1149.5,285.44 1149.8,284.84 1149.8,284.24 C1149.8,284.06 1149.62,283.34 1149.38,281.9 C1149.08,280.52 1148.96,279.44 1148.96,278.72 C1148.96,276.32 1149.32,273.92 1150.16,271.4 C1150.4,270.74 1150.52,270.32 1150.52,270.08 L1150.52,270.08 Z M1145.06,268.34 C1145.06,270.38 1143.86,272.78 1141.58,275.54 C1139.3,278.3 1137.2,279.62 1135.4,279.62 C1134.14,279.62 1133.54,278.9 1133.54,277.4 C1133.54,275.48 1135.04,273.08 1138.1,270.14 C1140.86,267.5 1142.84,266.12 1143.98,266.12 C1144.7,266.12 1145.06,266.9 1145.06,268.34 L1145.06,268.34 Z M1184.88,262.76 C1184.88,261.86 1184.58,261.08 1183.98,260.36 C1183.44,259.7 1182.78,259.34 1181.94,259.34 C1181.58,259.34 1180.86,259.7 1179.78,260.3 C1178.7,260.96 1176.06,261.5 1171.8,261.98 C1170.84,261.2 1170.06,260.78 1169.52,260.78 C1168.86,260.78 1168.14,261.14 1167.42,261.86 C1166.7,262.58 1166.34,263.36 1166.34,264.08 C1166.34,264.56 1166.58,265.16 1167.06,265.82 C1167.48,266.54 1167.72,267.32 1167.72,268.22 C1167.72,271.94 1167.42,275 1166.82,277.52 C1166.04,280.46 1165.02,281.9 1163.82,281.9 C1163.34,281.9 1162.98,281.18 1162.86,279.62 C1162.74,279.02 1162.5,278.66 1162.02,278.66 C1161.18,278.66 1160.58,279.08 1160.16,279.8 C1159.62,280.64 1159.38,281.6 1159.38,282.62 C1159.38,283.76 1159.8,284.6 1160.7,285.26 C1161.54,285.86 1162.5,286.22 1163.58,286.22 C1166.7,286.22 1168.92,284.18 1170.24,280.22 C1171.08,277.7 1171.8,273.14 1172.4,266.54 C1173.9,266.18 1176.18,265.7 1179.3,265.16 C1178.7,271.04 1178.4,275.48 1178.4,278.48 C1178.4,282.44 1178.64,284.9 1179.18,285.92 C1179.72,286.94 1180.5,287.48 1181.46,287.48 C1183.02,287.48 1183.8,286.52 1183.8,284.72 C1183.56,283.64 1183.44,282.68 1183.32,281.84 C1183.02,279.8 1182.9,278.06 1182.9,276.56 C1182.9,273.32 1183.38,269.54 1184.4,265.22 C1184.7,263.78 1184.88,263 1184.88,262.76 L1184.88,262.76 Z M1218.82,282.92 C1218.82,282.32 1218.58,281.72 1218.1,281.12 C1217.62,280.64 1217.02,280.34 1216.42,280.34 C1215.94,280.34 1215.16,280.46 1214.14,280.58 C1213.12,280.7 1212.34,280.76 1211.86,280.76 C1210.06,280.76 1208.5,279.92 1207.06,278.18 C1213.06,274.94 1216.06,271.1 1216.06,266.66 C1216.06,264.98 1215.34,263.36 1213.9,261.92 C1212.46,260.48 1211.02,259.76 1209.52,259.76 C1206.94,259.76 1204.84,261.26 1203.16,264.2 C1201.72,266.72 1201,269.42 1201,272.3 C1201,272.9 1201.06,273.74 1201.24,274.76 L1199.86,274.76 C1199.02,274.76 1198.24,274.46 1197.4,273.86 C1196.56,273.26 1195.96,272.96 1195.6,272.96 C1194.04,272.96 1193.26,273.8 1193.26,275.48 C1193.26,276.8 1194.22,277.88 1196.26,278.72 C1197.82,279.38 1199.32,279.68 1200.88,279.68 L1202.68,279.68 C1204.84,283.82 1208.2,285.86 1212.76,285.86 C1216.78,285.86 1218.82,284.84 1218.82,282.92 L1218.82,282.92 Z M1211.32,266.9 C1211.32,268.88 1209.52,271.04 1205.92,273.38 L1205.92,272.3 C1205.92,270.68 1206.16,269.12 1206.76,267.62 C1207.36,265.82 1208.2,264.92 1209.28,264.92 C1209.76,264.92 1210.24,265.16 1210.72,265.52 C1211.08,266 1211.32,266.42 1211.32,266.9 L1211.32,266.9 Z M1251.38,259.04 C1251.38,258.44 1251.14,257.84 1250.72,257.3 C1250.3,256.82 1249.82,256.52 1249.28,256.52 C1248.38,256.52 1247.12,256.76 1245.44,257.12 C1238.84,258.68 1232.96,260.06 1227.92,261.26 C1227.56,261.38 1227.32,261.38 1227.2,261.38 C1226,261.62 1225.4,262.52 1225.4,264.02 C1225.4,265.7 1226.06,266.48 1227.5,266.48 C1229.24,266.12 1230.62,265.82 1231.58,265.52 C1233.32,265.16 1234.82,264.8 1236.08,264.56 C1235.84,269.18 1235.72,273.62 1235.72,277.82 C1235.72,281.9 1235.96,284.72 1236.44,286.28 C1236.8,287.36 1237.52,287.9 1238.72,287.9 C1240.28,287.9 1241.06,286.46 1241.06,283.64 C1241.06,282.26 1240.76,281.24 1240.28,280.58 C1240.16,279.08 1240.1,276.74 1240.1,273.5 C1240.1,270.98 1240.28,267.56 1240.76,263.3 C1242.5,262.88 1243.7,262.58 1244.42,262.46 C1244.96,262.82 1245.38,262.94 1245.68,262.94 C1246.04,262.94 1246.46,262.88 1247,262.64 L1249.76,261.38 C1250.84,260.9 1251.38,260.12 1251.38,259.04 L1251.38,259.04 Z M1283.82,252.26 C1283.82,249.2 1282.68,246.8 1280.4,245.06 C1278.36,243.5 1275.6,242.66 1272.24,242.66 C1270.86,242.66 1269.24,242.9 1267.44,243.32 C1266.42,243.02 1265.88,242.84 1265.82,242.84 C1265.1,242.84 1264.38,243.2 1263.6,243.8 C1262.88,244.46 1262.52,245.12 1262.52,245.84 C1262.52,246.68 1262.76,247.34 1263.24,247.82 C1263.72,248.42 1264.32,248.66 1265.16,248.66 C1265.34,248.66 1265.94,248.6 1266.9,248.36 C1269.78,247.88 1271.34,247.58 1271.58,247.58 C1276.5,247.58 1279.02,249.14 1279.02,252.2 C1279.02,254.48 1277.64,256.46 1274.94,258.02 C1272.6,259.4 1269.84,260.24 1266.66,260.6 C1264.74,260.84 1263.84,261.68 1263.84,263.06 C1263.84,263.36 1264.02,264.02 1264.44,265.1 C1265.28,267.68 1265.82,270.2 1266.12,272.66 C1266.3,274.34 1267.08,275.12 1268.46,275.12 C1270.02,275.12 1270.86,274.28 1270.86,272.48 C1270.86,270.62 1270.38,268.04 1269.48,264.8 C1273.26,264.2 1276.56,262.82 1279.32,260.66 C1282.32,258.26 1283.82,255.5 1283.82,252.26 L1283.82,252.26 Z M1272.06,283.16 C1272.06,282.2 1271.7,281.42 1271.04,280.82 C1270.26,280.34 1269.42,280.04 1268.58,280.04 C1267.56,280.04 1266.78,280.46 1266.18,281.24 C1265.58,281.96 1265.28,282.86 1265.28,283.88 C1265.28,284.78 1265.52,285.56 1266.06,286.22 C1266.6,286.82 1267.2,287.18 1267.86,287.18 C1269.24,287.18 1270.32,286.82 1271.04,286.1 C1271.7,285.32 1272.06,284.36 1272.06,283.16 L1272.06,283.16 Z" id="Частенько-захаживаеш"></path>
        </g>
    </g>
</svg>