<?xml version="1.0" encoding="UTF-8"?>
<svg width="410px" height="46px" viewBox="0 0 410 46" version="1.1" xmlns="http://www.w3.org/2000/svg" xmlns:xlink="http://www.w3.org/1999/xlink">
    <!-- Generator: Sketch 40.3 (33839) - http://www.bohemiancoding.com/sketch -->
    <title>Голова болит?</title>
    <desc>Created with Sketch.</desc>
    <defs></defs>
    <g id="Page-1" stroke="none" stroke-width="1" fill="none" fill-rule="evenodd">
        <g id="1600--copy-7" transform="translate(-910.000000, -356.000000)" fill="#FFFFFF">
            <path d="M940.06,359.9 C940.06,358.94 939.7,358.16 939.04,357.5 C938.32,356.9 937.48,356.54 936.58,356.54 C935.86,356.54 934.6,356.78 932.74,357.14 C930.28,357.68 928.9,357.98 928.6,357.98 C923.5,358.76 918.34,359.12 913.06,359.12 C912.52,359.12 912.04,359.42 911.56,359.9 C911.08,360.44 910.9,360.98 910.9,361.52 C910.9,363.44 912.28,364.4 915.16,364.4 C915.04,367.52 914.92,369.86 914.86,371.3 C914.08,383.42 913.48,392.54 913.12,398.54 C913.18,400.82 914.08,401.96 915.88,401.96 C916.66,401.96 917.32,401.6 917.92,400.94 C918.52,400.22 918.82,399.44 918.82,398.6 C918.82,397.52 918.76,396.08 918.76,394.22 C918.7,392.42 918.7,391.04 918.7,390.14 C918.7,385.04 919.24,376.28 920.38,363.92 C928.18,363.08 934.06,362.42 938.02,361.94 C939.34,361.82 940.06,361.1 940.06,359.9 L940.06,359.9 Z M968,384.8 C968,382.46 967.34,380.3 966.02,378.38 C964.64,376.52 962.9,375.2 960.8,374.48 C959.96,374.24 959.48,374.12 959.36,374.12 C958.88,374.12 958.34,374.42 957.62,374.9 C956.78,375.38 956.12,375.74 955.64,375.92 C953.6,376.94 951.92,378.74 950.72,381.26 C949.52,383.54 948.98,386 948.98,388.58 C948.98,391.64 949.76,394.16 951.44,396.14 C953.12,398.06 955.22,399.08 957.74,399.08 C960.62,399.08 963.08,397.76 965.06,395 C966.98,392.24 968,388.88 968,384.8 L968,384.8 Z M963.26,385.7 C963.26,387.74 962.66,389.6 961.58,391.34 C960.38,393.14 959.12,394.04 957.68,394.04 C956.48,394.04 955.52,393.5 954.8,392.36 C954.02,391.28 953.66,390.02 953.66,388.58 C953.66,386.66 954.08,384.86 955.04,383.18 C956.12,381.26 957.5,380.24 959.18,380.24 C959.78,380.6 960.56,380.78 961.52,380.78 C962.66,381.5 963.26,383.18 963.26,385.7 L963.26,385.7 Z M1002.42,376.76 C1002.42,375.86 1002.12,375.08 1001.52,374.36 C1000.98,373.7 1000.32,373.34 999.48,373.34 C999.12,373.34 998.4,373.7 997.32,374.3 C996.24,374.96 993.6,375.5 989.34,375.98 C988.38,375.2 987.6,374.78 987.06,374.78 C986.4,374.78 985.68,375.14 984.96,375.86 C984.24,376.58 983.88,377.36 983.88,378.08 C983.88,378.56 984.12,379.16 984.6,379.82 C985.02,380.54 985.26,381.32 985.26,382.22 C985.26,385.94 984.96,389 984.36,391.52 C983.58,394.46 982.56,395.9 981.36,395.9 C980.88,395.9 980.52,395.18 980.4,393.62 C980.28,393.02 980.04,392.66 979.56,392.66 C978.72,392.66 978.12,393.08 977.7,393.8 C977.16,394.64 976.92,395.6 976.92,396.62 C976.92,397.76 977.34,398.6 978.24,399.26 C979.08,399.86 980.04,400.22 981.12,400.22 C984.24,400.22 986.46,398.18 987.78,394.22 C988.62,391.7 989.34,387.14 989.94,380.54 C991.44,380.18 993.72,379.7 996.84,379.16 C996.24,385.04 995.94,389.48 995.94,392.48 C995.94,396.44 996.18,398.9 996.72,399.92 C997.26,400.94 998.04,401.48 999,401.48 C1000.56,401.48 1001.34,400.52 1001.34,398.72 C1001.1,397.64 1000.98,396.68 1000.86,395.84 C1000.56,393.8 1000.44,392.06 1000.44,390.56 C1000.44,387.32 1000.92,383.54 1001.94,379.22 C1002.24,377.78 1002.42,377 1002.42,376.76 L1002.42,376.76 Z M1031.56,384.8 C1031.56,382.46 1030.9,380.3 1029.58,378.38 C1028.2,376.52 1026.46,375.2 1024.36,374.48 C1023.52,374.24 1023.04,374.12 1022.92,374.12 C1022.44,374.12 1021.9,374.42 1021.18,374.9 C1020.34,375.38 1019.68,375.74 1019.2,375.92 C1017.16,376.94 1015.48,378.74 1014.28,381.26 C1013.08,383.54 1012.54,386 1012.54,388.58 C1012.54,391.64 1013.32,394.16 1015,396.14 C1016.68,398.06 1018.78,399.08 1021.3,399.08 C1024.18,399.08 1026.64,397.76 1028.62,395 C1030.54,392.24 1031.56,388.88 1031.56,384.8 L1031.56,384.8 Z M1026.82,385.7 C1026.82,387.74 1026.22,389.6 1025.14,391.34 C1023.94,393.14 1022.68,394.04 1021.24,394.04 C1020.04,394.04 1019.08,393.5 1018.36,392.36 C1017.58,391.28 1017.22,390.02 1017.22,388.58 C1017.22,386.66 1017.64,384.86 1018.6,383.18 C1019.68,381.26 1021.06,380.24 1022.74,380.24 C1023.34,380.6 1024.12,380.78 1025.08,380.78 C1026.22,381.5 1026.82,383.18 1026.82,385.7 L1026.82,385.7 Z M1065.62,391.34 C1065.62,387.92 1061.96,386.06 1054.76,385.76 C1060.28,383.3 1063.04,380.66 1063.04,377.78 C1063.04,375.92 1062.08,374.48 1060.22,373.46 C1058.72,372.74 1056.92,372.32 1054.82,372.32 C1051.88,372.32 1048.4,372.5 1044.38,372.86 C1042.58,373.1 1041.74,373.82 1041.74,375.14 C1041.74,376.58 1042.52,377.24 1044.2,377.24 C1044.5,377.24 1044.98,377.18 1045.64,377.06 C1045.52,390.32 1045.46,397.16 1045.46,397.52 C1043.36,397.76 1042.34,398.6 1042.34,400.16 C1042.34,401.24 1043.06,401.84 1044.62,402.02 C1045.88,401.96 1047.74,401.66 1050.2,401.12 C1054.76,400.04 1058.12,398.96 1060.16,398 C1063.76,396.32 1065.62,394.1 1065.62,391.34 L1065.62,391.34 Z M1058.42,378.32 C1058.42,380.06 1055.6,381.92 1049.96,383.9 L1050.08,376.94 C1052.3,376.76 1053.92,376.64 1054.88,376.64 C1057.22,376.64 1058.42,377.24 1058.42,378.32 L1058.42,378.32 Z M1061.12,391.94 C1061.12,392.84 1060.1,393.74 1058.06,394.58 C1056.02,395.42 1053.26,396.08 1049.84,396.5 L1049.84,388.94 C1053.8,389.06 1056.56,389.36 1058.24,389.72 C1060.16,390.2 1061.12,390.92 1061.12,391.94 L1061.12,391.94 Z M1097.52,384.08 C1097.52,383.54 1097.22,382.94 1096.74,382.34 C1096.74,380.96 1096.5,379.76 1096.14,378.68 C1096.2,378.44 1096.26,378.14 1096.26,377.84 C1096.26,377.12 1095.84,376.4 1095.12,375.8 C1094.34,375.2 1093.56,374.84 1092.78,374.84 C1089.48,374.84 1085.88,376.76 1081.92,380.48 C1077.78,384.32 1075.74,388.04 1075.74,391.52 C1075.74,393.38 1076.34,395 1077.66,396.44 C1078.92,397.94 1080.42,398.66 1082.16,398.66 C1084.86,398.66 1087.86,396.98 1091.22,393.62 C1091.52,398.18 1092.54,400.52 1094.28,400.52 C1094.88,400.52 1095.48,400.28 1096.02,399.92 C1096.5,399.44 1096.8,398.84 1096.8,398.24 C1096.8,398.06 1096.62,397.34 1096.38,395.9 C1096.08,394.52 1095.96,393.44 1095.96,392.72 C1095.96,390.32 1096.32,387.92 1097.16,385.4 C1097.4,384.74 1097.52,384.32 1097.52,384.08 L1097.52,384.08 Z M1092.06,382.34 C1092.06,384.38 1090.86,386.78 1088.58,389.54 C1086.3,392.3 1084.2,393.62 1082.4,393.62 C1081.14,393.62 1080.54,392.9 1080.54,391.4 C1080.54,389.48 1082.04,387.08 1085.1,384.14 C1087.86,381.5 1089.84,380.12 1090.98,380.12 C1091.7,380.12 1092.06,380.9 1092.06,382.34 L1092.06,382.34 Z M1156.64,387.02 C1156.64,383.72 1155.8,381.02 1154.24,378.92 C1152.44,376.58 1149.98,375.38 1146.8,375.38 C1143.92,375.38 1140.74,376.88 1137.38,379.82 C1138.34,373.7 1142.42,369.38 1149.74,366.98 C1151.84,366.26 1152.92,365.24 1152.92,363.8 C1152.92,362.78 1152.56,361.7 1151.96,360.56 C1151.24,359.48 1150.46,358.88 1149.62,358.88 C1148.84,358.88 1148.42,359.42 1148.36,360.44 C1148.24,361.64 1148.18,362.24 1148.12,362.36 C1147.94,362.66 1147.34,363.02 1146.32,363.44 C1136.84,367.28 1132.16,374.42 1132.16,384.92 C1132.16,389.42 1133.06,393.08 1134.98,395.96 C1137.08,398.96 1140.02,400.52 1143.8,400.52 C1147.16,400.52 1150.1,399.2 1152.74,396.62 C1155.32,393.98 1156.64,390.8 1156.64,387.02 L1156.64,387.02 Z M1152.32,385.64 C1152.32,388.52 1151.48,390.92 1149.86,392.96 C1148.18,395 1146.08,396.02 1143.68,396.02 C1141.76,396.02 1140.14,395.18 1138.94,393.38 C1137.74,391.58 1137.14,389.36 1137.14,386.66 C1137.14,386.36 1137.14,385.94 1137.2,385.34 C1138.7,385.16 1139.54,384.5 1139.72,383.42 C1142.48,381.14 1145,379.94 1147.16,379.94 C1148.48,379.94 1149.68,380.54 1150.76,381.62 C1151.78,382.82 1152.32,384.14 1152.32,385.64 L1152.32,385.64 Z M1185.78,384.8 C1185.78,382.46 1185.12,380.3 1183.8,378.38 C1182.42,376.52 1180.68,375.2 1178.58,374.48 C1177.74,374.24 1177.26,374.12 1177.14,374.12 C1176.66,374.12 1176.12,374.42 1175.4,374.9 C1174.56,375.38 1173.9,375.74 1173.42,375.92 C1171.38,376.94 1169.7,378.74 1168.5,381.26 C1167.3,383.54 1166.76,386 1166.76,388.58 C1166.76,391.64 1167.54,394.16 1169.22,396.14 C1170.9,398.06 1173,399.08 1175.52,399.08 C1178.4,399.08 1180.86,397.76 1182.84,395 C1184.76,392.24 1185.78,388.88 1185.78,384.8 L1185.78,384.8 Z M1181.04,385.7 C1181.04,387.74 1180.44,389.6 1179.36,391.34 C1178.16,393.14 1176.9,394.04 1175.46,394.04 C1174.26,394.04 1173.3,393.5 1172.58,392.36 C1171.8,391.28 1171.44,390.02 1171.44,388.58 C1171.44,386.66 1171.86,384.86 1172.82,383.18 C1173.9,381.26 1175.28,380.24 1176.96,380.24 C1177.56,380.6 1178.34,380.78 1179.3,380.78 C1180.44,381.5 1181.04,383.18 1181.04,385.7 L1181.04,385.7 Z M1220.2,376.76 C1220.2,375.86 1219.9,375.08 1219.3,374.36 C1218.76,373.7 1218.1,373.34 1217.26,373.34 C1216.9,373.34 1216.18,373.7 1215.1,374.3 C1214.02,374.96 1211.38,375.5 1207.12,375.98 C1206.16,375.2 1205.38,374.78 1204.84,374.78 C1204.18,374.78 1203.46,375.14 1202.74,375.86 C1202.02,376.58 1201.66,377.36 1201.66,378.08 C1201.66,378.56 1201.9,379.16 1202.38,379.82 C1202.8,380.54 1203.04,381.32 1203.04,382.22 C1203.04,385.94 1202.74,389 1202.14,391.52 C1201.36,394.46 1200.34,395.9 1199.14,395.9 C1198.66,395.9 1198.3,395.18 1198.18,393.62 C1198.06,393.02 1197.82,392.66 1197.34,392.66 C1196.5,392.66 1195.9,393.08 1195.48,393.8 C1194.94,394.64 1194.7,395.6 1194.7,396.62 C1194.7,397.76 1195.12,398.6 1196.02,399.26 C1196.86,399.86 1197.82,400.22 1198.9,400.22 C1202.02,400.22 1204.24,398.18 1205.56,394.22 C1206.4,391.7 1207.12,387.14 1207.72,380.54 C1209.22,380.18 1211.5,379.7 1214.62,379.16 C1214.02,385.04 1213.72,389.48 1213.72,392.48 C1213.72,396.44 1213.96,398.9 1214.5,399.92 C1215.04,400.94 1215.82,401.48 1216.78,401.48 C1218.34,401.48 1219.12,400.52 1219.12,398.72 C1218.88,397.64 1218.76,396.68 1218.64,395.84 C1218.34,393.8 1218.22,392.06 1218.22,390.56 C1218.22,387.32 1218.7,383.54 1219.72,379.22 C1220.02,377.78 1220.2,377 1220.2,376.76 L1220.2,376.76 Z M1252.58,398.36 C1252.58,397.94 1252.28,397.4 1251.74,396.8 C1250.42,395.36 1249.82,391.7 1249.82,385.82 C1249.82,383.72 1250.12,380.18 1250.78,375.2 C1250.78,374.54 1250.48,373.94 1250,373.34 C1249.46,372.8 1248.86,372.5 1248.2,372.5 C1247.18,372.5 1245.02,374.72 1241.78,379.16 C1239.14,382.64 1236.98,385.82 1235.18,388.58 C1235.6,383.9 1235.9,380.48 1236.08,378.44 C1236.08,377.48 1235.72,376.64 1235.12,375.92 C1234.52,375.26 1233.74,374.9 1232.78,374.9 C1232.24,374.9 1231.76,375.26 1231.28,375.92 C1231.4,377.66 1231.52,378.68 1231.52,378.92 C1231.52,380 1231.34,382.7 1231.04,387.08 L1230.92,388.82 C1230.86,389.72 1230.74,390.92 1230.62,392.42 C1230.44,393.86 1230.32,394.76 1230.32,395.12 C1230.38,395.96 1230.62,396.62 1231.1,396.98 C1232.06,397.94 1232.66,398.36 1232.9,398.36 C1233.74,398.36 1234.76,397.46 1235.84,395.54 C1238.06,391.82 1239.62,389.18 1240.58,387.74 C1242.14,385.16 1243.82,382.76 1245.68,380.6 C1245.68,381.2 1245.62,382.46 1245.62,384.32 C1245.56,386.24 1245.56,387.26 1245.56,387.5 C1245.56,390.62 1245.86,393.26 1246.52,395.54 C1247.42,398.84 1248.74,400.52 1250.42,400.52 C1250.78,400.52 1251.26,400.22 1251.8,399.74 C1252.28,399.14 1252.58,398.72 1252.58,398.36 L1252.58,398.36 Z M1286.82,373.04 C1286.82,372.44 1286.58,371.84 1286.16,371.3 C1285.74,370.82 1285.26,370.52 1284.72,370.52 C1283.82,370.52 1282.56,370.76 1280.88,371.12 C1274.28,372.68 1268.4,374.06 1263.36,375.26 C1263,375.38 1262.76,375.38 1262.64,375.38 C1261.44,375.62 1260.84,376.52 1260.84,378.02 C1260.84,379.7 1261.5,380.48 1262.94,380.48 C1264.68,380.12 1266.06,379.82 1267.02,379.52 C1268.76,379.16 1270.26,378.8 1271.52,378.56 C1271.28,383.18 1271.16,387.62 1271.16,391.82 C1271.16,395.9 1271.4,398.72 1271.88,400.28 C1272.24,401.36 1272.96,401.9 1274.16,401.9 C1275.72,401.9 1276.5,400.46 1276.5,397.64 C1276.5,396.26 1276.2,395.24 1275.72,394.58 C1275.6,393.08 1275.54,390.74 1275.54,387.5 C1275.54,384.98 1275.72,381.56 1276.2,377.3 C1277.94,376.88 1279.14,376.58 1279.86,376.46 C1280.4,376.82 1280.82,376.94 1281.12,376.94 C1281.48,376.94 1281.9,376.88 1282.44,376.64 L1285.2,375.38 C1286.28,374.9 1286.82,374.12 1286.82,373.04 L1286.82,373.04 Z M1319.26,366.26 C1319.26,363.2 1318.12,360.8 1315.84,359.06 C1313.8,357.5 1311.04,356.66 1307.68,356.66 C1306.3,356.66 1304.68,356.9 1302.88,357.32 C1301.86,357.02 1301.32,356.84 1301.26,356.84 C1300.54,356.84 1299.82,357.2 1299.04,357.8 C1298.32,358.46 1297.96,359.12 1297.96,359.84 C1297.96,360.68 1298.2,361.34 1298.68,361.82 C1299.16,362.42 1299.76,362.66 1300.6,362.66 C1300.78,362.66 1301.38,362.6 1302.34,362.36 C1305.22,361.88 1306.78,361.58 1307.02,361.58 C1311.94,361.58 1314.46,363.14 1314.46,366.2 C1314.46,368.48 1313.08,370.46 1310.38,372.02 C1308.04,373.4 1305.28,374.24 1302.1,374.6 C1300.18,374.84 1299.28,375.68 1299.28,377.06 C1299.28,377.36 1299.46,378.02 1299.88,379.1 C1300.72,381.68 1301.26,384.2 1301.56,386.66 C1301.74,388.34 1302.52,389.12 1303.9,389.12 C1305.46,389.12 1306.3,388.28 1306.3,386.48 C1306.3,384.62 1305.82,382.04 1304.92,378.8 C1308.7,378.2 1312,376.82 1314.76,374.66 C1317.76,372.26 1319.26,369.5 1319.26,366.26 L1319.26,366.26 Z M1307.5,397.16 C1307.5,396.2 1307.14,395.42 1306.48,394.82 C1305.7,394.34 1304.86,394.04 1304.02,394.04 C1303,394.04 1302.22,394.46 1301.62,395.24 C1301.02,395.96 1300.72,396.86 1300.72,397.88 C1300.72,398.78 1300.96,399.56 1301.5,400.22 C1302.04,400.82 1302.64,401.18 1303.3,401.18 C1304.68,401.18 1305.76,400.82 1306.48,400.1 C1307.14,399.32 1307.5,398.36 1307.5,397.16 L1307.5,397.16 Z" id="Голова-болит?"></path>
        </g>
    </g>
</svg>