<?xml version="1.0" encoding="UTF-8"?>
<svg width="1060px" height="56px" viewBox="0 0 1060 56" version="1.1" xmlns="http://www.w3.org/2000/svg" xmlns:xlink="http://www.w3.org/1999/xlink">
    <!-- Generator: Sketch 40.3 (33839) - http://www.bohemiancoding.com/sketch -->
    <title>Иногда стреляет в па</title>
    <desc>Created with Sketch.</desc>
    <defs></defs>
    <g id="Page-1" stroke="none" stroke-width="1" fill="none" fill-rule="evenodd">
        <g id="1600--copy-7" transform="translate(-268.000000, -213.000000)" fill="#FFFFFF">
            <path d="M303.2,258.9 C303.2,258.42 302.84,257.76 302.18,256.92 C299.48,253.32 298.16,247.56 298.16,239.7 L298.16,235.2 C298.16,231 298.64,225.12 299.72,217.56 C299.72,216.6 299.36,215.82 298.76,215.16 C298.04,214.56 297.2,214.2 296.3,214.2 C294.62,214.2 290.18,219.48 282.98,229.98 C279.38,235.56 276.56,240.12 274.46,243.6 C274.52,240.48 274.82,236.1 275.42,230.52 C275.54,228.96 275.78,226.44 276.14,223.02 C276.14,221.58 275.72,220.38 274.88,219.42 C274.04,218.58 272.96,218.1 271.64,218.1 C271.16,218.1 270.68,218.4 270.2,219 L270.56,223.74 C269.72,237.48 269.06,246.36 268.7,250.38 C268.7,251.82 268.94,252.72 269.54,253.2 C270.86,254.28 271.7,254.82 272.12,254.82 C273.08,254.82 274.4,253.44 275.96,250.68 C283.1,237.6 288.92,228.6 293.42,223.74 C293.18,226.56 293.12,229.56 293.12,232.68 C293.12,244.08 294.26,252.42 296.54,257.7 C297.08,259.02 297.62,259.98 298.16,260.52 C298.82,261.12 299.78,261.48 301.04,261.48 C301.4,261.48 301.88,261.12 302.42,260.52 C302.9,259.92 303.2,259.38 303.2,258.9 L303.2,258.9 Z M332.1,232.8 C332.1,231.24 331.38,230.46 329.94,230.46 C328.74,230.46 327.96,231.54 327.66,233.58 C327.36,235.2 327,237.48 326.64,240.42 C324,241.08 321.42,241.56 318.9,241.8 C319.5,237.96 320.1,235.08 320.7,233.1 C321.06,232.02 321.36,231.18 321.66,230.46 C321.54,228.84 320.82,228 319.38,228 C318.36,228 317.7,228.48 317.34,229.44 C316.14,232.32 315.18,236.46 314.58,241.86 C313.62,241.86 312.96,241.8 312.6,241.74 C311.4,241.74 310.86,242.46 310.86,243.78 C310.86,245.28 311.7,246 313.44,246 L314.16,246 C313.98,248.28 313.8,250.86 313.68,253.86 C313.68,254.04 313.62,254.34 313.56,254.7 C313.44,255.06 313.44,255.3 313.44,255.54 C313.44,256.14 313.68,256.68 314.16,257.16 C314.64,257.64 315.18,257.88 315.78,257.88 C317.22,257.88 318,257.1 318.06,255.6 C318.06,253.56 318.24,250.32 318.54,245.88 C321.12,245.64 323.64,245.22 326.16,244.62 C325.86,247.8 325.68,250.32 325.68,252.12 C325.68,252.3 325.62,252.54 325.56,252.9 C325.44,253.2 325.38,253.44 325.38,253.62 C325.38,255.06 325.56,256.14 326.04,256.86 C326.52,257.64 327.06,258.06 327.78,258.06 C328.38,258.06 328.92,257.82 329.4,257.34 C329.82,256.86 330.06,256.26 330.06,255.6 C330.06,255.48 330,255.18 330,254.58 C329.94,253.98 329.94,253.5 329.94,253.26 C329.94,249.24 330.54,243.06 331.86,234.72 C331.98,233.64 332.1,233.04 332.1,232.8 L332.1,232.8 Z M361.24,241.8 C361.24,239.46 360.58,237.3 359.26,235.38 C357.88,233.52 356.14,232.2 354.04,231.48 C353.2,231.24 352.72,231.12 352.6,231.12 C352.12,231.12 351.58,231.42 350.86,231.9 C350.02,232.38 349.36,232.74 348.88,232.92 C346.84,233.94 345.16,235.74 343.96,238.26 C342.76,240.54 342.22,243 342.22,245.58 C342.22,248.64 343,251.16 344.68,253.14 C346.36,255.06 348.46,256.08 350.98,256.08 C353.86,256.08 356.32,254.76 358.3,252 C360.22,249.24 361.24,245.88 361.24,241.8 L361.24,241.8 Z M356.5,242.7 C356.5,244.74 355.9,246.6 354.82,248.34 C353.62,250.14 352.36,251.04 350.92,251.04 C349.72,251.04 348.76,250.5 348.04,249.36 C347.26,248.28 346.9,247.02 346.9,245.58 C346.9,243.66 347.32,241.86 348.28,240.18 C349.36,238.26 350.74,237.24 352.42,237.24 C353.02,237.6 353.8,237.78 354.76,237.78 C355.9,238.5 356.5,240.18 356.5,242.7 L356.5,242.7 Z M393.68,231.36 C393.68,230.64 393.38,230.04 392.84,229.56 C392.3,229.14 391.7,228.9 391.1,228.9 C390.56,228.9 389.66,229.08 388.4,229.32 C384.2,230.16 379.46,230.64 374.12,230.7 C373.58,230.7 373.1,230.94 372.68,231.42 C372.2,231.9 372.02,232.5 372.02,233.1 C372.02,234.3 372.92,235.08 374.72,235.44 C374.18,241.26 373.28,247.26 371.96,253.5 C371.6,255.3 371.42,256.5 371.42,257.22 C371.42,258.84 372.14,259.68 373.64,259.68 C375.44,259.68 376.46,258.72 376.7,256.86 C377.18,251.88 378.26,244.62 379.82,235.14 C382.16,234.84 383.72,234.6 384.5,234.48 C386.3,234.36 388.1,234.24 389.9,234.06 C392.42,233.7 393.68,232.8 393.68,231.36 L393.68,231.36 Z M427.8,255.12 C427.8,254.94 427.68,254.64 427.44,254.28 C426.72,252.96 425.88,252.3 425.04,252.3 C424.92,252.3 424.74,252.36 424.44,252.36 C424.74,244.92 424.98,239.52 425.22,236.1 C425.34,234.36 425.7,232.62 426.36,230.82 C426.36,230.22 426,229.56 425.4,228.96 C424.8,228.36 424.2,228.06 423.6,228.06 C422.04,228.06 420.18,228.42 417.96,229.02 C415.32,229.8 413.58,230.4 412.74,230.76 C411.42,231.48 410.82,232.38 410.82,233.4 C410.82,233.7 410.94,234.12 411.24,234.72 C411.42,235.32 411.54,235.74 411.54,235.98 C411.54,238.62 410.88,241.62 409.56,245.1 C408.12,248.76 406.5,251.64 404.58,253.74 C402.72,253.86 401.76,254.7 401.64,256.26 C401.4,258.6 401.34,260.64 401.34,262.32 C401.34,262.86 401.58,263.4 402.06,263.88 C402.54,264.36 403.2,264.66 403.92,264.66 C405.3,264.66 406.02,263.94 406.02,262.56 C406.02,262.32 405.96,262.02 405.9,261.6 C405.78,261.18 405.78,260.88 405.78,260.76 C405.78,260.52 405.78,260.28 405.84,259.92 L405.84,259.02 C405.84,258.54 406.26,258.24 407.22,258.18 C410.76,257.76 414,257.46 416.88,257.28 C418.98,257.1 420.48,257.04 421.32,257.04 C422.04,257.04 422.46,257.34 422.46,257.94 C422.46,258.12 422.46,258.78 422.52,259.98 L422.52,262.08 C422.52,263.76 423.12,264.66 424.44,264.66 C424.92,264.66 425.52,264.48 426.18,264.18 C426.72,263.82 427.02,263.34 427.02,262.86 C427.02,262.44 426.96,261.9 426.9,261.18 C426.78,260.46 426.72,259.86 426.72,259.5 C426.72,258.54 426.78,257.7 427.02,257.04 C427.02,256.92 427.14,256.62 427.38,256.14 C427.62,255.6 427.8,255.24 427.8,255.12 L427.8,255.12 Z M420.78,233.16 C420.78,241.32 420.42,247.92 419.7,252.9 C415.02,253.2 411.84,253.44 410.1,253.68 C413.04,249 415.08,242.52 416.22,234.36 C417.18,233.88 418.74,233.46 420.78,233.16 L420.78,233.16 Z M459.1,241.08 C459.1,240.54 458.8,239.94 458.32,239.34 C458.32,237.96 458.08,236.76 457.72,235.68 C457.78,235.44 457.84,235.14 457.84,234.84 C457.84,234.12 457.42,233.4 456.7,232.8 C455.92,232.2 455.14,231.84 454.36,231.84 C451.06,231.84 447.46,233.76 443.5,237.48 C439.36,241.32 437.32,245.04 437.32,248.52 C437.32,250.38 437.92,252 439.24,253.44 C440.5,254.94 442,255.66 443.74,255.66 C446.44,255.66 449.44,253.98 452.8,250.62 C453.1,255.18 454.12,257.52 455.86,257.52 C456.46,257.52 457.06,257.28 457.6,256.92 C458.08,256.44 458.38,255.84 458.38,255.24 C458.38,255.06 458.2,254.34 457.96,252.9 C457.66,251.52 457.54,250.44 457.54,249.72 C457.54,247.32 457.9,244.92 458.74,242.4 C458.98,241.74 459.1,241.32 459.1,241.08 L459.1,241.08 Z M453.64,239.34 C453.64,241.38 452.44,243.78 450.16,246.54 C447.88,249.3 445.78,250.62 443.98,250.62 C442.72,250.62 442.12,249.9 442.12,248.4 C442.12,246.48 443.62,244.08 446.68,241.14 C449.44,238.5 451.42,237.12 452.56,237.12 C453.28,237.12 453.64,237.9 453.64,239.34 L453.64,239.34 Z M512.28,249.48 C512.28,248.88 512.04,248.28 511.56,247.68 C511.08,247.2 510.54,246.9 509.94,246.9 C509.46,246.9 508.74,247.32 507.9,248.1 C507.18,248.7 506.46,249.3 505.86,249.9 C504.84,250.68 503.58,251.04 502.08,251.04 C499.68,251.04 498.54,249.6 498.54,246.6 C498.54,244.74 499.08,242.88 500.16,241.08 C501.24,239.28 502.56,237.78 504.18,236.7 C504.9,237.12 505.98,237.3 507.48,237.3 C508.26,237.3 509.04,237 509.82,236.28 C510.48,235.56 510.84,234.9 510.84,234.18 C510.84,233.22 510.48,232.5 509.76,231.9 C508.98,231.36 508.14,231.06 507.24,231.06 C503.46,231.06 500.1,233.04 497.22,236.94 C494.88,240.06 493.74,243.48 493.74,247.2 C493.74,249.84 494.58,251.94 496.26,253.62 C497.94,255.24 500.04,256.08 502.56,256.08 C504.84,256.08 507.18,255.18 509.46,253.38 C511.32,251.94 512.28,250.68 512.28,249.48 L512.28,249.48 Z M545.92,230.04 C545.92,229.44 545.68,228.84 545.26,228.3 C544.84,227.82 544.36,227.52 543.82,227.52 C542.92,227.52 541.66,227.76 539.98,228.12 C533.38,229.68 527.5,231.06 522.46,232.26 C522.1,232.38 521.86,232.38 521.74,232.38 C520.54,232.62 519.94,233.52 519.94,235.02 C519.94,236.7 520.6,237.48 522.04,237.48 C523.78,237.12 525.16,236.82 526.12,236.52 C527.86,236.16 529.36,235.8 530.62,235.56 C530.38,240.18 530.26,244.62 530.26,248.82 C530.26,252.9 530.5,255.72 530.98,257.28 C531.34,258.36 532.06,258.9 533.26,258.9 C534.82,258.9 535.6,257.46 535.6,254.64 C535.6,253.26 535.3,252.24 534.82,251.58 C534.7,250.08 534.64,247.74 534.64,244.5 C534.64,241.98 534.82,238.56 535.3,234.3 C537.04,233.88 538.24,233.58 538.96,233.46 C539.5,233.82 539.92,233.94 540.22,233.94 C540.58,233.94 541,233.88 541.54,233.64 L544.3,232.38 C545.38,231.9 545.92,231.12 545.92,230.04 L545.92,230.04 Z M575.3,234.24 C575.3,231.36 574.64,228.96 573.32,227.04 C571.88,224.94 569.78,223.86 567.14,223.86 C563.36,223.86 560.42,226.5 558.32,231.78 C556.88,235.44 556.16,239.64 556.16,244.32 C556.16,244.92 556.16,245.4 556.22,245.7 C554.54,246.3 553.76,247.2 553.76,248.46 C553.76,250.02 554.54,250.86 556.22,250.98 C556.34,251.94 556.4,253.38 556.4,255.3 C556.4,259.14 556.16,261.84 555.8,263.52 C555.38,265.14 555.2,266.04 555.2,266.22 C555.2,266.88 555.44,267.48 555.92,268.02 C556.4,268.5 557,268.8 557.66,268.8 C558.92,268.8 559.82,267.54 560.36,265.08 C560.96,262.32 561.26,259.5 561.26,256.74 C561.26,254.22 561.14,251.76 560.96,249.36 C570.5,245.88 575.3,240.84 575.3,234.24 L575.3,234.24 Z M570.5,233.22 C570.5,238.14 567.32,241.74 561.02,244.02 C561.02,240.78 561.56,237.48 562.7,234.24 C563.96,230.7 565.46,228.9 567.14,228.9 C568.16,228.9 569,229.38 569.66,230.22 C570.2,231.06 570.5,232.08 570.5,233.22 L570.5,233.22 Z M609.06,253.92 C609.06,253.32 608.82,252.72 608.34,252.12 C607.86,251.64 607.26,251.34 606.66,251.34 C606.18,251.34 605.4,251.46 604.38,251.58 C603.36,251.7 602.58,251.76 602.1,251.76 C600.3,251.76 598.74,250.92 597.3,249.18 C603.3,245.94 606.3,242.1 606.3,237.66 C606.3,235.98 605.58,234.36 604.14,232.92 C602.7,231.48 601.26,230.76 599.76,230.76 C597.18,230.76 595.08,232.26 593.4,235.2 C591.96,237.72 591.24,240.42 591.24,243.3 C591.24,243.9 591.3,244.74 591.48,245.76 L590.1,245.76 C589.26,245.76 588.48,245.46 587.64,244.86 C586.8,244.26 586.2,243.96 585.84,243.96 C584.28,243.96 583.5,244.8 583.5,246.48 C583.5,247.8 584.46,248.88 586.5,249.72 C588.06,250.38 589.56,250.68 591.12,250.68 L592.92,250.68 C595.08,254.82 598.44,256.86 603,256.86 C607.02,256.86 609.06,255.84 609.06,253.92 L609.06,253.92 Z M601.56,237.9 C601.56,239.88 599.76,242.04 596.16,244.38 L596.16,243.3 C596.16,241.68 596.4,240.12 597,238.62 C597.6,236.82 598.44,235.92 599.52,235.92 C600,235.92 600.48,236.16 600.96,236.52 C601.32,237 601.56,237.42 601.56,237.9 L601.56,237.9 Z M641.74,233.76 C641.74,232.86 641.44,232.08 640.84,231.36 C640.3,230.7 639.64,230.34 638.8,230.34 C638.44,230.34 637.72,230.7 636.64,231.3 C635.56,231.96 632.92,232.5 628.66,232.98 C627.7,232.2 626.92,231.78 626.38,231.78 C625.72,231.78 625,232.14 624.28,232.86 C623.56,233.58 623.2,234.36 623.2,235.08 C623.2,235.56 623.44,236.16 623.92,236.82 C624.34,237.54 624.58,238.32 624.58,239.22 C624.58,242.94 624.28,246 623.68,248.52 C622.9,251.46 621.88,252.9 620.68,252.9 C620.2,252.9 619.84,252.18 619.72,250.62 C619.6,250.02 619.36,249.66 618.88,249.66 C618.04,249.66 617.44,250.08 617.02,250.8 C616.48,251.64 616.24,252.6 616.24,253.62 C616.24,254.76 616.66,255.6 617.56,256.26 C618.4,256.86 619.36,257.22 620.44,257.22 C623.56,257.22 625.78,255.18 627.1,251.22 C627.94,248.7 628.66,244.14 629.26,237.54 C630.76,237.18 633.04,236.7 636.16,236.16 C635.56,242.04 635.26,246.48 635.26,249.48 C635.26,253.44 635.5,255.9 636.04,256.92 C636.58,257.94 637.36,258.48 638.32,258.48 C639.88,258.48 640.66,257.52 640.66,255.72 C640.42,254.64 640.3,253.68 640.18,252.84 C639.88,250.8 639.76,249.06 639.76,247.56 C639.76,244.32 640.24,240.54 641.26,236.22 C641.56,234.78 641.74,234 641.74,233.76 L641.74,233.76 Z M671.24,238.38 C671.24,236.58 670.58,235.62 669.32,235.62 C668.24,235.62 667.46,236.22 667.1,237.42 C666.02,240.9 663.5,242.58 659.66,242.58 C657.2,242.58 656,242.04 656,240.96 C656,239.7 657.38,238.2 660.14,236.52 C662.66,235.08 664.64,234.36 666.2,234.36 C666.56,234.36 666.8,234.42 666.98,234.48 C667.34,234.9 667.7,235.08 668.12,235.08 C668.6,235.08 669.14,234.84 669.68,234.36 C670.16,233.88 670.4,233.34 670.4,232.74 C670.4,231.06 669.2,230.16 666.92,230.16 C663.98,230.16 660.86,231.18 657.5,233.22 C653.6,235.62 651.68,238.26 651.68,241.14 C651.68,243 652.4,244.44 653.9,245.4 C654.98,246.24 656.48,246.6 658.34,246.6 L658.88,246.6 L654.86,249.96 L654.5,249.42 C653.84,250.14 653.3,250.74 652.94,251.1 C652.34,251.34 651.8,251.82 651.38,252.48 C650.84,253.2 650.6,253.86 650.6,254.52 C650.6,255.12 650.84,255.66 651.38,256.26 C651.86,256.74 652.46,257.04 653.06,257.04 C653.66,257.04 654.56,256.44 655.76,255.3 C660.02,251.4 663.32,248.46 665.6,246.48 C664.94,251.4 664.64,254.16 664.64,254.76 C664.64,256.74 665.42,257.76 666.98,257.76 C668.3,257.76 669.08,256.92 669.2,255.36 C670.04,247.8 670.7,242.16 671.24,238.38 L671.24,238.38 Z M705.24,253.92 C705.24,253.32 705,252.72 704.52,252.12 C704.04,251.64 703.44,251.34 702.84,251.34 C702.36,251.34 701.58,251.46 700.56,251.58 C699.54,251.7 698.76,251.76 698.28,251.76 C696.48,251.76 694.92,250.92 693.48,249.18 C699.48,245.94 702.48,242.1 702.48,237.66 C702.48,235.98 701.76,234.36 700.32,232.92 C698.88,231.48 697.44,230.76 695.94,230.76 C693.36,230.76 691.26,232.26 689.58,235.2 C688.14,237.72 687.42,240.42 687.42,243.3 C687.42,243.9 687.48,244.74 687.66,245.76 L686.28,245.76 C685.44,245.76 684.66,245.46 683.82,244.86 C682.98,244.26 682.38,243.96 682.02,243.96 C680.46,243.96 679.68,244.8 679.68,246.48 C679.68,247.8 680.64,248.88 682.68,249.72 C684.24,250.38 685.74,250.68 687.3,250.68 L689.1,250.68 C691.26,254.82 694.62,256.86 699.18,256.86 C703.2,256.86 705.24,255.84 705.24,253.92 L705.24,253.92 Z M697.74,237.9 C697.74,239.88 695.94,242.04 692.34,244.38 L692.34,243.3 C692.34,241.68 692.58,240.12 693.18,238.62 C693.78,236.82 694.62,235.92 695.7,235.92 C696.18,235.92 696.66,236.16 697.14,236.52 C697.5,237 697.74,237.42 697.74,237.9 L697.74,237.9 Z M737.8,230.04 C737.8,229.44 737.56,228.84 737.14,228.3 C736.72,227.82 736.24,227.52 735.7,227.52 C734.8,227.52 733.54,227.76 731.86,228.12 C725.26,229.68 719.38,231.06 714.34,232.26 C713.98,232.38 713.74,232.38 713.62,232.38 C712.42,232.62 711.82,233.52 711.82,235.02 C711.82,236.7 712.48,237.48 713.92,237.48 C715.66,237.12 717.04,236.82 718,236.52 C719.74,236.16 721.24,235.8 722.5,235.56 C722.26,240.18 722.14,244.62 722.14,248.82 C722.14,252.9 722.38,255.72 722.86,257.28 C723.22,258.36 723.94,258.9 725.14,258.9 C726.7,258.9 727.48,257.46 727.48,254.64 C727.48,253.26 727.18,252.24 726.7,251.58 C726.58,250.08 726.52,247.74 726.52,244.5 C726.52,241.98 726.7,238.56 727.18,234.3 C728.92,233.88 730.12,233.58 730.84,233.46 C731.38,233.82 731.8,233.94 732.1,233.94 C732.46,233.94 732.88,233.88 733.42,233.64 L736.18,232.38 C737.26,231.9 737.8,231.12 737.8,230.04 L737.8,230.04 Z M793.86,248.34 C793.86,244.92 790.2,243.06 783,242.76 C788.52,240.3 791.28,237.66 791.28,234.78 C791.28,232.92 790.32,231.48 788.46,230.46 C786.96,229.74 785.16,229.32 783.06,229.32 C780.12,229.32 776.64,229.5 772.62,229.86 C770.82,230.1 769.98,230.82 769.98,232.14 C769.98,233.58 770.76,234.24 772.44,234.24 C772.74,234.24 773.22,234.18 773.88,234.06 C773.76,247.32 773.7,254.16 773.7,254.52 C771.6,254.76 770.58,255.6 770.58,257.16 C770.58,258.24 771.3,258.84 772.86,259.02 C774.12,258.96 775.98,258.66 778.44,258.12 C783,257.04 786.36,255.96 788.4,255 C792,253.32 793.86,251.1 793.86,248.34 L793.86,248.34 Z M786.66,235.32 C786.66,237.06 783.84,238.92 778.2,240.9 L778.32,233.94 C780.54,233.76 782.16,233.64 783.12,233.64 C785.46,233.64 786.66,234.24 786.66,235.32 L786.66,235.32 Z M789.36,248.94 C789.36,249.84 788.34,250.74 786.3,251.58 C784.26,252.42 781.5,253.08 778.08,253.5 L778.08,245.94 C782.04,246.06 784.8,246.36 786.48,246.72 C788.4,247.2 789.36,247.92 789.36,248.94 L789.36,248.94 Z M849.68,232.56 C849.68,231.9 849.38,231.3 848.78,230.82 C848.12,230.4 847.46,230.16 846.8,230.04 C840.68,230.52 835.82,230.94 832.34,231.18 C830.24,231.36 829.22,232.08 829.22,233.4 C829.22,234.24 829.34,234.96 829.7,235.62 C829.28,241.8 829.1,244.92 829.1,245.04 C828.68,249.36 828.5,251.52 828.5,251.52 C828.5,252.3 828.74,253.08 829.28,253.86 C829.82,254.64 830.42,255 831.14,255 C832.34,255 832.94,254.22 833.06,252.6 C833.42,246.12 833.78,240.54 834.26,235.86 C837.32,235.44 840.5,235.14 843.8,235.02 C843.8,235.2 843.68,238.14 843.5,243.78 C843.26,248.82 843.2,251.52 843.2,251.88 C843.2,255.78 844.22,257.76 846.38,257.76 C847.52,257.76 848.12,257.1 848.12,255.9 C847.76,254.1 847.64,252.42 847.64,250.98 C847.64,249.06 847.76,246 848,241.8 C848.06,241.14 848.18,240.18 848.36,238.86 C848.48,237.78 848.54,237.18 848.54,236.94 C848.54,236.58 848.42,236.04 848.3,235.32 C849.2,234.36 849.68,233.46 849.68,232.56 L849.68,232.56 Z M881.64,241.08 C881.64,240.54 881.34,239.94 880.86,239.34 C880.86,237.96 880.62,236.76 880.26,235.68 C880.32,235.44 880.38,235.14 880.38,234.84 C880.38,234.12 879.96,233.4 879.24,232.8 C878.46,232.2 877.68,231.84 876.9,231.84 C873.6,231.84 870,233.76 866.04,237.48 C861.9,241.32 859.86,245.04 859.86,248.52 C859.86,250.38 860.46,252 861.78,253.44 C863.04,254.94 864.54,255.66 866.28,255.66 C868.98,255.66 871.98,253.98 875.34,250.62 C875.64,255.18 876.66,257.52 878.4,257.52 C879,257.52 879.6,257.28 880.14,256.92 C880.62,256.44 880.92,255.84 880.92,255.24 C880.92,255.06 880.74,254.34 880.5,252.9 C880.2,251.52 880.08,250.44 880.08,249.72 C880.08,247.32 880.44,244.92 881.28,242.4 C881.52,241.74 881.64,241.32 881.64,241.08 L881.64,241.08 Z M876.18,239.34 C876.18,241.38 874.98,243.78 872.7,246.54 C870.42,249.3 868.32,250.62 866.52,250.62 C865.26,250.62 864.66,249.9 864.66,248.4 C864.66,246.48 866.16,244.08 869.22,241.14 C871.98,238.5 873.96,237.12 875.1,237.12 C875.82,237.12 876.18,237.9 876.18,239.34 L876.18,239.34 Z M915.88,235.86 C915.88,235.2 915.58,234.66 915.04,234.18 C914.5,233.7 913.9,233.46 913.24,233.46 C912.88,233.46 912.22,233.88 911.14,234.66 C908.2,236.94 905.92,238.68 904.3,240 C902.86,237.96 901.42,236.04 899.92,234.24 C898.42,232.44 897.28,231.54 896.56,231.54 C894.64,231.54 893.74,232.5 893.74,234.36 C893.74,234.84 894.28,235.92 895.42,237.54 C896.38,238.98 897.1,239.94 897.7,240.42 C898,240.78 898.36,241.02 898.84,241.14 C899.44,241.92 899.98,242.58 900.34,243.12 C897.22,245.64 894.94,247.62 893.44,249.06 C891.46,250.92 890.5,252.36 890.5,253.32 C890.5,255 891.34,255.9 893.02,255.9 C893.62,255.9 894.34,255.54 895.06,254.82 C897.22,252.54 899.92,250.14 903.16,247.5 C904.54,249.9 905.8,252.24 906.88,254.64 C907.36,255.66 908.2,256.2 909.34,256.2 C909.88,256.2 910.42,255.96 910.96,255.48 C911.5,255 911.8,254.4 911.8,253.8 C911.8,253.32 911.2,251.94 910.12,249.66 C909.28,247.98 908.26,246.24 907.12,244.32 C910.36,241.8 912.88,239.7 914.68,238.14 C915.46,237.48 915.88,236.7 915.88,235.86 L915.88,235.86 Z M943.82,241.8 C943.82,239.46 943.16,237.3 941.84,235.38 C940.46,233.52 938.72,232.2 936.62,231.48 C935.78,231.24 935.3,231.12 935.18,231.12 C934.7,231.12 934.16,231.42 933.44,231.9 C932.6,232.38 931.94,232.74 931.46,232.92 C929.42,233.94 927.74,235.74 926.54,238.26 C925.34,240.54 924.8,243 924.8,245.58 C924.8,248.64 925.58,251.16 927.26,253.14 C928.94,255.06 931.04,256.08 933.56,256.08 C936.44,256.08 938.9,254.76 940.88,252 C942.8,249.24 943.82,245.88 943.82,241.8 L943.82,241.8 Z M939.08,242.7 C939.08,244.74 938.48,246.6 937.4,248.34 C936.2,250.14 934.94,251.04 933.5,251.04 C932.3,251.04 931.34,250.5 930.62,249.36 C929.84,248.28 929.48,247.02 929.48,245.58 C929.48,243.66 929.9,241.86 930.86,240.18 C931.94,238.26 933.32,237.24 935,237.24 C935.6,237.6 936.38,237.78 937.34,237.78 C938.48,238.5 939.08,240.18 939.08,242.7 L939.08,242.7 Z M977.88,248.34 C977.88,244.92 974.22,243.06 967.02,242.76 C972.54,240.3 975.3,237.66 975.3,234.78 C975.3,232.92 974.34,231.48 972.48,230.46 C970.98,229.74 969.18,229.32 967.08,229.32 C964.14,229.32 960.66,229.5 956.64,229.86 C954.84,230.1 954,230.82 954,232.14 C954,233.58 954.78,234.24 956.46,234.24 C956.76,234.24 957.24,234.18 957.9,234.06 C957.78,247.32 957.72,254.16 957.72,254.52 C955.62,254.76 954.6,255.6 954.6,257.16 C954.6,258.24 955.32,258.84 956.88,259.02 C958.14,258.96 960,258.66 962.46,258.12 C967.02,257.04 970.38,255.96 972.42,255 C976.02,253.32 977.88,251.1 977.88,248.34 L977.88,248.34 Z M970.68,235.32 C970.68,237.06 967.86,238.92 962.22,240.9 L962.34,233.94 C964.56,233.76 966.18,233.64 967.14,233.64 C969.48,233.64 970.68,234.24 970.68,235.32 L970.68,235.32 Z M973.38,248.94 C973.38,249.84 972.36,250.74 970.32,251.58 C968.28,252.42 965.52,253.08 962.1,253.5 L962.1,245.94 C966.06,246.06 968.82,246.36 970.5,246.72 C972.42,247.2 973.38,247.92 973.38,248.94 L973.38,248.94 Z M1009.84,245.16 L1009.84,241.14 C1009.84,236.94 1008.88,234.78 1007.02,234.78 C1006.06,234.78 1005.16,235.62 1004.26,237.18 C1002.4,240.48 1000.96,242.82 999.88,244.14 C998.44,245.94 997.06,246.84 995.74,246.84 C994.78,246.84 994.36,246.3 994.36,245.22 C994.36,244.26 994.54,242.4 994.9,239.64 C995.26,236.88 995.5,235.2 995.5,234.66 C995.5,233.22 995.26,231.9 994.78,230.82 C994.24,229.5 993.46,228.84 992.5,228.84 C990.7,228.84 989.86,229.62 989.86,231.12 C989.86,231.48 989.92,231.96 990.16,232.68 C990.34,233.4 990.46,233.88 990.46,234.24 C990.46,235.44 990.28,237.24 989.98,239.76 C989.68,242.28 989.56,244.2 989.56,245.4 C989.56,247.38 990.1,249 991.24,250.26 C992.32,251.58 993.76,252.18 995.68,252.18 C998.74,252.18 1001.86,249.96 1005.04,245.52 C1005.04,247.56 1004.86,249.48 1004.56,251.34 C1003.12,259.32 997.84,263.34 988.66,263.46 C987.22,263.28 986.14,263.16 985.42,263.1 C983.92,263.16 983.14,263.94 983.14,265.5 C983.14,267.66 985,268.8 988.72,268.8 C994.6,268.8 999.34,267.18 1003.06,264.06 C1007.56,260.22 1009.84,253.98 1009.84,245.16 L1009.84,245.16 Z M1051.04,244.2 C1051.04,240.3 1049.18,237.12 1045.58,234.72 C1044.14,233.76 1042.58,233.28 1040.9,233.28 C1040.3,232.44 1039.28,231.96 1037.78,231.96 C1036.34,231.96 1034.78,233.04 1033.1,235.2 C1031.3,237.54 1030.28,240.06 1029.92,242.82 C1028.3,242.52 1026.8,242.28 1025.48,242.04 C1026.08,238.8 1026.5,236.28 1026.86,234.48 C1027.1,233.64 1027.28,232.92 1027.4,232.44 C1027.4,230.82 1026.62,229.98 1025.06,229.98 C1024.58,229.98 1024.22,230.1 1023.98,230.28 C1023.26,230.76 1022.6,232.5 1022.12,235.5 C1021.76,237.54 1021.46,239.58 1021.22,241.62 C1020.5,241.98 1020.14,242.52 1020.14,243.12 C1020.14,243.42 1020.32,243.96 1020.68,244.74 C1020.2,248.94 1019.96,251.94 1019.96,253.62 C1019.96,254.52 1020.14,255.36 1020.62,256.26 C1021.22,257.34 1022,257.88 1022.9,257.88 C1024.16,257.88 1024.82,257.1 1024.82,255.66 C1024.82,255.3 1024.7,254.94 1024.52,254.46 C1024.28,253.98 1024.22,253.74 1024.22,253.62 C1024.22,251.76 1024.4,249.42 1024.76,246.54 C1025.6,246.66 1026.2,246.66 1026.56,246.66 C1027.28,246.66 1028.36,246.48 1029.86,246 C1030.1,249.36 1031.3,252 1033.46,254.04 C1035.5,256.02 1038.08,257.04 1041.32,257.04 C1043.66,257.04 1045.88,255.72 1047.98,253.08 C1050.02,250.44 1051.04,247.5 1051.04,244.2 L1051.04,244.2 Z M1046.78,242.64 C1046.78,244.32 1046.48,245.7 1046,246.78 C1045.64,247.5 1045.28,248.28 1045.04,249.12 C1044.74,250.08 1044.14,250.86 1043.18,251.52 C1042.22,252.24 1041.26,252.54 1040.3,252.54 C1038.74,252.54 1037.36,251.82 1036.16,250.26 C1034.96,248.76 1034.36,247.08 1034.36,245.16 C1034.36,243.18 1034.84,241.26 1035.92,239.34 C1037,237.42 1038.26,236.28 1039.7,235.8 C1040,236.76 1040.9,237.36 1042.34,237.66 C1043.48,237.9 1044.5,238.56 1045.4,239.52 C1046.3,240.6 1046.78,241.62 1046.78,242.64 L1046.78,242.64 Z M1104.1,241.8 C1104.1,239.46 1103.44,237.3 1102.12,235.38 C1100.74,233.52 1099,232.2 1096.9,231.48 C1096.06,231.24 1095.58,231.12 1095.46,231.12 C1094.98,231.12 1094.44,231.42 1093.72,231.9 C1092.88,232.38 1092.22,232.74 1091.74,232.92 C1089.7,233.94 1088.02,235.74 1086.82,238.26 C1085.62,240.54 1085.08,243 1085.08,245.58 C1085.08,248.64 1085.86,251.16 1087.54,253.14 C1089.22,255.06 1091.32,256.08 1093.84,256.08 C1096.72,256.08 1099.18,254.76 1101.16,252 C1103.08,249.24 1104.1,245.88 1104.1,241.8 L1104.1,241.8 Z M1099.36,242.7 C1099.36,244.74 1098.76,246.6 1097.68,248.34 C1096.48,250.14 1095.22,251.04 1093.78,251.04 C1092.58,251.04 1091.62,250.5 1090.9,249.36 C1090.12,248.28 1089.76,247.02 1089.76,245.58 C1089.76,243.66 1090.18,241.86 1091.14,240.18 C1092.22,238.26 1093.6,237.24 1095.28,237.24 C1095.88,237.6 1096.66,237.78 1097.62,237.78 C1098.76,238.5 1099.36,240.18 1099.36,242.7 L1099.36,242.7 Z M1138.76,244.02 C1138.76,240.72 1137.92,238.02 1136.36,235.92 C1134.56,233.58 1132.1,232.38 1128.92,232.38 C1126.04,232.38 1122.86,233.88 1119.5,236.82 C1120.46,230.7 1124.54,226.38 1131.86,223.98 C1133.96,223.26 1135.04,222.24 1135.04,220.8 C1135.04,219.78 1134.68,218.7 1134.08,217.56 C1133.36,216.48 1132.58,215.88 1131.74,215.88 C1130.96,215.88 1130.54,216.42 1130.48,217.44 C1130.36,218.64 1130.3,219.24 1130.24,219.36 C1130.06,219.66 1129.46,220.02 1128.44,220.44 C1118.96,224.28 1114.28,231.42 1114.28,241.92 C1114.28,246.42 1115.18,250.08 1117.1,252.96 C1119.2,255.96 1122.14,257.52 1125.92,257.52 C1129.28,257.52 1132.22,256.2 1134.86,253.62 C1137.44,250.98 1138.76,247.8 1138.76,244.02 L1138.76,244.02 Z M1134.44,242.64 C1134.44,245.52 1133.6,247.92 1131.98,249.96 C1130.3,252 1128.2,253.02 1125.8,253.02 C1123.88,253.02 1122.26,252.18 1121.06,250.38 C1119.86,248.58 1119.26,246.36 1119.26,243.66 C1119.26,243.36 1119.26,242.94 1119.32,242.34 C1120.82,242.16 1121.66,241.5 1121.84,240.42 C1124.6,238.14 1127.12,236.94 1129.28,236.94 C1130.6,236.94 1131.8,237.54 1132.88,238.62 C1133.9,239.82 1134.44,241.14 1134.44,242.64 L1134.44,242.64 Z M1173.12,233.76 C1173.12,232.86 1172.82,232.08 1172.22,231.36 C1171.68,230.7 1171.02,230.34 1170.18,230.34 C1169.82,230.34 1169.1,230.7 1168.02,231.3 C1166.94,231.96 1164.3,232.5 1160.04,232.98 C1159.08,232.2 1158.3,231.78 1157.76,231.78 C1157.1,231.78 1156.38,232.14 1155.66,232.86 C1154.94,233.58 1154.58,234.36 1154.58,235.08 C1154.58,235.56 1154.82,236.16 1155.3,236.82 C1155.72,237.54 1155.96,238.32 1155.96,239.22 C1155.96,242.94 1155.66,246 1155.06,248.52 C1154.28,251.46 1153.26,252.9 1152.06,252.9 C1151.58,252.9 1151.22,252.18 1151.1,250.62 C1150.98,250.02 1150.74,249.66 1150.26,249.66 C1149.42,249.66 1148.82,250.08 1148.4,250.8 C1147.86,251.64 1147.62,252.6 1147.62,253.62 C1147.62,254.76 1148.04,255.6 1148.94,256.26 C1149.78,256.86 1150.74,257.22 1151.82,257.22 C1154.94,257.22 1157.16,255.18 1158.48,251.22 C1159.32,248.7 1160.04,244.14 1160.64,237.54 C1162.14,237.18 1164.42,236.7 1167.54,236.16 C1166.94,242.04 1166.64,246.48 1166.64,249.48 C1166.64,253.44 1166.88,255.9 1167.42,256.92 C1167.96,257.94 1168.74,258.48 1169.7,258.48 C1171.26,258.48 1172.04,257.52 1172.04,255.72 C1171.8,254.64 1171.68,253.68 1171.56,252.84 C1171.26,250.8 1171.14,249.06 1171.14,247.56 C1171.14,244.32 1171.62,240.54 1172.64,236.22 C1172.94,234.78 1173.12,234 1173.12,233.76 L1173.12,233.76 Z M1205.02,241.08 C1205.02,240.54 1204.72,239.94 1204.24,239.34 C1204.24,237.96 1204,236.76 1203.64,235.68 C1203.7,235.44 1203.76,235.14 1203.76,234.84 C1203.76,234.12 1203.34,233.4 1202.62,232.8 C1201.84,232.2 1201.06,231.84 1200.28,231.84 C1196.98,231.84 1193.38,233.76 1189.42,237.48 C1185.28,241.32 1183.24,245.04 1183.24,248.52 C1183.24,250.38 1183.84,252 1185.16,253.44 C1186.42,254.94 1187.92,255.66 1189.66,255.66 C1192.36,255.66 1195.36,253.98 1198.72,250.62 C1199.02,255.18 1200.04,257.52 1201.78,257.52 C1202.38,257.52 1202.98,257.28 1203.52,256.92 C1204,256.44 1204.3,255.84 1204.3,255.24 C1204.3,255.06 1204.12,254.34 1203.88,252.9 C1203.58,251.52 1203.46,250.44 1203.46,249.72 C1203.46,247.32 1203.82,244.92 1204.66,242.4 C1204.9,241.74 1205.02,241.32 1205.02,241.08 L1205.02,241.08 Z M1199.56,239.34 C1199.56,241.38 1198.36,243.78 1196.08,246.54 C1193.8,249.3 1191.7,250.62 1189.9,250.62 C1188.64,250.62 1188.04,249.9 1188.04,248.4 C1188.04,246.48 1189.54,244.08 1192.6,241.14 C1195.36,238.5 1197.34,237.12 1198.48,237.12 C1199.2,237.12 1199.56,237.9 1199.56,239.34 L1199.56,239.34 Z M1233.68,249.48 C1233.68,248.88 1233.44,248.28 1232.96,247.68 C1232.48,247.2 1231.94,246.9 1231.34,246.9 C1230.86,246.9 1230.14,247.32 1229.3,248.1 C1228.58,248.7 1227.86,249.3 1227.26,249.9 C1226.24,250.68 1224.98,251.04 1223.48,251.04 C1221.08,251.04 1219.94,249.6 1219.94,246.6 C1219.94,244.74 1220.48,242.88 1221.56,241.08 C1222.64,239.28 1223.96,237.78 1225.58,236.7 C1226.3,237.12 1227.38,237.3 1228.88,237.3 C1229.66,237.3 1230.44,237 1231.22,236.28 C1231.88,235.56 1232.24,234.9 1232.24,234.18 C1232.24,233.22 1231.88,232.5 1231.16,231.9 C1230.38,231.36 1229.54,231.06 1228.64,231.06 C1224.86,231.06 1221.5,233.04 1218.62,236.94 C1216.28,240.06 1215.14,243.48 1215.14,247.2 C1215.14,249.84 1215.98,251.94 1217.66,253.62 C1219.34,255.24 1221.44,256.08 1223.96,256.08 C1226.24,256.08 1228.58,255.18 1230.86,253.38 C1232.72,251.94 1233.68,250.68 1233.68,249.48 L1233.68,249.48 Z M1267.32,230.04 C1267.32,229.44 1267.08,228.84 1266.66,228.3 C1266.24,227.82 1265.76,227.52 1265.22,227.52 C1264.32,227.52 1263.06,227.76 1261.38,228.12 C1254.78,229.68 1248.9,231.06 1243.86,232.26 C1243.5,232.38 1243.26,232.38 1243.14,232.38 C1241.94,232.62 1241.34,233.52 1241.34,235.02 C1241.34,236.7 1242,237.48 1243.44,237.48 C1245.18,237.12 1246.56,236.82 1247.52,236.52 C1249.26,236.16 1250.76,235.8 1252.02,235.56 C1251.78,240.18 1251.66,244.62 1251.66,248.82 C1251.66,252.9 1251.9,255.72 1252.38,257.28 C1252.74,258.36 1253.46,258.9 1254.66,258.9 C1256.22,258.9 1257,257.46 1257,254.64 C1257,253.26 1256.7,252.24 1256.22,251.58 C1256.1,250.08 1256.04,247.74 1256.04,244.5 C1256.04,241.98 1256.22,238.56 1256.7,234.3 C1258.44,233.88 1259.64,233.58 1260.36,233.46 C1260.9,233.82 1261.32,233.94 1261.62,233.94 C1261.98,233.94 1262.4,233.88 1262.94,233.64 L1265.7,232.38 C1266.78,231.9 1267.32,231.12 1267.32,230.04 L1267.32,230.04 Z M1293.16,247.74 C1293.16,245.28 1292.32,243.3 1290.7,241.8 C1289.2,240.42 1287.28,239.7 1284.88,239.7 C1283.56,239.7 1282.24,240.06 1280.92,240.78 C1281.16,238.56 1281.34,236.58 1281.52,234.9 C1281.82,232.98 1282,231.48 1282.12,230.4 C1281.88,228.66 1281.16,227.76 1279.84,227.76 C1278.28,227.76 1277.44,228.96 1277.26,231.3 C1276.3,240.78 1275.58,248.82 1274.98,255.42 C1275.04,257.52 1275.82,258.6 1277.38,258.6 C1278.34,258.6 1279,258.18 1279.36,257.4 C1280.02,257.58 1280.62,257.7 1281.22,257.7 C1283.86,257.7 1286.44,256.74 1288.96,254.88 C1291.72,252.84 1293.16,250.5 1293.16,247.74 L1293.16,247.74 Z M1288.6,247.02 C1288.6,248.82 1287.64,250.44 1285.84,251.82 C1284.16,253.14 1282.54,253.8 1280.98,253.8 C1280.74,253.8 1280.32,253.74 1279.84,253.62 L1280.38,246.72 C1281.46,244.92 1282.9,243.96 1284.76,243.96 C1285.72,243.96 1286.56,244.26 1287.4,244.86 C1288.18,245.46 1288.6,246.18 1288.6,247.02 L1288.6,247.02 Z M1327.46,223.26 C1327.46,220.2 1326.32,217.8 1324.04,216.06 C1322,214.5 1319.24,213.66 1315.88,213.66 C1314.5,213.66 1312.88,213.9 1311.08,214.32 C1310.06,214.02 1309.52,213.84 1309.46,213.84 C1308.74,213.84 1308.02,214.2 1307.24,214.8 C1306.52,215.46 1306.16,216.12 1306.16,216.84 C1306.16,217.68 1306.4,218.34 1306.88,218.82 C1307.36,219.42 1307.96,219.66 1308.8,219.66 C1308.98,219.66 1309.58,219.6 1310.54,219.36 C1313.42,218.88 1314.98,218.58 1315.22,218.58 C1320.14,218.58 1322.66,220.14 1322.66,223.2 C1322.66,225.48 1321.28,227.46 1318.58,229.02 C1316.24,230.4 1313.48,231.24 1310.3,231.6 C1308.38,231.84 1307.48,232.68 1307.48,234.06 C1307.48,234.36 1307.66,235.02 1308.08,236.1 C1308.92,238.68 1309.46,241.2 1309.76,243.66 C1309.94,245.34 1310.72,246.12 1312.1,246.12 C1313.66,246.12 1314.5,245.28 1314.5,243.48 C1314.5,241.62 1314.02,239.04 1313.12,235.8 C1316.9,235.2 1320.2,233.82 1322.96,231.66 C1325.96,229.26 1327.46,226.5 1327.46,223.26 L1327.46,223.26 Z M1315.7,254.16 C1315.7,253.2 1315.34,252.42 1314.68,251.82 C1313.9,251.34 1313.06,251.04 1312.22,251.04 C1311.2,251.04 1310.42,251.46 1309.82,252.24 C1309.22,252.96 1308.92,253.86 1308.92,254.88 C1308.92,255.78 1309.16,256.56 1309.7,257.22 C1310.24,257.82 1310.84,258.18 1311.5,258.18 C1312.88,258.18 1313.96,257.82 1314.68,257.1 C1315.34,256.32 1315.7,255.36 1315.7,254.16 L1315.7,254.16 Z" id="Иногда-стреляет-в-па"></path>
        </g>
    </g>
</svg>