<?xml version="1.0" encoding="UTF-8"?>
<svg width="761px" height="112px" viewBox="0 0 761 112" version="1.1" xmlns="http://www.w3.org/2000/svg" xmlns:xlink="http://www.w3.org/1999/xlink">
    <!-- Generator: Sketch 40.3 (33839) - http://www.bohemiancoding.com/sketch -->
    <title>С темной или мутной</title>
    <desc>Created with Sketch.</desc>
    <defs></defs>
    <g id="Page-1" stroke="none" stroke-width="1" fill="none" fill-rule="evenodd">
        <g id="1600--copy-7" transform="translate(-755.000000, -99.000000)" fill="#FFFFFF">
            <path d="M782.61,136.66 C782.61,136 782.31,135.34 781.71,134.74 C781.11,134.14 780.51,133.84 779.91,133.84 C779.61,133.84 778.83,134.26 777.63,134.98 C773.85,137.2 770.49,138.28 767.61,138.28 C763.05,138.28 760.77,135.1 760.77,128.62 C760.77,123.4 762.03,118.12 764.61,112.84 C767.19,107.62 769.83,104.98 772.47,104.98 C773.79,104.98 775.11,105.76 776.43,107.2 C777.75,108.7 778.71,109.42 779.43,109.42 C780.15,109.42 780.81,109.18 781.41,108.64 C781.89,108.16 782.19,107.5 782.19,106.72 C782.19,105.88 781.71,104.92 780.87,103.84 C780.03,102.76 778.89,101.74 777.51,100.84 C775.95,99.88 774.51,99.4 773.25,99.4 C768.21,99.4 763.83,102.76 760.23,109.48 C757.05,115.48 755.49,121.66 755.49,128.08 C755.49,132.58 756.39,136.24 758.19,139 C760.35,142.12 763.47,143.74 767.55,143.74 C768.99,143.74 771.03,143.38 773.61,142.66 C776.31,141.88 778.47,140.98 780.15,139.9 C781.77,138.88 782.61,137.8 782.61,136.66 L782.61,136.66 Z M841.43,117.04 C841.43,116.44 841.19,115.84 840.77,115.3 C840.35,114.82 839.87,114.52 839.33,114.52 C838.43,114.52 837.17,114.76 835.49,115.12 C828.89,116.68 823.01,118.06 817.97,119.26 C817.61,119.38 817.37,119.38 817.25,119.38 C816.05,119.62 815.45,120.52 815.45,122.02 C815.45,123.7 816.11,124.48 817.55,124.48 C819.29,124.12 820.67,123.82 821.63,123.52 C823.37,123.16 824.87,122.8 826.13,122.56 C825.89,127.18 825.77,131.62 825.77,135.82 C825.77,139.9 826.01,142.72 826.49,144.28 C826.85,145.36 827.57,145.9 828.77,145.9 C830.33,145.9 831.11,144.46 831.11,141.64 C831.11,140.26 830.81,139.24 830.33,138.58 C830.21,137.08 830.15,134.74 830.15,131.5 C830.15,128.98 830.33,125.56 830.81,121.3 C832.55,120.88 833.75,120.58 834.47,120.46 C835.01,120.82 835.43,120.94 835.73,120.94 C836.09,120.94 836.51,120.88 837.05,120.64 L839.81,119.38 C840.89,118.9 841.43,118.12 841.43,117.04 L841.43,117.04 Z M872.91,140.92 C872.91,140.32 872.67,139.72 872.19,139.12 C871.71,138.64 871.11,138.34 870.51,138.34 C870.03,138.34 869.25,138.46 868.23,138.58 C867.21,138.7 866.43,138.76 865.95,138.76 C864.15,138.76 862.59,137.92 861.15,136.18 C867.15,132.94 870.15,129.1 870.15,124.66 C870.15,122.98 869.43,121.36 867.99,119.92 C866.55,118.48 865.11,117.76 863.61,117.76 C861.03,117.76 858.93,119.26 857.25,122.2 C855.81,124.72 855.09,127.42 855.09,130.3 C855.09,130.9 855.15,131.74 855.33,132.76 L853.95,132.76 C853.11,132.76 852.33,132.46 851.49,131.86 C850.65,131.26 850.05,130.96 849.69,130.96 C848.13,130.96 847.35,131.8 847.35,133.48 C847.35,134.8 848.31,135.88 850.35,136.72 C851.91,137.38 853.41,137.68 854.97,137.68 L856.77,137.68 C858.93,141.82 862.29,143.86 866.85,143.86 C870.87,143.86 872.91,142.84 872.91,140.92 L872.91,140.92 Z M865.41,124.9 C865.41,126.88 863.61,129.04 860.01,131.38 L860.01,130.3 C860.01,128.68 860.25,127.12 860.85,125.62 C861.45,123.82 862.29,122.92 863.37,122.92 C863.85,122.92 864.33,123.16 864.81,123.52 C865.17,124 865.41,124.42 865.41,124.9 L865.41,124.9 Z M907.57,144.46 C907.57,143.92 907.39,143.32 907.03,142.6 C906.67,141.88 906.25,141.4 905.83,141.04 C904.87,139 904.03,135.28 903.31,129.94 C902.83,127.18 902.47,124.12 902.11,120.88 C901.93,119.62 901.21,118.96 899.95,118.96 C898.81,118.96 897.31,121.42 895.45,126.34 C894.79,128.02 894.25,129.46 893.77,130.78 C892.15,128.38 890.71,124.78 889.39,119.86 C888.91,118.06 888.19,117.16 887.29,117.16 C886.15,117.16 885.13,118.54 884.23,121.24 C884.05,121.24 883.81,121.18 883.51,121.18 C883.09,121.18 882.73,121.36 882.49,121.66 C882.13,122.02 881.95,122.44 881.95,122.86 C881.95,122.98 881.95,123.34 882.01,123.94 C882.01,124.6 882.07,124.96 882.07,125.08 C882.07,126.16 881.95,127.66 881.71,129.7 C881.47,131.74 881.35,134.02 881.35,136.48 C881.35,140.5 882.13,142.48 883.75,142.48 C884.95,142.48 885.55,141.16 885.67,138.46 C885.85,133.18 886.33,128.8 887.05,125.32 C890.23,133 892.75,136.84 894.55,136.84 C895.15,136.84 895.57,136.6 895.93,136 C896.23,135.52 896.59,134.44 897.07,132.88 C897.85,130.24 898.51,128.14 899.05,126.7 C899.65,133.36 900.49,138.28 901.63,141.46 C902.89,145.12 904.21,146.98 905.53,146.98 C906.01,146.98 906.49,146.68 906.91,146.14 C907.33,145.54 907.57,145 907.57,144.46 L907.57,144.46 Z M935.81,119.8 C935.81,118.24 935.09,117.46 933.65,117.46 C932.45,117.46 931.67,118.54 931.37,120.58 C931.07,122.2 930.71,124.48 930.35,127.42 C927.71,128.08 925.13,128.56 922.61,128.8 C923.21,124.96 923.81,122.08 924.41,120.1 C924.77,119.02 925.07,118.18 925.37,117.46 C925.25,115.84 924.53,115 923.09,115 C922.07,115 921.41,115.48 921.05,116.44 C919.85,119.32 918.89,123.46 918.29,128.86 C917.33,128.86 916.67,128.8 916.31,128.74 C915.11,128.74 914.57,129.46 914.57,130.78 C914.57,132.28 915.41,133 917.15,133 L917.87,133 C917.69,135.28 917.51,137.86 917.39,140.86 C917.39,141.04 917.33,141.34 917.27,141.7 C917.15,142.06 917.15,142.3 917.15,142.54 C917.15,143.14 917.39,143.68 917.87,144.16 C918.35,144.64 918.89,144.88 919.49,144.88 C920.93,144.88 921.71,144.1 921.77,142.6 C921.77,140.56 921.95,137.32 922.25,132.88 C924.83,132.64 927.35,132.22 929.87,131.62 C929.57,134.8 929.39,137.32 929.39,139.12 C929.39,139.3 929.33,139.54 929.27,139.9 C929.15,140.2 929.09,140.44 929.09,140.62 C929.09,142.06 929.27,143.14 929.75,143.86 C930.23,144.64 930.77,145.06 931.49,145.06 C932.09,145.06 932.63,144.82 933.11,144.34 C933.53,143.86 933.77,143.26 933.77,142.6 C933.77,142.48 933.71,142.18 933.71,141.58 C933.65,140.98 933.65,140.5 933.65,140.26 C933.65,136.24 934.25,130.06 935.57,121.72 C935.69,120.64 935.81,120.04 935.81,119.8 L935.81,119.8 Z M964.95,128.8 C964.95,126.46 964.29,124.3 962.97,122.38 C961.59,120.52 959.85,119.2 957.75,118.48 C956.91,118.24 956.43,118.12 956.31,118.12 C955.83,118.12 955.29,118.42 954.57,118.9 C953.73,119.38 953.07,119.74 952.59,119.92 C950.55,120.94 948.87,122.74 947.67,125.26 C946.47,127.54 945.93,130 945.93,132.58 C945.93,135.64 946.71,138.16 948.39,140.14 C950.07,142.06 952.17,143.08 954.69,143.08 C957.57,143.08 960.03,141.76 962.01,139 C963.93,136.24 964.95,132.88 964.95,128.8 L964.95,128.8 Z M960.21,129.7 C960.21,131.74 959.61,133.6 958.53,135.34 C957.33,137.14 956.07,138.04 954.63,138.04 C953.43,138.04 952.47,137.5 951.75,136.36 C950.97,135.28 950.61,134.02 950.61,132.58 C950.61,130.66 951.03,128.86 951.99,127.18 C953.07,125.26 954.45,124.24 956.13,124.24 C956.73,124.6 957.51,124.78 958.47,124.78 C959.61,125.5 960.21,127.18 960.21,129.7 L960.21,129.7 Z M992.29,109.12 C992.29,108.34 991.87,107.62 991.09,106.96 C990.19,106.36 989.35,106.06 988.63,106.06 C988.21,106.06 987.91,106.18 987.73,106.42 C988.33,107.5 988.63,108.22 988.63,108.46 C988.63,109.18 988.21,110.02 987.49,110.98 C986.65,112 985.93,112.48 985.33,112.48 C984.97,112.48 984.73,112.06 984.49,111.22 L983.35,107.74 C982.75,106.54 981.79,105.94 980.47,105.94 C980.23,105.94 979.99,106.12 979.75,106.36 C979.45,106.72 979.33,106.96 979.33,107.08 C979.33,108.58 980.29,110.8 982.27,113.74 C983.23,115.18 984.25,115.9 985.39,115.9 C986.65,115.9 988.15,115.12 989.83,113.44 C991.45,111.88 992.29,110.44 992.29,109.12 L992.29,109.12 Z M997.39,142.36 C997.39,141.94 997.09,141.4 996.55,140.8 C995.23,139.36 994.63,135.7 994.63,129.82 C994.63,127.72 994.93,124.18 995.59,119.2 C995.59,118.54 995.29,117.94 994.81,117.34 C994.27,116.8 993.67,116.5 993.01,116.5 C991.99,116.5 989.83,118.72 986.59,123.16 C983.95,126.64 981.79,129.82 979.99,132.58 C980.41,127.9 980.71,124.48 980.89,122.44 C980.89,121.48 980.53,120.64 979.93,119.92 C979.33,119.26 978.55,118.9 977.59,118.9 C977.05,118.9 976.57,119.26 976.09,119.92 C976.21,121.66 976.33,122.68 976.33,122.92 C976.33,124 976.15,126.7 975.85,131.08 L975.73,132.82 C975.67,133.72 975.55,134.92 975.43,136.42 C975.25,137.86 975.13,138.76 975.13,139.12 C975.19,139.96 975.43,140.62 975.91,140.98 C976.87,141.94 977.47,142.36 977.71,142.36 C978.55,142.36 979.57,141.46 980.65,139.54 C982.87,135.82 984.43,133.18 985.39,131.74 C986.95,129.16 988.63,126.76 990.49,124.6 C990.49,125.2 990.43,126.46 990.43,128.32 C990.37,130.24 990.37,131.26 990.37,131.5 C990.37,134.62 990.67,137.26 991.33,139.54 C992.23,142.84 993.55,144.52 995.23,144.52 C995.59,144.52 996.07,144.22 996.61,143.74 C997.09,143.14 997.39,142.72 997.39,142.36 L997.39,142.36 Z M1054.29,142.36 C1054.29,141.94 1053.99,141.4 1053.45,140.8 C1052.13,139.36 1051.53,135.7 1051.53,129.82 C1051.53,127.72 1051.83,124.18 1052.49,119.2 C1052.49,118.54 1052.19,117.94 1051.71,117.34 C1051.17,116.8 1050.57,116.5 1049.91,116.5 C1048.89,116.5 1046.73,118.72 1043.49,123.16 C1040.85,126.64 1038.69,129.82 1036.89,132.58 C1037.31,127.9 1037.61,124.48 1037.79,122.44 C1037.79,121.48 1037.43,120.64 1036.83,119.92 C1036.23,119.26 1035.45,118.9 1034.49,118.9 C1033.95,118.9 1033.47,119.26 1032.99,119.92 C1033.11,121.66 1033.23,122.68 1033.23,122.92 C1033.23,124 1033.05,126.7 1032.75,131.08 L1032.63,132.82 C1032.57,133.72 1032.45,134.92 1032.33,136.42 C1032.15,137.86 1032.03,138.76 1032.03,139.12 C1032.09,139.96 1032.33,140.62 1032.81,140.98 C1033.77,141.94 1034.37,142.36 1034.61,142.36 C1035.45,142.36 1036.47,141.46 1037.55,139.54 C1039.77,135.82 1041.33,133.18 1042.29,131.74 C1043.85,129.16 1045.53,126.76 1047.39,124.6 C1047.39,125.2 1047.33,126.46 1047.33,128.32 C1047.27,130.24 1047.27,131.26 1047.27,131.5 C1047.27,134.62 1047.57,137.26 1048.23,139.54 C1049.13,142.84 1050.45,144.52 1052.13,144.52 C1052.49,144.52 1052.97,144.22 1053.51,143.74 C1053.99,143.14 1054.29,142.72 1054.29,142.36 L1054.29,142.36 Z M1088.65,120.76 C1088.65,119.86 1088.35,119.08 1087.75,118.36 C1087.21,117.7 1086.55,117.34 1085.71,117.34 C1085.35,117.34 1084.63,117.7 1083.55,118.3 C1082.47,118.96 1079.83,119.5 1075.57,119.98 C1074.61,119.2 1073.83,118.78 1073.29,118.78 C1072.63,118.78 1071.91,119.14 1071.19,119.86 C1070.47,120.58 1070.11,121.36 1070.11,122.08 C1070.11,122.56 1070.35,123.16 1070.83,123.82 C1071.25,124.54 1071.49,125.32 1071.49,126.22 C1071.49,129.94 1071.19,133 1070.59,135.52 C1069.81,138.46 1068.79,139.9 1067.59,139.9 C1067.11,139.9 1066.75,139.18 1066.63,137.62 C1066.51,137.02 1066.27,136.66 1065.79,136.66 C1064.95,136.66 1064.35,137.08 1063.93,137.8 C1063.39,138.64 1063.15,139.6 1063.15,140.62 C1063.15,141.76 1063.57,142.6 1064.47,143.26 C1065.31,143.86 1066.27,144.22 1067.35,144.22 C1070.47,144.22 1072.69,142.18 1074.01,138.22 C1074.85,135.7 1075.57,131.14 1076.17,124.54 C1077.67,124.18 1079.95,123.7 1083.07,123.16 C1082.47,129.04 1082.17,133.48 1082.17,136.48 C1082.17,140.44 1082.41,142.9 1082.95,143.92 C1083.49,144.94 1084.27,145.48 1085.23,145.48 C1086.79,145.48 1087.57,144.52 1087.57,142.72 C1087.33,141.64 1087.21,140.68 1087.09,139.84 C1086.79,137.8 1086.67,136.06 1086.67,134.56 C1086.67,131.32 1087.15,127.54 1088.17,123.22 C1088.47,121.78 1088.65,121 1088.65,120.76 L1088.65,120.76 Z M1121.03,142.36 C1121.03,141.94 1120.73,141.4 1120.19,140.8 C1118.87,139.36 1118.27,135.7 1118.27,129.82 C1118.27,127.72 1118.57,124.18 1119.23,119.2 C1119.23,118.54 1118.93,117.94 1118.45,117.34 C1117.91,116.8 1117.31,116.5 1116.65,116.5 C1115.63,116.5 1113.47,118.72 1110.23,123.16 C1107.59,126.64 1105.43,129.82 1103.63,132.58 C1104.05,127.9 1104.35,124.48 1104.53,122.44 C1104.53,121.48 1104.17,120.64 1103.57,119.92 C1102.97,119.26 1102.19,118.9 1101.23,118.9 C1100.69,118.9 1100.21,119.26 1099.73,119.92 C1099.85,121.66 1099.97,122.68 1099.97,122.92 C1099.97,124 1099.79,126.7 1099.49,131.08 L1099.37,132.82 C1099.31,133.72 1099.19,134.92 1099.07,136.42 C1098.89,137.86 1098.77,138.76 1098.77,139.12 C1098.83,139.96 1099.07,140.62 1099.55,140.98 C1100.51,141.94 1101.11,142.36 1101.35,142.36 C1102.19,142.36 1103.21,141.46 1104.29,139.54 C1106.51,135.82 1108.07,133.18 1109.03,131.74 C1110.59,129.16 1112.27,126.76 1114.13,124.6 C1114.13,125.2 1114.07,126.46 1114.07,128.32 C1114.01,130.24 1114.01,131.26 1114.01,131.5 C1114.01,134.62 1114.31,137.26 1114.97,139.54 C1115.87,142.84 1117.19,144.52 1118.87,144.52 C1119.23,144.52 1119.71,144.22 1120.25,143.74 C1120.73,143.14 1121.03,142.72 1121.03,142.36 L1121.03,142.36 Z M1181.89,144.46 C1181.89,143.92 1181.71,143.32 1181.35,142.6 C1180.99,141.88 1180.57,141.4 1180.15,141.04 C1179.19,139 1178.35,135.28 1177.63,129.94 C1177.15,127.18 1176.79,124.12 1176.43,120.88 C1176.25,119.62 1175.53,118.96 1174.27,118.96 C1173.13,118.96 1171.63,121.42 1169.77,126.34 C1169.11,128.02 1168.57,129.46 1168.09,130.78 C1166.47,128.38 1165.03,124.78 1163.71,119.86 C1163.23,118.06 1162.51,117.16 1161.61,117.16 C1160.47,117.16 1159.45,118.54 1158.55,121.24 C1158.37,121.24 1158.13,121.18 1157.83,121.18 C1157.41,121.18 1157.05,121.36 1156.81,121.66 C1156.45,122.02 1156.27,122.44 1156.27,122.86 C1156.27,122.98 1156.27,123.34 1156.33,123.94 C1156.33,124.6 1156.39,124.96 1156.39,125.08 C1156.39,126.16 1156.27,127.66 1156.03,129.7 C1155.79,131.74 1155.67,134.02 1155.67,136.48 C1155.67,140.5 1156.45,142.48 1158.07,142.48 C1159.27,142.48 1159.87,141.16 1159.99,138.46 C1160.17,133.18 1160.65,128.8 1161.37,125.32 C1164.55,133 1167.07,136.84 1168.87,136.84 C1169.47,136.84 1169.89,136.6 1170.25,136 C1170.55,135.52 1170.91,134.44 1171.39,132.88 C1172.17,130.24 1172.83,128.14 1173.37,126.7 C1173.97,133.36 1174.81,138.28 1175.95,141.46 C1177.21,145.12 1178.53,146.98 1179.85,146.98 C1180.33,146.98 1180.81,146.68 1181.23,146.14 C1181.65,145.54 1181.89,145 1181.89,144.46 L1181.89,144.46 Z M1211.99,132.16 L1211.99,128.14 C1211.99,123.94 1211.03,121.78 1209.17,121.78 C1208.21,121.78 1207.31,122.62 1206.41,124.18 C1204.55,127.48 1203.11,129.82 1202.03,131.14 C1200.59,132.94 1199.21,133.84 1197.89,133.84 C1196.93,133.84 1196.51,133.3 1196.51,132.22 C1196.51,131.26 1196.69,129.4 1197.05,126.64 C1197.41,123.88 1197.65,122.2 1197.65,121.66 C1197.65,120.22 1197.41,118.9 1196.93,117.82 C1196.39,116.5 1195.61,115.84 1194.65,115.84 C1192.85,115.84 1192.01,116.62 1192.01,118.12 C1192.01,118.48 1192.07,118.96 1192.31,119.68 C1192.49,120.4 1192.61,120.88 1192.61,121.24 C1192.61,122.44 1192.43,124.24 1192.13,126.76 C1191.83,129.28 1191.71,131.2 1191.71,132.4 C1191.71,134.38 1192.25,136 1193.39,137.26 C1194.47,138.58 1195.91,139.18 1197.83,139.18 C1200.89,139.18 1204.01,136.96 1207.19,132.52 C1207.19,134.56 1207.01,136.48 1206.71,138.34 C1205.27,146.32 1199.99,150.34 1190.81,150.46 C1189.37,150.28 1188.29,150.16 1187.57,150.1 C1186.07,150.16 1185.29,150.94 1185.29,152.5 C1185.29,154.66 1187.15,155.8 1190.87,155.8 C1196.75,155.8 1201.49,154.18 1205.21,151.06 C1209.71,147.22 1211.99,140.98 1211.99,132.16 L1211.99,132.16 Z M1246.23,117.04 C1246.23,116.44 1245.99,115.84 1245.57,115.3 C1245.15,114.82 1244.67,114.52 1244.13,114.52 C1243.23,114.52 1241.97,114.76 1240.29,115.12 C1233.69,116.68 1227.81,118.06 1222.77,119.26 C1222.41,119.38 1222.17,119.38 1222.05,119.38 C1220.85,119.62 1220.25,120.52 1220.25,122.02 C1220.25,123.7 1220.91,124.48 1222.35,124.48 C1224.09,124.12 1225.47,123.82 1226.43,123.52 C1228.17,123.16 1229.67,122.8 1230.93,122.56 C1230.69,127.18 1230.57,131.62 1230.57,135.82 C1230.57,139.9 1230.81,142.72 1231.29,144.28 C1231.65,145.36 1232.37,145.9 1233.57,145.9 C1235.13,145.9 1235.91,144.46 1235.91,141.64 C1235.91,140.26 1235.61,139.24 1235.13,138.58 C1235.01,137.08 1234.95,134.74 1234.95,131.5 C1234.95,128.98 1235.13,125.56 1235.61,121.3 C1237.35,120.88 1238.55,120.58 1239.27,120.46 C1239.81,120.82 1240.23,120.94 1240.53,120.94 C1240.89,120.94 1241.31,120.88 1241.85,120.64 L1244.61,119.38 C1245.69,118.9 1246.23,118.12 1246.23,117.04 L1246.23,117.04 Z M1273.87,119.8 C1273.87,118.24 1273.15,117.46 1271.71,117.46 C1270.51,117.46 1269.73,118.54 1269.43,120.58 C1269.13,122.2 1268.77,124.48 1268.41,127.42 C1265.77,128.08 1263.19,128.56 1260.67,128.8 C1261.27,124.96 1261.87,122.08 1262.47,120.1 C1262.83,119.02 1263.13,118.18 1263.43,117.46 C1263.31,115.84 1262.59,115 1261.15,115 C1260.13,115 1259.47,115.48 1259.11,116.44 C1257.91,119.32 1256.95,123.46 1256.35,128.86 C1255.39,128.86 1254.73,128.8 1254.37,128.74 C1253.17,128.74 1252.63,129.46 1252.63,130.78 C1252.63,132.28 1253.47,133 1255.21,133 L1255.93,133 C1255.75,135.28 1255.57,137.86 1255.45,140.86 C1255.45,141.04 1255.39,141.34 1255.33,141.7 C1255.21,142.06 1255.21,142.3 1255.21,142.54 C1255.21,143.14 1255.45,143.68 1255.93,144.16 C1256.41,144.64 1256.95,144.88 1257.55,144.88 C1258.99,144.88 1259.77,144.1 1259.83,142.6 C1259.83,140.56 1260.01,137.32 1260.31,132.88 C1262.89,132.64 1265.41,132.22 1267.93,131.62 C1267.63,134.8 1267.45,137.32 1267.45,139.12 C1267.45,139.3 1267.39,139.54 1267.33,139.9 C1267.21,140.2 1267.15,140.44 1267.15,140.62 C1267.15,142.06 1267.33,143.14 1267.81,143.86 C1268.29,144.64 1268.83,145.06 1269.55,145.06 C1270.15,145.06 1270.69,144.82 1271.17,144.34 C1271.59,143.86 1271.83,143.26 1271.83,142.6 C1271.83,142.48 1271.77,142.18 1271.77,141.58 C1271.71,140.98 1271.71,140.5 1271.71,140.26 C1271.71,136.24 1272.31,130.06 1273.63,121.72 C1273.75,120.64 1273.87,120.04 1273.87,119.8 L1273.87,119.8 Z M1303.01,128.8 C1303.01,126.46 1302.35,124.3 1301.03,122.38 C1299.65,120.52 1297.91,119.2 1295.81,118.48 C1294.97,118.24 1294.49,118.12 1294.37,118.12 C1293.89,118.12 1293.35,118.42 1292.63,118.9 C1291.79,119.38 1291.13,119.74 1290.65,119.92 C1288.61,120.94 1286.93,122.74 1285.73,125.26 C1284.53,127.54 1283.99,130 1283.99,132.58 C1283.99,135.64 1284.77,138.16 1286.45,140.14 C1288.13,142.06 1290.23,143.08 1292.75,143.08 C1295.63,143.08 1298.09,141.76 1300.07,139 C1301.99,136.24 1303.01,132.88 1303.01,128.8 L1303.01,128.8 Z M1298.27,129.7 C1298.27,131.74 1297.67,133.6 1296.59,135.34 C1295.39,137.14 1294.13,138.04 1292.69,138.04 C1291.49,138.04 1290.53,137.5 1289.81,136.36 C1289.03,135.28 1288.67,134.02 1288.67,132.58 C1288.67,130.66 1289.09,128.86 1290.05,127.18 C1291.13,125.26 1292.51,124.24 1294.19,124.24 C1294.79,124.6 1295.57,124.78 1296.53,124.78 C1297.67,125.5 1298.27,127.18 1298.27,129.7 L1298.27,129.7 Z M1330.35,109.12 C1330.35,108.34 1329.93,107.62 1329.15,106.96 C1328.25,106.36 1327.41,106.06 1326.69,106.06 C1326.27,106.06 1325.97,106.18 1325.79,106.42 C1326.39,107.5 1326.69,108.22 1326.69,108.46 C1326.69,109.18 1326.27,110.02 1325.55,110.98 C1324.71,112 1323.99,112.48 1323.39,112.48 C1323.03,112.48 1322.79,112.06 1322.55,111.22 L1321.41,107.74 C1320.81,106.54 1319.85,105.94 1318.53,105.94 C1318.29,105.94 1318.05,106.12 1317.81,106.36 C1317.51,106.72 1317.39,106.96 1317.39,107.08 C1317.39,108.58 1318.35,110.8 1320.33,113.74 C1321.29,115.18 1322.31,115.9 1323.45,115.9 C1324.71,115.9 1326.21,115.12 1327.89,113.44 C1329.51,111.88 1330.35,110.44 1330.35,109.12 L1330.35,109.12 Z M1335.45,142.36 C1335.45,141.94 1335.15,141.4 1334.61,140.8 C1333.29,139.36 1332.69,135.7 1332.69,129.82 C1332.69,127.72 1332.99,124.18 1333.65,119.2 C1333.65,118.54 1333.35,117.94 1332.87,117.34 C1332.33,116.8 1331.73,116.5 1331.07,116.5 C1330.05,116.5 1327.89,118.72 1324.65,123.16 C1322.01,126.64 1319.85,129.82 1318.05,132.58 C1318.47,127.9 1318.77,124.48 1318.95,122.44 C1318.95,121.48 1318.59,120.64 1317.99,119.92 C1317.39,119.26 1316.61,118.9 1315.65,118.9 C1315.11,118.9 1314.63,119.26 1314.15,119.92 C1314.27,121.66 1314.39,122.68 1314.39,122.92 C1314.39,124 1314.21,126.7 1313.91,131.08 L1313.79,132.82 C1313.73,133.72 1313.61,134.92 1313.49,136.42 C1313.31,137.86 1313.19,138.76 1313.19,139.12 C1313.25,139.96 1313.49,140.62 1313.97,140.98 C1314.93,141.94 1315.53,142.36 1315.77,142.36 C1316.61,142.36 1317.63,141.46 1318.71,139.54 C1320.93,135.82 1322.49,133.18 1323.45,131.74 C1325.01,129.16 1326.69,126.76 1328.55,124.6 C1328.55,125.2 1328.49,126.46 1328.49,128.32 C1328.43,130.24 1328.43,131.26 1328.43,131.5 C1328.43,134.62 1328.73,137.26 1329.39,139.54 C1330.29,142.84 1331.61,144.52 1333.29,144.52 C1333.65,144.52 1334.13,144.22 1334.67,143.74 C1335.15,143.14 1335.45,142.72 1335.45,142.36 L1335.45,142.36 Z M1396.31,144.46 C1396.31,143.92 1396.13,143.32 1395.77,142.6 C1395.41,141.88 1394.99,141.4 1394.57,141.04 C1393.61,139 1392.77,135.28 1392.05,129.94 C1391.57,127.18 1391.21,124.12 1390.85,120.88 C1390.67,119.62 1389.95,118.96 1388.69,118.96 C1387.55,118.96 1386.05,121.42 1384.19,126.34 C1383.53,128.02 1382.99,129.46 1382.51,130.78 C1380.89,128.38 1379.45,124.78 1378.13,119.86 C1377.65,118.06 1376.93,117.16 1376.03,117.16 C1374.89,117.16 1373.87,118.54 1372.97,121.24 C1372.79,121.24 1372.55,121.18 1372.25,121.18 C1371.83,121.18 1371.47,121.36 1371.23,121.66 C1370.87,122.02 1370.69,122.44 1370.69,122.86 C1370.69,122.98 1370.69,123.34 1370.75,123.94 C1370.75,124.6 1370.81,124.96 1370.81,125.08 C1370.81,126.16 1370.69,127.66 1370.45,129.7 C1370.21,131.74 1370.09,134.02 1370.09,136.48 C1370.09,140.5 1370.87,142.48 1372.49,142.48 C1373.69,142.48 1374.29,141.16 1374.41,138.46 C1374.59,133.18 1375.07,128.8 1375.79,125.32 C1378.97,133 1381.49,136.84 1383.29,136.84 C1383.89,136.84 1384.31,136.6 1384.67,136 C1384.97,135.52 1385.33,134.44 1385.81,132.88 C1386.59,130.24 1387.25,128.14 1387.79,126.7 C1388.39,133.36 1389.23,138.28 1390.37,141.46 C1391.63,145.12 1392.95,146.98 1394.27,146.98 C1394.75,146.98 1395.23,146.68 1395.65,146.14 C1396.07,145.54 1396.31,145 1396.31,144.46 L1396.31,144.46 Z M1423.59,128.8 C1423.59,126.46 1422.93,124.3 1421.61,122.38 C1420.23,120.52 1418.49,119.2 1416.39,118.48 C1415.55,118.24 1415.07,118.12 1414.95,118.12 C1414.47,118.12 1413.93,118.42 1413.21,118.9 C1412.37,119.38 1411.71,119.74 1411.23,119.92 C1409.19,120.94 1407.51,122.74 1406.31,125.26 C1405.11,127.54 1404.57,130 1404.57,132.58 C1404.57,135.64 1405.35,138.16 1407.03,140.14 C1408.71,142.06 1410.81,143.08 1413.33,143.08 C1416.21,143.08 1418.67,141.76 1420.65,139 C1422.57,136.24 1423.59,132.88 1423.59,128.8 L1423.59,128.8 Z M1418.85,129.7 C1418.85,131.74 1418.25,133.6 1417.17,135.34 C1415.97,137.14 1414.71,138.04 1413.27,138.04 C1412.07,138.04 1411.11,137.5 1410.39,136.36 C1409.61,135.28 1409.25,134.02 1409.25,132.58 C1409.25,130.66 1409.67,128.86 1410.63,127.18 C1411.71,125.26 1413.09,124.24 1414.77,124.24 C1415.37,124.6 1416.15,124.78 1417.11,124.78 C1418.25,125.5 1418.85,127.18 1418.85,129.7 L1418.85,129.7 Z M1453.93,119.2 C1453.87,118.54 1453.63,117.88 1453.15,117.28 C1452.67,116.68 1452.13,116.38 1451.53,116.38 C1449.91,116.38 1449.07,117.28 1449.01,119.02 C1449.01,119.26 1449.01,120.04 1449.07,121.3 C1449.07,122.68 1449.13,123.46 1449.13,123.7 C1449.13,126.04 1448.35,128.2 1446.85,130.24 C1445.29,132.28 1443.55,133.24 1441.69,133.24 C1439.35,133.24 1438.21,131.56 1438.21,128.08 C1438.21,126.76 1438.45,123.76 1439.05,119.08 C1438.87,117.4 1438.15,116.5 1436.95,116.5 C1435.27,116.5 1434.31,118.12 1433.95,121.3 C1433.83,122.2 1433.77,124.42 1433.77,128.02 C1433.77,134.38 1436.29,137.56 1441.39,137.56 C1442.83,137.56 1444.33,137.2 1445.77,136.36 C1447.21,135.58 1448.35,134.5 1449.07,133.18 C1448.95,135.58 1448.83,137.56 1448.71,139.06 C1448.47,141.52 1448.41,143.26 1448.41,144.46 C1448.41,146.08 1449.07,146.92 1450.51,146.92 C1452.07,146.92 1452.91,146.08 1452.97,144.4 C1453.03,140.5 1453.21,134.74 1453.57,127.18 C1453.69,123.22 1453.81,120.58 1453.93,119.2 L1453.93,119.2 Z M1483.07,128.8 C1483.07,126.46 1482.41,124.3 1481.09,122.38 C1479.71,120.52 1477.97,119.2 1475.87,118.48 C1475.03,118.24 1474.55,118.12 1474.43,118.12 C1473.95,118.12 1473.41,118.42 1472.69,118.9 C1471.85,119.38 1471.19,119.74 1470.71,119.92 C1468.67,120.94 1466.99,122.74 1465.79,125.26 C1464.59,127.54 1464.05,130 1464.05,132.58 C1464.05,135.64 1464.83,138.16 1466.51,140.14 C1468.19,142.06 1470.29,143.08 1472.81,143.08 C1475.69,143.08 1478.15,141.76 1480.13,139 C1482.05,136.24 1483.07,132.88 1483.07,128.8 L1483.07,128.8 Z M1478.33,129.7 C1478.33,131.74 1477.73,133.6 1476.65,135.34 C1475.45,137.14 1474.19,138.04 1472.75,138.04 C1471.55,138.04 1470.59,137.5 1469.87,136.36 C1469.09,135.28 1468.73,134.02 1468.73,132.58 C1468.73,130.66 1469.15,128.86 1470.11,127.18 C1471.19,125.26 1472.57,124.24 1474.25,124.24 C1474.85,124.6 1475.63,124.78 1476.59,124.78 C1477.73,125.5 1478.33,127.18 1478.33,129.7 L1478.33,129.7 Z M1510.41,109.12 C1510.41,108.34 1509.99,107.62 1509.21,106.96 C1508.31,106.36 1507.47,106.06 1506.75,106.06 C1506.33,106.06 1506.03,106.18 1505.85,106.42 C1506.45,107.5 1506.75,108.22 1506.75,108.46 C1506.75,109.18 1506.33,110.02 1505.61,110.98 C1504.77,112 1504.05,112.48 1503.45,112.48 C1503.09,112.48 1502.85,112.06 1502.61,111.22 L1501.47,107.74 C1500.87,106.54 1499.91,105.94 1498.59,105.94 C1498.35,105.94 1498.11,106.12 1497.87,106.36 C1497.57,106.72 1497.45,106.96 1497.45,107.08 C1497.45,108.58 1498.41,110.8 1500.39,113.74 C1501.35,115.18 1502.37,115.9 1503.51,115.9 C1504.77,115.9 1506.27,115.12 1507.95,113.44 C1509.57,111.88 1510.41,110.44 1510.41,109.12 L1510.41,109.12 Z M1515.51,142.36 C1515.51,141.94 1515.21,141.4 1514.67,140.8 C1513.35,139.36 1512.75,135.7 1512.75,129.82 C1512.75,127.72 1513.05,124.18 1513.71,119.2 C1513.71,118.54 1513.41,117.94 1512.93,117.34 C1512.39,116.8 1511.79,116.5 1511.13,116.5 C1510.11,116.5 1507.95,118.72 1504.71,123.16 C1502.07,126.64 1499.91,129.82 1498.11,132.58 C1498.53,127.9 1498.83,124.48 1499.01,122.44 C1499.01,121.48 1498.65,120.64 1498.05,119.92 C1497.45,119.26 1496.67,118.9 1495.71,118.9 C1495.17,118.9 1494.69,119.26 1494.21,119.92 C1494.33,121.66 1494.45,122.68 1494.45,122.92 C1494.45,124 1494.27,126.7 1493.97,131.08 L1493.85,132.82 C1493.79,133.72 1493.67,134.92 1493.55,136.42 C1493.37,137.86 1493.25,138.76 1493.25,139.12 C1493.31,139.96 1493.55,140.62 1494.03,140.98 C1494.99,141.94 1495.59,142.36 1495.83,142.36 C1496.67,142.36 1497.69,141.46 1498.77,139.54 C1500.99,135.82 1502.55,133.18 1503.51,131.74 C1505.07,129.16 1506.75,126.76 1508.61,124.6 C1508.61,125.2 1508.55,126.46 1508.55,128.32 C1508.49,130.24 1508.49,131.26 1508.49,131.5 C1508.49,134.62 1508.79,137.26 1509.45,139.54 C1510.35,142.84 1511.67,144.52 1513.35,144.52 C1513.71,144.52 1514.19,144.22 1514.73,143.74 C1515.21,143.14 1515.51,142.72 1515.51,142.36 L1515.51,142.36 Z M953.07,201.48 C953.07,200.88 952.83,200.28 952.35,199.68 C951.87,199.2 951.33,198.9 950.73,198.9 C950.25,198.9 949.53,199.32 948.69,200.1 C947.97,200.7 947.25,201.3 946.65,201.9 C945.63,202.68 944.37,203.04 942.87,203.04 C940.47,203.04 939.33,201.6 939.33,198.6 C939.33,196.74 939.87,194.88 940.95,193.08 C942.03,191.28 943.35,189.78 944.97,188.7 C945.69,189.12 946.77,189.3 948.27,189.3 C949.05,189.3 949.83,189 950.61,188.28 C951.27,187.56 951.63,186.9 951.63,186.18 C951.63,185.22 951.27,184.5 950.55,183.9 C949.77,183.36 948.93,183.06 948.03,183.06 C944.25,183.06 940.89,185.04 938.01,188.94 C935.67,192.06 934.53,195.48 934.53,199.2 C934.53,201.84 935.37,203.94 937.05,205.62 C938.73,207.24 940.83,208.08 943.35,208.08 C945.63,208.08 947.97,207.18 950.25,205.38 C952.11,203.94 953.07,202.68 953.07,201.48 L953.07,201.48 Z M986.71,182.04 C986.71,181.44 986.47,180.84 986.05,180.3 C985.63,179.82 985.15,179.52 984.61,179.52 C983.71,179.52 982.45,179.76 980.77,180.12 C974.17,181.68 968.29,183.06 963.25,184.26 C962.89,184.38 962.65,184.38 962.53,184.38 C961.33,184.62 960.73,185.52 960.73,187.02 C960.73,188.7 961.39,189.48 962.83,189.48 C964.57,189.12 965.95,188.82 966.91,188.52 C968.65,188.16 970.15,187.8 971.41,187.56 C971.17,192.18 971.05,196.62 971.05,200.82 C971.05,204.9 971.29,207.72 971.77,209.28 C972.13,210.36 972.85,210.9 974.05,210.9 C975.61,210.9 976.39,209.46 976.39,206.64 C976.39,205.26 976.09,204.24 975.61,203.58 C975.49,202.08 975.43,199.74 975.43,196.5 C975.43,193.98 975.61,190.56 976.09,186.3 C977.83,185.88 979.03,185.58 979.75,185.46 C980.29,185.82 980.71,185.94 981.01,185.94 C981.37,185.94 981.79,185.88 982.33,185.64 L985.09,184.38 C986.17,183.9 986.71,183.12 986.71,182.04 L986.71,182.04 Z M1016.15,193.08 C1016.15,192.54 1015.85,191.94 1015.37,191.34 C1015.37,189.96 1015.13,188.76 1014.77,187.68 C1014.83,187.44 1014.89,187.14 1014.89,186.84 C1014.89,186.12 1014.47,185.4 1013.75,184.8 C1012.97,184.2 1012.19,183.84 1011.41,183.84 C1008.11,183.84 1004.51,185.76 1000.55,189.48 C996.41,193.32 994.37,197.04 994.37,200.52 C994.37,202.38 994.97,204 996.29,205.44 C997.55,206.94 999.05,207.66 1000.79,207.66 C1003.49,207.66 1006.49,205.98 1009.85,202.62 C1010.15,207.18 1011.17,209.52 1012.91,209.52 C1013.51,209.52 1014.11,209.28 1014.65,208.92 C1015.13,208.44 1015.43,207.84 1015.43,207.24 C1015.43,207.06 1015.25,206.34 1015.01,204.9 C1014.71,203.52 1014.59,202.44 1014.59,201.72 C1014.59,199.32 1014.95,196.92 1015.79,194.4 C1016.03,193.74 1016.15,193.32 1016.15,193.08 L1016.15,193.08 Z M1010.69,191.34 C1010.69,193.38 1009.49,195.78 1007.21,198.54 C1004.93,201.3 1002.83,202.62 1001.03,202.62 C999.77,202.62 999.17,201.9 999.17,200.4 C999.17,198.48 1000.67,196.08 1003.73,193.14 C1006.49,190.5 1008.47,189.12 1009.61,189.12 C1010.33,189.12 1010.69,189.9 1010.69,191.34 L1010.69,191.34 Z M1050.51,185.76 C1050.51,184.86 1050.21,184.08 1049.61,183.36 C1049.07,182.7 1048.41,182.34 1047.57,182.34 C1047.21,182.34 1046.49,182.7 1045.41,183.3 C1044.33,183.96 1041.69,184.5 1037.43,184.98 C1036.47,184.2 1035.69,183.78 1035.15,183.78 C1034.49,183.78 1033.77,184.14 1033.05,184.86 C1032.33,185.58 1031.97,186.36 1031.97,187.08 C1031.97,187.56 1032.21,188.16 1032.69,188.82 C1033.11,189.54 1033.35,190.32 1033.35,191.22 C1033.35,194.94 1033.05,198 1032.45,200.52 C1031.67,203.46 1030.65,204.9 1029.45,204.9 C1028.97,204.9 1028.61,204.18 1028.49,202.62 C1028.37,202.02 1028.13,201.66 1027.65,201.66 C1026.81,201.66 1026.21,202.08 1025.79,202.8 C1025.25,203.64 1025.01,204.6 1025.01,205.62 C1025.01,206.76 1025.43,207.6 1026.33,208.26 C1027.17,208.86 1028.13,209.22 1029.21,209.22 C1032.33,209.22 1034.55,207.18 1035.87,203.22 C1036.71,200.7 1037.43,196.14 1038.03,189.54 C1039.53,189.18 1041.81,188.7 1044.93,188.16 C1044.33,194.04 1044.03,198.48 1044.03,201.48 C1044.03,205.44 1044.27,207.9 1044.81,208.92 C1045.35,209.94 1046.13,210.48 1047.09,210.48 C1048.65,210.48 1049.43,209.52 1049.43,207.72 C1049.19,206.64 1049.07,205.68 1048.95,204.84 C1048.65,202.8 1048.53,201.06 1048.53,199.56 C1048.53,196.32 1049.01,192.54 1050.03,188.22 C1050.33,186.78 1050.51,186 1050.51,185.76 L1050.51,185.76 Z M1081.15,187.38 C1081.15,186.9 1080.91,186.36 1080.43,185.82 C1079.95,185.34 1079.41,185.1 1078.93,185.1 C1078.45,185.1 1077.43,185.46 1075.93,186.18 C1073.41,187.38 1070.23,189.66 1066.51,192.9 C1067.35,189.42 1068.13,186.66 1068.97,184.68 C1069.45,183.42 1069.69,182.64 1069.69,182.4 C1069.69,180.84 1068.91,180.06 1067.47,180.06 C1066.51,180.06 1065.79,180.6 1065.31,181.68 C1062.37,188.88 1060.87,196.8 1060.75,205.38 C1060.63,205.68 1060.63,205.98 1060.63,206.28 C1060.63,207 1060.75,207.66 1060.99,208.32 C1061.35,209.4 1062.19,210 1063.39,210 C1064.71,210 1065.37,209.22 1065.37,207.72 C1065.37,207.6 1065.31,207.24 1065.31,206.64 C1065.25,206.04 1065.25,205.62 1065.25,205.26 L1065.25,203.04 C1065.25,202.2 1065.25,201.24 1065.37,200.16 C1065.79,199.92 1066.03,199.8 1066.09,199.74 C1068.37,202.8 1071.31,205.5 1074.85,207.84 C1075.93,208.62 1076.77,209.04 1077.37,209.04 C1078.81,209.04 1079.53,208.26 1079.53,206.76 C1079.53,206.16 1078.99,205.32 1078.03,204.36 C1076.35,202.86 1075.39,202.08 1075.03,202.08 C1074.91,202.08 1074.73,202.14 1074.61,202.14 C1072.27,200.28 1070.47,198.48 1069.27,196.74 C1072.15,194.04 1074.55,192.12 1076.53,191.04 C1076.77,191.16 1077.01,191.22 1077.31,191.22 C1078.09,191.22 1078.93,190.8 1079.77,189.96 C1080.67,189.18 1081.15,188.34 1081.15,187.38 L1081.15,187.38 Z M1112.33,207.36 C1112.33,206.94 1112.03,206.4 1111.49,205.8 C1110.17,204.36 1109.57,200.7 1109.57,194.82 C1109.57,192.72 1109.87,189.18 1110.53,184.2 C1110.53,183.54 1110.23,182.94 1109.75,182.34 C1109.21,181.8 1108.61,181.5 1107.95,181.5 C1106.93,181.5 1104.77,183.72 1101.53,188.16 C1098.89,191.64 1096.73,194.82 1094.93,197.58 C1095.35,192.9 1095.65,189.48 1095.83,187.44 C1095.83,186.48 1095.47,185.64 1094.87,184.92 C1094.27,184.26 1093.49,183.9 1092.53,183.9 C1091.99,183.9 1091.51,184.26 1091.03,184.92 C1091.15,186.66 1091.27,187.68 1091.27,187.92 C1091.27,189 1091.09,191.7 1090.79,196.08 L1090.67,197.82 C1090.61,198.72 1090.49,199.92 1090.37,201.42 C1090.19,202.86 1090.07,203.76 1090.07,204.12 C1090.13,204.96 1090.37,205.62 1090.85,205.98 C1091.81,206.94 1092.41,207.36 1092.65,207.36 C1093.49,207.36 1094.51,206.46 1095.59,204.54 C1097.81,200.82 1099.37,198.18 1100.33,196.74 C1101.89,194.16 1103.57,191.76 1105.43,189.6 C1105.43,190.2 1105.37,191.46 1105.37,193.32 C1105.31,195.24 1105.31,196.26 1105.31,196.5 C1105.31,199.62 1105.61,202.26 1106.27,204.54 C1107.17,207.84 1108.49,209.52 1110.17,209.52 C1110.53,209.52 1111.01,209.22 1111.55,208.74 C1112.03,208.14 1112.33,207.72 1112.33,207.36 L1112.33,207.36 Z M1146.33,200.34 C1146.33,196.92 1142.67,195.06 1135.47,194.76 C1140.99,192.3 1143.75,189.66 1143.75,186.78 C1143.75,184.92 1142.79,183.48 1140.93,182.46 C1139.43,181.74 1137.63,181.32 1135.53,181.32 C1132.59,181.32 1129.11,181.5 1125.09,181.86 C1123.29,182.1 1122.45,182.82 1122.45,184.14 C1122.45,185.58 1123.23,186.24 1124.91,186.24 C1125.21,186.24 1125.69,186.18 1126.35,186.06 C1126.23,199.32 1126.17,206.16 1126.17,206.52 C1124.07,206.76 1123.05,207.6 1123.05,209.16 C1123.05,210.24 1123.77,210.84 1125.33,211.02 C1126.59,210.96 1128.45,210.66 1130.91,210.12 C1135.47,209.04 1138.83,207.96 1140.87,207 C1144.47,205.32 1146.33,203.1 1146.33,200.34 L1146.33,200.34 Z M1139.13,187.32 C1139.13,189.06 1136.31,190.92 1130.67,192.9 L1130.79,185.94 C1133.01,185.76 1134.63,185.64 1135.59,185.64 C1137.93,185.64 1139.13,186.24 1139.13,187.32 L1139.13,187.32 Z M1141.83,200.94 C1141.83,201.84 1140.81,202.74 1138.77,203.58 C1136.73,204.42 1133.97,205.08 1130.55,205.5 L1130.55,197.94 C1134.51,198.06 1137.27,198.36 1138.95,198.72 C1140.87,199.2 1141.83,199.92 1141.83,200.94 L1141.83,200.94 Z M1178.23,193.08 C1178.23,192.54 1177.93,191.94 1177.45,191.34 C1177.45,189.96 1177.21,188.76 1176.85,187.68 C1176.91,187.44 1176.97,187.14 1176.97,186.84 C1176.97,186.12 1176.55,185.4 1175.83,184.8 C1175.05,184.2 1174.27,183.84 1173.49,183.84 C1170.19,183.84 1166.59,185.76 1162.63,189.48 C1158.49,193.32 1156.45,197.04 1156.45,200.52 C1156.45,202.38 1157.05,204 1158.37,205.44 C1159.63,206.94 1161.13,207.66 1162.87,207.66 C1165.57,207.66 1168.57,205.98 1171.93,202.62 C1172.23,207.18 1173.25,209.52 1174.99,209.52 C1175.59,209.52 1176.19,209.28 1176.73,208.92 C1177.21,208.44 1177.51,207.84 1177.51,207.24 C1177.51,207.06 1177.33,206.34 1177.09,204.9 C1176.79,203.52 1176.67,202.44 1176.67,201.72 C1176.67,199.32 1177.03,196.92 1177.87,194.4 C1178.11,193.74 1178.23,193.32 1178.23,193.08 L1178.23,193.08 Z M1172.77,191.34 C1172.77,193.38 1171.57,195.78 1169.29,198.54 C1167.01,201.3 1164.91,202.62 1163.11,202.62 C1161.85,202.62 1161.25,201.9 1161.25,200.4 C1161.25,198.48 1162.75,196.08 1165.81,193.14 C1168.57,190.5 1170.55,189.12 1171.69,189.12 C1172.41,189.12 1172.77,189.9 1172.77,191.34 L1172.77,191.34 Z M1212.59,185.76 C1212.59,184.86 1212.29,184.08 1211.69,183.36 C1211.15,182.7 1210.49,182.34 1209.65,182.34 C1209.29,182.34 1208.57,182.7 1207.49,183.3 C1206.41,183.96 1203.77,184.5 1199.51,184.98 C1198.55,184.2 1197.77,183.78 1197.23,183.78 C1196.57,183.78 1195.85,184.14 1195.13,184.86 C1194.41,185.58 1194.05,186.36 1194.05,187.08 C1194.05,187.56 1194.29,188.16 1194.77,188.82 C1195.19,189.54 1195.43,190.32 1195.43,191.22 C1195.43,194.94 1195.13,198 1194.53,200.52 C1193.75,203.46 1192.73,204.9 1191.53,204.9 C1191.05,204.9 1190.69,204.18 1190.57,202.62 C1190.45,202.02 1190.21,201.66 1189.73,201.66 C1188.89,201.66 1188.29,202.08 1187.87,202.8 C1187.33,203.64 1187.09,204.6 1187.09,205.62 C1187.09,206.76 1187.51,207.6 1188.41,208.26 C1189.25,208.86 1190.21,209.22 1191.29,209.22 C1194.41,209.22 1196.63,207.18 1197.95,203.22 C1198.79,200.7 1199.51,196.14 1200.11,189.54 C1201.61,189.18 1203.89,188.7 1207.01,188.16 C1206.41,194.04 1206.11,198.48 1206.11,201.48 C1206.11,205.44 1206.35,207.9 1206.89,208.92 C1207.43,209.94 1208.21,210.48 1209.17,210.48 C1210.73,210.48 1211.51,209.52 1211.51,207.72 C1211.27,206.64 1211.15,205.68 1211.03,204.84 C1210.73,202.8 1210.61,201.06 1210.61,199.56 C1210.61,196.32 1211.09,192.54 1212.11,188.22 C1212.41,186.78 1212.59,186 1212.59,185.76 L1212.59,185.76 Z M1244.97,207.36 C1244.97,206.94 1244.67,206.4 1244.13,205.8 C1242.81,204.36 1242.21,200.7 1242.21,194.82 C1242.21,192.72 1242.51,189.18 1243.17,184.2 C1243.17,183.54 1242.87,182.94 1242.39,182.34 C1241.85,181.8 1241.25,181.5 1240.59,181.5 C1239.57,181.5 1237.41,183.72 1234.17,188.16 C1231.53,191.64 1229.37,194.82 1227.57,197.58 C1227.99,192.9 1228.29,189.48 1228.47,187.44 C1228.47,186.48 1228.11,185.64 1227.51,184.92 C1226.91,184.26 1226.13,183.9 1225.17,183.9 C1224.63,183.9 1224.15,184.26 1223.67,184.92 C1223.79,186.66 1223.91,187.68 1223.91,187.92 C1223.91,189 1223.73,191.7 1223.43,196.08 L1223.31,197.82 C1223.25,198.72 1223.13,199.92 1223.01,201.42 C1222.83,202.86 1222.71,203.76 1222.71,204.12 C1222.77,204.96 1223.01,205.62 1223.49,205.98 C1224.45,206.94 1225.05,207.36 1225.29,207.36 C1226.13,207.36 1227.15,206.46 1228.23,204.54 C1230.45,200.82 1232.01,198.18 1232.97,196.74 C1234.53,194.16 1236.21,191.76 1238.07,189.6 C1238.07,190.2 1238.01,191.46 1238.01,193.32 C1237.95,195.24 1237.95,196.26 1237.95,196.5 C1237.95,199.62 1238.25,202.26 1238.91,204.54 C1239.81,207.84 1241.13,209.52 1242.81,209.52 C1243.17,209.52 1243.65,209.22 1244.19,208.74 C1244.67,208.14 1244.97,207.72 1244.97,207.36 L1244.97,207.36 Z M1273.63,201.48 C1273.63,200.88 1273.39,200.28 1272.91,199.68 C1272.43,199.2 1271.89,198.9 1271.29,198.9 C1270.81,198.9 1270.09,199.32 1269.25,200.1 C1268.53,200.7 1267.81,201.3 1267.21,201.9 C1266.19,202.68 1264.93,203.04 1263.43,203.04 C1261.03,203.04 1259.89,201.6 1259.89,198.6 C1259.89,196.74 1260.43,194.88 1261.51,193.08 C1262.59,191.28 1263.91,189.78 1265.53,188.7 C1266.25,189.12 1267.33,189.3 1268.83,189.3 C1269.61,189.3 1270.39,189 1271.17,188.28 C1271.83,187.56 1272.19,186.9 1272.19,186.18 C1272.19,185.22 1271.83,184.5 1271.11,183.9 C1270.33,183.36 1269.49,183.06 1268.59,183.06 C1264.81,183.06 1261.45,185.04 1258.57,188.94 C1256.23,192.06 1255.09,195.48 1255.09,199.2 C1255.09,201.84 1255.93,203.94 1257.61,205.62 C1259.29,207.24 1261.39,208.08 1263.91,208.08 C1266.19,208.08 1268.53,207.18 1270.81,205.38 C1272.67,203.94 1273.63,202.68 1273.63,201.48 L1273.63,201.48 Z M1301.33,199.74 C1301.33,197.28 1300.49,195.3 1298.87,193.8 C1297.37,192.42 1295.45,191.7 1293.05,191.7 C1291.73,191.7 1290.41,192.06 1289.09,192.78 C1289.33,190.56 1289.51,188.58 1289.69,186.9 C1289.99,184.98 1290.17,183.48 1290.29,182.4 C1290.05,180.66 1289.33,179.76 1288.01,179.76 C1286.45,179.76 1285.61,180.96 1285.43,183.3 C1284.47,192.78 1283.75,200.82 1283.15,207.42 C1283.21,209.52 1283.99,210.6 1285.55,210.6 C1286.51,210.6 1287.17,210.18 1287.53,209.4 C1288.19,209.58 1288.79,209.7 1289.39,209.7 C1292.03,209.7 1294.61,208.74 1297.13,206.88 C1299.89,204.84 1301.33,202.5 1301.33,199.74 L1301.33,199.74 Z M1296.77,199.02 C1296.77,200.82 1295.81,202.44 1294.01,203.82 C1292.33,205.14 1290.71,205.8 1289.15,205.8 C1288.91,205.8 1288.49,205.74 1288.01,205.62 L1288.55,198.72 C1289.63,196.92 1291.07,195.96 1292.93,195.96 C1293.89,195.96 1294.73,196.26 1295.57,196.86 C1296.35,197.46 1296.77,198.18 1296.77,199.02 L1296.77,199.02 Z M1335.63,175.26 C1335.63,172.2 1334.49,169.8 1332.21,168.06 C1330.17,166.5 1327.41,165.66 1324.05,165.66 C1322.67,165.66 1321.05,165.9 1319.25,166.32 C1318.23,166.02 1317.69,165.84 1317.63,165.84 C1316.91,165.84 1316.19,166.2 1315.41,166.8 C1314.69,167.46 1314.33,168.12 1314.33,168.84 C1314.33,169.68 1314.57,170.34 1315.05,170.82 C1315.53,171.42 1316.13,171.66 1316.97,171.66 C1317.15,171.66 1317.75,171.6 1318.71,171.36 C1321.59,170.88 1323.15,170.58 1323.39,170.58 C1328.31,170.58 1330.83,172.14 1330.83,175.2 C1330.83,177.48 1329.45,179.46 1326.75,181.02 C1324.41,182.4 1321.65,183.24 1318.47,183.6 C1316.55,183.84 1315.65,184.68 1315.65,186.06 C1315.65,186.36 1315.83,187.02 1316.25,188.1 C1317.09,190.68 1317.63,193.2 1317.93,195.66 C1318.11,197.34 1318.89,198.12 1320.27,198.12 C1321.83,198.12 1322.67,197.28 1322.67,195.48 C1322.67,193.62 1322.19,191.04 1321.29,187.8 C1325.07,187.2 1328.37,185.82 1331.13,183.66 C1334.13,181.26 1335.63,178.5 1335.63,175.26 L1335.63,175.26 Z M1323.87,206.16 C1323.87,205.2 1323.51,204.42 1322.85,203.82 C1322.07,203.34 1321.23,203.04 1320.39,203.04 C1319.37,203.04 1318.59,203.46 1317.99,204.24 C1317.39,204.96 1317.09,205.86 1317.09,206.88 C1317.09,207.78 1317.33,208.56 1317.87,209.22 C1318.41,209.82 1319.01,210.18 1319.67,210.18 C1321.05,210.18 1322.13,209.82 1322.85,209.1 C1323.51,208.32 1323.87,207.36 1323.87,206.16 L1323.87,206.16 Z" id="С-темной-или-мутной"></path>
        </g>
    </g>
</svg>