<?xml version="1.0" encoding="UTF-8"?>
<svg width="971px" height="122px" viewBox="0 0 971 122" version="1.1" xmlns="http://www.w3.org/2000/svg" xmlns:xlink="http://www.w3.org/1999/xlink">
    <!-- Generator: Sketch 40.3 (33839) - http://www.bohemiancoding.com/sketch -->
    <title>Есть знакомые нефрол</title>
    <desc>Created with Sketch.</desc>
    <defs></defs>
    <g id="Page-1" stroke="none" stroke-width="1" fill="none" fill-rule="evenodd">
        <g id="1600--copy-7" transform="translate(-313.000000, -226.000000)" fill="#FFFFFF">
            <path d="M340.76,260.06 C340.76,259.58 340.52,259.04 340.04,258.5 C339.5,258.02 338.96,257.72 338.48,257.72 C337.46,257.72 336.56,258.32 335.84,259.52 C334.52,261.38 333.38,262.64 332.3,263.36 C330.98,264.26 329.36,264.68 327.38,264.68 C324.62,264.68 322.46,263.84 320.78,262.1 C319.16,260.42 318.38,258.14 318.38,255.26 C318.38,254.66 318.38,254.06 318.5,253.46 C321.86,252.5 326.72,251.3 333.02,249.92 C333.74,250.76 334.64,251.18 335.66,251.18 C336.14,251.18 337.16,250.7 338.6,249.62 C340.04,248.66 340.76,247.58 340.76,246.38 C340.76,244.7 339.92,243.86 338.36,243.86 C337.46,243.86 335.6,244.16 332.78,244.7 C329.18,245.42 324.98,246.44 320.18,247.76 C321.5,244.64 323.24,241.16 325.34,237.38 C325.76,236.6 326,235.94 326,235.46 C326,235.04 325.76,234.32 325.34,233.24 C329.36,231.92 332.78,231.26 335.6,231.26 C335.9,231.26 336.38,231.38 336.98,231.5 C337.58,231.74 338,231.8 338.3,231.8 C339.92,231.8 340.76,231.08 340.76,229.64 C340.76,228.56 340.34,227.78 339.56,227.3 C338.36,226.58 336.98,226.22 335.42,226.22 C330.5,226.22 324.98,227.72 318.86,230.72 C316.28,231.98 315.02,233.18 315.02,234.32 C315.02,236 315.8,236.84 317.48,236.84 C317.72,236.84 318.92,236.36 321.02,235.28 C319.22,237.98 317.54,241.22 316.1,245 C314.42,249.14 313.64,252.38 313.64,254.66 C313.64,259.1 314.84,262.7 317.36,265.46 C319.76,268.28 323.12,269.66 327.32,269.66 C332.6,269.66 336.62,267.62 339.32,263.42 C340.28,262.04 340.76,260.9 340.76,260.06 L340.76,260.06 Z M369.48,263.48 C369.48,262.88 369.24,262.28 368.76,261.68 C368.28,261.2 367.74,260.9 367.14,260.9 C366.66,260.9 365.94,261.32 365.1,262.1 C364.38,262.7 363.66,263.3 363.06,263.9 C362.04,264.68 360.78,265.04 359.28,265.04 C356.88,265.04 355.74,263.6 355.74,260.6 C355.74,258.74 356.28,256.88 357.36,255.08 C358.44,253.28 359.76,251.78 361.38,250.7 C362.1,251.12 363.18,251.3 364.68,251.3 C365.46,251.3 366.24,251 367.02,250.28 C367.68,249.56 368.04,248.9 368.04,248.18 C368.04,247.22 367.68,246.5 366.96,245.9 C366.18,245.36 365.34,245.06 364.44,245.06 C360.66,245.06 357.3,247.04 354.42,250.94 C352.08,254.06 350.94,257.48 350.94,261.2 C350.94,263.84 351.78,265.94 353.46,267.62 C355.14,269.24 357.24,270.08 359.76,270.08 C362.04,270.08 364.38,269.18 366.66,267.38 C368.52,265.94 369.48,264.68 369.48,263.48 L369.48,263.48 Z M403.12,244.04 C403.12,243.44 402.88,242.84 402.46,242.3 C402.04,241.82 401.56,241.52 401.02,241.52 C400.12,241.52 398.86,241.76 397.18,242.12 C390.58,243.68 384.7,245.06 379.66,246.26 C379.3,246.38 379.06,246.38 378.94,246.38 C377.74,246.62 377.14,247.52 377.14,249.02 C377.14,250.7 377.8,251.48 379.24,251.48 C380.98,251.12 382.36,250.82 383.32,250.52 C385.06,250.16 386.56,249.8 387.82,249.56 C387.58,254.18 387.46,258.62 387.46,262.82 C387.46,266.9 387.7,269.72 388.18,271.28 C388.54,272.36 389.26,272.9 390.46,272.9 C392.02,272.9 392.8,271.46 392.8,268.64 C392.8,267.26 392.5,266.24 392.02,265.58 C391.9,264.08 391.84,261.74 391.84,258.5 C391.84,255.98 392.02,252.56 392.5,248.3 C394.24,247.88 395.44,247.58 396.16,247.46 C396.7,247.82 397.12,247.94 397.42,247.94 C397.78,247.94 398.2,247.88 398.74,247.64 L401.5,246.38 C402.58,245.9 403.12,245.12 403.12,244.04 L403.12,244.04 Z M428.96,261.74 C428.96,259.28 428.12,257.3 426.5,255.8 C425,254.42 423.08,253.7 420.68,253.7 C419.36,253.7 418.04,254.06 416.72,254.78 C416.96,252.56 417.14,250.58 417.32,248.9 C417.62,246.98 417.8,245.48 417.92,244.4 C417.68,242.66 416.96,241.76 415.64,241.76 C414.08,241.76 413.24,242.96 413.06,245.3 C412.1,254.78 411.38,262.82 410.78,269.42 C410.84,271.52 411.62,272.6 413.18,272.6 C414.14,272.6 414.8,272.18 415.16,271.4 C415.82,271.58 416.42,271.7 417.02,271.7 C419.66,271.7 422.24,270.74 424.76,268.88 C427.52,266.84 428.96,264.5 428.96,261.74 L428.96,261.74 Z M424.4,261.02 C424.4,262.82 423.44,264.44 421.64,265.82 C419.96,267.14 418.34,267.8 416.78,267.8 C416.54,267.8 416.12,267.74 415.64,267.62 L416.18,260.72 C417.26,258.92 418.7,257.96 420.56,257.96 C421.52,257.96 422.36,258.26 423.2,258.86 C423.98,259.46 424.4,260.18 424.4,261.02 L424.4,261.02 Z M481.84,262.04 C481.84,258.44 480.04,256.04 476.5,254.96 C479.08,253.52 480.4,251.72 480.4,249.5 C480.4,245.78 477.46,243.92 471.7,243.92 C466.72,243.92 464.26,245 464.26,247.16 C464.26,248.72 464.98,249.5 466.42,249.56 C466.78,249.5 467.68,249.2 469.12,248.6 C470.08,248.24 470.98,248 471.7,248 C474.46,248 475.84,248.66 475.84,249.98 C475.84,250.82 475.12,251.72 473.68,252.56 C472.36,253.28 470.86,253.82 469.12,254.18 C466.96,254.66 465.82,254.9 465.64,254.96 C464.92,255.26 464.62,255.86 464.62,256.7 C464.62,257.3 464.8,257.96 465.28,258.56 C465.7,259.22 466.24,259.52 466.84,259.52 C467.14,259.52 467.56,259.4 468.1,259.04 C469.18,258.44 470.44,258.08 471.82,258.08 C473.2,258.08 474.4,258.32 475.48,258.8 C476.8,259.4 477.46,260.3 477.46,261.5 C477.46,262.94 476.32,264.38 474.16,265.76 C472.12,267.14 470.38,267.8 468.94,267.8 C467.26,267.8 466.48,267.56 466.48,267.08 C466.48,266.84 466.54,266.48 466.72,266.12 C466.84,265.7 466.9,265.4 466.9,265.28 C466.9,264.2 466.18,263.66 464.8,263.66 C464.32,263.66 463.78,264.08 463.24,264.8 C462.64,265.64 462.4,266.36 462.4,266.96 C462.4,267.8 462.7,268.7 463.42,269.66 C464.5,271.22 466.48,272 469.3,272 C472.06,272 474.82,270.98 477.52,269.06 C480.4,267.02 481.84,264.68 481.84,262.04 L481.84,262.04 Z M511.34,246.8 C511.34,245.24 510.62,244.46 509.18,244.46 C507.98,244.46 507.2,245.54 506.9,247.58 C506.6,249.2 506.24,251.48 505.88,254.42 C503.24,255.08 500.66,255.56 498.14,255.8 C498.74,251.96 499.34,249.08 499.94,247.1 C500.3,246.02 500.6,245.18 500.9,244.46 C500.78,242.84 500.06,242 498.62,242 C497.6,242 496.94,242.48 496.58,243.44 C495.38,246.32 494.42,250.46 493.82,255.86 C492.86,255.86 492.2,255.8 491.84,255.74 C490.64,255.74 490.1,256.46 490.1,257.78 C490.1,259.28 490.94,260 492.68,260 L493.4,260 C493.22,262.28 493.04,264.86 492.92,267.86 C492.92,268.04 492.86,268.34 492.8,268.7 C492.68,269.06 492.68,269.3 492.68,269.54 C492.68,270.14 492.92,270.68 493.4,271.16 C493.88,271.64 494.42,271.88 495.02,271.88 C496.46,271.88 497.24,271.1 497.3,269.6 C497.3,267.56 497.48,264.32 497.78,259.88 C500.36,259.64 502.88,259.22 505.4,258.62 C505.1,261.8 504.92,264.32 504.92,266.12 C504.92,266.3 504.86,266.54 504.8,266.9 C504.68,267.2 504.62,267.44 504.62,267.62 C504.62,269.06 504.8,270.14 505.28,270.86 C505.76,271.64 506.3,272.06 507.02,272.06 C507.62,272.06 508.16,271.82 508.64,271.34 C509.06,270.86 509.3,270.26 509.3,269.6 C509.3,269.48 509.24,269.18 509.24,268.58 C509.18,267.98 509.18,267.5 509.18,267.26 C509.18,263.24 509.78,257.06 511.1,248.72 C511.22,247.64 511.34,247.04 511.34,246.8 L511.34,246.8 Z M543.24,255.08 C543.24,254.54 542.94,253.94 542.46,253.34 C542.46,251.96 542.22,250.76 541.86,249.68 C541.92,249.44 541.98,249.14 541.98,248.84 C541.98,248.12 541.56,247.4 540.84,246.8 C540.06,246.2 539.28,245.84 538.5,245.84 C535.2,245.84 531.6,247.76 527.64,251.48 C523.5,255.32 521.46,259.04 521.46,262.52 C521.46,264.38 522.06,266 523.38,267.44 C524.64,268.94 526.14,269.66 527.88,269.66 C530.58,269.66 533.58,267.98 536.94,264.62 C537.24,269.18 538.26,271.52 540,271.52 C540.6,271.52 541.2,271.28 541.74,270.92 C542.22,270.44 542.52,269.84 542.52,269.24 C542.52,269.06 542.34,268.34 542.1,266.9 C541.8,265.52 541.68,264.44 541.68,263.72 C541.68,261.32 542.04,258.92 542.88,256.4 C543.12,255.74 543.24,255.32 543.24,255.08 L543.24,255.08 Z M537.78,253.34 C537.78,255.38 536.58,257.78 534.3,260.54 C532.02,263.3 529.92,264.62 528.12,264.62 C526.86,264.62 526.26,263.9 526.26,262.4 C526.26,260.48 527.76,258.08 530.82,255.14 C533.58,252.5 535.56,251.12 536.7,251.12 C537.42,251.12 537.78,251.9 537.78,253.34 L537.78,253.34 Z M573.88,249.38 C573.88,248.9 573.64,248.36 573.16,247.82 C572.68,247.34 572.14,247.1 571.66,247.1 C571.18,247.1 570.16,247.46 568.66,248.18 C566.14,249.38 562.96,251.66 559.24,254.9 C560.08,251.42 560.86,248.66 561.7,246.68 C562.18,245.42 562.42,244.64 562.42,244.4 C562.42,242.84 561.64,242.06 560.2,242.06 C559.24,242.06 558.52,242.6 558.04,243.68 C555.1,250.88 553.6,258.8 553.48,267.38 C553.36,267.68 553.36,267.98 553.36,268.28 C553.36,269 553.48,269.66 553.72,270.32 C554.08,271.4 554.92,272 556.12,272 C557.44,272 558.1,271.22 558.1,269.72 C558.1,269.6 558.04,269.24 558.04,268.64 C557.98,268.04 557.98,267.62 557.98,267.26 L557.98,265.04 C557.98,264.2 557.98,263.24 558.1,262.16 C558.52,261.92 558.76,261.8 558.82,261.74 C561.1,264.8 564.04,267.5 567.58,269.84 C568.66,270.62 569.5,271.04 570.1,271.04 C571.54,271.04 572.26,270.26 572.26,268.76 C572.26,268.16 571.72,267.32 570.76,266.36 C569.08,264.86 568.12,264.08 567.76,264.08 C567.64,264.08 567.46,264.14 567.34,264.14 C565,262.28 563.2,260.48 562,258.74 C564.88,256.04 567.28,254.12 569.26,253.04 C569.5,253.16 569.74,253.22 570.04,253.22 C570.82,253.22 571.66,252.8 572.5,251.96 C573.4,251.18 573.88,250.34 573.88,249.38 L573.88,249.38 Z M601.82,255.8 C601.82,253.46 601.16,251.3 599.84,249.38 C598.46,247.52 596.72,246.2 594.62,245.48 C593.78,245.24 593.3,245.12 593.18,245.12 C592.7,245.12 592.16,245.42 591.44,245.9 C590.6,246.38 589.94,246.74 589.46,246.92 C587.42,247.94 585.74,249.74 584.54,252.26 C583.34,254.54 582.8,257 582.8,259.58 C582.8,262.64 583.58,265.16 585.26,267.14 C586.94,269.06 589.04,270.08 591.56,270.08 C594.44,270.08 596.9,268.76 598.88,266 C600.8,263.24 601.82,259.88 601.82,255.8 L601.82,255.8 Z M597.08,256.7 C597.08,258.74 596.48,260.6 595.4,262.34 C594.2,264.14 592.94,265.04 591.5,265.04 C590.3,265.04 589.34,264.5 588.62,263.36 C587.84,262.28 587.48,261.02 587.48,259.58 C587.48,257.66 587.9,255.86 588.86,254.18 C589.94,252.26 591.32,251.24 593,251.24 C593.6,251.6 594.38,251.78 595.34,251.78 C596.48,252.5 597.08,254.18 597.08,256.7 L597.08,256.7 Z M638.22,271.46 C638.22,270.92 638.04,270.32 637.68,269.6 C637.32,268.88 636.9,268.4 636.48,268.04 C635.52,266 634.68,262.28 633.96,256.94 C633.48,254.18 633.12,251.12 632.76,247.88 C632.58,246.62 631.86,245.96 630.6,245.96 C629.46,245.96 627.96,248.42 626.1,253.34 C625.44,255.02 624.9,256.46 624.42,257.78 C622.8,255.38 621.36,251.78 620.04,246.86 C619.56,245.06 618.84,244.16 617.94,244.16 C616.8,244.16 615.78,245.54 614.88,248.24 C614.7,248.24 614.46,248.18 614.16,248.18 C613.74,248.18 613.38,248.36 613.14,248.66 C612.78,249.02 612.6,249.44 612.6,249.86 C612.6,249.98 612.6,250.34 612.66,250.94 C612.66,251.6 612.72,251.96 612.72,252.08 C612.72,253.16 612.6,254.66 612.36,256.7 C612.12,258.74 612,261.02 612,263.48 C612,267.5 612.78,269.48 614.4,269.48 C615.6,269.48 616.2,268.16 616.32,265.46 C616.5,260.18 616.98,255.8 617.7,252.32 C620.88,260 623.4,263.84 625.2,263.84 C625.8,263.84 626.22,263.6 626.58,263 C626.88,262.52 627.24,261.44 627.72,259.88 C628.5,257.24 629.16,255.14 629.7,253.7 C630.3,260.36 631.14,265.28 632.28,268.46 C633.54,272.12 634.86,273.98 636.18,273.98 C636.66,273.98 637.14,273.68 637.56,273.14 C637.98,272.54 638.22,272 638.22,271.46 L638.22,271.46 Z M675.1,245.12 C675.1,244.52 674.92,243.98 674.56,243.44 C674.08,242.9 673.54,242.6 672.88,242.6 C671.74,242.6 670.78,243.62 670,245.54 C669.22,247.58 668.86,249.02 668.86,249.86 C668.86,250.4 669.16,250.94 669.76,251.48 L668.68,259.82 C667.96,264.8 667.66,267.8 667.66,268.88 C667.66,271.4 668.56,272.72 670.42,272.72 C671.08,272.72 671.62,272.42 672.04,271.94 C672.52,271.4 672.76,270.8 672.76,270.14 C672.76,269.42 672.58,268.88 672.28,268.46 C672.34,266.06 672.58,263.6 672.94,261.14 C673.3,258.68 673.72,256.22 674.08,253.7 C674.74,249.26 675.1,246.38 675.1,245.12 L675.1,245.12 Z M664.66,261.74 C664.66,259.28 663.82,257.3 662.2,255.8 C660.7,254.42 658.78,253.7 656.38,253.7 C655.06,253.7 653.74,254.06 652.42,254.78 C652.66,252.56 652.84,250.58 653.02,248.9 C653.32,246.98 653.5,245.48 653.62,244.4 C653.38,242.66 652.66,241.76 651.34,241.76 C649.78,241.76 648.94,242.96 648.76,245.3 C647.8,254.78 647.08,262.82 646.48,269.42 C646.54,271.52 647.32,272.6 648.88,272.6 C649.84,272.6 650.5,272.18 650.86,271.4 C651.52,271.58 652.12,271.7 652.72,271.7 C655.36,271.7 657.94,270.74 660.46,268.88 C663.22,266.84 664.66,264.5 664.66,261.74 L664.66,261.74 Z M660.1,261.02 C660.1,262.82 659.14,264.44 657.34,265.82 C655.66,267.14 654.04,267.8 652.48,267.8 C652.24,267.8 651.82,267.74 651.34,267.62 L651.88,260.72 C652.96,258.92 654.4,257.96 656.26,257.96 C657.22,257.96 658.06,258.26 658.9,258.86 C659.68,259.46 660.1,260.18 660.1,261.02 L660.1,261.02 Z M709.04,267.92 C709.04,267.32 708.8,266.72 708.32,266.12 C707.84,265.64 707.24,265.34 706.64,265.34 C706.16,265.34 705.38,265.46 704.36,265.58 C703.34,265.7 702.56,265.76 702.08,265.76 C700.28,265.76 698.72,264.92 697.28,263.18 C703.28,259.94 706.28,256.1 706.28,251.66 C706.28,249.98 705.56,248.36 704.12,246.92 C702.68,245.48 701.24,244.76 699.74,244.76 C697.16,244.76 695.06,246.26 693.38,249.2 C691.94,251.72 691.22,254.42 691.22,257.3 C691.22,257.9 691.28,258.74 691.46,259.76 L690.08,259.76 C689.24,259.76 688.46,259.46 687.62,258.86 C686.78,258.26 686.18,257.96 685.82,257.96 C684.26,257.96 683.48,258.8 683.48,260.48 C683.48,261.8 684.44,262.88 686.48,263.72 C688.04,264.38 689.54,264.68 691.1,264.68 L692.9,264.68 C695.06,268.82 698.42,270.86 702.98,270.86 C707,270.86 709.04,269.84 709.04,267.92 L709.04,267.92 Z M701.54,251.9 C701.54,253.88 699.74,256.04 696.14,258.38 L696.14,257.3 C696.14,255.68 696.38,254.12 696.98,252.62 C697.58,250.82 698.42,249.92 699.5,249.92 C699.98,249.92 700.46,250.16 700.94,250.52 C701.3,251 701.54,251.42 701.54,251.9 L701.54,251.9 Z M761.98,246.8 C761.98,245.24 761.26,244.46 759.82,244.46 C758.62,244.46 757.84,245.54 757.54,247.58 C757.24,249.2 756.88,251.48 756.52,254.42 C753.88,255.08 751.3,255.56 748.78,255.8 C749.38,251.96 749.98,249.08 750.58,247.1 C750.94,246.02 751.24,245.18 751.54,244.46 C751.42,242.84 750.7,242 749.26,242 C748.24,242 747.58,242.48 747.22,243.44 C746.02,246.32 745.06,250.46 744.46,255.86 C743.5,255.86 742.84,255.8 742.48,255.74 C741.28,255.74 740.74,256.46 740.74,257.78 C740.74,259.28 741.58,260 743.32,260 L744.04,260 C743.86,262.28 743.68,264.86 743.56,267.86 C743.56,268.04 743.5,268.34 743.44,268.7 C743.32,269.06 743.32,269.3 743.32,269.54 C743.32,270.14 743.56,270.68 744.04,271.16 C744.52,271.64 745.06,271.88 745.66,271.88 C747.1,271.88 747.88,271.1 747.94,269.6 C747.94,267.56 748.12,264.32 748.42,259.88 C751,259.64 753.52,259.22 756.04,258.62 C755.74,261.8 755.56,264.32 755.56,266.12 C755.56,266.3 755.5,266.54 755.44,266.9 C755.32,267.2 755.26,267.44 755.26,267.62 C755.26,269.06 755.44,270.14 755.92,270.86 C756.4,271.64 756.94,272.06 757.66,272.06 C758.26,272.06 758.8,271.82 759.28,271.34 C759.7,270.86 759.94,270.26 759.94,269.6 C759.94,269.48 759.88,269.18 759.88,268.58 C759.82,267.98 759.82,267.5 759.82,267.26 C759.82,263.24 760.42,257.06 761.74,248.72 C761.86,247.64 761.98,247.04 761.98,246.8 L761.98,246.8 Z M795.92,267.92 C795.92,267.32 795.68,266.72 795.2,266.12 C794.72,265.64 794.12,265.34 793.52,265.34 C793.04,265.34 792.26,265.46 791.24,265.58 C790.22,265.7 789.44,265.76 788.96,265.76 C787.16,265.76 785.6,264.92 784.16,263.18 C790.16,259.94 793.16,256.1 793.16,251.66 C793.16,249.98 792.44,248.36 791,246.92 C789.56,245.48 788.12,244.76 786.62,244.76 C784.04,244.76 781.94,246.26 780.26,249.2 C778.82,251.72 778.1,254.42 778.1,257.3 C778.1,257.9 778.16,258.74 778.34,259.76 L776.96,259.76 C776.12,259.76 775.34,259.46 774.5,258.86 C773.66,258.26 773.06,257.96 772.7,257.96 C771.14,257.96 770.36,258.8 770.36,260.48 C770.36,261.8 771.32,262.88 773.36,263.72 C774.92,264.38 776.42,264.68 777.98,264.68 L779.78,264.68 C781.94,268.82 785.3,270.86 789.86,270.86 C793.88,270.86 795.92,269.84 795.92,267.92 L795.92,267.92 Z M788.42,251.9 C788.42,253.88 786.62,256.04 783.02,258.38 L783.02,257.3 C783.02,255.68 783.26,254.12 783.86,252.62 C784.46,250.82 785.3,249.92 786.38,249.92 C786.86,249.92 787.34,250.16 787.82,250.52 C788.18,251 788.42,251.42 788.42,251.9 L788.42,251.9 Z M846.36,252.44 C846.36,249.8 845.76,247.58 844.56,245.78 C843.24,243.92 841.56,242.96 839.52,242.96 C835.32,242.96 831.3,246.74 827.52,254.18 L828.18,248.54 C828.9,243.62 829.44,240.02 829.92,237.74 C829.92,236.66 829.62,235.64 829.08,234.8 C828.54,234.02 827.76,233.6 826.8,233.6 C825.48,233.6 824.7,235.1 824.4,238.04 C823.62,244.52 823.2,248.18 823.14,249.08 C822.18,251.48 820.44,254.36 817.8,257.72 C814.92,261.32 812.76,263.06 811.44,263.06 C810,263.06 809.34,262.28 809.34,260.66 C809.34,258.38 810.12,255.86 811.8,253.16 C813.42,250.52 815.04,249.14 816.6,249.14 C817.32,249.14 818.04,249.44 818.88,250.04 C819.54,250.58 820.08,250.82 820.5,250.82 C821.46,250.82 822,250.46 822,249.62 C822,249.5 821.94,249.32 821.94,249.14 C821.52,248.54 821.22,248.12 820.98,247.76 C819.9,246.02 818.28,245.12 816.12,245.12 C813.18,245.12 810.48,247.04 807.96,250.82 C805.56,254.36 804.36,257.72 804.36,260.96 C804.36,263.12 804.84,264.8 805.86,266.12 C806.82,267.44 808.26,268.04 810.18,268.04 C814.32,268.04 818.58,264.86 822.9,258.38 C822.24,266.36 821.76,272.24 821.4,276.14 C821.34,276.5 821.28,276.98 821.22,277.7 C821.1,278.18 821.1,278.54 821.1,278.78 C821.1,280.52 821.58,281.72 822.54,282.32 C823.08,282.62 823.74,282.8 824.52,282.8 C825.24,282.8 825.78,282.38 826.26,281.6 C826.68,280.76 826.92,279.86 826.92,278.96 C826.92,278.84 826.86,278.36 826.8,277.64 C826.68,276.8 826.68,276.2 826.68,275.96 C826.68,275.66 826.62,275.12 826.62,274.4 C826.56,273.68 826.56,273.14 826.56,272.9 C826.56,272.66 826.56,271.64 826.62,269.9 C826.62,268.22 826.68,267.2 826.68,266.84 C826.68,264.2 828.3,260.36 831.54,255.2 C834.78,250.16 837.24,247.58 839.04,247.58 C840.84,247.58 841.74,249.32 841.74,252.74 C841.74,255.02 841.38,257.12 840.66,259.04 C839.64,261.62 838.26,262.88 836.46,262.88 C835.74,262.88 834.84,262.34 833.88,261.2 C832.92,260.12 832.2,259.52 831.72,259.4 C831.18,259.52 830.7,259.82 830.34,260.42 C829.92,261.02 829.74,261.56 829.74,262.1 C829.74,263.12 830.46,264.2 831.9,265.34 C833.34,266.54 834.9,267.14 836.58,267.14 C840.18,267.14 842.76,265.46 844.44,262.1 C845.7,259.58 846.36,256.4 846.36,252.44 L846.36,252.44 Z M878.26,248.24 C878.26,245.36 877.6,242.96 876.28,241.04 C874.84,238.94 872.74,237.86 870.1,237.86 C866.32,237.86 863.38,240.5 861.28,245.78 C859.84,249.44 859.12,253.64 859.12,258.32 C859.12,258.92 859.12,259.4 859.18,259.7 C857.5,260.3 856.72,261.2 856.72,262.46 C856.72,264.02 857.5,264.86 859.18,264.98 C859.3,265.94 859.36,267.38 859.36,269.3 C859.36,273.14 859.12,275.84 858.76,277.52 C858.34,279.14 858.16,280.04 858.16,280.22 C858.16,280.88 858.4,281.48 858.88,282.02 C859.36,282.5 859.96,282.8 860.62,282.8 C861.88,282.8 862.78,281.54 863.32,279.08 C863.92,276.32 864.22,273.5 864.22,270.74 C864.22,268.22 864.1,265.76 863.92,263.36 C873.46,259.88 878.26,254.84 878.26,248.24 L878.26,248.24 Z M873.46,247.22 C873.46,252.14 870.28,255.74 863.98,258.02 C863.98,254.78 864.52,251.48 865.66,248.24 C866.92,244.7 868.42,242.9 870.1,242.9 C871.12,242.9 871.96,243.38 872.62,244.22 C873.16,245.06 873.46,246.08 873.46,247.22 L873.46,247.22 Z M907.22,255.8 C907.22,253.46 906.56,251.3 905.24,249.38 C903.86,247.52 902.12,246.2 900.02,245.48 C899.18,245.24 898.7,245.12 898.58,245.12 C898.1,245.12 897.56,245.42 896.84,245.9 C896,246.38 895.34,246.74 894.86,246.92 C892.82,247.94 891.14,249.74 889.94,252.26 C888.74,254.54 888.2,257 888.2,259.58 C888.2,262.64 888.98,265.16 890.66,267.14 C892.34,269.06 894.44,270.08 896.96,270.08 C899.84,270.08 902.3,268.76 904.28,266 C906.2,263.24 907.22,259.88 907.22,255.8 L907.22,255.8 Z M902.48,256.7 C902.48,258.74 901.88,260.6 900.8,262.34 C899.6,264.14 898.34,265.04 896.9,265.04 C895.7,265.04 894.74,264.5 894.02,263.36 C893.24,262.28 892.88,261.02 892.88,259.58 C892.88,257.66 893.3,255.86 894.26,254.18 C895.34,252.26 896.72,251.24 898.4,251.24 C899,251.6 899.78,251.78 900.74,251.78 C901.88,252.5 902.48,254.18 902.48,256.7 L902.48,256.7 Z M941.64,247.76 C941.64,246.86 941.34,246.08 940.74,245.36 C940.2,244.7 939.54,244.34 938.7,244.34 C938.34,244.34 937.62,244.7 936.54,245.3 C935.46,245.96 932.82,246.5 928.56,246.98 C927.6,246.2 926.82,245.78 926.28,245.78 C925.62,245.78 924.9,246.14 924.18,246.86 C923.46,247.58 923.1,248.36 923.1,249.08 C923.1,249.56 923.34,250.16 923.82,250.82 C924.24,251.54 924.48,252.32 924.48,253.22 C924.48,256.94 924.18,260 923.58,262.52 C922.8,265.46 921.78,266.9 920.58,266.9 C920.1,266.9 919.74,266.18 919.62,264.62 C919.5,264.02 919.26,263.66 918.78,263.66 C917.94,263.66 917.34,264.08 916.92,264.8 C916.38,265.64 916.14,266.6 916.14,267.62 C916.14,268.76 916.56,269.6 917.46,270.26 C918.3,270.86 919.26,271.22 920.34,271.22 C923.46,271.22 925.68,269.18 927,265.22 C927.84,262.7 928.56,258.14 929.16,251.54 C930.66,251.18 932.94,250.7 936.06,250.16 C935.46,256.04 935.16,260.48 935.16,263.48 C935.16,267.44 935.4,269.9 935.94,270.92 C936.48,271.94 937.26,272.48 938.22,272.48 C939.78,272.48 940.56,271.52 940.56,269.72 C940.32,268.64 940.2,267.68 940.08,266.84 C939.78,264.8 939.66,263.06 939.66,261.56 C939.66,258.32 940.14,254.54 941.16,250.22 C941.46,248.78 941.64,248 941.64,247.76 L941.64,247.76 Z M970.78,255.8 C970.78,253.46 970.12,251.3 968.8,249.38 C967.42,247.52 965.68,246.2 963.58,245.48 C962.74,245.24 962.26,245.12 962.14,245.12 C961.66,245.12 961.12,245.42 960.4,245.9 C959.56,246.38 958.9,246.74 958.42,246.92 C956.38,247.94 954.7,249.74 953.5,252.26 C952.3,254.54 951.76,257 951.76,259.58 C951.76,262.64 952.54,265.16 954.22,267.14 C955.9,269.06 958,270.08 960.52,270.08 C963.4,270.08 965.86,268.76 967.84,266 C969.76,263.24 970.78,259.88 970.78,255.8 L970.78,255.8 Z M966.04,256.7 C966.04,258.74 965.44,260.6 964.36,262.34 C963.16,264.14 961.9,265.04 960.46,265.04 C959.26,265.04 958.3,264.5 957.58,263.36 C956.8,262.28 956.44,261.02 956.44,259.58 C956.44,257.66 956.86,255.86 957.82,254.18 C958.9,252.26 960.28,251.24 961.96,251.24 C962.56,251.6 963.34,251.78 964.3,251.78 C965.44,252.5 966.04,254.18 966.04,256.7 L966.04,256.7 Z M1003.22,245.36 C1003.22,244.64 1002.92,244.04 1002.38,243.56 C1001.84,243.14 1001.24,242.9 1000.64,242.9 C1000.1,242.9 999.2,243.08 997.94,243.32 C993.74,244.16 989,244.64 983.66,244.7 C983.12,244.7 982.64,244.94 982.22,245.42 C981.74,245.9 981.56,246.5 981.56,247.1 C981.56,248.3 982.46,249.08 984.26,249.44 C983.72,255.26 982.82,261.26 981.5,267.5 C981.14,269.3 980.96,270.5 980.96,271.22 C980.96,272.84 981.68,273.68 983.18,273.68 C984.98,273.68 986,272.72 986.24,270.86 C986.72,265.88 987.8,258.62 989.36,249.14 C991.7,248.84 993.26,248.6 994.04,248.48 C995.84,248.36 997.64,248.24 999.44,248.06 C1001.96,247.7 1003.22,246.8 1003.22,245.36 L1003.22,245.36 Z M1033.74,269.36 C1033.74,268.94 1033.44,268.4 1032.9,267.8 C1031.58,266.36 1030.98,262.7 1030.98,256.82 C1030.98,254.72 1031.28,251.18 1031.94,246.2 C1031.94,245.54 1031.64,244.94 1031.16,244.34 C1030.62,243.8 1030.02,243.5 1029.36,243.5 C1028.34,243.5 1026.18,245.72 1022.94,250.16 C1020.3,253.64 1018.14,256.82 1016.34,259.58 C1016.76,254.9 1017.06,251.48 1017.24,249.44 C1017.24,248.48 1016.88,247.64 1016.28,246.92 C1015.68,246.26 1014.9,245.9 1013.94,245.9 C1013.4,245.9 1012.92,246.26 1012.44,246.92 C1012.56,248.66 1012.68,249.68 1012.68,249.92 C1012.68,251 1012.5,253.7 1012.2,258.08 L1012.08,259.82 C1012.02,260.72 1011.9,261.92 1011.78,263.42 C1011.6,264.86 1011.48,265.76 1011.48,266.12 C1011.54,266.96 1011.78,267.62 1012.26,267.98 C1013.22,268.94 1013.82,269.36 1014.06,269.36 C1014.9,269.36 1015.92,268.46 1017,266.54 C1019.22,262.82 1020.78,260.18 1021.74,258.74 C1023.3,256.16 1024.98,253.76 1026.84,251.6 C1026.84,252.2 1026.78,253.46 1026.78,255.32 C1026.72,257.24 1026.72,258.26 1026.72,258.5 C1026.72,261.62 1027.02,264.26 1027.68,266.54 C1028.58,269.84 1029.9,271.52 1031.58,271.52 C1031.94,271.52 1032.42,271.22 1032.96,270.74 C1033.44,270.14 1033.74,269.72 1033.74,269.36 L1033.74,269.36 Z M1064.08,257.54 C1064.08,256.76 1063.72,256.28 1063.06,256.1 C1061.26,255.74 1058.86,255.56 1055.8,255.56 C1053.4,255.56 1051.18,255.74 1049.14,256.04 C1048.78,255.56 1048.36,255.32 1047.88,255.32 C1047.16,255.32 1046.38,255.8 1045.54,256.64 C1044.4,257.72 1043.86,258.92 1043.86,260.18 C1043.86,260.66 1043.98,261.14 1044.34,261.56 C1044.58,262.04 1044.94,262.28 1045.42,262.28 C1045.78,262.28 1046.14,262.16 1046.56,261.86 C1048.06,260.9 1051.06,260.42 1055.56,260.42 C1057.6,260.42 1059.64,260.54 1061.68,260.78 C1062.28,260.78 1062.82,260.42 1063.3,259.7 C1063.78,258.98 1064.08,258.26 1064.08,257.54 L1064.08,257.54 Z M1096.04,259.16 L1096.04,255.14 C1096.04,250.94 1095.08,248.78 1093.22,248.78 C1092.26,248.78 1091.36,249.62 1090.46,251.18 C1088.6,254.48 1087.16,256.82 1086.08,258.14 C1084.64,259.94 1083.26,260.84 1081.94,260.84 C1080.98,260.84 1080.56,260.3 1080.56,259.22 C1080.56,258.26 1080.74,256.4 1081.1,253.64 C1081.46,250.88 1081.7,249.2 1081.7,248.66 C1081.7,247.22 1081.46,245.9 1080.98,244.82 C1080.44,243.5 1079.66,242.84 1078.7,242.84 C1076.9,242.84 1076.06,243.62 1076.06,245.12 C1076.06,245.48 1076.12,245.96 1076.36,246.68 C1076.54,247.4 1076.66,247.88 1076.66,248.24 C1076.66,249.44 1076.48,251.24 1076.18,253.76 C1075.88,256.28 1075.76,258.2 1075.76,259.4 C1075.76,261.38 1076.3,263 1077.44,264.26 C1078.52,265.58 1079.96,266.18 1081.88,266.18 C1084.94,266.18 1088.06,263.96 1091.24,259.52 C1091.24,261.56 1091.06,263.48 1090.76,265.34 C1089.32,273.32 1084.04,277.34 1074.86,277.46 C1073.42,277.28 1072.34,277.16 1071.62,277.1 C1070.12,277.16 1069.34,277.94 1069.34,279.5 C1069.34,281.66 1071.2,282.8 1074.92,282.8 C1080.8,282.8 1085.54,281.18 1089.26,278.06 C1093.76,274.22 1096.04,267.98 1096.04,259.16 L1096.04,259.16 Z M1127.88,248.24 C1127.88,245.36 1127.22,242.96 1125.9,241.04 C1124.46,238.94 1122.36,237.86 1119.72,237.86 C1115.94,237.86 1113,240.5 1110.9,245.78 C1109.46,249.44 1108.74,253.64 1108.74,258.32 C1108.74,258.92 1108.74,259.4 1108.8,259.7 C1107.12,260.3 1106.34,261.2 1106.34,262.46 C1106.34,264.02 1107.12,264.86 1108.8,264.98 C1108.92,265.94 1108.98,267.38 1108.98,269.3 C1108.98,273.14 1108.74,275.84 1108.38,277.52 C1107.96,279.14 1107.78,280.04 1107.78,280.22 C1107.78,280.88 1108.02,281.48 1108.5,282.02 C1108.98,282.5 1109.58,282.8 1110.24,282.8 C1111.5,282.8 1112.4,281.54 1112.94,279.08 C1113.54,276.32 1113.84,273.5 1113.84,270.74 C1113.84,268.22 1113.72,265.76 1113.54,263.36 C1123.08,259.88 1127.88,254.84 1127.88,248.24 L1127.88,248.24 Z M1123.08,247.22 C1123.08,252.14 1119.9,255.74 1113.6,258.02 C1113.6,254.78 1114.14,251.48 1115.28,248.24 C1116.54,244.7 1118.04,242.9 1119.72,242.9 C1120.74,242.9 1121.58,243.38 1122.24,244.22 C1122.78,245.06 1123.08,246.08 1123.08,247.22 L1123.08,247.22 Z M1156.84,255.8 C1156.84,253.46 1156.18,251.3 1154.86,249.38 C1153.48,247.52 1151.74,246.2 1149.64,245.48 C1148.8,245.24 1148.32,245.12 1148.2,245.12 C1147.72,245.12 1147.18,245.42 1146.46,245.9 C1145.62,246.38 1144.96,246.74 1144.48,246.92 C1142.44,247.94 1140.76,249.74 1139.56,252.26 C1138.36,254.54 1137.82,257 1137.82,259.58 C1137.82,262.64 1138.6,265.16 1140.28,267.14 C1141.96,269.06 1144.06,270.08 1146.58,270.08 C1149.46,270.08 1151.92,268.76 1153.9,266 C1155.82,263.24 1156.84,259.88 1156.84,255.8 L1156.84,255.8 Z M1152.1,256.7 C1152.1,258.74 1151.5,260.6 1150.42,262.34 C1149.22,264.14 1147.96,265.04 1146.52,265.04 C1145.32,265.04 1144.36,264.5 1143.64,263.36 C1142.86,262.28 1142.5,261.02 1142.5,259.58 C1142.5,257.66 1142.92,255.86 1143.88,254.18 C1144.96,252.26 1146.34,251.24 1148.02,251.24 C1148.62,251.6 1149.4,251.78 1150.36,251.78 C1151.5,252.5 1152.1,254.18 1152.1,256.7 L1152.1,256.7 Z M1191.26,247.76 C1191.26,246.86 1190.96,246.08 1190.36,245.36 C1189.82,244.7 1189.16,244.34 1188.32,244.34 C1187.96,244.34 1187.24,244.7 1186.16,245.3 C1185.08,245.96 1182.44,246.5 1178.18,246.98 C1177.22,246.2 1176.44,245.78 1175.9,245.78 C1175.24,245.78 1174.52,246.14 1173.8,246.86 C1173.08,247.58 1172.72,248.36 1172.72,249.08 C1172.72,249.56 1172.96,250.16 1173.44,250.82 C1173.86,251.54 1174.1,252.32 1174.1,253.22 C1174.1,256.94 1173.8,260 1173.2,262.52 C1172.42,265.46 1171.4,266.9 1170.2,266.9 C1169.72,266.9 1169.36,266.18 1169.24,264.62 C1169.12,264.02 1168.88,263.66 1168.4,263.66 C1167.56,263.66 1166.96,264.08 1166.54,264.8 C1166,265.64 1165.76,266.6 1165.76,267.62 C1165.76,268.76 1166.18,269.6 1167.08,270.26 C1167.92,270.86 1168.88,271.22 1169.96,271.22 C1173.08,271.22 1175.3,269.18 1176.62,265.22 C1177.46,262.7 1178.18,258.14 1178.78,251.54 C1180.28,251.18 1182.56,250.7 1185.68,250.16 C1185.08,256.04 1184.78,260.48 1184.78,263.48 C1184.78,267.44 1185.02,269.9 1185.56,270.92 C1186.1,271.94 1186.88,272.48 1187.84,272.48 C1189.4,272.48 1190.18,271.52 1190.18,269.72 C1189.94,268.64 1189.82,267.68 1189.7,266.84 C1189.4,264.8 1189.28,263.06 1189.28,261.56 C1189.28,258.32 1189.76,254.54 1190.78,250.22 C1191.08,248.78 1191.26,248 1191.26,247.76 L1191.26,247.76 Z M1220.4,255.8 C1220.4,253.46 1219.74,251.3 1218.42,249.38 C1217.04,247.52 1215.3,246.2 1213.2,245.48 C1212.36,245.24 1211.88,245.12 1211.76,245.12 C1211.28,245.12 1210.74,245.42 1210.02,245.9 C1209.18,246.38 1208.52,246.74 1208.04,246.92 C1206,247.94 1204.32,249.74 1203.12,252.26 C1201.92,254.54 1201.38,257 1201.38,259.58 C1201.38,262.64 1202.16,265.16 1203.84,267.14 C1205.52,269.06 1207.62,270.08 1210.14,270.08 C1213.02,270.08 1215.48,268.76 1217.46,266 C1219.38,263.24 1220.4,259.88 1220.4,255.8 L1220.4,255.8 Z M1215.66,256.7 C1215.66,258.74 1215.06,260.6 1213.98,262.34 C1212.78,264.14 1211.52,265.04 1210.08,265.04 C1208.88,265.04 1207.92,264.5 1207.2,263.36 C1206.42,262.28 1206.06,261.02 1206.06,259.58 C1206.06,257.66 1206.48,255.86 1207.44,254.18 C1208.52,252.26 1209.9,251.24 1211.58,251.24 C1212.18,251.6 1212.96,251.78 1213.92,251.78 C1215.06,252.5 1215.66,254.18 1215.66,256.7 L1215.66,256.7 Z M1252.84,245.36 C1252.84,244.64 1252.54,244.04 1252,243.56 C1251.46,243.14 1250.86,242.9 1250.26,242.9 C1249.72,242.9 1248.82,243.08 1247.56,243.32 C1243.36,244.16 1238.62,244.64 1233.28,244.7 C1232.74,244.7 1232.26,244.94 1231.84,245.42 C1231.36,245.9 1231.18,246.5 1231.18,247.1 C1231.18,248.3 1232.08,249.08 1233.88,249.44 C1233.34,255.26 1232.44,261.26 1231.12,267.5 C1230.76,269.3 1230.58,270.5 1230.58,271.22 C1230.58,272.84 1231.3,273.68 1232.8,273.68 C1234.6,273.68 1235.62,272.72 1235.86,270.86 C1236.34,265.88 1237.42,258.62 1238.98,249.14 C1241.32,248.84 1242.88,248.6 1243.66,248.48 C1245.46,248.36 1247.26,248.24 1249.06,248.06 C1251.58,247.7 1252.84,246.8 1252.84,245.36 L1252.84,245.36 Z M1283.36,269.36 C1283.36,268.94 1283.06,268.4 1282.52,267.8 C1281.2,266.36 1280.6,262.7 1280.6,256.82 C1280.6,254.72 1280.9,251.18 1281.56,246.2 C1281.56,245.54 1281.26,244.94 1280.78,244.34 C1280.24,243.8 1279.64,243.5 1278.98,243.5 C1277.96,243.5 1275.8,245.72 1272.56,250.16 C1269.92,253.64 1267.76,256.82 1265.96,259.58 C1266.38,254.9 1266.68,251.48 1266.86,249.44 C1266.86,248.48 1266.5,247.64 1265.9,246.92 C1265.3,246.26 1264.52,245.9 1263.56,245.9 C1263.02,245.9 1262.54,246.26 1262.06,246.92 C1262.18,248.66 1262.3,249.68 1262.3,249.92 C1262.3,251 1262.12,253.7 1261.82,258.08 L1261.7,259.82 C1261.64,260.72 1261.52,261.92 1261.4,263.42 C1261.22,264.86 1261.1,265.76 1261.1,266.12 C1261.16,266.96 1261.4,267.62 1261.88,267.98 C1262.84,268.94 1263.44,269.36 1263.68,269.36 C1264.52,269.36 1265.54,268.46 1266.62,266.54 C1268.84,262.82 1270.4,260.18 1271.36,258.74 C1272.92,256.16 1274.6,253.76 1276.46,251.6 C1276.46,252.2 1276.4,253.46 1276.4,255.32 C1276.34,257.24 1276.34,258.26 1276.34,258.5 C1276.34,261.62 1276.64,264.26 1277.3,266.54 C1278.2,269.84 1279.52,271.52 1281.2,271.52 C1281.56,271.52 1282.04,271.22 1282.58,270.74 C1283.06,270.14 1283.36,269.72 1283.36,269.36 L1283.36,269.36 Z M537.01,324.16 L537.01,320.14 C537.01,315.94 536.05,313.78 534.19,313.78 C533.23,313.78 532.33,314.62 531.43,316.18 C529.57,319.48 528.13,321.82 527.05,323.14 C525.61,324.94 524.23,325.84 522.91,325.84 C521.95,325.84 521.53,325.3 521.53,324.22 C521.53,323.26 521.71,321.4 522.07,318.64 C522.43,315.88 522.67,314.2 522.67,313.66 C522.67,312.22 522.43,310.9 521.95,309.82 C521.41,308.5 520.63,307.84 519.67,307.84 C517.87,307.84 517.03,308.62 517.03,310.12 C517.03,310.48 517.09,310.96 517.33,311.68 C517.51,312.4 517.63,312.88 517.63,313.24 C517.63,314.44 517.45,316.24 517.15,318.76 C516.85,321.28 516.73,323.2 516.73,324.4 C516.73,326.38 517.27,328 518.41,329.26 C519.49,330.58 520.93,331.18 522.85,331.18 C525.91,331.18 529.03,328.96 532.21,324.52 C532.21,326.56 532.03,328.48 531.73,330.34 C530.29,338.32 525.01,342.34 515.83,342.46 C514.39,342.28 513.31,342.16 512.59,342.1 C511.09,342.16 510.31,342.94 510.31,344.5 C510.31,346.66 512.17,347.8 515.89,347.8 C521.77,347.8 526.51,346.18 530.23,343.06 C534.73,339.22 537.01,332.98 537.01,324.16 L537.01,324.16 Z M595.53,327.34 C595.53,323.92 591.87,322.06 584.67,321.76 C590.19,319.3 592.95,316.66 592.95,313.78 C592.95,311.92 591.99,310.48 590.13,309.46 C588.63,308.74 586.83,308.32 584.73,308.32 C581.79,308.32 578.31,308.5 574.29,308.86 C572.49,309.1 571.65,309.82 571.65,311.14 C571.65,312.58 572.43,313.24 574.11,313.24 C574.41,313.24 574.89,313.18 575.55,313.06 C575.43,326.32 575.37,333.16 575.37,333.52 C573.27,333.76 572.25,334.6 572.25,336.16 C572.25,337.24 572.97,337.84 574.53,338.02 C575.79,337.96 577.65,337.66 580.11,337.12 C584.67,336.04 588.03,334.96 590.07,334 C593.67,332.32 595.53,330.1 595.53,327.34 L595.53,327.34 Z M588.33,314.32 C588.33,316.06 585.51,317.92 579.87,319.9 L579.99,312.94 C582.21,312.76 583.83,312.64 584.79,312.64 C587.13,312.64 588.33,313.24 588.33,314.32 L588.33,314.32 Z M591.03,327.94 C591.03,328.84 590.01,329.74 587.97,330.58 C585.93,331.42 583.17,332.08 579.75,332.5 L579.75,324.94 C583.71,325.06 586.47,325.36 588.15,325.72 C590.07,326.2 591.03,326.92 591.03,327.94 L591.03,327.94 Z M627.43,320.08 C627.43,319.54 627.13,318.94 626.65,318.34 C626.65,316.96 626.41,315.76 626.05,314.68 C626.11,314.44 626.17,314.14 626.17,313.84 C626.17,313.12 625.75,312.4 625.03,311.8 C624.25,311.2 623.47,310.84 622.69,310.84 C619.39,310.84 615.79,312.76 611.83,316.48 C607.69,320.32 605.65,324.04 605.65,327.52 C605.65,329.38 606.25,331 607.57,332.44 C608.83,333.94 610.33,334.66 612.07,334.66 C614.77,334.66 617.77,332.98 621.13,329.62 C621.43,334.18 622.45,336.52 624.19,336.52 C624.79,336.52 625.39,336.28 625.93,335.92 C626.41,335.44 626.71,334.84 626.71,334.24 C626.71,334.06 626.53,333.34 626.29,331.9 C625.99,330.52 625.87,329.44 625.87,328.72 C625.87,326.32 626.23,323.92 627.07,321.4 C627.31,320.74 627.43,320.32 627.43,320.08 L627.43,320.08 Z M621.97,318.34 C621.97,320.38 620.77,322.78 618.49,325.54 C616.21,328.3 614.11,329.62 612.31,329.62 C611.05,329.62 610.45,328.9 610.45,327.4 C610.45,325.48 611.95,323.08 615.01,320.14 C617.77,317.5 619.75,316.12 620.89,316.12 C621.61,316.12 621.97,316.9 621.97,318.34 L621.97,318.34 Z M664.43,313.36 C664.43,312.64 664.13,311.8 663.65,310.9 C663.05,310.06 662.39,309.58 661.67,309.58 C660.47,309.58 659.75,310 659.39,310.84 C659.45,311.38 659.51,312.16 659.63,313.24 C659.69,314.44 659.75,315.34 659.75,315.88 C659.75,317.56 659.33,322.66 658.49,331.06 C655.67,331.36 653.69,331.54 652.61,331.54 C653.45,319.48 653.87,313.18 653.87,312.58 C653.87,309.94 652.79,308.56 650.75,308.56 C650.39,308.56 649.97,308.74 649.55,309.04 C649.07,309.4 648.83,309.76 648.83,310.12 C648.83,310.24 648.89,310.66 649.07,311.26 C649.13,311.92 649.19,312.34 649.19,312.52 C649.19,318.28 648.77,324.76 647.99,332.02 C644.75,332.44 643.01,332.62 642.77,332.62 C642.29,332.62 641.99,332.32 641.93,331.6 C641.93,331.24 642.11,328.72 642.35,324.1 C642.65,319.48 642.83,316.9 642.83,316.3 C642.83,314.14 642.59,312.58 642.17,311.62 C641.57,310.12 640.67,309.34 639.59,309.34 C639.11,309.34 638.63,309.58 638.27,310 C637.91,310.36 637.73,310.84 637.73,311.32 C638.03,312.94 638.21,314.5 638.21,315.94 C638.21,320.68 637.97,325.9 637.55,331.54 C637.67,333.7 638.33,335.2 639.53,336.22 C640.31,336.82 641.21,337.18 642.17,337.18 C647.09,336.28 651.59,335.86 655.61,335.86 C656.03,335.86 656.69,335.92 657.59,336.04 C658.43,336.16 659.09,336.28 659.57,336.28 C661.73,336.28 662.81,335.08 662.93,332.8 C662.99,330.4 663.29,326.74 663.77,321.76 C664.19,316.78 664.43,313.96 664.43,313.36 L664.43,313.36 Z M696.87,334.36 C696.87,333.94 696.57,333.4 696.03,332.8 C694.71,331.36 694.11,327.7 694.11,321.82 C694.11,319.72 694.41,316.18 695.07,311.2 C695.07,310.54 694.77,309.94 694.29,309.34 C693.75,308.8 693.15,308.5 692.49,308.5 C691.47,308.5 689.31,310.72 686.07,315.16 C683.43,318.64 681.27,321.82 679.47,324.58 C679.89,319.9 680.19,316.48 680.37,314.44 C680.37,313.48 680.01,312.64 679.41,311.92 C678.81,311.26 678.03,310.9 677.07,310.9 C676.53,310.9 676.05,311.26 675.57,311.92 C675.69,313.66 675.81,314.68 675.81,314.92 C675.81,316 675.63,318.7 675.33,323.08 L675.21,324.82 C675.15,325.72 675.03,326.92 674.91,328.42 C674.73,329.86 674.61,330.76 674.61,331.12 C674.67,331.96 674.91,332.62 675.39,332.98 C676.35,333.94 676.95,334.36 677.19,334.36 C678.03,334.36 679.05,333.46 680.13,331.54 C682.35,327.82 683.91,325.18 684.87,323.74 C686.43,321.16 688.11,318.76 689.97,316.6 C689.97,317.2 689.91,318.46 689.91,320.32 C689.85,322.24 689.85,323.26 689.85,323.5 C689.85,326.62 690.15,329.26 690.81,331.54 C691.71,334.84 693.03,336.52 694.71,336.52 C695.07,336.52 695.55,336.22 696.09,335.74 C696.57,335.14 696.87,334.72 696.87,334.36 L696.87,334.36 Z M731.11,314.86 C731.11,314.2 730.81,313.66 730.27,313.18 C729.73,312.7 729.13,312.46 728.47,312.46 C728.11,312.46 727.45,312.88 726.37,313.66 C723.43,315.94 721.15,317.68 719.53,319 C718.09,316.96 716.65,315.04 715.15,313.24 C713.65,311.44 712.51,310.54 711.79,310.54 C709.87,310.54 708.97,311.5 708.97,313.36 C708.97,313.84 709.51,314.92 710.65,316.54 C711.61,317.98 712.33,318.94 712.93,319.42 C713.23,319.78 713.59,320.02 714.07,320.14 C714.67,320.92 715.21,321.58 715.57,322.12 C712.45,324.64 710.17,326.62 708.67,328.06 C706.69,329.92 705.73,331.36 705.73,332.32 C705.73,334 706.57,334.9 708.25,334.9 C708.85,334.9 709.57,334.54 710.29,333.82 C712.45,331.54 715.15,329.14 718.39,326.5 C719.77,328.9 721.03,331.24 722.11,333.64 C722.59,334.66 723.43,335.2 724.57,335.2 C725.11,335.2 725.65,334.96 726.19,334.48 C726.73,334 727.03,333.4 727.03,332.8 C727.03,332.32 726.43,330.94 725.35,328.66 C724.51,326.98 723.49,325.24 722.35,323.32 C725.59,320.8 728.11,318.7 729.91,317.14 C730.69,316.48 731.11,315.7 731.11,314.86 L731.11,314.86 Z M786.27,313.24 C786.27,310.36 785.61,307.96 784.29,306.04 C782.85,303.94 780.75,302.86 778.11,302.86 C774.33,302.86 771.39,305.5 769.29,310.78 C767.85,314.44 767.13,318.64 767.13,323.32 C767.13,323.92 767.13,324.4 767.19,324.7 C765.51,325.3 764.73,326.2 764.73,327.46 C764.73,329.02 765.51,329.86 767.19,329.98 C767.31,330.94 767.37,332.38 767.37,334.3 C767.37,338.14 767.13,340.84 766.77,342.52 C766.35,344.14 766.17,345.04 766.17,345.22 C766.17,345.88 766.41,346.48 766.89,347.02 C767.37,347.5 767.97,347.8 768.63,347.8 C769.89,347.8 770.79,346.54 771.33,344.08 C771.93,341.32 772.23,338.5 772.23,335.74 C772.23,333.22 772.11,330.76 771.93,328.36 C781.47,324.88 786.27,319.84 786.27,313.24 L786.27,313.24 Z M781.47,312.22 C781.47,317.14 778.29,320.74 771.99,323.02 C771.99,319.78 772.53,316.48 773.67,313.24 C774.93,309.7 776.43,307.9 778.11,307.9 C779.13,307.9 779.97,308.38 780.63,309.22 C781.17,310.06 781.47,311.08 781.47,312.22 L781.47,312.22 Z M815.23,320.8 C815.23,318.46 814.57,316.3 813.25,314.38 C811.87,312.52 810.13,311.2 808.03,310.48 C807.19,310.24 806.71,310.12 806.59,310.12 C806.11,310.12 805.57,310.42 804.85,310.9 C804.01,311.38 803.35,311.74 802.87,311.92 C800.83,312.94 799.15,314.74 797.95,317.26 C796.75,319.54 796.21,322 796.21,324.58 C796.21,327.64 796.99,330.16 798.67,332.14 C800.35,334.06 802.45,335.08 804.97,335.08 C807.85,335.08 810.31,333.76 812.29,331 C814.21,328.24 815.23,324.88 815.23,320.8 L815.23,320.8 Z M810.49,321.7 C810.49,323.74 809.89,325.6 808.81,327.34 C807.61,329.14 806.35,330.04 804.91,330.04 C803.71,330.04 802.75,329.5 802.03,328.36 C801.25,327.28 800.89,326.02 800.89,324.58 C800.89,322.66 801.31,320.86 802.27,319.18 C803.35,317.26 804.73,316.24 806.41,316.24 C807.01,316.6 807.79,316.78 808.75,316.78 C809.89,317.5 810.49,319.18 810.49,321.7 L810.49,321.7 Z M851.27,334.12 C851.27,333.94 851.15,333.64 850.91,333.28 C850.19,331.96 849.35,331.3 848.51,331.3 C848.39,331.3 848.21,331.36 847.91,331.36 C848.21,323.92 848.45,318.52 848.69,315.1 C848.81,313.36 849.17,311.62 849.83,309.82 C849.83,309.22 849.47,308.56 848.87,307.96 C848.27,307.36 847.67,307.06 847.07,307.06 C845.51,307.06 843.65,307.42 841.43,308.02 C838.79,308.8 837.05,309.4 836.21,309.76 C834.89,310.48 834.29,311.38 834.29,312.4 C834.29,312.7 834.41,313.12 834.71,313.72 C834.89,314.32 835.01,314.74 835.01,314.98 C835.01,317.62 834.35,320.62 833.03,324.1 C831.59,327.76 829.97,330.64 828.05,332.74 C826.19,332.86 825.23,333.7 825.11,335.26 C824.87,337.6 824.81,339.64 824.81,341.32 C824.81,341.86 825.05,342.4 825.53,342.88 C826.01,343.36 826.67,343.66 827.39,343.66 C828.77,343.66 829.49,342.94 829.49,341.56 C829.49,341.32 829.43,341.02 829.37,340.6 C829.25,340.18 829.25,339.88 829.25,339.76 C829.25,339.52 829.25,339.28 829.31,338.92 L829.31,338.02 C829.31,337.54 829.73,337.24 830.69,337.18 C834.23,336.76 837.47,336.46 840.35,336.28 C842.45,336.1 843.95,336.04 844.79,336.04 C845.51,336.04 845.93,336.34 845.93,336.94 C845.93,337.12 845.93,337.78 845.99,338.98 L845.99,341.08 C845.99,342.76 846.59,343.66 847.91,343.66 C848.39,343.66 848.99,343.48 849.65,343.18 C850.19,342.82 850.49,342.34 850.49,341.86 C850.49,341.44 850.43,340.9 850.37,340.18 C850.25,339.46 850.19,338.86 850.19,338.5 C850.19,337.54 850.25,336.7 850.49,336.04 C850.49,335.92 850.61,335.62 850.85,335.14 C851.09,334.6 851.27,334.24 851.27,334.12 L851.27,334.12 Z M844.25,312.16 C844.25,320.32 843.89,326.92 843.17,331.9 C838.49,332.2 835.31,332.44 833.57,332.68 C836.51,328 838.55,321.52 839.69,313.36 C840.65,312.88 842.21,312.46 844.25,312.16 L844.25,312.16 Z M883.05,334.36 C883.05,333.94 882.75,333.4 882.21,332.8 C880.89,331.36 880.29,327.7 880.29,321.82 C880.29,319.72 880.59,316.18 881.25,311.2 C881.25,310.54 880.95,309.94 880.47,309.34 C879.93,308.8 879.33,308.5 878.67,308.5 C877.65,308.5 875.49,310.72 872.25,315.16 C869.61,318.64 867.45,321.82 865.65,324.58 C866.07,319.9 866.37,316.48 866.55,314.44 C866.55,313.48 866.19,312.64 865.59,311.92 C864.99,311.26 864.21,310.9 863.25,310.9 C862.71,310.9 862.23,311.26 861.75,311.92 C861.87,313.66 861.99,314.68 861.99,314.92 C861.99,316 861.81,318.7 861.51,323.08 L861.39,324.82 C861.33,325.72 861.21,326.92 861.09,328.42 C860.91,329.86 860.79,330.76 860.79,331.12 C860.85,331.96 861.09,332.62 861.57,332.98 C862.53,333.94 863.13,334.36 863.37,334.36 C864.21,334.36 865.23,333.46 866.31,331.54 C868.53,327.82 870.09,325.18 871.05,323.74 C872.61,321.16 874.29,318.76 876.15,316.6 C876.15,317.2 876.09,318.46 876.09,320.32 C876.03,322.24 876.03,323.26 876.03,323.5 C876.03,326.62 876.33,329.26 876.99,331.54 C877.89,334.84 879.21,336.52 880.89,336.52 C881.25,336.52 881.73,336.22 882.27,335.74 C882.75,335.14 883.05,334.72 883.05,334.36 L883.05,334.36 Z M917.29,309.04 C917.29,308.44 917.05,307.84 916.63,307.3 C916.21,306.82 915.73,306.52 915.19,306.52 C914.29,306.52 913.03,306.76 911.35,307.12 C904.75,308.68 898.87,310.06 893.83,311.26 C893.47,311.38 893.23,311.38 893.11,311.38 C891.91,311.62 891.31,312.52 891.31,314.02 C891.31,315.7 891.97,316.48 893.41,316.48 C895.15,316.12 896.53,315.82 897.49,315.52 C899.23,315.16 900.73,314.8 901.99,314.56 C901.75,319.18 901.63,323.62 901.63,327.82 C901.63,331.9 901.87,334.72 902.35,336.28 C902.71,337.36 903.43,337.9 904.63,337.9 C906.19,337.9 906.97,336.46 906.97,333.64 C906.97,332.26 906.67,331.24 906.19,330.58 C906.07,329.08 906.01,326.74 906.01,323.5 C906.01,320.98 906.19,317.56 906.67,313.3 C908.41,312.88 909.61,312.58 910.33,312.46 C910.87,312.82 911.29,312.94 911.59,312.94 C911.95,312.94 912.37,312.88 912.91,312.64 L915.67,311.38 C916.75,310.9 917.29,310.12 917.29,309.04 L917.29,309.04 Z M948.77,332.92 C948.77,332.32 948.53,331.72 948.05,331.12 C947.57,330.64 946.97,330.34 946.37,330.34 C945.89,330.34 945.11,330.46 944.09,330.58 C943.07,330.7 942.29,330.76 941.81,330.76 C940.01,330.76 938.45,329.92 937.01,328.18 C943.01,324.94 946.01,321.1 946.01,316.66 C946.01,314.98 945.29,313.36 943.85,311.92 C942.41,310.48 940.97,309.76 939.47,309.76 C936.89,309.76 934.79,311.26 933.11,314.2 C931.67,316.72 930.95,319.42 930.95,322.3 C930.95,322.9 931.01,323.74 931.19,324.76 L929.81,324.76 C928.97,324.76 928.19,324.46 927.35,323.86 C926.51,323.26 925.91,322.96 925.55,322.96 C923.99,322.96 923.21,323.8 923.21,325.48 C923.21,326.8 924.17,327.88 926.21,328.72 C927.77,329.38 929.27,329.68 930.83,329.68 L932.63,329.68 C934.79,333.82 938.15,335.86 942.71,335.86 C946.73,335.86 948.77,334.84 948.77,332.92 L948.77,332.92 Z M941.27,316.9 C941.27,318.88 939.47,321.04 935.87,323.38 L935.87,322.3 C935.87,320.68 936.11,319.12 936.71,317.62 C937.31,315.82 938.15,314.92 939.23,314.92 C939.71,314.92 940.19,315.16 940.67,315.52 C941.03,316 941.27,316.42 941.27,316.9 L941.27,316.9 Z M981.45,312.76 C981.45,311.86 981.15,311.08 980.55,310.36 C980.01,309.7 979.35,309.34 978.51,309.34 C978.15,309.34 977.43,309.7 976.35,310.3 C975.27,310.96 972.63,311.5 968.37,311.98 C967.41,311.2 966.63,310.78 966.09,310.78 C965.43,310.78 964.71,311.14 963.99,311.86 C963.27,312.58 962.91,313.36 962.91,314.08 C962.91,314.56 963.15,315.16 963.63,315.82 C964.05,316.54 964.29,317.32 964.29,318.22 C964.29,321.94 963.99,325 963.39,327.52 C962.61,330.46 961.59,331.9 960.39,331.9 C959.91,331.9 959.55,331.18 959.43,329.62 C959.31,329.02 959.07,328.66 958.59,328.66 C957.75,328.66 957.15,329.08 956.73,329.8 C956.19,330.64 955.95,331.6 955.95,332.62 C955.95,333.76 956.37,334.6 957.27,335.26 C958.11,335.86 959.07,336.22 960.15,336.22 C963.27,336.22 965.49,334.18 966.81,330.22 C967.65,327.7 968.37,323.14 968.97,316.54 C970.47,316.18 972.75,315.7 975.87,315.16 C975.27,321.04 974.97,325.48 974.97,328.48 C974.97,332.44 975.21,334.9 975.75,335.92 C976.29,336.94 977.07,337.48 978.03,337.48 C979.59,337.48 980.37,336.52 980.37,334.72 C980.13,333.64 980.01,332.68 979.89,331.84 C979.59,329.8 979.47,328.06 979.47,326.56 C979.47,323.32 979.95,319.54 980.97,315.22 C981.27,313.78 981.45,313 981.45,312.76 L981.45,312.76 Z M1015.39,332.92 C1015.39,332.32 1015.15,331.72 1014.67,331.12 C1014.19,330.64 1013.59,330.34 1012.99,330.34 C1012.51,330.34 1011.73,330.46 1010.71,330.58 C1009.69,330.7 1008.91,330.76 1008.43,330.76 C1006.63,330.76 1005.07,329.92 1003.63,328.18 C1009.63,324.94 1012.63,321.1 1012.63,316.66 C1012.63,314.98 1011.91,313.36 1010.47,311.92 C1009.03,310.48 1007.59,309.76 1006.09,309.76 C1003.51,309.76 1001.41,311.26 999.73,314.2 C998.29,316.72 997.57,319.42 997.57,322.3 C997.57,322.9 997.63,323.74 997.81,324.76 L996.43,324.76 C995.59,324.76 994.81,324.46 993.97,323.86 C993.13,323.26 992.53,322.96 992.17,322.96 C990.61,322.96 989.83,323.8 989.83,325.48 C989.83,326.8 990.79,327.88 992.83,328.72 C994.39,329.38 995.89,329.68 997.45,329.68 L999.25,329.68 C1001.41,333.82 1004.77,335.86 1009.33,335.86 C1013.35,335.86 1015.39,334.84 1015.39,332.92 L1015.39,332.92 Z M1007.89,316.9 C1007.89,318.88 1006.09,321.04 1002.49,323.38 L1002.49,322.3 C1002.49,320.68 1002.73,319.12 1003.33,317.62 C1003.93,315.82 1004.77,314.92 1005.85,314.92 C1006.33,314.92 1006.81,315.16 1007.29,315.52 C1007.65,316 1007.89,316.42 1007.89,316.9 L1007.89,316.9 Z M1040.99,301.12 C1040.99,300.34 1040.57,299.62 1039.79,298.96 C1038.89,298.36 1038.05,298.06 1037.33,298.06 C1036.91,298.06 1036.61,298.18 1036.43,298.42 C1037.03,299.5 1037.33,300.22 1037.33,300.46 C1037.33,301.18 1036.91,302.02 1036.19,302.98 C1035.35,304 1034.63,304.48 1034.03,304.48 C1033.67,304.48 1033.43,304.06 1033.19,303.22 L1032.05,299.74 C1031.45,298.54 1030.49,297.94 1029.17,297.94 C1028.93,297.94 1028.69,298.12 1028.45,298.36 C1028.15,298.72 1028.03,298.96 1028.03,299.08 C1028.03,300.58 1028.99,302.8 1030.97,305.74 C1031.93,307.18 1032.95,307.9 1034.09,307.9 C1035.35,307.9 1036.85,307.12 1038.53,305.44 C1040.15,303.88 1040.99,302.44 1040.99,301.12 L1040.99,301.12 Z M1046.09,334.36 C1046.09,333.94 1045.79,333.4 1045.25,332.8 C1043.93,331.36 1043.33,327.7 1043.33,321.82 C1043.33,319.72 1043.63,316.18 1044.29,311.2 C1044.29,310.54 1043.99,309.94 1043.51,309.34 C1042.97,308.8 1042.37,308.5 1041.71,308.5 C1040.69,308.5 1038.53,310.72 1035.29,315.16 C1032.65,318.64 1030.49,321.82 1028.69,324.58 C1029.11,319.9 1029.41,316.48 1029.59,314.44 C1029.59,313.48 1029.23,312.64 1028.63,311.92 C1028.03,311.26 1027.25,310.9 1026.29,310.9 C1025.75,310.9 1025.27,311.26 1024.79,311.92 C1024.91,313.66 1025.03,314.68 1025.03,314.92 C1025.03,316 1024.85,318.7 1024.55,323.08 L1024.43,324.82 C1024.37,325.72 1024.25,326.92 1024.13,328.42 C1023.95,329.86 1023.83,330.76 1023.83,331.12 C1023.89,331.96 1024.13,332.62 1024.61,332.98 C1025.57,333.94 1026.17,334.36 1026.41,334.36 C1027.25,334.36 1028.27,333.46 1029.35,331.54 C1031.57,327.82 1033.13,325.18 1034.09,323.74 C1035.65,321.16 1037.33,318.76 1039.19,316.6 C1039.19,317.2 1039.13,318.46 1039.13,320.32 C1039.07,322.24 1039.07,323.26 1039.07,323.5 C1039.07,326.62 1039.37,329.26 1040.03,331.54 C1040.93,334.84 1042.25,336.52 1043.93,336.52 C1044.29,336.52 1044.77,336.22 1045.31,335.74 C1045.79,335.14 1046.09,334.72 1046.09,334.36 L1046.09,334.36 Z M1080.99,302.26 C1080.99,299.2 1079.85,296.8 1077.57,295.06 C1075.53,293.5 1072.77,292.66 1069.41,292.66 C1068.03,292.66 1066.41,292.9 1064.61,293.32 C1063.59,293.02 1063.05,292.84 1062.99,292.84 C1062.27,292.84 1061.55,293.2 1060.77,293.8 C1060.05,294.46 1059.69,295.12 1059.69,295.84 C1059.69,296.68 1059.93,297.34 1060.41,297.82 C1060.89,298.42 1061.49,298.66 1062.33,298.66 C1062.51,298.66 1063.11,298.6 1064.07,298.36 C1066.95,297.88 1068.51,297.58 1068.75,297.58 C1073.67,297.58 1076.19,299.14 1076.19,302.2 C1076.19,304.48 1074.81,306.46 1072.11,308.02 C1069.77,309.4 1067.01,310.24 1063.83,310.6 C1061.91,310.84 1061.01,311.68 1061.01,313.06 C1061.01,313.36 1061.19,314.02 1061.61,315.1 C1062.45,317.68 1062.99,320.2 1063.29,322.66 C1063.47,324.34 1064.25,325.12 1065.63,325.12 C1067.19,325.12 1068.03,324.28 1068.03,322.48 C1068.03,320.62 1067.55,318.04 1066.65,314.8 C1070.43,314.2 1073.73,312.82 1076.49,310.66 C1079.49,308.26 1080.99,305.5 1080.99,302.26 L1080.99,302.26 Z M1069.23,333.16 C1069.23,332.2 1068.87,331.42 1068.21,330.82 C1067.43,330.34 1066.59,330.04 1065.75,330.04 C1064.73,330.04 1063.95,330.46 1063.35,331.24 C1062.75,331.96 1062.45,332.86 1062.45,333.88 C1062.45,334.78 1062.69,335.56 1063.23,336.22 C1063.77,336.82 1064.37,337.18 1065.03,337.18 C1066.41,337.18 1067.49,336.82 1068.21,336.1 C1068.87,335.32 1069.23,334.36 1069.23,333.16 L1069.23,333.16 Z" id="Есть-знакомые-нефрол"></path>
        </g>
    </g>
</svg>