<?xml version="1.0" encoding="UTF-8"?>
<svg width="116px" height="51px" viewBox="0 0 116 51" version="1.1" xmlns="http://www.w3.org/2000/svg" xmlns:xlink="http://www.w3.org/1999/xlink">
    <!-- Generator: Sketch 40.3 (33839) - http://www.bohemiancoding.com/sketch -->
    <title>Не забывайте об этом</title>
    <desc>Created with Sketch.</desc>
    <defs></defs>
    <g id="Page-1" stroke="none" stroke-width="1" fill="none" fill-rule="evenodd">
        <g id="Desktop" transform="translate(-2881.000000, -605.000000)" fill="#354777">
            <path d="M2894.34516,609.788997 C2894.34516,609.588997 2894.26516,609.388997 2894.10516,609.208997 C2893.94516,609.048997 2893.74516,608.948997 2893.54516,608.948997 C2893.16516,608.948997 2892.92516,609.168997 2892.82516,609.588997 C2892.68516,610.188997 2892.58516,610.648997 2892.54516,610.968997 C2892.34516,611.928997 2892.14516,613.248997 2891.94516,614.928997 C2890.38516,615.488997 2888.54516,615.808997 2886.42516,615.928997 C2886.58516,614.508997 2886.82516,613.148997 2887.14516,611.868997 C2887.34516,610.948997 2887.50516,610.348997 2887.62516,610.048997 C2887.96516,609.008997 2888.14516,608.408997 2888.14516,608.268997 C2888.14516,607.728997 2887.86516,607.448997 2887.34516,607.448997 C2887.02516,607.448997 2886.78516,607.628997 2886.60516,607.968997 C2886.54516,608.068997 2886.42516,608.368997 2886.26516,608.888997 C2885.58516,610.808997 2885.08516,613.188997 2884.78516,616.028997 C2884.62516,616.028997 2884.32516,616.008997 2883.90516,615.968997 C2883.48516,615.948997 2883.24516,615.928997 2883.18516,615.928997 C2882.98516,615.928997 2882.82516,616.028997 2882.70516,616.188997 C2882.56516,616.368997 2882.50516,616.548997 2882.50516,616.748997 C2882.50516,617.348997 2882.94516,617.628997 2883.86516,617.628997 L2884.28516,617.628997 C2884.44516,617.628997 2884.58516,617.608997 2884.66516,617.608997 C2884.42516,620.288997 2884.32516,622.428997 2884.32516,624.028997 C2884.32516,624.268997 2884.38516,624.468997 2884.54516,624.668997 C2884.68516,624.868997 2884.86516,624.968997 2885.08516,624.968997 C2885.30516,624.968997 2885.50516,624.848997 2885.68516,624.648997 C2885.84516,624.428997 2885.92516,624.168997 2885.94516,623.888997 C2886.06516,621.248997 2886.18516,619.148997 2886.30516,617.568997 C2888.30516,617.408997 2890.10516,617.108997 2891.74516,616.708997 C2891.46516,619.628997 2891.34516,621.848997 2891.34516,623.388997 C2891.34516,624.468997 2891.64516,625.028997 2892.26516,625.028997 C2892.46516,625.028997 2892.66516,624.948997 2892.82516,624.788997 C2892.98516,624.608997 2893.06516,624.408997 2893.06516,624.188997 C2893.06516,624.108997 2893.04516,623.888997 2893.04516,623.508997 C2893.02516,623.128997 2893.02516,622.848997 2893.02516,622.648997 C2893.02516,619.388997 2893.40516,615.428997 2894.18516,610.788997 L2894.34516,609.788997 Z M2904.34516,623.448997 C2904.34516,623.248997 2904.26516,623.048997 2904.10516,622.848997 C2903.94516,622.688997 2903.74516,622.588997 2903.54516,622.588997 C2903.38516,622.588997 2903.12516,622.628997 2902.78516,622.668997 C2902.44516,622.708997 2902.18516,622.728997 2902.02516,622.728997 C2901.42516,622.728997 2900.90516,622.448997 2900.42516,621.868997 C2902.42516,620.788997 2903.42516,619.508997 2903.42516,618.028997 C2903.42516,617.468997 2903.18516,616.928997 2902.70516,616.448997 C2902.22516,615.968997 2901.74516,615.728997 2901.24516,615.728997 C2900.38516,615.728997 2899.68516,616.228997 2899.12516,617.208997 C2898.64516,618.048997 2898.40516,618.948997 2898.40516,619.908997 C2898.40516,620.108997 2898.42516,620.388997 2898.48516,620.728997 L2898.02516,620.728997 C2897.74516,620.728997 2897.48516,620.628997 2897.20516,620.428997 C2896.92516,620.228997 2896.72516,620.128997 2896.60516,620.128997 C2896.08516,620.128997 2895.82516,620.408997 2895.82516,620.968997 C2895.82516,621.408997 2896.14516,621.768997 2896.82516,622.048997 C2897.34516,622.268997 2897.84516,622.368997 2898.36516,622.368997 L2898.96516,622.368997 C2899.68516,623.748997 2900.80516,624.428997 2902.32516,624.428997 C2903.66516,624.428997 2904.34516,624.088997 2904.34516,623.448997 L2904.34516,623.448997 Z M2901.84516,618.108997 C2901.84516,618.768997 2901.24516,619.488997 2900.04516,620.268997 L2900.04516,619.908997 C2900.04516,619.368997 2900.12516,618.848997 2900.32516,618.348997 C2900.52516,617.748997 2900.80516,617.448997 2901.16516,617.448997 C2901.32516,617.448997 2901.48516,617.528997 2901.64516,617.648997 C2901.76516,617.808997 2901.84516,617.948997 2901.84516,618.108997 L2901.84516,618.108997 Z M2918.94516,621.488997 C2918.94516,620.288997 2918.34516,619.488997 2917.16516,619.128997 C2918.02516,618.648997 2918.46516,618.048997 2918.46516,617.308997 C2918.46516,616.068997 2917.48516,615.448997 2915.56516,615.448997 C2913.90516,615.448997 2913.08516,615.808997 2913.08516,616.528997 C2913.08516,617.048997 2913.32516,617.308997 2913.80516,617.328997 C2913.92516,617.308997 2914.22516,617.208997 2914.70516,617.008997 C2915.02516,616.888997 2915.32516,616.808997 2915.56516,616.808997 C2916.48516,616.808997 2916.94516,617.028997 2916.94516,617.468997 C2916.94516,617.748997 2916.70516,618.048997 2916.22516,618.328997 C2915.78516,618.568997 2915.28516,618.748997 2914.70516,618.868997 C2913.98516,619.028997 2913.60516,619.108997 2913.54516,619.128997 C2913.30516,619.228997 2913.20516,619.428997 2913.20516,619.708997 C2913.20516,619.908997 2913.26516,620.128997 2913.42516,620.328997 C2913.56516,620.548997 2913.74516,620.648997 2913.94516,620.648997 C2914.04516,620.648997 2914.18516,620.608997 2914.36516,620.488997 C2914.72516,620.288997 2915.14516,620.168997 2915.60516,620.168997 C2916.06516,620.168997 2916.46516,620.248997 2916.82516,620.408997 C2917.26516,620.608997 2917.48516,620.908997 2917.48516,621.308997 C2917.48516,621.788997 2917.10516,622.268997 2916.38516,622.728997 C2915.70516,623.188997 2915.12516,623.408997 2914.64516,623.408997 C2914.08516,623.408997 2913.82516,623.328997 2913.82516,623.168997 C2913.82516,623.088997 2913.84516,622.968997 2913.90516,622.848997 C2913.94516,622.708997 2913.96516,622.608997 2913.96516,622.568997 C2913.96516,622.208997 2913.72516,622.028997 2913.26516,622.028997 C2913.10516,622.028997 2912.92516,622.168997 2912.74516,622.408997 C2912.54516,622.688997 2912.46516,622.928997 2912.46516,623.128997 C2912.46516,623.408997 2912.56516,623.708997 2912.80516,624.028997 C2913.16516,624.548997 2913.82516,624.808997 2914.76516,624.808997 C2915.68516,624.808997 2916.60516,624.468997 2917.50516,623.828997 C2918.46516,623.148997 2918.94516,622.368997 2918.94516,621.488997 L2918.94516,621.488997 Z M2928.04516,619.168997 C2928.04516,618.988997 2927.94516,618.788997 2927.78516,618.588997 C2927.78516,618.128997 2927.70516,617.728997 2927.58516,617.368997 C2927.60516,617.288997 2927.62516,617.188997 2927.62516,617.088997 C2927.62516,616.848997 2927.48516,616.608997 2927.24516,616.408997 C2926.98516,616.208997 2926.72516,616.088997 2926.46516,616.088997 C2925.36516,616.088997 2924.16516,616.728997 2922.84516,617.968997 C2921.46516,619.248997 2920.78516,620.488997 2920.78516,621.648997 C2920.78516,622.268997 2920.98516,622.808997 2921.42516,623.288997 C2921.84516,623.788997 2922.34516,624.028997 2922.92516,624.028997 C2923.82516,624.028997 2924.82516,623.468997 2925.94516,622.348997 C2926.04516,623.868997 2926.38516,624.648997 2926.96516,624.648997 C2927.16516,624.648997 2927.36516,624.568997 2927.54516,624.448997 C2927.70516,624.288997 2927.80516,624.088997 2927.80516,623.888997 C2927.80516,623.828997 2927.74516,623.588997 2927.66516,623.108997 C2927.56516,622.648997 2927.52516,622.288997 2927.52516,622.048997 C2927.52516,621.248997 2927.64516,620.448997 2927.92516,619.608997 C2928.00516,619.388997 2928.04516,619.248997 2928.04516,619.168997 L2928.04516,619.168997 Z M2926.22516,618.588997 C2926.22516,619.268997 2925.82516,620.068997 2925.06516,620.988997 C2924.30516,621.908997 2923.60516,622.348997 2923.00516,622.348997 C2922.58516,622.348997 2922.38516,622.108997 2922.38516,621.608997 C2922.38516,620.968997 2922.88516,620.168997 2923.90516,619.188997 C2924.82516,618.308997 2925.48516,617.848997 2925.86516,617.848997 C2926.10516,617.848997 2926.22516,618.108997 2926.22516,618.588997 L2926.22516,618.588997 Z M2938.24516,620.148997 C2938.24516,619.048997 2937.96516,618.148997 2937.44516,617.448997 C2936.84516,616.668997 2936.02516,616.268997 2934.96516,616.268997 C2934.00516,616.268997 2932.94516,616.768997 2931.82516,617.748997 C2932.14516,615.708997 2933.50516,614.268997 2935.94516,613.468997 C2936.64516,613.228997 2937.00516,612.888997 2937.00516,612.408997 C2937.00516,612.068997 2936.88516,611.708997 2936.68516,611.328997 C2936.44516,610.968997 2936.18516,610.768997 2935.90516,610.768997 C2935.64516,610.768997 2935.50516,610.948997 2935.48516,611.288997 C2935.44516,611.688997 2935.42516,611.888997 2935.40516,611.928997 C2935.34516,612.028997 2935.14516,612.148997 2934.80516,612.288997 C2931.64516,613.568997 2930.08516,615.948997 2930.08516,619.448997 C2930.08516,620.948997 2930.38516,622.168997 2931.02516,623.128997 C2931.72516,624.128997 2932.70516,624.648997 2933.96516,624.648997 C2935.08516,624.648997 2936.06516,624.208997 2936.94516,623.348997 C2937.80516,622.468997 2938.24516,621.408997 2938.24516,620.148997 L2938.24516,620.148997 Z M2936.80516,619.688997 C2936.80516,620.648997 2936.52516,621.448997 2935.98516,622.128997 C2935.42516,622.808997 2934.72516,623.148997 2933.92516,623.148997 C2933.28516,623.148997 2932.74516,622.868997 2932.34516,622.268997 C2931.94516,621.668997 2931.74516,620.928997 2931.74516,620.028997 C2931.74516,619.928997 2931.74516,619.788997 2931.76516,619.588997 C2932.26516,619.528997 2932.54516,619.308997 2932.60516,618.948997 C2933.52516,618.188997 2934.36516,617.788997 2935.08516,617.788997 C2935.52516,617.788997 2935.92516,617.988997 2936.28516,618.348997 C2936.62516,618.748997 2936.80516,619.188997 2936.80516,619.688997 L2936.80516,619.688997 Z M2949.82516,615.848997 C2949.82516,615.648997 2949.76516,615.468997 2949.64516,615.288997 C2949.48516,615.108997 2949.30516,615.008997 2949.08516,615.008997 C2948.70516,615.008997 2948.38516,615.348997 2948.12516,615.988997 C2947.86516,616.668997 2947.74516,617.148997 2947.74516,617.428997 C2947.74516,617.608997 2947.84516,617.788997 2948.04516,617.968997 L2947.68516,620.748997 C2947.44516,622.408997 2947.34516,623.408997 2947.34516,623.768997 C2947.34516,624.608997 2947.64516,625.048997 2948.26516,625.048997 C2948.48516,625.048997 2948.66516,624.948997 2948.80516,624.788997 C2948.96516,624.608997 2949.04516,624.408997 2949.04516,624.188997 C2949.04516,623.948997 2948.98516,623.768997 2948.88516,623.628997 C2948.90516,622.828997 2948.98516,622.008997 2949.10516,621.188997 C2949.22516,620.368997 2949.36516,619.548997 2949.48516,618.708997 C2949.70516,617.228997 2949.82516,616.268997 2949.82516,615.848997 L2949.82516,615.848997 Z M2946.34516,621.388997 C2946.34516,620.568997 2946.06516,619.908997 2945.52516,619.408997 C2945.02516,618.948997 2944.38516,618.708997 2943.58516,618.708997 C2943.14516,618.708997 2942.70516,618.828997 2942.26516,619.068997 C2942.34516,618.328997 2942.40516,617.668997 2942.46516,617.108997 C2942.56516,616.468997 2942.62516,615.968997 2942.66516,615.608997 C2942.58516,615.028997 2942.34516,614.728997 2941.90516,614.728997 C2941.38516,614.728997 2941.10516,615.128997 2941.04516,615.908997 C2940.72516,619.068997 2940.48516,621.748997 2940.28516,623.948997 C2940.30516,624.648997 2940.56516,625.008997 2941.08516,625.008997 C2941.40516,625.008997 2941.62516,624.868997 2941.74516,624.608997 C2941.96516,624.668997 2942.16516,624.708997 2942.36516,624.708997 C2943.24516,624.708997 2944.10516,624.388997 2944.94516,623.768997 C2945.86516,623.088997 2946.34516,622.308997 2946.34516,621.388997 L2946.34516,621.388997 Z M2944.82516,621.148997 C2944.82516,621.748997 2944.50516,622.288997 2943.90516,622.748997 C2943.34516,623.188997 2942.80516,623.408997 2942.28516,623.408997 C2942.20516,623.408997 2942.06516,623.388997 2941.90516,623.348997 L2942.08516,621.048997 C2942.44516,620.448997 2942.92516,620.128997 2943.54516,620.128997 C2943.86516,620.128997 2944.14516,620.228997 2944.42516,620.428997 C2944.68516,620.628997 2944.82516,620.868997 2944.82516,621.148997 L2944.82516,621.148997 Z M2959.82516,621.588997 C2959.82516,620.448997 2958.60516,619.828997 2956.20516,619.728997 C2958.04516,618.908997 2958.96516,618.028997 2958.96516,617.068997 C2958.96516,616.448997 2958.64516,615.968997 2958.02516,615.628997 C2957.52516,615.388997 2956.92516,615.248997 2956.22516,615.248997 C2955.24516,615.248997 2954.08516,615.308997 2952.74516,615.428997 C2952.14516,615.508997 2951.86516,615.748997 2951.86516,616.188997 C2951.86516,616.668997 2952.12516,616.888997 2952.68516,616.888997 C2952.78516,616.888997 2952.94516,616.868997 2953.16516,616.828997 C2953.12516,621.248997 2953.10516,623.528997 2953.10516,623.648997 C2952.40516,623.728997 2952.06516,624.008997 2952.06516,624.528997 C2952.06516,624.888997 2952.30516,625.088997 2952.82516,625.148997 C2953.24516,625.128997 2953.86516,625.028997 2954.68516,624.848997 C2956.20516,624.488997 2957.32516,624.128997 2958.00516,623.808997 C2959.20516,623.248997 2959.82516,622.508997 2959.82516,621.588997 L2959.82516,621.588997 Z M2957.42516,617.248997 C2957.42516,617.828997 2956.48516,618.448997 2954.60516,619.108997 L2954.64516,616.788997 C2955.38516,616.728997 2955.92516,616.688997 2956.24516,616.688997 C2957.02516,616.688997 2957.42516,616.888997 2957.42516,617.248997 L2957.42516,617.248997 Z M2958.32516,621.788997 C2958.32516,622.088997 2957.98516,622.388997 2957.30516,622.668997 C2956.62516,622.948997 2955.70516,623.168997 2954.56516,623.308997 L2954.56516,620.788997 C2955.88516,620.828997 2956.80516,620.928997 2957.36516,621.048997 C2958.00516,621.208997 2958.32516,621.448997 2958.32516,621.788997 L2958.32516,621.788997 Z M2969.12516,619.168997 C2969.12516,618.988997 2969.02516,618.788997 2968.86516,618.588997 C2968.86516,618.128997 2968.78516,617.728997 2968.66516,617.368997 C2968.68516,617.288997 2968.70516,617.188997 2968.70516,617.088997 C2968.70516,616.848997 2968.56516,616.608997 2968.32516,616.408997 C2968.06516,616.208997 2967.80516,616.088997 2967.54516,616.088997 C2966.44516,616.088997 2965.24516,616.728997 2963.92516,617.968997 C2962.54516,619.248997 2961.86516,620.488997 2961.86516,621.648997 C2961.86516,622.268997 2962.06516,622.808997 2962.50516,623.288997 C2962.92516,623.788997 2963.42516,624.028997 2964.00516,624.028997 C2964.90516,624.028997 2965.90516,623.468997 2967.02516,622.348997 C2967.12516,623.868997 2967.46516,624.648997 2968.04516,624.648997 C2968.24516,624.648997 2968.44516,624.568997 2968.62516,624.448997 C2968.78516,624.288997 2968.88516,624.088997 2968.88516,623.888997 C2968.88516,623.828997 2968.82516,623.588997 2968.74516,623.108997 C2968.64516,622.648997 2968.60516,622.288997 2968.60516,622.048997 C2968.60516,621.248997 2968.72516,620.448997 2969.00516,619.608997 C2969.08516,619.388997 2969.12516,619.248997 2969.12516,619.168997 L2969.12516,619.168997 Z M2967.30516,618.588997 C2967.30516,619.268997 2966.90516,620.068997 2966.14516,620.988997 C2965.38516,621.908997 2964.68516,622.348997 2964.08516,622.348997 C2963.66516,622.348997 2963.46516,622.108997 2963.46516,621.608997 C2963.46516,620.968997 2963.96516,620.168997 2964.98516,619.188997 C2965.90516,618.308997 2966.56516,617.848997 2966.94516,617.848997 C2967.18516,617.848997 2967.30516,618.108997 2967.30516,618.588997 L2967.30516,618.588997 Z M2976.88516,612.848997 C2976.88516,612.588997 2976.74516,612.348997 2976.48516,612.128997 C2976.18516,611.928997 2975.90516,611.828997 2975.66516,611.828997 C2975.52516,611.828997 2975.42516,611.868997 2975.36516,611.948997 C2975.56516,612.308997 2975.66516,612.548997 2975.66516,612.628997 C2975.66516,612.868997 2975.52516,613.148997 2975.28516,613.468997 C2975.00516,613.808997 2974.76516,613.968997 2974.56516,613.968997 C2974.44516,613.968997 2974.36516,613.828997 2974.28516,613.548997 L2973.90516,612.388997 C2973.70516,611.988997 2973.38516,611.788997 2972.94516,611.788997 C2972.86516,611.788997 2972.78516,611.848997 2972.70516,611.928997 C2972.60516,612.048997 2972.56516,612.128997 2972.56516,612.168997 C2972.56516,612.668997 2972.88516,613.408997 2973.54516,614.388997 C2973.86516,614.868997 2974.20516,615.108997 2974.58516,615.108997 C2975.00516,615.108997 2975.50516,614.848997 2976.06516,614.288997 C2976.60516,613.768997 2976.88516,613.288997 2976.88516,612.848997 L2976.88516,612.848997 Z M2978.58516,623.928997 C2978.58516,623.788997 2978.48516,623.608997 2978.30516,623.408997 C2977.86516,622.928997 2977.66516,621.708997 2977.66516,619.748997 C2977.66516,619.048997 2977.76516,617.868997 2977.98516,616.208997 C2977.98516,615.988997 2977.88516,615.788997 2977.72516,615.588997 C2977.54516,615.408997 2977.34516,615.308997 2977.12516,615.308997 C2976.78516,615.308997 2976.06516,616.048997 2974.98516,617.528997 C2974.10516,618.688997 2973.38516,619.748997 2972.78516,620.668997 C2972.92516,619.108997 2973.02516,617.968997 2973.08516,617.288997 C2973.08516,616.968997 2972.96516,616.688997 2972.76516,616.448997 C2972.56516,616.228997 2972.30516,616.108997 2971.98516,616.108997 C2971.80516,616.108997 2971.64516,616.228997 2971.48516,616.448997 C2971.52516,617.028997 2971.56516,617.368997 2971.56516,617.448997 C2971.56516,617.808997 2971.50516,618.708997 2971.40516,620.168997 L2971.36516,620.748997 C2971.34516,621.048997 2971.30516,621.448997 2971.26516,621.948997 C2971.20516,622.428997 2971.16516,622.728997 2971.16516,622.848997 C2971.18516,623.128997 2971.26516,623.348997 2971.42516,623.468997 C2971.74516,623.788997 2971.94516,623.928997 2972.02516,623.928997 C2972.30516,623.928997 2972.64516,623.628997 2973.00516,622.988997 C2973.74516,621.748997 2974.26516,620.868997 2974.58516,620.388997 C2975.10516,619.528997 2975.66516,618.728997 2976.28516,618.008997 C2976.28516,618.208997 2976.26516,618.628997 2976.26516,619.248997 C2976.24516,619.888997 2976.24516,620.228997 2976.24516,620.308997 C2976.24516,621.348997 2976.34516,622.228997 2976.56516,622.988997 C2976.86516,624.088997 2977.30516,624.648997 2977.86516,624.648997 C2977.98516,624.648997 2978.14516,624.548997 2978.32516,624.388997 C2978.48516,624.188997 2978.58516,624.048997 2978.58516,623.928997 L2978.58516,623.928997 Z M2988.66516,615.488997 C2988.66516,615.288997 2988.58516,615.088997 2988.44516,614.908997 C2988.30516,614.748997 2988.14516,614.648997 2987.96516,614.648997 C2987.66516,614.648997 2987.24516,614.728997 2986.68516,614.848997 C2984.48516,615.368997 2982.52516,615.828997 2980.84516,616.228997 C2980.72516,616.268997 2980.64516,616.268997 2980.60516,616.268997 C2980.20516,616.348997 2980.00516,616.648997 2980.00516,617.148997 C2980.00516,617.708997 2980.22516,617.968997 2980.70516,617.968997 C2981.28516,617.848997 2981.74516,617.748997 2982.06516,617.648997 C2982.64516,617.528997 2983.14516,617.408997 2983.56516,617.328997 C2983.48516,618.868997 2983.44516,620.348997 2983.44516,621.748997 C2983.44516,623.108997 2983.52516,624.048997 2983.68516,624.568997 C2983.80516,624.928997 2984.04516,625.108997 2984.44516,625.108997 C2984.96516,625.108997 2985.22516,624.628997 2985.22516,623.688997 C2985.22516,623.228997 2985.12516,622.888997 2984.96516,622.668997 C2984.92516,622.168997 2984.90516,621.388997 2984.90516,620.308997 C2984.90516,619.468997 2984.96516,618.328997 2985.12516,616.908997 C2985.70516,616.768997 2986.10516,616.668997 2986.34516,616.628997 C2986.52516,616.748997 2986.66516,616.788997 2986.76516,616.788997 C2986.88516,616.788997 2987.02516,616.768997 2987.20516,616.688997 L2988.12516,616.268997 C2988.48516,616.108997 2988.66516,615.848997 2988.66516,615.488997 L2988.66516,615.488997 Z M2997.82516,623.448997 C2997.82516,623.248997 2997.74516,623.048997 2997.58516,622.848997 C2997.42516,622.688997 2997.22516,622.588997 2997.02516,622.588997 C2996.86516,622.588997 2996.60516,622.628997 2996.26516,622.668997 C2995.92516,622.708997 2995.66516,622.728997 2995.50516,622.728997 C2994.90516,622.728997 2994.38516,622.448997 2993.90516,621.868997 C2995.90516,620.788997 2996.90516,619.508997 2996.90516,618.028997 C2996.90516,617.468997 2996.66516,616.928997 2996.18516,616.448997 C2995.70516,615.968997 2995.22516,615.728997 2994.72516,615.728997 C2993.86516,615.728997 2993.16516,616.228997 2992.60516,617.208997 C2992.12516,618.048997 2991.88516,618.948997 2991.88516,619.908997 C2991.88516,620.108997 2991.90516,620.388997 2991.96516,620.728997 L2991.50516,620.728997 C2991.22516,620.728997 2990.96516,620.628997 2990.68516,620.428997 C2990.40516,620.228997 2990.20516,620.128997 2990.08516,620.128997 C2989.56516,620.128997 2989.30516,620.408997 2989.30516,620.968997 C2989.30516,621.408997 2989.62516,621.768997 2990.30516,622.048997 C2990.82516,622.268997 2991.32516,622.368997 2991.84516,622.368997 L2992.44516,622.368997 C2993.16516,623.748997 2994.28516,624.428997 2995.80516,624.428997 C2997.14516,624.428997 2997.82516,624.088997 2997.82516,623.448997 L2997.82516,623.448997 Z M2995.32516,618.108997 C2995.32516,618.768997 2994.72516,619.488997 2993.52516,620.268997 L2993.52516,619.908997 C2993.52516,619.368997 2993.60516,618.848997 2993.80516,618.348997 C2994.00516,617.748997 2994.28516,617.448997 2994.64516,617.448997 C2994.80516,617.448997 2994.96516,617.528997 2995.12516,617.648997 C2995.24516,617.808997 2995.32516,617.948997 2995.32516,618.108997 L2995.32516,618.108997 Z M2896.30516,642.408997 C2896.30516,641.628997 2896.08516,640.908997 2895.64516,640.268997 C2895.18516,639.648997 2894.60516,639.208997 2893.90516,638.968997 C2893.62516,638.888997 2893.46516,638.848997 2893.42516,638.848997 C2893.26516,638.848997 2893.08516,638.948997 2892.84516,639.108997 C2892.56516,639.268997 2892.34516,639.388997 2892.18516,639.448997 C2891.50516,639.788997 2890.94516,640.388997 2890.54516,641.228997 C2890.14516,641.988997 2889.96516,642.808997 2889.96516,643.668997 C2889.96516,644.688997 2890.22516,645.528997 2890.78516,646.188997 C2891.34516,646.828997 2892.04516,647.168997 2892.88516,647.168997 C2893.84516,647.168997 2894.66516,646.728997 2895.32516,645.808997 C2895.96516,644.888997 2896.30516,643.768997 2896.30516,642.408997 L2896.30516,642.408997 Z M2894.72516,642.708997 C2894.72516,643.388997 2894.52516,644.008997 2894.16516,644.588997 C2893.76516,645.188997 2893.34516,645.488997 2892.86516,645.488997 C2892.46516,645.488997 2892.14516,645.308997 2891.90516,644.928997 C2891.64516,644.568997 2891.52516,644.148997 2891.52516,643.668997 C2891.52516,643.028997 2891.66516,642.428997 2891.98516,641.868997 C2892.34516,641.228997 2892.80516,640.888997 2893.36516,640.888997 C2893.56516,641.008997 2893.82516,641.068997 2894.14516,641.068997 C2894.52516,641.308997 2894.72516,641.868997 2894.72516,642.708997 L2894.72516,642.708997 Z M2906.52516,643.148997 C2906.52516,642.048997 2906.24516,641.148997 2905.72516,640.448997 C2905.12516,639.668997 2904.30516,639.268997 2903.24516,639.268997 C2902.28516,639.268997 2901.22516,639.768997 2900.10516,640.748997 C2900.42516,638.708997 2901.78516,637.268997 2904.22516,636.468997 C2904.92516,636.228997 2905.28516,635.888997 2905.28516,635.408997 C2905.28516,635.068997 2905.16516,634.708997 2904.96516,634.328997 C2904.72516,633.968997 2904.46516,633.768997 2904.18516,633.768997 C2903.92516,633.768997 2903.78516,633.948997 2903.76516,634.288997 C2903.72516,634.688997 2903.70516,634.888997 2903.68516,634.928997 C2903.62516,635.028997 2903.42516,635.148997 2903.08516,635.288997 C2899.92516,636.568997 2898.36516,638.948997 2898.36516,642.448997 C2898.36516,643.948997 2898.66516,645.168997 2899.30516,646.128997 C2900.00516,647.128997 2900.98516,647.648997 2902.24516,647.648997 C2903.36516,647.648997 2904.34516,647.208997 2905.22516,646.348997 C2906.08516,645.468997 2906.52516,644.408997 2906.52516,643.148997 L2906.52516,643.148997 Z M2905.08516,642.688997 C2905.08516,643.648997 2904.80516,644.448997 2904.26516,645.128997 C2903.70516,645.808997 2903.00516,646.148997 2902.20516,646.148997 C2901.56516,646.148997 2901.02516,645.868997 2900.62516,645.268997 C2900.22516,644.668997 2900.02516,643.928997 2900.02516,643.028997 C2900.02516,642.928997 2900.02516,642.788997 2900.04516,642.588997 C2900.54516,642.528997 2900.82516,642.308997 2900.88516,641.948997 C2901.80516,641.188997 2902.64516,640.788997 2903.36516,640.788997 C2903.80516,640.788997 2904.20516,640.988997 2904.56516,641.348997 C2904.90516,641.748997 2905.08516,642.188997 2905.08516,642.688997 L2905.08516,642.688997 Z M2922.10516,641.728997 C2922.10516,640.728997 2921.84516,639.928997 2921.36516,639.288997 C2920.80516,638.608997 2920.02516,638.268997 2919.04516,638.268997 C2918.24516,638.268997 2917.48516,638.488997 2916.76516,638.888997 C2916.18516,639.228997 2915.90516,639.628997 2915.90516,640.068997 C2915.90516,640.268997 2915.96516,640.448997 2916.12516,640.568997 C2916.26516,640.728997 2916.42516,640.788997 2916.62516,640.788997 C2916.72516,640.788997 2916.98516,640.628997 2917.38516,640.308997 C2917.96516,639.848997 2918.48516,639.608997 2918.92516,639.608997 C2919.84516,639.608997 2920.36516,640.268997 2920.48516,641.568997 C2918.36516,642.108997 2917.16516,642.388997 2916.88516,642.408997 C2916.70516,642.388997 2916.56516,642.368997 2916.48516,642.328997 C2916.16516,642.528997 2916.02516,642.788997 2916.02516,643.108997 C2916.02516,643.308997 2916.10516,643.488997 2916.26516,643.648997 C2916.44516,643.808997 2916.64516,643.888997 2916.84516,643.888997 C2917.10516,643.888997 2917.52516,643.808997 2918.10516,643.648997 C2918.78516,643.448997 2919.56516,643.248997 2920.42516,643.068997 C2920.26516,643.968997 2919.90516,644.708997 2919.36516,645.288997 C2918.82516,645.888997 2918.18516,646.168997 2917.44516,646.168997 C2917.12516,646.168997 2916.66516,646.028997 2916.08516,645.748997 C2915.48516,645.748997 2915.20516,646.048997 2915.20516,646.648997 C2915.20516,646.948997 2915.44516,647.228997 2915.96516,647.468997 C2916.36516,647.648997 2916.74516,647.748997 2917.10516,647.748997 C2918.72516,647.748997 2919.98516,647.108997 2920.90516,645.868997 C2921.70516,644.768997 2922.10516,643.388997 2922.10516,641.728997 L2922.10516,641.728997 Z M2931.98516,638.488997 C2931.98516,638.288997 2931.90516,638.088997 2931.76516,637.908997 C2931.62516,637.748997 2931.46516,637.648997 2931.28516,637.648997 C2930.98516,637.648997 2930.56516,637.728997 2930.00516,637.848997 C2927.80516,638.368997 2925.84516,638.828997 2924.16516,639.228997 C2924.04516,639.268997 2923.96516,639.268997 2923.92516,639.268997 C2923.52516,639.348997 2923.32516,639.648997 2923.32516,640.148997 C2923.32516,640.708997 2923.54516,640.968997 2924.02516,640.968997 C2924.60516,640.848997 2925.06516,640.748997 2925.38516,640.648997 C2925.96516,640.528997 2926.46516,640.408997 2926.88516,640.328997 C2926.80516,641.868997 2926.76516,643.348997 2926.76516,644.748997 C2926.76516,646.108997 2926.84516,647.048997 2927.00516,647.568997 C2927.12516,647.928997 2927.36516,648.108997 2927.76516,648.108997 C2928.28516,648.108997 2928.54516,647.628997 2928.54516,646.688997 C2928.54516,646.228997 2928.44516,645.888997 2928.28516,645.668997 C2928.24516,645.168997 2928.22516,644.388997 2928.22516,643.308997 C2928.22516,642.468997 2928.28516,641.328997 2928.44516,639.908997 C2929.02516,639.768997 2929.42516,639.668997 2929.66516,639.628997 C2929.84516,639.748997 2929.98516,639.788997 2930.08516,639.788997 C2930.20516,639.788997 2930.34516,639.768997 2930.52516,639.688997 L2931.44516,639.268997 C2931.80516,639.108997 2931.98516,638.848997 2931.98516,638.488997 L2931.98516,638.488997 Z M2939.54516,642.408997 C2939.54516,641.628997 2939.32516,640.908997 2938.88516,640.268997 C2938.42516,639.648997 2937.84516,639.208997 2937.14516,638.968997 C2936.86516,638.888997 2936.70516,638.848997 2936.66516,638.848997 C2936.50516,638.848997 2936.32516,638.948997 2936.08516,639.108997 C2935.80516,639.268997 2935.58516,639.388997 2935.42516,639.448997 C2934.74516,639.788997 2934.18516,640.388997 2933.78516,641.228997 C2933.38516,641.988997 2933.20516,642.808997 2933.20516,643.668997 C2933.20516,644.688997 2933.46516,645.528997 2934.02516,646.188997 C2934.58516,646.828997 2935.28516,647.168997 2936.12516,647.168997 C2937.08516,647.168997 2937.90516,646.728997 2938.56516,645.808997 C2939.20516,644.888997 2939.54516,643.768997 2939.54516,642.408997 L2939.54516,642.408997 Z M2937.96516,642.708997 C2937.96516,643.388997 2937.76516,644.008997 2937.40516,644.588997 C2937.00516,645.188997 2936.58516,645.488997 2936.10516,645.488997 C2935.70516,645.488997 2935.38516,645.308997 2935.14516,644.928997 C2934.88516,644.568997 2934.76516,644.148997 2934.76516,643.668997 C2934.76516,643.028997 2934.90516,642.428997 2935.22516,641.868997 C2935.58516,641.228997 2936.04516,640.888997 2936.60516,640.888997 C2936.80516,641.008997 2937.06516,641.068997 2937.38516,641.068997 C2937.76516,641.308997 2937.96516,641.868997 2937.96516,642.708997 L2937.96516,642.708997 Z M2950.34516,647.628997 C2950.34516,647.448997 2950.28516,647.248997 2950.16516,647.008997 C2950.04516,646.768997 2949.90516,646.608997 2949.76516,646.488997 C2949.44516,645.808997 2949.16516,644.568997 2948.92516,642.788997 C2948.76516,641.868997 2948.64516,640.848997 2948.52516,639.768997 C2948.46516,639.348997 2948.22516,639.128997 2947.80516,639.128997 C2947.42516,639.128997 2946.92516,639.948997 2946.30516,641.588997 C2946.08516,642.148997 2945.90516,642.628997 2945.74516,643.068997 C2945.20516,642.268997 2944.72516,641.068997 2944.28516,639.428997 C2944.12516,638.828997 2943.88516,638.528997 2943.58516,638.528997 C2943.20516,638.528997 2942.86516,638.988997 2942.56516,639.888997 C2942.50516,639.888997 2942.42516,639.868997 2942.32516,639.868997 C2942.18516,639.868997 2942.06516,639.928997 2941.98516,640.028997 C2941.86516,640.148997 2941.80516,640.288997 2941.80516,640.428997 C2941.80516,640.468997 2941.80516,640.588997 2941.82516,640.788997 C2941.82516,641.008997 2941.84516,641.128997 2941.84516,641.168997 C2941.84516,641.528997 2941.80516,642.028997 2941.72516,642.708997 C2941.64516,643.388997 2941.60516,644.148997 2941.60516,644.968997 C2941.60516,646.308997 2941.86516,646.968997 2942.40516,646.968997 C2942.80516,646.968997 2943.00516,646.528997 2943.04516,645.628997 C2943.10516,643.868997 2943.26516,642.408997 2943.50516,641.248997 C2944.56516,643.808997 2945.40516,645.088997 2946.00516,645.088997 C2946.20516,645.088997 2946.34516,645.008997 2946.46516,644.808997 C2946.56516,644.648997 2946.68516,644.288997 2946.84516,643.768997 C2947.10516,642.888997 2947.32516,642.188997 2947.50516,641.708997 C2947.70516,643.928997 2947.98516,645.568997 2948.36516,646.628997 C2948.78516,647.848997 2949.22516,648.468997 2949.66516,648.468997 C2949.82516,648.468997 2949.98516,648.368997 2950.12516,648.188997 C2950.26516,647.988997 2950.34516,647.808997 2950.34516,647.628997 L2950.34516,647.628997 Z" id="Не-забывайте-об-этом" transform="translate(2940.165162, 627.958997) rotate(-10.000000) translate(-2940.165162, -627.958997) "></path>
        </g>
    </g>
</svg>