<?xml version="1.0" encoding="UTF-8"?>
<svg width="143px" height="62px" viewBox="0 0 143 62" version="1.1" xmlns="http://www.w3.org/2000/svg" xmlns:xlink="http://www.w3.org/1999/xlink">
    <!-- Generator: Sketch 40.3 (33839) - http://www.bohemiancoding.com/sketch -->
    <title>с Канефрон® Н жизнь</title>
    <desc>Created with Sketch.</desc>
    <defs></defs>
    <g id="Page-1" stroke="none" stroke-width="1" fill="none" fill-rule="evenodd">
        <g id="Desktop" transform="translate(-573.000000, -577.000000)" fill="#354777">
            <path d="M583.198335,601.361228 C583.198335,601.161228 583.118335,600.961228 582.958335,600.761228 C582.798335,600.601228 582.618335,600.501228 582.418335,600.501228 C582.258335,600.501228 582.018335,600.641228 581.738335,600.901228 C581.498335,601.101228 581.258335,601.301228 581.058335,601.501228 C580.718335,601.761228 580.298335,601.881228 579.798335,601.881228 C578.998335,601.881228 578.618335,601.401228 578.618335,600.401228 C578.618335,599.781228 578.798335,599.161228 579.158335,598.561228 C579.518335,597.961228 579.958335,597.461228 580.498335,597.101228 C580.738335,597.241228 581.098335,597.301228 581.598335,597.301228 C581.858335,597.301228 582.118335,597.201228 582.378335,596.961228 C582.598335,596.721228 582.718335,596.501228 582.718335,596.261228 C582.718335,595.941228 582.598335,595.701228 582.358335,595.501228 C582.098335,595.321228 581.818335,595.221228 581.518335,595.221228 C580.258335,595.221228 579.138335,595.881228 578.178335,597.181228 C577.398335,598.221228 577.018335,599.361228 577.018335,600.601228 C577.018335,601.481228 577.298335,602.181228 577.858335,602.741228 C578.418335,603.281228 579.118335,603.561228 579.958335,603.561228 C580.718335,603.561228 581.498335,603.261228 582.258335,602.661228 C582.878335,602.181228 583.198335,601.761228 583.198335,601.361228 L583.198335,601.361228 Z M603.438335,590.601228 C603.378335,590.121228 603.098335,589.821228 602.618335,589.721228 C601.858335,589.761228 600.678335,590.341228 599.058335,591.441228 C597.738335,592.361228 596.638335,593.201228 595.798335,594.001228 L593.838335,595.841228 C594.158335,594.221228 594.478335,592.861228 594.778335,591.781228 C594.838335,591.501228 595.098335,590.701228 595.558335,589.381228 C595.978335,588.121228 596.198335,587.401228 596.218335,587.201228 C596.178335,586.721228 595.898335,586.481228 595.418335,586.481228 C595.098335,586.481228 594.838335,586.721228 594.678335,587.161228 C593.478335,590.201228 592.678335,593.021228 592.278335,595.661228 C591.978335,597.521228 591.818335,598.941228 591.818335,599.941228 C591.798335,601.121228 591.798335,602.001228 591.798335,602.561228 C591.798335,602.741228 591.818335,602.961228 591.898335,603.201228 C591.898335,603.401228 591.938335,603.601228 592.038335,603.761228 C592.138335,604.041228 592.378335,604.201228 592.778335,604.221228 C593.218335,604.161228 593.458335,603.901228 593.518335,603.441228 C593.438335,602.761228 593.398335,601.821228 593.398335,600.661228 C593.398335,599.941228 593.438335,599.081228 593.518335,598.121228 C593.778335,598.101228 593.978335,598.041228 594.098335,597.941228 C594.138335,597.941228 594.298335,597.781228 594.618335,597.501228 C595.438335,598.601228 596.258335,599.521228 597.078335,600.281228 C598.558335,601.681228 599.658335,602.561228 600.378335,602.921228 C600.898335,603.341228 601.358335,603.581228 601.758335,603.621228 C602.178335,603.501228 602.418335,603.221228 602.458335,602.801228 C602.438335,602.521228 602.218335,602.181228 601.818335,601.801228 L600.638335,600.701228 C600.438335,600.541228 600.238335,600.461228 600.038335,600.421228 L599.758335,600.441228 C599.158335,600.081228 598.438335,599.441228 597.618335,598.561228 C596.858335,597.761228 596.238335,597.021228 595.778335,596.321228 C597.758335,594.401228 599.518335,593.021228 601.038335,592.141228 C601.298335,592.261228 601.478335,592.301228 601.598335,592.301228 C601.738335,592.301228 601.918335,592.221228 602.138335,592.061228 C602.998335,591.721228 603.438335,591.241228 603.438335,590.601228 L603.438335,590.601228 Z M611.298335,598.561228 C611.298335,598.381228 611.198335,598.181228 611.038335,597.981228 C611.038335,597.521228 610.958335,597.121228 610.838335,596.761228 C610.858335,596.681228 610.878335,596.581228 610.878335,596.481228 C610.878335,596.241228 610.738335,596.001228 610.498335,595.801228 C610.238335,595.601228 609.978335,595.481228 609.718335,595.481228 C608.618335,595.481228 607.418335,596.121228 606.098335,597.361228 C604.718335,598.641228 604.038335,599.881228 604.038335,601.041228 C604.038335,601.661228 604.238335,602.201228 604.678335,602.681228 C605.098335,603.181228 605.598335,603.421228 606.178335,603.421228 C607.078335,603.421228 608.078335,602.861228 609.198335,601.741228 C609.298335,603.261228 609.638335,604.041228 610.218335,604.041228 C610.418335,604.041228 610.618335,603.961228 610.798335,603.841228 C610.958335,603.681228 611.058335,603.481228 611.058335,603.281228 C611.058335,603.221228 610.998335,602.981228 610.918335,602.501228 C610.818335,602.041228 610.778335,601.681228 610.778335,601.441228 C610.778335,600.641228 610.898335,599.841228 611.178335,599.001228 C611.258335,598.781228 611.298335,598.641228 611.298335,598.561228 L611.298335,598.561228 Z M609.478335,597.981228 C609.478335,598.661228 609.078335,599.461228 608.318335,600.381228 C607.558335,601.301228 606.858335,601.741228 606.258335,601.741228 C605.838335,601.741228 605.638335,601.501228 605.638335,601.001228 C605.638335,600.361228 606.138335,599.561228 607.158335,598.581228 C608.078335,597.701228 608.738335,597.241228 609.118335,597.241228 C609.358335,597.241228 609.478335,597.501228 609.478335,597.981228 L609.478335,597.981228 Z M619.998335,595.801228 C619.998335,595.281228 619.758335,595.021228 619.278335,595.021228 C618.878335,595.021228 618.618335,595.381228 618.518335,596.061228 C618.418335,596.601228 618.298335,597.361228 618.178335,598.341228 C617.298335,598.561228 616.438335,598.721228 615.598335,598.801228 C615.798335,597.521228 615.998335,596.561228 616.198335,595.901228 C616.318335,595.541228 616.418335,595.261228 616.518335,595.021228 C616.478335,594.481228 616.238335,594.201228 615.758335,594.201228 C615.418335,594.201228 615.198335,594.361228 615.078335,594.681228 C614.678335,595.641228 614.358335,597.021228 614.158335,598.821228 C613.838335,598.821228 613.618335,598.801228 613.498335,598.781228 C613.098335,598.781228 612.918335,599.021228 612.918335,599.461228 C612.918335,599.961228 613.198335,600.201228 613.778335,600.201228 L614.018335,600.201228 C613.958335,600.961228 613.898335,601.821228 613.858335,602.821228 C613.858335,602.881228 613.838335,602.981228 613.818335,603.101228 C613.778335,603.221228 613.778335,603.301228 613.778335,603.381228 C613.778335,603.581228 613.858335,603.761228 614.018335,603.921228 C614.178335,604.081228 614.358335,604.161228 614.558335,604.161228 C615.038335,604.161228 615.298335,603.901228 615.318335,603.401228 C615.318335,602.721228 615.378335,601.641228 615.478335,600.161228 C616.338335,600.081228 617.178335,599.941228 618.018335,599.741228 C617.918335,600.801228 617.858335,601.641228 617.858335,602.241228 C617.858335,602.301228 617.838335,602.381228 617.818335,602.501228 C617.778335,602.601228 617.758335,602.681228 617.758335,602.741228 C617.758335,603.221228 617.818335,603.581228 617.978335,603.821228 C618.138335,604.081228 618.318335,604.221228 618.558335,604.221228 C618.758335,604.221228 618.938335,604.141228 619.098335,603.981228 C619.238335,603.821228 619.318335,603.621228 619.318335,603.401228 C619.318335,603.361228 619.298335,603.261228 619.298335,603.061228 C619.278335,602.861228 619.278335,602.701228 619.278335,602.621228 C619.278335,601.281228 619.478335,599.221228 619.918335,596.441228 C619.958335,596.081228 619.998335,595.881228 619.998335,595.801228 L619.998335,595.801228 Z M629.978335,602.841228 C629.978335,602.641228 629.898335,602.441228 629.738335,602.241228 C629.578335,602.081228 629.378335,601.981228 629.178335,601.981228 C629.018335,601.981228 628.758335,602.021228 628.418335,602.061228 C628.078335,602.101228 627.818335,602.121228 627.658335,602.121228 C627.058335,602.121228 626.538335,601.841228 626.058335,601.261228 C628.058335,600.181228 629.058335,598.901228 629.058335,597.421228 C629.058335,596.861228 628.818335,596.321228 628.338335,595.841228 C627.858335,595.361228 627.378335,595.121228 626.878335,595.121228 C626.018335,595.121228 625.318335,595.621228 624.758335,596.601228 C624.278335,597.441228 624.038335,598.341228 624.038335,599.301228 C624.038335,599.501228 624.058335,599.781228 624.118335,600.121228 L623.658335,600.121228 C623.378335,600.121228 623.118335,600.021228 622.838335,599.821228 C622.558335,599.621228 622.358335,599.521228 622.238335,599.521228 C621.718335,599.521228 621.458335,599.801228 621.458335,600.361228 C621.458335,600.801228 621.778335,601.161228 622.458335,601.441228 C622.978335,601.661228 623.478335,601.761228 623.998335,601.761228 L624.598335,601.761228 C625.318335,603.141228 626.438335,603.821228 627.958335,603.821228 C629.298335,603.821228 629.978335,603.481228 629.978335,602.841228 L629.978335,602.841228 Z M627.478335,597.501228 C627.478335,598.161228 626.878335,598.881228 625.678335,599.661228 L625.678335,599.301228 C625.678335,598.761228 625.758335,598.241228 625.958335,597.741228 C626.158335,597.141228 626.438335,596.841228 626.798335,596.841228 C626.958335,596.841228 627.118335,596.921228 627.278335,597.041228 C627.398335,597.201228 627.478335,597.341228 627.478335,597.501228 L627.478335,597.501228 Z M645.458335,597.681228 C645.458335,596.801228 645.258335,596.061228 644.858335,595.461228 C644.418335,594.841228 643.858335,594.521228 643.178335,594.521228 C641.778335,594.521228 640.438335,595.781228 639.178335,598.261228 L639.398335,596.381228 C639.638335,594.741228 639.818335,593.541228 639.978335,592.781228 C639.978335,592.421228 639.878335,592.081228 639.698335,591.801228 C639.518335,591.541228 639.258335,591.401228 638.938335,591.401228 C638.498335,591.401228 638.238335,591.901228 638.138335,592.881228 C637.878335,595.041228 637.738335,596.261228 637.718335,596.561228 C637.398335,597.361228 636.818335,598.321228 635.938335,599.441228 C634.978335,600.641228 634.258335,601.221228 633.818335,601.221228 C633.338335,601.221228 633.118335,600.961228 633.118335,600.421228 C633.118335,599.661228 633.378335,598.821228 633.938335,597.921228 C634.478335,597.041228 635.018335,596.581228 635.538335,596.581228 C635.778335,596.581228 636.018335,596.681228 636.298335,596.881228 C636.518335,597.061228 636.698335,597.141228 636.838335,597.141228 C637.158335,597.141228 637.338335,597.021228 637.338335,596.741228 C637.338335,596.701228 637.318335,596.641228 637.318335,596.581228 C637.178335,596.381228 637.078335,596.241228 636.998335,596.121228 C636.638335,595.541228 636.098335,595.241228 635.378335,595.241228 C634.398335,595.241228 633.498335,595.881228 632.658335,597.141228 C631.858335,598.321228 631.458335,599.441228 631.458335,600.521228 C631.458335,601.241228 631.618335,601.801228 631.958335,602.241228 C632.278335,602.681228 632.758335,602.881228 633.398335,602.881228 C634.778335,602.881228 636.198335,601.821228 637.638335,599.661228 C637.418335,602.321228 637.258335,604.281228 637.138335,605.581228 C637.118335,605.701228 637.098335,605.861228 637.078335,606.101228 C637.038335,606.261228 637.038335,606.381228 637.038335,606.461228 C637.038335,607.041228 637.198335,607.441228 637.518335,607.641228 C637.698335,607.741228 637.918335,607.801228 638.178335,607.801228 C638.418335,607.801228 638.598335,607.661228 638.758335,607.401228 C638.898335,607.121228 638.978335,606.821228 638.978335,606.521228 C638.978335,606.481228 638.958335,606.321228 638.938335,606.081228 C638.898335,605.801228 638.898335,605.601228 638.898335,605.521228 C638.898335,605.421228 638.878335,605.241228 638.878335,605.001228 C638.858335,604.761228 638.858335,604.581228 638.858335,604.501228 C638.858335,604.421228 638.858335,604.081228 638.878335,603.501228 C638.878335,602.941228 638.898335,602.601228 638.898335,602.481228 C638.898335,601.601228 639.438335,600.321228 640.518335,598.601228 C641.598335,596.921228 642.418335,596.061228 643.018335,596.061228 C643.618335,596.061228 643.918335,596.641228 643.918335,597.781228 C643.918335,598.541228 643.798335,599.241228 643.558335,599.881228 C643.218335,600.741228 642.758335,601.161228 642.158335,601.161228 C641.918335,601.161228 641.618335,600.981228 641.298335,600.601228 C640.978335,600.241228 640.738335,600.041228 640.578335,600.001228 C640.398335,600.041228 640.238335,600.141228 640.118335,600.341228 C639.978335,600.541228 639.918335,600.721228 639.918335,600.901228 C639.918335,601.241228 640.158335,601.601228 640.638335,601.981228 C641.118335,602.381228 641.638335,602.581228 642.198335,602.581228 C643.398335,602.581228 644.258335,602.021228 644.818335,600.901228 C645.238335,600.061228 645.458335,599.001228 645.458335,597.681228 L645.458335,597.681228 Z M654.758335,596.281228 C654.758335,595.321228 654.538335,594.521228 654.098335,593.881228 C653.618335,593.181228 652.918335,592.821228 652.038335,592.821228 C650.778335,592.821228 649.798335,593.701228 649.098335,595.461228 C648.618335,596.681228 648.378335,598.081228 648.378335,599.641228 C648.378335,599.841228 648.378335,600.001228 648.398335,600.101228 C647.838335,600.301228 647.578335,600.601228 647.578335,601.021228 C647.578335,601.541228 647.838335,601.821228 648.398335,601.861228 C648.438335,602.181228 648.458335,602.661228 648.458335,603.301228 C648.458335,604.581228 648.378335,605.481228 648.258335,606.041228 C648.118335,606.581228 648.058335,606.881228 648.058335,606.941228 C648.058335,607.161228 648.138335,607.361228 648.298335,607.541228 C648.458335,607.701228 648.658335,607.801228 648.878335,607.801228 C649.298335,607.801228 649.598335,607.381228 649.778335,606.561228 C649.978335,605.641228 650.078335,604.701228 650.078335,603.781228 C650.078335,602.941228 650.038335,602.121228 649.978335,601.321228 C653.158335,600.161228 654.758335,598.481228 654.758335,596.281228 L654.758335,596.281228 Z M653.158335,595.941228 C653.158335,597.581228 652.098335,598.781228 649.998335,599.541228 C649.998335,598.461228 650.178335,597.361228 650.558335,596.281228 C650.978335,595.101228 651.478335,594.501228 652.038335,594.501228 C652.378335,594.501228 652.658335,594.661228 652.878335,594.941228 C653.058335,595.221228 653.158335,595.561228 653.158335,595.941228 L653.158335,595.941228 Z M663.078335,598.801228 C663.078335,598.021228 662.858335,597.301228 662.418335,596.661228 C661.958335,596.041228 661.378335,595.601228 660.678335,595.361228 C660.398335,595.281228 660.238335,595.241228 660.198335,595.241228 C660.038335,595.241228 659.858335,595.341228 659.618335,595.501228 C659.338335,595.661228 659.118335,595.781228 658.958335,595.841228 C658.278335,596.181228 657.718335,596.781228 657.318335,597.621228 C656.918335,598.381228 656.738335,599.201228 656.738335,600.061228 C656.738335,601.081228 656.998335,601.921228 657.558335,602.581228 C658.118335,603.221228 658.818335,603.561228 659.658335,603.561228 C660.618335,603.561228 661.438335,603.121228 662.098335,602.201228 C662.738335,601.281228 663.078335,600.161228 663.078335,598.801228 L663.078335,598.801228 Z M661.498335,599.101228 C661.498335,599.781228 661.298335,600.401228 660.938335,600.981228 C660.538335,601.581228 660.118335,601.881228 659.638335,601.881228 C659.238335,601.881228 658.918335,601.701228 658.678335,601.321228 C658.418335,600.961228 658.298335,600.541228 658.298335,600.061228 C658.298335,599.421228 658.438335,598.821228 658.758335,598.261228 C659.118335,597.621228 659.578335,597.281228 660.138335,597.281228 C660.338335,597.401228 660.598335,597.461228 660.918335,597.461228 C661.298335,597.701228 661.498335,598.261228 661.498335,599.101228 L661.498335,599.101228 Z M671.798335,595.801228 C671.798335,595.281228 671.558335,595.021228 671.078335,595.021228 C670.678335,595.021228 670.418335,595.381228 670.318335,596.061228 C670.218335,596.601228 670.098335,597.361228 669.978335,598.341228 C669.098335,598.561228 668.238335,598.721228 667.398335,598.801228 C667.598335,597.521228 667.798335,596.561228 667.998335,595.901228 C668.118335,595.541228 668.218335,595.261228 668.318335,595.021228 C668.278335,594.481228 668.038335,594.201228 667.558335,594.201228 C667.218335,594.201228 666.998335,594.361228 666.878335,594.681228 C666.478335,595.641228 666.158335,597.021228 665.958335,598.821228 C665.638335,598.821228 665.418335,598.801228 665.298335,598.781228 C664.898335,598.781228 664.718335,599.021228 664.718335,599.461228 C664.718335,599.961228 664.998335,600.201228 665.578335,600.201228 L665.818335,600.201228 C665.758335,600.961228 665.698335,601.821228 665.658335,602.821228 C665.658335,602.881228 665.638335,602.981228 665.618335,603.101228 C665.578335,603.221228 665.578335,603.301228 665.578335,603.381228 C665.578335,603.581228 665.658335,603.761228 665.818335,603.921228 C665.978335,604.081228 666.158335,604.161228 666.358335,604.161228 C666.838335,604.161228 667.098335,603.901228 667.118335,603.401228 C667.118335,602.721228 667.178335,601.641228 667.278335,600.161228 C668.138335,600.081228 668.978335,599.941228 669.818335,599.741228 C669.718335,600.801228 669.658335,601.641228 669.658335,602.241228 C669.658335,602.301228 669.638335,602.381228 669.618335,602.501228 C669.578335,602.601228 669.558335,602.681228 669.558335,602.741228 C669.558335,603.221228 669.618335,603.581228 669.778335,603.821228 C669.938335,604.081228 670.118335,604.221228 670.358335,604.221228 C670.558335,604.221228 670.738335,604.141228 670.898335,603.981228 C671.038335,603.821228 671.118335,603.621228 671.118335,603.401228 C671.118335,603.361228 671.098335,603.261228 671.098335,603.061228 C671.078335,602.861228 671.078335,602.701228 671.078335,602.621228 C671.078335,601.281228 671.278335,599.221228 671.718335,596.441228 C671.758335,596.081228 671.798335,595.881228 671.798335,595.801228 L671.798335,595.801228 Z M685.638335,592.761228 C685.638335,591.281228 685.178335,590.141228 684.258335,589.301228 C683.378335,588.501228 682.198335,588.081228 680.758335,588.021228 C680.638335,587.781228 680.478335,587.641228 680.278335,587.641228 C678.558335,587.641228 677.058335,588.281228 675.818335,589.521228 C674.558335,590.781228 673.938335,592.301228 673.938335,594.101228 C673.938335,595.701228 674.378335,597.021228 675.278335,598.061228 C676.198335,599.161228 677.398335,599.701228 678.898335,599.701228 C680.718335,599.701228 682.298335,599.021228 683.638335,597.661228 C684.958335,596.281228 685.638335,594.641228 685.638335,592.761228 L685.638335,592.761228 Z M684.518335,592.901228 C684.518335,594.461228 683.938335,595.801228 682.818335,596.881228 C681.678335,598.001228 680.338335,598.541228 678.798335,598.541228 C677.658335,598.541228 676.758335,598.081228 676.078335,597.161228 C675.458335,596.341228 675.158335,595.321228 675.158335,594.101228 C675.158335,592.761228 675.558335,591.621228 676.358335,590.661228 C677.138335,589.701228 678.178335,589.101228 679.458335,588.901228 C679.698335,589.141228 679.838335,589.261228 679.878335,589.261228 C679.958335,589.261228 680.098335,589.261228 680.258335,589.241228 C680.438335,589.221228 680.578335,589.201228 680.678335,589.201228 C683.238335,589.201228 684.518335,590.441228 684.518335,592.901228 L684.518335,592.901228 Z M681.918335,592.041228 C681.918335,591.541228 681.738335,591.141228 681.418335,590.821228 C681.058335,590.521228 680.658335,590.361228 680.178335,590.361228 C679.778335,590.361228 679.318335,590.461228 678.838335,590.661228 C678.338335,590.881228 677.938335,591.141228 677.638335,591.461228 C677.438335,591.661228 677.318335,591.861228 677.298335,592.101228 C677.318335,592.301228 677.458335,592.461228 677.698335,592.601228 C677.618335,593.201228 677.578335,593.661228 677.558335,593.941228 C677.278335,594.021228 677.138335,594.201228 677.138335,594.521228 C677.138335,594.821228 677.258335,595.001228 677.518335,595.061228 L677.518335,595.381228 C677.518335,595.721228 677.558335,596.121228 677.658335,596.581228 C677.698335,596.881228 677.898335,597.021228 678.218335,597.021228 C678.598335,597.021228 678.798335,596.821228 678.798335,596.401228 C678.758335,596.201228 678.738335,595.921228 678.718335,595.521228 C679.678335,595.961228 680.258335,596.301228 680.438335,596.561228 C680.478335,596.941228 680.658335,597.121228 681.018335,597.121228 C681.398335,597.121228 681.598335,596.921228 681.598335,596.481228 C681.598335,595.841228 680.918335,595.221228 679.578335,594.581228 C681.138335,593.861228 681.918335,593.001228 681.918335,592.041228 L681.918335,592.041228 Z M680.758335,592.081228 C680.758335,592.681228 680.078335,593.221228 678.758335,593.721228 C678.818335,593.101228 678.858335,592.521228 678.898335,592.001228 C679.298335,591.741228 679.758335,591.601228 680.278335,591.601228 C680.598335,591.601228 680.758335,591.761228 680.758335,592.081228 L680.758335,592.081228 Z M705.858335,589.181228 C705.858335,588.981228 705.778335,588.781228 705.618335,588.601228 C705.458335,588.441228 705.258335,588.341228 705.058335,588.341228 C704.678335,588.341228 704.438335,588.561228 704.338335,588.981228 C704.198335,589.581228 704.098335,590.041228 704.058335,590.361228 C703.858335,591.321228 703.658335,592.641228 703.458335,594.321228 C701.898335,594.881228 700.058335,595.201228 697.938335,595.321228 C698.098335,593.901228 698.338335,592.541228 698.658335,591.261228 C698.858335,590.341228 699.018335,589.741228 699.138335,589.441228 C699.478335,588.401228 699.658335,587.801228 699.658335,587.661228 C699.658335,587.121228 699.378335,586.841228 698.858335,586.841228 C698.538335,586.841228 698.298335,587.021228 698.118335,587.361228 C698.058335,587.461228 697.938335,587.761228 697.778335,588.281228 C697.098335,590.201228 696.598335,592.581228 696.298335,595.421228 C696.138335,595.421228 695.838335,595.401228 695.418335,595.361228 C694.998335,595.341228 694.758335,595.321228 694.698335,595.321228 C694.498335,595.321228 694.338335,595.421228 694.218335,595.581228 C694.078335,595.761228 694.018335,595.941228 694.018335,596.141228 C694.018335,596.741228 694.458335,597.021228 695.378335,597.021228 L695.798335,597.021228 C695.958335,597.021228 696.098335,597.001228 696.178335,597.001228 C695.938335,599.681228 695.838335,601.821228 695.838335,603.421228 C695.838335,603.661228 695.898335,603.861228 696.058335,604.061228 C696.198335,604.261228 696.378335,604.361228 696.598335,604.361228 C696.818335,604.361228 697.018335,604.241228 697.198335,604.041228 C697.358335,603.821228 697.438335,603.561228 697.458335,603.281228 C697.578335,600.641228 697.698335,598.541228 697.818335,596.961228 C699.818335,596.801228 701.618335,596.501228 703.258335,596.101228 C702.978335,599.021228 702.858335,601.241228 702.858335,602.781228 C702.858335,603.861228 703.158335,604.421228 703.778335,604.421228 C703.978335,604.421228 704.178335,604.341228 704.338335,604.181228 C704.498335,604.001228 704.578335,603.801228 704.578335,603.581228 C704.578335,603.501228 704.558335,603.281228 704.558335,602.901228 C704.538335,602.521228 704.538335,602.241228 704.538335,602.041228 C704.538335,598.781228 704.918335,594.821228 705.698335,590.181228 L705.858335,589.181228 Z M580.798335,625.021228 C580.798335,624.581228 580.498335,624.341228 579.918335,624.281228 C578.038335,624.121228 576.698335,623.821228 575.918335,623.421228 C577.258335,621.781228 578.298335,620.561228 579.038335,619.761228 C579.198335,619.581228 579.278335,619.401228 579.278335,619.201228 C579.278335,619.001228 579.198335,618.801228 579.038335,618.621228 C578.878335,618.461228 578.698335,618.381228 578.498335,618.381228 C578.298335,618.381228 577.998335,618.641228 577.558335,619.161228 C577.078335,619.721228 576.458335,620.501228 575.698335,621.501228 C575.738335,620.881228 575.858335,620.141228 576.058335,619.261228 C576.178335,618.561228 576.258335,618.161228 576.258335,618.061228 C576.258335,617.541228 575.978335,617.261228 575.458335,617.261228 C575.058335,617.261228 574.798335,617.621228 574.678335,618.301228 C574.578335,618.781228 574.478335,619.501228 574.378335,620.441228 C573.118335,620.241228 572.178335,619.881228 571.578335,619.341228 C571.298335,619.121228 571.038335,619.001228 570.758335,619.001228 C570.578335,619.001228 570.438335,619.081228 570.318335,619.221228 C570.198335,619.401228 570.138335,619.561228 570.138335,619.721228 C570.138335,620.161228 570.538335,620.601228 571.378335,621.041228 C571.798335,621.281228 572.478335,621.521228 573.418335,621.781228 C572.438335,622.881228 571.458335,623.781228 570.458335,624.501228 C570.138335,624.741228 569.978335,625.001228 569.978335,625.301228 C569.978335,625.501228 570.038335,625.681228 570.198335,625.841228 C570.338335,626.001228 570.518335,626.081228 570.738335,626.081228 C570.978335,626.081228 571.278335,625.921228 571.638335,625.601228 C572.858335,624.501228 573.718335,623.661228 574.238335,623.081228 C574.278335,624.641228 574.378335,625.841228 574.558335,626.721228 C574.678335,627.241228 574.978335,627.501228 575.478335,627.501228 C575.658335,627.501228 575.818335,627.401228 575.978335,627.221228 C576.118335,627.041228 576.198335,626.861228 576.198335,626.681228 C576.038335,626.041228 575.898335,625.501228 575.818335,625.081228 C576.758335,625.361228 577.578335,625.541228 578.298335,625.661228 C579.078335,625.821228 579.658335,625.881228 580.058335,625.881228 C580.538335,625.881228 580.798335,625.601228 580.798335,625.021228 L580.798335,625.021228 Z M589.858335,626.321228 C589.858335,626.181228 589.758335,626.001228 589.578335,625.801228 C589.138335,625.321228 588.938335,624.101228 588.938335,622.141228 C588.938335,621.441228 589.038335,620.261228 589.258335,618.601228 C589.258335,618.381228 589.158335,618.181228 588.998335,617.981228 C588.818335,617.801228 588.618335,617.701228 588.398335,617.701228 C588.058335,617.701228 587.338335,618.441228 586.258335,619.921228 C585.378335,621.081228 584.658335,622.141228 584.058335,623.061228 C584.198335,621.501228 584.298335,620.361228 584.358335,619.681228 C584.358335,619.361228 584.238335,619.081228 584.038335,618.841228 C583.838335,618.621228 583.578335,618.501228 583.258335,618.501228 C583.078335,618.501228 582.918335,618.621228 582.758335,618.841228 C582.798335,619.421228 582.838335,619.761228 582.838335,619.841228 C582.838335,620.201228 582.778335,621.101228 582.678335,622.561228 L582.638335,623.141228 C582.618335,623.441228 582.578335,623.841228 582.538335,624.341228 C582.478335,624.821228 582.438335,625.121228 582.438335,625.241228 C582.458335,625.521228 582.538335,625.741228 582.698335,625.861228 C583.018335,626.181228 583.218335,626.321228 583.298335,626.321228 C583.578335,626.321228 583.918335,626.021228 584.278335,625.381228 C585.018335,624.141228 585.538335,623.261228 585.858335,622.781228 C586.378335,621.921228 586.938335,621.121228 587.558335,620.401228 C587.558335,620.601228 587.538335,621.021228 587.538335,621.641228 C587.518335,622.281228 587.518335,622.621228 587.518335,622.701228 C587.518335,623.741228 587.618335,624.621228 587.838335,625.381228 C588.138335,626.481228 588.578335,627.041228 589.138335,627.041228 C589.258335,627.041228 589.418335,626.941228 589.598335,626.781228 C589.758335,626.581228 589.858335,626.441228 589.858335,626.321228 L589.858335,626.321228 Z M598.178335,623.881228 C598.178335,622.681228 597.578335,621.881228 596.398335,621.521228 C597.258335,621.041228 597.698335,620.441228 597.698335,619.701228 C597.698335,618.461228 596.718335,617.841228 594.798335,617.841228 C593.138335,617.841228 592.318335,618.201228 592.318335,618.921228 C592.318335,619.441228 592.558335,619.701228 593.038335,619.721228 C593.158335,619.701228 593.458335,619.601228 593.938335,619.401228 C594.258335,619.281228 594.558335,619.201228 594.798335,619.201228 C595.718335,619.201228 596.178335,619.421228 596.178335,619.861228 C596.178335,620.141228 595.938335,620.441228 595.458335,620.721228 C595.018335,620.961228 594.518335,621.141228 593.938335,621.261228 C593.218335,621.421228 592.838335,621.501228 592.778335,621.521228 C592.538335,621.621228 592.438335,621.821228 592.438335,622.101228 C592.438335,622.301228 592.498335,622.521228 592.658335,622.721228 C592.798335,622.941228 592.978335,623.041228 593.178335,623.041228 C593.278335,623.041228 593.418335,623.001228 593.598335,622.881228 C593.958335,622.681228 594.378335,622.561228 594.838335,622.561228 C595.298335,622.561228 595.698335,622.641228 596.058335,622.801228 C596.498335,623.001228 596.718335,623.301228 596.718335,623.701228 C596.718335,624.181228 596.338335,624.661228 595.618335,625.121228 C594.938335,625.581228 594.358335,625.801228 593.878335,625.801228 C593.318335,625.801228 593.058335,625.721228 593.058335,625.561228 C593.058335,625.481228 593.078335,625.361228 593.138335,625.241228 C593.178335,625.101228 593.198335,625.001228 593.198335,624.961228 C593.198335,624.601228 592.958335,624.421228 592.498335,624.421228 C592.338335,624.421228 592.158335,624.561228 591.978335,624.801228 C591.778335,625.081228 591.698335,625.321228 591.698335,625.521228 C591.698335,625.801228 591.798335,626.101228 592.038335,626.421228 C592.398335,626.941228 593.058335,627.201228 593.998335,627.201228 C594.918335,627.201228 595.838335,626.861228 596.738335,626.221228 C597.698335,625.541228 598.178335,624.761228 598.178335,623.881228 L598.178335,623.881228 Z M606.678335,618.801228 C606.678335,618.281228 606.438335,618.021228 605.958335,618.021228 C605.558335,618.021228 605.298335,618.381228 605.198335,619.061228 C605.098335,619.601228 604.978335,620.361228 604.858335,621.341228 C603.978335,621.561228 603.118335,621.721228 602.278335,621.801228 C602.478335,620.521228 602.678335,619.561228 602.878335,618.901228 C602.998335,618.541228 603.098335,618.261228 603.198335,618.021228 C603.158335,617.481228 602.918335,617.201228 602.438335,617.201228 C602.098335,617.201228 601.878335,617.361228 601.758335,617.681228 C601.358335,618.641228 601.038335,620.021228 600.838335,621.821228 C600.518335,621.821228 600.298335,621.801228 600.178335,621.781228 C599.778335,621.781228 599.598335,622.021228 599.598335,622.461228 C599.598335,622.961228 599.878335,623.201228 600.458335,623.201228 L600.698335,623.201228 C600.638335,623.961228 600.578335,624.821228 600.538335,625.821228 C600.538335,625.881228 600.518335,625.981228 600.498335,626.101228 C600.458335,626.221228 600.458335,626.301228 600.458335,626.381228 C600.458335,626.581228 600.538335,626.761228 600.698335,626.921228 C600.858335,627.081228 601.038335,627.161228 601.238335,627.161228 C601.718335,627.161228 601.978335,626.901228 601.998335,626.401228 C601.998335,625.721228 602.058335,624.641228 602.158335,623.161228 C603.018335,623.081228 603.858335,622.941228 604.698335,622.741228 C604.598335,623.801228 604.538335,624.641228 604.538335,625.241228 C604.538335,625.301228 604.518335,625.381228 604.498335,625.501228 C604.458335,625.601228 604.438335,625.681228 604.438335,625.741228 C604.438335,626.221228 604.498335,626.581228 604.658335,626.821228 C604.818335,627.081228 604.998335,627.221228 605.238335,627.221228 C605.438335,627.221228 605.618335,627.141228 605.778335,626.981228 C605.918335,626.821228 605.998335,626.621228 605.998335,626.401228 C605.998335,626.361228 605.978335,626.261228 605.978335,626.061228 C605.958335,625.861228 605.958335,625.701228 605.958335,625.621228 C605.958335,624.281228 606.158335,622.221228 606.598335,619.441228 C606.638335,619.081228 606.678335,618.881228 606.678335,618.801228 L606.678335,618.801228 Z M614.778335,623.781228 C614.778335,622.961228 614.498335,622.301228 613.958335,621.801228 C613.458335,621.341228 612.818335,621.101228 612.018335,621.101228 C611.578335,621.101228 611.138335,621.221228 610.698335,621.461228 C610.778335,620.721228 610.838335,620.061228 610.898335,619.501228 C610.998335,618.861228 611.058335,618.361228 611.098335,618.001228 C611.018335,617.421228 610.778335,617.121228 610.338335,617.121228 C609.818335,617.121228 609.538335,617.521228 609.478335,618.301228 C609.158335,621.461228 608.918335,624.141228 608.718335,626.341228 C608.738335,627.041228 608.998335,627.401228 609.518335,627.401228 C609.838335,627.401228 610.058335,627.261228 610.178335,627.001228 C610.398335,627.061228 610.598335,627.101228 610.798335,627.101228 C611.678335,627.101228 612.538335,626.781228 613.378335,626.161228 C614.298335,625.481228 614.778335,624.701228 614.778335,623.781228 L614.778335,623.781228 Z M613.258335,623.541228 C613.258335,624.141228 612.938335,624.681228 612.338335,625.141228 C611.778335,625.581228 611.238335,625.801228 610.718335,625.801228 C610.638335,625.801228 610.498335,625.781228 610.338335,625.741228 L610.518335,623.441228 C610.878335,622.841228 611.358335,622.521228 611.978335,622.521228 C612.298335,622.521228 612.578335,622.621228 612.858335,622.821228 C613.118335,623.021228 613.258335,623.261228 613.258335,623.541228 L613.258335,623.541228 Z M630.118335,618.801228 C630.118335,618.281228 629.878335,618.021228 629.398335,618.021228 C628.998335,618.021228 628.738335,618.381228 628.638335,619.061228 C628.538335,619.601228 628.418335,620.361228 628.298335,621.341228 C627.418335,621.561228 626.558335,621.721228 625.718335,621.801228 C625.918335,620.521228 626.118335,619.561228 626.318335,618.901228 C626.438335,618.541228 626.538335,618.261228 626.638335,618.021228 C626.598335,617.481228 626.358335,617.201228 625.878335,617.201228 C625.538335,617.201228 625.318335,617.361228 625.198335,617.681228 C624.798335,618.641228 624.478335,620.021228 624.278335,621.821228 C623.958335,621.821228 623.738335,621.801228 623.618335,621.781228 C623.218335,621.781228 623.038335,622.021228 623.038335,622.461228 C623.038335,622.961228 623.318335,623.201228 623.898335,623.201228 L624.138335,623.201228 C624.078335,623.961228 624.018335,624.821228 623.978335,625.821228 C623.978335,625.881228 623.958335,625.981228 623.938335,626.101228 C623.898335,626.221228 623.898335,626.301228 623.898335,626.381228 C623.898335,626.581228 623.978335,626.761228 624.138335,626.921228 C624.298335,627.081228 624.478335,627.161228 624.678335,627.161228 C625.158335,627.161228 625.418335,626.901228 625.438335,626.401228 C625.438335,625.721228 625.498335,624.641228 625.598335,623.161228 C626.458335,623.081228 627.298335,622.941228 628.138335,622.741228 C628.038335,623.801228 627.978335,624.641228 627.978335,625.241228 C627.978335,625.301228 627.958335,625.381228 627.938335,625.501228 C627.898335,625.601228 627.878335,625.681228 627.878335,625.741228 C627.878335,626.221228 627.938335,626.581228 628.098335,626.821228 C628.258335,627.081228 628.438335,627.221228 628.678335,627.221228 C628.878335,627.221228 629.058335,627.141228 629.218335,626.981228 C629.358335,626.821228 629.438335,626.621228 629.438335,626.401228 C629.438335,626.361228 629.418335,626.261228 629.418335,626.061228 C629.398335,625.861228 629.398335,625.701228 629.398335,625.621228 C629.398335,624.281228 629.598335,622.221228 630.038335,619.441228 C630.078335,619.081228 630.118335,618.881228 630.118335,618.801228 L630.118335,618.801228 Z M639.418335,621.561228 C639.418335,621.381228 639.318335,621.181228 639.158335,620.981228 C639.158335,620.521228 639.078335,620.121228 638.958335,619.761228 C638.978335,619.681228 638.998335,619.581228 638.998335,619.481228 C638.998335,619.241228 638.858335,619.001228 638.618335,618.801228 C638.358335,618.601228 638.098335,618.481228 637.838335,618.481228 C636.738335,618.481228 635.538335,619.121228 634.218335,620.361228 C632.838335,621.641228 632.158335,622.881228 632.158335,624.041228 C632.158335,624.661228 632.358335,625.201228 632.798335,625.681228 C633.218335,626.181228 633.718335,626.421228 634.298335,626.421228 C635.198335,626.421228 636.198335,625.861228 637.318335,624.741228 C637.418335,626.261228 637.758335,627.041228 638.338335,627.041228 C638.538335,627.041228 638.738335,626.961228 638.918335,626.841228 C639.078335,626.681228 639.178335,626.481228 639.178335,626.281228 C639.178335,626.221228 639.118335,625.981228 639.038335,625.501228 C638.938335,625.041228 638.898335,624.681228 638.898335,624.441228 C638.898335,623.641228 639.018335,622.841228 639.298335,622.001228 C639.378335,621.781228 639.418335,621.641228 639.418335,621.561228 L639.418335,621.561228 Z M637.598335,620.981228 C637.598335,621.661228 637.198335,622.461228 636.438335,623.381228 C635.678335,624.301228 634.978335,624.741228 634.378335,624.741228 C633.958335,624.741228 633.758335,624.501228 633.758335,624.001228 C633.758335,623.361228 634.258335,622.561228 635.278335,621.581228 C636.198335,620.701228 636.858335,620.241228 637.238335,620.241228 C637.478335,620.241228 637.598335,620.501228 637.598335,620.981228 L637.598335,620.981228 Z M649.538335,619.121228 C649.538335,618.821228 649.438335,618.561228 649.238335,618.321228 C649.058335,618.101228 648.838335,617.981228 648.558335,617.981228 C648.438335,617.981228 648.198335,618.101228 647.838335,618.301228 C647.478335,618.521228 646.598335,618.701228 645.178335,618.861228 C644.858335,618.601228 644.598335,618.461228 644.418335,618.461228 C644.198335,618.461228 643.958335,618.581228 643.718335,618.821228 C643.478335,619.061228 643.358335,619.321228 643.358335,619.561228 C643.358335,619.721228 643.438335,619.921228 643.598335,620.141228 C643.738335,620.381228 643.818335,620.641228 643.818335,620.941228 C643.818335,622.181228 643.718335,623.201228 643.518335,624.041228 C643.258335,625.021228 642.918335,625.501228 642.518335,625.501228 C642.358335,625.501228 642.238335,625.261228 642.198335,624.741228 C642.158335,624.541228 642.078335,624.421228 641.918335,624.421228 C641.638335,624.421228 641.438335,624.561228 641.298335,624.801228 C641.118335,625.081228 641.038335,625.401228 641.038335,625.741228 C641.038335,626.121228 641.178335,626.401228 641.478335,626.621228 C641.758335,626.821228 642.078335,626.941228 642.438335,626.941228 C643.478335,626.941228 644.218335,626.261228 644.658335,624.941228 C644.938335,624.101228 645.178335,622.581228 645.378335,620.381228 C645.878335,620.261228 646.638335,620.101228 647.678335,619.921228 C647.478335,621.881228 647.378335,623.361228 647.378335,624.361228 C647.378335,625.681228 647.458335,626.501228 647.638335,626.841228 C647.818335,627.181228 648.078335,627.361228 648.398335,627.361228 C648.918335,627.361228 649.178335,627.041228 649.178335,626.441228 C649.098335,626.081228 649.058335,625.761228 649.018335,625.481228 C648.918335,624.801228 648.878335,624.221228 648.878335,623.721228 C648.878335,622.641228 649.038335,621.381228 649.378335,619.941228 C649.478335,619.461228 649.538335,619.201228 649.538335,619.121228 L649.538335,619.121228 Z M658.838335,621.561228 C658.838335,621.381228 658.738335,621.181228 658.578335,620.981228 C658.578335,620.521228 658.498335,620.121228 658.378335,619.761228 C658.398335,619.681228 658.418335,619.581228 658.418335,619.481228 C658.418335,619.241228 658.278335,619.001228 658.038335,618.801228 C657.778335,618.601228 657.518335,618.481228 657.258335,618.481228 C656.158335,618.481228 654.958335,619.121228 653.638335,620.361228 C652.258335,621.641228 651.578335,622.881228 651.578335,624.041228 C651.578335,624.661228 651.778335,625.201228 652.218335,625.681228 C652.638335,626.181228 653.138335,626.421228 653.718335,626.421228 C654.618335,626.421228 655.618335,625.861228 656.738335,624.741228 C656.838335,626.261228 657.178335,627.041228 657.758335,627.041228 C657.958335,627.041228 658.158335,626.961228 658.338335,626.841228 C658.498335,626.681228 658.598335,626.481228 658.598335,626.281228 C658.598335,626.221228 658.538335,625.981228 658.458335,625.501228 C658.358335,625.041228 658.318335,624.681228 658.318335,624.441228 C658.318335,623.641228 658.438335,622.841228 658.718335,622.001228 C658.798335,621.781228 658.838335,621.641228 658.838335,621.561228 L658.838335,621.561228 Z M657.018335,620.981228 C657.018335,621.661228 656.618335,622.461228 655.858335,623.381228 C655.098335,624.301228 654.398335,624.741228 653.798335,624.741228 C653.378335,624.741228 653.178335,624.501228 653.178335,624.001228 C653.178335,623.361228 653.678335,622.561228 654.698335,621.581228 C655.618335,620.701228 656.278335,620.241228 656.658335,620.241228 C656.898335,620.241228 657.018335,620.501228 657.018335,620.981228 L657.018335,620.981228 Z M669.498335,626.241228 C669.498335,626.181228 669.458335,626.081228 669.378335,625.961228 C669.138335,625.521228 668.858335,625.301228 668.578335,625.301228 C668.538335,625.301228 668.478335,625.321228 668.378335,625.321228 C668.478335,622.841228 668.558335,621.041228 668.638335,619.901228 C668.678335,619.321228 668.798335,618.741228 669.018335,618.141228 C669.018335,617.941228 668.898335,617.721228 668.698335,617.521228 C668.498335,617.321228 668.298335,617.221228 668.098335,617.221228 C667.578335,617.221228 666.958335,617.341228 666.218335,617.541228 C665.338335,617.801228 664.758335,618.001228 664.478335,618.121228 C664.038335,618.361228 663.838335,618.661228 663.838335,619.001228 C663.838335,619.101228 663.878335,619.241228 663.978335,619.441228 C664.038335,619.641228 664.078335,619.781228 664.078335,619.861228 C664.078335,620.741228 663.858335,621.741228 663.418335,622.901228 C662.938335,624.121228 662.398335,625.081228 661.758335,625.781228 C661.138335,625.821228 660.818335,626.101228 660.778335,626.621228 C660.698335,627.401228 660.678335,628.081228 660.678335,628.641228 C660.678335,628.821228 660.758335,629.001228 660.918335,629.161228 C661.078335,629.321228 661.298335,629.421228 661.538335,629.421228 C661.998335,629.421228 662.238335,629.181228 662.238335,628.721228 C662.238335,628.641228 662.218335,628.541228 662.198335,628.401228 C662.158335,628.261228 662.158335,628.161228 662.158335,628.121228 C662.158335,628.041228 662.158335,627.961228 662.178335,627.841228 L662.178335,627.541228 C662.178335,627.381228 662.318335,627.281228 662.638335,627.261228 C663.818335,627.121228 664.898335,627.021228 665.858335,626.961228 C666.558335,626.901228 667.058335,626.881228 667.338335,626.881228 C667.578335,626.881228 667.718335,626.981228 667.718335,627.181228 C667.718335,627.241228 667.718335,627.461228 667.738335,627.861228 L667.738335,628.561228 C667.738335,629.121228 667.938335,629.421228 668.378335,629.421228 C668.538335,629.421228 668.738335,629.361228 668.958335,629.261228 C669.138335,629.141228 669.238335,628.981228 669.238335,628.821228 C669.238335,628.681228 669.218335,628.501228 669.198335,628.261228 C669.158335,628.021228 669.138335,627.821228 669.138335,627.701228 C669.138335,627.381228 669.158335,627.101228 669.238335,626.881228 C669.238335,626.841228 669.278335,626.741228 669.358335,626.581228 C669.438335,626.401228 669.498335,626.281228 669.498335,626.241228 L669.498335,626.241228 Z M667.158335,618.921228 C667.158335,621.641228 667.038335,623.841228 666.798335,625.501228 C665.238335,625.601228 664.178335,625.681228 663.598335,625.761228 C664.578335,624.201228 665.258335,622.041228 665.638335,619.321228 C665.958335,619.161228 666.478335,619.021228 667.158335,618.921228 L667.158335,618.921228 Z M678.758335,626.321228 C678.758335,626.181228 678.658335,626.001228 678.478335,625.801228 C678.038335,625.321228 677.838335,624.101228 677.838335,622.141228 C677.838335,621.441228 677.938335,620.261228 678.158335,618.601228 C678.158335,618.381228 678.058335,618.181228 677.898335,617.981228 C677.718335,617.801228 677.518335,617.701228 677.298335,617.701228 C676.958335,617.701228 676.238335,618.441228 675.158335,619.921228 C674.278335,621.081228 673.558335,622.141228 672.958335,623.061228 C673.098335,621.501228 673.198335,620.361228 673.258335,619.681228 C673.258335,619.361228 673.138335,619.081228 672.938335,618.841228 C672.738335,618.621228 672.478335,618.501228 672.158335,618.501228 C671.978335,618.501228 671.818335,618.621228 671.658335,618.841228 C671.698335,619.421228 671.738335,619.761228 671.738335,619.841228 C671.738335,620.201228 671.678335,621.101228 671.578335,622.561228 L671.538335,623.141228 C671.518335,623.441228 671.478335,623.841228 671.438335,624.341228 C671.378335,624.821228 671.338335,625.121228 671.338335,625.241228 C671.358335,625.521228 671.438335,625.741228 671.598335,625.861228 C671.918335,626.181228 672.118335,626.321228 672.198335,626.321228 C672.478335,626.321228 672.818335,626.021228 673.178335,625.381228 C673.918335,624.141228 674.438335,623.261228 674.758335,622.781228 C675.278335,621.921228 675.838335,621.121228 676.458335,620.401228 C676.458335,620.601228 676.438335,621.021228 676.438335,621.641228 C676.418335,622.281228 676.418335,622.621228 676.418335,622.701228 C676.418335,623.741228 676.518335,624.621228 676.738335,625.381228 C677.038335,626.481228 677.478335,627.041228 678.038335,627.041228 C678.158335,627.041228 678.318335,626.941228 678.498335,626.781228 C678.658335,626.581228 678.758335,626.441228 678.758335,626.321228 L678.758335,626.321228 Z M688.878335,619.121228 C688.878335,618.821228 688.778335,618.561228 688.578335,618.321228 C688.398335,618.101228 688.178335,617.981228 687.898335,617.981228 C687.778335,617.981228 687.538335,618.101228 687.178335,618.301228 C686.818335,618.521228 685.938335,618.701228 684.518335,618.861228 C684.198335,618.601228 683.938335,618.461228 683.758335,618.461228 C683.538335,618.461228 683.298335,618.581228 683.058335,618.821228 C682.818335,619.061228 682.698335,619.321228 682.698335,619.561228 C682.698335,619.721228 682.778335,619.921228 682.938335,620.141228 C683.078335,620.381228 683.158335,620.641228 683.158335,620.941228 C683.158335,622.181228 683.058335,623.201228 682.858335,624.041228 C682.598335,625.021228 682.258335,625.501228 681.858335,625.501228 C681.698335,625.501228 681.578335,625.261228 681.538335,624.741228 C681.498335,624.541228 681.418335,624.421228 681.258335,624.421228 C680.978335,624.421228 680.778335,624.561228 680.638335,624.801228 C680.458335,625.081228 680.378335,625.401228 680.378335,625.741228 C680.378335,626.121228 680.518335,626.401228 680.818335,626.621228 C681.098335,626.821228 681.418335,626.941228 681.778335,626.941228 C682.818335,626.941228 683.558335,626.261228 683.998335,624.941228 C684.278335,624.101228 684.518335,622.581228 684.718335,620.381228 C685.218335,620.261228 685.978335,620.101228 687.018335,619.921228 C686.818335,621.881228 686.718335,623.361228 686.718335,624.361228 C686.718335,625.681228 686.798335,626.501228 686.978335,626.841228 C687.158335,627.181228 687.418335,627.361228 687.738335,627.361228 C688.258335,627.361228 688.518335,627.041228 688.518335,626.441228 C688.438335,626.081228 688.398335,625.761228 688.358335,625.481228 C688.258335,624.801228 688.218335,624.221228 688.218335,623.721228 C688.218335,622.641228 688.378335,621.381228 688.718335,619.941228 C688.818335,619.461228 688.878335,619.201228 688.878335,619.121228 L688.878335,619.121228 Z M698.178335,621.561228 C698.178335,621.381228 698.078335,621.181228 697.918335,620.981228 C697.918335,620.521228 697.838335,620.121228 697.718335,619.761228 C697.738335,619.681228 697.758335,619.581228 697.758335,619.481228 C697.758335,619.241228 697.618335,619.001228 697.378335,618.801228 C697.118335,618.601228 696.858335,618.481228 696.598335,618.481228 C695.498335,618.481228 694.298335,619.121228 692.978335,620.361228 C691.598335,621.641228 690.918335,622.881228 690.918335,624.041228 C690.918335,624.661228 691.118335,625.201228 691.558335,625.681228 C691.978335,626.181228 692.478335,626.421228 693.058335,626.421228 C693.958335,626.421228 694.958335,625.861228 696.078335,624.741228 C696.178335,626.261228 696.518335,627.041228 697.098335,627.041228 C697.298335,627.041228 697.498335,626.961228 697.678335,626.841228 C697.838335,626.681228 697.938335,626.481228 697.938335,626.281228 C697.938335,626.221228 697.878335,625.981228 697.798335,625.501228 C697.698335,625.041228 697.658335,624.681228 697.658335,624.441228 C697.658335,623.641228 697.778335,622.841228 698.058335,622.001228 C698.138335,621.781228 698.178335,621.641228 698.178335,621.561228 L698.178335,621.561228 Z M696.358335,620.981228 C696.358335,621.661228 695.958335,622.461228 695.198335,623.381228 C694.438335,624.301228 693.738335,624.741228 693.138335,624.741228 C692.718335,624.741228 692.518335,624.501228 692.518335,624.001228 C692.518335,623.361228 693.018335,622.561228 694.038335,621.581228 C694.958335,620.701228 695.618335,620.241228 695.998335,620.241228 C696.238335,620.241228 696.358335,620.501228 696.358335,620.981228 L696.358335,620.981228 Z M706.398335,624.361228 C706.398335,624.161228 706.318335,623.961228 706.158335,623.761228 C705.998335,623.601228 705.818335,623.501228 705.618335,623.501228 C705.458335,623.501228 705.218335,623.641228 704.938335,623.901228 C704.698335,624.101228 704.458335,624.301228 704.258335,624.501228 C703.918335,624.761228 703.498335,624.881228 702.998335,624.881228 C702.198335,624.881228 701.818335,624.401228 701.818335,623.401228 C701.818335,622.781228 701.998335,622.161228 702.358335,621.561228 C702.718335,620.961228 703.158335,620.461228 703.698335,620.101228 C703.938335,620.241228 704.298335,620.301228 704.798335,620.301228 C705.058335,620.301228 705.318335,620.201228 705.578335,619.961228 C705.798335,619.721228 705.918335,619.501228 705.918335,619.261228 C705.918335,618.941228 705.798335,618.701228 705.558335,618.501228 C705.298335,618.321228 705.018335,618.221228 704.718335,618.221228 C703.458335,618.221228 702.338335,618.881228 701.378335,620.181228 C700.598335,621.221228 700.218335,622.361228 700.218335,623.601228 C700.218335,624.481228 700.498335,625.181228 701.058335,625.741228 C701.618335,626.281228 702.318335,626.561228 703.158335,626.561228 C703.918335,626.561228 704.698335,626.261228 705.458335,625.661228 C706.078335,625.181228 706.398335,624.761228 706.398335,624.361228 L706.398335,624.361228 Z M714.298335,623.781228 C714.298335,622.961228 714.018335,622.301228 713.478335,621.801228 C712.978335,621.341228 712.338335,621.101228 711.538335,621.101228 C711.098335,621.101228 710.658335,621.221228 710.218335,621.461228 C710.298335,620.721228 710.358335,620.061228 710.418335,619.501228 C710.518335,618.861228 710.578335,618.361228 710.618335,618.001228 C710.538335,617.421228 710.298335,617.121228 709.858335,617.121228 C709.338335,617.121228 709.058335,617.521228 708.998335,618.301228 C708.678335,621.461228 708.438335,624.141228 708.238335,626.341228 C708.258335,627.041228 708.518335,627.401228 709.038335,627.401228 C709.358335,627.401228 709.578335,627.261228 709.698335,627.001228 C709.918335,627.061228 710.118335,627.101228 710.318335,627.101228 C711.198335,627.101228 712.058335,626.781228 712.898335,626.161228 C713.818335,625.481228 714.298335,624.701228 714.298335,623.781228 L714.298335,623.781228 Z M712.778335,623.541228 C712.778335,624.141228 712.458335,624.681228 711.858335,625.141228 C711.298335,625.581228 710.758335,625.801228 710.238335,625.801228 C710.158335,625.801228 710.018335,625.781228 709.858335,625.741228 L710.038335,623.441228 C710.398335,622.841228 710.878335,622.521228 711.498335,622.521228 C711.818335,622.521228 712.098335,622.621228 712.378335,622.821228 C712.638335,623.021228 712.778335,623.261228 712.778335,623.541228 L712.778335,623.541228 Z" id="с-Канефрон®-Н-жизнь" transform="translate(642.548335, 607.951228) rotate(-10.000000) translate(-642.548335, -607.951228) "></path>
        </g>
    </g>
</svg>