<?xml version="1.0" encoding="UTF-8"?>
<svg width="129px" height="34px" viewBox="0 0 129 34" version="1.1" xmlns="http://www.w3.org/2000/svg" xmlns:xlink="http://www.w3.org/1999/xlink">
    <!-- Generator: Sketch 40.3 (33839) - http://www.bohemiancoding.com/sketch -->
    <title>Смотреть</title>
    <desc>Created with Sketch.</desc>
    <defs></defs>
    <g id="Page-1" stroke="none" stroke-width="1" fill="none" fill-rule="evenodd">
        <g id="Desktop" transform="translate(-721.000000, -309.000000)" fill="#FFFFFF">
            <path d="M737.605,330.885 C737.605,330.5 737.43,330.115 737.08,329.765 C736.73,329.415 736.38,329.24 736.03,329.24 C735.855,329.24 735.4,329.485 734.7,329.905 C732.495,331.2 730.535,331.83 728.855,331.83 C726.195,331.83 724.865,329.975 724.865,326.195 C724.865,323.15 725.6,320.07 727.105,316.99 C728.61,313.945 730.15,312.405 731.69,312.405 C732.46,312.405 733.23,312.86 734,313.7 C734.77,314.575 735.33,314.995 735.75,314.995 C736.17,314.995 736.555,314.855 736.905,314.54 C737.185,314.26 737.36,313.875 737.36,313.42 C737.36,312.93 737.08,312.37 736.59,311.74 C736.1,311.11 735.435,310.515 734.63,309.99 C733.72,309.43 732.88,309.15 732.145,309.15 C729.205,309.15 726.65,311.11 724.55,315.03 C722.695,318.53 721.785,322.135 721.785,325.88 C721.785,328.505 722.31,330.64 723.36,332.25 C724.62,334.07 726.44,335.015 728.82,335.015 C729.66,335.015 730.85,334.805 732.355,334.385 C733.93,333.93 735.19,333.405 736.17,332.775 C737.115,332.18 737.605,331.55 737.605,330.885 L737.605,330.885 Z M756.505,335.435 C756.505,335.12 756.4,334.77 756.19,334.35 C755.98,333.93 755.735,333.65 755.49,333.44 C754.93,332.25 754.44,330.08 754.02,326.965 C753.74,325.355 753.53,323.57 753.32,321.68 C753.215,320.945 752.795,320.56 752.06,320.56 C751.395,320.56 750.52,321.995 749.435,324.865 C749.05,325.845 748.735,326.685 748.455,327.455 C747.51,326.055 746.67,323.955 745.9,321.085 C745.62,320.035 745.2,319.51 744.675,319.51 C744.01,319.51 743.415,320.315 742.89,321.89 C742.785,321.89 742.645,321.855 742.47,321.855 C742.225,321.855 742.015,321.96 741.875,322.135 C741.665,322.345 741.56,322.59 741.56,322.835 C741.56,322.905 741.56,323.115 741.595,323.465 C741.595,323.85 741.63,324.06 741.63,324.13 C741.63,324.76 741.56,325.635 741.42,326.825 C741.28,328.015 741.21,329.345 741.21,330.78 C741.21,333.125 741.665,334.28 742.61,334.28 C743.31,334.28 743.66,333.51 743.73,331.935 C743.835,328.855 744.115,326.3 744.535,324.27 C746.39,328.75 747.86,330.99 748.91,330.99 C749.26,330.99 749.505,330.85 749.715,330.5 C749.89,330.22 750.1,329.59 750.38,328.68 C750.835,327.14 751.22,325.915 751.535,325.075 C751.885,328.96 752.375,331.83 753.04,333.685 C753.775,335.82 754.545,336.905 755.315,336.905 C755.595,336.905 755.875,336.73 756.12,336.415 C756.365,336.065 756.505,335.75 756.505,335.435 L756.505,335.435 Z M770.085,326.3 C770.085,324.935 769.7,323.675 768.93,322.555 C768.125,321.47 767.11,320.7 765.885,320.28 C765.395,320.14 765.115,320.07 765.045,320.07 C764.765,320.07 764.45,320.245 764.03,320.525 C763.54,320.805 763.155,321.015 762.875,321.12 C761.685,321.715 760.705,322.765 760.005,324.235 C759.305,325.565 758.99,327 758.99,328.505 C758.99,330.29 759.445,331.76 760.425,332.915 C761.405,334.035 762.63,334.63 764.1,334.63 C765.78,334.63 767.215,333.86 768.37,332.25 C769.49,330.64 770.085,328.68 770.085,326.3 L770.085,326.3 Z M767.32,326.825 C767.32,328.015 766.97,329.1 766.34,330.115 C765.64,331.165 764.905,331.69 764.065,331.69 C763.365,331.69 762.805,331.375 762.385,330.71 C761.93,330.08 761.72,329.345 761.72,328.505 C761.72,327.385 761.965,326.335 762.525,325.355 C763.155,324.235 763.96,323.64 764.94,323.64 C765.29,323.85 765.745,323.955 766.305,323.955 C766.97,324.375 767.32,325.355 767.32,326.825 L767.32,326.825 Z M787.76,319.44 C787.76,319.09 787.62,318.74 787.375,318.425 C787.13,318.145 786.85,317.97 786.535,317.97 C786.01,317.97 785.275,318.11 784.295,318.32 C780.445,319.23 777.015,320.035 774.075,320.735 C773.865,320.805 773.725,320.805 773.655,320.805 C772.955,320.945 772.605,321.47 772.605,322.345 C772.605,323.325 772.99,323.78 773.83,323.78 C774.845,323.57 775.65,323.395 776.21,323.22 C777.225,323.01 778.1,322.8 778.835,322.66 C778.695,325.355 778.625,327.945 778.625,330.395 C778.625,332.775 778.765,334.42 779.045,335.33 C779.255,335.96 779.675,336.275 780.375,336.275 C781.285,336.275 781.74,335.435 781.74,333.79 C781.74,332.985 781.565,332.39 781.285,332.005 C781.215,331.13 781.18,329.765 781.18,327.875 C781.18,326.405 781.285,324.41 781.565,321.925 C782.58,321.68 783.28,321.505 783.7,321.435 C784.015,321.645 784.26,321.715 784.435,321.715 C784.645,321.715 784.89,321.68 785.205,321.54 L786.815,320.805 C787.445,320.525 787.76,320.07 787.76,319.44 L787.76,319.44 Z M802.565,321.89 C802.565,320.21 802.18,318.81 801.41,317.69 C800.57,316.465 799.345,315.835 797.805,315.835 C795.6,315.835 793.885,317.375 792.66,320.455 C791.82,322.59 791.4,325.04 791.4,327.77 C791.4,328.12 791.4,328.4 791.435,328.575 C790.455,328.925 790,329.45 790,330.185 C790,331.095 790.455,331.585 791.435,331.655 C791.505,332.215 791.54,333.055 791.54,334.175 C791.54,336.415 791.4,337.99 791.19,338.97 C790.945,339.915 790.84,340.44 790.84,340.545 C790.84,340.93 790.98,341.28 791.26,341.595 C791.54,341.875 791.89,342.05 792.275,342.05 C793.01,342.05 793.535,341.315 793.85,339.88 C794.2,338.27 794.375,336.625 794.375,335.015 C794.375,333.545 794.305,332.11 794.2,330.71 C799.765,328.68 802.565,325.74 802.565,321.89 L802.565,321.89 Z M799.765,321.295 C799.765,324.165 797.91,326.265 794.235,327.595 C794.235,325.705 794.55,323.78 795.215,321.89 C795.95,319.825 796.825,318.775 797.805,318.775 C798.4,318.775 798.89,319.055 799.275,319.545 C799.59,320.035 799.765,320.63 799.765,321.295 L799.765,321.295 Z M819.925,333.37 C819.925,333.02 819.785,332.67 819.505,332.32 C819.225,332.04 818.875,331.865 818.525,331.865 C818.245,331.865 817.79,331.935 817.195,332.005 C816.6,332.075 816.145,332.11 815.865,332.11 C814.815,332.11 813.905,331.62 813.065,330.605 C816.565,328.715 818.315,326.475 818.315,323.885 C818.315,322.905 817.895,321.96 817.055,321.12 C816.215,320.28 815.375,319.86 814.5,319.86 C812.995,319.86 811.77,320.735 810.79,322.45 C809.95,323.92 809.53,325.495 809.53,327.175 C809.53,327.525 809.565,328.015 809.67,328.61 L808.865,328.61 C808.375,328.61 807.92,328.435 807.43,328.085 C806.94,327.735 806.59,327.56 806.38,327.56 C805.47,327.56 805.015,328.05 805.015,329.03 C805.015,329.8 805.575,330.43 806.765,330.92 C807.675,331.305 808.55,331.48 809.46,331.48 L810.51,331.48 C811.77,333.895 813.73,335.085 816.39,335.085 C818.735,335.085 819.925,334.49 819.925,333.37 L819.925,333.37 Z M815.55,324.025 C815.55,325.18 814.5,326.44 812.4,327.805 L812.4,327.175 C812.4,326.23 812.54,325.32 812.89,324.445 C813.24,323.395 813.73,322.87 814.36,322.87 C814.64,322.87 814.92,323.01 815.2,323.22 C815.41,323.5 815.55,323.745 815.55,324.025 L815.55,324.025 Z M836.585,319.44 C836.585,319.09 836.445,318.74 836.2,318.425 C835.955,318.145 835.675,317.97 835.36,317.97 C834.835,317.97 834.1,318.11 833.12,318.32 C829.27,319.23 825.84,320.035 822.9,320.735 C822.69,320.805 822.55,320.805 822.48,320.805 C821.78,320.945 821.43,321.47 821.43,322.345 C821.43,323.325 821.815,323.78 822.655,323.78 C823.67,323.57 824.475,323.395 825.035,323.22 C826.05,323.01 826.925,322.8 827.66,322.66 C827.52,325.355 827.45,327.945 827.45,330.395 C827.45,332.775 827.59,334.42 827.87,335.33 C828.08,335.96 828.5,336.275 829.2,336.275 C830.11,336.275 830.565,335.435 830.565,333.79 C830.565,332.985 830.39,332.39 830.11,332.005 C830.04,331.13 830.005,329.765 830.005,327.875 C830.005,326.405 830.11,324.41 830.39,321.925 C831.405,321.68 832.105,321.505 832.525,321.435 C832.84,321.645 833.085,321.715 833.26,321.715 C833.47,321.715 833.715,321.68 834.03,321.54 L835.64,320.805 C836.27,320.525 836.585,320.07 836.585,319.44 L836.585,319.44 Z M849.325,329.765 C849.325,328.33 848.835,327.175 847.89,326.3 C847.015,325.495 845.895,325.075 844.495,325.075 C843.725,325.075 842.955,325.285 842.185,325.705 C842.325,324.41 842.43,323.255 842.535,322.275 C842.71,321.155 842.815,320.28 842.885,319.65 C842.745,318.635 842.325,318.11 841.555,318.11 C840.645,318.11 840.155,318.81 840.05,320.175 C839.49,325.705 839.07,330.395 838.72,334.245 C838.755,335.47 839.21,336.1 840.12,336.1 C840.68,336.1 841.065,335.855 841.275,335.4 C841.66,335.505 842.01,335.575 842.36,335.575 C843.9,335.575 845.405,335.015 846.875,333.93 C848.485,332.74 849.325,331.375 849.325,329.765 L849.325,329.765 Z M846.665,329.345 C846.665,330.395 846.105,331.34 845.055,332.145 C844.075,332.915 843.13,333.3 842.22,333.3 C842.08,333.3 841.835,333.265 841.555,333.195 L841.87,329.17 C842.5,328.12 843.34,327.56 844.425,327.56 C844.985,327.56 845.475,327.735 845.965,328.085 C846.42,328.435 846.665,328.855 846.665,329.345 L846.665,329.345 Z" id="Смотреть"></path>
        </g>
    </g>
</svg>