<?xml version="1.0" encoding="UTF-8"?>
<svg width="405px" height="42px" viewBox="0 0 405 42" version="1.1" xmlns="http://www.w3.org/2000/svg" xmlns:xlink="http://www.w3.org/1999/xlink">
    <!-- Generator: Sketch 40.3 (33839) - http://www.bohemiancoding.com/sketch -->
    <title>Group 6</title>
    <desc>Created with Sketch.</desc>
    <defs></defs>
    <g id="Page-1" stroke="none" stroke-width="1" fill="none" fill-rule="evenodd">
        <g id="Desktop" transform="translate(-3160.000000, -376.000000)" fill="#FFFFFF">
            <g id="Group-6" transform="translate(3160.000000, 376.000000)">
                <rect id="Rectangle-5" x="0" y="40" width="405" height="2"></rect>
                <path d="M24.7657133,19.32 C24.7657133,17.32 23.4857133,15.88 20.9257133,15 C19.4857133,14.56 17.0457133,14.2 13.6457133,13.92 C16.3657133,12.44 18.3257133,11.2 19.5257133,10.16 C21.4457133,8.56 22.4457133,6.96 22.4457133,5.36 C22.4457133,3.6 21.6457133,2.28 20.0857133,1.4 C18.8457133,0.76 17.2857133,0.4 15.4057133,0.4 C12.9257133,0.4 9.68571332,0.6 5.68571332,0.92 C4.92571332,1 4.44571332,1.12 4.20571332,1.28 C3.80571332,1.52 3.60571332,1.96 3.60571332,2.68 C3.60571332,3.8 4.20571332,4.32 5.48571332,4.32 C5.56571332,4.32 6.12571332,4.28 7.16571332,4.16 C7.16571332,4.24 7.12571332,5.32 7.08571332,7.48 C7.00571332,9.68 7.00571332,11.04 7.00571332,11.6 L7.00571332,18.68 C6.96571332,23.16 6.96571332,25.72 6.96571332,26.36 C6.00571332,26.52 5.32571332,26.68 4.92571332,26.88 C4.40571332,27.2 4.16571332,27.72 4.16571332,28.4 C4.16571332,28.84 4.28571332,29.24 4.60571332,29.56 C4.88571332,29.88 5.24571332,30.04 5.72571332,30.04 C6.76571332,29.92 10.0057133,29.04 15.4057133,27.44 C18.0857133,26.64 20.1257133,25.76 21.5257133,24.8 C23.6857133,23.36 24.7657133,21.52 24.7657133,19.32 L24.7657133,19.32 Z M19.0057133,5.52 C19.0057133,7.04 16.0857133,9.24 10.3257133,12.12 L10.3257133,8.44 C10.3257133,7.24 10.3657133,5.76 10.4457133,3.92 C10.7257133,3.92 11.4857133,3.88 12.7657133,3.8 C13.7257133,3.76 14.4857133,3.72 15.1257133,3.72 C17.6857133,3.72 19.0057133,4.32 19.0057133,5.52 L19.0057133,5.52 Z M21.4057133,19.84 C21.4057133,21.52 17.6457133,23.36 10.2057133,25.36 L10.2057133,16.92 C14.1257133,17.28 16.6857133,17.56 17.8857133,17.76 C20.2057133,18.24 21.4057133,18.96 21.4057133,19.84 L21.4057133,19.84 Z M50.2114277,12.08 C50.2114277,11.68 50.0914277,11.32 49.8514277,10.96 C49.5314277,10.6 49.1714277,10.4 48.7314277,10.4 C47.9714277,10.4 47.3314277,11.08 46.8114277,12.36 C46.2914277,13.72 46.0514277,14.68 46.0514277,15.24 C46.0514277,15.6 46.2514277,15.96 46.6514277,16.32 L45.9314277,21.88 C45.4514277,25.2 45.2514277,27.2 45.2514277,27.92 C45.2514277,29.6 45.8514277,30.48 47.0914277,30.48 C47.5314277,30.48 47.8914277,30.28 48.1714277,29.96 C48.4914277,29.6 48.6514277,29.2 48.6514277,28.76 C48.6514277,28.28 48.5314277,27.92 48.3314277,27.64 C48.3714277,26.04 48.5314277,24.4 48.7714277,22.76 C49.0114277,21.12 49.2914277,19.48 49.5314277,17.8 C49.9714277,14.84 50.2114277,12.92 50.2114277,12.08 L50.2114277,12.08 Z M43.2514277,23.16 C43.2514277,21.52 42.6914277,20.2 41.6114277,19.2 C40.6114277,18.28 39.3314277,17.8 37.7314277,17.8 C36.8514277,17.8 35.9714277,18.04 35.0914277,18.52 C35.2514277,17.04 35.3714277,15.72 35.4914277,14.6 C35.6914277,13.32 35.8114277,12.32 35.8914277,11.6 C35.7314277,10.44 35.2514277,9.84 34.3714277,9.84 C33.3314277,9.84 32.7714277,10.64 32.6514277,12.2 C32.0114277,18.52 31.5314277,23.88 31.1314277,28.28 C31.1714277,29.68 31.6914277,30.4 32.7314277,30.4 C33.3714277,30.4 33.8114277,30.12 34.0514277,29.6 C34.4914277,29.72 34.8914277,29.8 35.2914277,29.8 C37.0514277,29.8 38.7714277,29.16 40.4514277,27.92 C42.2914277,26.56 43.2514277,25 43.2514277,23.16 L43.2514277,23.16 Z M40.2114277,22.68 C40.2114277,23.88 39.5714277,24.96 38.3714277,25.88 C37.2514277,26.76 36.1714277,27.2 35.1314277,27.2 C34.9714277,27.2 34.6914277,27.16 34.3714277,27.08 L34.7314277,22.48 C35.4514277,21.28 36.4114277,20.64 37.6514277,20.64 C38.2914277,20.64 38.8514277,20.84 39.4114277,21.24 C39.9314277,21.64 40.2114277,22.12 40.2114277,22.68 L40.2114277,22.68 Z M72.8971421,20.68 C72.8971421,18.48 72.3371421,16.68 71.2971421,15.28 C70.0971421,13.72 68.4571421,12.92 66.3371421,12.92 C64.4171421,12.92 62.2971421,13.92 60.0571421,15.88 C60.6971421,11.8 63.4171421,8.92 68.2971421,7.32 C69.6971421,6.84 70.4171421,6.16 70.4171421,5.2 C70.4171421,4.52 70.1771421,3.8 69.7771421,3.04 C69.2971421,2.32 68.7771421,1.92 68.2171421,1.92 C67.6971421,1.92 67.4171421,2.28 67.3771421,2.96 C67.2971421,3.76 67.2571421,4.16 67.2171421,4.24 C67.0971421,4.44 66.6971421,4.68 66.0171421,4.96 C59.6971421,7.52 56.5771421,12.28 56.5771421,19.28 C56.5771421,22.28 57.1771421,24.72 58.4571421,26.64 C59.8571421,28.64 61.8171421,29.68 64.3371421,29.68 C66.5771421,29.68 68.5371421,28.8 70.2971421,27.08 C72.0171421,25.32 72.8971421,23.2 72.8971421,20.68 L72.8971421,20.68 Z M70.0171421,19.76 C70.0171421,21.68 69.4571421,23.28 68.3771421,24.64 C67.2571421,26 65.8571421,26.68 64.2571421,26.68 C62.9771421,26.68 61.8971421,26.12 61.0971421,24.92 C60.2971421,23.72 59.8971421,22.24 59.8971421,20.44 C59.8971421,20.24 59.8971421,19.96 59.9371421,19.56 C60.9371421,19.44 61.4971421,19 61.6171421,18.28 C63.4571421,16.76 65.1371421,15.96 66.5771421,15.96 C67.4571421,15.96 68.2571421,16.36 68.9771421,17.08 C69.6571421,17.88 70.0171421,18.76 70.0171421,19.76 L70.0171421,19.76 Z M93.7428565,14.16 C93.7428565,12.24 93.3028565,10.64 92.4228565,9.36 C91.4628565,7.96 90.0628565,7.24 88.3028565,7.24 C85.7828565,7.24 83.8228565,9 82.4228565,12.52 C81.4628565,14.96 80.9828565,17.76 80.9828565,20.88 C80.9828565,21.28 80.9828565,21.6 81.0228565,21.8 C79.9028565,22.2 79.3828565,22.8 79.3828565,23.64 C79.3828565,24.68 79.9028565,25.24 81.0228565,25.32 C81.1028565,25.96 81.1428565,26.92 81.1428565,28.2 C81.1428565,30.76 80.9828565,32.56 80.7428565,33.68 C80.4628565,34.76 80.3428565,35.36 80.3428565,35.48 C80.3428565,35.92 80.5028565,36.32 80.8228565,36.68 C81.1428565,37 81.5428565,37.2 81.9828565,37.2 C82.8228565,37.2 83.4228565,36.36 83.7828565,34.72 C84.1828565,32.88 84.3828565,31 84.3828565,29.16 C84.3828565,27.48 84.3028565,25.84 84.1828565,24.24 C90.5428565,21.92 93.7428565,18.56 93.7428565,14.16 L93.7428565,14.16 Z M90.5428565,13.48 C90.5428565,16.76 88.4228565,19.16 84.2228565,20.68 C84.2228565,18.52 84.5828565,16.32 85.3428565,14.16 C86.1828565,11.8 87.1828565,10.6 88.3028565,10.6 C88.9828565,10.6 89.5428565,10.92 89.9828565,11.48 C90.3428565,12.04 90.5428565,12.72 90.5428565,13.48 L90.5428565,13.48 Z M114.508571,18.72 C114.508571,18.36 114.308571,17.96 113.988571,17.56 C113.988571,16.64 113.828571,15.84 113.588571,15.12 C113.628571,14.96 113.668571,14.76 113.668571,14.56 C113.668571,14.08 113.388571,13.6 112.908571,13.2 C112.388571,12.8 111.868571,12.56 111.348571,12.56 C109.148571,12.56 106.748571,13.84 104.108571,16.32 C101.348571,18.88 99.9885709,21.36 99.9885709,23.68 C99.9885709,24.92 100.388571,26 101.268571,26.96 C102.108571,27.96 103.108571,28.44 104.268571,28.44 C106.068571,28.44 108.068571,27.32 110.308571,25.08 C110.508571,28.12 111.188571,29.68 112.348571,29.68 C112.748571,29.68 113.148571,29.52 113.508571,29.28 C113.828571,28.96 114.028571,28.56 114.028571,28.16 C114.028571,28.04 113.908571,27.56 113.748571,26.6 C113.548571,25.68 113.468571,24.96 113.468571,24.48 C113.468571,22.88 113.708571,21.28 114.268571,19.6 C114.428571,19.16 114.508571,18.88 114.508571,18.72 L114.508571,18.72 Z M110.868571,17.56 C110.868571,18.92 110.068571,20.52 108.548571,22.36 C107.028571,24.2 105.628571,25.08 104.428571,25.08 C103.588571,25.08 103.188571,24.6 103.188571,23.6 C103.188571,22.32 104.188571,20.72 106.228571,18.76 C108.068571,17 109.388571,16.08 110.148571,16.08 C110.628571,16.08 110.868571,16.6 110.868571,17.56 L110.868571,17.56 Z M136.954285,11.36 C136.954285,10.96 136.794285,10.56 136.514285,10.2 C136.234285,9.88 135.914285,9.68 135.554285,9.68 C134.954285,9.68 134.114285,9.84 132.994285,10.08 C128.594285,11.12 124.674285,12.04 121.314285,12.84 C121.074285,12.92 120.914285,12.92 120.834285,12.92 C120.034285,13.08 119.634285,13.68 119.634285,14.68 C119.634285,15.8 120.074285,16.32 121.034285,16.32 C122.194285,16.08 123.114285,15.88 123.754285,15.68 C124.914285,15.44 125.914285,15.2 126.754285,15.04 C126.594285,18.12 126.514285,21.08 126.514285,23.88 C126.514285,26.6 126.674285,28.48 126.994285,29.52 C127.234285,30.24 127.714285,30.6 128.514285,30.6 C129.554285,30.6 130.074285,29.64 130.074285,27.76 C130.074285,26.84 129.874285,26.16 129.554285,25.72 C129.474285,24.72 129.434285,23.16 129.434285,21 C129.434285,19.32 129.554285,17.04 129.874285,14.2 C131.034285,13.92 131.834285,13.72 132.314285,13.64 C132.674285,13.88 132.954285,13.96 133.154285,13.96 C133.394285,13.96 133.674285,13.92 134.034285,13.76 L135.874285,12.92 C136.594285,12.6 136.954285,12.08 136.954285,11.36 L136.954285,11.36 Z M153.8,23.16 C153.8,21.52 153.24,20.2 152.16,19.2 C151.16,18.28 149.88,17.8 148.28,17.8 C147.4,17.8 146.52,18.04 145.64,18.52 C145.8,17.04 145.92,15.72 146.04,14.6 C146.24,13.32 146.36,12.32 146.44,11.6 C146.28,10.44 145.8,9.84 144.92,9.84 C143.88,9.84 143.32,10.64 143.2,12.2 C142.56,18.52 142.08,23.88 141.68,28.28 C141.72,29.68 142.24,30.4 143.28,30.4 C143.92,30.4 144.36,30.12 144.6,29.6 C145.04,29.72 145.44,29.8 145.84,29.8 C147.6,29.8 149.32,29.16 151,27.92 C152.84,26.56 153.8,25 153.8,23.16 L153.8,23.16 Z M150.76,22.68 C150.76,23.88 150.12,24.96 148.92,25.88 C147.8,26.76 146.72,27.2 145.68,27.2 C145.52,27.2 145.24,27.16 144.92,27.08 L145.28,22.48 C146,21.28 146.96,20.64 148.2,20.64 C148.84,20.64 149.4,20.84 149.96,21.24 C150.48,21.64 150.76,22.12 150.76,22.68 L150.76,22.68 Z M191.891428,13.84 C191.891428,13.24 191.691428,12.72 191.291428,12.24 C190.931428,11.8 190.491428,11.56 189.931428,11.56 C189.691428,11.56 189.211428,11.8 188.491428,12.2 C187.771428,12.64 186.011428,13 183.171428,13.32 C182.531428,12.8 182.011428,12.52 181.651428,12.52 C181.211428,12.52 180.731428,12.76 180.251428,13.24 C179.771428,13.72 179.531428,14.24 179.531428,14.72 C179.531428,15.04 179.691428,15.44 180.011428,15.88 C180.291428,16.36 180.451428,16.88 180.451428,17.48 C180.451428,19.96 180.251428,22 179.851428,23.68 C179.331428,25.64 178.651428,26.6 177.851428,26.6 C177.531428,26.6 177.291428,26.12 177.211428,25.08 C177.131428,24.68 176.971428,24.44 176.651428,24.44 C176.091428,24.44 175.691428,24.72 175.411428,25.2 C175.051428,25.76 174.891428,26.4 174.891428,27.08 C174.891428,27.84 175.171428,28.4 175.771428,28.84 C176.331428,29.24 176.971428,29.48 177.691428,29.48 C179.771428,29.48 181.251428,28.12 182.131428,25.48 C182.691428,23.8 183.171428,20.76 183.571428,16.36 C184.571428,16.12 186.091428,15.8 188.171428,15.44 C187.771428,19.36 187.571428,22.32 187.571428,24.32 C187.571428,26.96 187.731428,28.6 188.091428,29.28 C188.451428,29.96 188.971428,30.32 189.611428,30.32 C190.651428,30.32 191.171428,29.68 191.171428,28.48 C191.011428,27.76 190.931428,27.12 190.851428,26.56 C190.651428,25.2 190.571428,24.04 190.571428,23.04 C190.571428,20.88 190.891428,18.36 191.571428,15.48 C191.771428,14.52 191.891428,14 191.891428,13.84 L191.891428,13.84 Z M212.817143,21.44 L212.817143,18.76 C212.817143,15.96 212.177143,14.52 210.937143,14.52 C210.297143,14.52 209.697143,15.08 209.097143,16.12 C207.857143,18.32 206.897143,19.88 206.177143,20.76 C205.217143,21.96 204.297143,22.56 203.417143,22.56 C202.777143,22.56 202.497143,22.2 202.497143,21.48 C202.497143,20.84 202.617143,19.6 202.857143,17.76 C203.097143,15.92 203.257143,14.8 203.257143,14.44 C203.257143,13.48 203.097143,12.6 202.777143,11.88 C202.417143,11 201.897143,10.56 201.257143,10.56 C200.057143,10.56 199.497143,11.08 199.497143,12.08 C199.497143,12.32 199.537143,12.64 199.697143,13.12 C199.817143,13.6 199.897143,13.92 199.897143,14.16 C199.897143,14.96 199.777143,16.16 199.577143,17.84 C199.377143,19.52 199.297143,20.8 199.297143,21.6 C199.297143,22.92 199.657143,24 200.417143,24.84 C201.137143,25.72 202.097143,26.12 203.377143,26.12 C205.417143,26.12 207.497143,24.64 209.617143,21.68 C209.617143,23.04 209.497143,24.32 209.297143,25.56 C208.337143,30.88 204.817143,33.56 198.697143,33.64 C197.737143,33.52 197.017143,33.44 196.537143,33.4 C195.537143,33.44 195.017143,33.96 195.017143,35 C195.017143,36.44 196.257143,37.2 198.737143,37.2 C202.657143,37.2 205.817143,36.12 208.297143,34.04 C211.297143,31.48 212.817143,27.32 212.817143,21.44 L212.817143,21.44 Z M232.622857,12.8 C232.582857,12.36 232.422857,11.92 232.102857,11.52 C231.782857,11.12 231.422857,10.92 231.022857,10.92 C229.942857,10.92 229.382857,11.52 229.342857,12.68 C229.342857,12.84 229.342857,13.36 229.382857,14.2 C229.382857,15.12 229.422857,15.64 229.422857,15.8 C229.422857,17.36 228.902857,18.8 227.902857,20.16 C226.862857,21.52 225.702857,22.16 224.462857,22.16 C222.902857,22.16 222.142857,21.04 222.142857,18.72 C222.142857,17.84 222.302857,15.84 222.702857,12.72 C222.582857,11.6 222.102857,11 221.302857,11 C220.182857,11 219.542857,12.08 219.302857,14.2 C219.222857,14.8 219.182857,16.28 219.182857,18.68 C219.182857,22.92 220.862857,25.04 224.262857,25.04 C225.222857,25.04 226.222857,24.8 227.182857,24.24 C228.142857,23.72 228.902857,23 229.382857,22.12 C229.302857,23.72 229.222857,25.04 229.142857,26.04 C228.982857,27.68 228.942857,28.84 228.942857,29.64 C228.942857,30.72 229.382857,31.28 230.342857,31.28 C231.382857,31.28 231.942857,30.72 231.982857,29.6 C232.022857,27 232.142857,23.16 232.382857,18.12 C232.462857,15.48 232.542857,13.72 232.622857,12.8 L232.622857,12.8 Z M256.908572,14.24 C256.908572,13.76 256.708572,13.2 256.388572,12.6 C255.988572,12.04 255.548572,11.72 255.068572,11.72 C254.268572,11.72 253.788572,12 253.548572,12.56 C253.588572,12.92 253.628572,13.44 253.708572,14.16 C253.748572,14.96 253.788572,15.56 253.788572,15.92 C253.788572,17.04 253.508572,20.44 252.948572,26.04 C251.068572,26.24 249.748572,26.36 249.028572,26.36 C249.588572,18.32 249.868572,14.12 249.868572,13.72 C249.868572,11.96 249.148572,11.04 247.788572,11.04 C247.548572,11.04 247.268572,11.16 246.988572,11.36 C246.668572,11.6 246.508572,11.84 246.508572,12.08 C246.508572,12.16 246.548572,12.44 246.668572,12.84 C246.708572,13.28 246.748572,13.56 246.748572,13.68 C246.748572,17.52 246.468572,21.84 245.948572,26.68 C243.788572,26.96 242.628572,27.08 242.468572,27.08 C242.148572,27.08 241.948572,26.88 241.908572,26.4 C241.908572,26.16 242.028572,24.48 242.188572,21.4 C242.388572,18.32 242.508572,16.6 242.508572,16.2 C242.508572,14.76 242.348572,13.72 242.068572,13.08 C241.668572,12.08 241.068572,11.56 240.348572,11.56 C240.028572,11.56 239.708572,11.72 239.468572,12 C239.228572,12.24 239.108572,12.56 239.108572,12.88 C239.308572,13.96 239.428572,15 239.428572,15.96 C239.428572,19.12 239.268572,22.6 238.988572,26.36 C239.068572,27.8 239.508572,28.8 240.308572,29.48 C240.828572,29.88 241.428572,30.12 242.068572,30.12 C245.348572,29.52 248.348572,29.24 251.028572,29.24 C251.308572,29.24 251.748572,29.28 252.348572,29.36 C252.908572,29.44 253.348572,29.52 253.668572,29.52 C255.108572,29.52 255.828572,28.72 255.908572,27.2 C255.948572,25.6 256.148572,23.16 256.468572,19.84 C256.748572,16.52 256.908572,14.64 256.908572,14.24 L256.908572,14.24 Z M277.874286,21.44 L277.874286,18.76 C277.874286,15.96 277.234286,14.52 275.994286,14.52 C275.354286,14.52 274.754286,15.08 274.154286,16.12 C272.914286,18.32 271.954286,19.88 271.234286,20.76 C270.274286,21.96 269.354286,22.56 268.474286,22.56 C267.834286,22.56 267.554286,22.2 267.554286,21.48 C267.554286,20.84 267.674286,19.6 267.914286,17.76 C268.154286,15.92 268.314286,14.8 268.314286,14.44 C268.314286,13.48 268.154286,12.6 267.834286,11.88 C267.474286,11 266.954286,10.56 266.314286,10.56 C265.114286,10.56 264.554286,11.08 264.554286,12.08 C264.554286,12.32 264.594286,12.64 264.754286,13.12 C264.874286,13.6 264.954286,13.92 264.954286,14.16 C264.954286,14.96 264.834286,16.16 264.634286,17.84 C264.434286,19.52 264.354286,20.8 264.354286,21.6 C264.354286,22.92 264.714286,24 265.474286,24.84 C266.194286,25.72 267.154286,26.12 268.434286,26.12 C270.474286,26.12 272.554286,24.64 274.674286,21.68 C274.674286,23.04 274.554286,24.32 274.354286,25.56 C273.394286,30.88 269.874286,33.56 263.754286,33.64 C262.794286,33.52 262.074286,33.44 261.594286,33.4 C260.594286,33.44 260.074286,33.96 260.074286,35 C260.074286,36.44 261.314286,37.2 263.794286,37.2 C267.714286,37.2 270.874286,36.12 273.354286,34.04 C276.354286,31.48 277.874286,27.32 277.874286,21.44 L277.874286,21.44 Z M304.96,20.8 C304.96,18.2 303.72,16.08 301.32,14.48 C300.36,13.84 299.32,13.52 298.2,13.52 C297.8,12.96 297.12,12.64 296.12,12.64 C295.16,12.64 294.12,13.36 293,14.8 C291.8,16.36 291.12,18.04 290.88,19.88 C289.8,19.68 288.8,19.52 287.92,19.36 C288.32,17.2 288.6,15.52 288.84,14.32 C289,13.76 289.12,13.28 289.2,12.96 C289.2,11.88 288.68,11.32 287.64,11.32 C287.32,11.32 287.08,11.4 286.92,11.52 C286.44,11.84 286,13 285.68,15 C285.44,16.36 285.24,17.72 285.08,19.08 C284.6,19.32 284.36,19.68 284.36,20.08 C284.36,20.28 284.48,20.64 284.72,21.16 C284.4,23.96 284.24,25.96 284.24,27.08 C284.24,27.68 284.36,28.24 284.68,28.84 C285.08,29.56 285.6,29.92 286.2,29.92 C287.04,29.92 287.48,29.4 287.48,28.44 C287.48,28.2 287.4,27.96 287.28,27.64 C287.12,27.32 287.08,27.16 287.08,27.08 C287.08,25.84 287.2,24.28 287.44,22.36 C288,22.44 288.4,22.44 288.64,22.44 C289.12,22.44 289.84,22.32 290.84,22 C291,24.24 291.8,26 293.24,27.36 C294.6,28.68 296.32,29.36 298.48,29.36 C300.04,29.36 301.52,28.48 302.92,26.72 C304.28,24.96 304.96,23 304.96,20.8 L304.96,20.8 Z M302.12,19.76 C302.12,20.88 301.92,21.8 301.6,22.52 C301.36,23 301.12,23.52 300.96,24.08 C300.76,24.72 300.36,25.24 299.72,25.68 C299.08,26.16 298.44,26.36 297.8,26.36 C296.76,26.36 295.84,25.88 295.04,24.84 C294.24,23.84 293.84,22.72 293.84,21.44 C293.84,20.12 294.16,18.84 294.88,17.56 C295.6,16.28 296.44,15.52 297.4,15.2 C297.6,15.84 298.2,16.24 299.16,16.44 C299.92,16.6 300.6,17.04 301.2,17.68 C301.8,18.4 302.12,19.08 302.12,19.76 L302.12,19.76 Z M341.371429,28.28 C341.371429,26.44 340.691429,25.4 339.411429,25.16 C339.011429,25.24 338.731429,25.32 338.531429,25.32 C339.011429,19.88 339.331429,16.12 339.491429,14.04 C339.491429,13.56 339.291429,13.04 338.931429,12.52 C338.531429,12 338.131429,11.72 337.691429,11.72 C336.851429,11.72 336.371429,12.08 336.251429,12.72 L336.251429,16.08 C336.251429,17.72 335.971429,20.96 335.491429,25.76 C332.611429,26.2 330.931429,26.4 330.491429,26.4 C330.091429,26.4 329.891429,26.16 329.891429,25.64 L330.171429,20.72 C330.371429,17.48 330.491429,15.8 330.491429,15.64 C330.491429,14.64 330.331429,13.72 330.051429,12.84 C329.651429,11.72 329.051429,11.12 328.251429,11.12 C327.491429,11.12 327.091429,11.56 327.011429,12.44 C327.051429,13.28 327.091429,13.92 327.171429,14.32 C327.251429,15.6 327.331429,16.24 327.331429,16.28 C327.331429,17.4 327.251429,19 327.131429,21.16 C326.971429,23.32 326.891429,24.96 326.891429,26.04 C326.891429,27.48 327.331429,28.44 328.251429,29.08 C328.891429,29.48 329.451429,29.72 329.931429,29.72 L333.891429,29.12 C335.411429,28.88 336.731429,28.8 337.931429,28.8 C338.251429,28.8 338.411429,28.96 338.411429,29.32 C338.411429,29.8 338.331429,30.32 338.171429,30.88 C337.891429,31.76 337.771429,32.32 337.771429,32.48 C337.771429,32.64 337.891429,32.88 338.171429,33.16 C338.451429,33.4 338.691429,33.56 338.891429,33.56 C339.531429,33.56 340.131429,32.84 340.691429,31.4 C341.131429,30.2 341.371429,29.16 341.371429,28.28 L341.371429,28.28 Z M362.777144,27.28 C362.777144,26.88 362.617144,26.48 362.297144,26.08 C361.977144,25.76 361.577144,25.56 361.177144,25.56 C360.857144,25.56 360.337144,25.64 359.657144,25.72 C358.977144,25.8 358.457144,25.84 358.137144,25.84 C356.937144,25.84 355.897144,25.28 354.937144,24.12 C358.937144,21.96 360.937144,19.4 360.937144,16.44 C360.937144,15.32 360.457144,14.24 359.497144,13.28 C358.537144,12.32 357.577144,11.84 356.577144,11.84 C354.857144,11.84 353.457144,12.84 352.337144,14.8 C351.377144,16.48 350.897144,18.28 350.897144,20.2 C350.897144,20.6 350.937144,21.16 351.057144,21.84 L350.137144,21.84 C349.577144,21.84 349.057144,21.64 348.497144,21.24 C347.937144,20.84 347.537144,20.64 347.297144,20.64 C346.257144,20.64 345.737144,21.2 345.737144,22.32 C345.737144,23.2 346.377144,23.92 347.737144,24.48 C348.777144,24.92 349.777144,25.12 350.817144,25.12 L352.017144,25.12 C353.457144,27.88 355.697144,29.24 358.737144,29.24 C361.417144,29.24 362.777144,28.56 362.777144,27.28 L362.777144,27.28 Z M357.777144,16.6 C357.777144,17.92 356.577144,19.36 354.177144,20.92 L354.177144,20.2 C354.177144,19.12 354.337144,18.08 354.737144,17.08 C355.137144,15.88 355.697144,15.28 356.417144,15.28 C356.737144,15.28 357.057144,15.44 357.377144,15.68 C357.617144,16 357.777144,16.28 357.777144,16.6 L357.777144,16.6 Z M381.342858,13.2 C381.342858,12.16 380.862858,11.64 379.902858,11.64 C379.102858,11.64 378.582858,12.36 378.382858,13.72 C378.182858,14.8 377.942858,16.32 377.702858,18.28 C375.942858,18.72 374.222858,19.04 372.542858,19.2 C372.942858,16.64 373.342858,14.72 373.742858,13.4 C373.982858,12.68 374.182858,12.12 374.382858,11.64 C374.302858,10.56 373.822858,10 372.862858,10 C372.182858,10 371.742858,10.32 371.502858,10.96 C370.702858,12.88 370.062858,15.64 369.662858,19.24 C369.022858,19.24 368.582858,19.2 368.342858,19.16 C367.542858,19.16 367.182858,19.64 367.182858,20.52 C367.182858,21.52 367.742858,22 368.902858,22 L369.382858,22 C369.262858,23.52 369.142858,25.24 369.062858,27.24 C369.062858,27.36 369.022858,27.56 368.982858,27.8 C368.902858,28.04 368.902858,28.2 368.902858,28.36 C368.902858,28.76 369.062858,29.12 369.382858,29.44 C369.702858,29.76 370.062858,29.92 370.462858,29.92 C371.422858,29.92 371.942858,29.4 371.982858,28.4 C371.982858,27.04 372.102858,24.88 372.302858,21.92 C374.022858,21.76 375.702858,21.48 377.382858,21.08 C377.182858,23.2 377.062858,24.88 377.062858,26.08 C377.062858,26.2 377.022858,26.36 376.982858,26.6 C376.902858,26.8 376.862858,26.96 376.862858,27.08 C376.862858,28.04 376.982858,28.76 377.302858,29.24 C377.622858,29.76 377.982858,30.04 378.462858,30.04 C378.862858,30.04 379.222858,29.88 379.542858,29.56 C379.822858,29.24 379.982858,28.84 379.982858,28.4 C379.982858,28.32 379.942858,28.12 379.942858,27.72 C379.902858,27.32 379.902858,27 379.902858,26.84 C379.902858,24.16 380.302858,20.04 381.182858,14.48 C381.262858,13.76 381.342858,13.36 381.342858,13.2 L381.342858,13.2 Z M402.268572,21.44 L402.268572,18.76 C402.268572,15.96 401.628572,14.52 400.388572,14.52 C399.748572,14.52 399.148572,15.08 398.548572,16.12 C397.308572,18.32 396.348572,19.88 395.628572,20.76 C394.668572,21.96 393.748572,22.56 392.868572,22.56 C392.228572,22.56 391.948572,22.2 391.948572,21.48 C391.948572,20.84 392.068572,19.6 392.308572,17.76 C392.548572,15.92 392.708572,14.8 392.708572,14.44 C392.708572,13.48 392.548572,12.6 392.228572,11.88 C391.868572,11 391.348572,10.56 390.708572,10.56 C389.508572,10.56 388.948572,11.08 388.948572,12.08 C388.948572,12.32 388.988572,12.64 389.148572,13.12 C389.268572,13.6 389.348572,13.92 389.348572,14.16 C389.348572,14.96 389.228572,16.16 389.028572,17.84 C388.828572,19.52 388.748572,20.8 388.748572,21.6 C388.748572,22.92 389.108572,24 389.868572,24.84 C390.588572,25.72 391.548572,26.12 392.828572,26.12 C394.868572,26.12 396.948572,24.64 399.068572,21.68 C399.068572,23.04 398.948572,24.32 398.748572,25.56 C397.788572,30.88 394.268572,33.56 388.148572,33.64 C387.188572,33.52 386.468572,33.44 385.988572,33.4 C384.988572,33.44 384.468572,33.96 384.468572,35 C384.468572,36.44 385.708572,37.2 388.188572,37.2 C392.108572,37.2 395.268572,36.12 397.748572,34.04 C400.748572,31.48 402.268572,27.32 402.268572,21.44 L402.268572,21.44 Z" id="Выбрать-лучшую-цену"></path>
            </g>
        </g>
    </g>
</svg>