<?xml version="1.0" encoding="UTF-8"?>
<svg width="277px" height="28px" viewBox="0 0 277 28" version="1.1" xmlns="http://www.w3.org/2000/svg" xmlns:xlink="http://www.w3.org/1999/xlink">
    <!-- Generator: Sketch 40.3 (33839) - http://www.bohemiancoding.com/sketch -->
    <title>Group 4</title>
    <desc>Created with Sketch.</desc>
    <defs></defs>
    <g id="Page-1" stroke="none" stroke-width="1" fill="none" fill-rule="evenodd">
        <g id="Desktop" transform="translate(-336.000000, -195.000000)" fill="#354777">
            <g id="Group-4" transform="translate(334.000000, 189.000000)">
                <path d="M25.565,23.405 C25.565,21.655 24.445,20.395 22.205,19.625 C20.945,19.24 18.81,18.925 15.835,18.68 C18.215,17.385 19.93,16.3 20.98,15.39 C22.66,13.99 23.535,12.59 23.535,11.19 C23.535,9.65 22.835,8.495 21.47,7.725 C20.385,7.165 19.02,6.85 17.375,6.85 C15.205,6.85 12.37,7.025 8.87,7.305 C8.205,7.375 7.785,7.48 7.575,7.62 C7.225,7.83 7.05,8.215 7.05,8.845 C7.05,9.825 7.575,10.28 8.695,10.28 C8.765,10.28 9.255,10.245 10.165,10.14 C10.165,10.21 10.13,11.155 10.095,13.045 C10.025,14.97 10.025,16.16 10.025,16.65 L10.025,22.845 C9.99,26.765 9.99,29.005 9.99,29.565 C9.15,29.705 8.555,29.845 8.205,30.02 C7.75,30.3 7.54,30.755 7.54,31.35 C7.54,31.735 7.645,32.085 7.925,32.365 C8.17,32.645 8.485,32.785 8.905,32.785 C9.815,32.68 12.65,31.91 17.375,30.51 C19.72,29.81 21.505,29.04 22.73,28.2 C24.62,26.94 25.565,25.33 25.565,23.405 L25.565,23.405 Z M20.525,11.33 C20.525,12.66 17.97,14.585 12.93,17.105 L12.93,13.885 C12.93,12.835 12.965,11.54 13.035,9.93 C13.28,9.93 13.945,9.895 15.065,9.825 C15.905,9.79 16.57,9.755 17.13,9.755 C19.37,9.755 20.525,10.28 20.525,11.33 L20.525,11.33 Z M22.625,23.86 C22.625,25.33 19.335,26.94 12.825,28.69 L12.825,21.305 C16.255,21.62 18.495,21.865 19.545,22.04 C21.575,22.46 22.625,23.09 22.625,23.86 L22.625,23.86 Z M40.23,23.3 C40.23,21.935 39.845,20.675 39.075,19.555 C38.27,18.47 37.255,17.7 36.03,17.28 C35.54,17.14 35.26,17.07 35.19,17.07 C34.91,17.07 34.595,17.245 34.175,17.525 C33.685,17.805 33.3,18.015 33.02,18.12 C31.83,18.715 30.85,19.765 30.15,21.235 C29.45,22.565 29.135,24 29.135,25.505 C29.135,27.29 29.59,28.76 30.57,29.915 C31.55,31.035 32.775,31.63 34.245,31.63 C35.925,31.63 37.36,30.86 38.515,29.25 C39.635,27.64 40.23,25.68 40.23,23.3 L40.23,23.3 Z M37.465,23.825 C37.465,25.015 37.115,26.1 36.485,27.115 C35.785,28.165 35.05,28.69 34.21,28.69 C33.51,28.69 32.95,28.375 32.53,27.71 C32.075,27.08 31.865,26.345 31.865,25.505 C31.865,24.385 32.11,23.335 32.67,22.355 C33.3,21.235 34.105,20.64 35.085,20.64 C35.435,20.85 35.89,20.955 36.45,20.955 C37.115,21.375 37.465,22.355 37.465,23.825 L37.465,23.825 Z M54.65,27.78 C54.65,27.43 54.51,27.08 54.23,26.73 C53.95,26.45 53.635,26.275 53.285,26.275 C53.005,26.275 52.585,26.52 52.095,26.975 C51.675,27.325 51.255,27.675 50.905,28.025 C50.31,28.48 49.575,28.69 48.7,28.69 C47.3,28.69 46.635,27.85 46.635,26.1 C46.635,25.015 46.95,23.93 47.58,22.88 C48.21,21.83 48.98,20.955 49.925,20.325 C50.345,20.57 50.975,20.675 51.85,20.675 C52.305,20.675 52.76,20.5 53.215,20.08 C53.6,19.66 53.81,19.275 53.81,18.855 C53.81,18.295 53.6,17.875 53.18,17.525 C52.725,17.21 52.235,17.035 51.71,17.035 C49.505,17.035 47.545,18.19 45.865,20.465 C44.5,22.285 43.835,24.28 43.835,26.45 C43.835,27.99 44.325,29.215 45.305,30.195 C46.285,31.14 47.51,31.63 48.98,31.63 C50.31,31.63 51.675,31.105 53.005,30.055 C54.09,29.215 54.65,28.48 54.65,27.78 L54.65,27.78 Z M70.225,17.91 C70.225,17.525 70.05,17.175 69.7,16.895 C69.315,16.65 68.93,16.51 68.545,16.44 C64.975,16.72 62.14,16.965 60.11,17.105 C58.885,17.21 58.29,17.63 58.29,18.4 C58.29,18.89 58.36,19.31 58.57,19.695 C58.325,23.3 58.22,25.12 58.22,25.19 C57.975,27.71 57.87,28.97 57.87,28.97 C57.87,29.425 58.01,29.88 58.325,30.335 C58.64,30.79 58.99,31 59.41,31 C60.11,31 60.46,30.545 60.53,29.6 C60.74,25.82 60.95,22.565 61.23,19.835 C63.015,19.59 64.87,19.415 66.795,19.345 C66.795,19.45 66.725,21.165 66.62,24.455 C66.48,27.395 66.445,28.97 66.445,29.18 C66.445,31.455 67.04,32.61 68.3,32.61 C68.965,32.61 69.315,32.225 69.315,31.525 C69.105,30.475 69.035,29.495 69.035,28.655 C69.035,27.535 69.105,25.75 69.245,23.3 C69.28,22.915 69.35,22.355 69.455,21.585 C69.525,20.955 69.56,20.605 69.56,20.465 C69.56,20.255 69.49,19.94 69.42,19.52 C69.945,18.96 70.225,18.435 70.225,17.91 L70.225,17.91 Z M86.535,22.88 C86.535,22.565 86.36,22.215 86.08,21.865 C86.08,21.06 85.94,20.36 85.73,19.73 C85.765,19.59 85.8,19.415 85.8,19.24 C85.8,18.82 85.555,18.4 85.135,18.05 C84.68,17.7 84.225,17.49 83.77,17.49 C81.845,17.49 79.745,18.61 77.435,20.78 C75.02,23.02 73.83,25.19 73.83,27.22 C73.83,28.305 74.18,29.25 74.95,30.09 C75.685,30.965 76.56,31.385 77.575,31.385 C79.15,31.385 80.9,30.405 82.86,28.445 C83.035,31.105 83.63,32.47 84.645,32.47 C84.995,32.47 85.345,32.33 85.66,32.12 C85.94,31.84 86.115,31.49 86.115,31.14 C86.115,31.035 86.01,30.615 85.87,29.775 C85.695,28.97 85.625,28.34 85.625,27.92 C85.625,26.52 85.835,25.12 86.325,23.65 C86.465,23.265 86.535,23.02 86.535,22.88 L86.535,22.88 Z M83.35,21.865 C83.35,23.055 82.65,24.455 81.32,26.065 C79.99,27.675 78.765,28.445 77.715,28.445 C76.98,28.445 76.63,28.025 76.63,27.15 C76.63,26.03 77.505,24.63 79.29,22.915 C80.9,21.375 82.055,20.57 82.72,20.57 C83.14,20.57 83.35,21.025 83.35,21.865 L83.35,21.865 Z M104.245,18.61 C104.245,18.085 104.07,17.63 103.72,17.21 C103.405,16.825 103.02,16.615 102.53,16.615 C102.32,16.615 101.9,16.825 101.27,17.175 C100.64,17.56 99.1,17.875 96.615,18.155 C96.055,17.7 95.6,17.455 95.285,17.455 C94.9,17.455 94.48,17.665 94.06,18.085 C93.64,18.505 93.43,18.96 93.43,19.38 C93.43,19.66 93.57,20.01 93.85,20.395 C94.095,20.815 94.235,21.27 94.235,21.795 C94.235,23.965 94.06,25.75 93.71,27.22 C93.255,28.935 92.66,29.775 91.96,29.775 C91.68,29.775 91.47,29.355 91.4,28.445 C91.33,28.095 91.19,27.885 90.91,27.885 C90.42,27.885 90.07,28.13 89.825,28.55 C89.51,29.04 89.37,29.6 89.37,30.195 C89.37,30.86 89.615,31.35 90.14,31.735 C90.63,32.085 91.19,32.295 91.82,32.295 C93.64,32.295 94.935,31.105 95.705,28.795 C96.195,27.325 96.615,24.665 96.965,20.815 C97.84,20.605 99.17,20.325 100.99,20.01 C100.64,23.44 100.465,26.03 100.465,27.78 C100.465,30.09 100.605,31.525 100.92,32.12 C101.235,32.715 101.69,33.03 102.25,33.03 C103.16,33.03 103.615,32.47 103.615,31.42 C103.475,30.79 103.405,30.23 103.335,29.74 C103.16,28.55 103.09,27.535 103.09,26.66 C103.09,24.77 103.37,22.565 103.965,20.045 C104.14,19.205 104.245,18.75 104.245,18.61 L104.245,18.61 Z M121.71,30.37 C121.71,30.02 121.57,29.67 121.29,29.32 C121.01,29.04 120.66,28.865 120.31,28.865 C120.03,28.865 119.575,28.935 118.98,29.005 C118.385,29.075 117.93,29.11 117.65,29.11 C116.6,29.11 115.69,28.62 114.85,27.605 C118.35,25.715 120.1,23.475 120.1,20.885 C120.1,19.905 119.68,18.96 118.84,18.12 C118,17.28 117.16,16.86 116.285,16.86 C114.78,16.86 113.555,17.735 112.575,19.45 C111.735,20.92 111.315,22.495 111.315,24.175 C111.315,24.525 111.35,25.015 111.455,25.61 L110.65,25.61 C110.16,25.61 109.705,25.435 109.215,25.085 C108.725,24.735 108.375,24.56 108.165,24.56 C107.255,24.56 106.8,25.05 106.8,26.03 C106.8,26.8 107.36,27.43 108.55,27.92 C109.46,28.305 110.335,28.48 111.245,28.48 L112.295,28.48 C113.555,30.895 115.515,32.085 118.175,32.085 C120.52,32.085 121.71,31.49 121.71,30.37 L121.71,30.37 Z M117.335,21.025 C117.335,22.18 116.285,23.44 114.185,24.805 L114.185,24.175 C114.185,23.23 114.325,22.32 114.675,21.445 C115.025,20.395 115.515,19.87 116.145,19.87 C116.425,19.87 116.705,20.01 116.985,20.22 C117.195,20.5 117.335,20.745 117.335,21.025 L117.335,21.025 Z M135.955,18.05 C135.955,17.14 135.535,16.685 134.695,16.685 C133.995,16.685 133.54,17.315 133.365,18.505 C133.19,19.45 132.98,20.78 132.77,22.495 C131.23,22.88 129.725,23.16 128.255,23.3 C128.605,21.06 128.955,19.38 129.305,18.225 C129.515,17.595 129.69,17.105 129.865,16.685 C129.795,15.74 129.375,15.25 128.535,15.25 C127.94,15.25 127.555,15.53 127.345,16.09 C126.645,17.77 126.085,20.185 125.735,23.335 C125.175,23.335 124.79,23.3 124.58,23.265 C123.88,23.265 123.565,23.685 123.565,24.455 C123.565,25.33 124.055,25.75 125.07,25.75 L125.49,25.75 C125.385,27.08 125.28,28.585 125.21,30.335 C125.21,30.44 125.175,30.615 125.14,30.825 C125.07,31.035 125.07,31.175 125.07,31.315 C125.07,31.665 125.21,31.98 125.49,32.26 C125.77,32.54 126.085,32.68 126.435,32.68 C127.275,32.68 127.73,32.225 127.765,31.35 C127.765,30.16 127.87,28.27 128.045,25.68 C129.55,25.54 131.02,25.295 132.49,24.945 C132.315,26.8 132.21,28.27 132.21,29.32 C132.21,29.425 132.175,29.565 132.14,29.775 C132.07,29.95 132.035,30.09 132.035,30.195 C132.035,31.035 132.14,31.665 132.42,32.085 C132.7,32.54 133.015,32.785 133.435,32.785 C133.785,32.785 134.1,32.645 134.38,32.365 C134.625,32.085 134.765,31.735 134.765,31.35 C134.765,31.28 134.73,31.105 134.73,30.755 C134.695,30.405 134.695,30.125 134.695,29.985 C134.695,27.64 135.045,24.035 135.815,19.17 C135.885,18.54 135.955,18.19 135.955,18.05 L135.955,18.05 Z M152.51,31.21 C152.51,30.965 152.335,30.65 152.02,30.3 C151.25,29.46 150.9,27.325 150.9,23.895 C150.9,22.67 151.075,20.605 151.46,17.7 C151.46,17.315 151.285,16.965 151.005,16.615 C150.69,16.3 150.34,16.125 149.955,16.125 C149.36,16.125 148.1,17.42 146.21,20.01 C144.67,22.04 143.41,23.895 142.36,25.505 C142.605,22.775 142.78,20.78 142.885,19.59 C142.885,19.03 142.675,18.54 142.325,18.12 C141.975,17.735 141.52,17.525 140.96,17.525 C140.645,17.525 140.365,17.735 140.085,18.12 C140.155,19.135 140.225,19.73 140.225,19.87 C140.225,20.5 140.12,22.075 139.945,24.63 L139.875,25.645 C139.84,26.17 139.77,26.87 139.7,27.745 C139.595,28.585 139.525,29.11 139.525,29.32 C139.56,29.81 139.7,30.195 139.98,30.405 C140.54,30.965 140.89,31.21 141.03,31.21 C141.52,31.21 142.115,30.685 142.745,29.565 C144.04,27.395 144.95,25.855 145.51,25.015 C146.42,23.51 147.4,22.11 148.485,20.85 C148.485,21.2 148.45,21.935 148.45,23.02 C148.415,24.14 148.415,24.735 148.415,24.875 C148.415,26.695 148.59,28.235 148.975,29.565 C149.5,31.49 150.27,32.47 151.25,32.47 C151.46,32.47 151.74,32.295 152.055,32.015 C152.335,31.665 152.51,31.42 152.51,31.21 L152.51,31.21 Z M169.975,30.37 C169.975,30.02 169.835,29.67 169.555,29.32 C169.275,29.04 168.925,28.865 168.575,28.865 C168.295,28.865 167.84,28.935 167.245,29.005 C166.65,29.075 166.195,29.11 165.915,29.11 C164.865,29.11 163.955,28.62 163.115,27.605 C166.615,25.715 168.365,23.475 168.365,20.885 C168.365,19.905 167.945,18.96 167.105,18.12 C166.265,17.28 165.425,16.86 164.55,16.86 C163.045,16.86 161.82,17.735 160.84,19.45 C160,20.92 159.58,22.495 159.58,24.175 C159.58,24.525 159.615,25.015 159.72,25.61 L158.915,25.61 C158.425,25.61 157.97,25.435 157.48,25.085 C156.99,24.735 156.64,24.56 156.43,24.56 C155.52,24.56 155.065,25.05 155.065,26.03 C155.065,26.8 155.625,27.43 156.815,27.92 C157.725,28.305 158.6,28.48 159.51,28.48 L160.56,28.48 C161.82,30.895 163.78,32.085 166.44,32.085 C168.785,32.085 169.975,31.49 169.975,30.37 L169.975,30.37 Z M165.6,21.025 C165.6,22.18 164.55,23.44 162.45,24.805 L162.45,24.175 C162.45,23.23 162.59,22.32 162.94,21.445 C163.29,20.395 163.78,19.87 164.41,19.87 C164.69,19.87 164.97,20.01 165.25,20.22 C165.46,20.5 165.6,20.745 165.6,21.025 L165.6,21.025 Z M196.89,17.91 C196.89,17.525 196.715,17.175 196.365,16.895 C195.98,16.65 195.595,16.51 195.21,16.44 C191.64,16.72 188.805,16.965 186.775,17.105 C185.55,17.21 184.955,17.63 184.955,18.4 C184.955,18.89 185.025,19.31 185.235,19.695 C184.99,23.3 184.885,25.12 184.885,25.19 C184.64,27.71 184.535,28.97 184.535,28.97 C184.535,29.425 184.675,29.88 184.99,30.335 C185.305,30.79 185.655,31 186.075,31 C186.775,31 187.125,30.545 187.195,29.6 C187.405,25.82 187.615,22.565 187.895,19.835 C189.68,19.59 191.535,19.415 193.46,19.345 C193.46,19.45 193.39,21.165 193.285,24.455 C193.145,27.395 193.11,28.97 193.11,29.18 C193.11,31.455 193.705,32.61 194.965,32.61 C195.63,32.61 195.98,32.225 195.98,31.525 C195.77,30.475 195.7,29.495 195.7,28.655 C195.7,27.535 195.77,25.75 195.91,23.3 C195.945,22.915 196.015,22.355 196.12,21.585 C196.19,20.955 196.225,20.605 196.225,20.465 C196.225,20.255 196.155,19.94 196.085,19.52 C196.61,18.96 196.89,18.435 196.89,17.91 L196.89,17.91 Z M211.59,23.3 C211.59,21.935 211.205,20.675 210.435,19.555 C209.63,18.47 208.615,17.7 207.39,17.28 C206.9,17.14 206.62,17.07 206.55,17.07 C206.27,17.07 205.955,17.245 205.535,17.525 C205.045,17.805 204.66,18.015 204.38,18.12 C203.19,18.715 202.21,19.765 201.51,21.235 C200.81,22.565 200.495,24 200.495,25.505 C200.495,27.29 200.95,28.76 201.93,29.915 C202.91,31.035 204.135,31.63 205.605,31.63 C207.285,31.63 208.72,30.86 209.875,29.25 C210.995,27.64 211.59,25.68 211.59,23.3 L211.59,23.3 Z M208.825,23.825 C208.825,25.015 208.475,26.1 207.845,27.115 C207.145,28.165 206.41,28.69 205.57,28.69 C204.87,28.69 204.31,28.375 203.89,27.71 C203.435,27.08 203.225,26.345 203.225,25.505 C203.225,24.385 203.47,23.335 204.03,22.355 C204.66,21.235 205.465,20.64 206.445,20.64 C206.795,20.85 207.25,20.955 207.81,20.955 C208.475,21.375 208.825,22.355 208.825,23.825 L208.825,23.825 Z M226.955,17.7 C226.92,17.315 226.78,16.93 226.5,16.58 C226.22,16.23 225.905,16.055 225.555,16.055 C224.61,16.055 224.12,16.58 224.085,17.595 C224.085,17.735 224.085,18.19 224.12,18.925 C224.12,19.73 224.155,20.185 224.155,20.325 C224.155,21.69 223.7,22.95 222.825,24.14 C221.915,25.33 220.9,25.89 219.815,25.89 C218.45,25.89 217.785,24.91 217.785,22.88 C217.785,22.11 217.925,20.36 218.275,17.63 C218.17,16.65 217.75,16.125 217.05,16.125 C216.07,16.125 215.51,17.07 215.3,18.925 C215.23,19.45 215.195,20.745 215.195,22.845 C215.195,26.555 216.665,28.41 219.64,28.41 C220.48,28.41 221.355,28.2 222.195,27.71 C223.035,27.255 223.7,26.625 224.12,25.855 C224.05,27.255 223.98,28.41 223.91,29.285 C223.77,30.72 223.735,31.735 223.735,32.435 C223.735,33.38 224.12,33.87 224.96,33.87 C225.87,33.87 226.36,33.38 226.395,32.4 C226.43,30.125 226.535,26.765 226.745,22.355 C226.815,20.045 226.885,18.505 226.955,17.7 L226.955,17.7 Z M244.42,30.37 C244.42,30.02 244.28,29.67 244,29.32 C243.72,29.04 243.37,28.865 243.02,28.865 C242.74,28.865 242.285,28.935 241.69,29.005 C241.095,29.075 240.64,29.11 240.36,29.11 C239.31,29.11 238.4,28.62 237.56,27.605 C241.06,25.715 242.81,23.475 242.81,20.885 C242.81,19.905 242.39,18.96 241.55,18.12 C240.71,17.28 239.87,16.86 238.995,16.86 C237.49,16.86 236.265,17.735 235.285,19.45 C234.445,20.92 234.025,22.495 234.025,24.175 C234.025,24.525 234.06,25.015 234.165,25.61 L233.36,25.61 C232.87,25.61 232.415,25.435 231.925,25.085 C231.435,24.735 231.085,24.56 230.875,24.56 C229.965,24.56 229.51,25.05 229.51,26.03 C229.51,26.8 230.07,27.43 231.26,27.92 C232.17,28.305 233.045,28.48 233.955,28.48 L235.005,28.48 C236.265,30.895 238.225,32.085 240.885,32.085 C243.23,32.085 244.42,31.49 244.42,30.37 L244.42,30.37 Z M240.045,21.025 C240.045,22.18 238.995,23.44 236.895,24.805 L236.895,24.175 C236.895,23.23 237.035,22.32 237.385,21.445 C237.735,20.395 238.225,19.87 238.855,19.87 C239.135,19.87 239.415,20.01 239.695,20.22 C239.905,20.5 240.045,20.745 240.045,21.025 L240.045,21.025 Z M258.98,19.555 C258.98,19.275 258.84,18.96 258.56,18.645 C258.28,18.365 257.965,18.225 257.685,18.225 C257.405,18.225 256.81,18.435 255.935,18.855 C254.465,19.555 252.61,20.885 250.44,22.775 C250.93,20.745 251.385,19.135 251.875,17.98 C252.155,17.245 252.295,16.79 252.295,16.65 C252.295,15.74 251.84,15.285 251,15.285 C250.44,15.285 250.02,15.6 249.74,16.23 C248.025,20.43 247.15,25.05 247.08,30.055 C247.01,30.23 247.01,30.405 247.01,30.58 C247.01,31 247.08,31.385 247.22,31.77 C247.43,32.4 247.92,32.75 248.62,32.75 C249.39,32.75 249.775,32.295 249.775,31.42 C249.775,31.35 249.74,31.14 249.74,30.79 C249.705,30.44 249.705,30.195 249.705,29.985 L249.705,28.69 C249.705,28.2 249.705,27.64 249.775,27.01 C250.02,26.87 250.16,26.8 250.195,26.765 C251.525,28.55 253.24,30.125 255.305,31.49 C255.935,31.945 256.425,32.19 256.775,32.19 C257.615,32.19 258.035,31.735 258.035,30.86 C258.035,30.51 257.72,30.02 257.16,29.46 C256.18,28.585 255.62,28.13 255.41,28.13 C255.34,28.13 255.235,28.165 255.165,28.165 C253.8,27.08 252.75,26.03 252.05,25.015 C253.73,23.44 255.13,22.32 256.285,21.69 C256.425,21.76 256.565,21.795 256.74,21.795 C257.195,21.795 257.685,21.55 258.175,21.06 C258.7,20.605 258.98,20.115 258.98,19.555 L258.98,19.555 Z M276.305,12.485 C276.305,10.7 275.64,9.3 274.31,8.285 C273.12,7.375 271.51,6.885 269.55,6.885 C268.745,6.885 267.8,7.025 266.75,7.27 C266.155,7.095 265.84,6.99 265.805,6.99 C265.385,6.99 264.965,7.2 264.51,7.55 C264.09,7.935 263.88,8.32 263.88,8.74 C263.88,9.23 264.02,9.615 264.3,9.895 C264.58,10.245 264.93,10.385 265.42,10.385 C265.525,10.385 265.875,10.35 266.435,10.21 C268.115,9.93 269.025,9.755 269.165,9.755 C272.035,9.755 273.505,10.665 273.505,12.45 C273.505,13.78 272.7,14.935 271.125,15.845 C269.76,16.65 268.15,17.14 266.295,17.35 C265.175,17.49 264.65,17.98 264.65,18.785 C264.65,18.96 264.755,19.345 265,19.975 C265.49,21.48 265.805,22.95 265.98,24.385 C266.085,25.365 266.54,25.82 267.345,25.82 C268.255,25.82 268.745,25.33 268.745,24.28 C268.745,23.195 268.465,21.69 267.94,19.8 C270.145,19.45 272.07,18.645 273.68,17.385 C275.43,15.985 276.305,14.375 276.305,12.485 L276.305,12.485 Z M269.445,30.51 C269.445,29.95 269.235,29.495 268.85,29.145 C268.395,28.865 267.905,28.69 267.415,28.69 C266.82,28.69 266.365,28.935 266.015,29.39 C265.665,29.81 265.49,30.335 265.49,30.93 C265.49,31.455 265.63,31.91 265.945,32.295 C266.26,32.645 266.61,32.855 266.995,32.855 C267.8,32.855 268.43,32.645 268.85,32.225 C269.235,31.77 269.445,31.21 269.445,30.51 L269.445,30.51 Z" id="Воспаление-почек?"></path>
                <rect id="Rectangle-4" x="2" y="23" width="277" height="2"></rect>
            </g>
        </g>
    </g>
</svg>