<?xml version="1.0" encoding="UTF-8"?>
<svg width="175px" height="16px" viewBox="0 0 175 16" version="1.1" xmlns="http://www.w3.org/2000/svg" xmlns:xlink="http://www.w3.org/1999/xlink">
    <!-- Generator: Sketch 40.3 (33839) - http://www.bohemiancoding.com/sketch -->
    <title>пропустить вопрос →</title>
    <desc>Created with Sketch.</desc>
    <defs></defs>
    <g id="Page-1" stroke="none" stroke-width="1" fill="none" fill-rule="evenodd">
        <g id="Desktop" transform="translate(-735.000000, -654.000000)" fill="#354777">
            <path d="M742.08,657.52 C742.08,657.3 741.98,657.1 741.78,656.94 C741.56,656.8 741.34,656.72 741.12,656.68 C739.08,656.84 737.46,656.98 736.3,657.06 C735.6,657.12 735.26,657.36 735.26,657.8 C735.26,658.08 735.3,658.32 735.42,658.54 C735.28,660.6 735.22,661.64 735.22,661.68 C735.08,663.12 735.02,663.84 735.02,663.84 C735.02,664.1 735.1,664.36 735.28,664.62 C735.46,664.88 735.66,665 735.9,665 C736.3,665 736.5,664.74 736.54,664.2 C736.66,662.04 736.78,660.18 736.94,658.62 C737.96,658.48 739.02,658.38 740.12,658.34 C740.12,658.4 740.08,659.38 740.02,661.26 C739.94,662.94 739.92,663.84 739.92,663.96 C739.92,665.26 740.26,665.92 740.98,665.92 C741.36,665.92 741.56,665.7 741.56,665.3 C741.44,664.7 741.4,664.14 741.4,663.66 C741.4,663.02 741.44,662 741.52,660.6 C741.54,660.38 741.58,660.06 741.64,659.62 C741.68,659.26 741.7,659.06 741.7,658.98 C741.7,658.86 741.66,658.68 741.62,658.44 C741.92,658.12 742.08,657.82 742.08,657.52 L742.08,657.52 Z M751.38,658.08 C751.38,657.12 751.16,656.32 750.72,655.68 C750.24,654.98 749.54,654.62 748.66,654.62 C747.4,654.62 746.42,655.5 745.72,657.26 C745.24,658.48 745,659.88 745,661.44 C745,661.64 745,661.8 745.02,661.9 C744.46,662.1 744.2,662.4 744.2,662.82 C744.2,663.34 744.46,663.62 745.02,663.66 C745.06,663.98 745.08,664.46 745.08,665.1 C745.08,666.38 745,667.28 744.88,667.84 C744.74,668.38 744.68,668.68 744.68,668.74 C744.68,668.96 744.76,669.16 744.92,669.34 C745.08,669.5 745.28,669.6 745.5,669.6 C745.92,669.6 746.22,669.18 746.4,668.36 C746.6,667.44 746.7,666.5 746.7,665.58 C746.7,664.74 746.66,663.92 746.6,663.12 C749.78,661.96 751.38,660.28 751.38,658.08 L751.38,658.08 Z M749.78,657.74 C749.78,659.38 748.72,660.58 746.62,661.34 C746.62,660.26 746.8,659.16 747.18,658.08 C747.6,656.9 748.1,656.3 748.66,656.3 C749,656.3 749.28,656.46 749.5,656.74 C749.68,657.02 749.78,657.36 749.78,657.74 L749.78,657.74 Z M759.7,660.6 C759.7,659.82 759.48,659.1 759.04,658.46 C758.58,657.84 758,657.4 757.3,657.16 C757.02,657.08 756.86,657.04 756.82,657.04 C756.66,657.04 756.48,657.14 756.24,657.3 C755.96,657.46 755.74,657.58 755.58,657.64 C754.9,657.98 754.34,658.58 753.94,659.42 C753.54,660.18 753.36,661 753.36,661.86 C753.36,662.88 753.62,663.72 754.18,664.38 C754.74,665.02 755.44,665.36 756.28,665.36 C757.24,665.36 758.06,664.92 758.72,664 C759.36,663.08 759.7,661.96 759.7,660.6 L759.7,660.6 Z M758.12,660.9 C758.12,661.58 757.92,662.2 757.56,662.78 C757.16,663.38 756.74,663.68 756.26,663.68 C755.86,663.68 755.54,663.5 755.3,663.12 C755.04,662.76 754.92,662.34 754.92,661.86 C754.92,661.22 755.06,660.62 755.38,660.06 C755.74,659.42 756.2,659.08 756.76,659.08 C756.96,659.2 757.22,659.26 757.54,659.26 C757.92,659.5 758.12,660.06 758.12,660.9 L758.12,660.9 Z M768.82,657.52 C768.82,657.3 768.72,657.1 768.52,656.94 C768.3,656.8 768.08,656.72 767.86,656.68 C765.82,656.84 764.2,656.98 763.04,657.06 C762.34,657.12 762,657.36 762,657.8 C762,658.08 762.04,658.32 762.16,658.54 C762.02,660.6 761.96,661.64 761.96,661.68 C761.82,663.12 761.76,663.84 761.76,663.84 C761.76,664.1 761.84,664.36 762.02,664.62 C762.2,664.88 762.4,665 762.64,665 C763.04,665 763.24,664.74 763.28,664.2 C763.4,662.04 763.52,660.18 763.68,658.62 C764.7,658.48 765.76,658.38 766.86,658.34 C766.86,658.4 766.82,659.38 766.76,661.26 C766.68,662.94 766.66,663.84 766.66,663.96 C766.66,665.26 767,665.92 767.72,665.92 C768.1,665.92 768.3,665.7 768.3,665.3 C768.18,664.7 768.14,664.14 768.14,663.66 C768.14,663.02 768.18,662 768.26,660.6 C768.28,660.38 768.32,660.06 768.38,659.62 C768.42,659.26 768.44,659.06 768.44,658.98 C768.44,658.86 768.4,658.68 768.36,658.44 C768.66,658.12 768.82,657.82 768.82,657.52 L768.82,657.52 Z M778.16,661.72 L778.16,660.38 C778.16,658.98 777.84,658.26 777.22,658.26 C776.9,658.26 776.6,658.54 776.3,659.06 C775.68,660.16 775.2,660.94 774.84,661.38 C774.36,661.98 773.9,662.28 773.46,662.28 C773.14,662.28 773,662.1 773,661.74 C773,661.42 773.06,660.8 773.18,659.88 C773.3,658.96 773.38,658.4 773.38,658.22 C773.38,657.74 773.3,657.3 773.14,656.94 C772.96,656.5 772.7,656.28 772.38,656.28 C771.78,656.28 771.5,656.54 771.5,657.04 C771.5,657.16 771.52,657.32 771.6,657.56 C771.66,657.8 771.7,657.96 771.7,658.08 C771.7,658.48 771.64,659.08 771.54,659.92 C771.44,660.76 771.4,661.4 771.4,661.8 C771.4,662.46 771.58,663 771.96,663.42 C772.32,663.86 772.8,664.06 773.44,664.06 C774.46,664.06 775.5,663.32 776.56,661.84 C776.56,662.52 776.5,663.16 776.4,663.78 C775.92,666.44 774.16,667.78 771.1,667.82 C770.62,667.76 770.26,667.72 770.02,667.7 C769.52,667.72 769.26,667.98 769.26,668.5 C769.26,669.22 769.88,669.6 771.12,669.6 C773.08,669.6 774.66,669.06 775.9,668.02 C777.4,666.74 778.16,664.66 778.16,661.72 L778.16,661.72 Z M786.38,663.16 C786.38,662.96 786.3,662.76 786.14,662.56 C785.98,662.4 785.8,662.3 785.6,662.3 C785.44,662.3 785.2,662.44 784.92,662.7 C784.68,662.9 784.44,663.1 784.24,663.3 C783.9,663.56 783.48,663.68 782.98,663.68 C782.18,663.68 781.8,663.2 781.8,662.2 C781.8,661.58 781.98,660.96 782.34,660.36 C782.7,659.76 783.14,659.26 783.68,658.9 C783.92,659.04 784.28,659.1 784.78,659.1 C785.04,659.1 785.3,659 785.56,658.76 C785.78,658.52 785.9,658.3 785.9,658.06 C785.9,657.74 785.78,657.5 785.54,657.3 C785.28,657.12 785,657.02 784.7,657.02 C783.44,657.02 782.32,657.68 781.36,658.98 C780.58,660.02 780.2,661.16 780.2,662.4 C780.2,663.28 780.48,663.98 781.04,664.54 C781.6,665.08 782.3,665.36 783.14,665.36 C783.9,665.36 784.68,665.06 785.44,664.46 C786.06,663.98 786.38,663.56 786.38,663.16 L786.38,663.16 Z M796.26,656.68 C796.26,656.48 796.18,656.28 796.04,656.1 C795.9,655.94 795.74,655.84 795.56,655.84 C795.26,655.84 794.84,655.92 794.28,656.04 C792.08,656.56 790.12,657.02 788.44,657.42 C788.32,657.46 788.24,657.46 788.2,657.46 C787.8,657.54 787.6,657.84 787.6,658.34 C787.6,658.9 787.82,659.16 788.3,659.16 C788.88,659.04 789.34,658.94 789.66,658.84 C790.24,658.72 790.74,658.6 791.16,658.52 C791.08,660.06 791.04,661.54 791.04,662.94 C791.04,664.3 791.12,665.24 791.28,665.76 C791.4,666.12 791.64,666.3 792.04,666.3 C792.56,666.3 792.82,665.82 792.82,664.88 C792.82,664.42 792.72,664.08 792.56,663.86 C792.52,663.36 792.5,662.58 792.5,661.5 C792.5,660.66 792.56,659.52 792.72,658.1 C793.3,657.96 793.7,657.86 793.94,657.82 C794.12,657.94 794.26,657.98 794.36,657.98 C794.48,657.98 794.62,657.96 794.8,657.88 L795.72,657.46 C796.08,657.3 796.26,657.04 796.26,656.68 L796.26,656.68 Z M804.9,665.12 C804.9,664.98 804.8,664.8 804.62,664.6 C804.18,664.12 803.98,662.9 803.98,660.94 C803.98,660.24 804.08,659.06 804.3,657.4 C804.3,657.18 804.2,656.98 804.04,656.78 C803.86,656.6 803.66,656.5 803.44,656.5 C803.1,656.5 802.38,657.24 801.3,658.72 C800.42,659.88 799.7,660.94 799.1,661.86 C799.24,660.3 799.34,659.16 799.4,658.48 C799.4,658.16 799.28,657.88 799.08,657.64 C798.88,657.42 798.62,657.3 798.3,657.3 C798.12,657.3 797.96,657.42 797.8,657.64 C797.84,658.22 797.88,658.56 797.88,658.64 C797.88,659 797.82,659.9 797.72,661.36 L797.68,661.94 C797.66,662.24 797.62,662.64 797.58,663.14 C797.52,663.62 797.48,663.92 797.48,664.04 C797.5,664.32 797.58,664.54 797.74,664.66 C798.06,664.98 798.26,665.12 798.34,665.12 C798.62,665.12 798.96,664.82 799.32,664.18 C800.06,662.94 800.58,662.06 800.9,661.58 C801.42,660.72 801.98,659.92 802.6,659.2 C802.6,659.4 802.58,659.82 802.58,660.44 C802.56,661.08 802.56,661.42 802.56,661.5 C802.56,662.54 802.66,663.42 802.88,664.18 C803.18,665.28 803.62,665.84 804.18,665.84 C804.3,665.84 804.46,665.74 804.64,665.58 C804.8,665.38 804.9,665.24 804.9,665.12 L804.9,665.12 Z M814.98,656.68 C814.98,656.48 814.9,656.28 814.76,656.1 C814.62,655.94 814.46,655.84 814.28,655.84 C813.98,655.84 813.56,655.92 813,656.04 C810.8,656.56 808.84,657.02 807.16,657.42 C807.04,657.46 806.96,657.46 806.92,657.46 C806.52,657.54 806.32,657.84 806.32,658.34 C806.32,658.9 806.54,659.16 807.02,659.16 C807.6,659.04 808.06,658.94 808.38,658.84 C808.96,658.72 809.46,658.6 809.88,658.52 C809.8,660.06 809.76,661.54 809.76,662.94 C809.76,664.3 809.84,665.24 810,665.76 C810.12,666.12 810.36,666.3 810.76,666.3 C811.28,666.3 811.54,665.82 811.54,664.88 C811.54,664.42 811.44,664.08 811.28,663.86 C811.24,663.36 811.22,662.58 811.22,661.5 C811.22,660.66 811.28,659.52 811.44,658.1 C812.02,657.96 812.42,657.86 812.66,657.82 C812.84,657.94 812.98,657.98 813.08,657.98 C813.2,657.98 813.34,657.96 813.52,657.88 L814.44,657.46 C814.8,657.3 814.98,657.04 814.98,656.68 L814.98,656.68 Z M822.26,662.58 C822.26,661.76 821.98,661.1 821.44,660.6 C820.94,660.14 820.3,659.9 819.5,659.9 C819.06,659.9 818.62,660.02 818.18,660.26 C818.26,659.52 818.32,658.86 818.38,658.3 C818.48,657.66 818.54,657.16 818.58,656.8 C818.5,656.22 818.26,655.92 817.82,655.92 C817.3,655.92 817.02,656.32 816.96,657.1 C816.64,660.26 816.4,662.94 816.2,665.14 C816.22,665.84 816.48,666.2 817,666.2 C817.32,666.2 817.54,666.06 817.66,665.8 C817.88,665.86 818.08,665.9 818.28,665.9 C819.16,665.9 820.02,665.58 820.86,664.96 C821.78,664.28 822.26,663.5 822.26,662.58 L822.26,662.58 Z M820.74,662.34 C820.74,662.94 820.42,663.48 819.82,663.94 C819.26,664.38 818.72,664.6 818.2,664.6 C818.12,664.6 817.98,664.58 817.82,664.54 L818,662.24 C818.36,661.64 818.84,661.32 819.46,661.32 C819.78,661.32 820.06,661.42 820.34,661.62 C820.6,661.82 820.74,662.06 820.74,662.34 L820.74,662.34 Z M838.9,662.78 C838.9,661.64 837.68,661.02 835.28,660.92 C837.12,660.1 838.04,659.22 838.04,658.26 C838.04,657.64 837.72,657.16 837.1,656.82 C836.6,656.58 836,656.44 835.3,656.44 C834.32,656.44 833.16,656.5 831.82,656.62 C831.22,656.7 830.94,656.94 830.94,657.38 C830.94,657.86 831.2,658.08 831.76,658.08 C831.86,658.08 832.02,658.06 832.24,658.02 C832.2,662.44 832.18,664.72 832.18,664.84 C831.48,664.92 831.14,665.2 831.14,665.72 C831.14,666.08 831.38,666.28 831.9,666.34 C832.32,666.32 832.94,666.22 833.76,666.04 C835.28,665.68 836.4,665.32 837.08,665 C838.28,664.44 838.9,663.7 838.9,662.78 L838.9,662.78 Z M836.5,658.44 C836.5,659.02 835.56,659.64 833.68,660.3 L833.72,657.98 C834.46,657.92 835,657.88 835.32,657.88 C836.1,657.88 836.5,658.08 836.5,658.44 L836.5,658.44 Z M837.4,662.98 C837.4,663.28 837.06,663.58 836.38,663.86 C835.7,664.14 834.78,664.36 833.64,664.5 L833.64,661.98 C834.96,662.02 835.88,662.12 836.44,662.24 C837.08,662.4 837.4,662.64 837.4,662.98 L837.4,662.98 Z M847.28,660.6 C847.28,659.82 847.06,659.1 846.62,658.46 C846.16,657.84 845.58,657.4 844.88,657.16 C844.6,657.08 844.44,657.04 844.4,657.04 C844.24,657.04 844.06,657.14 843.82,657.3 C843.54,657.46 843.32,657.58 843.16,657.64 C842.48,657.98 841.92,658.58 841.52,659.42 C841.12,660.18 840.94,661 840.94,661.86 C840.94,662.88 841.2,663.72 841.76,664.38 C842.32,665.02 843.02,665.36 843.86,665.36 C844.82,665.36 845.64,664.92 846.3,664 C846.94,663.08 847.28,661.96 847.28,660.6 L847.28,660.6 Z M845.7,660.9 C845.7,661.58 845.5,662.2 845.14,662.78 C844.74,663.38 844.32,663.68 843.84,663.68 C843.44,663.68 843.12,663.5 842.88,663.12 C842.62,662.76 842.5,662.34 842.5,661.86 C842.5,661.22 842.64,660.62 842.96,660.06 C843.32,659.42 843.78,659.08 844.34,659.08 C844.54,659.2 844.8,659.26 845.12,659.26 C845.5,659.5 845.7,660.06 845.7,660.9 L845.7,660.9 Z M856.4,657.52 C856.4,657.3 856.3,657.1 856.1,656.94 C855.88,656.8 855.66,656.72 855.44,656.68 C853.4,656.84 851.78,656.98 850.62,657.06 C849.92,657.12 849.58,657.36 849.58,657.8 C849.58,658.08 849.62,658.32 849.74,658.54 C849.6,660.6 849.54,661.64 849.54,661.68 C849.4,663.12 849.34,663.84 849.34,663.84 C849.34,664.1 849.42,664.36 849.6,664.62 C849.78,664.88 849.98,665 850.22,665 C850.62,665 850.82,664.74 850.86,664.2 C850.98,662.04 851.1,660.18 851.26,658.62 C852.28,658.48 853.34,658.38 854.44,658.34 C854.44,658.4 854.4,659.38 854.34,661.26 C854.26,662.94 854.24,663.84 854.24,663.96 C854.24,665.26 854.58,665.92 855.3,665.92 C855.68,665.92 855.88,665.7 855.88,665.3 C855.76,664.7 855.72,664.14 855.72,663.66 C855.72,663.02 855.76,662 855.84,660.6 C855.86,660.38 855.9,660.06 855.96,659.62 C856,659.26 856.02,659.06 856.02,658.98 C856.02,658.86 855.98,658.68 855.94,658.44 C856.24,658.12 856.4,657.82 856.4,657.52 L856.4,657.52 Z M865.7,658.08 C865.7,657.12 865.48,656.32 865.04,655.68 C864.56,654.98 863.86,654.62 862.98,654.62 C861.72,654.62 860.74,655.5 860.04,657.26 C859.56,658.48 859.32,659.88 859.32,661.44 C859.32,661.64 859.32,661.8 859.34,661.9 C858.78,662.1 858.52,662.4 858.52,662.82 C858.52,663.34 858.78,663.62 859.34,663.66 C859.38,663.98 859.4,664.46 859.4,665.1 C859.4,666.38 859.32,667.28 859.2,667.84 C859.06,668.38 859,668.68 859,668.74 C859,668.96 859.08,669.16 859.24,669.34 C859.4,669.5 859.6,669.6 859.82,669.6 C860.24,669.6 860.54,669.18 860.72,668.36 C860.92,667.44 861.02,666.5 861.02,665.58 C861.02,664.74 860.98,663.92 860.92,663.12 C864.1,661.96 865.7,660.28 865.7,658.08 L865.7,658.08 Z M864.1,657.74 C864.1,659.38 863.04,660.58 860.94,661.34 C860.94,660.26 861.12,659.16 861.5,658.08 C861.92,656.9 862.42,656.3 862.98,656.3 C863.32,656.3 863.6,656.46 863.82,656.74 C864,657.02 864.1,657.36 864.1,657.74 L864.1,657.74 Z M874.02,660.6 C874.02,659.82 873.8,659.1 873.36,658.46 C872.9,657.84 872.32,657.4 871.62,657.16 C871.34,657.08 871.18,657.04 871.14,657.04 C870.98,657.04 870.8,657.14 870.56,657.3 C870.28,657.46 870.06,657.58 869.9,657.64 C869.22,657.98 868.66,658.58 868.26,659.42 C867.86,660.18 867.68,661 867.68,661.86 C867.68,662.88 867.94,663.72 868.5,664.38 C869.06,665.02 869.76,665.36 870.6,665.36 C871.56,665.36 872.38,664.92 873.04,664 C873.68,663.08 874.02,661.96 874.02,660.6 L874.02,660.6 Z M872.44,660.9 C872.44,661.58 872.24,662.2 871.88,662.78 C871.48,663.38 871.06,663.68 870.58,663.68 C870.18,663.68 869.86,663.5 869.62,663.12 C869.36,662.76 869.24,662.34 869.24,661.86 C869.24,661.22 869.38,660.62 869.7,660.06 C870.06,659.42 870.52,659.08 871.08,659.08 C871.28,659.2 871.54,659.26 871.86,659.26 C872.24,659.5 872.44,660.06 872.44,660.9 L872.44,660.9 Z M882.26,663.16 C882.26,662.96 882.18,662.76 882.02,662.56 C881.86,662.4 881.68,662.3 881.48,662.3 C881.32,662.3 881.08,662.44 880.8,662.7 C880.56,662.9 880.32,663.1 880.12,663.3 C879.78,663.56 879.36,663.68 878.86,663.68 C878.06,663.68 877.68,663.2 877.68,662.2 C877.68,661.58 877.86,660.96 878.22,660.36 C878.58,659.76 879.02,659.26 879.56,658.9 C879.8,659.04 880.16,659.1 880.66,659.1 C880.92,659.1 881.18,659 881.44,658.76 C881.66,658.52 881.78,658.3 881.78,658.06 C881.78,657.74 881.66,657.5 881.42,657.3 C881.16,657.12 880.88,657.02 880.58,657.02 C879.32,657.02 878.2,657.68 877.24,658.98 C876.46,660.02 876.08,661.16 876.08,662.4 C876.08,663.28 876.36,663.98 876.92,664.54 C877.48,665.08 878.18,665.36 879.02,665.36 C879.78,665.36 880.56,665.06 881.32,664.46 C881.94,663.98 882.26,663.56 882.26,663.16 L882.26,663.16 Z M909.6,658.62 L909.6,658.38 C909.08,657.94 908.66,657.62 908.36,657.38 C908.06,657.14 907.82,656.96 907.66,656.8 C906.94,656.26 906.3,655.76 905.74,655.32 C905.5,655.14 905.26,654.94 905.04,654.74 C904.76,654.54 904.54,654.44 904.4,654.44 C904.28,654.44 904.14,654.52 904,654.66 C903.84,654.8 903.76,654.94 903.76,655.06 C903.76,655.38 904.06,655.8 904.68,656.28 C905.16,656.68 905.94,657.24 907,658 C903.56,657.98 901.16,657.96 899.76,657.96 C899.36,657.96 898.28,657.94 896.52,657.9 C894.6,657.86 893.54,657.84 893.3,657.84 C892.54,657.84 891.94,657.78 891.5,657.66 C891.04,657.72 890.82,658.02 890.82,658.56 C890.82,658.74 890.9,658.88 891.06,658.98 C891.22,659.1 891.38,659.18 891.54,659.18 C893.06,659.26 894.02,659.3 894.46,659.3 C898.78,659.36 901.2,659.38 901.68,659.38 L906.96,659.32 C905.26,660.64 904.28,661.4 904.02,661.6 C903.82,661.74 903.74,661.98 903.74,662.3 C903.74,662.68 903.9,662.86 904.26,662.86 C904.58,662.86 904.84,662.76 905.06,662.54 C906.7,661.42 908.2,660.1 909.6,658.62 L909.6,658.62 Z" id="пропустить-вопрос-→"></path>
        </g>
    </g>
</svg>