<?xml version="1.0" encoding="UTF-8"?>
<svg width="116px" height="31px" viewBox="0 0 116 31" version="1.1" xmlns="http://www.w3.org/2000/svg" xmlns:xlink="http://www.w3.org/1999/xlink">
    <!-- Generator: Sketch 40.3 (33839) - http://www.bohemiancoding.com/sketch -->
    <title>Цистит?</title>
    <desc>Created with Sketch.</desc>
    <defs></defs>
    <g id="Page-1" stroke="none" stroke-width="1" fill="none" fill-rule="evenodd">
        <g id="Desktop" transform="translate(-342.000000, -92.000000)" fill="#354777">
            <g id="Group-3" transform="translate(342.000000, 92.000000)">
                <path d="M18.95,24.615 C18.95,22.9 18.215,22.025 16.78,22.025 C16.43,22.025 16.045,22.06 15.695,22.06 C16.045,16.88 16.325,13.1 16.5,10.72 C16.64,9.075 16.78,7.43 16.955,5.82 C17.095,4.595 17.2,3.965 17.2,3.895 C17.2,3.37 16.92,2.81 16.43,2.215 C15.905,1.655 15.415,1.34 14.96,1.34 C14.26,1.34 13.805,1.55 13.595,1.9 C13.665,3.16 13.735,4.7 13.735,6.52 C13.735,7.255 13.595,9.46 13.35,13.135 C13,18.245 12.79,21.36 12.72,22.41 L8.87,22.935 C6.63,23.25 5.265,23.39 4.775,23.39 C4.18,23.39 3.9,23.075 3.9,22.445 C3.9,21.955 3.97,20.1 4.11,16.915 C4.11,16.215 4.25,14.29 4.46,11.21 C4.6,8.48 4.705,6.94 4.705,6.59 C4.705,2.985 3.865,1.165 2.255,1.165 C1.38,1.165 0.96,1.62 0.96,2.495 C1.065,3.265 1.135,3.825 1.205,4.105 C1.275,5.19 1.345,6.275 1.45,7.325 C1.415,8.34 1.275,10.72 1.03,14.5 C0.855,17.44 0.785,19.855 0.785,21.675 C0.785,22.83 0.855,23.6 1.03,24.02 C1.24,24.685 1.765,25.21 2.605,25.665 C3.62,26.155 4.425,26.435 5.02,26.435 C6.455,26.225 7.505,26.085 8.135,25.98 C12.195,25.42 14.47,25.175 14.995,25.175 C15.695,25.175 16.08,25.525 16.08,26.26 C16.08,26.54 15.975,27.59 15.835,29.34 C15.835,29.97 16.29,30.285 17.2,30.285 C18.355,30.285 18.95,28.395 18.95,24.615 L18.95,24.615 Z M34.805,25.21 C34.805,24.965 34.63,24.65 34.315,24.3 C33.545,23.46 33.195,21.325 33.195,17.895 C33.195,16.67 33.37,14.605 33.755,11.7 C33.755,11.315 33.58,10.965 33.3,10.615 C32.985,10.3 32.635,10.125 32.25,10.125 C31.655,10.125 30.395,11.42 28.505,14.01 C26.965,16.04 25.705,17.895 24.655,19.505 C24.9,16.775 25.075,14.78 25.18,13.59 C25.18,13.03 24.97,12.54 24.62,12.12 C24.27,11.735 23.815,11.525 23.255,11.525 C22.94,11.525 22.66,11.735 22.38,12.12 C22.45,13.135 22.52,13.73 22.52,13.87 C22.52,14.5 22.415,16.075 22.24,18.63 L22.17,19.645 C22.135,20.17 22.065,20.87 21.995,21.745 C21.89,22.585 21.82,23.11 21.82,23.32 C21.855,23.81 21.995,24.195 22.275,24.405 C22.835,24.965 23.185,25.21 23.325,25.21 C23.815,25.21 24.41,24.685 25.04,23.565 C26.335,21.395 27.245,19.855 27.805,19.015 C28.715,17.51 29.695,16.11 30.78,14.85 C30.78,15.2 30.745,15.935 30.745,17.02 C30.71,18.14 30.71,18.735 30.71,18.875 C30.71,20.695 30.885,22.235 31.27,23.565 C31.795,25.49 32.565,26.47 33.545,26.47 C33.755,26.47 34.035,26.295 34.35,26.015 C34.63,25.665 34.805,25.42 34.805,25.21 L34.805,25.21 Z M49.19,21.78 C49.19,21.43 49.05,21.08 48.77,20.73 C48.49,20.45 48.175,20.275 47.825,20.275 C47.545,20.275 47.125,20.52 46.635,20.975 C46.215,21.325 45.795,21.675 45.445,22.025 C44.85,22.48 44.115,22.69 43.24,22.69 C41.84,22.69 41.175,21.85 41.175,20.1 C41.175,19.015 41.49,17.93 42.12,16.88 C42.75,15.83 43.52,14.955 44.465,14.325 C44.885,14.57 45.515,14.675 46.39,14.675 C46.845,14.675 47.3,14.5 47.755,14.08 C48.14,13.66 48.35,13.275 48.35,12.855 C48.35,12.295 48.14,11.875 47.72,11.525 C47.265,11.21 46.775,11.035 46.25,11.035 C44.045,11.035 42.085,12.19 40.405,14.465 C39.04,16.285 38.375,18.28 38.375,20.45 C38.375,21.99 38.865,23.215 39.845,24.195 C40.825,25.14 42.05,25.63 43.52,25.63 C44.85,25.63 46.215,25.105 47.545,24.055 C48.63,23.215 49.19,22.48 49.19,21.78 L49.19,21.78 Z M66.48,10.44 C66.48,10.09 66.34,9.74 66.095,9.425 C65.85,9.145 65.57,8.97 65.255,8.97 C64.73,8.97 63.995,9.11 63.015,9.32 C59.165,10.23 55.735,11.035 52.795,11.735 C52.585,11.805 52.445,11.805 52.375,11.805 C51.675,11.945 51.325,12.47 51.325,13.345 C51.325,14.325 51.71,14.78 52.55,14.78 C53.565,14.57 54.37,14.395 54.93,14.22 C55.945,14.01 56.82,13.8 57.555,13.66 C57.415,16.355 57.345,18.945 57.345,21.395 C57.345,23.775 57.485,25.42 57.765,26.33 C57.975,26.96 58.395,27.275 59.095,27.275 C60.005,27.275 60.46,26.435 60.46,24.79 C60.46,23.985 60.285,23.39 60.005,23.005 C59.935,22.13 59.9,20.765 59.9,18.875 C59.9,17.405 60.005,15.41 60.285,12.925 C61.3,12.68 62,12.505 62.42,12.435 C62.735,12.645 62.98,12.715 63.155,12.715 C63.365,12.715 63.61,12.68 63.925,12.54 L65.535,11.805 C66.165,11.525 66.48,11.07 66.48,10.44 L66.48,10.44 Z M81.6,25.21 C81.6,24.965 81.425,24.65 81.11,24.3 C80.34,23.46 79.99,21.325 79.99,17.895 C79.99,16.67 80.165,14.605 80.55,11.7 C80.55,11.315 80.375,10.965 80.095,10.615 C79.78,10.3 79.43,10.125 79.045,10.125 C78.45,10.125 77.19,11.42 75.3,14.01 C73.76,16.04 72.5,17.895 71.45,19.505 C71.695,16.775 71.87,14.78 71.975,13.59 C71.975,13.03 71.765,12.54 71.415,12.12 C71.065,11.735 70.61,11.525 70.05,11.525 C69.735,11.525 69.455,11.735 69.175,12.12 C69.245,13.135 69.315,13.73 69.315,13.87 C69.315,14.5 69.21,16.075 69.035,18.63 L68.965,19.645 C68.93,20.17 68.86,20.87 68.79,21.745 C68.685,22.585 68.615,23.11 68.615,23.32 C68.65,23.81 68.79,24.195 69.07,24.405 C69.63,24.965 69.98,25.21 70.12,25.21 C70.61,25.21 71.205,24.685 71.835,23.565 C73.13,21.395 74.04,19.855 74.6,19.015 C75.51,17.51 76.49,16.11 77.575,14.85 C77.575,15.2 77.54,15.935 77.54,17.02 C77.505,18.14 77.505,18.735 77.505,18.875 C77.505,20.695 77.68,22.235 78.065,23.565 C78.59,25.49 79.36,26.47 80.34,26.47 C80.55,26.47 80.83,26.295 81.145,26.015 C81.425,25.665 81.6,25.42 81.6,25.21 L81.6,25.21 Z M99.24,10.44 C99.24,10.09 99.1,9.74 98.855,9.425 C98.61,9.145 98.33,8.97 98.015,8.97 C97.49,8.97 96.755,9.11 95.775,9.32 C91.925,10.23 88.495,11.035 85.555,11.735 C85.345,11.805 85.205,11.805 85.135,11.805 C84.435,11.945 84.085,12.47 84.085,13.345 C84.085,14.325 84.47,14.78 85.31,14.78 C86.325,14.57 87.13,14.395 87.69,14.22 C88.705,14.01 89.58,13.8 90.315,13.66 C90.175,16.355 90.105,18.945 90.105,21.395 C90.105,23.775 90.245,25.42 90.525,26.33 C90.735,26.96 91.155,27.275 91.855,27.275 C92.765,27.275 93.22,26.435 93.22,24.79 C93.22,23.985 93.045,23.39 92.765,23.005 C92.695,22.13 92.66,20.765 92.66,18.875 C92.66,17.405 92.765,15.41 93.045,12.925 C94.06,12.68 94.76,12.505 95.18,12.435 C95.495,12.645 95.74,12.715 95.915,12.715 C96.125,12.715 96.37,12.68 96.685,12.54 L98.295,11.805 C98.925,11.525 99.24,11.07 99.24,10.44 L99.24,10.44 Z M115.83,6.485 C115.83,4.7 115.165,3.3 113.835,2.285 C112.645,1.375 111.035,0.885 109.075,0.885 C108.27,0.885 107.325,1.025 106.275,1.27 C105.68,1.095 105.365,0.99 105.33,0.99 C104.91,0.99 104.49,1.2 104.035,1.55 C103.615,1.935 103.405,2.32 103.405,2.74 C103.405,3.23 103.545,3.615 103.825,3.895 C104.105,4.245 104.455,4.385 104.945,4.385 C105.05,4.385 105.4,4.35 105.96,4.21 C107.64,3.93 108.55,3.755 108.69,3.755 C111.56,3.755 113.03,4.665 113.03,6.45 C113.03,7.78 112.225,8.935 110.65,9.845 C109.285,10.65 107.675,11.14 105.82,11.35 C104.7,11.49 104.175,11.98 104.175,12.785 C104.175,12.96 104.28,13.345 104.525,13.975 C105.015,15.48 105.33,16.95 105.505,18.385 C105.61,19.365 106.065,19.82 106.87,19.82 C107.78,19.82 108.27,19.33 108.27,18.28 C108.27,17.195 107.99,15.69 107.465,13.8 C109.67,13.45 111.595,12.645 113.205,11.385 C114.955,9.985 115.83,8.375 115.83,6.485 L115.83,6.485 Z M108.97,24.51 C108.97,23.95 108.76,23.495 108.375,23.145 C107.92,22.865 107.43,22.69 106.94,22.69 C106.345,22.69 105.89,22.935 105.54,23.39 C105.19,23.81 105.015,24.335 105.015,24.93 C105.015,25.455 105.155,25.91 105.47,26.295 C105.785,26.645 106.135,26.855 106.52,26.855 C107.325,26.855 107.955,26.645 108.375,26.225 C108.76,25.77 108.97,25.21 108.97,24.51 L108.97,24.51 Z" id="Цистит?"></path>
            </g>
        </g>
    </g>
</svg>