<?xml version="1.0" encoding="UTF-8"?>
<svg width="238px" height="33px" viewBox="0 0 238 33" version="1.1" xmlns="http://www.w3.org/2000/svg" xmlns:xlink="http://www.w3.org/1999/xlink">
    <!-- Generator: Sketch 40.3 (33839) - http://www.bohemiancoding.com/sketch -->
    <title>Камни в почках?</title>
    <desc>Created with Sketch.</desc>
    <defs></defs>
    <g id="Page-1" stroke="none" stroke-width="1" fill="none" fill-rule="evenodd">
        <g id="Desktop" transform="translate(-341.000000, -137.000000)" fill="#354777">
            <path d="M362.015,144.95 C361.91,144.11 361.42,143.585 360.58,143.41 C359.25,143.48 357.185,144.495 354.35,146.42 C352.04,148.03 350.115,149.5 348.645,150.9 L345.215,154.12 C345.775,151.285 346.335,148.905 346.86,147.015 C346.965,146.525 347.42,145.125 348.225,142.815 C348.96,140.61 349.345,139.35 349.38,139 C349.31,138.16 348.82,137.74 347.98,137.74 C347.42,137.74 346.965,138.16 346.685,138.93 C344.585,144.25 343.185,149.185 342.485,153.805 C341.96,157.06 341.68,159.545 341.68,161.295 C341.645,163.36 341.645,164.9 341.645,165.88 C341.645,166.195 341.68,166.58 341.82,167 C341.82,167.35 341.89,167.7 342.065,167.98 C342.24,168.47 342.66,168.75 343.36,168.785 C344.13,168.68 344.55,168.225 344.655,167.42 C344.515,166.23 344.445,164.585 344.445,162.555 C344.445,161.295 344.515,159.79 344.655,158.11 C345.11,158.075 345.46,157.97 345.67,157.795 C345.74,157.795 346.02,157.515 346.58,157.025 C348.015,158.95 349.45,160.56 350.885,161.89 C353.475,164.34 355.4,165.88 356.66,166.51 C357.57,167.245 358.375,167.665 359.075,167.735 C359.81,167.525 360.23,167.035 360.3,166.3 C360.265,165.81 359.88,165.215 359.18,164.55 L357.115,162.625 C356.765,162.345 356.415,162.205 356.065,162.135 L355.575,162.17 C354.525,161.54 353.265,160.42 351.83,158.88 C350.5,157.48 349.415,156.185 348.61,154.96 C352.075,151.6 355.155,149.185 357.815,147.645 C358.27,147.855 358.585,147.925 358.795,147.925 C359.04,147.925 359.355,147.785 359.74,147.505 C361.245,146.91 362.015,146.07 362.015,144.95 L362.015,144.95 Z M375.77,158.88 C375.77,158.565 375.595,158.215 375.315,157.865 C375.315,157.06 375.175,156.36 374.965,155.73 C375,155.59 375.035,155.415 375.035,155.24 C375.035,154.82 374.79,154.4 374.37,154.05 C373.915,153.7 373.46,153.49 373.005,153.49 C371.08,153.49 368.98,154.61 366.67,156.78 C364.255,159.02 363.065,161.19 363.065,163.22 C363.065,164.305 363.415,165.25 364.185,166.09 C364.92,166.965 365.795,167.385 366.81,167.385 C368.385,167.385 370.135,166.405 372.095,164.445 C372.27,167.105 372.865,168.47 373.88,168.47 C374.23,168.47 374.58,168.33 374.895,168.12 C375.175,167.84 375.35,167.49 375.35,167.14 C375.35,167.035 375.245,166.615 375.105,165.775 C374.93,164.97 374.86,164.34 374.86,163.92 C374.86,162.52 375.07,161.12 375.56,159.65 C375.7,159.265 375.77,159.02 375.77,158.88 L375.77,158.88 Z M372.585,157.865 C372.585,159.055 371.885,160.455 370.555,162.065 C369.225,163.675 368,164.445 366.95,164.445 C366.215,164.445 365.865,164.025 365.865,163.15 C365.865,162.03 366.74,160.63 368.525,158.915 C370.135,157.375 371.29,156.57 371.955,156.57 C372.375,156.57 372.585,157.025 372.585,157.865 L372.585,157.865 Z M394.635,168.435 C394.635,168.12 394.53,167.77 394.32,167.35 C394.11,166.93 393.865,166.65 393.62,166.44 C393.06,165.25 392.57,163.08 392.15,159.965 C391.87,158.355 391.66,156.57 391.45,154.68 C391.345,153.945 390.925,153.56 390.19,153.56 C389.525,153.56 388.65,154.995 387.565,157.865 C387.18,158.845 386.865,159.685 386.585,160.455 C385.64,159.055 384.8,156.955 384.03,154.085 C383.75,153.035 383.33,152.51 382.805,152.51 C382.14,152.51 381.545,153.315 381.02,154.89 C380.915,154.89 380.775,154.855 380.6,154.855 C380.355,154.855 380.145,154.96 380.005,155.135 C379.795,155.345 379.69,155.59 379.69,155.835 C379.69,155.905 379.69,156.115 379.725,156.465 C379.725,156.85 379.76,157.06 379.76,157.13 C379.76,157.76 379.69,158.635 379.55,159.825 C379.41,161.015 379.34,162.345 379.34,163.78 C379.34,166.125 379.795,167.28 380.74,167.28 C381.44,167.28 381.79,166.51 381.86,164.935 C381.965,161.855 382.245,159.3 382.665,157.27 C384.52,161.75 385.99,163.99 387.04,163.99 C387.39,163.99 387.635,163.85 387.845,163.5 C388.02,163.22 388.23,162.59 388.51,161.68 C388.965,160.14 389.35,158.915 389.665,158.075 C390.015,161.96 390.505,164.83 391.17,166.685 C391.905,168.82 392.675,169.905 393.445,169.905 C393.725,169.905 394.005,169.73 394.25,169.415 C394.495,169.065 394.635,168.75 394.635,168.435 L394.635,168.435 Z M408.775,154.05 C408.775,153.14 408.355,152.685 407.515,152.685 C406.815,152.685 406.36,153.315 406.185,154.505 C406.01,155.45 405.8,156.78 405.59,158.495 C404.05,158.88 402.545,159.16 401.075,159.3 C401.425,157.06 401.775,155.38 402.125,154.225 C402.335,153.595 402.51,153.105 402.685,152.685 C402.615,151.74 402.195,151.25 401.355,151.25 C400.76,151.25 400.375,151.53 400.165,152.09 C399.465,153.77 398.905,156.185 398.555,159.335 C397.995,159.335 397.61,159.3 397.4,159.265 C396.7,159.265 396.385,159.685 396.385,160.455 C396.385,161.33 396.875,161.75 397.89,161.75 L398.31,161.75 C398.205,163.08 398.1,164.585 398.03,166.335 C398.03,166.44 397.995,166.615 397.96,166.825 C397.89,167.035 397.89,167.175 397.89,167.315 C397.89,167.665 398.03,167.98 398.31,168.26 C398.59,168.54 398.905,168.68 399.255,168.68 C400.095,168.68 400.55,168.225 400.585,167.35 C400.585,166.16 400.69,164.27 400.865,161.68 C402.37,161.54 403.84,161.295 405.31,160.945 C405.135,162.8 405.03,164.27 405.03,165.32 C405.03,165.425 404.995,165.565 404.96,165.775 C404.89,165.95 404.855,166.09 404.855,166.195 C404.855,167.035 404.96,167.665 405.24,168.085 C405.52,168.54 405.835,168.785 406.255,168.785 C406.605,168.785 406.92,168.645 407.2,168.365 C407.445,168.085 407.585,167.735 407.585,167.35 C407.585,167.28 407.55,167.105 407.55,166.755 C407.515,166.405 407.515,166.125 407.515,165.985 C407.515,163.64 407.865,160.035 408.635,155.17 C408.705,154.54 408.775,154.19 408.775,154.05 L408.775,154.05 Z M425.33,167.21 C425.33,166.965 425.155,166.65 424.84,166.3 C424.07,165.46 423.72,163.325 423.72,159.895 C423.72,158.67 423.895,156.605 424.28,153.7 C424.28,153.315 424.105,152.965 423.825,152.615 C423.51,152.3 423.16,152.125 422.775,152.125 C422.18,152.125 420.92,153.42 419.03,156.01 C417.49,158.04 416.23,159.895 415.18,161.505 C415.425,158.775 415.6,156.78 415.705,155.59 C415.705,155.03 415.495,154.54 415.145,154.12 C414.795,153.735 414.34,153.525 413.78,153.525 C413.465,153.525 413.185,153.735 412.905,154.12 C412.975,155.135 413.045,155.73 413.045,155.87 C413.045,156.5 412.94,158.075 412.765,160.63 L412.695,161.645 C412.66,162.17 412.59,162.87 412.52,163.745 C412.415,164.585 412.345,165.11 412.345,165.32 C412.38,165.81 412.52,166.195 412.8,166.405 C413.36,166.965 413.71,167.21 413.85,167.21 C414.34,167.21 414.935,166.685 415.565,165.565 C416.86,163.395 417.77,161.855 418.33,161.015 C419.24,159.51 420.22,158.11 421.305,156.85 C421.305,157.2 421.27,157.935 421.27,159.02 C421.235,160.14 421.235,160.735 421.235,160.875 C421.235,162.695 421.41,164.235 421.795,165.565 C422.32,167.49 423.09,168.47 424.07,168.47 C424.28,168.47 424.56,168.295 424.875,168.015 C425.155,167.665 425.33,167.42 425.33,167.21 L425.33,167.21 Z M454.8,163.115 C454.8,161.12 452.665,160.035 448.465,159.86 C451.685,158.425 453.295,156.885 453.295,155.205 C453.295,154.12 452.735,153.28 451.65,152.685 C450.775,152.265 449.725,152.02 448.5,152.02 C446.785,152.02 444.755,152.125 442.41,152.335 C441.36,152.475 440.87,152.895 440.87,153.665 C440.87,154.505 441.325,154.89 442.305,154.89 C442.48,154.89 442.76,154.855 443.145,154.785 C443.075,162.52 443.04,166.51 443.04,166.72 C441.815,166.86 441.22,167.35 441.22,168.26 C441.22,168.89 441.64,169.24 442.55,169.345 C443.285,169.31 444.37,169.135 445.805,168.82 C448.465,168.19 450.425,167.56 451.615,167 C453.715,166.02 454.8,164.725 454.8,163.115 L454.8,163.115 Z M450.6,155.52 C450.6,156.535 448.955,157.62 445.665,158.775 L445.735,154.715 C447.03,154.61 447.975,154.54 448.535,154.54 C449.9,154.54 450.6,154.89 450.6,155.52 L450.6,155.52 Z M452.175,163.465 C452.175,163.99 451.58,164.515 450.39,165.005 C449.2,165.495 447.59,165.88 445.595,166.125 L445.595,161.715 C447.905,161.785 449.515,161.96 450.495,162.17 C451.615,162.45 452.175,162.87 452.175,163.465 L452.175,163.465 Z M482.695,153.91 C482.695,153.525 482.52,153.175 482.17,152.895 C481.785,152.65 481.4,152.51 481.015,152.44 C477.445,152.72 474.61,152.965 472.58,153.105 C471.355,153.21 470.76,153.63 470.76,154.4 C470.76,154.89 470.83,155.31 471.04,155.695 C470.795,159.3 470.69,161.12 470.69,161.19 C470.445,163.71 470.34,164.97 470.34,164.97 C470.34,165.425 470.48,165.88 470.795,166.335 C471.11,166.79 471.46,167 471.88,167 C472.58,167 472.93,166.545 473,165.6 C473.21,161.82 473.42,158.565 473.7,155.835 C475.485,155.59 477.34,155.415 479.265,155.345 C479.265,155.45 479.195,157.165 479.09,160.455 C478.95,163.395 478.915,164.97 478.915,165.18 C478.915,167.455 479.51,168.61 480.77,168.61 C481.435,168.61 481.785,168.225 481.785,167.525 C481.575,166.475 481.505,165.495 481.505,164.655 C481.505,163.535 481.575,161.75 481.715,159.3 C481.75,158.915 481.82,158.355 481.925,157.585 C481.995,156.955 482.03,156.605 482.03,156.465 C482.03,156.255 481.96,155.94 481.89,155.52 C482.415,154.96 482.695,154.435 482.695,153.91 L482.695,153.91 Z M497.395,159.3 C497.395,157.935 497.01,156.675 496.24,155.555 C495.435,154.47 494.42,153.7 493.195,153.28 C492.705,153.14 492.425,153.07 492.355,153.07 C492.075,153.07 491.76,153.245 491.34,153.525 C490.85,153.805 490.465,154.015 490.185,154.12 C488.995,154.715 488.015,155.765 487.315,157.235 C486.615,158.565 486.3,160 486.3,161.505 C486.3,163.29 486.755,164.76 487.735,165.915 C488.715,167.035 489.94,167.63 491.41,167.63 C493.09,167.63 494.525,166.86 495.68,165.25 C496.8,163.64 497.395,161.68 497.395,159.3 L497.395,159.3 Z M494.63,159.825 C494.63,161.015 494.28,162.1 493.65,163.115 C492.95,164.165 492.215,164.69 491.375,164.69 C490.675,164.69 490.115,164.375 489.695,163.71 C489.24,163.08 489.03,162.345 489.03,161.505 C489.03,160.385 489.275,159.335 489.835,158.355 C490.465,157.235 491.27,156.64 492.25,156.64 C492.6,156.85 493.055,156.955 493.615,156.955 C494.28,157.375 494.63,158.355 494.63,159.825 L494.63,159.825 Z M512.76,153.7 C512.725,153.315 512.585,152.93 512.305,152.58 C512.025,152.23 511.71,152.055 511.36,152.055 C510.415,152.055 509.925,152.58 509.89,153.595 C509.89,153.735 509.89,154.19 509.925,154.925 C509.925,155.73 509.96,156.185 509.96,156.325 C509.96,157.69 509.505,158.95 508.63,160.14 C507.72,161.33 506.705,161.89 505.62,161.89 C504.255,161.89 503.59,160.91 503.59,158.88 C503.59,158.11 503.73,156.36 504.08,153.63 C503.975,152.65 503.555,152.125 502.855,152.125 C501.875,152.125 501.315,153.07 501.105,154.925 C501.035,155.45 501,156.745 501,158.845 C501,162.555 502.47,164.41 505.445,164.41 C506.285,164.41 507.16,164.2 508,163.71 C508.84,163.255 509.505,162.625 509.925,161.855 C509.855,163.255 509.785,164.41 509.715,165.285 C509.575,166.72 509.54,167.735 509.54,168.435 C509.54,169.38 509.925,169.87 510.765,169.87 C511.675,169.87 512.165,169.38 512.2,168.4 C512.235,166.125 512.34,162.765 512.55,158.355 C512.62,156.045 512.69,154.505 512.76,153.7 L512.76,153.7 Z M528.3,155.555 C528.3,155.275 528.16,154.96 527.88,154.645 C527.6,154.365 527.285,154.225 527.005,154.225 C526.725,154.225 526.13,154.435 525.255,154.855 C523.785,155.555 521.93,156.885 519.76,158.775 C520.25,156.745 520.705,155.135 521.195,153.98 C521.475,153.245 521.615,152.79 521.615,152.65 C521.615,151.74 521.16,151.285 520.32,151.285 C519.76,151.285 519.34,151.6 519.06,152.23 C517.345,156.43 516.47,161.05 516.4,166.055 C516.33,166.23 516.33,166.405 516.33,166.58 C516.33,167 516.4,167.385 516.54,167.77 C516.75,168.4 517.24,168.75 517.94,168.75 C518.71,168.75 519.095,168.295 519.095,167.42 C519.095,167.35 519.06,167.14 519.06,166.79 C519.025,166.44 519.025,166.195 519.025,165.985 L519.025,164.69 C519.025,164.2 519.025,163.64 519.095,163.01 C519.34,162.87 519.48,162.8 519.515,162.765 C520.845,164.55 522.56,166.125 524.625,167.49 C525.255,167.945 525.745,168.19 526.095,168.19 C526.935,168.19 527.355,167.735 527.355,166.86 C527.355,166.51 527.04,166.02 526.48,165.46 C525.5,164.585 524.94,164.13 524.73,164.13 C524.66,164.13 524.555,164.165 524.485,164.165 C523.12,163.08 522.07,162.03 521.37,161.015 C523.05,159.44 524.45,158.32 525.605,157.69 C525.745,157.76 525.885,157.795 526.06,157.795 C526.515,157.795 527.005,157.55 527.495,157.06 C528.02,156.605 528.3,156.115 528.3,155.555 L528.3,155.555 Z M543.875,158.88 C543.875,158.565 543.7,158.215 543.42,157.865 C543.42,157.06 543.28,156.36 543.07,155.73 C543.105,155.59 543.14,155.415 543.14,155.24 C543.14,154.82 542.895,154.4 542.475,154.05 C542.02,153.7 541.565,153.49 541.11,153.49 C539.185,153.49 537.085,154.61 534.775,156.78 C532.36,159.02 531.17,161.19 531.17,163.22 C531.17,164.305 531.52,165.25 532.29,166.09 C533.025,166.965 533.9,167.385 534.915,167.385 C536.49,167.385 538.24,166.405 540.2,164.445 C540.375,167.105 540.97,168.47 541.985,168.47 C542.335,168.47 542.685,168.33 543,168.12 C543.28,167.84 543.455,167.49 543.455,167.14 C543.455,167.035 543.35,166.615 543.21,165.775 C543.035,164.97 542.965,164.34 542.965,163.92 C542.965,162.52 543.175,161.12 543.665,159.65 C543.805,159.265 543.875,159.02 543.875,158.88 L543.875,158.88 Z M540.69,157.865 C540.69,159.055 539.99,160.455 538.66,162.065 C537.33,163.675 536.105,164.445 535.055,164.445 C534.32,164.445 533.97,164.025 533.97,163.15 C533.97,162.03 534.845,160.63 536.63,158.915 C538.24,157.375 539.395,156.57 540.06,156.57 C540.48,156.57 540.69,157.025 540.69,157.865 L540.69,157.865 Z M561.515,155.835 C561.515,155.45 561.34,155.135 561.025,154.855 C560.71,154.575 560.36,154.435 559.975,154.435 C559.765,154.435 559.38,154.68 558.75,155.135 C557.035,156.465 555.705,157.48 554.76,158.25 C553.92,157.06 553.08,155.94 552.205,154.89 C551.33,153.84 550.665,153.315 550.245,153.315 C549.125,153.315 548.6,153.875 548.6,154.96 C548.6,155.24 548.915,155.87 549.58,156.815 C550.14,157.655 550.56,158.215 550.91,158.495 C551.085,158.705 551.295,158.845 551.575,158.915 C551.925,159.37 552.24,159.755 552.45,160.07 C550.63,161.54 549.3,162.695 548.425,163.535 C547.27,164.62 546.71,165.46 546.71,166.02 C546.71,167 547.2,167.525 548.18,167.525 C548.53,167.525 548.95,167.315 549.37,166.895 C550.63,165.565 552.205,164.165 554.095,162.625 C554.9,164.025 555.635,165.39 556.265,166.79 C556.545,167.385 557.035,167.7 557.7,167.7 C558.015,167.7 558.33,167.56 558.645,167.28 C558.96,167 559.135,166.65 559.135,166.3 C559.135,166.02 558.785,165.215 558.155,163.885 C557.665,162.905 557.07,161.89 556.405,160.77 C558.295,159.3 559.765,158.075 560.815,157.165 C561.27,156.78 561.515,156.325 561.515,155.835 L561.515,155.835 Z M578.84,148.485 C578.84,146.7 578.175,145.3 576.845,144.285 C575.655,143.375 574.045,142.885 572.085,142.885 C571.28,142.885 570.335,143.025 569.285,143.27 C568.69,143.095 568.375,142.99 568.34,142.99 C567.92,142.99 567.5,143.2 567.045,143.55 C566.625,143.935 566.415,144.32 566.415,144.74 C566.415,145.23 566.555,145.615 566.835,145.895 C567.115,146.245 567.465,146.385 567.955,146.385 C568.06,146.385 568.41,146.35 568.97,146.21 C570.65,145.93 571.56,145.755 571.7,145.755 C574.57,145.755 576.04,146.665 576.04,148.45 C576.04,149.78 575.235,150.935 573.66,151.845 C572.295,152.65 570.685,153.14 568.83,153.35 C567.71,153.49 567.185,153.98 567.185,154.785 C567.185,154.96 567.29,155.345 567.535,155.975 C568.025,157.48 568.34,158.95 568.515,160.385 C568.62,161.365 569.075,161.82 569.88,161.82 C570.79,161.82 571.28,161.33 571.28,160.28 C571.28,159.195 571,157.69 570.475,155.8 C572.68,155.45 574.605,154.645 576.215,153.385 C577.965,151.985 578.84,150.375 578.84,148.485 L578.84,148.485 Z M571.98,166.51 C571.98,165.95 571.77,165.495 571.385,165.145 C570.93,164.865 570.44,164.69 569.95,164.69 C569.355,164.69 568.9,164.935 568.55,165.39 C568.2,165.81 568.025,166.335 568.025,166.93 C568.025,167.455 568.165,167.91 568.48,168.295 C568.795,168.645 569.145,168.855 569.53,168.855 C570.335,168.855 570.965,168.645 571.385,168.225 C571.77,167.77 571.98,167.21 571.98,166.51 L571.98,166.51 Z" id="Камни-в-почках?"></path>
        </g>
    </g>
</svg>