<?xml version="1.0" encoding="UTF-8"?>
<svg width="126px" height="19px" viewBox="0 0 126 19" version="1.1" xmlns="http://www.w3.org/2000/svg" xmlns:xlink="http://www.w3.org/1999/xlink">
    <!-- Generator: Sketch 40.3 (33839) - http://www.bohemiancoding.com/sketch -->
    <title>корня любистка</title>
    <desc>Created with Sketch.</desc>
    <defs></defs>
    <g id="Page-1" stroke="none" stroke-width="1" fill="none" fill-rule="evenodd">
        <g id="Desktop" transform="translate(-2447.000000, -566.000000)" fill="#354777">
            <path d="M2453.86,573.46 C2453.86,573.3 2453.78,573.12 2453.62,572.94 C2453.46,572.78 2453.28,572.7 2453.12,572.7 C2452.96,572.7 2452.62,572.82 2452.12,573.06 C2451.28,573.46 2450.22,574.22 2448.98,575.3 C2449.26,574.14 2449.52,573.22 2449.8,572.56 C2449.96,572.14 2450.04,571.88 2450.04,571.8 C2450.04,571.28 2449.78,571.02 2449.3,571.02 C2448.98,571.02 2448.74,571.2 2448.58,571.56 C2447.6,573.96 2447.1,576.6 2447.06,579.46 C2447.02,579.56 2447.02,579.66 2447.02,579.76 C2447.02,580 2447.06,580.22 2447.14,580.44 C2447.26,580.8 2447.54,581 2447.94,581 C2448.38,581 2448.6,580.74 2448.6,580.24 C2448.6,580.2 2448.58,580.08 2448.58,579.88 C2448.56,579.68 2448.56,579.54 2448.56,579.42 L2448.56,578.68 C2448.56,578.4 2448.56,578.08 2448.6,577.72 C2448.74,577.64 2448.82,577.6 2448.84,577.58 C2449.6,578.6 2450.58,579.5 2451.76,580.28 C2452.12,580.54 2452.4,580.68 2452.6,580.68 C2453.08,580.68 2453.32,580.42 2453.32,579.92 C2453.32,579.72 2453.14,579.44 2452.82,579.12 C2452.26,578.62 2451.94,578.36 2451.82,578.36 C2451.78,578.36 2451.72,578.38 2451.68,578.38 C2450.9,577.76 2450.3,577.16 2449.9,576.58 C2450.86,575.68 2451.66,575.04 2452.32,574.68 C2452.4,574.72 2452.48,574.74 2452.58,574.74 C2452.84,574.74 2453.12,574.6 2453.4,574.32 C2453.7,574.06 2453.86,573.78 2453.86,573.46 L2453.86,573.46 Z M2461.84,575.6 C2461.84,574.82 2461.62,574.1 2461.18,573.46 C2460.72,572.84 2460.14,572.4 2459.44,572.16 C2459.16,572.08 2459,572.04 2458.96,572.04 C2458.8,572.04 2458.62,572.14 2458.38,572.3 C2458.1,572.46 2457.88,572.58 2457.72,572.64 C2457.04,572.98 2456.48,573.58 2456.08,574.42 C2455.68,575.18 2455.5,576 2455.5,576.86 C2455.5,577.88 2455.76,578.72 2456.32,579.38 C2456.88,580.02 2457.58,580.36 2458.42,580.36 C2459.38,580.36 2460.2,579.92 2460.86,579 C2461.5,578.08 2461.84,576.96 2461.84,575.6 L2461.84,575.6 Z M2460.26,575.9 C2460.26,576.58 2460.06,577.2 2459.7,577.78 C2459.3,578.38 2458.88,578.68 2458.4,578.68 C2458,578.68 2457.68,578.5 2457.44,578.12 C2457.18,577.76 2457.06,577.34 2457.06,576.86 C2457.06,576.22 2457.2,575.62 2457.52,575.06 C2457.88,574.42 2458.34,574.08 2458.9,574.08 C2459.1,574.2 2459.36,574.26 2459.68,574.26 C2460.06,574.5 2460.26,575.06 2460.26,575.9 L2460.26,575.9 Z M2471.14,573.08 C2471.14,572.12 2470.92,571.32 2470.48,570.68 C2470,569.98 2469.3,569.62 2468.42,569.62 C2467.16,569.62 2466.18,570.5 2465.48,572.26 C2465,573.48 2464.76,574.88 2464.76,576.44 C2464.76,576.64 2464.76,576.8 2464.78,576.9 C2464.22,577.1 2463.96,577.4 2463.96,577.82 C2463.96,578.34 2464.22,578.62 2464.78,578.66 C2464.82,578.98 2464.84,579.46 2464.84,580.1 C2464.84,581.38 2464.76,582.28 2464.64,582.84 C2464.5,583.38 2464.44,583.68 2464.44,583.74 C2464.44,583.96 2464.52,584.16 2464.68,584.34 C2464.84,584.5 2465.04,584.6 2465.26,584.6 C2465.68,584.6 2465.98,584.18 2466.16,583.36 C2466.36,582.44 2466.46,581.5 2466.46,580.58 C2466.46,579.74 2466.42,578.92 2466.36,578.12 C2469.54,576.96 2471.14,575.28 2471.14,573.08 L2471.14,573.08 Z M2469.54,572.74 C2469.54,574.38 2468.48,575.58 2466.38,576.34 C2466.38,575.26 2466.56,574.16 2466.94,573.08 C2467.36,571.9 2467.86,571.3 2468.42,571.3 C2468.76,571.3 2469.04,571.46 2469.26,571.74 C2469.44,572.02 2469.54,572.36 2469.54,572.74 L2469.54,572.74 Z M2479.78,572.6 C2479.78,572.08 2479.54,571.82 2479.06,571.82 C2478.66,571.82 2478.4,572.18 2478.3,572.86 C2478.2,573.4 2478.08,574.16 2477.96,575.14 C2477.08,575.36 2476.22,575.52 2475.38,575.6 C2475.58,574.32 2475.78,573.36 2475.98,572.7 C2476.1,572.34 2476.2,572.06 2476.3,571.82 C2476.26,571.28 2476.02,571 2475.54,571 C2475.2,571 2474.98,571.16 2474.86,571.48 C2474.46,572.44 2474.14,573.82 2473.94,575.62 C2473.62,575.62 2473.4,575.6 2473.28,575.58 C2472.88,575.58 2472.7,575.82 2472.7,576.26 C2472.7,576.76 2472.98,577 2473.56,577 L2473.8,577 C2473.74,577.76 2473.68,578.62 2473.64,579.62 C2473.64,579.68 2473.62,579.78 2473.6,579.9 C2473.56,580.02 2473.56,580.1 2473.56,580.18 C2473.56,580.38 2473.64,580.56 2473.8,580.72 C2473.96,580.88 2474.14,580.96 2474.34,580.96 C2474.82,580.96 2475.08,580.7 2475.1,580.2 C2475.1,579.52 2475.16,578.44 2475.26,576.96 C2476.12,576.88 2476.96,576.74 2477.8,576.54 C2477.7,577.6 2477.64,578.44 2477.64,579.04 C2477.64,579.1 2477.62,579.18 2477.6,579.3 C2477.56,579.4 2477.54,579.48 2477.54,579.54 C2477.54,580.02 2477.6,580.38 2477.76,580.62 C2477.92,580.88 2478.1,581.02 2478.34,581.02 C2478.54,581.02 2478.72,580.94 2478.88,580.78 C2479.02,580.62 2479.1,580.42 2479.1,580.2 C2479.1,580.16 2479.08,580.06 2479.08,579.86 C2479.06,579.66 2479.06,579.5 2479.06,579.42 C2479.06,578.08 2479.26,576.02 2479.7,573.24 C2479.74,572.88 2479.78,572.68 2479.78,572.6 L2479.78,572.6 Z M2488.28,574.46 C2488.28,573.86 2488.06,573.54 2487.64,573.54 C2487.28,573.54 2487.02,573.74 2486.9,574.14 C2486.54,575.3 2485.7,575.86 2484.42,575.86 C2483.6,575.86 2483.2,575.68 2483.2,575.32 C2483.2,574.9 2483.66,574.4 2484.58,573.84 C2485.42,573.36 2486.08,573.12 2486.6,573.12 C2486.72,573.12 2486.8,573.14 2486.86,573.16 C2486.98,573.3 2487.1,573.36 2487.24,573.36 C2487.4,573.36 2487.58,573.28 2487.76,573.12 C2487.92,572.96 2488,572.78 2488,572.58 C2488,572.02 2487.6,571.72 2486.84,571.72 C2485.86,571.72 2484.82,572.06 2483.7,572.74 C2482.4,573.54 2481.76,574.42 2481.76,575.38 C2481.76,576 2482,576.48 2482.5,576.8 C2482.86,577.08 2483.36,577.2 2483.98,577.2 L2484.16,577.2 L2482.82,578.32 L2482.7,578.14 C2482.48,578.38 2482.3,578.58 2482.18,578.7 C2481.98,578.78 2481.8,578.94 2481.66,579.16 C2481.48,579.4 2481.4,579.62 2481.4,579.84 C2481.4,580.04 2481.48,580.22 2481.66,580.42 C2481.82,580.58 2482.02,580.68 2482.22,580.68 C2482.42,580.68 2482.72,580.48 2483.12,580.1 C2484.54,578.8 2485.64,577.82 2486.4,577.16 C2486.18,578.8 2486.08,579.72 2486.08,579.92 C2486.08,580.58 2486.34,580.92 2486.86,580.92 C2487.3,580.92 2487.56,580.64 2487.6,580.12 C2487.88,577.6 2488.1,575.72 2488.28,574.46 L2488.28,574.46 Z M2505.26,572.92 C2505.26,572.62 2505.16,572.36 2504.96,572.12 C2504.78,571.9 2504.56,571.78 2504.28,571.78 C2504.16,571.78 2503.92,571.9 2503.56,572.1 C2503.2,572.32 2502.32,572.5 2500.9,572.66 C2500.58,572.4 2500.32,572.26 2500.14,572.26 C2499.92,572.26 2499.68,572.38 2499.44,572.62 C2499.2,572.86 2499.08,573.12 2499.08,573.36 C2499.08,573.52 2499.16,573.72 2499.32,573.94 C2499.46,574.18 2499.54,574.44 2499.54,574.74 C2499.54,575.98 2499.44,577 2499.24,577.84 C2498.98,578.82 2498.64,579.3 2498.24,579.3 C2498.08,579.3 2497.96,579.06 2497.92,578.54 C2497.88,578.34 2497.8,578.22 2497.64,578.22 C2497.36,578.22 2497.16,578.36 2497.02,578.6 C2496.84,578.88 2496.76,579.2 2496.76,579.54 C2496.76,579.92 2496.9,580.2 2497.2,580.42 C2497.48,580.62 2497.8,580.74 2498.16,580.74 C2499.2,580.74 2499.94,580.06 2500.38,578.74 C2500.66,577.9 2500.9,576.38 2501.1,574.18 C2501.6,574.06 2502.36,573.9 2503.4,573.72 C2503.2,575.68 2503.1,577.16 2503.1,578.16 C2503.1,579.48 2503.18,580.3 2503.36,580.64 C2503.54,580.98 2503.8,581.16 2504.12,581.16 C2504.64,581.16 2504.9,580.84 2504.9,580.24 C2504.82,579.88 2504.78,579.56 2504.74,579.28 C2504.64,578.6 2504.6,578.02 2504.6,577.52 C2504.6,576.44 2504.76,575.18 2505.1,573.74 C2505.2,573.26 2505.26,573 2505.26,572.92 L2505.26,572.92 Z M2517.66,576.4 C2517.66,575.1 2517.04,574.04 2515.84,573.24 C2515.36,572.92 2514.84,572.76 2514.28,572.76 C2514.08,572.48 2513.74,572.32 2513.24,572.32 C2512.76,572.32 2512.24,572.68 2511.68,573.4 C2511.08,574.18 2510.74,575.02 2510.62,575.94 C2510.08,575.84 2509.58,575.76 2509.14,575.68 C2509.34,574.6 2509.48,573.76 2509.6,573.16 C2509.68,572.88 2509.74,572.64 2509.78,572.48 C2509.78,571.94 2509.52,571.66 2509,571.66 C2508.84,571.66 2508.72,571.7 2508.64,571.76 C2508.4,571.92 2508.18,572.5 2508.02,573.5 C2507.9,574.18 2507.8,574.86 2507.72,575.54 C2507.48,575.66 2507.36,575.84 2507.36,576.04 C2507.36,576.14 2507.42,576.32 2507.54,576.58 C2507.38,577.98 2507.3,578.98 2507.3,579.54 C2507.3,579.84 2507.36,580.12 2507.52,580.42 C2507.72,580.78 2507.98,580.96 2508.28,580.96 C2508.7,580.96 2508.92,580.7 2508.92,580.22 C2508.92,580.1 2508.88,579.98 2508.82,579.82 C2508.74,579.66 2508.72,579.58 2508.72,579.54 C2508.72,578.92 2508.78,578.14 2508.9,577.18 C2509.18,577.22 2509.38,577.22 2509.5,577.22 C2509.74,577.22 2510.1,577.16 2510.6,577 C2510.68,578.12 2511.08,579 2511.8,579.68 C2512.48,580.34 2513.34,580.68 2514.42,580.68 C2515.2,580.68 2515.94,580.24 2516.64,579.36 C2517.32,578.48 2517.66,577.5 2517.66,576.4 L2517.66,576.4 Z M2516.24,575.88 C2516.24,576.44 2516.14,576.9 2515.98,577.26 C2515.86,577.5 2515.74,577.76 2515.66,578.04 C2515.56,578.36 2515.36,578.62 2515.04,578.84 C2514.72,579.08 2514.4,579.18 2514.08,579.18 C2513.56,579.18 2513.1,578.94 2512.7,578.42 C2512.3,577.92 2512.1,577.36 2512.1,576.72 C2512.1,576.06 2512.26,575.42 2512.62,574.78 C2512.98,574.14 2513.4,573.76 2513.88,573.6 C2513.98,573.92 2514.28,574.12 2514.76,574.22 C2515.14,574.3 2515.48,574.52 2515.78,574.84 C2516.08,575.2 2516.24,575.54 2516.24,575.88 L2516.24,575.88 Z M2527.66,576.34 C2527.66,575.24 2527.38,574.34 2526.86,573.64 C2526.26,572.86 2525.44,572.46 2524.38,572.46 C2523.42,572.46 2522.36,572.96 2521.24,573.94 C2521.56,571.9 2522.92,570.46 2525.36,569.66 C2526.06,569.42 2526.42,569.08 2526.42,568.6 C2526.42,568.26 2526.3,567.9 2526.1,567.52 C2525.86,567.16 2525.6,566.96 2525.32,566.96 C2525.06,566.96 2524.92,567.14 2524.9,567.48 C2524.86,567.88 2524.84,568.08 2524.82,568.12 C2524.76,568.22 2524.56,568.34 2524.22,568.48 C2521.06,569.76 2519.5,572.14 2519.5,575.64 C2519.5,577.14 2519.8,578.36 2520.44,579.32 C2521.14,580.32 2522.12,580.84 2523.38,580.84 C2524.5,580.84 2525.48,580.4 2526.36,579.54 C2527.22,578.66 2527.66,577.6 2527.66,576.34 L2527.66,576.34 Z M2526.22,575.88 C2526.22,576.84 2525.94,577.64 2525.4,578.32 C2524.84,579 2524.14,579.34 2523.34,579.34 C2522.7,579.34 2522.16,579.06 2521.76,578.46 C2521.36,577.86 2521.16,577.12 2521.16,576.22 C2521.16,576.12 2521.16,575.98 2521.18,575.78 C2521.68,575.72 2521.96,575.5 2522.02,575.14 C2522.94,574.38 2523.78,573.98 2524.5,573.98 C2524.94,573.98 2525.34,574.18 2525.7,574.54 C2526.04,574.94 2526.22,575.38 2526.22,575.88 L2526.22,575.88 Z M2537.12,580.12 C2537.12,579.98 2537.02,579.8 2536.84,579.6 C2536.4,579.12 2536.2,577.9 2536.2,575.94 C2536.2,575.24 2536.3,574.06 2536.52,572.4 C2536.52,572.18 2536.42,571.98 2536.26,571.78 C2536.08,571.6 2535.88,571.5 2535.66,571.5 C2535.32,571.5 2534.6,572.24 2533.52,573.72 C2532.64,574.88 2531.92,575.94 2531.32,576.86 C2531.46,575.3 2531.56,574.16 2531.62,573.48 C2531.62,573.16 2531.5,572.88 2531.3,572.64 C2531.1,572.42 2530.84,572.3 2530.52,572.3 C2530.34,572.3 2530.18,572.42 2530.02,572.64 C2530.06,573.22 2530.1,573.56 2530.1,573.64 C2530.1,574 2530.04,574.9 2529.94,576.36 L2529.9,576.94 C2529.88,577.24 2529.84,577.64 2529.8,578.14 C2529.74,578.62 2529.7,578.92 2529.7,579.04 C2529.72,579.32 2529.8,579.54 2529.96,579.66 C2530.28,579.98 2530.48,580.12 2530.56,580.12 C2530.84,580.12 2531.18,579.82 2531.54,579.18 C2532.28,577.94 2532.8,577.06 2533.12,576.58 C2533.64,575.72 2534.2,574.92 2534.82,574.2 C2534.82,574.4 2534.8,574.82 2534.8,575.44 C2534.78,576.08 2534.78,576.42 2534.78,576.5 C2534.78,577.54 2534.88,578.42 2535.1,579.18 C2535.4,580.28 2535.84,580.84 2536.4,580.84 C2536.52,580.84 2536.68,580.74 2536.86,580.58 C2537.02,580.38 2537.12,580.24 2537.12,580.12 L2537.12,580.12 Z M2545.34,578.16 C2545.34,577.96 2545.26,577.76 2545.1,577.56 C2544.94,577.4 2544.76,577.3 2544.56,577.3 C2544.4,577.3 2544.16,577.44 2543.88,577.7 C2543.64,577.9 2543.4,578.1 2543.2,578.3 C2542.86,578.56 2542.44,578.68 2541.94,578.68 C2541.14,578.68 2540.76,578.2 2540.76,577.2 C2540.76,576.58 2540.94,575.96 2541.3,575.36 C2541.66,574.76 2542.1,574.26 2542.64,573.9 C2542.88,574.04 2543.24,574.1 2543.74,574.1 C2544,574.1 2544.26,574 2544.52,573.76 C2544.74,573.52 2544.86,573.3 2544.86,573.06 C2544.86,572.74 2544.74,572.5 2544.5,572.3 C2544.24,572.12 2543.96,572.02 2543.66,572.02 C2542.4,572.02 2541.28,572.68 2540.32,573.98 C2539.54,575.02 2539.16,576.16 2539.16,577.4 C2539.16,578.28 2539.44,578.98 2540,579.54 C2540.56,580.08 2541.26,580.36 2542.1,580.36 C2542.86,580.36 2543.64,580.06 2544.4,579.46 C2545.02,578.98 2545.34,578.56 2545.34,578.16 L2545.34,578.16 Z M2555.22,571.68 C2555.22,571.48 2555.14,571.28 2555,571.1 C2554.86,570.94 2554.7,570.84 2554.52,570.84 C2554.22,570.84 2553.8,570.92 2553.24,571.04 C2551.04,571.56 2549.08,572.02 2547.4,572.42 C2547.28,572.46 2547.2,572.46 2547.16,572.46 C2546.76,572.54 2546.56,572.84 2546.56,573.34 C2546.56,573.9 2546.78,574.16 2547.26,574.16 C2547.84,574.04 2548.3,573.94 2548.62,573.84 C2549.2,573.72 2549.7,573.6 2550.12,573.52 C2550.04,575.06 2550,576.54 2550,577.94 C2550,579.3 2550.08,580.24 2550.24,580.76 C2550.36,581.12 2550.6,581.3 2551,581.3 C2551.52,581.3 2551.78,580.82 2551.78,579.88 C2551.78,579.42 2551.68,579.08 2551.52,578.86 C2551.48,578.36 2551.46,577.58 2551.46,576.5 C2551.46,575.66 2551.52,574.52 2551.68,573.1 C2552.26,572.96 2552.66,572.86 2552.9,572.82 C2553.08,572.94 2553.22,572.98 2553.32,572.98 C2553.44,572.98 2553.58,572.96 2553.76,572.88 L2554.68,572.46 C2555.04,572.3 2555.22,572.04 2555.22,571.68 L2555.22,571.68 Z M2563.28,573.46 C2563.28,573.3 2563.2,573.12 2563.04,572.94 C2562.88,572.78 2562.7,572.7 2562.54,572.7 C2562.38,572.7 2562.04,572.82 2561.54,573.06 C2560.7,573.46 2559.64,574.22 2558.4,575.3 C2558.68,574.14 2558.94,573.22 2559.22,572.56 C2559.38,572.14 2559.46,571.88 2559.46,571.8 C2559.46,571.28 2559.2,571.02 2558.72,571.02 C2558.4,571.02 2558.16,571.2 2558,571.56 C2557.02,573.96 2556.52,576.6 2556.48,579.46 C2556.44,579.56 2556.44,579.66 2556.44,579.76 C2556.44,580 2556.48,580.22 2556.56,580.44 C2556.68,580.8 2556.96,581 2557.36,581 C2557.8,581 2558.02,580.74 2558.02,580.24 C2558.02,580.2 2558,580.08 2558,579.88 C2557.98,579.68 2557.98,579.54 2557.98,579.42 L2557.98,578.68 C2557.98,578.4 2557.98,578.08 2558.02,577.72 C2558.16,577.64 2558.24,577.6 2558.26,577.58 C2559.02,578.6 2560,579.5 2561.18,580.28 C2561.54,580.54 2561.82,580.68 2562.02,580.68 C2562.5,580.68 2562.74,580.42 2562.74,579.92 C2562.74,579.72 2562.56,579.44 2562.24,579.12 C2561.68,578.62 2561.36,578.36 2561.24,578.36 C2561.2,578.36 2561.14,578.38 2561.1,578.38 C2560.32,577.76 2559.72,577.16 2559.32,576.58 C2560.28,575.68 2561.08,575.04 2561.74,574.68 C2561.82,574.72 2561.9,574.74 2562,574.74 C2562.26,574.74 2562.54,574.6 2562.82,574.32 C2563.12,574.06 2563.28,573.78 2563.28,573.46 L2563.28,573.46 Z M2572.18,575.36 C2572.18,575.18 2572.08,574.98 2571.92,574.78 C2571.92,574.32 2571.84,573.92 2571.72,573.56 C2571.74,573.48 2571.76,573.38 2571.76,573.28 C2571.76,573.04 2571.62,572.8 2571.38,572.6 C2571.12,572.4 2570.86,572.28 2570.6,572.28 C2569.5,572.28 2568.3,572.92 2566.98,574.16 C2565.6,575.44 2564.92,576.68 2564.92,577.84 C2564.92,578.46 2565.12,579 2565.56,579.48 C2565.98,579.98 2566.48,580.22 2567.06,580.22 C2567.96,580.22 2568.96,579.66 2570.08,578.54 C2570.18,580.06 2570.52,580.84 2571.1,580.84 C2571.3,580.84 2571.5,580.76 2571.68,580.64 C2571.84,580.48 2571.94,580.28 2571.94,580.08 C2571.94,580.02 2571.88,579.78 2571.8,579.3 C2571.7,578.84 2571.66,578.48 2571.66,578.24 C2571.66,577.44 2571.78,576.64 2572.06,575.8 C2572.14,575.58 2572.18,575.44 2572.18,575.36 L2572.18,575.36 Z M2570.36,574.78 C2570.36,575.46 2569.96,576.26 2569.2,577.18 C2568.44,578.1 2567.74,578.54 2567.14,578.54 C2566.72,578.54 2566.52,578.3 2566.52,577.8 C2566.52,577.16 2567.02,576.36 2568.04,575.38 C2568.96,574.5 2569.62,574.04 2570,574.04 C2570.24,574.04 2570.36,574.3 2570.36,574.78 L2570.36,574.78 Z" id="корня-любистка"></path>
        </g>
    </g>
</svg>