<?xml version="1.0" encoding="UTF-8"?>
<svg width="152px" height="16px" viewBox="0 0 152 16" version="1.1" xmlns="http://www.w3.org/2000/svg" xmlns:xlink="http://www.w3.org/1999/xlink">
    <!-- Generator: Sketch 40.3 (33839) - http://www.bohemiancoding.com/sketch -->
    <title>листьев розмарина</title>
    <desc>Created with Sketch.</desc>
    <defs></defs>
    <g id="Page-1" stroke="none" stroke-width="1" fill="none" fill-rule="evenodd">
        <g id="Desktop" transform="translate(-1924.000000, -569.000000)" fill="#354777">
            <path d="M1933.1,572.92 C1933.1,572.62 1933,572.36 1932.8,572.12 C1932.62,571.9 1932.4,571.78 1932.12,571.78 C1932,571.78 1931.76,571.9 1931.4,572.1 C1931.04,572.32 1930.16,572.5 1928.74,572.66 C1928.42,572.4 1928.16,572.26 1927.98,572.26 C1927.76,572.26 1927.52,572.38 1927.28,572.62 C1927.04,572.86 1926.92,573.12 1926.92,573.36 C1926.92,573.52 1927,573.72 1927.16,573.94 C1927.3,574.18 1927.38,574.44 1927.38,574.74 C1927.38,575.98 1927.28,577 1927.08,577.84 C1926.82,578.82 1926.48,579.3 1926.08,579.3 C1925.92,579.3 1925.8,579.06 1925.76,578.54 C1925.72,578.34 1925.64,578.22 1925.48,578.22 C1925.2,578.22 1925,578.36 1924.86,578.6 C1924.68,578.88 1924.6,579.2 1924.6,579.54 C1924.6,579.92 1924.74,580.2 1925.04,580.42 C1925.32,580.62 1925.64,580.74 1926,580.74 C1927.04,580.74 1927.78,580.06 1928.22,578.74 C1928.5,577.9 1928.74,576.38 1928.94,574.18 C1929.44,574.06 1930.2,573.9 1931.24,573.72 C1931.04,575.68 1930.94,577.16 1930.94,578.16 C1930.94,579.48 1931.02,580.3 1931.2,580.64 C1931.38,580.98 1931.64,581.16 1931.96,581.16 C1932.48,581.16 1932.74,580.84 1932.74,580.24 C1932.66,579.88 1932.62,579.56 1932.58,579.28 C1932.48,578.6 1932.44,578.02 1932.44,577.52 C1932.44,576.44 1932.6,575.18 1932.94,573.74 C1933.04,573.26 1933.1,573 1933.1,572.92 L1933.1,572.92 Z M1942.56,580.12 C1942.56,579.98 1942.46,579.8 1942.28,579.6 C1941.84,579.12 1941.64,577.9 1941.64,575.94 C1941.64,575.24 1941.74,574.06 1941.96,572.4 C1941.96,572.18 1941.86,571.98 1941.7,571.78 C1941.52,571.6 1941.32,571.5 1941.1,571.5 C1940.76,571.5 1940.04,572.24 1938.96,573.72 C1938.08,574.88 1937.36,575.94 1936.76,576.86 C1936.9,575.3 1937,574.16 1937.06,573.48 C1937.06,573.16 1936.94,572.88 1936.74,572.64 C1936.54,572.42 1936.28,572.3 1935.96,572.3 C1935.78,572.3 1935.62,572.42 1935.46,572.64 C1935.5,573.22 1935.54,573.56 1935.54,573.64 C1935.54,574 1935.48,574.9 1935.38,576.36 L1935.34,576.94 C1935.32,577.24 1935.28,577.64 1935.24,578.14 C1935.18,578.62 1935.14,578.92 1935.14,579.04 C1935.16,579.32 1935.24,579.54 1935.4,579.66 C1935.72,579.98 1935.92,580.12 1936,580.12 C1936.28,580.12 1936.62,579.82 1936.98,579.18 C1937.72,577.94 1938.24,577.06 1938.56,576.58 C1939.08,575.72 1939.64,574.92 1940.26,574.2 C1940.26,574.4 1940.24,574.82 1940.24,575.44 C1940.22,576.08 1940.22,576.42 1940.22,576.5 C1940.22,577.54 1940.32,578.42 1940.54,579.18 C1940.84,580.28 1941.28,580.84 1941.84,580.84 C1941.96,580.84 1942.12,580.74 1942.3,580.58 C1942.46,580.38 1942.56,580.24 1942.56,580.12 L1942.56,580.12 Z M1950.78,578.16 C1950.78,577.96 1950.7,577.76 1950.54,577.56 C1950.38,577.4 1950.2,577.3 1950,577.3 C1949.84,577.3 1949.6,577.44 1949.32,577.7 C1949.08,577.9 1948.84,578.1 1948.64,578.3 C1948.3,578.56 1947.88,578.68 1947.38,578.68 C1946.58,578.68 1946.2,578.2 1946.2,577.2 C1946.2,576.58 1946.38,575.96 1946.74,575.36 C1947.1,574.76 1947.54,574.26 1948.08,573.9 C1948.32,574.04 1948.68,574.1 1949.18,574.1 C1949.44,574.1 1949.7,574 1949.96,573.76 C1950.18,573.52 1950.3,573.3 1950.3,573.06 C1950.3,572.74 1950.18,572.5 1949.94,572.3 C1949.68,572.12 1949.4,572.02 1949.1,572.02 C1947.84,572.02 1946.72,572.68 1945.76,573.98 C1944.98,575.02 1944.6,576.16 1944.6,577.4 C1944.6,578.28 1944.88,578.98 1945.44,579.54 C1946,580.08 1946.7,580.36 1947.54,580.36 C1948.3,580.36 1949.08,580.06 1949.84,579.46 C1950.46,578.98 1950.78,578.56 1950.78,578.16 L1950.78,578.16 Z M1960.66,571.68 C1960.66,571.48 1960.58,571.28 1960.44,571.1 C1960.3,570.94 1960.14,570.84 1959.96,570.84 C1959.66,570.84 1959.24,570.92 1958.68,571.04 C1956.48,571.56 1954.52,572.02 1952.84,572.42 C1952.72,572.46 1952.64,572.46 1952.6,572.46 C1952.2,572.54 1952,572.84 1952,573.34 C1952,573.9 1952.22,574.16 1952.7,574.16 C1953.28,574.04 1953.74,573.94 1954.06,573.84 C1954.64,573.72 1955.14,573.6 1955.56,573.52 C1955.48,575.06 1955.44,576.54 1955.44,577.94 C1955.44,579.3 1955.52,580.24 1955.68,580.76 C1955.8,581.12 1956.04,581.3 1956.44,581.3 C1956.96,581.3 1957.22,580.82 1957.22,579.88 C1957.22,579.42 1957.12,579.08 1956.96,578.86 C1956.92,578.36 1956.9,577.58 1956.9,576.5 C1956.9,575.66 1956.96,574.52 1957.12,573.1 C1957.7,572.96 1958.1,572.86 1958.34,572.82 C1958.52,572.94 1958.66,572.98 1958.76,572.98 C1958.88,572.98 1959.02,572.96 1959.2,572.88 L1960.12,572.46 C1960.48,572.3 1960.66,572.04 1960.66,571.68 L1960.66,571.68 Z M1967.94,577.58 C1967.94,576.76 1967.66,576.1 1967.12,575.6 C1966.62,575.14 1965.98,574.9 1965.18,574.9 C1964.74,574.9 1964.3,575.02 1963.86,575.26 C1963.94,574.52 1964,573.86 1964.06,573.3 C1964.16,572.66 1964.22,572.16 1964.26,571.8 C1964.18,571.22 1963.94,570.92 1963.5,570.92 C1962.98,570.92 1962.7,571.32 1962.64,572.1 C1962.32,575.26 1962.08,577.94 1961.88,580.14 C1961.9,580.84 1962.16,581.2 1962.68,581.2 C1963,581.2 1963.22,581.06 1963.34,580.8 C1963.56,580.86 1963.76,580.9 1963.96,580.9 C1964.84,580.9 1965.7,580.58 1966.54,579.96 C1967.46,579.28 1967.94,578.5 1967.94,577.58 L1967.94,577.58 Z M1966.42,577.34 C1966.42,577.94 1966.1,578.48 1965.5,578.94 C1964.94,579.38 1964.4,579.6 1963.88,579.6 C1963.8,579.6 1963.66,579.58 1963.5,579.54 L1963.68,577.24 C1964.04,576.64 1964.52,576.32 1965.14,576.32 C1965.46,576.32 1965.74,576.42 1966.02,576.62 C1966.28,576.82 1966.42,577.06 1966.42,577.34 L1966.42,577.34 Z M1977.72,579.64 C1977.72,579.44 1977.64,579.24 1977.48,579.04 C1977.32,578.88 1977.12,578.78 1976.92,578.78 C1976.76,578.78 1976.5,578.82 1976.16,578.86 C1975.82,578.9 1975.56,578.92 1975.4,578.92 C1974.8,578.92 1974.28,578.64 1973.8,578.06 C1975.8,576.98 1976.8,575.7 1976.8,574.22 C1976.8,573.66 1976.56,573.12 1976.08,572.64 C1975.6,572.16 1975.12,571.92 1974.62,571.92 C1973.76,571.92 1973.06,572.42 1972.5,573.4 C1972.02,574.24 1971.78,575.14 1971.78,576.1 C1971.78,576.3 1971.8,576.58 1971.86,576.92 L1971.4,576.92 C1971.12,576.92 1970.86,576.82 1970.58,576.62 C1970.3,576.42 1970.1,576.32 1969.98,576.32 C1969.46,576.32 1969.2,576.6 1969.2,577.16 C1969.2,577.6 1969.52,577.96 1970.2,578.24 C1970.72,578.46 1971.22,578.56 1971.74,578.56 L1972.34,578.56 C1973.06,579.94 1974.18,580.62 1975.7,580.62 C1977.04,580.62 1977.72,580.28 1977.72,579.64 L1977.72,579.64 Z M1975.22,574.3 C1975.22,574.96 1974.62,575.68 1973.42,576.46 L1973.42,576.1 C1973.42,575.56 1973.5,575.04 1973.7,574.54 C1973.9,573.94 1974.18,573.64 1974.54,573.64 C1974.7,573.64 1974.86,573.72 1975.02,573.84 C1975.14,574 1975.22,574.14 1975.22,574.3 L1975.22,574.3 Z M1987.16,577.78 C1987.16,576.64 1985.94,576.02 1983.54,575.92 C1985.38,575.1 1986.3,574.22 1986.3,573.26 C1986.3,572.64 1985.98,572.16 1985.36,571.82 C1984.86,571.58 1984.26,571.44 1983.56,571.44 C1982.58,571.44 1981.42,571.5 1980.08,571.62 C1979.48,571.7 1979.2,571.94 1979.2,572.38 C1979.2,572.86 1979.46,573.08 1980.02,573.08 C1980.12,573.08 1980.28,573.06 1980.5,573.02 C1980.46,577.44 1980.44,579.72 1980.44,579.84 C1979.74,579.92 1979.4,580.2 1979.4,580.72 C1979.4,581.08 1979.64,581.28 1980.16,581.34 C1980.58,581.32 1981.2,581.22 1982.02,581.04 C1983.54,580.68 1984.66,580.32 1985.34,580 C1986.54,579.44 1987.16,578.7 1987.16,577.78 L1987.16,577.78 Z M1984.76,573.44 C1984.76,574.02 1983.82,574.64 1981.94,575.3 L1981.98,572.98 C1982.72,572.92 1983.26,572.88 1983.58,572.88 C1984.36,572.88 1984.76,573.08 1984.76,573.44 L1984.76,573.44 Z M1985.66,577.98 C1985.66,578.28 1985.32,578.58 1984.64,578.86 C1983.96,579.14 1983.04,579.36 1981.9,579.5 L1981.9,576.98 C1983.22,577.02 1984.14,577.12 1984.7,577.24 C1985.34,577.4 1985.66,577.64 1985.66,577.98 L1985.66,577.98 Z M2003.28,573.08 C2003.28,572.12 2003.06,571.32 2002.62,570.68 C2002.14,569.98 2001.44,569.62 2000.56,569.62 C1999.3,569.62 1998.32,570.5 1997.62,572.26 C1997.14,573.48 1996.9,574.88 1996.9,576.44 C1996.9,576.64 1996.9,576.8 1996.92,576.9 C1996.36,577.1 1996.1,577.4 1996.1,577.82 C1996.1,578.34 1996.36,578.62 1996.92,578.66 C1996.96,578.98 1996.98,579.46 1996.98,580.1 C1996.98,581.38 1996.9,582.28 1996.78,582.84 C1996.64,583.38 1996.58,583.68 1996.58,583.74 C1996.58,583.96 1996.66,584.16 1996.82,584.34 C1996.98,584.5 1997.18,584.6 1997.4,584.6 C1997.82,584.6 1998.12,584.18 1998.3,583.36 C1998.5,582.44 1998.6,581.5 1998.6,580.58 C1998.6,579.74 1998.56,578.92 1998.5,578.12 C2001.68,576.96 2003.28,575.28 2003.28,573.08 L2003.28,573.08 Z M2001.68,572.74 C2001.68,574.38 2000.62,575.58 1998.52,576.34 C1998.52,575.26 1998.7,574.16 1999.08,573.08 C1999.5,571.9 2000,571.3 2000.56,571.3 C2000.9,571.3 2001.18,571.46 2001.4,571.74 C2001.58,572.02 2001.68,572.36 2001.68,572.74 L2001.68,572.74 Z M2011.6,575.6 C2011.6,574.82 2011.38,574.1 2010.94,573.46 C2010.48,572.84 2009.9,572.4 2009.2,572.16 C2008.92,572.08 2008.76,572.04 2008.72,572.04 C2008.56,572.04 2008.38,572.14 2008.14,572.3 C2007.86,572.46 2007.64,572.58 2007.48,572.64 C2006.8,572.98 2006.24,573.58 2005.84,574.42 C2005.44,575.18 2005.26,576 2005.26,576.86 C2005.26,577.88 2005.52,578.72 2006.08,579.38 C2006.64,580.02 2007.34,580.36 2008.18,580.36 C2009.14,580.36 2009.96,579.92 2010.62,579 C2011.26,578.08 2011.6,576.96 2011.6,575.6 L2011.6,575.6 Z M2010.02,575.9 C2010.02,576.58 2009.82,577.2 2009.46,577.78 C2009.06,578.38 2008.64,578.68 2008.16,578.68 C2007.76,578.68 2007.44,578.5 2007.2,578.12 C2006.94,577.76 2006.82,577.34 2006.82,576.86 C2006.82,576.22 2006.96,575.62 2007.28,575.06 C2007.64,574.42 2008.1,574.08 2008.66,574.08 C2008.86,574.2 2009.12,574.26 2009.44,574.26 C2009.82,574.5 2010.02,575.06 2010.02,575.9 L2010.02,575.9 Z M2019.94,577.68 C2019.94,576.48 2019.34,575.68 2018.16,575.32 C2019.02,574.84 2019.46,574.24 2019.46,573.5 C2019.46,572.26 2018.48,571.64 2016.56,571.64 C2014.9,571.64 2014.08,572 2014.08,572.72 C2014.08,573.24 2014.32,573.5 2014.8,573.52 C2014.92,573.5 2015.22,573.4 2015.7,573.2 C2016.02,573.08 2016.32,573 2016.56,573 C2017.48,573 2017.94,573.22 2017.94,573.66 C2017.94,573.94 2017.7,574.24 2017.22,574.52 C2016.78,574.76 2016.28,574.94 2015.7,575.06 C2014.98,575.22 2014.6,575.3 2014.54,575.32 C2014.3,575.42 2014.2,575.62 2014.2,575.9 C2014.2,576.1 2014.26,576.32 2014.42,576.52 C2014.56,576.74 2014.74,576.84 2014.94,576.84 C2015.04,576.84 2015.18,576.8 2015.36,576.68 C2015.72,576.48 2016.14,576.36 2016.6,576.36 C2017.06,576.36 2017.46,576.44 2017.82,576.6 C2018.26,576.8 2018.48,577.1 2018.48,577.5 C2018.48,577.98 2018.1,578.46 2017.38,578.92 C2016.7,579.38 2016.12,579.6 2015.64,579.6 C2015.08,579.6 2014.82,579.52 2014.82,579.36 C2014.82,579.28 2014.84,579.16 2014.9,579.04 C2014.94,578.9 2014.96,578.8 2014.96,578.76 C2014.96,578.4 2014.72,578.22 2014.26,578.22 C2014.1,578.22 2013.92,578.36 2013.74,578.6 C2013.54,578.88 2013.46,579.12 2013.46,579.32 C2013.46,579.6 2013.56,579.9 2013.8,580.22 C2014.16,580.74 2014.82,581 2015.76,581 C2016.68,581 2017.6,580.66 2018.5,580.02 C2019.46,579.34 2019.94,578.56 2019.94,577.68 L2019.94,577.68 Z M2030.52,580.82 C2030.52,580.64 2030.46,580.44 2030.34,580.2 C2030.22,579.96 2030.08,579.8 2029.94,579.68 C2029.62,579 2029.34,577.76 2029.1,575.98 C2028.94,575.06 2028.82,574.04 2028.7,572.96 C2028.64,572.54 2028.4,572.32 2027.98,572.32 C2027.6,572.32 2027.1,573.14 2026.48,574.78 C2026.26,575.34 2026.08,575.82 2025.92,576.26 C2025.38,575.46 2024.9,574.26 2024.46,572.62 C2024.3,572.02 2024.06,571.72 2023.76,571.72 C2023.38,571.72 2023.04,572.18 2022.74,573.08 C2022.68,573.08 2022.6,573.06 2022.5,573.06 C2022.36,573.06 2022.24,573.12 2022.16,573.22 C2022.04,573.34 2021.98,573.48 2021.98,573.62 C2021.98,573.66 2021.98,573.78 2022,573.98 C2022,574.2 2022.02,574.32 2022.02,574.36 C2022.02,574.72 2021.98,575.22 2021.9,575.9 C2021.82,576.58 2021.78,577.34 2021.78,578.16 C2021.78,579.5 2022.04,580.16 2022.58,580.16 C2022.98,580.16 2023.18,579.72 2023.22,578.82 C2023.28,577.06 2023.44,575.6 2023.68,574.44 C2024.74,577 2025.58,578.28 2026.18,578.28 C2026.38,578.28 2026.52,578.2 2026.64,578 C2026.74,577.84 2026.86,577.48 2027.02,576.96 C2027.28,576.08 2027.5,575.38 2027.68,574.9 C2027.88,577.12 2028.16,578.76 2028.54,579.82 C2028.96,581.04 2029.4,581.66 2029.84,581.66 C2030,581.66 2030.16,581.56 2030.3,581.38 C2030.44,581.18 2030.52,581 2030.52,580.82 L2030.52,580.82 Z M2039.2,575.36 C2039.2,575.18 2039.1,574.98 2038.94,574.78 C2038.94,574.32 2038.86,573.92 2038.74,573.56 C2038.76,573.48 2038.78,573.38 2038.78,573.28 C2038.78,573.04 2038.64,572.8 2038.4,572.6 C2038.14,572.4 2037.88,572.28 2037.62,572.28 C2036.52,572.28 2035.32,572.92 2034,574.16 C2032.62,575.44 2031.94,576.68 2031.94,577.84 C2031.94,578.46 2032.14,579 2032.58,579.48 C2033,579.98 2033.5,580.22 2034.08,580.22 C2034.98,580.22 2035.98,579.66 2037.1,578.54 C2037.2,580.06 2037.54,580.84 2038.12,580.84 C2038.32,580.84 2038.52,580.76 2038.7,580.64 C2038.86,580.48 2038.96,580.28 2038.96,580.08 C2038.96,580.02 2038.9,579.78 2038.82,579.3 C2038.72,578.84 2038.68,578.48 2038.68,578.24 C2038.68,577.44 2038.8,576.64 2039.08,575.8 C2039.16,575.58 2039.2,575.44 2039.2,575.36 L2039.2,575.36 Z M2037.38,574.78 C2037.38,575.46 2036.98,576.26 2036.22,577.18 C2035.46,578.1 2034.76,578.54 2034.16,578.54 C2033.74,578.54 2033.54,578.3 2033.54,577.8 C2033.54,577.16 2034.04,576.36 2035.06,575.38 C2035.98,574.5 2036.64,574.04 2037.02,574.04 C2037.26,574.04 2037.38,574.3 2037.38,574.78 L2037.38,574.78 Z M2048.48,573.08 C2048.48,572.12 2048.26,571.32 2047.82,570.68 C2047.34,569.98 2046.64,569.62 2045.76,569.62 C2044.5,569.62 2043.52,570.5 2042.82,572.26 C2042.34,573.48 2042.1,574.88 2042.1,576.44 C2042.1,576.64 2042.1,576.8 2042.12,576.9 C2041.56,577.1 2041.3,577.4 2041.3,577.82 C2041.3,578.34 2041.56,578.62 2042.12,578.66 C2042.16,578.98 2042.18,579.46 2042.18,580.1 C2042.18,581.38 2042.1,582.28 2041.98,582.84 C2041.84,583.38 2041.78,583.68 2041.78,583.74 C2041.78,583.96 2041.86,584.16 2042.02,584.34 C2042.18,584.5 2042.38,584.6 2042.6,584.6 C2043.02,584.6 2043.32,584.18 2043.5,583.36 C2043.7,582.44 2043.8,581.5 2043.8,580.58 C2043.8,579.74 2043.76,578.92 2043.7,578.12 C2046.88,576.96 2048.48,575.28 2048.48,573.08 L2048.48,573.08 Z M2046.88,572.74 C2046.88,574.38 2045.82,575.58 2043.72,576.34 C2043.72,575.26 2043.9,574.16 2044.28,573.08 C2044.7,571.9 2045.2,571.3 2045.76,571.3 C2046.1,571.3 2046.38,571.46 2046.6,571.74 C2046.78,572.02 2046.88,572.36 2046.88,572.74 L2046.88,572.74 Z M2057.88,580.12 C2057.88,579.98 2057.78,579.8 2057.6,579.6 C2057.16,579.12 2056.96,577.9 2056.96,575.94 C2056.96,575.24 2057.06,574.06 2057.28,572.4 C2057.28,572.18 2057.18,571.98 2057.02,571.78 C2056.84,571.6 2056.64,571.5 2056.42,571.5 C2056.08,571.5 2055.36,572.24 2054.28,573.72 C2053.4,574.88 2052.68,575.94 2052.08,576.86 C2052.22,575.3 2052.32,574.16 2052.38,573.48 C2052.38,573.16 2052.26,572.88 2052.06,572.64 C2051.86,572.42 2051.6,572.3 2051.28,572.3 C2051.1,572.3 2050.94,572.42 2050.78,572.64 C2050.82,573.22 2050.86,573.56 2050.86,573.64 C2050.86,574 2050.8,574.9 2050.7,576.36 L2050.66,576.94 C2050.64,577.24 2050.6,577.64 2050.56,578.14 C2050.5,578.62 2050.46,578.92 2050.46,579.04 C2050.48,579.32 2050.56,579.54 2050.72,579.66 C2051.04,579.98 2051.24,580.12 2051.32,580.12 C2051.6,580.12 2051.94,579.82 2052.3,579.18 C2053.04,577.94 2053.56,577.06 2053.88,576.58 C2054.4,575.72 2054.96,574.92 2055.58,574.2 C2055.58,574.4 2055.56,574.82 2055.56,575.44 C2055.54,576.08 2055.54,576.42 2055.54,576.5 C2055.54,577.54 2055.64,578.42 2055.86,579.18 C2056.16,580.28 2056.6,580.84 2057.16,580.84 C2057.28,580.84 2057.44,580.74 2057.62,580.58 C2057.78,580.38 2057.88,580.24 2057.88,580.12 L2057.88,580.12 Z M2066.58,572.6 C2066.58,572.08 2066.34,571.82 2065.86,571.82 C2065.46,571.82 2065.2,572.18 2065.1,572.86 C2065,573.4 2064.88,574.16 2064.76,575.14 C2063.88,575.36 2063.02,575.52 2062.18,575.6 C2062.38,574.32 2062.58,573.36 2062.78,572.7 C2062.9,572.34 2063,572.06 2063.1,571.82 C2063.06,571.28 2062.82,571 2062.34,571 C2062,571 2061.78,571.16 2061.66,571.48 C2061.26,572.44 2060.94,573.82 2060.74,575.62 C2060.42,575.62 2060.2,575.6 2060.08,575.58 C2059.68,575.58 2059.5,575.82 2059.5,576.26 C2059.5,576.76 2059.78,577 2060.36,577 L2060.6,577 C2060.54,577.76 2060.48,578.62 2060.44,579.62 C2060.44,579.68 2060.42,579.78 2060.4,579.9 C2060.36,580.02 2060.36,580.1 2060.36,580.18 C2060.36,580.38 2060.44,580.56 2060.6,580.72 C2060.76,580.88 2060.94,580.96 2061.14,580.96 C2061.62,580.96 2061.88,580.7 2061.9,580.2 C2061.9,579.52 2061.96,578.44 2062.06,576.96 C2062.92,576.88 2063.76,576.74 2064.6,576.54 C2064.5,577.6 2064.44,578.44 2064.44,579.04 C2064.44,579.1 2064.42,579.18 2064.4,579.3 C2064.36,579.4 2064.34,579.48 2064.34,579.54 C2064.34,580.02 2064.4,580.38 2064.56,580.62 C2064.72,580.88 2064.9,581.02 2065.14,581.02 C2065.34,581.02 2065.52,580.94 2065.68,580.78 C2065.82,580.62 2065.9,580.42 2065.9,580.2 C2065.9,580.16 2065.88,580.06 2065.88,579.86 C2065.86,579.66 2065.86,579.5 2065.86,579.42 C2065.86,578.08 2066.06,576.02 2066.5,573.24 C2066.54,572.88 2066.58,572.68 2066.58,572.6 L2066.58,572.6 Z M2075.88,575.36 C2075.88,575.18 2075.78,574.98 2075.62,574.78 C2075.62,574.32 2075.54,573.92 2075.42,573.56 C2075.44,573.48 2075.46,573.38 2075.46,573.28 C2075.46,573.04 2075.32,572.8 2075.08,572.6 C2074.82,572.4 2074.56,572.28 2074.3,572.28 C2073.2,572.28 2072,572.92 2070.68,574.16 C2069.3,575.44 2068.62,576.68 2068.62,577.84 C2068.62,578.46 2068.82,579 2069.26,579.48 C2069.68,579.98 2070.18,580.22 2070.76,580.22 C2071.66,580.22 2072.66,579.66 2073.78,578.54 C2073.88,580.06 2074.22,580.84 2074.8,580.84 C2075,580.84 2075.2,580.76 2075.38,580.64 C2075.54,580.48 2075.64,580.28 2075.64,580.08 C2075.64,580.02 2075.58,579.78 2075.5,579.3 C2075.4,578.84 2075.36,578.48 2075.36,578.24 C2075.36,577.44 2075.48,576.64 2075.76,575.8 C2075.84,575.58 2075.88,575.44 2075.88,575.36 L2075.88,575.36 Z M2074.06,574.78 C2074.06,575.46 2073.66,576.26 2072.9,577.18 C2072.14,578.1 2071.44,578.54 2070.84,578.54 C2070.42,578.54 2070.22,578.3 2070.22,577.8 C2070.22,577.16 2070.72,576.36 2071.74,575.38 C2072.66,574.5 2073.32,574.04 2073.7,574.04 C2073.94,574.04 2074.06,574.3 2074.06,574.78 L2074.06,574.78 Z" id="листьев-розмарина"></path>
        </g>
    </g>
</svg>