<?xml version="1.0" encoding="UTF-8"?>
<svg width="147px" height="50px" viewBox="0 0 147 50" version="1.1" xmlns="http://www.w3.org/2000/svg" xmlns:xlink="http://www.w3.org/1999/xlink">
    <!-- Generator: Sketch 40.3 (33839) - http://www.bohemiancoding.com/sketch -->
    <title>Не надо тут самодеят</title>
    <desc>Created with Sketch.</desc>
    <defs></defs>
    <g id="Page-1" stroke="none" stroke-width="1" fill="none" fill-rule="evenodd">
        <g id="Desktop" transform="translate(-4802.000000, -610.000000)" fill="#354777">
            <path d="M4815.06411,610.001488 C4815.06411,609.801488 4814.98411,609.601488 4814.82411,609.421488 C4814.66411,609.261488 4814.46411,609.161488 4814.26411,609.161488 C4813.88411,609.161488 4813.64411,609.381488 4813.54411,609.801488 C4813.40411,610.401488 4813.30411,610.861488 4813.26411,611.181488 C4813.06411,612.141488 4812.86411,613.461488 4812.66411,615.141488 C4811.10411,615.701488 4809.26411,616.021488 4807.14411,616.141488 C4807.30411,614.721488 4807.54411,613.361488 4807.86411,612.081488 C4808.06411,611.161488 4808.22411,610.561488 4808.34411,610.261488 C4808.68411,609.221488 4808.86411,608.621488 4808.86411,608.481488 C4808.86411,607.941488 4808.58411,607.661488 4808.06411,607.661488 C4807.74411,607.661488 4807.50411,607.841488 4807.32411,608.181488 C4807.26411,608.281488 4807.14411,608.581488 4806.98411,609.101488 C4806.30411,611.021488 4805.80411,613.401488 4805.50411,616.241488 C4805.34411,616.241488 4805.04411,616.221488 4804.62411,616.181488 C4804.20411,616.161488 4803.96411,616.141488 4803.90411,616.141488 C4803.70411,616.141488 4803.54411,616.241488 4803.42411,616.401488 C4803.28411,616.581488 4803.22411,616.761488 4803.22411,616.961488 C4803.22411,617.561488 4803.66411,617.841488 4804.58411,617.841488 L4805.00411,617.841488 C4805.16411,617.841488 4805.30411,617.821488 4805.38411,617.821488 C4805.14411,620.501488 4805.04411,622.641488 4805.04411,624.241488 C4805.04411,624.481488 4805.10411,624.681488 4805.26411,624.881488 C4805.40411,625.081488 4805.58411,625.181488 4805.80411,625.181488 C4806.02411,625.181488 4806.22411,625.061488 4806.40411,624.861488 C4806.56411,624.641488 4806.64411,624.381488 4806.66411,624.101488 C4806.78411,621.461488 4806.90411,619.361488 4807.02411,617.781488 C4809.02411,617.621488 4810.82411,617.321488 4812.46411,616.921488 C4812.18411,619.841488 4812.06411,622.061488 4812.06411,623.601488 C4812.06411,624.681488 4812.36411,625.241488 4812.98411,625.241488 C4813.18411,625.241488 4813.38411,625.161488 4813.54411,625.001488 C4813.70411,624.821488 4813.78411,624.621488 4813.78411,624.401488 C4813.78411,624.321488 4813.76411,624.101488 4813.76411,623.721488 C4813.74411,623.341488 4813.74411,623.061488 4813.74411,622.861488 C4813.74411,619.601488 4814.12411,615.641488 4814.90411,611.001488 L4815.06411,610.001488 Z M4825.06411,623.661488 C4825.06411,623.461488 4824.98411,623.261488 4824.82411,623.061488 C4824.66411,622.901488 4824.46411,622.801488 4824.26411,622.801488 C4824.10411,622.801488 4823.84411,622.841488 4823.50411,622.881488 C4823.16411,622.921488 4822.90411,622.941488 4822.74411,622.941488 C4822.14411,622.941488 4821.62411,622.661488 4821.14411,622.081488 C4823.14411,621.001488 4824.14411,619.721488 4824.14411,618.241488 C4824.14411,617.681488 4823.90411,617.141488 4823.42411,616.661488 C4822.94411,616.181488 4822.46411,615.941488 4821.96411,615.941488 C4821.10411,615.941488 4820.40411,616.441488 4819.84411,617.421488 C4819.36411,618.261488 4819.12411,619.161488 4819.12411,620.121488 C4819.12411,620.321488 4819.14411,620.601488 4819.20411,620.941488 L4818.74411,620.941488 C4818.46411,620.941488 4818.20411,620.841488 4817.92411,620.641488 C4817.64411,620.441488 4817.44411,620.341488 4817.32411,620.341488 C4816.80411,620.341488 4816.54411,620.621488 4816.54411,621.181488 C4816.54411,621.621488 4816.86411,621.981488 4817.54411,622.261488 C4818.06411,622.481488 4818.56411,622.581488 4819.08411,622.581488 L4819.68411,622.581488 C4820.40411,623.961488 4821.52411,624.641488 4823.04411,624.641488 C4824.38411,624.641488 4825.06411,624.301488 4825.06411,623.661488 L4825.06411,623.661488 Z M4822.56411,618.321488 C4822.56411,618.981488 4821.96411,619.701488 4820.76411,620.481488 L4820.76411,620.121488 C4820.76411,619.581488 4820.84411,619.061488 4821.04411,618.561488 C4821.24411,617.961488 4821.52411,617.661488 4821.88411,617.661488 C4822.04411,617.661488 4822.20411,617.741488 4822.36411,617.861488 C4822.48411,618.021488 4822.56411,618.161488 4822.56411,618.321488 L4822.56411,618.321488 Z M4840.04411,616.621488 C4840.04411,616.101488 4839.80411,615.841488 4839.32411,615.841488 C4838.92411,615.841488 4838.66411,616.201488 4838.56411,616.881488 C4838.46411,617.421488 4838.34411,618.181488 4838.22411,619.161488 C4837.34411,619.381488 4836.48411,619.541488 4835.64411,619.621488 C4835.84411,618.341488 4836.04411,617.381488 4836.24411,616.721488 C4836.36411,616.361488 4836.46411,616.081488 4836.56411,615.841488 C4836.52411,615.301488 4836.28411,615.021488 4835.80411,615.021488 C4835.46411,615.021488 4835.24411,615.181488 4835.12411,615.501488 C4834.72411,616.461488 4834.40411,617.841488 4834.20411,619.641488 C4833.88411,619.641488 4833.66411,619.621488 4833.54411,619.601488 C4833.14411,619.601488 4832.96411,619.841488 4832.96411,620.281488 C4832.96411,620.781488 4833.24411,621.021488 4833.82411,621.021488 L4834.06411,621.021488 C4834.00411,621.781488 4833.94411,622.641488 4833.90411,623.641488 C4833.90411,623.701488 4833.88411,623.801488 4833.86411,623.921488 C4833.82411,624.041488 4833.82411,624.121488 4833.82411,624.201488 C4833.82411,624.401488 4833.90411,624.581488 4834.06411,624.741488 C4834.22411,624.901488 4834.40411,624.981488 4834.60411,624.981488 C4835.08411,624.981488 4835.34411,624.721488 4835.36411,624.221488 C4835.36411,623.541488 4835.42411,622.461488 4835.52411,620.981488 C4836.38411,620.901488 4837.22411,620.761488 4838.06411,620.561488 C4837.96411,621.621488 4837.90411,622.461488 4837.90411,623.061488 C4837.90411,623.121488 4837.88411,623.201488 4837.86411,623.321488 C4837.82411,623.421488 4837.80411,623.501488 4837.80411,623.561488 C4837.80411,624.041488 4837.86411,624.401488 4838.02411,624.641488 C4838.18411,624.901488 4838.36411,625.041488 4838.60411,625.041488 C4838.80411,625.041488 4838.98411,624.961488 4839.14411,624.801488 C4839.28411,624.641488 4839.36411,624.441488 4839.36411,624.221488 C4839.36411,624.181488 4839.34411,624.081488 4839.34411,623.881488 C4839.32411,623.681488 4839.32411,623.521488 4839.32411,623.441488 C4839.32411,622.101488 4839.52411,620.041488 4839.96411,617.261488 C4840.00411,616.901488 4840.04411,616.701488 4840.04411,616.621488 L4840.04411,616.621488 Z M4849.34411,619.381488 C4849.34411,619.201488 4849.24411,619.001488 4849.08411,618.801488 C4849.08411,618.341488 4849.00411,617.941488 4848.88411,617.581488 C4848.90411,617.501488 4848.92411,617.401488 4848.92411,617.301488 C4848.92411,617.061488 4848.78411,616.821488 4848.54411,616.621488 C4848.28411,616.421488 4848.02411,616.301488 4847.76411,616.301488 C4846.66411,616.301488 4845.46411,616.941488 4844.14411,618.181488 C4842.76411,619.461488 4842.08411,620.701488 4842.08411,621.861488 C4842.08411,622.481488 4842.28411,623.021488 4842.72411,623.501488 C4843.14411,624.001488 4843.64411,624.241488 4844.22411,624.241488 C4845.12411,624.241488 4846.12411,623.681488 4847.24411,622.561488 C4847.34411,624.081488 4847.68411,624.861488 4848.26411,624.861488 C4848.46411,624.861488 4848.66411,624.781488 4848.84411,624.661488 C4849.00411,624.501488 4849.10411,624.301488 4849.10411,624.101488 C4849.10411,624.041488 4849.04411,623.801488 4848.96411,623.321488 C4848.86411,622.861488 4848.82411,622.501488 4848.82411,622.261488 C4848.82411,621.461488 4848.94411,620.661488 4849.22411,619.821488 C4849.30411,619.601488 4849.34411,619.461488 4849.34411,619.381488 L4849.34411,619.381488 Z M4847.52411,618.801488 C4847.52411,619.481488 4847.12411,620.281488 4846.36411,621.201488 C4845.60411,622.121488 4844.90411,622.561488 4844.30411,622.561488 C4843.88411,622.561488 4843.68411,622.321488 4843.68411,621.821488 C4843.68411,621.181488 4844.18411,620.381488 4845.20411,619.401488 C4846.12411,618.521488 4846.78411,618.061488 4847.16411,618.061488 C4847.40411,618.061488 4847.52411,618.321488 4847.52411,618.801488 L4847.52411,618.801488 Z M4860.00411,624.061488 C4860.00411,624.001488 4859.96411,623.901488 4859.88411,623.781488 C4859.64411,623.341488 4859.36411,623.121488 4859.08411,623.121488 C4859.04411,623.121488 4858.98411,623.141488 4858.88411,623.141488 C4858.98411,620.661488 4859.06411,618.861488 4859.14411,617.721488 C4859.18411,617.141488 4859.30411,616.561488 4859.52411,615.961488 C4859.52411,615.761488 4859.40411,615.541488 4859.20411,615.341488 C4859.00411,615.141488 4858.80411,615.041488 4858.60411,615.041488 C4858.08411,615.041488 4857.46411,615.161488 4856.72411,615.361488 C4855.84411,615.621488 4855.26411,615.821488 4854.98411,615.941488 C4854.54411,616.181488 4854.34411,616.481488 4854.34411,616.821488 C4854.34411,616.921488 4854.38411,617.061488 4854.48411,617.261488 C4854.54411,617.461488 4854.58411,617.601488 4854.58411,617.681488 C4854.58411,618.561488 4854.36411,619.561488 4853.92411,620.721488 C4853.44411,621.941488 4852.90411,622.901488 4852.26411,623.601488 C4851.64411,623.641488 4851.32411,623.921488 4851.28411,624.441488 C4851.20411,625.221488 4851.18411,625.901488 4851.18411,626.461488 C4851.18411,626.641488 4851.26411,626.821488 4851.42411,626.981488 C4851.58411,627.141488 4851.80411,627.241488 4852.04411,627.241488 C4852.50411,627.241488 4852.74411,627.001488 4852.74411,626.541488 C4852.74411,626.461488 4852.72411,626.361488 4852.70411,626.221488 C4852.66411,626.081488 4852.66411,625.981488 4852.66411,625.941488 C4852.66411,625.861488 4852.66411,625.781488 4852.68411,625.661488 L4852.68411,625.361488 C4852.68411,625.201488 4852.82411,625.101488 4853.14411,625.081488 C4854.32411,624.941488 4855.40411,624.841488 4856.36411,624.781488 C4857.06411,624.721488 4857.56411,624.701488 4857.84411,624.701488 C4858.08411,624.701488 4858.22411,624.801488 4858.22411,625.001488 C4858.22411,625.061488 4858.22411,625.281488 4858.24411,625.681488 L4858.24411,626.381488 C4858.24411,626.941488 4858.44411,627.241488 4858.88411,627.241488 C4859.04411,627.241488 4859.24411,627.181488 4859.46411,627.081488 C4859.64411,626.961488 4859.74411,626.801488 4859.74411,626.641488 C4859.74411,626.501488 4859.72411,626.321488 4859.70411,626.081488 C4859.66411,625.841488 4859.64411,625.641488 4859.64411,625.521488 C4859.64411,625.201488 4859.66411,624.921488 4859.74411,624.701488 C4859.74411,624.661488 4859.78411,624.561488 4859.86411,624.401488 C4859.94411,624.221488 4860.00411,624.101488 4860.00411,624.061488 L4860.00411,624.061488 Z M4857.66411,616.741488 C4857.66411,619.461488 4857.54411,621.661488 4857.30411,623.321488 C4855.74411,623.421488 4854.68411,623.501488 4854.10411,623.581488 C4855.08411,622.021488 4855.76411,619.861488 4856.14411,617.141488 C4856.46411,616.981488 4856.98411,616.841488 4857.66411,616.741488 L4857.66411,616.741488 Z M4868.18411,619.621488 C4868.18411,618.841488 4867.96411,618.121488 4867.52411,617.481488 C4867.06411,616.861488 4866.48411,616.421488 4865.78411,616.181488 C4865.50411,616.101488 4865.34411,616.061488 4865.30411,616.061488 C4865.14411,616.061488 4864.96411,616.161488 4864.72411,616.321488 C4864.44411,616.481488 4864.22411,616.601488 4864.06411,616.661488 C4863.38411,617.001488 4862.82411,617.601488 4862.42411,618.441488 C4862.02411,619.201488 4861.84411,620.021488 4861.84411,620.881488 C4861.84411,621.901488 4862.10411,622.741488 4862.66411,623.401488 C4863.22411,624.041488 4863.92411,624.381488 4864.76411,624.381488 C4865.72411,624.381488 4866.54411,623.941488 4867.20411,623.021488 C4867.84411,622.101488 4868.18411,620.981488 4868.18411,619.621488 L4868.18411,619.621488 Z M4866.60411,619.921488 C4866.60411,620.601488 4866.40411,621.221488 4866.04411,621.801488 C4865.64411,622.401488 4865.22411,622.701488 4864.74411,622.701488 C4864.34411,622.701488 4864.02411,622.521488 4863.78411,622.141488 C4863.52411,621.781488 4863.40411,621.361488 4863.40411,620.881488 C4863.40411,620.241488 4863.54411,619.641488 4863.86411,619.081488 C4864.22411,618.441488 4864.68411,618.101488 4865.24411,618.101488 C4865.44411,618.221488 4865.70411,618.281488 4866.02411,618.281488 C4866.40411,618.521488 4866.60411,619.081488 4866.60411,619.921488 L4866.60411,619.921488 Z M4885.12411,615.701488 C4885.12411,615.501488 4885.04411,615.301488 4884.90411,615.121488 C4884.76411,614.961488 4884.60411,614.861488 4884.42411,614.861488 C4884.12411,614.861488 4883.70411,614.941488 4883.14411,615.061488 C4880.94411,615.581488 4878.98411,616.041488 4877.30411,616.441488 C4877.18411,616.481488 4877.10411,616.481488 4877.06411,616.481488 C4876.66411,616.561488 4876.46411,616.861488 4876.46411,617.361488 C4876.46411,617.921488 4876.68411,618.181488 4877.16411,618.181488 C4877.74411,618.061488 4878.20411,617.961488 4878.52411,617.861488 C4879.10411,617.741488 4879.60411,617.621488 4880.02411,617.541488 C4879.94411,619.081488 4879.90411,620.561488 4879.90411,621.961488 C4879.90411,623.321488 4879.98411,624.261488 4880.14411,624.781488 C4880.26411,625.141488 4880.50411,625.321488 4880.90411,625.321488 C4881.42411,625.321488 4881.68411,624.841488 4881.68411,623.901488 C4881.68411,623.441488 4881.58411,623.101488 4881.42411,622.881488 C4881.38411,622.381488 4881.36411,621.601488 4881.36411,620.521488 C4881.36411,619.681488 4881.42411,618.541488 4881.58411,617.121488 C4882.16411,616.981488 4882.56411,616.881488 4882.80411,616.841488 C4882.98411,616.961488 4883.12411,617.001488 4883.22411,617.001488 C4883.34411,617.001488 4883.48411,616.981488 4883.66411,616.901488 L4884.58411,616.481488 C4884.94411,616.321488 4885.12411,616.061488 4885.12411,615.701488 L4885.12411,615.701488 Z M4893.62411,620.741488 L4893.62411,619.401488 C4893.62411,618.001488 4893.30411,617.281488 4892.68411,617.281488 C4892.36411,617.281488 4892.06411,617.561488 4891.76411,618.081488 C4891.14411,619.181488 4890.66411,619.961488 4890.30411,620.401488 C4889.82411,621.001488 4889.36411,621.301488 4888.92411,621.301488 C4888.60411,621.301488 4888.46411,621.121488 4888.46411,620.761488 C4888.46411,620.441488 4888.52411,619.821488 4888.64411,618.901488 C4888.76411,617.981488 4888.84411,617.421488 4888.84411,617.241488 C4888.84411,616.761488 4888.76411,616.321488 4888.60411,615.961488 C4888.42411,615.521488 4888.16411,615.301488 4887.84411,615.301488 C4887.24411,615.301488 4886.96411,615.561488 4886.96411,616.061488 C4886.96411,616.181488 4886.98411,616.341488 4887.06411,616.581488 C4887.12411,616.821488 4887.16411,616.981488 4887.16411,617.101488 C4887.16411,617.501488 4887.10411,618.101488 4887.00411,618.941488 C4886.90411,619.781488 4886.86411,620.421488 4886.86411,620.821488 C4886.86411,621.481488 4887.04411,622.021488 4887.42411,622.441488 C4887.78411,622.881488 4888.26411,623.081488 4888.90411,623.081488 C4889.92411,623.081488 4890.96411,622.341488 4892.02411,620.861488 C4892.02411,621.541488 4891.96411,622.181488 4891.86411,622.801488 C4891.38411,625.461488 4889.62411,626.801488 4886.56411,626.841488 C4886.08411,626.781488 4885.72411,626.741488 4885.48411,626.721488 C4884.98411,626.741488 4884.72411,627.001488 4884.72411,627.521488 C4884.72411,628.241488 4885.34411,628.621488 4886.58411,628.621488 C4888.54411,628.621488 4890.12411,628.081488 4891.36411,627.041488 C4892.86411,625.761488 4893.62411,623.681488 4893.62411,620.741488 L4893.62411,620.741488 Z M4903.70411,615.701488 C4903.70411,615.501488 4903.62411,615.301488 4903.48411,615.121488 C4903.34411,614.961488 4903.18411,614.861488 4903.00411,614.861488 C4902.70411,614.861488 4902.28411,614.941488 4901.72411,615.061488 C4899.52411,615.581488 4897.56411,616.041488 4895.88411,616.441488 C4895.76411,616.481488 4895.68411,616.481488 4895.64411,616.481488 C4895.24411,616.561488 4895.04411,616.861488 4895.04411,617.361488 C4895.04411,617.921488 4895.26411,618.181488 4895.74411,618.181488 C4896.32411,618.061488 4896.78411,617.961488 4897.10411,617.861488 C4897.68411,617.741488 4898.18411,617.621488 4898.60411,617.541488 C4898.52411,619.081488 4898.48411,620.561488 4898.48411,621.961488 C4898.48411,623.321488 4898.56411,624.261488 4898.72411,624.781488 C4898.84411,625.141488 4899.08411,625.321488 4899.48411,625.321488 C4900.00411,625.321488 4900.26411,624.841488 4900.26411,623.901488 C4900.26411,623.441488 4900.16411,623.101488 4900.00411,622.881488 C4899.96411,622.381488 4899.94411,621.601488 4899.94411,620.521488 C4899.94411,619.681488 4900.00411,618.541488 4900.16411,617.121488 C4900.74411,616.981488 4901.14411,616.881488 4901.38411,616.841488 C4901.56411,616.961488 4901.70411,617.001488 4901.80411,617.001488 C4901.92411,617.001488 4902.06411,616.981488 4902.24411,616.901488 L4903.16411,616.481488 C4903.52411,616.321488 4903.70411,616.061488 4903.70411,615.701488 L4903.70411,615.701488 Z M4810.02411,645.181488 C4810.02411,644.981488 4809.94411,644.781488 4809.78411,644.581488 C4809.62411,644.421488 4809.44411,644.321488 4809.24411,644.321488 C4809.08411,644.321488 4808.84411,644.461488 4808.56411,644.721488 C4808.32411,644.921488 4808.08411,645.121488 4807.88411,645.321488 C4807.54411,645.581488 4807.12411,645.701488 4806.62411,645.701488 C4805.82411,645.701488 4805.44411,645.221488 4805.44411,644.221488 C4805.44411,643.601488 4805.62411,642.981488 4805.98411,642.381488 C4806.34411,641.781488 4806.78411,641.281488 4807.32411,640.921488 C4807.56411,641.061488 4807.92411,641.121488 4808.42411,641.121488 C4808.68411,641.121488 4808.94411,641.021488 4809.20411,640.781488 C4809.42411,640.541488 4809.54411,640.321488 4809.54411,640.081488 C4809.54411,639.761488 4809.42411,639.521488 4809.18411,639.321488 C4808.92411,639.141488 4808.64411,639.041488 4808.34411,639.041488 C4807.08411,639.041488 4805.96411,639.701488 4805.00411,641.001488 C4804.22411,642.041488 4803.84411,643.181488 4803.84411,644.421488 C4803.84411,645.301488 4804.12411,646.001488 4804.68411,646.561488 C4805.24411,647.101488 4805.94411,647.381488 4806.78411,647.381488 C4807.54411,647.381488 4808.32411,647.081488 4809.08411,646.481488 C4809.70411,646.001488 4810.02411,645.581488 4810.02411,645.181488 L4810.02411,645.181488 Z M4819.12411,642.381488 C4819.12411,642.201488 4819.02411,642.001488 4818.86411,641.801488 C4818.86411,641.341488 4818.78411,640.941488 4818.66411,640.581488 C4818.68411,640.501488 4818.70411,640.401488 4818.70411,640.301488 C4818.70411,640.061488 4818.56411,639.821488 4818.32411,639.621488 C4818.06411,639.421488 4817.80411,639.301488 4817.54411,639.301488 C4816.44411,639.301488 4815.24411,639.941488 4813.92411,641.181488 C4812.54411,642.461488 4811.86411,643.701488 4811.86411,644.861488 C4811.86411,645.481488 4812.06411,646.021488 4812.50411,646.501488 C4812.92411,647.001488 4813.42411,647.241488 4814.00411,647.241488 C4814.90411,647.241488 4815.90411,646.681488 4817.02411,645.561488 C4817.12411,647.081488 4817.46411,647.861488 4818.04411,647.861488 C4818.24411,647.861488 4818.44411,647.781488 4818.62411,647.661488 C4818.78411,647.501488 4818.88411,647.301488 4818.88411,647.101488 C4818.88411,647.041488 4818.82411,646.801488 4818.74411,646.321488 C4818.64411,645.861488 4818.60411,645.501488 4818.60411,645.261488 C4818.60411,644.461488 4818.72411,643.661488 4819.00411,642.821488 C4819.08411,642.601488 4819.12411,642.461488 4819.12411,642.381488 L4819.12411,642.381488 Z M4817.30411,641.801488 C4817.30411,642.481488 4816.90411,643.281488 4816.14411,644.201488 C4815.38411,645.121488 4814.68411,645.561488 4814.08411,645.561488 C4813.66411,645.561488 4813.46411,645.321488 4813.46411,644.821488 C4813.46411,644.181488 4813.96411,643.381488 4814.98411,642.401488 C4815.90411,641.521488 4816.56411,641.061488 4816.94411,641.061488 C4817.18411,641.061488 4817.30411,641.321488 4817.30411,641.801488 L4817.30411,641.801488 Z M4829.90411,647.841488 C4829.90411,647.661488 4829.84411,647.461488 4829.72411,647.221488 C4829.60411,646.981488 4829.46411,646.821488 4829.32411,646.701488 C4829.00411,646.021488 4828.72411,644.781488 4828.48411,643.001488 C4828.32411,642.081488 4828.20411,641.061488 4828.08411,639.981488 C4828.02411,639.561488 4827.78411,639.341488 4827.36411,639.341488 C4826.98411,639.341488 4826.48411,640.161488 4825.86411,641.801488 C4825.64411,642.361488 4825.46411,642.841488 4825.30411,643.281488 C4824.76411,642.481488 4824.28411,641.281488 4823.84411,639.641488 C4823.68411,639.041488 4823.44411,638.741488 4823.14411,638.741488 C4822.76411,638.741488 4822.42411,639.201488 4822.12411,640.101488 C4822.06411,640.101488 4821.98411,640.081488 4821.88411,640.081488 C4821.74411,640.081488 4821.62411,640.141488 4821.54411,640.241488 C4821.42411,640.361488 4821.36411,640.501488 4821.36411,640.641488 C4821.36411,640.681488 4821.36411,640.801488 4821.38411,641.001488 C4821.38411,641.221488 4821.40411,641.341488 4821.40411,641.381488 C4821.40411,641.741488 4821.36411,642.241488 4821.28411,642.921488 C4821.20411,643.601488 4821.16411,644.361488 4821.16411,645.181488 C4821.16411,646.521488 4821.42411,647.181488 4821.96411,647.181488 C4822.36411,647.181488 4822.56411,646.741488 4822.60411,645.841488 C4822.66411,644.081488 4822.82411,642.621488 4823.06411,641.461488 C4824.12411,644.021488 4824.96411,645.301488 4825.56411,645.301488 C4825.76411,645.301488 4825.90411,645.221488 4826.02411,645.021488 C4826.12411,644.861488 4826.24411,644.501488 4826.40411,643.981488 C4826.66411,643.101488 4826.88411,642.401488 4827.06411,641.921488 C4827.26411,644.141488 4827.54411,645.781488 4827.92411,646.841488 C4828.34411,648.061488 4828.78411,648.681488 4829.22411,648.681488 C4829.38411,648.681488 4829.54411,648.581488 4829.68411,648.401488 C4829.82411,648.201488 4829.90411,648.021488 4829.90411,647.841488 L4829.90411,647.841488 Z M4837.66411,642.621488 C4837.66411,641.841488 4837.44411,641.121488 4837.00411,640.481488 C4836.54411,639.861488 4835.96411,639.421488 4835.26411,639.181488 C4834.98411,639.101488 4834.82411,639.061488 4834.78411,639.061488 C4834.62411,639.061488 4834.44411,639.161488 4834.20411,639.321488 C4833.92411,639.481488 4833.70411,639.601488 4833.54411,639.661488 C4832.86411,640.001488 4832.30411,640.601488 4831.90411,641.441488 C4831.50411,642.201488 4831.32411,643.021488 4831.32411,643.881488 C4831.32411,644.901488 4831.58411,645.741488 4832.14411,646.401488 C4832.70411,647.041488 4833.40411,647.381488 4834.24411,647.381488 C4835.20411,647.381488 4836.02411,646.941488 4836.68411,646.021488 C4837.32411,645.101488 4837.66411,643.981488 4837.66411,642.621488 L4837.66411,642.621488 Z M4836.08411,642.921488 C4836.08411,643.601488 4835.88411,644.221488 4835.52411,644.801488 C4835.12411,645.401488 4834.70411,645.701488 4834.22411,645.701488 C4833.82411,645.701488 4833.50411,645.521488 4833.26411,645.141488 C4833.00411,644.781488 4832.88411,644.361488 4832.88411,643.881488 C4832.88411,643.241488 4833.02411,642.641488 4833.34411,642.081488 C4833.70411,641.441488 4834.16411,641.101488 4834.72411,641.101488 C4834.92411,641.221488 4835.18411,641.281488 4835.50411,641.281488 C4835.88411,641.521488 4836.08411,642.081488 4836.08411,642.921488 L4836.08411,642.921488 Z M4848.34411,647.061488 C4848.34411,647.001488 4848.30411,646.901488 4848.22411,646.781488 C4847.98411,646.341488 4847.70411,646.121488 4847.42411,646.121488 C4847.38411,646.121488 4847.32411,646.141488 4847.22411,646.141488 C4847.32411,643.661488 4847.40411,641.861488 4847.48411,640.721488 C4847.52411,640.141488 4847.64411,639.561488 4847.86411,638.961488 C4847.86411,638.761488 4847.74411,638.541488 4847.54411,638.341488 C4847.34411,638.141488 4847.14411,638.041488 4846.94411,638.041488 C4846.42411,638.041488 4845.80411,638.161488 4845.06411,638.361488 C4844.18411,638.621488 4843.60411,638.821488 4843.32411,638.941488 C4842.88411,639.181488 4842.68411,639.481488 4842.68411,639.821488 C4842.68411,639.921488 4842.72411,640.061488 4842.82411,640.261488 C4842.88411,640.461488 4842.92411,640.601488 4842.92411,640.681488 C4842.92411,641.561488 4842.70411,642.561488 4842.26411,643.721488 C4841.78411,644.941488 4841.24411,645.901488 4840.60411,646.601488 C4839.98411,646.641488 4839.66411,646.921488 4839.62411,647.441488 C4839.54411,648.221488 4839.52411,648.901488 4839.52411,649.461488 C4839.52411,649.641488 4839.60411,649.821488 4839.76411,649.981488 C4839.92411,650.141488 4840.14411,650.241488 4840.38411,650.241488 C4840.84411,650.241488 4841.08411,650.001488 4841.08411,649.541488 C4841.08411,649.461488 4841.06411,649.361488 4841.04411,649.221488 C4841.00411,649.081488 4841.00411,648.981488 4841.00411,648.941488 C4841.00411,648.861488 4841.00411,648.781488 4841.02411,648.661488 L4841.02411,648.361488 C4841.02411,648.201488 4841.16411,648.101488 4841.48411,648.081488 C4842.66411,647.941488 4843.74411,647.841488 4844.70411,647.781488 C4845.40411,647.721488 4845.90411,647.701488 4846.18411,647.701488 C4846.42411,647.701488 4846.56411,647.801488 4846.56411,648.001488 C4846.56411,648.061488 4846.56411,648.281488 4846.58411,648.681488 L4846.58411,649.381488 C4846.58411,649.941488 4846.78411,650.241488 4847.22411,650.241488 C4847.38411,650.241488 4847.58411,650.181488 4847.80411,650.081488 C4847.98411,649.961488 4848.08411,649.801488 4848.08411,649.641488 C4848.08411,649.501488 4848.06411,649.321488 4848.04411,649.081488 C4848.00411,648.841488 4847.98411,648.641488 4847.98411,648.521488 C4847.98411,648.201488 4848.00411,647.921488 4848.08411,647.701488 C4848.08411,647.661488 4848.12411,647.561488 4848.20411,647.401488 C4848.28411,647.221488 4848.34411,647.101488 4848.34411,647.061488 L4848.34411,647.061488 Z M4846.00411,639.741488 C4846.00411,642.461488 4845.88411,644.661488 4845.64411,646.321488 C4844.08411,646.421488 4843.02411,646.501488 4842.44411,646.581488 C4843.42411,645.021488 4844.10411,642.861488 4844.48411,640.141488 C4844.80411,639.981488 4845.32411,639.841488 4846.00411,639.741488 L4846.00411,639.741488 Z M4858.12411,646.661488 C4858.12411,646.461488 4858.04411,646.261488 4857.88411,646.061488 C4857.72411,645.901488 4857.52411,645.801488 4857.32411,645.801488 C4857.16411,645.801488 4856.90411,645.841488 4856.56411,645.881488 C4856.22411,645.921488 4855.96411,645.941488 4855.80411,645.941488 C4855.20411,645.941488 4854.68411,645.661488 4854.20411,645.081488 C4856.20411,644.001488 4857.20411,642.721488 4857.20411,641.241488 C4857.20411,640.681488 4856.96411,640.141488 4856.48411,639.661488 C4856.00411,639.181488 4855.52411,638.941488 4855.02411,638.941488 C4854.16411,638.941488 4853.46411,639.441488 4852.90411,640.421488 C4852.42411,641.261488 4852.18411,642.161488 4852.18411,643.121488 C4852.18411,643.321488 4852.20411,643.601488 4852.26411,643.941488 L4851.80411,643.941488 C4851.52411,643.941488 4851.26411,643.841488 4850.98411,643.641488 C4850.70411,643.441488 4850.50411,643.341488 4850.38411,643.341488 C4849.86411,643.341488 4849.60411,643.621488 4849.60411,644.181488 C4849.60411,644.621488 4849.92411,644.981488 4850.60411,645.261488 C4851.12411,645.481488 4851.62411,645.581488 4852.14411,645.581488 L4852.74411,645.581488 C4853.46411,646.961488 4854.58411,647.641488 4856.10411,647.641488 C4857.44411,647.641488 4858.12411,647.301488 4858.12411,646.661488 L4858.12411,646.661488 Z M4855.62411,641.321488 C4855.62411,641.981488 4855.02411,642.701488 4853.82411,643.481488 L4853.82411,643.121488 C4853.82411,642.581488 4853.90411,642.061488 4854.10411,641.561488 C4854.30411,640.961488 4854.58411,640.661488 4854.94411,640.661488 C4855.10411,640.661488 4855.26411,640.741488 4855.42411,640.861488 C4855.54411,641.021488 4855.62411,641.161488 4855.62411,641.321488 L4855.62411,641.321488 Z M4866.06411,641.481488 C4866.06411,640.881488 4865.84411,640.561488 4865.42411,640.561488 C4865.06411,640.561488 4864.80411,640.761488 4864.68411,641.161488 C4864.32411,642.321488 4863.48411,642.881488 4862.20411,642.881488 C4861.38411,642.881488 4860.98411,642.701488 4860.98411,642.341488 C4860.98411,641.921488 4861.44411,641.421488 4862.36411,640.861488 C4863.20411,640.381488 4863.86411,640.141488 4864.38411,640.141488 C4864.50411,640.141488 4864.58411,640.161488 4864.64411,640.181488 C4864.76411,640.321488 4864.88411,640.381488 4865.02411,640.381488 C4865.18411,640.381488 4865.36411,640.301488 4865.54411,640.141488 C4865.70411,639.981488 4865.78411,639.801488 4865.78411,639.601488 C4865.78411,639.041488 4865.38411,638.741488 4864.62411,638.741488 C4863.64411,638.741488 4862.60411,639.081488 4861.48411,639.761488 C4860.18411,640.561488 4859.54411,641.441488 4859.54411,642.401488 C4859.54411,643.021488 4859.78411,643.501488 4860.28411,643.821488 C4860.64411,644.101488 4861.14411,644.221488 4861.76411,644.221488 L4861.94411,644.221488 L4860.60411,645.341488 L4860.48411,645.161488 C4860.26411,645.401488 4860.08411,645.601488 4859.96411,645.721488 C4859.76411,645.801488 4859.58411,645.961488 4859.44411,646.181488 C4859.26411,646.421488 4859.18411,646.641488 4859.18411,646.861488 C4859.18411,647.061488 4859.26411,647.241488 4859.44411,647.441488 C4859.60411,647.601488 4859.80411,647.701488 4860.00411,647.701488 C4860.20411,647.701488 4860.50411,647.501488 4860.90411,647.121488 C4862.32411,645.821488 4863.42411,644.841488 4864.18411,644.181488 C4863.96411,645.821488 4863.86411,646.741488 4863.86411,646.941488 C4863.86411,647.601488 4864.12411,647.941488 4864.64411,647.941488 C4865.08411,647.941488 4865.34411,647.661488 4865.38411,647.141488 C4865.66411,644.621488 4865.88411,642.741488 4866.06411,641.481488 L4866.06411,641.481488 Z M4876.16411,638.701488 C4876.16411,638.501488 4876.08411,638.301488 4875.94411,638.121488 C4875.80411,637.961488 4875.64411,637.861488 4875.46411,637.861488 C4875.16411,637.861488 4874.74411,637.941488 4874.18411,638.061488 C4871.98411,638.581488 4870.02411,639.041488 4868.34411,639.441488 C4868.22411,639.481488 4868.14411,639.481488 4868.10411,639.481488 C4867.70411,639.561488 4867.50411,639.861488 4867.50411,640.361488 C4867.50411,640.921488 4867.72411,641.181488 4868.20411,641.181488 C4868.78411,641.061488 4869.24411,640.961488 4869.56411,640.861488 C4870.14411,640.741488 4870.64411,640.621488 4871.06411,640.541488 C4870.98411,642.081488 4870.94411,643.561488 4870.94411,644.961488 C4870.94411,646.321488 4871.02411,647.261488 4871.18411,647.781488 C4871.30411,648.141488 4871.54411,648.321488 4871.94411,648.321488 C4872.46411,648.321488 4872.72411,647.841488 4872.72411,646.901488 C4872.72411,646.441488 4872.62411,646.101488 4872.46411,645.881488 C4872.42411,645.381488 4872.40411,644.601488 4872.40411,643.521488 C4872.40411,642.681488 4872.46411,641.541488 4872.62411,640.121488 C4873.20411,639.981488 4873.60411,639.881488 4873.84411,639.841488 C4874.02411,639.961488 4874.16411,640.001488 4874.26411,640.001488 C4874.38411,640.001488 4874.52411,639.981488 4874.70411,639.901488 L4875.62411,639.481488 C4875.98411,639.321488 4876.16411,639.061488 4876.16411,638.701488 L4876.16411,638.701488 Z M4885.32411,646.661488 C4885.32411,646.461488 4885.24411,646.261488 4885.08411,646.061488 C4884.92411,645.901488 4884.72411,645.801488 4884.52411,645.801488 C4884.36411,645.801488 4884.10411,645.841488 4883.76411,645.881488 C4883.42411,645.921488 4883.16411,645.941488 4883.00411,645.941488 C4882.40411,645.941488 4881.88411,645.661488 4881.40411,645.081488 C4883.40411,644.001488 4884.40411,642.721488 4884.40411,641.241488 C4884.40411,640.681488 4884.16411,640.141488 4883.68411,639.661488 C4883.20411,639.181488 4882.72411,638.941488 4882.22411,638.941488 C4881.36411,638.941488 4880.66411,639.441488 4880.10411,640.421488 C4879.62411,641.261488 4879.38411,642.161488 4879.38411,643.121488 C4879.38411,643.321488 4879.40411,643.601488 4879.46411,643.941488 L4879.00411,643.941488 C4878.72411,643.941488 4878.46411,643.841488 4878.18411,643.641488 C4877.90411,643.441488 4877.70411,643.341488 4877.58411,643.341488 C4877.06411,643.341488 4876.80411,643.621488 4876.80411,644.181488 C4876.80411,644.621488 4877.12411,644.981488 4877.80411,645.261488 C4878.32411,645.481488 4878.82411,645.581488 4879.34411,645.581488 L4879.94411,645.581488 C4880.66411,646.961488 4881.78411,647.641488 4883.30411,647.641488 C4884.64411,647.641488 4885.32411,647.301488 4885.32411,646.661488 L4885.32411,646.661488 Z M4882.82411,641.321488 C4882.82411,641.981488 4882.22411,642.701488 4881.02411,643.481488 L4881.02411,643.121488 C4881.02411,642.581488 4881.10411,642.061488 4881.30411,641.561488 C4881.50411,640.961488 4881.78411,640.661488 4882.14411,640.661488 C4882.30411,640.661488 4882.46411,640.741488 4882.62411,640.861488 C4882.74411,641.021488 4882.82411,641.161488 4882.82411,641.321488 L4882.82411,641.321488 Z M4894.88411,639.941488 C4894.88411,639.641488 4894.78411,639.381488 4894.58411,639.141488 C4894.40411,638.921488 4894.18411,638.801488 4893.90411,638.801488 C4893.78411,638.801488 4893.54411,638.921488 4893.18411,639.121488 C4892.82411,639.341488 4891.94411,639.521488 4890.52411,639.681488 C4890.20411,639.421488 4889.94411,639.281488 4889.76411,639.281488 C4889.54411,639.281488 4889.30411,639.401488 4889.06411,639.641488 C4888.82411,639.881488 4888.70411,640.141488 4888.70411,640.381488 C4888.70411,640.541488 4888.78411,640.741488 4888.94411,640.961488 C4889.08411,641.201488 4889.16411,641.461488 4889.16411,641.761488 C4889.16411,643.001488 4889.06411,644.021488 4888.86411,644.861488 C4888.60411,645.841488 4888.26411,646.321488 4887.86411,646.321488 C4887.70411,646.321488 4887.58411,646.081488 4887.54411,645.561488 C4887.50411,645.361488 4887.42411,645.241488 4887.26411,645.241488 C4886.98411,645.241488 4886.78411,645.381488 4886.64411,645.621488 C4886.46411,645.901488 4886.38411,646.221488 4886.38411,646.561488 C4886.38411,646.941488 4886.52411,647.221488 4886.82411,647.441488 C4887.10411,647.641488 4887.42411,647.761488 4887.78411,647.761488 C4888.82411,647.761488 4889.56411,647.081488 4890.00411,645.761488 C4890.28411,644.921488 4890.52411,643.401488 4890.72411,641.201488 C4891.22411,641.081488 4891.98411,640.921488 4893.02411,640.741488 C4892.82411,642.701488 4892.72411,644.181488 4892.72411,645.181488 C4892.72411,646.501488 4892.80411,647.321488 4892.98411,647.661488 C4893.16411,648.001488 4893.42411,648.181488 4893.74411,648.181488 C4894.26411,648.181488 4894.52411,647.861488 4894.52411,647.261488 C4894.44411,646.901488 4894.40411,646.581488 4894.36411,646.301488 C4894.26411,645.621488 4894.22411,645.041488 4894.22411,644.541488 C4894.22411,643.461488 4894.38411,642.201488 4894.72411,640.761488 C4894.82411,640.281488 4894.88411,640.021488 4894.88411,639.941488 L4894.88411,639.941488 Z M4902.98411,644.601488 C4902.98411,643.781488 4902.70411,643.121488 4902.16411,642.621488 C4901.66411,642.161488 4901.02411,641.921488 4900.22411,641.921488 C4899.78411,641.921488 4899.34411,642.041488 4898.90411,642.281488 C4898.98411,641.541488 4899.04411,640.881488 4899.10411,640.321488 C4899.20411,639.681488 4899.26411,639.181488 4899.30411,638.821488 C4899.22411,638.241488 4898.98411,637.941488 4898.54411,637.941488 C4898.02411,637.941488 4897.74411,638.341488 4897.68411,639.121488 C4897.36411,642.281488 4897.12411,644.961488 4896.92411,647.161488 C4896.94411,647.861488 4897.20411,648.221488 4897.72411,648.221488 C4898.04411,648.221488 4898.26411,648.081488 4898.38411,647.821488 C4898.60411,647.881488 4898.80411,647.921488 4899.00411,647.921488 C4899.88411,647.921488 4900.74411,647.601488 4901.58411,646.981488 C4902.50411,646.301488 4902.98411,645.521488 4902.98411,644.601488 L4902.98411,644.601488 Z M4901.46411,644.361488 C4901.46411,644.961488 4901.14411,645.501488 4900.54411,645.961488 C4899.98411,646.401488 4899.44411,646.621488 4898.92411,646.621488 C4898.84411,646.621488 4898.70411,646.601488 4898.54411,646.561488 L4898.72411,644.261488 C4899.08411,643.661488 4899.56411,643.341488 4900.18411,643.341488 C4900.50411,643.341488 4900.78411,643.441488 4901.06411,643.641488 C4901.32411,643.841488 4901.46411,644.081488 4901.46411,644.361488 L4901.46411,644.361488 Z M4911.48411,639.621488 C4911.48411,639.101488 4911.24411,638.841488 4910.76411,638.841488 C4910.36411,638.841488 4910.10411,639.201488 4910.00411,639.881488 C4909.90411,640.421488 4909.78411,641.181488 4909.66411,642.161488 C4908.78411,642.381488 4907.92411,642.541488 4907.08411,642.621488 C4907.28411,641.341488 4907.48411,640.381488 4907.68411,639.721488 C4907.80411,639.361488 4907.90411,639.081488 4908.00411,638.841488 C4907.96411,638.301488 4907.72411,638.021488 4907.24411,638.021488 C4906.90411,638.021488 4906.68411,638.181488 4906.56411,638.501488 C4906.16411,639.461488 4905.84411,640.841488 4905.64411,642.641488 C4905.32411,642.641488 4905.10411,642.621488 4904.98411,642.601488 C4904.58411,642.601488 4904.40411,642.841488 4904.40411,643.281488 C4904.40411,643.781488 4904.68411,644.021488 4905.26411,644.021488 L4905.50411,644.021488 C4905.44411,644.781488 4905.38411,645.641488 4905.34411,646.641488 C4905.34411,646.701488 4905.32411,646.801488 4905.30411,646.921488 C4905.26411,647.041488 4905.26411,647.121488 4905.26411,647.201488 C4905.26411,647.401488 4905.34411,647.581488 4905.50411,647.741488 C4905.66411,647.901488 4905.84411,647.981488 4906.04411,647.981488 C4906.52411,647.981488 4906.78411,647.721488 4906.80411,647.221488 C4906.80411,646.541488 4906.86411,645.461488 4906.96411,643.981488 C4907.82411,643.901488 4908.66411,643.761488 4909.50411,643.561488 C4909.40411,644.621488 4909.34411,645.461488 4909.34411,646.061488 C4909.34411,646.121488 4909.32411,646.201488 4909.30411,646.321488 C4909.26411,646.421488 4909.24411,646.501488 4909.24411,646.561488 C4909.24411,647.041488 4909.30411,647.401488 4909.46411,647.641488 C4909.62411,647.901488 4909.80411,648.041488 4910.04411,648.041488 C4910.24411,648.041488 4910.42411,647.961488 4910.58411,647.801488 C4910.72411,647.641488 4910.80411,647.441488 4910.80411,647.221488 C4910.80411,647.181488 4910.78411,647.081488 4910.78411,646.881488 C4910.76411,646.681488 4910.76411,646.521488 4910.76411,646.441488 C4910.76411,645.101488 4910.96411,643.041488 4911.40411,640.261488 C4911.44411,639.901488 4911.48411,639.701488 4911.48411,639.621488 L4911.48411,639.621488 Z M4919.86411,642.621488 C4919.86411,641.841488 4919.64411,641.121488 4919.20411,640.481488 C4918.74411,639.861488 4918.16411,639.421488 4917.46411,639.181488 C4917.18411,639.101488 4917.02411,639.061488 4916.98411,639.061488 C4916.82411,639.061488 4916.64411,639.161488 4916.40411,639.321488 C4916.12411,639.481488 4915.90411,639.601488 4915.74411,639.661488 C4915.06411,640.001488 4914.50411,640.601488 4914.10411,641.441488 C4913.70411,642.201488 4913.52411,643.021488 4913.52411,643.881488 C4913.52411,644.901488 4913.78411,645.741488 4914.34411,646.401488 C4914.90411,647.041488 4915.60411,647.381488 4916.44411,647.381488 C4917.40411,647.381488 4918.22411,646.941488 4918.88411,646.021488 C4919.52411,645.101488 4919.86411,643.981488 4919.86411,642.621488 L4919.86411,642.621488 Z M4918.28411,642.921488 C4918.28411,643.601488 4918.08411,644.221488 4917.72411,644.801488 C4917.32411,645.401488 4916.90411,645.701488 4916.42411,645.701488 C4916.02411,645.701488 4915.70411,645.521488 4915.46411,645.141488 C4915.20411,644.781488 4915.08411,644.361488 4915.08411,643.881488 C4915.08411,643.241488 4915.22411,642.641488 4915.54411,642.081488 C4915.90411,641.441488 4916.36411,641.101488 4916.92411,641.101488 C4917.12411,641.221488 4917.38411,641.281488 4917.70411,641.281488 C4918.08411,641.521488 4918.28411,642.081488 4918.28411,642.921488 L4918.28411,642.921488 Z M4928.10411,645.181488 C4928.10411,644.981488 4928.02411,644.781488 4927.86411,644.581488 C4927.70411,644.421488 4927.52411,644.321488 4927.32411,644.321488 C4927.16411,644.321488 4926.92411,644.461488 4926.64411,644.721488 C4926.40411,644.921488 4926.16411,645.121488 4925.96411,645.321488 C4925.62411,645.581488 4925.20411,645.701488 4924.70411,645.701488 C4923.90411,645.701488 4923.52411,645.221488 4923.52411,644.221488 C4923.52411,643.601488 4923.70411,642.981488 4924.06411,642.381488 C4924.42411,641.781488 4924.86411,641.281488 4925.40411,640.921488 C4925.64411,641.061488 4926.00411,641.121488 4926.50411,641.121488 C4926.76411,641.121488 4927.02411,641.021488 4927.28411,640.781488 C4927.50411,640.541488 4927.62411,640.321488 4927.62411,640.081488 C4927.62411,639.761488 4927.50411,639.521488 4927.26411,639.321488 C4927.00411,639.141488 4926.72411,639.041488 4926.42411,639.041488 C4925.16411,639.041488 4924.04411,639.701488 4923.08411,641.001488 C4922.30411,642.041488 4921.92411,643.181488 4921.92411,644.421488 C4921.92411,645.301488 4922.20411,646.001488 4922.76411,646.561488 C4923.32411,647.101488 4924.02411,647.381488 4924.86411,647.381488 C4925.62411,647.381488 4926.40411,647.081488 4927.16411,646.481488 C4927.78411,646.001488 4928.10411,645.581488 4928.10411,645.181488 L4928.10411,645.181488 Z M4937.98411,638.701488 C4937.98411,638.501488 4937.90411,638.301488 4937.76411,638.121488 C4937.62411,637.961488 4937.46411,637.861488 4937.28411,637.861488 C4936.98411,637.861488 4936.56411,637.941488 4936.00411,638.061488 C4933.80411,638.581488 4931.84411,639.041488 4930.16411,639.441488 C4930.04411,639.481488 4929.96411,639.481488 4929.92411,639.481488 C4929.52411,639.561488 4929.32411,639.861488 4929.32411,640.361488 C4929.32411,640.921488 4929.54411,641.181488 4930.02411,641.181488 C4930.60411,641.061488 4931.06411,640.961488 4931.38411,640.861488 C4931.96411,640.741488 4932.46411,640.621488 4932.88411,640.541488 C4932.80411,642.081488 4932.76411,643.561488 4932.76411,644.961488 C4932.76411,646.321488 4932.84411,647.261488 4933.00411,647.781488 C4933.12411,648.141488 4933.36411,648.321488 4933.76411,648.321488 C4934.28411,648.321488 4934.54411,647.841488 4934.54411,646.901488 C4934.54411,646.441488 4934.44411,646.101488 4934.28411,645.881488 C4934.24411,645.381488 4934.22411,644.601488 4934.22411,643.521488 C4934.22411,642.681488 4934.28411,641.541488 4934.44411,640.121488 C4935.02411,639.981488 4935.42411,639.881488 4935.66411,639.841488 C4935.84411,639.961488 4935.98411,640.001488 4936.08411,640.001488 C4936.20411,640.001488 4936.34411,639.981488 4936.52411,639.901488 L4937.44411,639.481488 C4937.80411,639.321488 4937.98411,639.061488 4937.98411,638.701488 L4937.98411,638.701488 Z M4946.62411,647.141488 C4946.62411,647.001488 4946.52411,646.821488 4946.34411,646.621488 C4945.90411,646.141488 4945.70411,644.921488 4945.70411,642.961488 C4945.70411,642.261488 4945.80411,641.081488 4946.02411,639.421488 C4946.02411,639.201488 4945.92411,639.001488 4945.76411,638.801488 C4945.58411,638.621488 4945.38411,638.521488 4945.16411,638.521488 C4944.82411,638.521488 4944.10411,639.261488 4943.02411,640.741488 C4942.14411,641.901488 4941.42411,642.961488 4940.82411,643.881488 C4940.96411,642.321488 4941.06411,641.181488 4941.12411,640.501488 C4941.12411,640.181488 4941.00411,639.901488 4940.80411,639.661488 C4940.60411,639.441488 4940.34411,639.321488 4940.02411,639.321488 C4939.84411,639.321488 4939.68411,639.441488 4939.52411,639.661488 C4939.56411,640.241488 4939.60411,640.581488 4939.60411,640.661488 C4939.60411,641.021488 4939.54411,641.921488 4939.44411,643.381488 L4939.40411,643.961488 C4939.38411,644.261488 4939.34411,644.661488 4939.30411,645.161488 C4939.24411,645.641488 4939.20411,645.941488 4939.20411,646.061488 C4939.22411,646.341488 4939.30411,646.561488 4939.46411,646.681488 C4939.78411,647.001488 4939.98411,647.141488 4940.06411,647.141488 C4940.34411,647.141488 4940.68411,646.841488 4941.04411,646.201488 C4941.78411,644.961488 4942.30411,644.081488 4942.62411,643.601488 C4943.14411,642.741488 4943.70411,641.941488 4944.32411,641.221488 C4944.32411,641.421488 4944.30411,641.841488 4944.30411,642.461488 C4944.28411,643.101488 4944.28411,643.441488 4944.28411,643.521488 C4944.28411,644.561488 4944.38411,645.441488 4944.60411,646.201488 C4944.90411,647.301488 4945.34411,647.861488 4945.90411,647.861488 C4946.02411,647.861488 4946.18411,647.761488 4946.36411,647.601488 C4946.52411,647.401488 4946.62411,647.261488 4946.62411,647.141488 L4946.62411,647.141488 Z" id="Не-надо-тут-самодеят" transform="translate(4875.434105, 628.951488) rotate(-10.000000) translate(-4875.434105, -628.951488) "></path>
        </g>
    </g>
</svg>