<?xml version="1.0" encoding="UTF-8"?>
<svg width="167px" height="42px" viewBox="0 0 167 42" version="1.1" xmlns="http://www.w3.org/2000/svg" xmlns:xlink="http://www.w3.org/1999/xlink">
    <!-- Generator: Sketch 40.3 (33839) - http://www.bohemiancoding.com/sketch -->
    <title>Group 2</title>
    <desc>Created with Sketch.</desc>
    <defs></defs>
    <g id="Page-1" stroke="none" stroke-width="1" fill="none" fill-rule="evenodd">
        <g id="Desktop" transform="translate(-569.000000, -689.000000)">
            <g id="Group-2" transform="translate(569.000000, 689.000000)">
                <path d="M1.414,31.994 L1.414,31.154 C1.70333478,31.0233327 2.03233149,30.9160004 2.401,30.832 C2.76966851,30.7479996 3.15466466,30.706 3.556,30.706 C4.62000532,30.706 5.34799804,31.0466633 5.74,31.728 C5.9733345,32.1293353 6.09,32.6799965 6.09,33.38 L6.09,36.432 L6.132,38 L5.348,38 L5.348,36.782 C5.05866522,37.2953359 4.66666914,37.6593323 4.172,37.874 C3.80799818,38.0326675 3.41133548,38.112 2.982,38.112 C2.20732946,38.112 1.6100021,37.8973355 1.19,37.468 C0.8166648,37.0946648 0.63,36.6326694 0.63,36.082 C0.63,35.3166628 0.90066396,34.7333353 1.442,34.332 C2.08600322,33.8559976 3.18732554,33.618 4.746,33.618 L5.208,33.618 L5.208,33.366 C5.208,32.8339973 5.12866746,32.4280014 4.97,32.148 C4.70866536,31.681331 4.23733674,31.448 3.556,31.448 C2.78132946,31.448 2.0673366,31.6299982 1.414,31.994 L1.414,31.994 Z M5.208,34.36 L4.41,34.36 C3.55132904,34.36 2.888669,34.4673323 2.422,34.682 C1.84333044,34.952668 1.554,35.4006635 1.554,36.026 C1.554,36.4273353 1.6939986,36.7516654 1.974,36.999 C2.2540014,37.2463346 2.58533142,37.37 2.968,37.37 C3.69600364,37.37 4.25133142,37.1413356 4.634,36.684 C5.01666858,36.2266644 5.208,35.6246704 5.208,34.878 L5.208,34.36 Z M9.0961379,30.818 L11.9381379,30.818 C12.6941417,30.818 13.2681359,31.0186647 13.6601379,31.42 C13.9961396,31.7560017 14.1641379,32.1899973 14.1641379,32.722 C14.1641379,33.38467 13.8328079,33.8746651 13.1701379,34.192 C13.5994734,34.3040006 13.9308034,34.525665 14.1641379,34.857 C14.3974724,35.188335 14.5141379,35.5686645 14.5141379,35.998 C14.5141379,36.5580028 14.3368063,37.0153316 13.9821379,37.37 C13.5528024,37.7900021 12.9228087,38 12.0921379,38 L9.0961379,38 L9.0961379,30.818 Z M9.9781379,31.56 L9.9781379,33.898 L11.8821379,33.898 C12.3394735,33.898 12.6871367,33.7906677 12.9251379,33.576 C13.1631391,33.3613323 13.2821379,33.1000015 13.2821379,32.792 C13.2821379,32.4466649 13.1841389,32.1666677 12.9881379,31.952 C12.74547,31.6906654 12.376807,31.56 11.8821379,31.56 L9.9781379,31.56 Z M9.9781379,34.64 L9.9781379,37.258 L12.0221379,37.258 C12.5261404,37.258 12.9134699,37.1413345 13.1841379,36.908 C13.4548059,36.6746655 13.5901379,36.3713352 13.5901379,35.998 C13.5901379,35.5873313 13.4454727,35.2583346 13.1561379,35.011 C12.8668031,34.7636654 12.4421407,34.64 11.8821379,34.64 L9.9781379,34.64 Z M16.2882758,30.818 L21.6502758,30.818 L21.6502758,31.56 L19.4102758,31.56 L19.4102758,38 L18.5282758,38 L18.5282758,31.56 L16.2882758,31.56 L16.2882758,30.818 Z M23.1444137,34.416 C23.1444137,33.3519947 23.4244109,32.4793367 23.9844137,31.798 C24.58175,31.0699964 25.4077418,30.706 26.4624137,30.706 C27.5077523,30.706 28.333744,31.0699964 28.9404137,31.798 C29.5004165,32.4793367 29.7804137,33.3519947 29.7804137,34.416 C29.7804137,35.4800053 29.5004165,36.3479966 28.9404137,37.02 C28.333744,37.7480036 27.5077523,38.112 26.4624137,38.112 C25.4170751,38.112 24.5910834,37.7480036 23.9844137,37.02 C23.4244109,36.3479966 23.1444137,35.4800053 23.1444137,34.416 L23.1444137,34.416 Z M24.0684137,34.416 C24.0684137,35.153337 24.2410786,35.792664 24.5864137,36.334 C25.0250826,37.0246701 25.6504096,37.37 26.4624137,37.37 C27.2650844,37.37 27.8857448,37.0293367 28.3244137,36.348 C28.6790821,35.7973306 28.8564137,35.153337 28.8564137,34.416 C28.8564137,33.678663 28.6837488,33.0346694 28.3384137,32.484 C27.8997448,31.7933299 27.2744178,31.448 26.4624137,31.448 C25.6504096,31.448 25.0297492,31.7886633 24.6004137,32.47 C24.2457453,33.0300028 24.0684137,33.678663 24.0684137,34.416 L24.0684137,34.416 Z M33.1925516,41.066 L32.3105516,41.066 L32.3105516,32.204 L32.2545516,30.818 L33.0945516,30.818 L33.0945516,32.302 C33.2905526,31.8633311 33.5145503,31.5273345 33.7665516,31.294 C34.1865537,30.901998 34.7185484,30.706 35.3625516,30.706 C36.3892234,30.706 37.1732156,31.0653297 37.7145516,31.784 C38.2092207,32.4373366 38.4565516,33.3099945 38.4565516,34.402 C38.4565516,35.6993398 38.120555,36.6699968 37.4485516,37.314 C36.8978822,37.8460027 36.2025558,38.112 35.3625516,38.112 C34.8772158,38.112 34.4385536,37.9720014 34.0465516,37.692 C33.7012165,37.4493321 33.4212193,37.1226687 33.2065516,36.712 L33.1925516,37.398 L33.1925516,41.066 Z M33.1925516,34.402 C33.1925516,35.3726715 33.4258826,36.128664 33.8925516,36.67 C34.2938869,37.136669 34.783882,37.37 35.3625516,37.37 C35.9412212,37.37 36.4312163,37.1413356 36.8325516,36.684 C37.2992206,36.142664 37.5325516,35.3820049 37.5325516,34.402 C37.5325516,33.4406619 37.2992206,32.689336 36.8325516,32.148 C36.4312163,31.681331 35.9412212,31.448 35.3625516,31.448 C34.8025488,31.448 34.3172203,31.681331 33.9065516,32.148 C33.4305492,32.689336 33.1925516,33.4406619 33.1925516,34.402 L33.1925516,34.402 Z M40.9306895,30.818 L41.8126895,30.818 L41.8126895,36.082 L41.7986895,36.838 L42.3166895,36.068 L46.0266895,30.818 L47.0066895,30.818 L47.0066895,38 L46.1246895,38 L46.1246895,32.736 L46.1386895,31.98 L45.6206895,32.736 L41.9106895,38 L40.9306895,38 L40.9306895,30.818 Z M48.9908274,30.818 L54.3528274,30.818 L54.3528274,31.56 L52.1128274,31.56 L52.1128274,38 L51.2308274,38 L51.2308274,31.56 L48.9908274,31.56 L48.9908274,30.818 Z M61.7689653,34.668 L56.7009653,34.668 C56.7009653,35.4240038 56.9249631,36.0633307 57.3729653,36.586 C57.8583011,37.1553362 58.497628,37.44 59.2909653,37.44 C59.8696349,37.44 60.5136284,37.2626684 61.2229653,36.908 L61.2229653,37.72 C60.5602953,38.0000014 59.8976353,38.14 59.2349653,38.14 C58.2362937,38.14 57.433635,37.8460029 56.8269653,37.258 C56.1269618,36.5859966 55.7769653,35.5966732 55.7769653,34.29 C55.7769653,33.2353281 56.0546292,32.3743367 56.6099653,31.707 C57.1653014,31.0396633 57.9282938,30.706 58.8989653,30.706 C60.1029713,30.706 60.9289631,31.1913285 61.3769653,32.162 C61.6383,32.7220028 61.7689653,33.4639954 61.7689653,34.388 L61.7689653,34.668 Z M56.7009653,33.926 L60.8449653,33.926 C60.8449653,33.3099969 60.7376331,32.7966687 60.5229653,32.386 C60.196297,31.7606635 59.6549691,31.448 58.8989653,31.448 C58.1896284,31.448 57.629634,31.7279972 57.2189653,32.288 C56.8736303,32.7640024 56.7009653,33.3099969 56.7009653,33.926 L56.7009653,33.926 Z M63.1931032,30.818 L68.5551032,30.818 L68.5551032,31.56 L66.3151032,31.56 L66.3151032,38 L65.4331032,38 L65.4331032,31.56 L63.1931032,31.56 L63.1931032,30.818 Z M70.5392411,30.818 L71.4212411,30.818 L71.4212411,33.898 L75.3132411,33.898 L75.3132411,30.818 L76.1952411,30.818 L76.1952411,38 L75.3132411,38 L75.3132411,34.64 L71.4212411,34.64 L71.4212411,38 L70.5392411,38 L70.5392411,30.818 Z M79.159379,30.818 L80.041379,30.818 L80.041379,33.646 L81.903379,33.646 C82.6873829,33.646 83.3033768,33.8139983 83.751379,34.15 C84.2460482,34.5233352 84.493379,35.078663 84.493379,35.816 C84.493379,36.5720038 84.2507148,37.1319982 83.765379,37.496 C83.3173768,37.8320017 82.6967163,38 81.903379,38 L79.159379,38 L79.159379,30.818 Z M80.041379,34.388 L80.041379,37.258 L81.833379,37.258 C82.2907146,37.258 82.6500444,37.1880007 82.911379,37.048 C83.3500479,36.8146655 83.569379,36.4040029 83.569379,35.816 C83.569379,35.2466638 83.3547145,34.8453345 82.925379,34.612 C82.6453776,34.4626659 82.2813813,34.388 81.833379,34.388 L80.041379,34.388 Z M85.823379,30.818 L86.705379,30.818 L86.705379,38 L85.823379,38 L85.823379,30.818 Z M89.6695169,30.818 L90.5515169,30.818 L90.5515169,36.082 L90.5375169,36.838 L91.0555169,36.068 L94.7655169,30.818 L95.7455169,30.818 L95.7455169,38 L94.8635169,38 L94.8635169,32.736 L94.8775169,31.98 L94.3595169,32.736 L90.6495169,38 L89.6695169,38 L89.6695169,30.818 Z M90.6635169,28.074 L91.0835169,27.584 C91.3355182,27.8826682 91.6155154,28.0973327 91.9235169,28.228 C92.1661848,28.3306672 92.4275155,28.382 92.7075169,28.382 C92.9968517,28.382 93.2535158,28.3353338 93.4775169,28.242 C93.7855185,28.1113327 94.0701823,27.8920015 94.3315169,27.584 L94.7515169,28.074 C94.5181824,28.4006683 94.2218521,28.6643323 93.8625169,28.865 C93.5031818,29.0656677 93.1181856,29.166 92.7075169,29.166 C92.2875148,29.166 91.9025187,29.068001 91.5525169,28.872 C91.2025152,28.675999 90.9061848,28.4100017 90.6635169,28.074 L90.6635169,28.074 Z M104.347793,30.818 L105.229793,30.818 L105.229793,36.082 L105.215793,36.838 L105.733793,36.068 L109.443793,30.818 L110.423793,30.818 L110.423793,38 L109.541793,38 L109.541793,32.736 L109.555793,31.98 L109.037793,32.736 L105.327793,38 L104.347793,38 L104.347793,30.818 Z M118.189931,30.986 L118.147931,31.77 C117.877263,31.6579994 117.580932,31.5763336 117.258931,31.525 C116.936929,31.4736664 116.593932,31.448 116.229931,31.448 C115.464593,31.448 114.862599,31.7419971 114.423931,32.33 C114.022595,32.871336 113.821931,33.5666624 113.821931,34.416 C113.821931,35.349338 114.066928,36.0749974 114.556931,36.593 C115.046933,37.1110026 115.660594,37.37 116.397931,37.37 C116.733932,37.37 117.041929,37.3490002 117.321931,37.307 C117.601932,37.2649998 117.881929,37.1880006 118.161931,37.076 L118.245931,37.832 C118.059263,37.8973337 117.793266,37.960333 117.447931,38.021 C117.102596,38.081667 116.747932,38.112 116.383931,38.112 C115.366592,38.112 114.531267,37.7760034 113.877931,37.104 C113.224594,36.4319966 112.897931,35.5360056 112.897931,34.416 C112.897931,33.2679943 113.219927,32.3533367 113.863931,31.672 C114.4706,31.0279968 115.231259,30.706 116.145931,30.706 C116.472599,30.706 116.817929,30.7293331 117.181931,30.776 C117.545932,30.8226669 117.881929,30.8926662 118.189931,30.986 L118.189931,30.986 Z M119.530069,30.818 L124.892069,30.818 L124.892069,31.56 L122.652069,31.56 L122.652069,38 L121.770069,38 L121.770069,31.56 L119.530069,31.56 L119.530069,30.818 Z M126.386206,34.416 C126.386206,33.3519947 126.666204,32.4793367 127.226206,31.798 C127.823543,31.0699964 128.649534,30.706 129.704206,30.706 C130.749545,30.706 131.575537,31.0699964 132.182206,31.798 C132.742209,32.4793367 133.022206,33.3519947 133.022206,34.416 C133.022206,35.4800053 132.742209,36.3479966 132.182206,37.02 C131.575537,37.7480036 130.749545,38.112 129.704206,38.112 C128.658868,38.112 127.832876,37.7480036 127.226206,37.02 C126.666204,36.3479966 126.386206,35.4800053 126.386206,34.416 L126.386206,34.416 Z M127.310206,34.416 C127.310206,35.153337 127.482871,35.792664 127.828206,36.334 C128.266875,37.0246701 128.892202,37.37 129.704206,37.37 C130.506877,37.37 131.127538,37.0293367 131.566206,36.348 C131.920875,35.7973306 132.098206,35.153337 132.098206,34.416 C132.098206,33.678663 131.925541,33.0346694 131.580206,32.484 C131.141538,31.7933299 130.51621,31.448 129.704206,31.448 C128.892202,31.448 128.271542,31.7886633 127.842206,32.47 C127.487538,33.0300028 127.310206,33.678663 127.310206,34.416 L127.310206,34.416 Z M135.818344,30.818 L135.818344,32.974 C135.818344,33.3286684 135.89301,33.5993324 136.042344,33.786 C136.313012,34.1313351 136.84034,34.304 137.624344,34.304 C138.063013,34.304 138.655674,34.2340007 139.402344,34.094 L139.402344,30.818 L140.284344,30.818 L140.284344,38 L139.402344,38 L139.402344,34.836 C139.019676,34.9013337 138.676679,34.9503332 138.373344,34.983 C138.070009,35.0156668 137.764346,35.032 137.456344,35.032 C136.485673,35.032 135.79968,34.8313353 135.398344,34.43 C135.090343,34.1219985 134.936344,33.6833362 134.936344,33.114 L134.936344,30.818 L135.818344,30.818 Z M143.248482,30.818 L144.130482,30.818 L144.130482,33.898 L148.022482,33.898 L148.022482,30.818 L148.904482,30.818 L148.904482,38 L148.022482,38 L148.022482,34.64 L144.130482,34.64 L144.130482,38 L143.248482,38 L143.248482,30.818 Z M151.86862,30.818 L152.75062,30.818 L152.75062,36.082 L152.73662,36.838 L153.25462,36.068 L156.96462,30.818 L157.94462,30.818 L157.94462,38 L157.06262,38 L157.06262,32.736 L157.07662,31.98 L156.55862,32.736 L152.84862,38 L151.86862,38 L151.86862,30.818 Z M160.908758,30.818 L161.790758,30.818 L161.790758,33.982 L165.122758,30.818 L166.256758,30.818 L162.728758,34.164 L166.634758,38 L165.388758,38 L161.832758,34.444 L161.790758,38 L160.908758,38 L160.908758,30.818 Z" id="авторитетный-источни" fill="#505050"></path>
                <path d="M8.08,9.52 C8.08,9.3 7.98,9.1 7.78,8.94 C7.56,8.8 7.34,8.72 7.12,8.68 C5.08,8.84 3.46,8.98 2.3,9.06 C1.6,9.12 1.26,9.36 1.26,9.8 C1.26,10.08 1.3,10.32 1.42,10.54 C1.28,12.6 1.22,13.64 1.22,13.68 C1.08,15.12 1.02,15.84 1.02,15.84 C1.02,16.1 1.1,16.36 1.28,16.62 C1.46,16.88 1.66,17 1.9,17 C2.3,17 2.5,16.74 2.54,16.2 C2.66,14.04 2.78,12.18 2.94,10.62 C3.96,10.48 5.02,10.38 6.12,10.34 C6.12,10.4 6.08,11.38 6.02,13.26 C5.94,14.94 5.92,15.84 5.92,15.96 C5.92,17.26 6.26,17.92 6.98,17.92 C7.36,17.92 7.56,17.7 7.56,17.3 C7.44,16.7 7.4,16.14 7.4,15.66 C7.4,15.02 7.44,14 7.52,12.6 C7.54,12.38 7.58,12.06 7.64,11.62 C7.68,11.26 7.7,11.06 7.7,10.98 C7.7,10.86 7.66,10.68 7.62,10.44 C7.92,10.12 8.08,9.82 8.08,9.52 L8.08,9.52 Z M16.48,12.6 C16.48,11.82 16.26,11.1 15.82,10.46 C15.36,9.84 14.78,9.4 14.08,9.16 C13.8,9.08 13.64,9.04 13.6,9.04 C13.44,9.04 13.26,9.14 13.02,9.3 C12.74,9.46 12.52,9.58 12.36,9.64 C11.68,9.98 11.12,10.58 10.72,11.42 C10.32,12.18 10.14,13 10.14,13.86 C10.14,14.88 10.4,15.72 10.96,16.38 C11.52,17.02 12.22,17.36 13.06,17.36 C14.02,17.36 14.84,16.92 15.5,16 C16.14,15.08 16.48,13.96 16.48,12.6 L16.48,12.6 Z M14.9,12.9 C14.9,13.58 14.7,14.2 14.34,14.78 C13.94,15.38 13.52,15.68 13.04,15.68 C12.64,15.68 12.32,15.5 12.08,15.12 C11.82,14.76 11.7,14.34 11.7,13.86 C11.7,13.22 11.84,12.62 12.16,12.06 C12.52,11.42 12.98,11.08 13.54,11.08 C13.74,11.2 14,11.26 14.32,11.26 C14.7,11.5 14.9,12.06 14.9,12.9 L14.9,12.9 Z M25.26,9.4 C25.24,9.18 25.16,8.96 25,8.76 C24.84,8.56 24.66,8.46 24.46,8.46 C23.92,8.46 23.64,8.76 23.62,9.34 C23.62,9.42 23.62,9.68 23.64,10.1 C23.64,10.56 23.66,10.82 23.66,10.9 C23.66,11.68 23.4,12.4 22.9,13.08 C22.38,13.76 21.8,14.08 21.18,14.08 C20.4,14.08 20.02,13.52 20.02,12.36 C20.02,11.92 20.1,10.92 20.3,9.36 C20.24,8.8 20,8.5 19.6,8.5 C19.04,8.5 18.72,9.04 18.6,10.1 C18.56,10.4 18.54,11.14 18.54,12.34 C18.54,14.46 19.38,15.52 21.08,15.52 C21.56,15.52 22.06,15.4 22.54,15.12 C23.02,14.86 23.4,14.5 23.64,14.06 C23.6,14.86 23.56,15.52 23.52,16.02 C23.44,16.84 23.42,17.42 23.42,17.82 C23.42,18.36 23.64,18.64 24.12,18.64 C24.64,18.64 24.92,18.36 24.94,17.8 C24.96,16.5 25.02,14.58 25.14,12.06 C25.18,10.74 25.22,9.86 25.26,9.4 L25.26,9.4 Z M34.14,10.46 C34.14,10.3 34.06,10.12 33.9,9.94 C33.74,9.78 33.56,9.7 33.4,9.7 C33.24,9.7 32.9,9.82 32.4,10.06 C31.56,10.46 30.5,11.22 29.26,12.3 C29.54,11.14 29.8,10.22 30.08,9.56 C30.24,9.14 30.32,8.88 30.32,8.8 C30.32,8.28 30.06,8.02 29.58,8.02 C29.26,8.02 29.02,8.2 28.86,8.56 C27.88,10.96 27.38,13.6 27.34,16.46 C27.3,16.56 27.3,16.66 27.3,16.76 C27.3,17 27.34,17.22 27.42,17.44 C27.54,17.8 27.82,18 28.22,18 C28.66,18 28.88,17.74 28.88,17.24 C28.88,17.2 28.86,17.08 28.86,16.88 C28.84,16.68 28.84,16.54 28.84,16.42 L28.84,15.68 C28.84,15.4 28.84,15.08 28.88,14.72 C29.02,14.64 29.1,14.6 29.12,14.58 C29.88,15.6 30.86,16.5 32.04,17.28 C32.4,17.54 32.68,17.68 32.88,17.68 C33.36,17.68 33.6,17.42 33.6,16.92 C33.6,16.72 33.42,16.44 33.1,16.12 C32.54,15.62 32.22,15.36 32.1,15.36 C32.06,15.36 32,15.38 31.96,15.38 C31.18,14.76 30.58,14.16 30.18,13.58 C31.14,12.68 31.94,12.04 32.6,11.68 C32.68,11.72 32.76,11.74 32.86,11.74 C33.12,11.74 33.4,11.6 33.68,11.32 C33.98,11.06 34.14,10.78 34.14,10.46 L34.14,10.46 Z M43.04,12.36 C43.04,12.18 42.94,11.98 42.78,11.78 C42.78,11.32 42.7,10.92 42.58,10.56 C42.6,10.48 42.62,10.38 42.62,10.28 C42.62,10.04 42.48,9.8 42.24,9.6 C41.98,9.4 41.72,9.28 41.46,9.28 C40.36,9.28 39.16,9.92 37.84,11.16 C36.46,12.44 35.78,13.68 35.78,14.84 C35.78,15.46 35.98,16 36.42,16.48 C36.84,16.98 37.34,17.22 37.92,17.22 C38.82,17.22 39.82,16.66 40.94,15.54 C41.04,17.06 41.38,17.84 41.96,17.84 C42.16,17.84 42.36,17.76 42.54,17.64 C42.7,17.48 42.8,17.28 42.8,17.08 C42.8,17.02 42.74,16.78 42.66,16.3 C42.56,15.84 42.52,15.48 42.52,15.24 C42.52,14.44 42.64,13.64 42.92,12.8 C43,12.58 43.04,12.44 43.04,12.36 L43.04,12.36 Z M41.22,11.78 C41.22,12.46 40.82,13.26 40.06,14.18 C39.3,15.1 38.6,15.54 38,15.54 C37.58,15.54 37.38,15.3 37.38,14.8 C37.38,14.16 37.88,13.36 38.9,12.38 C39.82,11.5 40.48,11.04 40.86,11.04 C41.1,11.04 41.22,11.3 41.22,11.78 L41.22,11.78 Z M63.14,2.98 C63.14,2.78 63.06,2.58 62.9,2.4 C62.74,2.24 62.54,2.14 62.34,2.14 C61.96,2.14 61.72,2.36 61.62,2.78 C61.48,3.38 61.38,3.84 61.34,4.16 C61.14,5.12 60.94,6.44 60.74,8.12 C59.18,8.68 57.34,9 55.22,9.12 C55.38,7.7 55.62,6.34 55.94,5.06 C56.14,4.14 56.3,3.54 56.42,3.24 C56.76,2.2 56.94,1.6 56.94,1.46 C56.94,0.92 56.66,0.64 56.14,0.64 C55.82,0.64 55.58,0.82 55.4,1.16 C55.34,1.26 55.22,1.56 55.06,2.08 C54.38,4 53.88,6.38 53.58,9.22 C53.42,9.22 53.12,9.2 52.7,9.16 C52.28,9.14 52.04,9.12 51.98,9.12 C51.78,9.12 51.62,9.22 51.5,9.38 C51.36,9.56 51.3,9.74 51.3,9.94 C51.3,10.54 51.74,10.82 52.66,10.82 L53.08,10.82 C53.24,10.82 53.38,10.8 53.46,10.8 C53.22,13.48 53.12,15.62 53.12,17.22 C53.12,17.46 53.18,17.66 53.34,17.86 C53.48,18.06 53.66,18.16 53.88,18.16 C54.1,18.16 54.3,18.04 54.48,17.84 C54.64,17.62 54.72,17.36 54.74,17.08 C54.86,14.44 54.98,12.34 55.1,10.76 C57.1,10.6 58.9,10.3 60.54,9.9 C60.26,12.82 60.14,15.04 60.14,16.58 C60.14,17.66 60.44,18.22 61.06,18.22 C61.26,18.22 61.46,18.14 61.62,17.98 C61.78,17.8 61.86,17.6 61.86,17.38 C61.86,17.3 61.84,17.08 61.84,16.7 C61.82,16.32 61.82,16.04 61.82,15.84 C61.82,12.58 62.2,8.62 62.98,3.98 L63.14,2.98 Z M72.46,12.36 C72.46,12.18 72.36,11.98 72.2,11.78 C72.2,11.32 72.12,10.92 72,10.56 C72.02,10.48 72.04,10.38 72.04,10.28 C72.04,10.04 71.9,9.8 71.66,9.6 C71.4,9.4 71.14,9.28 70.88,9.28 C69.78,9.28 68.58,9.92 67.26,11.16 C65.88,12.44 65.2,13.68 65.2,14.84 C65.2,15.46 65.4,16 65.84,16.48 C66.26,16.98 66.76,17.22 67.34,17.22 C68.24,17.22 69.24,16.66 70.36,15.54 C70.46,17.06 70.8,17.84 71.38,17.84 C71.58,17.84 71.78,17.76 71.96,17.64 C72.12,17.48 72.22,17.28 72.22,17.08 C72.22,17.02 72.16,16.78 72.08,16.3 C71.98,15.84 71.94,15.48 71.94,15.24 C71.94,14.44 72.06,13.64 72.34,12.8 C72.42,12.58 72.46,12.44 72.46,12.36 L72.46,12.36 Z M70.64,11.78 C70.64,12.46 70.24,13.26 69.48,14.18 C68.72,15.1 68.02,15.54 67.42,15.54 C67,15.54 66.8,15.3 66.8,14.8 C66.8,14.16 67.3,13.36 68.32,12.38 C69.24,11.5 69.9,11.04 70.28,11.04 C70.52,11.04 70.64,11.3 70.64,11.78 L70.64,11.78 Z M82.54,8.68 C82.54,8.48 82.46,8.28 82.32,8.1 C82.18,7.94 82.02,7.84 81.84,7.84 C81.54,7.84 81.12,7.92 80.56,8.04 C78.36,8.56 76.4,9.02 74.72,9.42 C74.6,9.46 74.52,9.46 74.48,9.46 C74.08,9.54 73.88,9.84 73.88,10.34 C73.88,10.9 74.1,11.16 74.58,11.16 C75.16,11.04 75.62,10.94 75.94,10.84 C76.52,10.72 77.02,10.6 77.44,10.52 C77.36,12.06 77.32,13.54 77.32,14.94 C77.32,16.3 77.4,17.24 77.56,17.76 C77.68,18.12 77.92,18.3 78.32,18.3 C78.84,18.3 79.1,17.82 79.1,16.88 C79.1,16.42 79,16.08 78.84,15.86 C78.8,15.36 78.78,14.58 78.78,13.5 C78.78,12.66 78.84,11.52 79,10.1 C79.58,9.96 79.98,9.86 80.22,9.82 C80.4,9.94 80.54,9.98 80.64,9.98 C80.76,9.98 80.9,9.96 81.08,9.88 L82,9.46 C82.36,9.3 82.54,9.04 82.54,8.68 L82.54,8.68 Z M91.02,12.36 C91.02,12.18 90.92,11.98 90.76,11.78 C90.76,11.32 90.68,10.92 90.56,10.56 C90.58,10.48 90.6,10.38 90.6,10.28 C90.6,10.04 90.46,9.8 90.22,9.6 C89.96,9.4 89.7,9.28 89.44,9.28 C88.34,9.28 87.14,9.92 85.82,11.16 C84.44,12.44 83.76,13.68 83.76,14.84 C83.76,15.46 83.96,16 84.4,16.48 C84.82,16.98 85.32,17.22 85.9,17.22 C86.8,17.22 87.8,16.66 88.92,15.54 C89.02,17.06 89.36,17.84 89.94,17.84 C90.14,17.84 90.34,17.76 90.52,17.64 C90.68,17.48 90.78,17.28 90.78,17.08 C90.78,17.02 90.72,16.78 90.64,16.3 C90.54,15.84 90.5,15.48 90.5,15.24 C90.5,14.44 90.62,13.64 90.9,12.8 C90.98,12.58 91.02,12.44 91.02,12.36 L91.02,12.36 Z M89.2,11.78 C89.2,12.46 88.8,13.26 88.04,14.18 C87.28,15.1 86.58,15.54 85.98,15.54 C85.56,15.54 85.36,15.3 85.36,14.8 C85.36,14.16 85.86,13.36 86.88,12.38 C87.8,11.5 88.46,11.04 88.84,11.04 C89.08,11.04 89.2,11.3 89.2,11.78 L89.2,11.78 Z M102.02,10.12 C102.02,9.88 101.92,9.6 101.76,9.3 C101.56,9.02 101.34,8.86 101.1,8.86 C100.7,8.86 100.46,9 100.34,9.28 C100.36,9.46 100.38,9.72 100.42,10.08 C100.44,10.48 100.46,10.78 100.46,10.96 C100.46,11.52 100.32,13.22 100.04,16.02 C99.1,16.12 98.44,16.18 98.08,16.18 C98.36,12.16 98.5,10.06 98.5,9.86 C98.5,8.98 98.14,8.52 97.46,8.52 C97.34,8.52 97.2,8.58 97.06,8.68 C96.9,8.8 96.82,8.92 96.82,9.04 C96.82,9.08 96.84,9.22 96.9,9.42 C96.92,9.64 96.94,9.78 96.94,9.84 C96.94,11.76 96.8,13.92 96.54,16.34 C95.46,16.48 94.88,16.54 94.8,16.54 C94.64,16.54 94.54,16.44 94.52,16.2 C94.52,16.08 94.58,15.24 94.66,13.7 C94.76,12.16 94.82,11.3 94.82,11.1 C94.82,10.38 94.74,9.86 94.6,9.54 C94.4,9.04 94.1,8.78 93.74,8.78 C93.58,8.78 93.42,8.86 93.3,9 C93.18,9.12 93.12,9.28 93.12,9.44 C93.22,9.98 93.28,10.5 93.28,10.98 C93.28,12.56 93.2,14.3 93.06,16.18 C93.1,16.9 93.32,17.4 93.72,17.74 C93.98,17.94 94.28,18.06 94.6,18.06 C96.24,17.76 97.74,17.62 99.08,17.62 C99.22,17.62 99.44,17.64 99.74,17.68 C100.02,17.72 100.24,17.76 100.4,17.76 C101.12,17.76 101.48,17.36 101.52,16.6 C101.54,15.8 101.64,14.58 101.8,12.92 C101.94,11.26 102.02,10.32 102.02,10.12 L102.02,10.12 Z M111.34,12.36 C111.34,12.18 111.24,11.98 111.08,11.78 C111.08,11.32 111,10.92 110.88,10.56 C110.9,10.48 110.92,10.38 110.92,10.28 C110.92,10.04 110.78,9.8 110.54,9.6 C110.28,9.4 110.02,9.28 109.76,9.28 C108.66,9.28 107.46,9.92 106.14,11.16 C104.76,12.44 104.08,13.68 104.08,14.84 C104.08,15.46 104.28,16 104.72,16.48 C105.14,16.98 105.64,17.22 106.22,17.22 C107.12,17.22 108.12,16.66 109.24,15.54 C109.34,17.06 109.68,17.84 110.26,17.84 C110.46,17.84 110.66,17.76 110.84,17.64 C111,17.48 111.1,17.28 111.1,17.08 C111.1,17.02 111.04,16.78 110.96,16.3 C110.86,15.84 110.82,15.48 110.82,15.24 C110.82,14.44 110.94,13.64 111.22,12.8 C111.3,12.58 111.34,12.44 111.34,12.36 L111.34,12.36 Z M109.52,11.78 C109.52,12.46 109.12,13.26 108.36,14.18 C107.6,15.1 106.9,15.54 106.3,15.54 C105.88,15.54 105.68,15.3 105.68,14.8 C105.68,14.16 106.18,13.36 107.2,12.38 C108.12,11.5 108.78,11.04 109.16,11.04 C109.4,11.04 109.52,11.3 109.52,11.78 L109.52,11.78 Z" id="почка-Наташа" fill="#354777"></path>
            </g>
        </g>
    </g>
</svg>