<?xml version="1.0" encoding="UTF-8"?>
<svg width="190px" height="16px" viewBox="0 0 190 16" version="1.1" xmlns="http://www.w3.org/2000/svg" xmlns:xlink="http://www.w3.org/1999/xlink">
    <!-- Generator: Sketch 40.3 (33839) - http://www.bohemiancoding.com/sketch -->
    <title>травы золототысячник</title>
    <desc>Created with Sketch.</desc>
    <defs></defs>
    <g id="Page-1" stroke="none" stroke-width="1" fill="none" fill-rule="evenodd">
        <g id="Desktop" transform="translate(-2168.000000, -569.000000)" fill="#354777">
            <path d="M2177.06,571.68 C2177.06,571.48 2176.98,571.28 2176.84,571.1 C2176.7,570.94 2176.54,570.84 2176.36,570.84 C2176.06,570.84 2175.64,570.92 2175.08,571.04 C2172.88,571.56 2170.92,572.02 2169.24,572.42 C2169.12,572.46 2169.04,572.46 2169,572.46 C2168.6,572.54 2168.4,572.84 2168.4,573.34 C2168.4,573.9 2168.62,574.16 2169.1,574.16 C2169.68,574.04 2170.14,573.94 2170.46,573.84 C2171.04,573.72 2171.54,573.6 2171.96,573.52 C2171.88,575.06 2171.84,576.54 2171.84,577.94 C2171.84,579.3 2171.92,580.24 2172.08,580.76 C2172.2,581.12 2172.44,581.3 2172.84,581.3 C2173.36,581.3 2173.62,580.82 2173.62,579.88 C2173.62,579.42 2173.52,579.08 2173.36,578.86 C2173.32,578.36 2173.3,577.58 2173.3,576.5 C2173.3,575.66 2173.36,574.52 2173.52,573.1 C2174.1,572.96 2174.5,572.86 2174.74,572.82 C2174.92,572.94 2175.06,572.98 2175.16,572.98 C2175.28,572.98 2175.42,572.96 2175.6,572.88 L2176.52,572.46 C2176.88,572.3 2177.06,572.04 2177.06,571.68 L2177.06,571.68 Z M2185.52,573.08 C2185.52,572.12 2185.3,571.32 2184.86,570.68 C2184.38,569.98 2183.68,569.62 2182.8,569.62 C2181.54,569.62 2180.56,570.5 2179.86,572.26 C2179.38,573.48 2179.14,574.88 2179.14,576.44 C2179.14,576.64 2179.14,576.8 2179.16,576.9 C2178.6,577.1 2178.34,577.4 2178.34,577.82 C2178.34,578.34 2178.6,578.62 2179.16,578.66 C2179.2,578.98 2179.22,579.46 2179.22,580.1 C2179.22,581.38 2179.14,582.28 2179.02,582.84 C2178.88,583.38 2178.82,583.68 2178.82,583.74 C2178.82,583.96 2178.9,584.16 2179.06,584.34 C2179.22,584.5 2179.42,584.6 2179.64,584.6 C2180.06,584.6 2180.36,584.18 2180.54,583.36 C2180.74,582.44 2180.84,581.5 2180.84,580.58 C2180.84,579.74 2180.8,578.92 2180.74,578.12 C2183.92,576.96 2185.52,575.28 2185.52,573.08 L2185.52,573.08 Z M2183.92,572.74 C2183.92,574.38 2182.86,575.58 2180.76,576.34 C2180.76,575.26 2180.94,574.16 2181.32,573.08 C2181.74,571.9 2182.24,571.3 2182.8,571.3 C2183.14,571.3 2183.42,571.46 2183.64,571.74 C2183.82,572.02 2183.92,572.36 2183.92,572.74 L2183.92,572.74 Z M2194.76,575.36 C2194.76,575.18 2194.66,574.98 2194.5,574.78 C2194.5,574.32 2194.42,573.92 2194.3,573.56 C2194.32,573.48 2194.34,573.38 2194.34,573.28 C2194.34,573.04 2194.2,572.8 2193.96,572.6 C2193.7,572.4 2193.44,572.28 2193.18,572.28 C2192.08,572.28 2190.88,572.92 2189.56,574.16 C2188.18,575.44 2187.5,576.68 2187.5,577.84 C2187.5,578.46 2187.7,579 2188.14,579.48 C2188.56,579.98 2189.06,580.22 2189.64,580.22 C2190.54,580.22 2191.54,579.66 2192.66,578.54 C2192.76,580.06 2193.1,580.84 2193.68,580.84 C2193.88,580.84 2194.08,580.76 2194.26,580.64 C2194.42,580.48 2194.52,580.28 2194.52,580.08 C2194.52,580.02 2194.46,579.78 2194.38,579.3 C2194.28,578.84 2194.24,578.48 2194.24,578.24 C2194.24,577.44 2194.36,576.64 2194.64,575.8 C2194.72,575.58 2194.76,575.44 2194.76,575.36 L2194.76,575.36 Z M2192.94,574.78 C2192.94,575.46 2192.54,576.26 2191.78,577.18 C2191.02,578.1 2190.32,578.54 2189.72,578.54 C2189.3,578.54 2189.1,578.3 2189.1,577.8 C2189.1,577.16 2189.6,576.36 2190.62,575.38 C2191.54,574.5 2192.2,574.04 2192.58,574.04 C2192.82,574.04 2192.94,574.3 2192.94,574.78 L2192.94,574.78 Z M2204.76,577.78 C2204.76,576.64 2203.54,576.02 2201.14,575.92 C2202.98,575.1 2203.9,574.22 2203.9,573.26 C2203.9,572.64 2203.58,572.16 2202.96,571.82 C2202.46,571.58 2201.86,571.44 2201.16,571.44 C2200.18,571.44 2199.02,571.5 2197.68,571.62 C2197.08,571.7 2196.8,571.94 2196.8,572.38 C2196.8,572.86 2197.06,573.08 2197.62,573.08 C2197.72,573.08 2197.88,573.06 2198.1,573.02 C2198.06,577.44 2198.04,579.72 2198.04,579.84 C2197.34,579.92 2197,580.2 2197,580.72 C2197,581.08 2197.24,581.28 2197.76,581.34 C2198.18,581.32 2198.8,581.22 2199.62,581.04 C2201.14,580.68 2202.26,580.32 2202.94,580 C2204.14,579.44 2204.76,578.7 2204.76,577.78 L2204.76,577.78 Z M2202.36,573.44 C2202.36,574.02 2201.42,574.64 2199.54,575.3 L2199.58,572.98 C2200.32,572.92 2200.86,572.88 2201.18,572.88 C2201.96,572.88 2202.36,573.08 2202.36,573.44 L2202.36,573.44 Z M2203.26,577.98 C2203.26,578.28 2202.92,578.58 2202.24,578.86 C2201.56,579.14 2200.64,579.36 2199.5,579.5 L2199.5,576.98 C2200.82,577.02 2201.74,577.12 2202.3,577.24 C2202.94,577.4 2203.26,577.64 2203.26,577.98 L2203.26,577.98 Z M2216.34,572.04 C2216.34,571.84 2216.28,571.66 2216.16,571.48 C2216,571.3 2215.82,571.2 2215.6,571.2 C2215.22,571.2 2214.9,571.54 2214.64,572.18 C2214.38,572.86 2214.26,573.34 2214.26,573.62 C2214.26,573.8 2214.36,573.98 2214.56,574.16 L2214.2,576.94 C2213.96,578.6 2213.86,579.6 2213.86,579.96 C2213.86,580.8 2214.16,581.24 2214.78,581.24 C2215,581.24 2215.18,581.14 2215.32,580.98 C2215.48,580.8 2215.56,580.6 2215.56,580.38 C2215.56,580.14 2215.5,579.96 2215.4,579.82 C2215.42,579.02 2215.5,578.2 2215.62,577.38 C2215.74,576.56 2215.88,575.74 2216,574.9 C2216.22,573.42 2216.34,572.46 2216.34,572.04 L2216.34,572.04 Z M2212.86,577.58 C2212.86,576.76 2212.58,576.1 2212.04,575.6 C2211.54,575.14 2210.9,574.9 2210.1,574.9 C2209.66,574.9 2209.22,575.02 2208.78,575.26 C2208.86,574.52 2208.92,573.86 2208.98,573.3 C2209.08,572.66 2209.14,572.16 2209.18,571.8 C2209.1,571.22 2208.86,570.92 2208.42,570.92 C2207.9,570.92 2207.62,571.32 2207.56,572.1 C2207.24,575.26 2207,577.94 2206.8,580.14 C2206.82,580.84 2207.08,581.2 2207.6,581.2 C2207.92,581.2 2208.14,581.06 2208.26,580.8 C2208.48,580.86 2208.68,580.9 2208.88,580.9 C2209.76,580.9 2210.62,580.58 2211.46,579.96 C2212.38,579.28 2212.86,578.5 2212.86,577.58 L2212.86,577.58 Z M2211.34,577.34 C2211.34,577.94 2211.02,578.48 2210.42,578.94 C2209.86,579.38 2209.32,579.6 2208.8,579.6 C2208.72,579.6 2208.58,579.58 2208.42,579.54 L2208.6,577.24 C2208.96,576.64 2209.44,576.32 2210.06,576.32 C2210.38,576.32 2210.66,576.42 2210.94,576.62 C2211.2,576.82 2211.34,577.06 2211.34,577.34 L2211.34,577.34 Z M2231.5,577.68 C2231.5,576.48 2230.9,575.68 2229.72,575.32 C2230.58,574.84 2231.02,574.24 2231.02,573.5 C2231.02,572.26 2230.04,571.64 2228.12,571.64 C2226.46,571.64 2225.64,572 2225.64,572.72 C2225.64,573.24 2225.88,573.5 2226.36,573.52 C2226.48,573.5 2226.78,573.4 2227.26,573.2 C2227.58,573.08 2227.88,573 2228.12,573 C2229.04,573 2229.5,573.22 2229.5,573.66 C2229.5,573.94 2229.26,574.24 2228.78,574.52 C2228.34,574.76 2227.84,574.94 2227.26,575.06 C2226.54,575.22 2226.16,575.3 2226.1,575.32 C2225.86,575.42 2225.76,575.62 2225.76,575.9 C2225.76,576.1 2225.82,576.32 2225.98,576.52 C2226.12,576.74 2226.3,576.84 2226.5,576.84 C2226.6,576.84 2226.74,576.8 2226.92,576.68 C2227.28,576.48 2227.7,576.36 2228.16,576.36 C2228.62,576.36 2229.02,576.44 2229.38,576.6 C2229.82,576.8 2230.04,577.1 2230.04,577.5 C2230.04,577.98 2229.66,578.46 2228.94,578.92 C2228.26,579.38 2227.68,579.6 2227.2,579.6 C2226.64,579.6 2226.38,579.52 2226.38,579.36 C2226.38,579.28 2226.4,579.16 2226.46,579.04 C2226.5,578.9 2226.52,578.8 2226.52,578.76 C2226.52,578.4 2226.28,578.22 2225.82,578.22 C2225.66,578.22 2225.48,578.36 2225.3,578.6 C2225.1,578.88 2225.02,579.12 2225.02,579.32 C2225.02,579.6 2225.12,579.9 2225.36,580.22 C2225.72,580.74 2226.38,581 2227.32,581 C2228.24,581 2229.16,580.66 2230.06,580.02 C2231.02,579.34 2231.5,578.56 2231.5,577.68 L2231.5,577.68 Z M2239.68,575.6 C2239.68,574.82 2239.46,574.1 2239.02,573.46 C2238.56,572.84 2237.98,572.4 2237.28,572.16 C2237,572.08 2236.84,572.04 2236.8,572.04 C2236.64,572.04 2236.46,572.14 2236.22,572.3 C2235.94,572.46 2235.72,572.58 2235.56,572.64 C2234.88,572.98 2234.32,573.58 2233.92,574.42 C2233.52,575.18 2233.34,576 2233.34,576.86 C2233.34,577.88 2233.6,578.72 2234.16,579.38 C2234.72,580.02 2235.42,580.36 2236.26,580.36 C2237.22,580.36 2238.04,579.92 2238.7,579 C2239.34,578.08 2239.68,576.96 2239.68,575.6 L2239.68,575.6 Z M2238.1,575.9 C2238.1,576.58 2237.9,577.2 2237.54,577.78 C2237.14,578.38 2236.72,578.68 2236.24,578.68 C2235.84,578.68 2235.52,578.5 2235.28,578.12 C2235.02,577.76 2234.9,577.34 2234.9,576.86 C2234.9,576.22 2235.04,575.62 2235.36,575.06 C2235.72,574.42 2236.18,574.08 2236.74,574.08 C2236.94,574.2 2237.2,574.26 2237.52,574.26 C2237.9,574.5 2238.1,575.06 2238.1,575.9 L2238.1,575.9 Z M2249.82,572.92 C2249.82,572.62 2249.72,572.36 2249.52,572.12 C2249.34,571.9 2249.12,571.78 2248.84,571.78 C2248.72,571.78 2248.48,571.9 2248.12,572.1 C2247.76,572.32 2246.88,572.5 2245.46,572.66 C2245.14,572.4 2244.88,572.26 2244.7,572.26 C2244.48,572.26 2244.24,572.38 2244,572.62 C2243.76,572.86 2243.64,573.12 2243.64,573.36 C2243.64,573.52 2243.72,573.72 2243.88,573.94 C2244.02,574.18 2244.1,574.44 2244.1,574.74 C2244.1,575.98 2244,577 2243.8,577.84 C2243.54,578.82 2243.2,579.3 2242.8,579.3 C2242.64,579.3 2242.52,579.06 2242.48,578.54 C2242.44,578.34 2242.36,578.22 2242.2,578.22 C2241.92,578.22 2241.72,578.36 2241.58,578.6 C2241.4,578.88 2241.32,579.2 2241.32,579.54 C2241.32,579.92 2241.46,580.2 2241.76,580.42 C2242.04,580.62 2242.36,580.74 2242.72,580.74 C2243.76,580.74 2244.5,580.06 2244.94,578.74 C2245.22,577.9 2245.46,576.38 2245.66,574.18 C2246.16,574.06 2246.92,573.9 2247.96,573.72 C2247.76,575.68 2247.66,577.16 2247.66,578.16 C2247.66,579.48 2247.74,580.3 2247.92,580.64 C2248.1,580.98 2248.36,581.16 2248.68,581.16 C2249.2,581.16 2249.46,580.84 2249.46,580.24 C2249.38,579.88 2249.34,579.56 2249.3,579.28 C2249.2,578.6 2249.16,578.02 2249.16,577.52 C2249.16,576.44 2249.32,575.18 2249.66,573.74 C2249.76,573.26 2249.82,573 2249.82,572.92 L2249.82,572.92 Z M2258.2,575.6 C2258.2,574.82 2257.98,574.1 2257.54,573.46 C2257.08,572.84 2256.5,572.4 2255.8,572.16 C2255.52,572.08 2255.36,572.04 2255.32,572.04 C2255.16,572.04 2254.98,572.14 2254.74,572.3 C2254.46,572.46 2254.24,572.58 2254.08,572.64 C2253.4,572.98 2252.84,573.58 2252.44,574.42 C2252.04,575.18 2251.86,576 2251.86,576.86 C2251.86,577.88 2252.12,578.72 2252.68,579.38 C2253.24,580.02 2253.94,580.36 2254.78,580.36 C2255.74,580.36 2256.56,579.92 2257.22,579 C2257.86,578.08 2258.2,576.96 2258.2,575.6 L2258.2,575.6 Z M2256.62,575.9 C2256.62,576.58 2256.42,577.2 2256.06,577.78 C2255.66,578.38 2255.24,578.68 2254.76,578.68 C2254.36,578.68 2254.04,578.5 2253.8,578.12 C2253.54,577.76 2253.42,577.34 2253.42,576.86 C2253.42,576.22 2253.56,575.62 2253.88,575.06 C2254.24,574.42 2254.7,574.08 2255.26,574.08 C2255.46,574.2 2255.72,574.26 2256.04,574.26 C2256.42,574.5 2256.62,575.06 2256.62,575.9 L2256.62,575.9 Z M2268.3,571.68 C2268.3,571.48 2268.22,571.28 2268.08,571.1 C2267.94,570.94 2267.78,570.84 2267.6,570.84 C2267.3,570.84 2266.88,570.92 2266.32,571.04 C2264.12,571.56 2262.16,572.02 2260.48,572.42 C2260.36,572.46 2260.28,572.46 2260.24,572.46 C2259.84,572.54 2259.64,572.84 2259.64,573.34 C2259.64,573.9 2259.86,574.16 2260.34,574.16 C2260.92,574.04 2261.38,573.94 2261.7,573.84 C2262.28,573.72 2262.78,573.6 2263.2,573.52 C2263.12,575.06 2263.08,576.54 2263.08,577.94 C2263.08,579.3 2263.16,580.24 2263.32,580.76 C2263.44,581.12 2263.68,581.3 2264.08,581.3 C2264.6,581.3 2264.86,580.82 2264.86,579.88 C2264.86,579.42 2264.76,579.08 2264.6,578.86 C2264.56,578.36 2264.54,577.58 2264.54,576.5 C2264.54,575.66 2264.6,574.52 2264.76,573.1 C2265.34,572.96 2265.74,572.86 2265.98,572.82 C2266.16,572.94 2266.3,572.98 2266.4,572.98 C2266.52,572.98 2266.66,572.96 2266.84,572.88 L2267.76,572.46 C2268.12,572.3 2268.3,572.04 2268.3,571.68 L2268.3,571.68 Z M2275.86,575.6 C2275.86,574.82 2275.64,574.1 2275.2,573.46 C2274.74,572.84 2274.16,572.4 2273.46,572.16 C2273.18,572.08 2273.02,572.04 2272.98,572.04 C2272.82,572.04 2272.64,572.14 2272.4,572.3 C2272.12,572.46 2271.9,572.58 2271.74,572.64 C2271.06,572.98 2270.5,573.58 2270.1,574.42 C2269.7,575.18 2269.52,576 2269.52,576.86 C2269.52,577.88 2269.78,578.72 2270.34,579.38 C2270.9,580.02 2271.6,580.36 2272.44,580.36 C2273.4,580.36 2274.22,579.92 2274.88,579 C2275.52,578.08 2275.86,576.96 2275.86,575.6 L2275.86,575.6 Z M2274.28,575.9 C2274.28,576.58 2274.08,577.2 2273.72,577.78 C2273.32,578.38 2272.9,578.68 2272.42,578.68 C2272.02,578.68 2271.7,578.5 2271.46,578.12 C2271.2,577.76 2271.08,577.34 2271.08,576.86 C2271.08,576.22 2271.22,575.62 2271.54,575.06 C2271.9,574.42 2272.36,574.08 2272.92,574.08 C2273.12,574.2 2273.38,574.26 2273.7,574.26 C2274.08,574.5 2274.28,575.06 2274.28,575.9 L2274.28,575.9 Z M2285.96,571.68 C2285.96,571.48 2285.88,571.28 2285.74,571.1 C2285.6,570.94 2285.44,570.84 2285.26,570.84 C2284.96,570.84 2284.54,570.92 2283.98,571.04 C2281.78,571.56 2279.82,572.02 2278.14,572.42 C2278.02,572.46 2277.94,572.46 2277.9,572.46 C2277.5,572.54 2277.3,572.84 2277.3,573.34 C2277.3,573.9 2277.52,574.16 2278,574.16 C2278.58,574.04 2279.04,573.94 2279.36,573.84 C2279.94,573.72 2280.44,573.6 2280.86,573.52 C2280.78,575.06 2280.74,576.54 2280.74,577.94 C2280.74,579.3 2280.82,580.24 2280.98,580.76 C2281.1,581.12 2281.34,581.3 2281.74,581.3 C2282.26,581.3 2282.52,580.82 2282.52,579.88 C2282.52,579.42 2282.42,579.08 2282.26,578.86 C2282.22,578.36 2282.2,577.58 2282.2,576.5 C2282.2,575.66 2282.26,574.52 2282.42,573.1 C2283,572.96 2283.4,572.86 2283.64,572.82 C2283.82,572.94 2283.96,572.98 2284.06,572.98 C2284.18,572.98 2284.32,572.96 2284.5,572.88 L2285.42,572.46 C2285.78,572.3 2285.96,572.04 2285.96,571.68 L2285.96,571.68 Z M2296.72,572.04 C2296.72,571.84 2296.66,571.66 2296.54,571.48 C2296.38,571.3 2296.2,571.2 2295.98,571.2 C2295.6,571.2 2295.28,571.54 2295.02,572.18 C2294.76,572.86 2294.64,573.34 2294.64,573.62 C2294.64,573.8 2294.74,573.98 2294.94,574.16 L2294.58,576.94 C2294.34,578.6 2294.24,579.6 2294.24,579.96 C2294.24,580.8 2294.54,581.24 2295.16,581.24 C2295.38,581.24 2295.56,581.14 2295.7,580.98 C2295.86,580.8 2295.94,580.6 2295.94,580.38 C2295.94,580.14 2295.88,579.96 2295.78,579.82 C2295.8,579.02 2295.88,578.2 2296,577.38 C2296.12,576.56 2296.26,575.74 2296.38,574.9 C2296.6,573.42 2296.72,572.46 2296.72,572.04 L2296.72,572.04 Z M2293.24,577.58 C2293.24,576.76 2292.96,576.1 2292.42,575.6 C2291.92,575.14 2291.28,574.9 2290.48,574.9 C2290.04,574.9 2289.6,575.02 2289.16,575.26 C2289.24,574.52 2289.3,573.86 2289.36,573.3 C2289.46,572.66 2289.52,572.16 2289.56,571.8 C2289.48,571.22 2289.24,570.92 2288.8,570.92 C2288.28,570.92 2288,571.32 2287.94,572.1 C2287.62,575.26 2287.38,577.94 2287.18,580.14 C2287.2,580.84 2287.46,581.2 2287.98,581.2 C2288.3,581.2 2288.52,581.06 2288.64,580.8 C2288.86,580.86 2289.06,580.9 2289.26,580.9 C2290.14,580.9 2291,580.58 2291.84,579.96 C2292.76,579.28 2293.24,578.5 2293.24,577.58 L2293.24,577.58 Z M2291.72,577.34 C2291.72,577.94 2291.4,578.48 2290.8,578.94 C2290.24,579.38 2289.7,579.6 2289.18,579.6 C2289.1,579.6 2288.96,579.58 2288.8,579.54 L2288.98,577.24 C2289.34,576.64 2289.82,576.32 2290.44,576.32 C2290.76,576.32 2291.04,576.42 2291.32,576.62 C2291.58,576.82 2291.72,577.06 2291.72,577.34 L2291.72,577.34 Z M2304.94,578.16 C2304.94,577.96 2304.86,577.76 2304.7,577.56 C2304.54,577.4 2304.36,577.3 2304.16,577.3 C2304,577.3 2303.76,577.44 2303.48,577.7 C2303.24,577.9 2303,578.1 2302.8,578.3 C2302.46,578.56 2302.04,578.68 2301.54,578.68 C2300.74,578.68 2300.36,578.2 2300.36,577.2 C2300.36,576.58 2300.54,575.96 2300.9,575.36 C2301.26,574.76 2301.7,574.26 2302.24,573.9 C2302.48,574.04 2302.84,574.1 2303.34,574.1 C2303.6,574.1 2303.86,574 2304.12,573.76 C2304.34,573.52 2304.46,573.3 2304.46,573.06 C2304.46,572.74 2304.34,572.5 2304.1,572.3 C2303.84,572.12 2303.56,572.02 2303.26,572.02 C2302,572.02 2300.88,572.68 2299.92,573.98 C2299.14,575.02 2298.76,576.16 2298.76,577.4 C2298.76,578.28 2299.04,578.98 2299.6,579.54 C2300.16,580.08 2300.86,580.36 2301.7,580.36 C2302.46,580.36 2303.24,580.06 2304,579.46 C2304.62,578.98 2304.94,578.56 2304.94,578.16 L2304.94,578.16 Z M2313.24,574.46 C2313.24,573.86 2313.02,573.54 2312.6,573.54 C2312.24,573.54 2311.98,573.74 2311.86,574.14 C2311.5,575.3 2310.66,575.86 2309.38,575.86 C2308.56,575.86 2308.16,575.68 2308.16,575.32 C2308.16,574.9 2308.62,574.4 2309.54,573.84 C2310.38,573.36 2311.04,573.12 2311.56,573.12 C2311.68,573.12 2311.76,573.14 2311.82,573.16 C2311.94,573.3 2312.06,573.36 2312.2,573.36 C2312.36,573.36 2312.54,573.28 2312.72,573.12 C2312.88,572.96 2312.96,572.78 2312.96,572.58 C2312.96,572.02 2312.56,571.72 2311.8,571.72 C2310.82,571.72 2309.78,572.06 2308.66,572.74 C2307.36,573.54 2306.72,574.42 2306.72,575.38 C2306.72,576 2306.96,576.48 2307.46,576.8 C2307.82,577.08 2308.32,577.2 2308.94,577.2 L2309.12,577.2 L2307.78,578.32 L2307.66,578.14 C2307.44,578.38 2307.26,578.58 2307.14,578.7 C2306.94,578.78 2306.76,578.94 2306.62,579.16 C2306.44,579.4 2306.36,579.62 2306.36,579.84 C2306.36,580.04 2306.44,580.22 2306.62,580.42 C2306.78,580.58 2306.98,580.68 2307.18,580.68 C2307.38,580.68 2307.68,580.48 2308.08,580.1 C2309.5,578.8 2310.6,577.82 2311.36,577.16 C2311.14,578.8 2311.04,579.72 2311.04,579.92 C2311.04,580.58 2311.3,580.92 2311.82,580.92 C2312.26,580.92 2312.52,580.64 2312.56,580.12 C2312.84,577.6 2313.06,575.72 2313.24,574.46 L2313.24,574.46 Z M2322.02,572.4 C2322,572.18 2321.92,571.96 2321.76,571.76 C2321.6,571.56 2321.42,571.46 2321.22,571.46 C2320.68,571.46 2320.4,571.76 2320.38,572.34 C2320.38,572.42 2320.38,572.68 2320.4,573.1 C2320.4,573.56 2320.42,573.82 2320.42,573.9 C2320.42,574.68 2320.16,575.4 2319.66,576.08 C2319.14,576.76 2318.56,577.08 2317.94,577.08 C2317.16,577.08 2316.78,576.52 2316.78,575.36 C2316.78,574.92 2316.86,573.92 2317.06,572.36 C2317,571.8 2316.76,571.5 2316.36,571.5 C2315.8,571.5 2315.48,572.04 2315.36,573.1 C2315.32,573.4 2315.3,574.14 2315.3,575.34 C2315.3,577.46 2316.14,578.52 2317.84,578.52 C2318.32,578.52 2318.82,578.4 2319.3,578.12 C2319.78,577.86 2320.16,577.5 2320.4,577.06 C2320.36,577.86 2320.32,578.52 2320.28,579.02 C2320.2,579.84 2320.18,580.42 2320.18,580.82 C2320.18,581.36 2320.4,581.64 2320.88,581.64 C2321.4,581.64 2321.68,581.36 2321.7,580.8 C2321.72,579.5 2321.78,577.58 2321.9,575.06 C2321.94,573.74 2321.98,572.86 2322.02,572.4 L2322.02,572.4 Z M2330.72,572.6 C2330.72,572.08 2330.48,571.82 2330,571.82 C2329.6,571.82 2329.34,572.18 2329.24,572.86 C2329.14,573.4 2329.02,574.16 2328.9,575.14 C2328.02,575.36 2327.16,575.52 2326.32,575.6 C2326.52,574.32 2326.72,573.36 2326.92,572.7 C2327.04,572.34 2327.14,572.06 2327.24,571.82 C2327.2,571.28 2326.96,571 2326.48,571 C2326.14,571 2325.92,571.16 2325.8,571.48 C2325.4,572.44 2325.08,573.82 2324.88,575.62 C2324.56,575.62 2324.34,575.6 2324.22,575.58 C2323.82,575.58 2323.64,575.82 2323.64,576.26 C2323.64,576.76 2323.92,577 2324.5,577 L2324.74,577 C2324.68,577.76 2324.62,578.62 2324.58,579.62 C2324.58,579.68 2324.56,579.78 2324.54,579.9 C2324.5,580.02 2324.5,580.1 2324.5,580.18 C2324.5,580.38 2324.58,580.56 2324.74,580.72 C2324.9,580.88 2325.08,580.96 2325.28,580.96 C2325.76,580.96 2326.02,580.7 2326.04,580.2 C2326.04,579.52 2326.1,578.44 2326.2,576.96 C2327.06,576.88 2327.9,576.74 2328.74,576.54 C2328.64,577.6 2328.58,578.44 2328.58,579.04 C2328.58,579.1 2328.56,579.18 2328.54,579.3 C2328.5,579.4 2328.48,579.48 2328.48,579.54 C2328.48,580.02 2328.54,580.38 2328.7,580.62 C2328.86,580.88 2329.04,581.02 2329.28,581.02 C2329.48,581.02 2329.66,580.94 2329.82,580.78 C2329.96,580.62 2330.04,580.42 2330.04,580.2 C2330.04,580.16 2330.02,580.06 2330.02,579.86 C2330,579.66 2330,579.5 2330,579.42 C2330,578.08 2330.2,576.02 2330.64,573.24 C2330.68,572.88 2330.72,572.68 2330.72,572.6 L2330.72,572.6 Z M2340.18,580.12 C2340.18,579.98 2340.08,579.8 2339.9,579.6 C2339.46,579.12 2339.26,577.9 2339.26,575.94 C2339.26,575.24 2339.36,574.06 2339.58,572.4 C2339.58,572.18 2339.48,571.98 2339.32,571.78 C2339.14,571.6 2338.94,571.5 2338.72,571.5 C2338.38,571.5 2337.66,572.24 2336.58,573.72 C2335.7,574.88 2334.98,575.94 2334.38,576.86 C2334.52,575.3 2334.62,574.16 2334.68,573.48 C2334.68,573.16 2334.56,572.88 2334.36,572.64 C2334.16,572.42 2333.9,572.3 2333.58,572.3 C2333.4,572.3 2333.24,572.42 2333.08,572.64 C2333.12,573.22 2333.16,573.56 2333.16,573.64 C2333.16,574 2333.1,574.9 2333,576.36 L2332.96,576.94 C2332.94,577.24 2332.9,577.64 2332.86,578.14 C2332.8,578.62 2332.76,578.92 2332.76,579.04 C2332.78,579.32 2332.86,579.54 2333.02,579.66 C2333.34,579.98 2333.54,580.12 2333.62,580.12 C2333.9,580.12 2334.24,579.82 2334.6,579.18 C2335.34,577.94 2335.86,577.06 2336.18,576.58 C2336.7,575.72 2337.26,574.92 2337.88,574.2 C2337.88,574.4 2337.86,574.82 2337.86,575.44 C2337.84,576.08 2337.84,576.42 2337.84,576.5 C2337.84,577.54 2337.94,578.42 2338.16,579.18 C2338.46,580.28 2338.9,580.84 2339.46,580.84 C2339.58,580.84 2339.74,580.74 2339.92,580.58 C2340.08,580.38 2340.18,580.24 2340.18,580.12 L2340.18,580.12 Z M2349.06,573.46 C2349.06,573.3 2348.98,573.12 2348.82,572.94 C2348.66,572.78 2348.48,572.7 2348.32,572.7 C2348.16,572.7 2347.82,572.82 2347.32,573.06 C2346.48,573.46 2345.42,574.22 2344.18,575.3 C2344.46,574.14 2344.72,573.22 2345,572.56 C2345.16,572.14 2345.24,571.88 2345.24,571.8 C2345.24,571.28 2344.98,571.02 2344.5,571.02 C2344.18,571.02 2343.94,571.2 2343.78,571.56 C2342.8,573.96 2342.3,576.6 2342.26,579.46 C2342.22,579.56 2342.22,579.66 2342.22,579.76 C2342.22,580 2342.26,580.22 2342.34,580.44 C2342.46,580.8 2342.74,581 2343.14,581 C2343.58,581 2343.8,580.74 2343.8,580.24 C2343.8,580.2 2343.78,580.08 2343.78,579.88 C2343.76,579.68 2343.76,579.54 2343.76,579.42 L2343.76,578.68 C2343.76,578.4 2343.76,578.08 2343.8,577.72 C2343.94,577.64 2344.02,577.6 2344.04,577.58 C2344.8,578.6 2345.78,579.5 2346.96,580.28 C2347.32,580.54 2347.6,580.68 2347.8,580.68 C2348.28,580.68 2348.52,580.42 2348.52,579.92 C2348.52,579.72 2348.34,579.44 2348.02,579.12 C2347.46,578.62 2347.14,578.36 2347.02,578.36 C2346.98,578.36 2346.92,578.38 2346.88,578.38 C2346.1,577.76 2345.5,577.16 2345.1,576.58 C2346.06,575.68 2346.86,575.04 2347.52,574.68 C2347.6,574.72 2347.68,574.74 2347.78,574.74 C2348.04,574.74 2348.32,574.6 2348.6,574.32 C2348.9,574.06 2349.06,573.78 2349.06,573.46 L2349.06,573.46 Z M2357.96,575.36 C2357.96,575.18 2357.86,574.98 2357.7,574.78 C2357.7,574.32 2357.62,573.92 2357.5,573.56 C2357.52,573.48 2357.54,573.38 2357.54,573.28 C2357.54,573.04 2357.4,572.8 2357.16,572.6 C2356.9,572.4 2356.64,572.28 2356.38,572.28 C2355.28,572.28 2354.08,572.92 2352.76,574.16 C2351.38,575.44 2350.7,576.68 2350.7,577.84 C2350.7,578.46 2350.9,579 2351.34,579.48 C2351.76,579.98 2352.26,580.22 2352.84,580.22 C2353.74,580.22 2354.74,579.66 2355.86,578.54 C2355.96,580.06 2356.3,580.84 2356.88,580.84 C2357.08,580.84 2357.28,580.76 2357.46,580.64 C2357.62,580.48 2357.72,580.28 2357.72,580.08 C2357.72,580.02 2357.66,579.78 2357.58,579.3 C2357.48,578.84 2357.44,578.48 2357.44,578.24 C2357.44,577.44 2357.56,576.64 2357.84,575.8 C2357.92,575.58 2357.96,575.44 2357.96,575.36 L2357.96,575.36 Z M2356.14,574.78 C2356.14,575.46 2355.74,576.26 2354.98,577.18 C2354.22,578.1 2353.52,578.54 2352.92,578.54 C2352.5,578.54 2352.3,578.3 2352.3,577.8 C2352.3,577.16 2352.8,576.36 2353.82,575.38 C2354.74,574.5 2355.4,574.04 2355.78,574.04 C2356.02,574.04 2356.14,574.3 2356.14,574.78 L2356.14,574.78 Z" id="травы-золототысячник"></path>
        </g>
    </g>
</svg>