<?xml version="1.0" encoding="UTF-8"?>
<svg width="672px" height="36px" viewBox="0 0 672 36" version="1.1" xmlns="http://www.w3.org/2000/svg" xmlns:xlink="http://www.w3.org/1999/xlink">
    <!-- Generator: Sketch 40.3 (33839) - http://www.bohemiancoding.com/sketch -->
    <title>В эффективном лечени</title>
    <desc>Created with Sketch.</desc>
    <defs></defs>
    <g id="Page-1" stroke="none" stroke-width="1" fill="none" fill-rule="evenodd">
        <g id="Cictitis_page" transform="translate(-2773.000000, -121.000000)" fill="#354777">
            <g id="Group-5" transform="translate(2750.000000, 130.000000)">
                <path d="M43.242,9.754 C43.242,7.854 42.026,6.486 39.594,5.65 C38.226,5.232 35.908,4.89 32.678,4.624 C35.262,3.218 37.124,2.04 38.264,1.052 C40.088,-0.468 41.038,-1.988 41.038,-3.508 C41.038,-5.18 40.278,-6.434 38.796,-7.27 C37.618,-7.878 36.136,-8.22 34.35,-8.22 C31.994,-8.22 28.916,-8.03 25.116,-7.726 C24.394,-7.65 23.938,-7.536 23.71,-7.384 C23.33,-7.156 23.14,-6.738 23.14,-6.054 C23.14,-4.99 23.71,-4.496 24.926,-4.496 C25.002,-4.496 25.534,-4.534 26.522,-4.648 C26.522,-4.572 26.484,-3.546 26.446,-1.494 C26.37,0.596 26.37,1.888 26.37,2.42 L26.37,9.146 C26.332,13.402 26.332,15.834 26.332,16.442 C25.42,16.594 24.774,16.746 24.394,16.936 C23.9,17.24 23.672,17.734 23.672,18.38 C23.672,18.798 23.786,19.178 24.09,19.482 C24.356,19.786 24.698,19.938 25.154,19.938 C26.142,19.824 29.22,18.988 34.35,17.468 C36.896,16.708 38.834,15.872 40.164,14.96 C42.216,13.592 43.242,11.844 43.242,9.754 L43.242,9.754 Z M37.77,-3.356 C37.77,-1.912 34.996,0.178 29.524,2.914 L29.524,-0.582 C29.524,-1.722 29.562,-3.128 29.638,-4.876 C29.904,-4.876 30.626,-4.914 31.842,-4.99 C32.754,-5.028 33.476,-5.066 34.084,-5.066 C36.516,-5.066 37.77,-4.496 37.77,-3.356 L37.77,-3.356 Z M40.05,10.248 C40.05,11.844 36.478,13.592 29.41,15.492 L29.41,7.474 C33.134,7.816 35.566,8.082 36.706,8.272 C38.91,8.728 40.05,9.412 40.05,10.248 L40.05,10.248 Z M72.844,8.348 C72.844,6.448 72.35,4.928 71.438,3.712 C70.374,2.42 68.892,1.774 67.03,1.774 C65.51,1.774 64.066,2.192 62.698,2.952 C61.596,3.598 61.064,4.358 61.064,5.194 C61.064,5.574 61.178,5.916 61.482,6.144 C61.748,6.448 62.052,6.562 62.432,6.562 C62.622,6.562 63.116,6.258 63.876,5.65 C64.978,4.776 65.966,4.32 66.802,4.32 C68.55,4.32 69.538,5.574 69.766,8.044 C65.738,9.07 63.458,9.602 62.926,9.64 C62.584,9.602 62.318,9.564 62.166,9.488 C61.558,9.868 61.292,10.362 61.292,10.97 C61.292,11.35 61.444,11.692 61.748,11.996 C62.09,12.3 62.47,12.452 62.85,12.452 C63.344,12.452 64.142,12.3 65.244,11.996 C66.536,11.616 68.018,11.236 69.652,10.894 C69.348,12.604 68.664,14.01 67.638,15.112 C66.612,16.252 65.396,16.784 63.99,16.784 C63.382,16.784 62.508,16.518 61.406,15.986 C60.266,15.986 59.734,16.556 59.734,17.696 C59.734,18.266 60.19,18.798 61.178,19.254 C61.938,19.596 62.66,19.786 63.344,19.786 C66.422,19.786 68.816,18.57 70.564,16.214 C72.084,14.124 72.844,11.502 72.844,8.348 L72.844,8.348 Z M102.94,7.512 C102.94,5.84 102.56,4.434 101.8,3.294 C100.964,2.116 99.9,1.508 98.608,1.508 C95.948,1.508 93.402,3.902 91.008,8.614 L91.426,5.042 C91.882,1.926 92.224,-0.354 92.528,-1.798 C92.528,-2.482 92.338,-3.128 91.996,-3.66 C91.654,-4.154 91.16,-4.42 90.552,-4.42 C89.716,-4.42 89.222,-3.47 89.032,-1.608 C88.538,2.496 88.272,4.814 88.234,5.384 C87.626,6.904 86.524,8.728 84.852,10.856 C83.028,13.136 81.66,14.238 80.824,14.238 C79.912,14.238 79.494,13.744 79.494,12.718 C79.494,11.274 79.988,9.678 81.052,7.968 C82.078,6.296 83.104,5.422 84.092,5.422 C84.548,5.422 85.004,5.612 85.536,5.992 C85.954,6.334 86.296,6.486 86.562,6.486 C87.17,6.486 87.512,6.258 87.512,5.726 C87.512,5.65 87.474,5.536 87.474,5.422 C87.208,5.042 87.018,4.776 86.866,4.548 C86.182,3.446 85.156,2.876 83.788,2.876 C81.926,2.876 80.216,4.092 78.62,6.486 C77.1,8.728 76.34,10.856 76.34,12.908 C76.34,14.276 76.644,15.34 77.29,16.176 C77.898,17.012 78.81,17.392 80.026,17.392 C82.648,17.392 85.346,15.378 88.082,11.274 C87.664,16.328 87.36,20.052 87.132,22.522 C87.094,22.75 87.056,23.054 87.018,23.51 C86.942,23.814 86.942,24.042 86.942,24.194 C86.942,25.296 87.246,26.056 87.854,26.436 C88.196,26.626 88.614,26.74 89.108,26.74 C89.564,26.74 89.906,26.474 90.21,25.98 C90.476,25.448 90.628,24.878 90.628,24.308 C90.628,24.232 90.59,23.928 90.552,23.472 C90.476,22.94 90.476,22.56 90.476,22.408 C90.476,22.218 90.438,21.876 90.438,21.42 C90.4,20.964 90.4,20.622 90.4,20.47 C90.4,20.318 90.4,19.672 90.438,18.57 C90.438,17.506 90.476,16.86 90.476,16.632 C90.476,14.96 91.502,12.528 93.554,9.26 C95.606,6.068 97.164,4.434 98.304,4.434 C99.444,4.434 100.014,5.536 100.014,7.702 C100.014,9.146 99.786,10.476 99.33,11.692 C98.684,13.326 97.81,14.124 96.67,14.124 C96.214,14.124 95.644,13.782 95.036,13.06 C94.428,12.376 93.972,11.996 93.668,11.92 C93.326,11.996 93.022,12.186 92.794,12.566 C92.528,12.946 92.414,13.288 92.414,13.63 C92.414,14.276 92.87,14.96 93.782,15.682 C94.694,16.442 95.682,16.822 96.746,16.822 C99.026,16.822 100.66,15.758 101.724,13.63 C102.522,12.034 102.94,10.02 102.94,7.512 L102.94,7.512 Z M133.454,7.512 C133.454,5.84 133.074,4.434 132.314,3.294 C131.478,2.116 130.414,1.508 129.122,1.508 C126.462,1.508 123.916,3.902 121.522,8.614 L121.94,5.042 C122.396,1.926 122.738,-0.354 123.042,-1.798 C123.042,-2.482 122.852,-3.128 122.51,-3.66 C122.168,-4.154 121.674,-4.42 121.066,-4.42 C120.23,-4.42 119.736,-3.47 119.546,-1.608 C119.052,2.496 118.786,4.814 118.748,5.384 C118.14,6.904 117.038,8.728 115.366,10.856 C113.542,13.136 112.174,14.238 111.338,14.238 C110.426,14.238 110.008,13.744 110.008,12.718 C110.008,11.274 110.502,9.678 111.566,7.968 C112.592,6.296 113.618,5.422 114.606,5.422 C115.062,5.422 115.518,5.612 116.05,5.992 C116.468,6.334 116.81,6.486 117.076,6.486 C117.684,6.486 118.026,6.258 118.026,5.726 C118.026,5.65 117.988,5.536 117.988,5.422 C117.722,5.042 117.532,4.776 117.38,4.548 C116.696,3.446 115.67,2.876 114.302,2.876 C112.44,2.876 110.73,4.092 109.134,6.486 C107.614,8.728 106.854,10.856 106.854,12.908 C106.854,14.276 107.158,15.34 107.804,16.176 C108.412,17.012 109.324,17.392 110.54,17.392 C113.162,17.392 115.86,15.378 118.596,11.274 C118.178,16.328 117.874,20.052 117.646,22.522 C117.608,22.75 117.57,23.054 117.532,23.51 C117.456,23.814 117.456,24.042 117.456,24.194 C117.456,25.296 117.76,26.056 118.368,26.436 C118.71,26.626 119.128,26.74 119.622,26.74 C120.078,26.74 120.42,26.474 120.724,25.98 C120.99,25.448 121.142,24.878 121.142,24.308 C121.142,24.232 121.104,23.928 121.066,23.472 C120.99,22.94 120.99,22.56 120.99,22.408 C120.99,22.218 120.952,21.876 120.952,21.42 C120.914,20.964 120.914,20.622 120.914,20.47 C120.914,20.318 120.914,19.672 120.952,18.57 C120.952,17.506 120.99,16.86 120.99,16.632 C120.99,14.96 122.016,12.528 124.068,9.26 C126.12,6.068 127.678,4.434 128.818,4.434 C129.958,4.434 130.528,5.536 130.528,7.702 C130.528,9.146 130.3,10.476 129.844,11.692 C129.198,13.326 128.324,14.124 127.184,14.124 C126.728,14.124 126.158,13.782 125.55,13.06 C124.942,12.376 124.486,11.996 124.182,11.92 C123.84,11.996 123.536,12.186 123.308,12.566 C123.042,12.946 122.928,13.288 122.928,13.63 C122.928,14.276 123.384,14.96 124.296,15.682 C125.208,16.442 126.196,16.822 127.26,16.822 C129.54,16.822 131.174,15.758 132.238,13.63 C133.036,12.034 133.454,10.02 133.454,7.512 L133.454,7.512 Z M152.454,17.316 C152.454,16.936 152.302,16.556 151.998,16.176 C151.694,15.872 151.314,15.682 150.934,15.682 C150.63,15.682 150.136,15.758 149.49,15.834 C148.844,15.91 148.35,15.948 148.046,15.948 C146.906,15.948 145.918,15.416 145.006,14.314 C148.806,12.262 150.706,9.83 150.706,7.018 C150.706,5.954 150.25,4.928 149.338,4.016 C148.426,3.104 147.514,2.648 146.564,2.648 C144.93,2.648 143.6,3.598 142.536,5.46 C141.624,7.056 141.168,8.766 141.168,10.59 C141.168,10.97 141.206,11.502 141.32,12.148 L140.446,12.148 C139.914,12.148 139.42,11.958 138.888,11.578 C138.356,11.198 137.976,11.008 137.748,11.008 C136.76,11.008 136.266,11.54 136.266,12.604 C136.266,13.44 136.874,14.124 138.166,14.656 C139.154,15.074 140.104,15.264 141.092,15.264 L142.232,15.264 C143.6,17.886 145.728,19.178 148.616,19.178 C151.162,19.178 152.454,18.532 152.454,17.316 L152.454,17.316 Z M147.704,7.17 C147.704,8.424 146.564,9.792 144.284,11.274 L144.284,10.59 C144.284,9.564 144.436,8.576 144.816,7.626 C145.196,6.486 145.728,5.916 146.412,5.916 C146.716,5.916 147.02,6.068 147.324,6.296 C147.552,6.6 147.704,6.866 147.704,7.17 L147.704,7.17 Z M168.262,5.574 C168.262,5.27 168.11,4.928 167.806,4.586 C167.502,4.282 167.16,4.13 166.856,4.13 C166.552,4.13 165.906,4.358 164.956,4.814 C163.36,5.574 161.346,7.018 158.99,9.07 C159.522,6.866 160.016,5.118 160.548,3.864 C160.852,3.066 161.004,2.572 161.004,2.42 C161.004,1.432 160.51,0.938 159.598,0.938 C158.99,0.938 158.534,1.28 158.23,1.964 C156.368,6.524 155.418,11.54 155.342,16.974 C155.266,17.164 155.266,17.354 155.266,17.544 C155.266,18 155.342,18.418 155.494,18.836 C155.722,19.52 156.254,19.9 157.014,19.9 C157.85,19.9 158.268,19.406 158.268,18.456 C158.268,18.38 158.23,18.152 158.23,17.772 C158.192,17.392 158.192,17.126 158.192,16.898 L158.192,15.492 C158.192,14.96 158.192,14.352 158.268,13.668 C158.534,13.516 158.686,13.44 158.724,13.402 C160.168,15.34 162.03,17.05 164.272,18.532 C164.956,19.026 165.488,19.292 165.868,19.292 C166.78,19.292 167.236,18.798 167.236,17.848 C167.236,17.468 166.894,16.936 166.286,16.328 C165.222,15.378 164.614,14.884 164.386,14.884 C164.31,14.884 164.196,14.922 164.12,14.922 C162.638,13.744 161.498,12.604 160.738,11.502 C162.562,9.792 164.082,8.576 165.336,7.892 C165.488,7.968 165.64,8.006 165.83,8.006 C166.324,8.006 166.856,7.74 167.388,7.208 C167.958,6.714 168.262,6.182 168.262,5.574 L168.262,5.574 Z M186.654,2.192 C186.654,1.812 186.502,1.432 186.236,1.09 C185.97,0.786 185.666,0.596 185.324,0.596 C184.754,0.596 183.956,0.748 182.892,0.976 C178.712,1.964 174.988,2.838 171.796,3.598 C171.568,3.674 171.416,3.674 171.34,3.674 C170.58,3.826 170.2,4.396 170.2,5.346 C170.2,6.41 170.618,6.904 171.53,6.904 C172.632,6.676 173.506,6.486 174.114,6.296 C175.216,6.068 176.166,5.84 176.964,5.688 C176.812,8.614 176.736,11.426 176.736,14.086 C176.736,16.67 176.888,18.456 177.192,19.444 C177.42,20.128 177.876,20.47 178.636,20.47 C179.624,20.47 180.118,19.558 180.118,17.772 C180.118,16.898 179.928,16.252 179.624,15.834 C179.548,14.884 179.51,13.402 179.51,11.35 C179.51,9.754 179.624,7.588 179.928,4.89 C181.03,4.624 181.79,4.434 182.246,4.358 C182.588,4.586 182.854,4.662 183.044,4.662 C183.272,4.662 183.538,4.624 183.88,4.472 L185.628,3.674 C186.312,3.37 186.654,2.876 186.654,2.192 L186.654,2.192 Z M203.07,18.228 C203.07,17.962 202.88,17.62 202.538,17.24 C201.702,16.328 201.322,14.01 201.322,10.286 C201.322,8.956 201.512,6.714 201.93,3.56 C201.93,3.142 201.74,2.762 201.436,2.382 C201.094,2.04 200.714,1.85 200.296,1.85 C199.65,1.85 198.282,3.256 196.23,6.068 C194.558,8.272 193.19,10.286 192.05,12.034 C192.316,9.07 192.506,6.904 192.62,5.612 C192.62,5.004 192.392,4.472 192.012,4.016 C191.632,3.598 191.138,3.37 190.53,3.37 C190.188,3.37 189.884,3.598 189.58,4.016 C189.656,5.118 189.732,5.764 189.732,5.916 C189.732,6.6 189.618,8.31 189.428,11.084 L189.352,12.186 C189.314,12.756 189.238,13.516 189.162,14.466 C189.048,15.378 188.972,15.948 188.972,16.176 C189.01,16.708 189.162,17.126 189.466,17.354 C190.074,17.962 190.454,18.228 190.606,18.228 C191.138,18.228 191.784,17.658 192.468,16.442 C193.874,14.086 194.862,12.414 195.47,11.502 C196.458,9.868 197.522,8.348 198.7,6.98 C198.7,7.36 198.662,8.158 198.662,9.336 C198.624,10.552 198.624,11.198 198.624,11.35 C198.624,13.326 198.814,14.998 199.232,16.442 C199.802,18.532 200.638,19.596 201.702,19.596 C201.93,19.596 202.234,19.406 202.576,19.102 C202.88,18.722 203.07,18.456 203.07,18.228 L203.07,18.228 Z M222.07,13.782 C222.07,11.616 219.752,10.438 215.192,10.248 C218.688,8.69 220.436,7.018 220.436,5.194 C220.436,4.016 219.828,3.104 218.65,2.458 C217.7,2.002 216.56,1.736 215.23,1.736 C213.368,1.736 211.164,1.85 208.618,2.078 C207.478,2.23 206.946,2.686 206.946,3.522 C206.946,4.434 207.44,4.852 208.504,4.852 C208.694,4.852 208.998,4.814 209.416,4.738 C209.34,13.136 209.302,17.468 209.302,17.696 C207.972,17.848 207.326,18.38 207.326,19.368 C207.326,20.052 207.782,20.432 208.77,20.546 C209.568,20.508 210.746,20.318 212.304,19.976 C215.192,19.292 217.32,18.608 218.612,18 C220.892,16.936 222.07,15.53 222.07,13.782 L222.07,13.782 Z M217.51,5.536 C217.51,6.638 215.724,7.816 212.152,9.07 L212.228,4.662 C213.634,4.548 214.66,4.472 215.268,4.472 C216.75,4.472 217.51,4.852 217.51,5.536 L217.51,5.536 Z M219.22,14.162 C219.22,14.732 218.574,15.302 217.282,15.834 C215.99,16.366 214.242,16.784 212.076,17.05 L212.076,12.262 C214.584,12.338 216.332,12.528 217.396,12.756 C218.612,13.06 219.22,13.516 219.22,14.162 L219.22,14.162 Z M238.6,3.94 C238.6,2.952 238.144,2.458 237.232,2.458 C236.472,2.458 235.978,3.142 235.788,4.434 C235.598,5.46 235.37,6.904 235.142,8.766 C233.47,9.184 231.836,9.488 230.24,9.64 C230.62,7.208 231,5.384 231.38,4.13 C231.608,3.446 231.798,2.914 231.988,2.458 C231.912,1.432 231.456,0.9 230.544,0.9 C229.898,0.9 229.48,1.204 229.252,1.812 C228.492,3.636 227.884,6.258 227.504,9.678 C226.896,9.678 226.478,9.64 226.25,9.602 C225.49,9.602 225.148,10.058 225.148,10.894 C225.148,11.844 225.68,12.3 226.782,12.3 L227.238,12.3 C227.124,13.744 227.01,15.378 226.934,17.278 C226.934,17.392 226.896,17.582 226.858,17.81 C226.782,18.038 226.782,18.19 226.782,18.342 C226.782,18.722 226.934,19.064 227.238,19.368 C227.542,19.672 227.884,19.824 228.264,19.824 C229.176,19.824 229.67,19.33 229.708,18.38 C229.708,17.088 229.822,15.036 230.012,12.224 C231.646,12.072 233.242,11.806 234.838,11.426 C234.648,13.44 234.534,15.036 234.534,16.176 C234.534,16.29 234.496,16.442 234.458,16.67 C234.382,16.86 234.344,17.012 234.344,17.126 C234.344,18.038 234.458,18.722 234.762,19.178 C235.066,19.672 235.408,19.938 235.864,19.938 C236.244,19.938 236.586,19.786 236.89,19.482 C237.156,19.178 237.308,18.798 237.308,18.38 C237.308,18.304 237.27,18.114 237.27,17.734 C237.232,17.354 237.232,17.05 237.232,16.898 C237.232,14.352 237.612,10.438 238.448,5.156 C238.524,4.472 238.6,4.092 238.6,3.94 L238.6,3.94 Z M254.522,9.64 C254.522,8.158 254.104,6.79 253.268,5.574 C252.394,4.396 251.292,3.56 249.962,3.104 C249.43,2.952 249.126,2.876 249.05,2.876 C248.746,2.876 248.404,3.066 247.948,3.37 C247.416,3.674 246.998,3.902 246.694,4.016 C245.402,4.662 244.338,5.802 243.578,7.398 C242.818,8.842 242.476,10.4 242.476,12.034 C242.476,13.972 242.97,15.568 244.034,16.822 C245.098,18.038 246.428,18.684 248.024,18.684 C249.848,18.684 251.406,17.848 252.66,16.1 C253.876,14.352 254.522,12.224 254.522,9.64 L254.522,9.64 Z M251.52,10.21 C251.52,11.502 251.14,12.68 250.456,13.782 C249.696,14.922 248.898,15.492 247.986,15.492 C247.226,15.492 246.618,15.15 246.162,14.428 C245.668,13.744 245.44,12.946 245.44,12.034 C245.44,10.818 245.706,9.678 246.314,8.614 C246.998,7.398 247.872,6.752 248.936,6.752 C249.316,6.98 249.81,7.094 250.418,7.094 C251.14,7.55 251.52,8.614 251.52,10.21 L251.52,10.21 Z M275.042,19.558 C275.042,19.216 274.928,18.836 274.7,18.38 C274.472,17.924 274.206,17.62 273.94,17.392 C273.332,16.1 272.8,13.744 272.344,10.362 C272.04,8.614 271.812,6.676 271.584,4.624 C271.47,3.826 271.014,3.408 270.216,3.408 C269.494,3.408 268.544,4.966 267.366,8.082 C266.948,9.146 266.606,10.058 266.302,10.894 C265.276,9.374 264.364,7.094 263.528,3.978 C263.224,2.838 262.768,2.268 262.198,2.268 C261.476,2.268 260.83,3.142 260.26,4.852 C260.146,4.852 259.994,4.814 259.804,4.814 C259.538,4.814 259.31,4.928 259.158,5.118 C258.93,5.346 258.816,5.612 258.816,5.878 C258.816,5.954 258.816,6.182 258.854,6.562 C258.854,6.98 258.892,7.208 258.892,7.284 C258.892,7.968 258.816,8.918 258.664,10.21 C258.512,11.502 258.436,12.946 258.436,14.504 C258.436,17.05 258.93,18.304 259.956,18.304 C260.716,18.304 261.096,17.468 261.172,15.758 C261.286,12.414 261.59,9.64 262.046,7.436 C264.06,12.3 265.656,14.732 266.796,14.732 C267.176,14.732 267.442,14.58 267.67,14.2 C267.86,13.896 268.088,13.212 268.392,12.224 C268.886,10.552 269.304,9.222 269.646,8.31 C270.026,12.528 270.558,15.644 271.28,17.658 C272.078,19.976 272.914,21.154 273.75,21.154 C274.054,21.154 274.358,20.964 274.624,20.622 C274.89,20.242 275.042,19.9 275.042,19.558 L275.042,19.558 Z M306.088,4.548 C306.088,3.978 305.898,3.484 305.518,3.028 C305.176,2.61 304.758,2.382 304.226,2.382 C303.998,2.382 303.542,2.61 302.858,2.99 C302.174,3.408 300.502,3.75 297.804,4.054 C297.196,3.56 296.702,3.294 296.36,3.294 C295.942,3.294 295.486,3.522 295.03,3.978 C294.574,4.434 294.346,4.928 294.346,5.384 C294.346,5.688 294.498,6.068 294.802,6.486 C295.068,6.942 295.22,7.436 295.22,8.006 C295.22,10.362 295.03,12.3 294.65,13.896 C294.156,15.758 293.51,16.67 292.75,16.67 C292.446,16.67 292.218,16.214 292.142,15.226 C292.066,14.846 291.914,14.618 291.61,14.618 C291.078,14.618 290.698,14.884 290.432,15.34 C290.09,15.872 289.938,16.48 289.938,17.126 C289.938,17.848 290.204,18.38 290.774,18.798 C291.306,19.178 291.914,19.406 292.598,19.406 C294.574,19.406 295.98,18.114 296.816,15.606 C297.348,14.01 297.804,11.122 298.184,6.942 C299.134,6.714 300.578,6.41 302.554,6.068 C302.174,9.792 301.984,12.604 301.984,14.504 C301.984,17.012 302.136,18.57 302.478,19.216 C302.82,19.862 303.314,20.204 303.922,20.204 C304.91,20.204 305.404,19.596 305.404,18.456 C305.252,17.772 305.176,17.164 305.1,16.632 C304.91,15.34 304.834,14.238 304.834,13.288 C304.834,11.236 305.138,8.842 305.784,6.106 C305.974,5.194 306.088,4.7 306.088,4.548 L306.088,4.548 Z M325.05,17.316 C325.05,16.936 324.898,16.556 324.594,16.176 C324.29,15.872 323.91,15.682 323.53,15.682 C323.226,15.682 322.732,15.758 322.086,15.834 C321.44,15.91 320.946,15.948 320.642,15.948 C319.502,15.948 318.514,15.416 317.602,14.314 C321.402,12.262 323.302,9.83 323.302,7.018 C323.302,5.954 322.846,4.928 321.934,4.016 C321.022,3.104 320.11,2.648 319.16,2.648 C317.526,2.648 316.196,3.598 315.132,5.46 C314.22,7.056 313.764,8.766 313.764,10.59 C313.764,10.97 313.802,11.502 313.916,12.148 L313.042,12.148 C312.51,12.148 312.016,11.958 311.484,11.578 C310.952,11.198 310.572,11.008 310.344,11.008 C309.356,11.008 308.862,11.54 308.862,12.604 C308.862,13.44 309.47,14.124 310.762,14.656 C311.75,15.074 312.7,15.264 313.688,15.264 L314.828,15.264 C316.196,17.886 318.324,19.178 321.212,19.178 C323.758,19.178 325.05,18.532 325.05,17.316 L325.05,17.316 Z M320.3,7.17 C320.3,8.424 319.16,9.792 316.88,11.274 L316.88,10.59 C316.88,9.564 317.032,8.576 317.412,7.626 C317.792,6.486 318.324,5.916 319.008,5.916 C319.312,5.916 319.616,6.068 319.92,6.296 C320.148,6.6 320.3,6.866 320.3,7.17 L320.3,7.17 Z M340.63,3.56 C340.592,3.142 340.44,2.724 340.136,2.344 C339.832,1.964 339.49,1.774 339.11,1.774 C338.084,1.774 337.552,2.344 337.514,3.446 C337.514,3.598 337.514,4.092 337.552,4.89 C337.552,5.764 337.59,6.258 337.59,6.41 C337.59,7.892 337.096,9.26 336.146,10.552 C335.158,11.844 334.056,12.452 332.878,12.452 C331.396,12.452 330.674,11.388 330.674,9.184 C330.674,8.348 330.826,6.448 331.206,3.484 C331.092,2.42 330.636,1.85 329.876,1.85 C328.812,1.85 328.204,2.876 327.976,4.89 C327.9,5.46 327.862,6.866 327.862,9.146 C327.862,13.174 329.458,15.188 332.688,15.188 C333.6,15.188 334.55,14.96 335.462,14.428 C336.374,13.934 337.096,13.25 337.552,12.414 C337.476,13.934 337.4,15.188 337.324,16.138 C337.172,17.696 337.134,18.798 337.134,19.558 C337.134,20.584 337.552,21.116 338.464,21.116 C339.452,21.116 339.984,20.584 340.022,19.52 C340.06,17.05 340.174,13.402 340.402,8.614 C340.478,6.106 340.554,4.434 340.63,3.56 L340.63,3.56 Z M359.592,17.316 C359.592,16.936 359.44,16.556 359.136,16.176 C358.832,15.872 358.452,15.682 358.072,15.682 C357.768,15.682 357.274,15.758 356.628,15.834 C355.982,15.91 355.488,15.948 355.184,15.948 C354.044,15.948 353.056,15.416 352.144,14.314 C355.944,12.262 357.844,9.83 357.844,7.018 C357.844,5.954 357.388,4.928 356.476,4.016 C355.564,3.104 354.652,2.648 353.702,2.648 C352.068,2.648 350.738,3.598 349.674,5.46 C348.762,7.056 348.306,8.766 348.306,10.59 C348.306,10.97 348.344,11.502 348.458,12.148 L347.584,12.148 C347.052,12.148 346.558,11.958 346.026,11.578 C345.494,11.198 345.114,11.008 344.886,11.008 C343.898,11.008 343.404,11.54 343.404,12.604 C343.404,13.44 344.012,14.124 345.304,14.656 C346.292,15.074 347.242,15.264 348.23,15.264 L349.37,15.264 C350.738,17.886 352.866,19.178 355.754,19.178 C358.3,19.178 359.592,18.532 359.592,17.316 L359.592,17.316 Z M354.842,7.17 C354.842,8.424 353.702,9.792 351.422,11.274 L351.422,10.59 C351.422,9.564 351.574,8.576 351.954,7.626 C352.334,6.486 352.866,5.916 353.55,5.916 C353.854,5.916 354.158,6.068 354.462,6.296 C354.69,6.6 354.842,6.866 354.842,7.17 L354.842,7.17 Z M375.058,3.94 C375.058,2.952 374.602,2.458 373.69,2.458 C372.93,2.458 372.436,3.142 372.246,4.434 C372.056,5.46 371.828,6.904 371.6,8.766 C369.928,9.184 368.294,9.488 366.698,9.64 C367.078,7.208 367.458,5.384 367.838,4.13 C368.066,3.446 368.256,2.914 368.446,2.458 C368.37,1.432 367.914,0.9 367.002,0.9 C366.356,0.9 365.938,1.204 365.71,1.812 C364.95,3.636 364.342,6.258 363.962,9.678 C363.354,9.678 362.936,9.64 362.708,9.602 C361.948,9.602 361.606,10.058 361.606,10.894 C361.606,11.844 362.138,12.3 363.24,12.3 L363.696,12.3 C363.582,13.744 363.468,15.378 363.392,17.278 C363.392,17.392 363.354,17.582 363.316,17.81 C363.24,18.038 363.24,18.19 363.24,18.342 C363.24,18.722 363.392,19.064 363.696,19.368 C364,19.672 364.342,19.824 364.722,19.824 C365.634,19.824 366.128,19.33 366.166,18.38 C366.166,17.088 366.28,15.036 366.47,12.224 C368.104,12.072 369.7,11.806 371.296,11.426 C371.106,13.44 370.992,15.036 370.992,16.176 C370.992,16.29 370.954,16.442 370.916,16.67 C370.84,16.86 370.802,17.012 370.802,17.126 C370.802,18.038 370.916,18.722 371.22,19.178 C371.524,19.672 371.866,19.938 372.322,19.938 C372.702,19.938 373.044,19.786 373.348,19.482 C373.614,19.178 373.766,18.798 373.766,18.38 C373.766,18.304 373.728,18.114 373.728,17.734 C373.69,17.354 373.69,17.05 373.69,16.898 C373.69,14.352 374.07,10.438 374.906,5.156 C374.982,4.472 375.058,4.092 375.058,3.94 L375.058,3.94 Z M393.032,18.228 C393.032,17.962 392.842,17.62 392.5,17.24 C391.664,16.328 391.284,14.01 391.284,10.286 C391.284,8.956 391.474,6.714 391.892,3.56 C391.892,3.142 391.702,2.762 391.398,2.382 C391.056,2.04 390.676,1.85 390.258,1.85 C389.612,1.85 388.244,3.256 386.192,6.068 C384.52,8.272 383.152,10.286 382.012,12.034 C382.278,9.07 382.468,6.904 382.582,5.612 C382.582,5.004 382.354,4.472 381.974,4.016 C381.594,3.598 381.1,3.37 380.492,3.37 C380.15,3.37 379.846,3.598 379.542,4.016 C379.618,5.118 379.694,5.764 379.694,5.916 C379.694,6.6 379.58,8.31 379.39,11.084 L379.314,12.186 C379.276,12.756 379.2,13.516 379.124,14.466 C379.01,15.378 378.934,15.948 378.934,16.176 C378.972,16.708 379.124,17.126 379.428,17.354 C380.036,17.962 380.416,18.228 380.568,18.228 C381.1,18.228 381.746,17.658 382.43,16.442 C383.836,14.086 384.824,12.414 385.432,11.502 C386.42,9.868 387.484,8.348 388.662,6.98 C388.662,7.36 388.624,8.158 388.624,9.336 C388.586,10.552 388.586,11.198 388.586,11.35 C388.586,13.326 388.776,14.998 389.194,16.442 C389.764,18.532 390.6,19.596 391.664,19.596 C391.892,19.596 392.196,19.406 392.538,19.102 C392.842,18.722 393.032,18.456 393.032,18.228 L393.032,18.228 Z M411.006,18.228 C411.006,17.962 410.816,17.62 410.474,17.24 C409.638,16.328 409.258,14.01 409.258,10.286 C409.258,8.956 409.448,6.714 409.866,3.56 C409.866,3.142 409.676,2.762 409.372,2.382 C409.03,2.04 408.65,1.85 408.232,1.85 C407.586,1.85 406.218,3.256 404.166,6.068 C402.494,8.272 401.126,10.286 399.986,12.034 C400.252,9.07 400.442,6.904 400.556,5.612 C400.556,5.004 400.328,4.472 399.948,4.016 C399.568,3.598 399.074,3.37 398.466,3.37 C398.124,3.37 397.82,3.598 397.516,4.016 C397.592,5.118 397.668,5.764 397.668,5.916 C397.668,6.6 397.554,8.31 397.364,11.084 L397.288,12.186 C397.25,12.756 397.174,13.516 397.098,14.466 C396.984,15.378 396.908,15.948 396.908,16.176 C396.946,16.708 397.098,17.126 397.402,17.354 C398.01,17.962 398.39,18.228 398.542,18.228 C399.074,18.228 399.72,17.658 400.404,16.442 C401.81,14.086 402.798,12.414 403.406,11.502 C404.394,9.868 405.458,8.348 406.636,6.98 C406.636,7.36 406.598,8.158 406.598,9.336 C406.56,10.552 406.56,11.198 406.56,11.35 C406.56,13.326 406.75,14.998 407.168,16.442 C407.738,18.532 408.574,19.596 409.638,19.596 C409.866,19.596 410.17,19.406 410.512,19.102 C410.816,18.722 411.006,18.456 411.006,18.228 L411.006,18.228 Z M441.634,18.266 C441.634,16.518 440.988,15.53 439.772,15.302 C439.392,15.378 439.126,15.454 438.936,15.454 C439.392,10.286 439.696,6.714 439.848,4.738 C439.848,4.282 439.658,3.788 439.316,3.294 C438.936,2.8 438.556,2.534 438.138,2.534 C437.34,2.534 436.884,2.876 436.77,3.484 L436.77,6.676 C436.77,8.234 436.504,11.312 436.048,15.872 C433.312,16.29 431.716,16.48 431.298,16.48 C430.918,16.48 430.728,16.252 430.728,15.758 L430.994,11.084 C431.184,8.006 431.298,6.41 431.298,6.258 C431.298,5.308 431.146,4.434 430.88,3.598 C430.5,2.534 429.93,1.964 429.17,1.964 C428.448,1.964 428.068,2.382 427.992,3.218 C428.03,4.016 428.068,4.624 428.144,5.004 C428.22,6.22 428.296,6.828 428.296,6.866 C428.296,7.93 428.22,9.45 428.106,11.502 C427.954,13.554 427.878,15.112 427.878,16.138 C427.878,17.506 428.296,18.418 429.17,19.026 C429.778,19.406 430.31,19.634 430.766,19.634 L434.528,19.064 C435.972,18.836 437.226,18.76 438.366,18.76 C438.67,18.76 438.822,18.912 438.822,19.254 C438.822,19.71 438.746,20.204 438.594,20.736 C438.328,21.572 438.214,22.104 438.214,22.256 C438.214,22.408 438.328,22.636 438.594,22.902 C438.86,23.13 439.088,23.282 439.278,23.282 C439.886,23.282 440.456,22.598 440.988,21.23 C441.406,20.09 441.634,19.102 441.634,18.266 L441.634,18.266 Z M458.81,18.228 C458.81,17.962 458.62,17.62 458.278,17.24 C457.442,16.328 457.062,14.01 457.062,10.286 C457.062,8.956 457.252,6.714 457.67,3.56 C457.67,3.142 457.48,2.762 457.176,2.382 C456.834,2.04 456.454,1.85 456.036,1.85 C455.39,1.85 454.022,3.256 451.97,6.068 C450.298,8.272 448.93,10.286 447.79,12.034 C448.056,9.07 448.246,6.904 448.36,5.612 C448.36,5.004 448.132,4.472 447.752,4.016 C447.372,3.598 446.878,3.37 446.27,3.37 C445.928,3.37 445.624,3.598 445.32,4.016 C445.396,5.118 445.472,5.764 445.472,5.916 C445.472,6.6 445.358,8.31 445.168,11.084 L445.092,12.186 C445.054,12.756 444.978,13.516 444.902,14.466 C444.788,15.378 444.712,15.948 444.712,16.176 C444.75,16.708 444.902,17.126 445.206,17.354 C445.814,17.962 446.194,18.228 446.346,18.228 C446.878,18.228 447.524,17.658 448.208,16.442 C449.614,14.086 450.602,12.414 451.21,11.502 C452.198,9.868 453.262,8.348 454.44,6.98 C454.44,7.36 454.402,8.158 454.402,9.336 C454.364,10.552 454.364,11.198 454.364,11.35 C454.364,13.326 454.554,14.998 454.972,16.442 C455.542,18.532 456.378,19.596 457.442,19.596 C457.67,19.596 457.974,19.406 458.316,19.102 C458.62,18.722 458.81,18.456 458.81,18.228 L458.81,18.228 Z M474.428,14.504 C474.428,14.124 474.276,13.744 473.972,13.364 C473.668,13.06 473.326,12.87 472.946,12.87 C472.642,12.87 472.186,13.136 471.654,13.63 C471.198,14.01 470.742,14.39 470.362,14.77 C469.716,15.264 468.918,15.492 467.968,15.492 C466.448,15.492 465.726,14.58 465.726,12.68 C465.726,11.502 466.068,10.324 466.752,9.184 C467.436,8.044 468.272,7.094 469.298,6.41 C469.754,6.676 470.438,6.79 471.388,6.79 C471.882,6.79 472.376,6.6 472.87,6.144 C473.288,5.688 473.516,5.27 473.516,4.814 C473.516,4.206 473.288,3.75 472.832,3.37 C472.338,3.028 471.806,2.838 471.236,2.838 C468.842,2.838 466.714,4.092 464.89,6.562 C463.408,8.538 462.686,10.704 462.686,13.06 C462.686,14.732 463.218,16.062 464.282,17.126 C465.346,18.152 466.676,18.684 468.272,18.684 C469.716,18.684 471.198,18.114 472.642,16.974 C473.82,16.062 474.428,15.264 474.428,14.504 L474.428,14.504 Z M493.2,2.192 C493.2,1.812 493.048,1.432 492.782,1.09 C492.516,0.786 492.212,0.596 491.87,0.596 C491.3,0.596 490.502,0.748 489.438,0.976 C485.258,1.964 481.534,2.838 478.342,3.598 C478.114,3.674 477.962,3.674 477.886,3.674 C477.126,3.826 476.746,4.396 476.746,5.346 C476.746,6.41 477.164,6.904 478.076,6.904 C479.178,6.676 480.052,6.486 480.66,6.296 C481.762,6.068 482.712,5.84 483.51,5.688 C483.358,8.614 483.282,11.426 483.282,14.086 C483.282,16.67 483.434,18.456 483.738,19.444 C483.966,20.128 484.422,20.47 485.182,20.47 C486.17,20.47 486.664,19.558 486.664,17.772 C486.664,16.898 486.474,16.252 486.17,15.834 C486.094,14.884 486.056,13.402 486.056,11.35 C486.056,9.754 486.17,7.588 486.474,4.89 C487.576,4.624 488.336,4.434 488.792,4.358 C489.134,4.586 489.4,4.662 489.59,4.662 C489.818,4.662 490.084,4.624 490.426,4.472 L492.174,3.674 C492.858,3.37 493.2,2.876 493.2,2.192 L493.2,2.192 Z M509.616,18.228 C509.616,17.962 509.426,17.62 509.084,17.24 C508.248,16.328 507.868,14.01 507.868,10.286 C507.868,8.956 508.058,6.714 508.476,3.56 C508.476,3.142 508.286,2.762 507.982,2.382 C507.64,2.04 507.26,1.85 506.842,1.85 C506.196,1.85 504.828,3.256 502.776,6.068 C501.104,8.272 499.736,10.286 498.596,12.034 C498.862,9.07 499.052,6.904 499.166,5.612 C499.166,5.004 498.938,4.472 498.558,4.016 C498.178,3.598 497.684,3.37 497.076,3.37 C496.734,3.37 496.43,3.598 496.126,4.016 C496.202,5.118 496.278,5.764 496.278,5.916 C496.278,6.6 496.164,8.31 495.974,11.084 L495.898,12.186 C495.86,12.756 495.784,13.516 495.708,14.466 C495.594,15.378 495.518,15.948 495.518,16.176 C495.556,16.708 495.708,17.126 496.012,17.354 C496.62,17.962 497,18.228 497.152,18.228 C497.684,18.228 498.33,17.658 499.014,16.442 C500.42,14.086 501.408,12.414 502.016,11.502 C503.004,9.868 504.068,8.348 505.246,6.98 C505.246,7.36 505.208,8.158 505.208,9.336 C505.17,10.552 505.17,11.198 505.17,11.35 C505.17,13.326 505.36,14.998 505.778,16.442 C506.348,18.532 507.184,19.596 508.248,19.596 C508.476,19.596 508.78,19.406 509.122,19.102 C509.426,18.722 509.616,18.456 509.616,18.228 L509.616,18.228 Z M528.768,2.192 C528.768,1.812 528.616,1.432 528.35,1.09 C528.084,0.786 527.78,0.596 527.438,0.596 C526.868,0.596 526.07,0.748 525.006,0.976 C520.826,1.964 517.102,2.838 513.91,3.598 C513.682,3.674 513.53,3.674 513.454,3.674 C512.694,3.826 512.314,4.396 512.314,5.346 C512.314,6.41 512.732,6.904 513.644,6.904 C514.746,6.676 515.62,6.486 516.228,6.296 C517.33,6.068 518.28,5.84 519.078,5.688 C518.926,8.614 518.85,11.426 518.85,14.086 C518.85,16.67 519.002,18.456 519.306,19.444 C519.534,20.128 519.99,20.47 520.75,20.47 C521.738,20.47 522.232,19.558 522.232,17.772 C522.232,16.898 522.042,16.252 521.738,15.834 C521.662,14.884 521.624,13.402 521.624,11.35 C521.624,9.754 521.738,7.588 522.042,4.89 C523.144,4.624 523.904,4.434 524.36,4.358 C524.702,4.586 524.968,4.662 525.158,4.662 C525.386,4.662 525.652,4.624 525.994,4.472 L527.742,3.674 C528.426,3.37 528.768,2.876 528.768,2.192 L528.768,2.192 Z M544.88,9.184 C544.88,8.842 544.69,8.462 544.386,8.082 C544.386,7.208 544.234,6.448 544.006,5.764 C544.044,5.612 544.082,5.422 544.082,5.232 C544.082,4.776 543.816,4.32 543.36,3.94 C542.866,3.56 542.372,3.332 541.878,3.332 C539.788,3.332 537.508,4.548 535,6.904 C532.378,9.336 531.086,11.692 531.086,13.896 C531.086,15.074 531.466,16.1 532.302,17.012 C533.1,17.962 534.05,18.418 535.152,18.418 C536.862,18.418 538.762,17.354 540.89,15.226 C541.08,18.114 541.726,19.596 542.828,19.596 C543.208,19.596 543.588,19.444 543.93,19.216 C544.234,18.912 544.424,18.532 544.424,18.152 C544.424,18.038 544.31,17.582 544.158,16.67 C543.968,15.796 543.892,15.112 543.892,14.656 C543.892,13.136 544.12,11.616 544.652,10.02 C544.804,9.602 544.88,9.336 544.88,9.184 L544.88,9.184 Z M541.422,8.082 C541.422,9.374 540.662,10.894 539.218,12.642 C537.774,14.39 536.444,15.226 535.304,15.226 C534.506,15.226 534.126,14.77 534.126,13.82 C534.126,12.604 535.076,11.084 537.014,9.222 C538.762,7.55 540.016,6.676 540.738,6.676 C541.194,6.676 541.422,7.17 541.422,8.082 L541.422,8.082 Z M575.166,3.788 C575.166,3.37 574.976,2.99 574.596,2.686 C574.178,2.42 573.76,2.268 573.342,2.192 C569.466,2.496 566.388,2.762 564.184,2.914 C562.854,3.028 562.208,3.484 562.208,4.32 C562.208,4.852 562.284,5.308 562.512,5.726 C562.246,9.64 562.132,11.616 562.132,11.692 C561.866,14.428 561.752,15.796 561.752,15.796 C561.752,16.29 561.904,16.784 562.246,17.278 C562.588,17.772 562.968,18 563.424,18 C564.184,18 564.564,17.506 564.64,16.48 C564.868,12.376 565.096,8.842 565.4,5.878 C567.338,5.612 569.352,5.422 571.442,5.346 C571.442,5.46 571.366,7.322 571.252,10.894 C571.1,14.086 571.062,15.796 571.062,16.024 C571.062,18.494 571.708,19.748 573.076,19.748 C573.798,19.748 574.178,19.33 574.178,18.57 C573.95,17.43 573.874,16.366 573.874,15.454 C573.874,14.238 573.95,12.3 574.102,9.64 C574.14,9.222 574.216,8.614 574.33,7.778 C574.406,7.094 574.444,6.714 574.444,6.562 C574.444,6.334 574.368,5.992 574.292,5.536 C574.862,4.928 575.166,4.358 575.166,3.788 L575.166,3.788 Z M591.126,9.64 C591.126,8.158 590.708,6.79 589.872,5.574 C588.998,4.396 587.896,3.56 586.566,3.104 C586.034,2.952 585.73,2.876 585.654,2.876 C585.35,2.876 585.008,3.066 584.552,3.37 C584.02,3.674 583.602,3.902 583.298,4.016 C582.006,4.662 580.942,5.802 580.182,7.398 C579.422,8.842 579.08,10.4 579.08,12.034 C579.08,13.972 579.574,15.568 580.638,16.822 C581.702,18.038 583.032,18.684 584.628,18.684 C586.452,18.684 588.01,17.848 589.264,16.1 C590.48,14.352 591.126,12.224 591.126,9.64 L591.126,9.64 Z M588.124,10.21 C588.124,11.502 587.744,12.68 587.06,13.782 C586.3,14.922 585.502,15.492 584.59,15.492 C583.83,15.492 583.222,15.15 582.766,14.428 C582.272,13.744 582.044,12.946 582.044,12.034 C582.044,10.818 582.31,9.678 582.918,8.614 C583.602,7.398 584.476,6.752 585.54,6.752 C585.92,6.98 586.414,7.094 587.022,7.094 C587.744,7.55 588.124,8.614 588.124,10.21 L588.124,10.21 Z M611.646,19.558 C611.646,19.216 611.532,18.836 611.304,18.38 C611.076,17.924 610.81,17.62 610.544,17.392 C609.936,16.1 609.404,13.744 608.948,10.362 C608.644,8.614 608.416,6.676 608.188,4.624 C608.074,3.826 607.618,3.408 606.82,3.408 C606.098,3.408 605.148,4.966 603.97,8.082 C603.552,9.146 603.21,10.058 602.906,10.894 C601.88,9.374 600.968,7.094 600.132,3.978 C599.828,2.838 599.372,2.268 598.802,2.268 C598.08,2.268 597.434,3.142 596.864,4.852 C596.75,4.852 596.598,4.814 596.408,4.814 C596.142,4.814 595.914,4.928 595.762,5.118 C595.534,5.346 595.42,5.612 595.42,5.878 C595.42,5.954 595.42,6.182 595.458,6.562 C595.458,6.98 595.496,7.208 595.496,7.284 C595.496,7.968 595.42,8.918 595.268,10.21 C595.116,11.502 595.04,12.946 595.04,14.504 C595.04,17.05 595.534,18.304 596.56,18.304 C597.32,18.304 597.7,17.468 597.776,15.758 C597.89,12.414 598.194,9.64 598.65,7.436 C600.664,12.3 602.26,14.732 603.4,14.732 C603.78,14.732 604.046,14.58 604.274,14.2 C604.464,13.896 604.692,13.212 604.996,12.224 C605.49,10.552 605.908,9.222 606.25,8.31 C606.63,12.528 607.162,15.644 607.884,17.658 C608.682,19.976 609.518,21.154 610.354,21.154 C610.658,21.154 610.962,20.964 611.228,20.622 C611.494,20.242 611.646,19.9 611.646,19.558 L611.646,19.558 Z M626.39,9.64 C626.39,8.158 625.972,6.79 625.136,5.574 C624.262,4.396 623.16,3.56 621.83,3.104 C621.298,2.952 620.994,2.876 620.918,2.876 C620.614,2.876 620.272,3.066 619.816,3.37 C619.284,3.674 618.866,3.902 618.562,4.016 C617.27,4.662 616.206,5.802 615.446,7.398 C614.686,8.842 614.344,10.4 614.344,12.034 C614.344,13.972 614.838,15.568 615.902,16.822 C616.966,18.038 618.296,18.684 619.892,18.684 C621.716,18.684 623.274,17.848 624.528,16.1 C625.744,14.352 626.39,12.224 626.39,9.64 L626.39,9.64 Z M623.388,10.21 C623.388,11.502 623.008,12.68 622.324,13.782 C621.564,14.922 620.766,15.492 619.854,15.492 C619.094,15.492 618.486,15.15 618.03,14.428 C617.536,13.744 617.308,12.946 617.308,12.034 C617.308,10.818 617.574,9.678 618.182,8.614 C618.866,7.398 619.74,6.752 620.804,6.752 C621.184,6.98 621.678,7.094 622.286,7.094 C623.008,7.55 623.388,8.614 623.388,10.21 L623.388,10.21 Z M650.482,15.758 C650.482,14.922 649.912,14.466 648.81,14.352 C645.238,14.048 642.692,13.478 641.21,12.718 C643.756,9.602 645.732,7.284 647.138,5.764 C647.442,5.422 647.594,5.08 647.594,4.7 C647.594,4.32 647.442,3.94 647.138,3.598 C646.834,3.294 646.492,3.142 646.112,3.142 C645.732,3.142 645.162,3.636 644.326,4.624 C643.414,5.688 642.236,7.17 640.792,9.07 C640.868,7.892 641.096,6.486 641.476,4.814 C641.704,3.484 641.856,2.724 641.856,2.534 C641.856,1.546 641.324,1.014 640.336,1.014 C639.576,1.014 639.082,1.698 638.854,2.99 C638.664,3.902 638.474,5.27 638.284,7.056 C635.89,6.676 634.104,5.992 632.964,4.966 C632.432,4.548 631.938,4.32 631.406,4.32 C631.064,4.32 630.798,4.472 630.57,4.738 C630.342,5.08 630.228,5.384 630.228,5.688 C630.228,6.524 630.988,7.36 632.584,8.196 C633.382,8.652 634.674,9.108 636.46,9.602 C634.598,11.692 632.736,13.402 630.836,14.77 C630.228,15.226 629.924,15.72 629.924,16.29 C629.924,16.67 630.038,17.012 630.342,17.316 C630.608,17.62 630.95,17.772 631.368,17.772 C631.824,17.772 632.394,17.468 633.078,16.86 C635.396,14.77 637.03,13.174 638.018,12.072 C638.094,15.036 638.284,17.316 638.626,18.988 C638.854,19.976 639.424,20.47 640.374,20.47 C640.716,20.47 641.02,20.28 641.324,19.938 C641.59,19.596 641.742,19.254 641.742,18.912 C641.438,17.696 641.172,16.67 641.02,15.872 C642.806,16.404 644.364,16.746 645.732,16.974 C647.214,17.278 648.316,17.392 649.076,17.392 C649.988,17.392 650.482,16.86 650.482,15.758 L650.482,15.758 Z M668.684,17.316 C668.684,16.936 668.532,16.556 668.228,16.176 C667.924,15.872 667.544,15.682 667.164,15.682 C666.86,15.682 666.366,15.758 665.72,15.834 C665.074,15.91 664.58,15.948 664.276,15.948 C663.136,15.948 662.148,15.416 661.236,14.314 C665.036,12.262 666.936,9.83 666.936,7.018 C666.936,5.954 666.48,4.928 665.568,4.016 C664.656,3.104 663.744,2.648 662.794,2.648 C661.16,2.648 659.83,3.598 658.766,5.46 C657.854,7.056 657.398,8.766 657.398,10.59 C657.398,10.97 657.436,11.502 657.55,12.148 L656.676,12.148 C656.144,12.148 655.65,11.958 655.118,11.578 C654.586,11.198 654.206,11.008 653.978,11.008 C652.99,11.008 652.496,11.54 652.496,12.604 C652.496,13.44 653.104,14.124 654.396,14.656 C655.384,15.074 656.334,15.264 657.322,15.264 L658.462,15.264 C659.83,17.886 661.958,19.178 664.846,19.178 C667.392,19.178 668.684,18.532 668.684,17.316 L668.684,17.316 Z M663.934,7.17 C663.934,8.424 662.794,9.792 660.514,11.274 L660.514,10.59 C660.514,9.564 660.666,8.576 661.046,7.626 C661.426,6.486 661.958,5.916 662.642,5.916 C662.946,5.916 663.25,6.068 663.554,6.296 C663.782,6.6 663.934,6.866 663.934,7.17 L663.934,7.17 Z M686.772,2.192 C686.772,1.812 686.62,1.432 686.354,1.09 C686.088,0.786 685.784,0.596 685.442,0.596 C684.872,0.596 684.074,0.748 683.01,0.976 C678.83,1.964 675.106,2.838 671.914,3.598 C671.686,3.674 671.534,3.674 671.458,3.674 C670.698,3.826 670.318,4.396 670.318,5.346 C670.318,6.41 670.736,6.904 671.648,6.904 C672.75,6.676 673.624,6.486 674.232,6.296 C675.334,6.068 676.284,5.84 677.082,5.688 C676.93,8.614 676.854,11.426 676.854,14.086 C676.854,16.67 677.006,18.456 677.31,19.444 C677.538,20.128 677.994,20.47 678.754,20.47 C679.742,20.47 680.236,19.558 680.236,17.772 C680.236,16.898 680.046,16.252 679.742,15.834 C679.666,14.884 679.628,13.402 679.628,11.35 C679.628,9.754 679.742,7.588 680.046,4.89 C681.148,4.624 681.908,4.434 682.364,4.358 C682.706,4.586 682.972,4.662 683.162,4.662 C683.39,4.662 683.656,4.624 683.998,4.472 L685.746,3.674 C686.43,3.37 686.772,2.876 686.772,2.192 L686.772,2.192 Z M694.41,5.498 C694.41,4.89 694.144,4.32 693.688,3.788 C693.156,3.218 692.624,2.914 692.054,2.914 C691.674,2.914 691.256,3.218 690.876,3.826 C690.458,4.434 690.268,4.928 690.268,5.384 C690.268,5.612 690.344,5.84 690.496,6.068 C691.028,6.98 691.788,7.512 692.7,7.664 C693.156,7.588 693.574,7.322 693.954,6.904 C694.258,6.486 694.41,6.03 694.41,5.498 L694.41,5.498 Z M694.258,17.544 C694.258,15.34 693.688,14.238 692.624,14.238 C692.32,14.238 692.054,14.276 691.864,14.352 C691.446,14.504 691.104,14.884 690.8,15.454 C690.496,16.062 690.382,16.632 690.382,17.164 C690.382,17.962 690.876,18.57 691.864,19.064 C692.206,19.216 692.51,19.33 692.738,19.33 C693.726,19.33 694.258,18.722 694.258,17.544 L694.258,17.544 Z" id="В-эффективном-лечени"></path>
            </g>
        </g>
    </g>
</svg>