<?xml version="1.0" encoding="UTF-8"?>
<svg width="690px" height="39px" viewBox="0 0 690 39" version="1.1" xmlns="http://www.w3.org/2000/svg" xmlns:xlink="http://www.w3.org/1999/xlink">
    <!-- Generator: Sketch 40.3 (33839) - http://www.bohemiancoding.com/sketch -->
    <title>Канефрон® Н применим</title>
    <desc>Created with Sketch.</desc>
    <defs></defs>
    <g id="Page-1" stroke="none" stroke-width="1" fill="none" fill-rule="evenodd">
        <g id="Cictitis_page" transform="translate(-4869.000000, -243.000000)" fill="#3F507E">
            <g id="Group-12" transform="translate(4868.000000, 243.000000)">
                <path d="M22.015,7.95 C21.91,7.11 21.42,6.585 20.58,6.41 C19.25,6.48 17.185,7.495 14.35,9.42 C12.04,11.03 10.115,12.5 8.645,13.9 L5.215,17.12 C5.775,14.285 6.335,11.905 6.86,10.015 C6.965,9.525 7.42,8.125 8.225,5.815 C8.96,3.61 9.345,2.35 9.38,2 C9.31,1.16 8.82,0.74 7.98,0.74 C7.42,0.74 6.965,1.16 6.685,1.93 C4.585,7.25 3.185,12.185 2.485,16.805 C1.96,20.06 1.68,22.545 1.68,24.295 C1.645,26.36 1.645,27.9 1.645,28.88 C1.645,29.195 1.68,29.58 1.82,30 C1.82,30.35 1.89,30.7 2.065,30.98 C2.24,31.47 2.66,31.75 3.36,31.785 C4.13,31.68 4.55,31.225 4.655,30.42 C4.515,29.23 4.445,27.585 4.445,25.555 C4.445,24.295 4.515,22.79 4.655,21.11 C5.11,21.075 5.46,20.97 5.67,20.795 C5.74,20.795 6.02,20.515 6.58,20.025 C8.015,21.95 9.45,23.56 10.885,24.89 C13.475,27.34 15.4,28.88 16.66,29.51 C17.57,30.245 18.375,30.665 19.075,30.735 C19.81,30.525 20.23,30.035 20.3,29.3 C20.265,28.81 19.88,28.215 19.18,27.55 L17.115,25.625 C16.765,25.345 16.415,25.205 16.065,25.135 L15.575,25.17 C14.525,24.54 13.265,23.42 11.83,21.88 C10.5,20.48 9.415,19.185 8.61,17.96 C12.075,14.6 15.155,12.185 17.815,10.645 C18.27,10.855 18.585,10.925 18.795,10.925 C19.04,10.925 19.355,10.785 19.74,10.505 C21.245,9.91 22.015,9.07 22.015,7.95 L22.015,7.95 Z M37.5803447,21.88 C37.5803447,21.565 37.4053447,21.215 37.1253447,20.865 C37.1253447,20.06 36.9853447,19.36 36.7753447,18.73 C36.8103447,18.59 36.8453447,18.415 36.8453447,18.24 C36.8453447,17.82 36.6003447,17.4 36.1803447,17.05 C35.7253447,16.7 35.2703447,16.49 34.8153447,16.49 C32.8903447,16.49 30.7903447,17.61 28.4803447,19.78 C26.0653447,22.02 24.8753447,24.19 24.8753447,26.22 C24.8753447,27.305 25.2253447,28.25 25.9953447,29.09 C26.7303447,29.965 27.6053447,30.385 28.6203447,30.385 C30.1953447,30.385 31.9453447,29.405 33.9053447,27.445 C34.0803447,30.105 34.6753447,31.47 35.6903447,31.47 C36.0403447,31.47 36.3903447,31.33 36.7053447,31.12 C36.9853447,30.84 37.1603447,30.49 37.1603447,30.14 C37.1603447,30.035 37.0553447,29.615 36.9153447,28.775 C36.7403447,27.97 36.6703447,27.34 36.6703447,26.92 C36.6703447,25.52 36.8803447,24.12 37.3703447,22.65 C37.5103447,22.265 37.5803447,22.02 37.5803447,21.88 L37.5803447,21.88 Z M34.3953447,20.865 C34.3953447,22.055 33.6953447,23.455 32.3653447,25.065 C31.0353447,26.675 29.8103447,27.445 28.7603447,27.445 C28.0253447,27.445 27.6753447,27.025 27.6753447,26.15 C27.6753447,25.03 28.5503447,23.63 30.3353447,21.915 C31.9453447,20.375 33.1003447,19.57 33.7653447,19.57 C34.1853447,19.57 34.3953447,20.025 34.3953447,20.865 L34.3953447,20.865 Z M54.6156894,17.05 C54.6156894,16.14 54.1956894,15.685 53.3556894,15.685 C52.6556894,15.685 52.2006894,16.315 52.0256894,17.505 C51.8506894,18.45 51.6406894,19.78 51.4306894,21.495 C49.8906894,21.88 48.3856894,22.16 46.9156894,22.3 C47.2656894,20.06 47.6156894,18.38 47.9656894,17.225 C48.1756894,16.595 48.3506894,16.105 48.5256894,15.685 C48.4556894,14.74 48.0356894,14.25 47.1956894,14.25 C46.6006894,14.25 46.2156894,14.53 46.0056894,15.09 C45.3056894,16.77 44.7456894,19.185 44.3956894,22.335 C43.8356894,22.335 43.4506894,22.3 43.2406894,22.265 C42.5406894,22.265 42.2256894,22.685 42.2256894,23.455 C42.2256894,24.33 42.7156894,24.75 43.7306894,24.75 L44.1506894,24.75 C44.0456894,26.08 43.9406894,27.585 43.8706894,29.335 C43.8706894,29.44 43.8356894,29.615 43.8006894,29.825 C43.7306894,30.035 43.7306894,30.175 43.7306894,30.315 C43.7306894,30.665 43.8706894,30.98 44.1506894,31.26 C44.4306894,31.54 44.7456894,31.68 45.0956894,31.68 C45.9356894,31.68 46.3906894,31.225 46.4256894,30.35 C46.4256894,29.16 46.5306894,27.27 46.7056894,24.68 C48.2106894,24.54 49.6806894,24.295 51.1506894,23.945 C50.9756894,25.8 50.8706894,27.27 50.8706894,28.32 C50.8706894,28.425 50.8356894,28.565 50.8006894,28.775 C50.7306894,28.95 50.6956894,29.09 50.6956894,29.195 C50.6956894,30.035 50.8006894,30.665 51.0806894,31.085 C51.3606894,31.54 51.6756894,31.785 52.0956894,31.785 C52.4456894,31.785 52.7606894,31.645 53.0406894,31.365 C53.2856894,31.085 53.4256894,30.735 53.4256894,30.35 C53.4256894,30.28 53.3906894,30.105 53.3906894,29.755 C53.3556894,29.405 53.3556894,29.125 53.3556894,28.985 C53.3556894,26.64 53.7056894,23.035 54.4756894,18.17 C54.5456894,17.54 54.6156894,17.19 54.6156894,17.05 L54.6156894,17.05 Z M73.8910341,29.37 C73.8910341,29.02 73.7510341,28.67 73.4710341,28.32 C73.1910341,28.04 72.8410341,27.865 72.4910341,27.865 C72.2110341,27.865 71.7560341,27.935 71.1610341,28.005 C70.5660341,28.075 70.1110341,28.11 69.8310341,28.11 C68.7810341,28.11 67.8710341,27.62 67.0310341,26.605 C70.5310341,24.715 72.2810341,22.475 72.2810341,19.885 C72.2810341,18.905 71.8610341,17.96 71.0210341,17.12 C70.1810341,16.28 69.3410341,15.86 68.4660341,15.86 C66.9610341,15.86 65.7360341,16.735 64.7560341,18.45 C63.9160341,19.92 63.4960341,21.495 63.4960341,23.175 C63.4960341,23.525 63.5310341,24.015 63.6360341,24.61 L62.8310341,24.61 C62.3410341,24.61 61.8860341,24.435 61.3960341,24.085 C60.9060341,23.735 60.5560341,23.56 60.3460341,23.56 C59.4360341,23.56 58.9810341,24.05 58.9810341,25.03 C58.9810341,25.8 59.5410341,26.43 60.7310341,26.92 C61.6410341,27.305 62.5160341,27.48 63.4260341,27.48 L64.4760341,27.48 C65.7360341,29.895 67.6960341,31.085 70.3560341,31.085 C72.7010341,31.085 73.8910341,30.49 73.8910341,29.37 L73.8910341,29.37 Z M69.5160341,20.025 C69.5160341,21.18 68.4660341,22.44 66.3660341,23.805 L66.3660341,23.175 C66.3660341,22.23 66.5060341,21.32 66.8560341,20.445 C67.2060341,19.395 67.6960341,18.87 68.3260341,18.87 C68.6060341,18.87 68.8860341,19.01 69.1660341,19.22 C69.3760341,19.5 69.5160341,19.745 69.5160341,20.025 L69.5160341,20.025 Z M102.791379,20.34 C102.791379,18.8 102.441379,17.505 101.741379,16.455 C100.971379,15.37 99.9913788,14.81 98.8013788,14.81 C96.3513788,14.81 94.0063788,17.015 91.8013788,21.355 L92.1863788,18.065 C92.6063788,15.195 92.9213788,13.095 93.2013788,11.765 C93.2013788,11.135 93.0263788,10.54 92.7113788,10.05 C92.3963788,9.595 91.9413788,9.35 91.3813788,9.35 C90.6113788,9.35 90.1563788,10.225 89.9813788,11.94 C89.5263788,15.72 89.2813788,17.855 89.2463788,18.38 C88.6863788,19.78 87.6713788,21.46 86.1313788,23.42 C84.4513788,25.52 83.1913788,26.535 82.4213788,26.535 C81.5813788,26.535 81.1963788,26.08 81.1963788,25.135 C81.1963788,23.805 81.6513788,22.335 82.6313788,20.76 C83.5763788,19.22 84.5213788,18.415 85.4313788,18.415 C85.8513788,18.415 86.2713788,18.59 86.7613788,18.94 C87.1463788,19.255 87.4613788,19.395 87.7063788,19.395 C88.2663788,19.395 88.5813788,19.185 88.5813788,18.695 C88.5813788,18.625 88.5463788,18.52 88.5463788,18.415 C88.3013788,18.065 88.1263788,17.82 87.9863788,17.61 C87.3563788,16.595 86.4113788,16.07 85.1513788,16.07 C83.4363788,16.07 81.8613788,17.19 80.3913788,19.395 C78.9913788,21.46 78.2913788,23.42 78.2913788,25.31 C78.2913788,26.57 78.5713788,27.55 79.1663788,28.32 C79.7263788,29.09 80.5663788,29.44 81.6863788,29.44 C84.1013788,29.44 86.5863788,27.585 89.1063788,23.805 C88.7213788,28.46 88.4413788,31.89 88.2313788,34.165 C88.1963788,34.375 88.1613788,34.655 88.1263788,35.075 C88.0563788,35.355 88.0563788,35.565 88.0563788,35.705 C88.0563788,36.72 88.3363788,37.42 88.8963788,37.77 C89.2113788,37.945 89.5963788,38.05 90.0513788,38.05 C90.4713788,38.05 90.7863788,37.805 91.0663788,37.35 C91.3113788,36.86 91.4513788,36.335 91.4513788,35.81 C91.4513788,35.74 91.4163788,35.46 91.3813788,35.04 C91.3113788,34.55 91.3113788,34.2 91.3113788,34.06 C91.3113788,33.885 91.2763788,33.57 91.2763788,33.15 C91.2413788,32.73 91.2413788,32.415 91.2413788,32.275 C91.2413788,32.135 91.2413788,31.54 91.2763788,30.525 C91.2763788,29.545 91.3113788,28.95 91.3113788,28.74 C91.3113788,27.2 92.2563788,24.96 94.1463788,21.95 C96.0363788,19.01 97.4713788,17.505 98.5213788,17.505 C99.5713788,17.505 100.096379,18.52 100.096379,20.515 C100.096379,21.845 99.8863788,23.07 99.4663788,24.19 C98.8713788,25.695 98.0663788,26.43 97.0163788,26.43 C96.5963788,26.43 96.0713788,26.115 95.5113788,25.45 C94.9513788,24.82 94.5313788,24.47 94.2513788,24.4 C93.9363788,24.47 93.6563788,24.645 93.4463788,24.995 C93.2013788,25.345 93.0963788,25.66 93.0963788,25.975 C93.0963788,26.57 93.5163788,27.2 94.3563788,27.865 C95.1963788,28.565 96.1063788,28.915 97.0863788,28.915 C99.1863788,28.915 100.691379,27.935 101.671379,25.975 C102.406379,24.505 102.791379,22.65 102.791379,20.34 L102.791379,20.34 Z M120.876723,17.89 C120.876723,16.21 120.491723,14.81 119.721723,13.69 C118.881723,12.465 117.656723,11.835 116.116723,11.835 C113.911723,11.835 112.196723,13.375 110.971723,16.455 C110.131723,18.59 109.711723,21.04 109.711723,23.77 C109.711723,24.12 109.711723,24.4 109.746723,24.575 C108.766723,24.925 108.311723,25.45 108.311723,26.185 C108.311723,27.095 108.766723,27.585 109.746723,27.655 C109.816723,28.215 109.851723,29.055 109.851723,30.175 C109.851723,32.415 109.711723,33.99 109.501723,34.97 C109.256723,35.915 109.151723,36.44 109.151723,36.545 C109.151723,36.93 109.291723,37.28 109.571723,37.595 C109.851723,37.875 110.201723,38.05 110.586723,38.05 C111.321723,38.05 111.846723,37.315 112.161723,35.88 C112.511723,34.27 112.686723,32.625 112.686723,31.015 C112.686723,29.545 112.616723,28.11 112.511723,26.71 C118.076723,24.68 120.876723,21.74 120.876723,17.89 L120.876723,17.89 Z M118.076723,17.295 C118.076723,20.165 116.221723,22.265 112.546723,23.595 C112.546723,21.705 112.861723,19.78 113.526723,17.89 C114.261723,15.825 115.136723,14.775 116.116723,14.775 C116.711723,14.775 117.201723,15.055 117.586723,15.545 C117.901723,16.035 118.076723,16.63 118.076723,17.295 L118.076723,17.295 Z M137.247068,22.3 C137.247068,20.935 136.862068,19.675 136.092068,18.555 C135.287068,17.47 134.272068,16.7 133.047068,16.28 C132.557068,16.14 132.277068,16.07 132.207068,16.07 C131.927068,16.07 131.612068,16.245 131.192068,16.525 C130.702068,16.805 130.317068,17.015 130.037068,17.12 C128.847068,17.715 127.867068,18.765 127.167068,20.235 C126.467068,21.565 126.152068,23 126.152068,24.505 C126.152068,26.29 126.607068,27.76 127.587068,28.915 C128.567068,30.035 129.792068,30.63 131.262068,30.63 C132.942068,30.63 134.377068,29.86 135.532068,28.25 C136.652068,26.64 137.247068,24.68 137.247068,22.3 L137.247068,22.3 Z M134.482068,22.825 C134.482068,24.015 134.132068,25.1 133.502068,26.115 C132.802068,27.165 132.067068,27.69 131.227068,27.69 C130.527068,27.69 129.967068,27.375 129.547068,26.71 C129.092068,26.08 128.882068,25.345 128.882068,24.505 C128.882068,23.385 129.127068,22.335 129.687068,21.355 C130.317068,20.235 131.122068,19.64 132.102068,19.64 C132.452068,19.85 132.907068,19.955 133.467068,19.955 C134.132068,20.375 134.482068,21.355 134.482068,22.825 L134.482068,22.825 Z M154.317413,17.05 C154.317413,16.14 153.897413,15.685 153.057413,15.685 C152.357413,15.685 151.902413,16.315 151.727413,17.505 C151.552413,18.45 151.342413,19.78 151.132413,21.495 C149.592413,21.88 148.087413,22.16 146.617413,22.3 C146.967413,20.06 147.317413,18.38 147.667413,17.225 C147.877413,16.595 148.052413,16.105 148.227413,15.685 C148.157413,14.74 147.737413,14.25 146.897413,14.25 C146.302413,14.25 145.917413,14.53 145.707413,15.09 C145.007413,16.77 144.447413,19.185 144.097413,22.335 C143.537413,22.335 143.152413,22.3 142.942413,22.265 C142.242413,22.265 141.927413,22.685 141.927413,23.455 C141.927413,24.33 142.417413,24.75 143.432413,24.75 L143.852413,24.75 C143.747413,26.08 143.642413,27.585 143.572413,29.335 C143.572413,29.44 143.537413,29.615 143.502413,29.825 C143.432413,30.035 143.432413,30.175 143.432413,30.315 C143.432413,30.665 143.572413,30.98 143.852413,31.26 C144.132413,31.54 144.447413,31.68 144.797413,31.68 C145.637413,31.68 146.092413,31.225 146.127413,30.35 C146.127413,29.16 146.232413,27.27 146.407413,24.68 C147.912413,24.54 149.382413,24.295 150.852413,23.945 C150.677413,25.8 150.572413,27.27 150.572413,28.32 C150.572413,28.425 150.537413,28.565 150.502413,28.775 C150.432413,28.95 150.397413,29.09 150.397413,29.195 C150.397413,30.035 150.502413,30.665 150.782413,31.085 C151.062413,31.54 151.377413,31.785 151.797413,31.785 C152.147413,31.785 152.462413,31.645 152.742413,31.365 C152.987413,31.085 153.127413,30.735 153.127413,30.35 C153.127413,30.28 153.092413,30.105 153.092413,29.755 C153.057413,29.405 153.057413,29.125 153.057413,28.985 C153.057413,26.64 153.407413,23.035 154.177413,18.17 C154.247413,17.54 154.317413,17.19 154.317413,17.05 L154.317413,17.05 Z M180.347758,11.73 C180.347758,9.14 179.542758,7.145 177.932758,5.675 C176.392758,4.275 174.327758,3.54 171.807758,3.435 C171.597758,3.015 171.317758,2.77 170.967758,2.77 C167.957758,2.77 165.332758,3.89 163.162758,6.06 C160.957758,8.265 159.872758,10.925 159.872758,14.075 C159.872758,16.875 160.642758,19.185 162.217758,21.005 C163.827758,22.93 165.927758,23.875 168.552758,23.875 C171.737758,23.875 174.502758,22.685 176.847758,20.305 C179.157758,17.89 180.347758,15.02 180.347758,11.73 L180.347758,11.73 Z M178.387758,11.975 C178.387758,14.705 177.372758,17.05 175.412758,18.94 C173.417758,20.9 171.072758,21.845 168.377758,21.845 C166.382758,21.845 164.807758,21.04 163.617758,19.43 C162.532758,17.995 162.007758,16.21 162.007758,14.075 C162.007758,11.73 162.707758,9.735 164.107758,8.055 C165.472758,6.375 167.292758,5.325 169.532758,4.975 C169.952758,5.395 170.197758,5.605 170.267758,5.605 C170.407758,5.605 170.652758,5.605 170.932758,5.57 C171.247758,5.535 171.492758,5.5 171.667758,5.5 C176.147758,5.5 178.387758,7.67 178.387758,11.975 L178.387758,11.975 Z M173.837758,10.47 C173.837758,9.595 173.522758,8.895 172.962758,8.335 C172.332758,7.81 171.632758,7.53 170.792758,7.53 C170.092758,7.53 169.287758,7.705 168.447758,8.055 C167.572758,8.44 166.872758,8.895 166.347758,9.455 C165.997758,9.805 165.787758,10.155 165.752758,10.575 C165.787758,10.925 166.032758,11.205 166.452758,11.45 C166.312758,12.5 166.242758,13.305 166.207758,13.795 C165.717758,13.935 165.472758,14.25 165.472758,14.81 C165.472758,15.335 165.682758,15.65 166.137758,15.755 L166.137758,16.315 C166.137758,16.91 166.207758,17.61 166.382758,18.415 C166.452758,18.94 166.802758,19.185 167.362758,19.185 C168.027758,19.185 168.377758,18.835 168.377758,18.1 C168.307758,17.75 168.272758,17.26 168.237758,16.56 C169.917758,17.33 170.932758,17.925 171.247758,18.38 C171.317758,19.045 171.632758,19.36 172.262758,19.36 C172.927758,19.36 173.277758,19.01 173.277758,18.24 C173.277758,17.12 172.087758,16.035 169.742758,14.915 C172.472758,13.655 173.837758,12.15 173.837758,10.47 L173.837758,10.47 Z M171.807758,10.54 C171.807758,11.59 170.617758,12.535 168.307758,13.41 C168.412758,12.325 168.482758,11.31 168.552758,10.4 C169.252758,9.945 170.057758,9.7 170.967758,9.7 C171.527758,9.7 171.807758,9.98 171.807758,10.54 L171.807758,10.54 Z M219.353447,5.465 C219.353447,5.115 219.213447,4.765 218.933447,4.45 C218.653447,4.17 218.303447,3.995 217.953447,3.995 C217.288447,3.995 216.868447,4.38 216.693447,5.115 C216.448447,6.165 216.273447,6.97 216.203447,7.53 C215.853447,9.21 215.503447,11.52 215.153447,14.46 C212.423447,15.44 209.203447,16 205.493447,16.21 C205.773447,13.725 206.193447,11.345 206.753447,9.105 C207.103447,7.495 207.383447,6.445 207.593447,5.92 C208.188447,4.1 208.503447,3.05 208.503447,2.805 C208.503447,1.86 208.013447,1.37 207.103447,1.37 C206.543447,1.37 206.123447,1.685 205.808447,2.28 C205.703447,2.455 205.493447,2.98 205.213447,3.89 C204.023447,7.25 203.148447,11.415 202.623447,16.385 C202.343447,16.385 201.818447,16.35 201.083447,16.28 C200.348447,16.245 199.928447,16.21 199.823447,16.21 C199.473447,16.21 199.193447,16.385 198.983447,16.665 C198.738447,16.98 198.633447,17.295 198.633447,17.645 C198.633447,18.695 199.403447,19.185 201.013447,19.185 L201.748447,19.185 C202.028447,19.185 202.273447,19.15 202.413447,19.15 C201.993447,23.84 201.818447,27.585 201.818447,30.385 C201.818447,30.805 201.923447,31.155 202.203447,31.505 C202.448447,31.855 202.763447,32.03 203.148447,32.03 C203.533447,32.03 203.883447,31.82 204.198447,31.47 C204.478447,31.085 204.618447,30.63 204.653447,30.14 C204.863447,25.52 205.073447,21.845 205.283447,19.08 C208.783447,18.8 211.933447,18.275 214.803447,17.575 C214.313447,22.685 214.103447,26.57 214.103447,29.265 C214.103447,31.155 214.628447,32.135 215.713447,32.135 C216.063447,32.135 216.413447,31.995 216.693447,31.715 C216.973447,31.4 217.113447,31.05 217.113447,30.665 C217.113447,30.525 217.078447,30.14 217.078447,29.475 C217.043447,28.81 217.043447,28.32 217.043447,27.97 C217.043447,22.265 217.708447,15.335 219.073447,7.215 L219.353447,5.465 Z M250.904136,16.91 C250.904136,16.525 250.729136,16.175 250.379136,15.895 C249.994136,15.65 249.609136,15.51 249.224136,15.44 C245.654136,15.72 242.819136,15.965 240.789136,16.105 C239.564136,16.21 238.969136,16.63 238.969136,17.4 C238.969136,17.89 239.039136,18.31 239.249136,18.695 C239.004136,22.3 238.899136,24.12 238.899136,24.19 C238.654136,26.71 238.549136,27.97 238.549136,27.97 C238.549136,28.425 238.689136,28.88 239.004136,29.335 C239.319136,29.79 239.669136,30 240.089136,30 C240.789136,30 241.139136,29.545 241.209136,28.6 C241.419136,24.82 241.629136,21.565 241.909136,18.835 C243.694136,18.59 245.549136,18.415 247.474136,18.345 C247.474136,18.45 247.404136,20.165 247.299136,23.455 C247.159136,26.395 247.124136,27.97 247.124136,28.18 C247.124136,30.455 247.719136,31.61 248.979136,31.61 C249.644136,31.61 249.994136,31.225 249.994136,30.525 C249.784136,29.475 249.714136,28.495 249.714136,27.655 C249.714136,26.535 249.784136,24.75 249.924136,22.3 C249.959136,21.915 250.029136,21.355 250.134136,20.585 C250.204136,19.955 250.239136,19.605 250.239136,19.465 C250.239136,19.255 250.169136,18.94 250.099136,18.52 C250.624136,17.96 250.904136,17.435 250.904136,16.91 L250.904136,16.91 Z M268.989481,17.89 C268.989481,16.21 268.604481,14.81 267.834481,13.69 C266.994481,12.465 265.769481,11.835 264.229481,11.835 C262.024481,11.835 260.309481,13.375 259.084481,16.455 C258.244481,18.59 257.824481,21.04 257.824481,23.77 C257.824481,24.12 257.824481,24.4 257.859481,24.575 C256.879481,24.925 256.424481,25.45 256.424481,26.185 C256.424481,27.095 256.879481,27.585 257.859481,27.655 C257.929481,28.215 257.964481,29.055 257.964481,30.175 C257.964481,32.415 257.824481,33.99 257.614481,34.97 C257.369481,35.915 257.264481,36.44 257.264481,36.545 C257.264481,36.93 257.404481,37.28 257.684481,37.595 C257.964481,37.875 258.314481,38.05 258.699481,38.05 C259.434481,38.05 259.959481,37.315 260.274481,35.88 C260.624481,34.27 260.799481,32.625 260.799481,31.015 C260.799481,29.545 260.729481,28.11 260.624481,26.71 C266.189481,24.68 268.989481,21.74 268.989481,17.89 L268.989481,17.89 Z M266.189481,17.295 C266.189481,20.165 264.334481,22.265 260.659481,23.595 C260.659481,21.705 260.974481,19.78 261.639481,17.89 C262.374481,15.825 263.249481,14.775 264.229481,14.775 C264.824481,14.775 265.314481,15.055 265.699481,15.545 C266.014481,16.035 266.189481,16.63 266.189481,17.295 L266.189481,17.295 Z M287.249826,30.21 C287.249826,29.965 287.074826,29.65 286.759826,29.3 C285.989826,28.46 285.639826,26.325 285.639826,22.895 C285.639826,21.67 285.814826,19.605 286.199826,16.7 C286.199826,16.315 286.024826,15.965 285.744826,15.615 C285.429826,15.3 285.079826,15.125 284.694826,15.125 C284.099826,15.125 282.839826,16.42 280.949826,19.01 C279.409826,21.04 278.149826,22.895 277.099826,24.505 C277.344826,21.775 277.519826,19.78 277.624826,18.59 C277.624826,18.03 277.414826,17.54 277.064826,17.12 C276.714826,16.735 276.259826,16.525 275.699826,16.525 C275.384826,16.525 275.104826,16.735 274.824826,17.12 C274.894826,18.135 274.964826,18.73 274.964826,18.87 C274.964826,19.5 274.859826,21.075 274.684826,23.63 L274.614826,24.645 C274.579826,25.17 274.509826,25.87 274.439826,26.745 C274.334826,27.585 274.264826,28.11 274.264826,28.32 C274.299826,28.81 274.439826,29.195 274.719826,29.405 C275.279826,29.965 275.629826,30.21 275.769826,30.21 C276.259826,30.21 276.854826,29.685 277.484826,28.565 C278.779826,26.395 279.689826,24.855 280.249826,24.015 C281.159826,22.51 282.139826,21.11 283.224826,19.85 C283.224826,20.2 283.189826,20.935 283.189826,22.02 C283.154826,23.14 283.154826,23.735 283.154826,23.875 C283.154826,25.695 283.329826,27.235 283.714826,28.565 C284.239826,30.49 285.009826,31.47 285.989826,31.47 C286.199826,31.47 286.479826,31.295 286.794826,31.015 C287.074826,30.665 287.249826,30.42 287.249826,30.21 L287.249826,30.21 Z M307.92517,31.435 C307.92517,31.12 307.82017,30.77 307.61017,30.35 C307.40017,29.93 307.15517,29.65 306.91017,29.44 C306.35017,28.25 305.86017,26.08 305.44017,22.965 C305.16017,21.355 304.95017,19.57 304.74017,17.68 C304.63517,16.945 304.21517,16.56 303.48017,16.56 C302.81517,16.56 301.94017,17.995 300.85517,20.865 C300.47017,21.845 300.15517,22.685 299.87517,23.455 C298.93017,22.055 298.09017,19.955 297.32017,17.085 C297.04017,16.035 296.62017,15.51 296.09517,15.51 C295.43017,15.51 294.83517,16.315 294.31017,17.89 C294.20517,17.89 294.06517,17.855 293.89017,17.855 C293.64517,17.855 293.43517,17.96 293.29517,18.135 C293.08517,18.345 292.98017,18.59 292.98017,18.835 C292.98017,18.905 292.98017,19.115 293.01517,19.465 C293.01517,19.85 293.05017,20.06 293.05017,20.13 C293.05017,20.76 292.98017,21.635 292.84017,22.825 C292.70017,24.015 292.63017,25.345 292.63017,26.78 C292.63017,29.125 293.08517,30.28 294.03017,30.28 C294.73017,30.28 295.08017,29.51 295.15017,27.935 C295.25517,24.855 295.53517,22.3 295.95517,20.27 C297.81017,24.75 299.28017,26.99 300.33017,26.99 C300.68017,26.99 300.92517,26.85 301.13517,26.5 C301.31017,26.22 301.52017,25.59 301.80017,24.68 C302.25517,23.14 302.64017,21.915 302.95517,21.075 C303.30517,24.96 303.79517,27.83 304.46017,29.685 C305.19517,31.82 305.96517,32.905 306.73517,32.905 C307.01517,32.905 307.29517,32.73 307.54017,32.415 C307.78517,32.065 307.92517,31.75 307.92517,31.435 L307.92517,31.435 Z M326.115515,29.37 C326.115515,29.02 325.975515,28.67 325.695515,28.32 C325.415515,28.04 325.065515,27.865 324.715515,27.865 C324.435515,27.865 323.980515,27.935 323.385515,28.005 C322.790515,28.075 322.335515,28.11 322.055515,28.11 C321.005515,28.11 320.095515,27.62 319.255515,26.605 C322.755515,24.715 324.505515,22.475 324.505515,19.885 C324.505515,18.905 324.085515,17.96 323.245515,17.12 C322.405515,16.28 321.565515,15.86 320.690515,15.86 C319.185515,15.86 317.960515,16.735 316.980515,18.45 C316.140515,19.92 315.720515,21.495 315.720515,23.175 C315.720515,23.525 315.755515,24.015 315.860515,24.61 L315.055515,24.61 C314.565515,24.61 314.110515,24.435 313.620515,24.085 C313.130515,23.735 312.780515,23.56 312.570515,23.56 C311.660515,23.56 311.205515,24.05 311.205515,25.03 C311.205515,25.8 311.765515,26.43 312.955515,26.92 C313.865515,27.305 314.740515,27.48 315.650515,27.48 L316.700515,27.48 C317.960515,29.895 319.920515,31.085 322.580515,31.085 C324.925515,31.085 326.115515,30.49 326.115515,29.37 L326.115515,29.37 Z M321.740515,20.025 C321.740515,21.18 320.690515,22.44 318.590515,23.805 L318.590515,23.175 C318.590515,22.23 318.730515,21.32 319.080515,20.445 C319.430515,19.395 319.920515,18.87 320.550515,18.87 C320.830515,18.87 321.110515,19.01 321.390515,19.22 C321.600515,19.5 321.740515,19.745 321.740515,20.025 L321.740515,20.025 Z M342.17086,17.05 C342.17086,16.14 341.75086,15.685 340.91086,15.685 C340.21086,15.685 339.75586,16.315 339.58086,17.505 C339.40586,18.45 339.19586,19.78 338.98586,21.495 C337.44586,21.88 335.94086,22.16 334.47086,22.3 C334.82086,20.06 335.17086,18.38 335.52086,17.225 C335.73086,16.595 335.90586,16.105 336.08086,15.685 C336.01086,14.74 335.59086,14.25 334.75086,14.25 C334.15586,14.25 333.77086,14.53 333.56086,15.09 C332.86086,16.77 332.30086,19.185 331.95086,22.335 C331.39086,22.335 331.00586,22.3 330.79586,22.265 C330.09586,22.265 329.78086,22.685 329.78086,23.455 C329.78086,24.33 330.27086,24.75 331.28586,24.75 L331.70586,24.75 C331.60086,26.08 331.49586,27.585 331.42586,29.335 C331.42586,29.44 331.39086,29.615 331.35586,29.825 C331.28586,30.035 331.28586,30.175 331.28586,30.315 C331.28586,30.665 331.42586,30.98 331.70586,31.26 C331.98586,31.54 332.30086,31.68 332.65086,31.68 C333.49086,31.68 333.94586,31.225 333.98086,30.35 C333.98086,29.16 334.08586,27.27 334.26086,24.68 C335.76586,24.54 337.23586,24.295 338.70586,23.945 C338.53086,25.8 338.42586,27.27 338.42586,28.32 C338.42586,28.425 338.39086,28.565 338.35586,28.775 C338.28586,28.95 338.25086,29.09 338.25086,29.195 C338.25086,30.035 338.35586,30.665 338.63586,31.085 C338.91586,31.54 339.23086,31.785 339.65086,31.785 C340.00086,31.785 340.31586,31.645 340.59586,31.365 C340.84086,31.085 340.98086,30.735 340.98086,30.35 C340.98086,30.28 340.94586,30.105 340.94586,29.755 C340.91086,29.405 340.91086,29.125 340.91086,28.985 C340.91086,26.64 341.26086,23.035 342.03086,18.17 C342.10086,17.54 342.17086,17.19 342.17086,17.05 L342.17086,17.05 Z M360.536205,30.21 C360.536205,29.965 360.361205,29.65 360.046205,29.3 C359.276205,28.46 358.926205,26.325 358.926205,22.895 C358.926205,21.67 359.101205,19.605 359.486205,16.7 C359.486205,16.315 359.311205,15.965 359.031205,15.615 C358.716205,15.3 358.366205,15.125 357.981205,15.125 C357.386205,15.125 356.126205,16.42 354.236205,19.01 C352.696205,21.04 351.436205,22.895 350.386205,24.505 C350.631205,21.775 350.806205,19.78 350.911205,18.59 C350.911205,18.03 350.701205,17.54 350.351205,17.12 C350.001205,16.735 349.546205,16.525 348.986205,16.525 C348.671205,16.525 348.391205,16.735 348.111205,17.12 C348.181205,18.135 348.251205,18.73 348.251205,18.87 C348.251205,19.5 348.146205,21.075 347.971205,23.63 L347.901205,24.645 C347.866205,25.17 347.796205,25.87 347.726205,26.745 C347.621205,27.585 347.551205,28.11 347.551205,28.32 C347.586205,28.81 347.726205,29.195 348.006205,29.405 C348.566205,29.965 348.916205,30.21 349.056205,30.21 C349.546205,30.21 350.141205,29.685 350.771205,28.565 C352.066205,26.395 352.976205,24.855 353.536205,24.015 C354.446205,22.51 355.426205,21.11 356.511205,19.85 C356.511205,20.2 356.476205,20.935 356.476205,22.02 C356.441205,23.14 356.441205,23.735 356.441205,23.875 C356.441205,25.695 356.616205,27.235 357.001205,28.565 C357.526205,30.49 358.296205,31.47 359.276205,31.47 C359.486205,31.47 359.766205,31.295 360.081205,31.015 C360.361205,30.665 360.536205,30.42 360.536205,30.21 L360.536205,30.21 Z M381.211549,31.435 C381.211549,31.12 381.106549,30.77 380.896549,30.35 C380.686549,29.93 380.441549,29.65 380.196549,29.44 C379.636549,28.25 379.146549,26.08 378.726549,22.965 C378.446549,21.355 378.236549,19.57 378.026549,17.68 C377.921549,16.945 377.501549,16.56 376.766549,16.56 C376.101549,16.56 375.226549,17.995 374.141549,20.865 C373.756549,21.845 373.441549,22.685 373.161549,23.455 C372.216549,22.055 371.376549,19.955 370.606549,17.085 C370.326549,16.035 369.906549,15.51 369.381549,15.51 C368.716549,15.51 368.121549,16.315 367.596549,17.89 C367.491549,17.89 367.351549,17.855 367.176549,17.855 C366.931549,17.855 366.721549,17.96 366.581549,18.135 C366.371549,18.345 366.266549,18.59 366.266549,18.835 C366.266549,18.905 366.266549,19.115 366.301549,19.465 C366.301549,19.85 366.336549,20.06 366.336549,20.13 C366.336549,20.76 366.266549,21.635 366.126549,22.825 C365.986549,24.015 365.916549,25.345 365.916549,26.78 C365.916549,29.125 366.371549,30.28 367.316549,30.28 C368.016549,30.28 368.366549,29.51 368.436549,27.935 C368.541549,24.855 368.821549,22.3 369.241549,20.27 C371.096549,24.75 372.566549,26.99 373.616549,26.99 C373.966549,26.99 374.211549,26.85 374.421549,26.5 C374.596549,26.22 374.806549,25.59 375.086549,24.68 C375.541549,23.14 375.926549,21.915 376.241549,21.075 C376.591549,24.96 377.081549,27.83 377.746549,29.685 C378.481549,31.82 379.251549,32.905 380.021549,32.905 C380.301549,32.905 380.581549,32.73 380.826549,32.415 C381.071549,32.065 381.211549,31.75 381.211549,31.435 L381.211549,31.435 Z M414.372239,30.07 C414.372239,29.965 414.302239,29.79 414.162239,29.58 C413.742239,28.81 413.252239,28.425 412.762239,28.425 C412.692239,28.425 412.587239,28.46 412.412239,28.46 C412.587239,24.12 412.727239,20.97 412.867239,18.975 C412.937239,17.96 413.147239,16.945 413.532239,15.895 C413.532239,15.545 413.322239,15.16 412.972239,14.81 C412.622239,14.46 412.272239,14.285 411.922239,14.285 C411.012239,14.285 409.927239,14.495 408.632239,14.845 C407.092239,15.3 406.077239,15.65 405.587239,15.86 C404.817239,16.28 404.467239,16.805 404.467239,17.4 C404.467239,17.575 404.537239,17.82 404.712239,18.17 C404.817239,18.52 404.887239,18.765 404.887239,18.905 C404.887239,20.445 404.502239,22.195 403.732239,24.225 C402.892239,26.36 401.947239,28.04 400.827239,29.265 C399.742239,29.335 399.182239,29.825 399.112239,30.735 C398.972239,32.1 398.937239,33.29 398.937239,34.27 C398.937239,34.585 399.077239,34.9 399.357239,35.18 C399.637239,35.46 400.022239,35.635 400.442239,35.635 C401.247239,35.635 401.667239,35.215 401.667239,34.41 C401.667239,34.27 401.632239,34.095 401.597239,33.85 C401.527239,33.605 401.527239,33.43 401.527239,33.36 C401.527239,33.22 401.527239,33.08 401.562239,32.87 L401.562239,32.345 C401.562239,32.065 401.807239,31.89 402.367239,31.855 C404.432239,31.61 406.322239,31.435 408.002239,31.33 C409.227239,31.225 410.102239,31.19 410.592239,31.19 C411.012239,31.19 411.257239,31.365 411.257239,31.715 C411.257239,31.82 411.257239,32.205 411.292239,32.905 L411.292239,34.13 C411.292239,35.11 411.642239,35.635 412.412239,35.635 C412.692239,35.635 413.042239,35.53 413.427239,35.355 C413.742239,35.145 413.917239,34.865 413.917239,34.585 C413.917239,34.34 413.882239,34.025 413.847239,33.605 C413.777239,33.185 413.742239,32.835 413.742239,32.625 C413.742239,32.065 413.777239,31.575 413.917239,31.19 C413.917239,31.12 413.987239,30.945 414.127239,30.665 C414.267239,30.35 414.372239,30.14 414.372239,30.07 L414.372239,30.07 Z M410.277239,17.26 C410.277239,22.02 410.067239,25.87 409.647239,28.775 C406.917239,28.95 405.062239,29.09 404.047239,29.23 C405.762239,26.5 406.952239,22.72 407.617239,17.96 C408.177239,17.68 409.087239,17.435 410.277239,17.26 L410.277239,17.26 Z M433.542583,17.61 C433.542583,17.085 433.367583,16.63 433.017583,16.21 C432.702583,15.825 432.317583,15.615 431.827583,15.615 C431.617583,15.615 431.197583,15.825 430.567583,16.175 C429.937583,16.56 428.397583,16.875 425.912583,17.155 C425.352583,16.7 424.897583,16.455 424.582583,16.455 C424.197583,16.455 423.777583,16.665 423.357583,17.085 C422.937583,17.505 422.727583,17.96 422.727583,18.38 C422.727583,18.66 422.867583,19.01 423.147583,19.395 C423.392583,19.815 423.532583,20.27 423.532583,20.795 C423.532583,22.965 423.357583,24.75 423.007583,26.22 C422.552583,27.935 421.957583,28.775 421.257583,28.775 C420.977583,28.775 420.767583,28.355 420.697583,27.445 C420.627583,27.095 420.487583,26.885 420.207583,26.885 C419.717583,26.885 419.367583,27.13 419.122583,27.55 C418.807583,28.04 418.667583,28.6 418.667583,29.195 C418.667583,29.86 418.912583,30.35 419.437583,30.735 C419.927583,31.085 420.487583,31.295 421.117583,31.295 C422.937583,31.295 424.232583,30.105 425.002583,27.795 C425.492583,26.325 425.912583,23.665 426.262583,19.815 C427.137583,19.605 428.467583,19.325 430.287583,19.01 C429.937583,22.44 429.762583,25.03 429.762583,26.78 C429.762583,29.09 429.902583,30.525 430.217583,31.12 C430.532583,31.715 430.987583,32.03 431.547583,32.03 C432.457583,32.03 432.912583,31.47 432.912583,30.42 C432.772583,29.79 432.702583,29.23 432.632583,28.74 C432.457583,27.55 432.387583,26.535 432.387583,25.66 C432.387583,23.77 432.667583,21.565 433.262583,19.045 C433.437583,18.205 433.542583,17.75 433.542583,17.61 L433.542583,17.61 Z M450.227928,20.305 C450.227928,19.255 449.842928,18.695 449.107928,18.695 C448.477928,18.695 448.022928,19.045 447.812928,19.745 C447.182928,21.775 445.712928,22.755 443.472928,22.755 C442.037928,22.755 441.337928,22.44 441.337928,21.81 C441.337928,21.075 442.142928,20.2 443.752928,19.22 C445.222928,18.38 446.377928,17.96 447.287928,17.96 C447.497928,17.96 447.637928,17.995 447.742928,18.03 C447.952928,18.275 448.162928,18.38 448.407928,18.38 C448.687928,18.38 449.002928,18.24 449.317928,17.96 C449.597928,17.68 449.737928,17.365 449.737928,17.015 C449.737928,16.035 449.037928,15.51 447.707928,15.51 C445.992928,15.51 444.172928,16.105 442.212928,17.295 C439.937928,18.695 438.817928,20.235 438.817928,21.915 C438.817928,23 439.237928,23.84 440.112928,24.4 C440.742928,24.89 441.617928,25.1 442.702928,25.1 L443.017928,25.1 L440.672928,27.06 L440.462928,26.745 C440.077928,27.165 439.762928,27.515 439.552928,27.725 C439.202928,27.865 438.887928,28.145 438.642928,28.53 C438.327928,28.95 438.187928,29.335 438.187928,29.72 C438.187928,30.07 438.327928,30.385 438.642928,30.735 C438.922928,31.015 439.272928,31.19 439.622928,31.19 C439.972928,31.19 440.497928,30.84 441.197928,30.175 C443.682928,27.9 445.607928,26.185 446.937928,25.03 C446.552928,27.9 446.377928,29.51 446.377928,29.86 C446.377928,31.015 446.832928,31.61 447.742928,31.61 C448.512928,31.61 448.967928,31.12 449.037928,30.21 C449.527928,25.8 449.912928,22.51 450.227928,20.305 L450.227928,20.305 Z M481.778617,16.91 C481.778617,16.525 481.603617,16.175 481.253617,15.895 C480.868617,15.65 480.483617,15.51 480.098617,15.44 C476.528617,15.72 473.693617,15.965 471.663617,16.105 C470.438617,16.21 469.843617,16.63 469.843617,17.4 C469.843617,17.89 469.913617,18.31 470.123617,18.695 C469.878617,22.3 469.773617,24.12 469.773617,24.19 C469.528617,26.71 469.423617,27.97 469.423617,27.97 C469.423617,28.425 469.563617,28.88 469.878617,29.335 C470.193617,29.79 470.543617,30 470.963617,30 C471.663617,30 472.013617,29.545 472.083617,28.6 C472.293617,24.82 472.503617,21.565 472.783617,18.835 C474.568617,18.59 476.423617,18.415 478.348617,18.345 C478.348617,18.45 478.278617,20.165 478.173617,23.455 C478.033617,26.395 477.998617,27.97 477.998617,28.18 C477.998617,30.455 478.593617,31.61 479.853617,31.61 C480.518617,31.61 480.868617,31.225 480.868617,30.525 C480.658617,29.475 480.588617,28.495 480.588617,27.655 C480.588617,26.535 480.658617,24.75 480.798617,22.3 C480.833617,21.915 480.903617,21.355 481.008617,20.585 C481.078617,19.955 481.113617,19.605 481.113617,19.465 C481.113617,19.255 481.043617,18.94 480.973617,18.52 C481.498617,17.96 481.778617,17.435 481.778617,16.91 L481.778617,16.91 Z M499.863962,17.89 C499.863962,16.21 499.478962,14.81 498.708962,13.69 C497.868962,12.465 496.643962,11.835 495.103962,11.835 C492.898962,11.835 491.183962,13.375 489.958962,16.455 C489.118962,18.59 488.698962,21.04 488.698962,23.77 C488.698962,24.12 488.698962,24.4 488.733962,24.575 C487.753962,24.925 487.298962,25.45 487.298962,26.185 C487.298962,27.095 487.753962,27.585 488.733962,27.655 C488.803962,28.215 488.838962,29.055 488.838962,30.175 C488.838962,32.415 488.698962,33.99 488.488962,34.97 C488.243962,35.915 488.138962,36.44 488.138962,36.545 C488.138962,36.93 488.278962,37.28 488.558962,37.595 C488.838962,37.875 489.188962,38.05 489.573962,38.05 C490.308962,38.05 490.833962,37.315 491.148962,35.88 C491.498962,34.27 491.673962,32.625 491.673962,31.015 C491.673962,29.545 491.603962,28.11 491.498962,26.71 C497.063962,24.68 499.863962,21.74 499.863962,17.89 L499.863962,17.89 Z M497.063962,17.295 C497.063962,20.165 495.208962,22.265 491.533962,23.595 C491.533962,21.705 491.848962,19.78 492.513962,17.89 C493.248962,15.825 494.123962,14.775 495.103962,14.775 C495.698962,14.775 496.188962,15.055 496.573962,15.545 C496.888962,16.035 497.063962,16.63 497.063962,17.295 L497.063962,17.295 Z M516.234307,22.3 C516.234307,20.935 515.849307,19.675 515.079307,18.555 C514.274307,17.47 513.259307,16.7 512.034307,16.28 C511.544307,16.14 511.264307,16.07 511.194307,16.07 C510.914307,16.07 510.599307,16.245 510.179307,16.525 C509.689307,16.805 509.304307,17.015 509.024307,17.12 C507.834307,17.715 506.854307,18.765 506.154307,20.235 C505.454307,21.565 505.139307,23 505.139307,24.505 C505.139307,26.29 505.594307,27.76 506.574307,28.915 C507.554307,30.035 508.779307,30.63 510.249307,30.63 C511.929307,30.63 513.364307,29.86 514.519307,28.25 C515.639307,26.64 516.234307,24.68 516.234307,22.3 L516.234307,22.3 Z M513.469307,22.825 C513.469307,24.015 513.119307,25.1 512.489307,26.115 C511.789307,27.165 511.054307,27.69 510.214307,27.69 C509.514307,27.69 508.954307,27.375 508.534307,26.71 C508.079307,26.08 507.869307,25.345 507.869307,24.505 C507.869307,23.385 508.114307,22.335 508.674307,21.355 C509.304307,20.235 510.109307,19.64 511.089307,19.64 C511.439307,19.85 511.894307,19.955 512.454307,19.955 C513.119307,20.375 513.469307,21.355 513.469307,22.825 L513.469307,22.825 Z M546.149651,20.34 C546.149651,18.8 545.799651,17.505 545.099651,16.455 C544.329651,15.37 543.349651,14.81 542.159651,14.81 C539.709651,14.81 537.364651,17.015 535.159651,21.355 L535.544651,18.065 C535.964651,15.195 536.279651,13.095 536.559651,11.765 C536.559651,11.135 536.384651,10.54 536.069651,10.05 C535.754651,9.595 535.299651,9.35 534.739651,9.35 C533.969651,9.35 533.514651,10.225 533.339651,11.94 C532.884651,15.72 532.639651,17.855 532.604651,18.38 C532.044651,19.78 531.029651,21.46 529.489651,23.42 C527.809651,25.52 526.549651,26.535 525.779651,26.535 C524.939651,26.535 524.554651,26.08 524.554651,25.135 C524.554651,23.805 525.009651,22.335 525.989651,20.76 C526.934651,19.22 527.879651,18.415 528.789651,18.415 C529.209651,18.415 529.629651,18.59 530.119651,18.94 C530.504651,19.255 530.819651,19.395 531.064651,19.395 C531.624651,19.395 531.939651,19.185 531.939651,18.695 C531.939651,18.625 531.904651,18.52 531.904651,18.415 C531.659651,18.065 531.484651,17.82 531.344651,17.61 C530.714651,16.595 529.769651,16.07 528.509651,16.07 C526.794651,16.07 525.219651,17.19 523.749651,19.395 C522.349651,21.46 521.649651,23.42 521.649651,25.31 C521.649651,26.57 521.929651,27.55 522.524651,28.32 C523.084651,29.09 523.924651,29.44 525.044651,29.44 C527.459651,29.44 529.944651,27.585 532.464651,23.805 C532.079651,28.46 531.799651,31.89 531.589651,34.165 C531.554651,34.375 531.519651,34.655 531.484651,35.075 C531.414651,35.355 531.414651,35.565 531.414651,35.705 C531.414651,36.72 531.694651,37.42 532.254651,37.77 C532.569651,37.945 532.954651,38.05 533.409651,38.05 C533.829651,38.05 534.144651,37.805 534.424651,37.35 C534.669651,36.86 534.809651,36.335 534.809651,35.81 C534.809651,35.74 534.774651,35.46 534.739651,35.04 C534.669651,34.55 534.669651,34.2 534.669651,34.06 C534.669651,33.885 534.634651,33.57 534.634651,33.15 C534.599651,32.73 534.599651,32.415 534.599651,32.275 C534.599651,32.135 534.599651,31.54 534.634651,30.525 C534.634651,29.545 534.669651,28.95 534.669651,28.74 C534.669651,27.2 535.614651,24.96 537.504651,21.95 C539.394651,19.01 540.829651,17.505 541.879651,17.505 C542.929651,17.505 543.454651,18.52 543.454651,20.515 C543.454651,21.845 543.244651,23.07 542.824651,24.19 C542.229651,25.695 541.424651,26.43 540.374651,26.43 C539.954651,26.43 539.429651,26.115 538.869651,25.45 C538.309651,24.82 537.889651,24.47 537.609651,24.4 C537.294651,24.47 537.014651,24.645 536.804651,24.995 C536.559651,25.345 536.454651,25.66 536.454651,25.975 C536.454651,26.57 536.874651,27.2 537.714651,27.865 C538.554651,28.565 539.464651,28.915 540.444651,28.915 C542.544651,28.915 544.049651,27.935 545.029651,25.975 C545.764651,24.505 546.149651,22.65 546.149651,20.34 L546.149651,20.34 Z M564.549996,30.21 C564.549996,29.965 564.374996,29.65 564.059996,29.3 C563.289996,28.46 562.939996,26.325 562.939996,22.895 C562.939996,21.67 563.114996,19.605 563.499996,16.7 C563.499996,16.315 563.324996,15.965 563.044996,15.615 C562.729996,15.3 562.379996,15.125 561.994996,15.125 C561.399996,15.125 560.139996,16.42 558.249996,19.01 C556.709996,21.04 555.449996,22.895 554.399996,24.505 C554.644996,21.775 554.819996,19.78 554.924996,18.59 C554.924996,18.03 554.714996,17.54 554.364996,17.12 C554.014996,16.735 553.559996,16.525 552.999996,16.525 C552.684996,16.525 552.404996,16.735 552.124996,17.12 C552.194996,18.135 552.264996,18.73 552.264996,18.87 C552.264996,19.5 552.159996,21.075 551.984996,23.63 L551.914996,24.645 C551.879996,25.17 551.809996,25.87 551.739996,26.745 C551.634996,27.585 551.564996,28.11 551.564996,28.32 C551.599996,28.81 551.739996,29.195 552.019996,29.405 C552.579996,29.965 552.929996,30.21 553.069996,30.21 C553.559996,30.21 554.154996,29.685 554.784996,28.565 C556.079996,26.395 556.989996,24.855 557.549996,24.015 C558.459996,22.51 559.439996,21.11 560.524996,19.85 C560.524996,20.2 560.489996,20.935 560.489996,22.02 C560.454996,23.14 560.454996,23.735 560.454996,23.875 C560.454996,25.695 560.629996,27.235 561.014996,28.565 C561.539996,30.49 562.309996,31.47 563.289996,31.47 C563.499996,31.47 563.779996,31.295 564.094996,31.015 C564.374996,30.665 564.549996,30.42 564.549996,30.21 L564.549996,30.21 Z M584.070341,17.61 C584.070341,17.085 583.895341,16.63 583.545341,16.21 C583.230341,15.825 582.845341,15.615 582.355341,15.615 C582.145341,15.615 581.725341,15.825 581.095341,16.175 C580.465341,16.56 578.925341,16.875 576.440341,17.155 C575.880341,16.7 575.425341,16.455 575.110341,16.455 C574.725341,16.455 574.305341,16.665 573.885341,17.085 C573.465341,17.505 573.255341,17.96 573.255341,18.38 C573.255341,18.66 573.395341,19.01 573.675341,19.395 C573.920341,19.815 574.060341,20.27 574.060341,20.795 C574.060341,22.965 573.885341,24.75 573.535341,26.22 C573.080341,27.935 572.485341,28.775 571.785341,28.775 C571.505341,28.775 571.295341,28.355 571.225341,27.445 C571.155341,27.095 571.015341,26.885 570.735341,26.885 C570.245341,26.885 569.895341,27.13 569.650341,27.55 C569.335341,28.04 569.195341,28.6 569.195341,29.195 C569.195341,29.86 569.440341,30.35 569.965341,30.735 C570.455341,31.085 571.015341,31.295 571.645341,31.295 C573.465341,31.295 574.760341,30.105 575.530341,27.795 C576.020341,26.325 576.440341,23.665 576.790341,19.815 C577.665341,19.605 578.995341,19.325 580.815341,19.01 C580.465341,22.44 580.290341,25.03 580.290341,26.78 C580.290341,29.09 580.430341,30.525 580.745341,31.12 C581.060341,31.715 581.515341,32.03 582.075341,32.03 C582.985341,32.03 583.440341,31.47 583.440341,30.42 C583.300341,29.79 583.230341,29.23 583.160341,28.74 C582.985341,27.55 582.915341,26.535 582.915341,25.66 C582.915341,23.77 583.195341,21.565 583.790341,19.045 C583.965341,18.205 584.070341,17.75 584.070341,17.61 L584.070341,17.61 Z M602.155686,21.88 C602.155686,21.565 601.980686,21.215 601.700686,20.865 C601.700686,20.06 601.560686,19.36 601.350686,18.73 C601.385686,18.59 601.420686,18.415 601.420686,18.24 C601.420686,17.82 601.175686,17.4 600.755686,17.05 C600.300686,16.7 599.845686,16.49 599.390686,16.49 C597.465686,16.49 595.365686,17.61 593.055686,19.78 C590.640686,22.02 589.450686,24.19 589.450686,26.22 C589.450686,27.305 589.800686,28.25 590.570686,29.09 C591.305686,29.965 592.180686,30.385 593.195686,30.385 C594.770686,30.385 596.520686,29.405 598.480686,27.445 C598.655686,30.105 599.250686,31.47 600.265686,31.47 C600.615686,31.47 600.965686,31.33 601.280686,31.12 C601.560686,30.84 601.735686,30.49 601.735686,30.14 C601.735686,30.035 601.630686,29.615 601.490686,28.775 C601.315686,27.97 601.245686,27.34 601.245686,26.92 C601.245686,25.52 601.455686,24.12 601.945686,22.65 C602.085686,22.265 602.155686,22.02 602.155686,21.88 L602.155686,21.88 Z M598.970686,20.865 C598.970686,22.055 598.270686,23.455 596.940686,25.065 C595.610686,26.675 594.385686,27.445 593.335686,27.445 C592.600686,27.445 592.250686,27.025 592.250686,26.15 C592.250686,25.03 593.125686,23.63 594.910686,21.915 C596.520686,20.375 597.675686,19.57 598.340686,19.57 C598.760686,19.57 598.970686,20.025 598.970686,20.865 L598.970686,20.865 Z M619.50603,18.555 C619.50603,18.275 619.36603,17.96 619.08603,17.645 C618.80603,17.365 618.49103,17.225 618.21103,17.225 C617.93103,17.225 617.33603,17.435 616.46103,17.855 C614.99103,18.555 613.13603,19.885 610.96603,21.775 C611.45603,19.745 611.91103,18.135 612.40103,16.98 C612.68103,16.245 612.82103,15.79 612.82103,15.65 C612.82103,14.74 612.36603,14.285 611.52603,14.285 C610.96603,14.285 610.54603,14.6 610.26603,15.23 C608.55103,19.43 607.67603,24.05 607.60603,29.055 C607.53603,29.23 607.53603,29.405 607.53603,29.58 C607.53603,30 607.60603,30.385 607.74603,30.77 C607.95603,31.4 608.44603,31.75 609.14603,31.75 C609.91603,31.75 610.30103,31.295 610.30103,30.42 C610.30103,30.35 610.26603,30.14 610.26603,29.79 C610.23103,29.44 610.23103,29.195 610.23103,28.985 L610.23103,27.69 C610.23103,27.2 610.23103,26.64 610.30103,26.01 C610.54603,25.87 610.68603,25.8 610.72103,25.765 C612.05103,27.55 613.76603,29.125 615.83103,30.49 C616.46103,30.945 616.95103,31.19 617.30103,31.19 C618.14103,31.19 618.56103,30.735 618.56103,29.86 C618.56103,29.51 618.24603,29.02 617.68603,28.46 C616.70603,27.585 616.14603,27.13 615.93603,27.13 C615.86603,27.13 615.76103,27.165 615.69103,27.165 C614.32603,26.08 613.27603,25.03 612.57603,24.015 C614.25603,22.44 615.65603,21.32 616.81103,20.69 C616.95103,20.76 617.09103,20.795 617.26603,20.795 C617.72103,20.795 618.21103,20.55 618.70103,20.06 C619.22603,19.605 619.50603,19.115 619.50603,18.555 L619.50603,18.555 Z M638.256375,15.44 C638.256375,15.09 638.116375,14.74 637.871375,14.425 C637.626375,14.145 637.346375,13.97 637.031375,13.97 C636.506375,13.97 635.771375,14.11 634.791375,14.32 C630.941375,15.23 627.511375,16.035 624.571375,16.735 C624.361375,16.805 624.221375,16.805 624.151375,16.805 C623.451375,16.945 623.101375,17.47 623.101375,18.345 C623.101375,19.325 623.486375,19.78 624.326375,19.78 C625.341375,19.57 626.146375,19.395 626.706375,19.22 C627.721375,19.01 628.596375,18.8 629.331375,18.66 C629.191375,21.355 629.121375,23.945 629.121375,26.395 C629.121375,28.775 629.261375,30.42 629.541375,31.33 C629.751375,31.96 630.171375,32.275 630.871375,32.275 C631.781375,32.275 632.236375,31.435 632.236375,29.79 C632.236375,28.985 632.061375,28.39 631.781375,28.005 C631.711375,27.13 631.676375,25.765 631.676375,23.875 C631.676375,22.405 631.781375,20.41 632.061375,17.925 C633.076375,17.68 633.776375,17.505 634.196375,17.435 C634.511375,17.645 634.756375,17.715 634.931375,17.715 C635.141375,17.715 635.386375,17.68 635.701375,17.54 L637.311375,16.805 C637.941375,16.525 638.256375,16.07 638.256375,15.44 L638.256375,15.44 Z M655.18672,30.21 C655.18672,29.965 655.01172,29.65 654.69672,29.3 C653.92672,28.46 653.57672,26.325 653.57672,22.895 C653.57672,21.67 653.75172,19.605 654.13672,16.7 C654.13672,16.315 653.96172,15.965 653.68172,15.615 C653.36672,15.3 653.01672,15.125 652.63172,15.125 C652.03672,15.125 650.77672,16.42 648.88672,19.01 C647.34672,21.04 646.08672,22.895 645.03672,24.505 C645.28172,21.775 645.45672,19.78 645.56172,18.59 C645.56172,18.03 645.35172,17.54 645.00172,17.12 C644.65172,16.735 644.19672,16.525 643.63672,16.525 C643.32172,16.525 643.04172,16.735 642.76172,17.12 C642.83172,18.135 642.90172,18.73 642.90172,18.87 C642.90172,19.5 642.79672,21.075 642.62172,23.63 L642.55172,24.645 C642.51672,25.17 642.44672,25.87 642.37672,26.745 C642.27172,27.585 642.20172,28.11 642.20172,28.32 C642.23672,28.81 642.37672,29.195 642.65672,29.405 C643.21672,29.965 643.56672,30.21 643.70672,30.21 C644.19672,30.21 644.79172,29.685 645.42172,28.565 C646.71672,26.395 647.62672,24.855 648.18672,24.015 C649.09672,22.51 650.07672,21.11 651.16172,19.85 C651.16172,20.2 651.12672,20.935 651.12672,22.02 C651.09172,23.14 651.09172,23.735 651.09172,23.875 C651.09172,25.695 651.26672,27.235 651.65172,28.565 C652.17672,30.49 652.94672,31.47 653.92672,31.47 C654.13672,31.47 654.41672,31.295 654.73172,31.015 C655.01172,30.665 655.18672,30.42 655.18672,30.21 L655.18672,30.21 Z M672.537064,18.555 C672.537064,18.275 672.397064,17.96 672.117064,17.645 C671.837064,17.365 671.522064,17.225 671.242064,17.225 C670.962064,17.225 670.367064,17.435 669.492064,17.855 C668.022064,18.555 666.167064,19.885 663.997064,21.775 C664.487064,19.745 664.942064,18.135 665.432064,16.98 C665.712064,16.245 665.852064,15.79 665.852064,15.65 C665.852064,14.74 665.397064,14.285 664.557064,14.285 C663.997064,14.285 663.577064,14.6 663.297064,15.23 C661.582064,19.43 660.707064,24.05 660.637064,29.055 C660.567064,29.23 660.567064,29.405 660.567064,29.58 C660.567064,30 660.637064,30.385 660.777064,30.77 C660.987064,31.4 661.477064,31.75 662.177064,31.75 C662.947064,31.75 663.332064,31.295 663.332064,30.42 C663.332064,30.35 663.297064,30.14 663.297064,29.79 C663.262064,29.44 663.262064,29.195 663.262064,28.985 L663.262064,27.69 C663.262064,27.2 663.262064,26.64 663.332064,26.01 C663.577064,25.87 663.717064,25.8 663.752064,25.765 C665.082064,27.55 666.797064,29.125 668.862064,30.49 C669.492064,30.945 669.982064,31.19 670.332064,31.19 C671.172064,31.19 671.592064,30.735 671.592064,29.86 C671.592064,29.51 671.277064,29.02 670.717064,28.46 C669.737064,27.585 669.177064,27.13 668.967064,27.13 C668.897064,27.13 668.792064,27.165 668.722064,27.165 C667.357064,26.08 666.307064,25.03 665.607064,24.015 C667.287064,22.44 668.687064,21.32 669.842064,20.69 C669.982064,20.76 670.122064,20.795 670.297064,20.795 C670.752064,20.795 671.242064,20.55 671.732064,20.06 C672.257064,19.605 672.537064,19.115 672.537064,18.555 L672.537064,18.555 Z M690.202409,30.21 C690.202409,29.965 690.027409,29.65 689.712409,29.3 C688.942409,28.46 688.592409,26.325 688.592409,22.895 C688.592409,21.67 688.767409,19.605 689.152409,16.7 C689.152409,16.315 688.977409,15.965 688.697409,15.615 C688.382409,15.3 688.032409,15.125 687.647409,15.125 C687.052409,15.125 685.792409,16.42 683.902409,19.01 C682.362409,21.04 681.102409,22.895 680.052409,24.505 C680.297409,21.775 680.472409,19.78 680.577409,18.59 C680.577409,18.03 680.367409,17.54 680.017409,17.12 C679.667409,16.735 679.212409,16.525 678.652409,16.525 C678.337409,16.525 678.057409,16.735 677.777409,17.12 C677.847409,18.135 677.917409,18.73 677.917409,18.87 C677.917409,19.5 677.812409,21.075 677.637409,23.63 L677.567409,24.645 C677.532409,25.17 677.462409,25.87 677.392409,26.745 C677.287409,27.585 677.217409,28.11 677.217409,28.32 C677.252409,28.81 677.392409,29.195 677.672409,29.405 C678.232409,29.965 678.582409,30.21 678.722409,30.21 C679.212409,30.21 679.807409,29.685 680.437409,28.565 C681.732409,26.395 682.642409,24.855 683.202409,24.015 C684.112409,22.51 685.092409,21.11 686.177409,19.85 C686.177409,20.2 686.142409,20.935 686.142409,22.02 C686.107409,23.14 686.107409,23.735 686.107409,23.875 C686.107409,25.695 686.282409,27.235 686.667409,28.565 C687.192409,30.49 687.962409,31.47 688.942409,31.47 C689.152409,31.47 689.432409,31.295 689.747409,31.015 C690.027409,30.665 690.202409,30.42 690.202409,30.21 L690.202409,30.21 Z" id="Канефрон®-Н-применим"></path>
            </g>
        </g>
    </g>
</svg>